# Blender 5.0.1
# www.blender.org
o AZARO
v -0.006241 -2.696855 -1.425553
v -0.006023 -2.698938 0.483524
v 0.170953 -2.698294 0.479113
v 0.335900 -2.696708 0.429781
v 0.486709 -2.696444 0.355829
v 0.625455 -2.698434 0.254375
v 0.744431 -2.700048 0.114631
v 0.843165 -2.698825 -0.057247
v 0.917859 -2.697782 -0.245446
v 0.948361 -2.690989 -0.438693
v 0.934793 -2.687156 -0.630383
v 0.885996 -2.685640 -0.809532
v 0.800579 -2.687987 -0.977627
v 0.677278 -2.686390 -1.121602
v 0.530864 -2.686422 -1.244189
v 0.367726 -2.693966 -1.345423
v -0.006396 -0.141325 1.187610
v -0.006096 -0.367078 1.138720
v -0.006080 -0.234402 1.085716
v 0.145831 -0.199415 1.082608
v 0.179610 -0.367093 1.124247
v 0.395314 -0.230826 0.967461
v 0.091209 -0.112192 1.190152
v 0.092607 0.110575 1.141969
v -0.006219 0.077525 1.161397
v 0.032258 0.079552 1.157194
v 0.219862 0.184653 1.052135
v 0.265571 0.276317 1.003150
v 0.421842 -0.024382 0.953195
v 0.332196 -0.182093 1.024702
v 0.289724 0.363864 1.003552
v 0.325471 -0.530042 0.951062
v 0.174650 -0.495980 1.030298
v -0.006075 -0.496948 1.035597
v 0.162581 -0.633523 1.068448
v -0.006049 -0.631309 1.077523
v 0.182573 -0.799979 0.980581
v -0.006127 -0.802189 0.982511
v 0.591902 -0.683438 0.449870
v 0.650686 -0.227232 0.651964
v 0.938583 0.117143 0.207857
v 0.611916 -0.006195 0.740149
v 0.505996 0.332511 0.906489
v 0.734862 0.368862 0.809326
v 0.932394 0.536251 0.527735
v 0.177424 0.431238 1.155971
v 0.070551 0.320771 1.364502
v 0.137912 0.224167 1.257559
v 0.154169 0.291865 1.214242
v 0.183743 0.346238 1.133908
v -0.006139 0.200852 1.315507
v 0.052287 0.211214 1.305893
v -0.006120 0.316485 1.378427
v 0.187527 -0.926338 0.423145
v -0.006100 -0.945578 0.442836
v 0.460176 -0.838467 0.075347
v 0.546447 0.562946 0.808346
v 0.803667 0.653813 0.634742
v 0.718144 0.710855 0.654765
v 0.315399 0.503295 0.918104
v 0.166679 0.576388 1.113892
v 0.059347 0.434006 1.318706
v 0.092061 0.626627 1.197965
v 0.068018 0.788841 1.108280
v 0.125884 0.933172 1.062771
v 0.155782 0.773452 0.974448
v 0.222481 0.678801 0.863304
v 0.223378 0.761717 0.819883
v 0.437625 0.245724 0.966085
v 0.288353 0.709207 0.788693
v 0.283829 0.781215 0.804259
v 0.912539 -0.335340 -0.148878
v 0.796357 0.786430 0.647467
v 0.898596 0.808359 0.430719
v 0.719135 0.763052 0.664268
v 0.855837 -0.432614 -0.240350
v 0.227632 0.241940 1.115268
v 0.382575 -0.987154 0.122183
v 0.174604 -1.369378 0.230134
v 0.100279 -1.230721 0.354649
v -0.006018 -1.371632 0.240876
v 0.237729 -1.853355 0.141918
v 0.151833 -1.865625 0.196750
v -0.005539 -1.861002 0.207089
v -0.006090 -1.235737 0.359626
v 0.809741 -0.729900 -0.455434
v 0.707240 -1.838400 -0.408361
v 1.071637 0.695331 -0.296855
v 1.054872 0.832409 -0.314049
v 1.057619 0.515814 -0.293306
v 1.006059 0.182507 -0.235438
v 1.008236 0.133123 -0.268658
v 1.032696 0.157274 -0.385617
v 0.936834 0.203129 0.294070
v -0.005954 0.795138 1.119923
v -0.006102 0.437236 1.323969
v -0.006184 0.634424 1.209926
v -0.006100 0.933735 1.066464
v 0.247968 1.197520 1.105800
v -0.006094 1.197938 1.110025
v 0.253677 1.523787 0.922742
v 0.284295 1.844935 0.742682
v 0.847606 1.763093 0.181990
v 0.779715 1.350643 0.614696
v 0.799012 1.042785 0.754683
v 0.312957 1.977560 0.519623
v -0.006093 1.527795 0.928850
v -0.006100 1.845135 0.742954
v 0.725420 0.892303 0.738805
v 0.657257 0.866290 0.752899
v 0.895856 1.817785 -0.287961
v 0.955294 1.734192 -0.822688
v 1.065780 0.905589 -0.437220
v 0.417315 0.983647 0.961410
v 0.173799 0.817506 0.971246
v 0.413061 0.909511 0.876975
v 0.359159 2.099517 0.190869
v 0.413179 2.223355 -0.377228
v 0.438418 2.223825 -0.868783
v -0.006100 1.989744 0.539561
v -0.006096 2.129105 0.196251
v -0.006100 2.256999 -0.373174
v -0.006099 2.261250 -0.918998
v 0.989492 1.512848 -1.042459
v 0.509160 1.768284 -1.477714
v -0.006094 1.792869 -1.494285
v 1.152117 0.880653 -0.439049
v 1.149272 0.819579 -0.418225
v 1.103475 0.893970 -0.456186
v 1.118659 0.915853 -0.530543
v 1.163208 0.935688 -0.670188
v 1.220043 0.841600 -0.799747
v 1.143727 0.758108 -0.769794
v 1.096880 0.850341 -0.672969
v 1.182455 0.901032 -0.531654
v 1.217431 0.936889 -0.677442
v 1.249278 0.863550 -0.771603
v 1.130775 0.726322 -0.398439
v 1.085176 0.647108 -0.455701
v 1.121500 0.590415 -0.538492
v 1.112062 0.503479 -0.376393
v 1.107980 0.425389 -0.367561
v 1.148049 0.338741 -0.445795
v 1.187642 0.417355 -0.509830
v 1.042637 0.167816 -0.315033
v 1.130459 0.185606 -0.535304
v 1.181764 0.193210 -0.532143
v 1.156345 0.586604 -0.607064
v 1.126390 0.747777 -0.515948
v 1.149878 0.823629 -0.500691
v 1.231204 0.419502 -0.590071
v 1.221927 0.624669 -0.674684
v 1.210317 0.806005 -0.690778
v 1.275514 0.449010 -0.659974
v 1.305755 0.621462 -0.774986
v 1.276375 0.582287 -0.815534
v 1.307799 0.522178 -0.730211
v 1.208971 0.250651 -0.604092
v 1.231634 0.328408 -0.672254
v 1.262266 0.436713 -0.756586
v 1.154348 0.520175 -0.768615
v 1.144347 0.431118 -0.720920
v 1.124766 0.349374 -0.663634
v 1.136792 0.262947 -0.606547
v 1.049497 0.780307 -0.782207
v 1.008372 0.512318 -0.817577
v 0.973591 0.384026 -0.745364
v 0.978413 0.313562 -0.661932
v 0.993796 0.181928 -0.499532
v 0.984582 0.243328 -0.584104
v 1.055537 0.885424 -0.603624
v 1.041500 0.855539 -0.699194
v 0.981445 1.238623 -1.225251
v 0.973147 0.918249 -1.291066
v 0.942270 0.643558 -1.283270
v 0.876800 0.323844 -1.243162
v 0.913115 0.127332 -0.626583
v 0.666118 -0.138352 -1.098239
v 0.488871 1.365607 -1.584309
v -0.006281 1.363781 -1.610979
v 0.482497 0.963765 -1.651234
v 0.489828 0.614755 -1.675781
v 0.478103 0.444293 -1.673866
v -0.006138 0.962812 -1.667706
v -0.006100 0.607465 -1.686616
v -0.006062 0.444031 -1.685665
v 0.619551 -0.835934 -1.054415
v 0.216928 -0.052689 -1.281995
v -0.005974 -0.056422 -1.288711
v 0.199154 -0.695418 -1.282526
v -0.006113 -0.694673 -1.287290
v 0.303615 -1.419268 0.124798
v -0.006085 -1.617874 0.217523
v 0.160039 -1.616851 0.207835
v 0.741441 -1.282896 -0.441051
v 0.976016 -1.929418 -0.439327
v 0.740884 -1.557297 -1.076609
v 0.414154 -1.305720 -1.302817
v 0.371168 -1.932302 -1.348948
v -0.006074 -1.966491 -1.415068
v -0.006665 -1.203438 -1.344242
v 0.537959 -1.930659 -1.256173
v 0.692895 -1.930455 -1.139824
v 0.816641 -1.930449 -0.990795
v 0.906220 -1.930579 -0.819447
v 0.960537 -1.930458 -0.635220
v 0.946611 -1.927958 -0.238952
v 0.870476 -1.924465 -0.043202
v 0.762261 -1.924509 0.126805
v 0.634295 -1.928636 0.263828
v 0.492309 -1.929981 0.364463
v 0.338262 -1.930401 0.435282
v 0.171550 -1.929584 0.481743
v -0.006115 -1.928890 0.485847
v -0.183755 -2.698757 0.482708
v -0.350981 -2.698265 0.436540
v -0.502203 -2.697920 0.361009
v -0.639432 -2.699982 0.256297
v -0.764842 -2.706724 0.121008
v -0.866127 -2.713794 -0.054793
v -0.930143 -2.697654 -0.245345
v -0.973670 -2.698352 -0.440358
v -0.963894 -2.693820 -0.632377
v -0.905636 -2.686609 -0.811145
v -0.814859 -2.685161 -0.980454
v -0.697156 -2.689656 -1.131690
v -0.549843 -2.691150 -1.254018
v -0.381793 -2.693995 -1.348604
v -0.159264 -0.203058 1.086489
v -0.193952 -0.367170 1.129290
v -0.414270 -0.235498 0.979292
v -0.103997 -0.113587 1.194121
v -0.105588 0.104415 1.157413
v -0.044594 0.077609 1.160939
v -0.252687 0.171805 1.070433
v -0.306159 0.273600 1.026573
v -0.447052 -0.022667 0.977345
v -0.346944 -0.194188 1.033978
v -0.324068 0.364234 1.015323
v -0.346553 -0.531947 0.957521
v -0.187144 -0.496658 1.033604
v -0.175314 -0.633362 1.072104
v -0.194671 -0.799408 0.979936
v -0.610555 -0.690228 0.450838
v -0.670473 -0.229785 0.656135
v -0.963626 0.114238 0.210896
v -0.669218 -0.021602 0.767308
v -0.518395 0.332656 0.906896
v -0.753359 0.369476 0.818686
v -0.964486 0.536782 0.536811
v -0.235943 0.434203 1.187383
v -0.091458 0.316614 1.375705
v -0.147911 0.226485 1.255918
v -0.206404 0.303698 1.238208
v -0.254152 0.345305 1.162154
v -0.073119 0.203858 1.313424
v -0.207771 -0.933077 0.432974
v -0.487984 -0.845827 0.083550
v -0.558034 0.561945 0.806369
v -0.808023 0.648334 0.626243
v -0.741174 0.709414 0.663041
v -0.339686 0.511801 0.925810
v -0.194885 0.586755 1.123691
v -0.071791 0.436819 1.323292
v -0.107226 0.632549 1.206867
v -0.081748 0.793681 1.117973
v -0.138228 0.933342 1.064190
v -0.177056 0.773793 0.978611
v -0.251172 0.687668 0.869605
v -0.253214 0.760021 0.828510
v -0.446601 0.244866 0.959412
v -0.305401 0.715011 0.798675
v -0.295335 0.775071 0.815923
v -0.945996 -0.350955 -0.152428
v -0.785645 0.796194 0.631562
v -0.928734 0.811410 0.440077
v -0.742561 0.761361 0.671937
v -0.886215 -0.442503 -0.238137
v -0.260890 0.229621 1.124571
v -0.408506 -0.991503 0.132759
v -0.188277 -1.371060 0.237770
v -0.112847 -1.233880 0.357838
v -0.256297 -1.851147 0.151088
v -0.164440 -1.864179 0.200416
v -0.844580 -0.734386 -0.452063
v -0.721367 -1.837843 -0.405385
v -1.105742 0.690854 -0.291448
v -1.090129 0.837743 -0.305015
v -1.090165 0.514772 -0.283997
v -1.038850 0.178588 -0.230008
v -1.038645 0.130381 -0.264900
v -1.068262 0.149062 -0.384603
v -0.959859 0.200279 0.297085
v -0.260338 1.197542 1.108975
v -0.266281 1.525789 0.925755
v -0.296448 1.843587 0.741104
v -0.867754 1.770373 0.184366
v -0.811464 1.356751 0.623645
v -0.816865 1.040292 0.759626
v -0.325254 1.978859 0.520196
v -0.735994 0.893721 0.736434
v -0.675657 0.866716 0.760845
v -0.924880 1.829195 -0.286116
v -0.981737 1.745373 -0.826343
v -1.100977 0.910824 -0.435686
v -0.427429 0.987097 0.958235
v -0.186428 0.817397 0.971458
v -0.426339 0.907244 0.878952
v -0.372069 2.103713 0.192188
v -0.426093 2.228108 -0.376788
v -0.452520 2.231158 -0.869177
v -1.022029 1.516706 -1.046339
v -0.522518 1.772305 -1.482741
v -1.164656 0.886084 -0.436941
v -1.181731 0.825154 -0.400481
v -1.115806 0.894434 -0.456086
v -1.131684 0.902632 -0.529419
v -1.194052 0.921762 -0.663417
v -1.244733 0.836095 -0.786410
v -1.155637 0.757592 -0.768709
v -1.108859 0.849487 -0.672665
v -1.196548 0.917984 -0.526824
v -1.232495 0.941864 -0.677937
v -1.262460 0.870883 -0.778884
v -1.159992 0.709836 -0.390264
v -1.109187 0.623014 -0.438924
v -1.160723 0.597799 -0.524331
v -1.149094 0.520371 -0.368788
v -1.141833 0.424211 -0.350360
v -1.189924 0.337535 -0.428298
v -1.221151 0.423777 -0.495270
v -1.057624 0.166878 -0.314326
v -1.156533 0.199504 -0.524343
v -1.188974 0.182870 -0.537668
v -1.191904 0.592220 -0.593192
v -1.171349 0.746010 -0.510943
v -1.193873 0.813462 -0.498387
v -1.274374 0.428765 -0.575142
v -1.248154 0.627937 -0.658410
v -1.249002 0.798863 -0.679000
v -1.318376 0.449776 -0.642484
v -1.341920 0.629501 -0.758325
v -1.290095 0.582749 -0.811859
v -1.345747 0.534205 -0.711696
v -1.217524 0.244711 -0.611676
v -1.241872 0.325646 -0.676094
v -1.273786 0.435766 -0.758123
v -1.168610 0.518420 -0.774802
v -1.161486 0.423697 -0.730675
v -1.141967 0.338642 -0.675617
v -1.149233 0.261906 -0.607489
v -1.077773 0.785635 -0.793770
v -1.035755 0.504596 -0.827275
v -1.008087 0.375274 -0.751351
v -1.007730 0.305570 -0.667977
v -1.021894 0.173965 -0.507432
v -1.009524 0.236906 -0.589894
v -1.088895 0.889795 -0.605489
v -1.078879 0.860651 -0.704694
v -1.011031 1.242255 -1.233908
v -1.004153 0.917037 -1.299889
v -0.987103 0.635406 -1.294283
v -0.910947 0.309122 -1.249798
v -0.945893 0.119212 -0.632466
v -0.696199 -0.146534 -1.104772
v -0.503569 1.368731 -1.597793
v -0.495744 0.964492 -1.657593
v -0.502647 0.614763 -1.679050
v -0.490545 0.443761 -1.676034
v -0.648095 -0.837785 -1.064601
v -0.229154 -0.053209 -1.282905
v -0.211458 -0.694924 -1.284313
v -0.325493 -1.420731 0.135633
v -0.175361 -1.617472 0.213148
v -0.771133 -1.284180 -0.431639
v -1.001807 -1.927994 -0.438360
v -0.763503 -1.556109 -1.083155
v -0.426767 -1.203359 -1.306048
v -0.386027 -1.932942 -1.350961
v -0.555894 -1.930500 -1.264185
v -0.712611 -1.930388 -1.146915
v -0.839377 -1.930372 -0.997043
v -0.931366 -1.930331 -0.823920
v -0.985772 -1.929893 -0.637280
v -0.973276 -1.927495 -0.235328
v -0.859040 -1.889166 -0.054202
v -0.782964 -1.920309 0.133013
v -0.652307 -1.926397 0.270961
v -0.508363 -1.929119 0.371005
v -0.352166 -1.929770 0.439622
v -0.184227 -1.929160 0.484230
v 0.551309 0.640592 0.823463
v 0.692128 0.730565 0.687652
v 0.651992 0.806133 0.759016
v 0.424186 0.840866 0.879015
v 0.653030 0.738127 0.711675
v 0.569713 0.686925 0.776195
v 0.474057 0.677986 0.808918
v 0.333122 0.716063 0.796245
v 0.435045 0.796069 0.823847
v 0.631527 0.781809 0.749856
v -0.475666 0.838018 0.878309
v -0.674226 0.801583 0.774718
v -0.008615 -2.623379 -0.308966
vn 0.4307 0.2983 0.8518
vn -0.7295 0.3701 0.5751
vn 0.7464 -0.6654 0.0129
vn -0.0152 -0.6252 -0.7803
vn 0.6576 -0.0325 0.7527
vn -0.9912 0.1027 -0.0832
vn -0.7443 -0.6000 0.2934
vn 0.9737 -0.0748 0.2152
vn -0.0221 -0.4858 0.8738
vn -0.0082 0.5018 0.8650
vn 0.0928 0.3812 0.9198
vn 0.8133 -0.0120 0.5818
vn -0.5868 -0.6219 0.5185
vn -0.1509 -0.7587 -0.6337
vn 0.0661 -0.6565 0.7514
vn 0.1758 -0.4048 -0.8973
vn -0.7387 0.4300 0.5191
vn 0.9420 -0.0170 0.3353
vn -0.0171 0.3533 0.9354
vn -0.0685 0.9291 0.3634
vn 0.4862 -0.4738 0.7343
vn 0.9058 -0.2637 0.3318
vn -0.0209 -0.2756 0.9610
vn 0.7337 0.2173 0.6438
vn -0.9826 -0.1819 0.0380
vn 0.9153 -0.3479 0.2030
vn 0.6656 -0.5916 0.4549
vn 0.2235 -0.4659 0.8561
vn 0.9918 0.1246 0.0289
vn -0.0510 -0.7494 -0.6602
vn 0.8775 0.0906 0.4709
vn 0.4983 -0.8489 0.1761
vn 0.2949 -0.5423 0.7868
vn 0.0800 0.9968 0.0051
vn -0.3467 -0.2048 0.9154
vn 0.6470 0.6447 -0.4071
vn 0.1448 -0.6768 -0.7218
vn 0.6902 0.5796 0.4333
vn 0.7570 0.3008 0.5801
vn -0.4477 0.3112 0.8383
vn 0.7908 0.2230 0.5700
vn 0.8283 0.1470 0.5406
vn 0.8727 0.2981 0.3867
vn 0.8334 0.2640 0.4855
vn -0.0248 0.1458 -0.9890
vn 0.7928 -0.2368 0.5616
vn 0.7219 -0.2062 0.6606
vn 0.5515 -0.0509 0.8326
vn 0.3175 0.0095 -0.9482
vn -0.0149 -0.6539 0.7565
vn 0.7904 -0.4348 0.4316
vn 0.9826 -0.1288 0.1335
vn 0.9675 0.1444 0.2077
vn 0.9884 -0.0524 0.1427
vn 0.9729 -0.1549 0.1715
vn -0.6330 0.6529 -0.4160
vn 0.4127 -0.2943 0.8620
vn -0.4969 -0.8402 0.2172
vn 0.8709 -0.0396 0.4899
vn -0.1218 0.7697 -0.6267
vn 0.1186 -0.9681 0.2205
vn 0.1761 0.4808 0.8590
vn -0.9773 0.1602 0.1387
vn -0.0836 -0.6430 -0.7613
vn 0.9703 0.1478 0.1913
vn 0.8275 -0.3519 0.4376
vn 0.0902 -0.6660 -0.7405
vn -0.1667 -0.0040 -0.9860
vn 0.1947 -0.7419 0.6416
vn -0.7303 0.4211 0.5378
vn -0.9886 -0.0572 0.1391
vn 0.8429 -0.0395 0.5366
vn 0.5153 -0.3352 0.7887
vn 0.2404 0.0543 -0.9692
vn -0.7263 0.0787 0.6828
vn -0.8395 -0.3229 0.4371
vn 0.2219 0.9345 0.2784
vn 0.3036 0.6187 0.7246
vn 0.3597 -0.3094 0.8803
vn -0.4009 0.3088 0.8625
vn 0.4901 -0.1868 0.8514
vn 0.0820 0.9724 0.2184
vn 0.9556 -0.2944 -0.0074
vn -0.0286 0.4034 0.9146
vn -0.0342 0.2977 0.9541
vn 0.5479 -0.6914 -0.4708
vn -0.8865 -0.3052 0.3478
vn -0.6192 0.0603 -0.7829
vn 0.8450 -0.3847 -0.3715
vn -0.0609 0.8477 0.5270
vn 0.2765 0.9602 -0.0387
vn -0.8468 -0.3799 -0.3723
vn 0.3611 -0.4821 0.7983
vn -0.9804 -0.1252 0.1521
vn 0.9048 0.1899 0.3813
vn -0.9018 -0.1269 0.4130
vn -0.9464 0.3131 0.0800
vn -0.8760 -0.4784 -0.0610
vn -0.5850 0.4988 0.6395
vn 0.7647 0.1054 0.6357
vn 0.7609 -0.2112 0.6135
vn 0.9807 0.1551 0.1187
vn 0.8375 0.0180 0.5461
vn 0.7130 -0.7012 0.0043
vn 0.1513 -0.9846 -0.0875
vn 0.7388 -0.1731 0.6514
vn 0.8510 -0.3495 0.3919
vn 0.4885 -0.6849 0.5406
vn 0.8856 -0.0927 0.4552
vn -0.9497 -0.1373 -0.2815
vn 0.1987 -0.7233 0.6613
vn -0.5934 -0.5934 0.5438
vn 0.7871 -0.2820 0.5486
vn 0.9205 -0.0888 0.3805
vn 0.6963 0.1933 -0.6913
vn -0.6189 0.1874 -0.7628
vn 0.7318 0.2755 0.6233
vn -0.9559 -0.2937 -0.0077
vn 0.8888 -0.4537 -0.0641
vn 0.8188 -0.2819 -0.5001
vn -0.3498 -0.0203 -0.9366
vn -0.9311 -0.2704 0.2449
vn 0.9916 0.1277 -0.0202
vn -0.6964 0.4159 0.5848
vn -0.0165 -0.1627 0.9865
vn -0.0267 -0.9789 -0.2027
vn 0.0649 0.8540 0.5161
vn 0.2610 -0.5263 -0.8093
vn 0.4269 -0.6875 -0.5874
vn -0.9945 0.0737 -0.0744
vn 0.6090 0.1742 -0.7738
vn -0.7479 -0.3092 0.5874
vn 0.2383 0.9164 -0.3216
vn -0.3439 0.9345 -0.0921
vn -0.4269 0.9043 -0.0078
vn 0.8352 -0.1017 0.5404
vn 0.9891 0.0046 -0.1472
vn 0.4528 -0.0860 -0.8875
vn 0.3497 -0.4807 0.8041
vn 0.8452 -0.3840 -0.3717
vn 0.9326 -0.3323 -0.1412
vn 0.8451 -0.3847 -0.3713
vn 0.8384 -0.3699 -0.4003
vn 0.8565 -0.3688 -0.3610
vn -0.6489 -0.2495 -0.7188
vn -0.8769 0.0258 0.4799
vn -0.8465 0.0069 0.5324
vn 0.0428 0.9755 0.2160
vn -0.7711 0.4345 0.4654
vn 0.1088 -0.7762 0.6211
vn 0.1354 0.7683 -0.6256
vn 0.4177 -0.0133 0.9085
vn 0.5709 0.3692 0.7333
vn 0.0643 -0.0426 0.9970
vn 0.4265 0.2591 0.8666
vn -0.9936 0.0294 -0.1089
vn 0.0340 -0.6211 -0.7830
vn 0.5340 0.1008 0.8395
vn -0.7629 -0.0390 -0.6453
vn 0.6041 -0.1056 0.7899
vn 0.0525 0.1632 -0.9852
vn 0.1311 0.0502 0.9901
vn 0.9300 0.3371 -0.1463
vn -0.0467 0.3706 0.9276
vn -0.9630 0.1093 0.2464
vn 0.5796 0.0202 -0.8147
vn -0.0411 -0.0429 0.9982
vn 0.0609 -0.6207 0.7817
vn 0.1731 -0.0053 -0.9849
vn 0.4649 0.1015 0.8796
vn 0.0249 -0.0030 0.9997
vn -0.0096 -0.6218 0.7831
vn -0.0204 0.0616 -0.9979
vn 0.7310 -0.0275 0.6818
vn -0.4468 -0.0043 0.8946
vn -0.0141 0.4871 0.8732
vn -0.8805 -0.0379 -0.4724
vn -0.0260 0.0015 -0.9997
vn 0.9310 -0.0394 0.3628
vn -0.9980 -0.0363 -0.0517
vn 0.5783 -0.0134 0.8157
vn 0.0281 0.5053 0.8625
vn 0.6823 -0.2269 -0.6950
vn 0.3247 0.9449 0.0408
vn 0.1371 0.9801 0.1436
vn 0.2104 0.9684 0.1342
vn 0.1261 0.9735 0.1909
vn 0.1372 0.9779 0.1576
vn 0.2889 0.9526 0.0954
vn 0.4790 0.1552 -0.8640
vn 0.5994 0.0582 -0.7983
vn 0.9348 0.2241 -0.2757
vn 0.8949 0.4403 -0.0730
vn 0.8838 0.0732 -0.4620
vn 0.7693 0.0093 -0.6388
vn -0.4017 0.3097 0.8618
vn -0.9585 -0.1687 0.2297
vn -0.6653 0.5949 0.4511
vn -0.6231 -0.0424 0.7810
vn 0.9341 0.0046 0.3569
vn -0.5964 -0.0846 0.7982
vn 0.9821 0.1694 0.0827
vn 0.3264 0.3213 0.8890
vn -0.2281 0.5462 0.8060
vn -0.5830 0.7804 0.2260
vn -0.0355 0.5061 0.8617
vn -0.0293 0.9712 0.2365
vn -0.9010 0.0475 0.4312
vn 0.1371 0.2086 0.9684
vn 0.8287 0.1683 0.5338
vn -0.8625 -0.4679 -0.1928
vn -0.2754 -0.5298 -0.8021
vn 0.9831 0.1676 -0.0732
vn 0.8146 0.1865 0.5492
vn -0.8419 0.0194 0.5392
vn 0.0962 0.1973 0.9756
vn -0.1579 0.0911 -0.9832
vn -0.5757 0.1317 0.8070
vn -0.0664 -0.7952 -0.6027
vn -0.3264 0.0636 -0.9431
vn -0.6397 0.3477 0.6855
vn -0.7898 -0.3326 0.5154
vn -0.8972 -0.3629 0.2516
vn 0.0197 0.9687 0.2476
vn 0.0588 0.9250 0.3755
vn 0.9096 0.2724 0.3139
vn -0.4070 0.4634 0.7871
vn -0.5007 -0.8444 0.1906
vn -0.2252 -0.6893 0.6886
vn 0.7025 0.3762 0.6041
vn -0.0155 -0.0187 -0.9997
vn 0.8891 -0.3149 0.3321
vn 0.2603 -0.1777 0.9490
vn -0.7934 0.0985 0.6007
vn 0.7786 -0.1028 0.6191
vn -0.0214 -0.6764 -0.7362
vn -0.7011 -0.3950 0.5936
vn -0.8674 -0.1073 0.4859
vn -0.5989 -0.0282 -0.8003
vn -0.7860 -0.2358 0.5715
vn -0.7360 -0.3733 0.5648
vn -0.4794 -0.0664 0.8751
vn 0.5435 0.4583 -0.7032
vn 0.0269 -0.1626 0.9863
vn -0.7896 -0.4320 0.4358
vn 0.7991 -0.1425 0.5840
vn -0.7598 -0.6334 0.1465
vn -0.9820 -0.1135 0.1510
vn 0.9725 0.1060 0.2075
vn 0.7474 -0.0503 0.6625
vn -0.3716 -0.1991 0.9068
vn 0.1754 -0.7471 -0.6411
vn -0.9080 -0.1870 -0.3748
vn -0.5782 0.1505 -0.8019
vn 0.0145 -0.4654 0.8850
vn -0.0544 -0.7741 0.6307
vn 0.9744 0.1725 0.1443
vn -0.8727 -0.2259 0.4328
vn -0.9609 0.1231 0.2482
vn 0.0268 0.2650 0.9639
vn -0.4348 0.6861 -0.5832
vn -0.0318 0.4884 0.8720
vn 0.0335 0.0531 -0.9980
vn -0.5895 -0.4331 0.6819
vn -0.9622 0.1256 0.2416
vn 0.8879 0.3818 0.2565
vn -0.4734 -0.6239 0.6218
vn 0.9765 -0.1268 -0.1743
vn -0.5143 0.0470 0.8563
vn -0.7947 -0.1498 0.5883
vn -0.8817 -0.1144 0.4578
vn -0.4669 -0.2392 0.8514
vn 0.4862 -0.0184 -0.8737
vn 0.8315 0.3842 0.4012
vn 0.6890 0.7239 -0.0366
vn 0.5941 0.1471 -0.7908
vn -0.5230 0.7691 0.3674
vn 0.6514 0.0668 -0.7558
vn -0.6775 0.7343 -0.0426
vn -0.8806 0.3400 0.3301
vn -0.0286 -0.4869 0.8730
vn -0.4683 -0.7130 0.5219
vn -0.7646 -0.1001 0.6366
vn 0.2760 -0.5731 0.7716
vn -0.7624 -0.2525 0.5958
vn -0.0292 0.8027 -0.5957
vn 0.0108 0.9704 0.2413
vn 0.2324 0.9397 0.2510
vn -0.3955 -0.6887 -0.6077
vn -0.8236 -0.3308 0.4607
vn -0.7771 -0.0176 0.6291
vn -0.9537 -0.2237 0.2011
vn -0.5729 -0.7696 0.2818
vn 0.3010 -0.1834 0.9358
vn -0.0031 -0.7425 -0.6698
vn -0.9030 -0.1024 0.4172
vn -0.7940 -0.2412 -0.5580
vn 0.0939 0.4985 0.8618
vn 0.9540 -0.0818 -0.2884
vn -0.9028 0.3542 0.2438
vn 0.7581 -0.2084 0.6179
vn -0.2414 -0.4370 -0.8665
vn -0.6742 0.3250 0.6631
vn 0.2656 -0.5274 0.8070
vn 0.2439 0.5388 0.8063
vn -0.8502 -0.4500 -0.2733
vn -0.6300 -0.1990 0.7506
vn 0.4323 0.3576 0.8278
vn -0.9817 -0.1302 -0.1388
vn -0.4548 0.0285 0.8901
vn -0.1500 -0.9564 -0.2505
vn 0.2314 0.9724 0.0311
vn 0.7589 -0.0897 0.6450
vn 0.0235 0.1112 -0.9935
vn -0.1446 -0.7232 0.6754
vn -0.7112 0.3770 -0.5933
vn -0.0145 0.1112 -0.9937
vn -0.5849 0.7604 -0.2824
vn -0.8486 0.4732 0.2366
vn 0.5050 0.6656 -0.5495
vn -0.9921 -0.1231 -0.0252
vn -0.9898 0.0079 -0.1419
vn -0.8170 -0.1126 0.5655
vn 0.0730 -0.5301 -0.8448
vn -0.8664 -0.3115 -0.3902
vn -0.9546 -0.2458 -0.1683
vn -0.8640 -0.3293 -0.3810
vn -0.8750 -0.3534 -0.3309
vn -0.8907 -0.3507 -0.2894
vn -0.0341 0.2344 0.9715
vn 0.9450 -0.2914 -0.1485
vn -0.6072 0.4922 -0.6238
vn -0.7264 -0.0251 0.6869
vn 0.1226 -0.2512 0.9601
vn 0.5625 0.8126 0.1523
vn -0.5360 0.4040 0.7412
vn -0.0178 -0.9663 0.2567
vn -0.0688 0.9732 0.2193
vn 0.0585 -0.0943 0.9938
vn 0.0280 0.2904 0.9565
vn -0.7148 -0.0731 0.6955
vn -0.0116 0.1189 0.9928
vn -0.9663 -0.0751 0.2462
vn 0.9887 -0.0358 0.1454
vn -0.0037 0.9651 0.2618
vn -0.5672 -0.1113 0.8161
vn 0.0232 -0.0022 -0.9997
vn -0.1280 0.0355 0.9911
vn -0.9302 0.3348 -0.1506
vn -0.0664 0.9978 0.0078
vn 0.3549 0.7095 -0.6088
vn -0.4988 0.2467 -0.8308
vn -0.5657 0.0192 -0.8244
vn 0.2684 -0.0077 0.9633
vn -0.0259 -0.0944 0.9952
vn -0.8657 -0.0276 0.4999
vn 0.9963 -0.0344 -0.0785
vn 0.7690 -0.0313 -0.6385
vn 0.9588 -0.0294 -0.2827
vn -0.6064 -0.0152 0.7950
vn 0.0220 -0.0127 -0.9997
vn -0.4550 -0.0155 -0.8903
vn 0.6004 -0.0183 -0.7995
vn -0.2567 -0.0021 0.9665
vn 0.1670 0.0610 -0.9841
vn 0.0509 0.2621 -0.9637
vn -0.0324 0.2726 -0.9616
vn 0.8858 -0.0298 -0.4631
vn -0.9500 -0.0292 -0.3108
vn -0.3102 0.9498 0.0413
vn -0.1336 0.9818 0.1351
vn -0.1720 -0.5374 -0.8256
vn 0.0250 0.9877 0.1541
vn -0.1230 0.9713 0.2034
vn -0.1340 0.9763 0.1700
vn -0.3302 0.9439 0.0085
vn -0.4457 0.1771 -0.8775
vn -0.5982 0.0549 -0.7995
vn -0.9342 0.2300 -0.2728
vn -0.8944 0.4408 -0.0763
vn -0.8809 0.0709 -0.4681
vn -0.7635 0.0062 -0.6458
vn -0.3850 -0.2181 0.8968
vn 0.7927 0.3807 0.4761
vn 0.7363 -0.1347 0.6632
vn 0.8642 0.2598 0.4309
vn -0.1744 -0.1776 0.9685
vn 0.3247 -0.0123 0.9457
vn 0.1855 0.6647 0.7237
vn 0.3676 -0.6852 0.6288
vn 0.3684 -0.5273 0.7656
vn 0.6856 -0.2576 0.6809
vn -0.1331 -0.1675 0.9769
vn 0.9255 -0.2941 0.2385
vn -0.7168 -0.2622 0.6461
vn 0.2133 -0.3055 0.9280
vn -0.4460 -0.0987 0.8896
vn -0.4506 0.1430 0.8812
vn 0.6576 0.4636 -0.5939
vn -0.4977 0.1078 0.8606
vn 0.4327 -0.7716 0.4662
vn 0.9802 0.1966 0.0238
vn 0.9846 -0.1135 0.1331
vn 0.2001 -0.0597 0.9780
vn 0.2757 -0.6732 0.6861
vn 0.9041 0.0088 0.4273
vn 0.7554 -0.3423 0.5587
vn 0.5428 -0.0552 0.8380
vn 0.8274 -0.2781 0.4880
vn -0.8808 0.3637 0.3032
vn 0.9768 -0.1644 0.1373
vn 0.8967 -0.1786 0.4049
vn 0.3756 -0.8229 0.4263
vn 0.4723 -0.7438 0.4729
vn 0.4888 -0.3245 0.8098
vn 0.5338 0.7656 0.3590
vn 0.2485 0.8229 0.5109
vn 0.7394 0.1862 0.6471
vn 0.8423 -0.1170 0.5261
vn 0.8131 -0.0248 0.5816
vn 0.8584 -0.2598 0.4424
vn 0.3210 -0.9422 0.0955
vn 0.8874 -0.3379 0.3135
vn 0.7390 0.2896 0.6083
vn 0.8701 -0.1535 0.4683
vn 0.8723 -0.1860 -0.4523
vn -0.3477 -0.0185 -0.9374
vn 0.4272 0.8400 0.3345
vn -0.6122 0.4959 -0.6159
vn 0.9912 -0.1269 -0.0370
vn 0.9552 -0.2204 -0.1977
vn 0.6038 -0.1067 0.7900
vn 0.0645 0.9746 0.2143
vn -0.9824 -0.1090 0.1517
vn 0.2155 -0.3027 0.9284
vn -0.2403 -0.6090 0.7559
vn -0.6344 0.3290 0.6995
vn -0.6971 -0.2153 0.6839
vn -0.5103 -0.0512 0.8584
vn -0.8243 -0.2843 0.4896
vn -0.9690 0.1228 0.2142
vn -0.9769 -0.1533 0.1488
vn -0.9665 -0.1351 0.2181
vn -0.0091 -0.0020 1.0000
vn -0.7560 -0.3773 0.5349
vn -0.8041 -0.1211 0.5820
vn -0.3779 -0.3218 0.8681
vn -0.4608 -0.3811 0.8015
vn -0.3170 0.8385 -0.4432
vn 0.8870 -0.0924 0.4524
vn -0.6472 0.5853 0.4884
vn -0.4264 -0.0820 -0.9008
vn -0.8187 0.0478 0.5722
vn -0.9555 -0.1757 0.2371
vn 0.5481 -0.6141 -0.5679
vn -0.9713 0.1106 0.2106
vn -0.8870 -0.3519 0.2992
vn -0.6822 0.3433 0.6456
vn 0.0904 0.9891 -0.1161
vn -0.9463 -0.2883 -0.1462
vn -0.5692 -0.1046 0.8155
vn -0.6332 0.1215 -0.7644
vn -0.4539 -0.0471 0.8898
vn 0.0154 0.4814 0.8764
vn -0.1365 -0.1812 0.9739
vn -0.4793 -0.3391 0.8095
vn -0.6908 -0.3826 0.6135
vn 0.5197 0.2106 -0.8280
vn 0.7473 -0.0752 0.6603
vn 0.3827 -0.0663 0.9215
vn 0.6721 -0.2809 0.6851
vn -0.6487 -0.3101 0.6950
vn -0.2823 0.3438 0.8956
vn -0.6740 0.3504 0.6504
vn -0.8982 0.0604 0.4355
vn 0.3679 -0.5629 0.7401
vn -0.5358 0.3856 0.7512
vn -0.8808 0.3197 0.3492
vn 0.5392 0.1636 0.8261
vn 0.4533 0.8907 0.0329
vn -0.8367 -0.1085 0.5369
vn 0.9390 -0.3329 -0.0864
vn -0.3381 0.0312 -0.9406
vn -0.7634 -0.5584 0.3246
vn -0.6860 0.0498 0.7259
vn 0.5905 0.1671 0.7895
vn 0.0160 0.1661 0.9860
vn -0.0976 0.9680 0.2313
vn -0.7331 -0.1338 0.6669
vn -0.4200 -0.7572 0.5002
vn 0.5570 0.3651 0.7459
vn 0.7501 -0.6124 0.2498
vn 0.3541 0.0288 0.9348
vn -0.0644 -0.5185 0.8527
vn 0.2934 -0.5432 0.7867
vn -0.4790 0.0595 0.8758
vn -0.8456 0.0934 0.5256
vn 0.8942 -0.4334 -0.1125
vn -0.0645 0.2432 0.9678
vn -0.2155 -0.6895 0.6915
vn -0.6255 -0.4527 0.6354
vn 0.6299 0.1295 -0.7658
vn 0.7265 -0.1062 0.6789
vn 0.2566 0.3529 0.8998
vn 0.4901 0.1928 0.8501
vn -0.4581 0.2040 0.8652
vn -0.0644 -0.9979 0.0091
vn 0.0388 -0.9959 -0.0822
vn 0.0637 -0.9959 -0.0639
vn -0.0480 -0.9981 0.0383
vn 0.0903 -0.9953 -0.0341
vn -0.0520 -0.9981 0.0335
vn 0.0997 -0.9949 -0.0174
vn -0.0378 -0.9982 0.0455
vn 0.0724 -0.9915 -0.1083
vn 0.0032 -0.9976 0.0691
vn 0.0794 -0.9967 -0.0141
vn 0.0013 -0.9955 -0.0949
vn 0.0059 -0.9978 0.0657
vn -1.0000 -0.0001 0.0033
vn 0.0801 -0.9966 -0.0194
vn -0.0175 -0.9957 -0.0907
vn 0.0785 -0.9968 -0.0146
vn -0.0380 -0.9960 -0.0811
vn -0.0006 -0.9955 -0.0949
vn -0.0611 -0.9961 -0.0640
vn 0.0578 -0.9981 0.0224
vn -0.0729 -0.9961 -0.0506
vn 0.0314 -0.9980 0.0541
vn 0.0334 -0.9981 0.0524
vn -0.0736 -0.9961 -0.0494
vn 0.0177 -0.9980 0.0614
vn -0.0775 -0.9963 -0.0363
vn -0.0768 -0.9959 -0.0471
vn -0.0064 -0.9978 0.0656
vn 0.0219 -0.9957 -0.0900
vn -1.0000 0.0047 -0.0009
vn -0.0725 -0.9973 -0.0148
vn -0.6317 0.1530 0.7600
vn 0.7697 -0.6138 0.1756
vn -0.0293 -0.6212 -0.7831
vn -0.9815 0.1758 0.0760
vn -0.9944 -0.0853 0.0625
vn 0.9134 -0.2587 0.3144
vn -0.0191 -0.4835 0.8751
vn -0.0142 0.5054 0.8628
vn 0.1412 0.4070 0.9025
vn 0.7605 -0.1841 0.6227
vn -0.3617 -0.7502 0.5535
vn -0.2831 -0.5661 -0.7742
vn 0.0531 -0.6513 0.7570
vn 0.1110 -0.3304 -0.9373
vn -0.8608 0.3591 0.3607
vn -0.0309 0.3597 0.9326
vn -0.0543 0.9252 0.3756
vn 0.8892 -0.3138 0.3331
vn -0.0633 -0.2606 0.9634
vn -0.9279 -0.3388 0.1555
vn 0.6872 -0.6344 0.3541
vn 0.1823 -0.4873 0.8540
vn 0.9893 0.0021 -0.1460
vn -0.1183 -0.6530 -0.7481
vn 0.0830 0.9965 0.0078
vn 0.7012 0.5539 -0.4488
vn -0.1070 -0.7569 -0.6447
vn 0.5941 0.5336 0.6019
vn -0.4803 0.1726 0.8599
vn 0.7915 0.2235 0.5689
vn -0.0200 0.1400 -0.9899
vn 0.1544 0.1060 -0.9823
vn -0.0241 -0.6578 0.7528
vn 0.9839 -0.0938 0.1524
vn -0.6882 0.5623 -0.4584
vn -0.7616 -0.3890 0.5183
vn 0.8727 0.0096 0.4881
vn -0.0453 0.8025 -0.5950
vn 0.0139 -0.9664 0.2568
vn 0.1436 0.4951 0.8569
vn -0.9726 0.1589 0.1696
vn -0.1751 -0.5595 -0.8101
vn 0.8560 -0.2892 0.4286
vn 0.1935 -0.5747 -0.7952
vn -0.2006 0.0141 -0.9796
vn -0.6067 0.3224 0.7266
vn -0.9753 -0.0362 0.2178
vn 0.8669 -0.0277 0.4978
vn 0.2958 0.0083 -0.9552
vn -0.8722 -0.2434 0.4243
vn 0.1491 0.9399 0.3071
vn -0.4941 0.4121 0.7655
vn 0.0801 0.9723 0.2196
vn 0.9750 -0.2092 -0.0746
vn -0.0120 0.4111 0.9115
vn -0.0102 0.2703 0.9627
vn 0.2190 -0.7055 -0.6740
vn -0.8979 -0.2714 0.3466
vn -0.5715 -0.0509 -0.8190
vn 0.9204 -0.2813 -0.2714
vn -0.0080 0.8150 0.5794
vn -0.9026 -0.3074 -0.3013
vn 0.4805 -0.6709 0.5648
vn -0.9805 -0.1228 0.1534
vn 0.8582 -0.3219 0.3998
vn -0.9175 -0.0735 0.3908
vn -0.9314 0.0731 0.3565
vn -0.3043 0.5416 0.7836
vn 0.8270 0.1855 0.5307
vn 0.7871 -0.3318 0.5200
vn 0.9724 0.1523 0.1766
vn 0.7286 -0.1524 0.6677
vn 0.4187 -0.7243 0.5477
vn -0.9840 0.1601 -0.0784
vn 0.1791 -0.7177 0.6730
vn -0.6040 -0.6168 0.5048
vn 0.7978 -0.1346 0.5877
vn 0.6219 0.1558 -0.7675
vn -0.7910 -0.3447 0.5055
vn -0.7530 -0.1569 0.6391
vn 0.9954 0.0313 -0.0908
vn -0.6285 0.3115 0.7127
vn -0.0038 -0.1688 0.9856
vn 0.0011 0.8150 0.5795
vn 0.3026 -0.4762 -0.8257
vn 0.2802 -0.4012 -0.8721
vn -0.9940 0.0317 -0.1046
vn 0.7242 0.3676 -0.5834
vn -0.6839 -0.0987 0.7229
vn 0.8902 -0.1372 0.4344
vn 0.3770 -0.0097 -0.9262
vn 0.3235 -0.4845 0.8128
vn -0.6224 -0.0578 -0.7806
vn -0.8759 0.0550 0.4793
vn -0.9478 -0.0572 0.3136
vn 0.0093 0.9716 0.2366
vn -0.7309 0.4146 0.5421
vn 0.2349 -0.7432 0.6264
vn 0.0574 0.8026 -0.5938
vn 0.4403 -0.0078 0.8978
vn 0.5576 0.3987 0.7281
vn 0.0584 -0.0464 0.9972
vn 0.4219 0.4160 0.8056
vn -0.9900 0.1347 0.0413
vn 0.0193 -0.6253 -0.7801
vn 0.5146 0.0939 0.8523
vn -0.7893 -0.0284 -0.6134
vn 0.0331 0.1400 -0.9896
vn 0.0543 0.2412 0.9689
vn -0.9563 0.0538 0.2875
vn -0.0259 -0.0527 0.9983
vn 0.0268 -0.5895 0.8073
vn 0.2094 0.0140 -0.9777
vn 0.4713 0.0483 0.8807
vn 0.0231 -0.0034 0.9997
vn -0.0400 -0.5952 0.8026
vn -0.0144 0.0531 -0.9985
vn 0.7612 -0.0167 0.6483
vn -0.4022 -0.0151 0.9154
vn -0.0044 0.4814 0.8765
vn -0.8824 -0.0390 -0.4689
vn -0.0145 -0.0022 -0.9999
vn 0.9289 -0.0378 0.3685
vn -0.9964 -0.0290 -0.0800
vn 0.5900 -0.0167 0.8072
vn 0.0012 0.4890 0.8723
vn 0.6563 -0.0536 -0.7526
vn -0.9587 -0.1681 0.2294
vn -0.5817 0.5537 0.5959
vn 0.9029 -0.1181 0.4132
vn 0.9925 0.0984 -0.0730
vn 0.3387 0.3177 0.8856
vn -0.5559 0.7050 0.4404
vn -0.5518 0.8166 0.1691
vn -0.0121 0.5006 0.8656
vn -0.0035 0.9748 0.2229
vn -0.7936 -0.2011 0.5743
vn 0.7407 -0.0044 0.6718
vn -0.9440 -0.2964 -0.1446
vn -0.3713 -0.4149 -0.8307
vn 0.9518 -0.1248 -0.2801
vn 0.8292 0.2114 0.5175
vn -0.0613 0.1187 0.9910
vn -0.0904 0.0562 -0.9943
vn -0.0725 -0.7875 -0.6120
vn -0.3631 0.0434 -0.9307
vn -0.7664 -0.2194 0.6037
vn 0.0989 0.9703 0.2209
vn 0.0807 0.9308 0.3566
vn 0.7615 0.5228 0.3832
vn -0.5554 0.1113 0.8241
vn 0.6202 0.2514 0.7431
vn -0.0199 -0.0058 -0.9998
vn 0.8232 -0.0799 0.5621
vn 0.1733 -0.0846 0.9812
vn 0.7717 -0.2157 0.5983
vn -0.1283 -0.8091 -0.5735
vn -0.6389 -0.0154 -0.7692
vn 0.4632 0.6263 -0.6271
vn 0.0161 -0.1679 0.9857
vn 0.8190 -0.0864 0.5672
vn -0.7419 -0.6695 0.0360
vn 0.9569 0.1200 0.2645
vn 0.7729 -0.1135 0.6243
vn 0.2724 -0.5951 -0.7561
vn -0.9529 -0.0833 -0.2916
vn -0.5968 0.1061 -0.7954
vn 0.0406 -0.4856 0.8733
vn -0.0092 -0.7807 0.6248
vn 0.9679 -0.0708 0.2412
vn -0.8864 -0.3077 0.3459
vn 0.0552 0.2974 0.9531
vn -0.6327 0.6898 -0.3518
vn -0.0355 0.4870 0.8727
vn 0.0207 0.0706 -0.9973
vn -0.9695 0.1188 0.2142
vn 0.9334 0.2909 0.2103
vn -0.3792 -0.4767 0.7931
vn 0.9773 -0.1149 -0.1778
vn -0.8167 -0.0879 0.5703
vn -0.8784 0.2170 0.4258
vn 0.5275 -0.0063 -0.8495
vn 0.7996 0.4034 0.4449
vn 0.6393 0.7682 0.0336
vn 0.6049 0.1215 -0.7869
vn 0.5841 -0.0886 -0.8069
vn -0.6199 0.7838 0.0381
vn -0.7749 0.5095 0.3740
vn -0.0487 -0.4774 0.8773
vn -0.7906 -0.0421 0.6109
vn 0.6537 -0.1927 0.7318
vn -0.4846 -0.3636 0.7956
vn -0.1016 0.7679 -0.6325
vn 0.2248 0.9522 0.2070
vn -0.1153 0.9841 0.1350
vn -0.2556 -0.4005 -0.8799
vn 0.6230 0.3576 0.6957
vn 0.1213 -0.5353 -0.8359
vn -0.7683 -0.2933 -0.5690
vn 0.1437 0.5080 0.8493
vn 0.9095 -0.1841 -0.3726
vn -0.7882 0.5254 0.3205
vn 0.8842 0.0972 0.4568
vn -0.1724 -0.3553 -0.9187
vn 0.2255 -0.7341 0.6405
vn 0.5395 0.4977 0.6791
vn -0.8338 -0.4856 -0.2627
vn -0.2402 -0.5850 0.7746
vn 0.4102 0.4024 0.8184
vn -0.9852 -0.0628 -0.1596
vn -0.4946 0.0409 0.8682
vn 0.2900 0.9570 0.0016
vn 0.7923 -0.0129 0.6100
vn 0.1154 0.0736 -0.9906
vn -0.1627 -0.7287 0.6652
vn -0.6031 0.1924 -0.7741
vn -0.0902 0.0806 -0.9927
vn -0.8172 -0.0820 0.5705
vn 0.1379 -0.5657 -0.8130
vn 0.0722 0.3700 0.9262
vn 0.8674 -0.4571 -0.1968
vn -0.6560 0.3620 -0.6623
vn -0.7324 -0.0273 0.6803
vn 0.0579 -0.2752 0.9596
vn 0.6023 0.7661 0.2243
vn -0.5670 0.3333 0.7532
vn -0.0717 -0.9685 0.2384
vn -0.0700 0.9733 0.2186
vn 0.0603 -0.0931 0.9938
vn 0.1747 0.3545 0.9186
vn -0.8570 0.1370 0.4968
vn 0.1050 0.1383 0.9848
vn -0.9735 0.1776 0.1443
vn 0.9873 -0.0382 0.1545
vn -0.0616 0.9739 0.2187
vn 0.0301 -0.0000 -0.9995
vn -0.0687 0.9976 0.0099
vn 0.2576 0.7588 -0.5982
vn 0.2866 -0.0035 0.9581
vn -0.0173 -0.1003 0.9948
vn -0.9260 0.0077 0.3775
vn 0.9968 -0.0363 -0.0713
vn 0.7591 -0.0274 -0.6504
vn 0.9642 -0.0345 -0.2629
vn -0.5709 -0.0251 0.8207
vn 0.0244 -0.0058 -0.9997
vn -0.4906 -0.0054 -0.8714
vn 0.6416 -0.0317 -0.7663
vn -0.2661 -0.0043 0.9639
vn 0.1196 0.0919 -0.9886
vn 0.0432 0.2536 -0.9663
vn -0.0230 0.2624 -0.9647
vn 0.8913 -0.0268 -0.4526
vn -0.9594 -0.0374 -0.2796
vn -0.2151 -0.5614 -0.7991
vn 0.8054 0.1092 0.5825
vn 0.9990 -0.0448 0.0051
vn 0.5381 0.6060 -0.5858
vn -0.4355 0.0256 0.8998
vn 0.8833 -0.4554 0.1111
vn 0.8315 -0.0540 0.5529
vn -0.8249 0.2268 0.5178
vn 0.9764 -0.1421 0.1626
vn 0.2596 -0.1938 0.9461
vn -0.0046 -0.0030 1.0000
vn -0.3550 -0.0077 -0.9348
vn 0.0280 0.4887 0.8720
vt 0.000000 0.000000
s 0
f 21/1/1 22/1/1 20/1/1
f 264/1/2 254/1/2 252/1/2
f 56/1/3 72/1/3 39/1/3
f 186/1/4 371/1/4 369/1/4
f 29/1/5 30/1/5 22/1/5
f 305/1/6 304/1/6 358/1/6
f 326/1/7 287/1/7 325/1/7
f 135/1/8 153/1/8 136/1/8
f 242/1/9 38/1/9 36/1/9
f 295/1/10 108/1/10 296/1/10
f 96/1/11 47/1/11 62/1/11
f 394/1/12 75/1/12 110/1/12
f 233/1/13 256/1/13 253/1/13
f 350/1/14 354/1/14 355/1/14
f 81/1/15 80/1/15 85/1/15
f 347/1/16 348/1/16 349/1/16
f 331/1/17 335/1/17 338/1/17
f 46/1/18 49/1/18 50/1/18
f 266/1/19 98/1/19 267/1/19
f 300/1/20 121/1/20 309/1/20
f 47/1/21 52/1/21 48/1/21
f 72/1/22 40/1/22 39/1/22
f 55/1/23 282/1/23 85/1/23
f 45/1/24 58/1/24 44/1/24
f 315/1/25 336/1/25 325/1/25
f 27/1/26 28/1/26 77/1/26
f 77/1/27 24/1/27 27/1/27
f 52/1/28 53/1/28 51/1/28
f 171/1/29 124/1/29 112/1/29
f 351/1/30 355/1/30 357/1/30
f 49/1/31 47/1/31 48/1/31
f 39/1/32 54/1/32 56/1/32
f 30/1/33 20/1/33 22/1/33
f 119/1/34 122/1/34 118/1/34
f 272/1/35 270/1/35 273/1/35
f 112/1/36 125/1/36 119/1/36
f 164/1/37 147/1/37 146/1/37
f 104/1/38 106/1/38 102/1/38
f 74/1/39 58/1/39 45/1/39
f 302/1/40 402/1/40 308/1/40
f 46/1/41 63/1/41 62/1/41
f 49/1/42 48/1/42 77/1/42
f 28/1/43 50/1/43 77/1/43
f 50/1/44 49/1/44 77/1/44
f 180/1/45 367/1/45 366/1/45
f 56/1/46 54/1/46 78/1/46
f 78/1/47 80/1/47 79/1/47
f 194/1/48 82/1/48 192/1/48
f 166/1/49 133/1/49 161/1/49
f 81/1/50 282/1/50 281/1/50
f 56/1/51 86/1/51 76/1/51
f 90/1/52 94/1/52 91/1/52
f 74/1/53 88/1/53 89/1/53
f 41/1/54 92/1/54 91/1/54
f 72/1/55 93/1/55 92/1/55
f 313/1/56 304/1/56 311/1/56
f 44/1/57 43/1/57 42/1/57
f 243/1/58 244/1/58 257/1/58
f 144/1/59 142/1/59 143/1/59
f 126/1/60 311/1/60 123/1/60
f 37/1/61 55/1/61 54/1/61
f 97/1/62 64/1/62 95/1/62
f 303/1/63 288/1/63 297/1/63
f 164/1/64 159/1/64 158/1/64
f 105/1/65 74/1/65 104/1/65
f 94/1/66 44/1/66 42/1/66
f 351/1/67 346/1/67 350/1/67
f 200/1/68 228/1/68 379/1/68
f 110/1/69 114/1/69 116/1/69
f 251/1/70 265/1/70 263/1/70
f 376/1/71 221/1/71 385/1/71
f 209/1/72 8/1/72 208/1/72
f 73/1/73 105/1/73 109/1/73
f 320/1/74 343/1/74 319/1/74
f 340/1/75 342/1/75 339/1/75
f 293/1/76 249/1/76 250/1/76
f 130/1/77 127/1/77 135/1/77
f 393/1/78 397/1/78 392/1/78
f 65/1/79 114/1/79 99/1/79
f 248/1/80 262/1/80 259/1/80
f 114/1/81 105/1/81 99/1/81
f 117/1/82 122/1/82 121/1/82
f 128/1/83 149/1/83 150/1/83
f 53/1/84 264/1/84 252/1/84
f 34/1/85 242/1/85 36/1/85
f 334/1/86 351/1/86 333/1/86
f 274/1/87 245/1/87 246/1/87
f 362/1/88 367/1/88 368/1/88
f 72/1/89 177/1/89 93/1/89
f 296/1/90 120/1/90 300/1/90
f 113/1/91 127/1/91 129/1/91
f 364/1/92 274/1/92 292/1/92
f 115/1/93 114/1/93 65/1/93
f 293/1/94 289/1/94 290/1/94
f 68/1/95 66/1/95 67/1/95
f 236/1/96 255/1/96 239/1/96
f 314/1/97 337/1/97 315/1/97
f 336/1/98 326/1/98 325/1/98
f 272/1/99 262/1/99 269/1/99
f 155/1/100 153/1/100 152/1/100
f 32/1/101 40/1/101 22/1/101
f 89/1/102 111/1/102 103/1/102
f 90/1/103 142/1/103 141/1/103
f 145/1/104 92/1/104 93/1/104
f 147/1/105 93/1/105 146/1/105
f 57/1/106 393/1/106 392/1/106
f 159/1/107 154/1/107 151/1/107
f 24/1/108 52/1/108 26/1/108
f 149/1/109 140/1/109 148/1/109
f 370/1/110 375/1/110 285/1/110
f 19/1/111 23/1/111 17/1/111
f 233/1/112 279/1/112 235/1/112
f 115/1/113 64/1/113 66/1/113
f 136/1/114 153/1/114 137/1/114
f 132/1/115 155/1/115 156/1/115
f 342/1/116 319/1/116 343/1/116
f 157/1/117 152/1/117 154/1/117
f 345/1/118 338/1/118 346/1/118
f 154/1/119 160/1/119 157/1/119
f 156/1/120 157/1/120 160/1/120
f 133/1/121 156/1/121 161/1/121
f 329/1/122 332/1/122 290/1/122
f 173/1/123 172/1/123 165/1/123
f 335/1/124 341/1/124 338/1/124
f 100/1/125 267/1/125 98/1/125
f 146/1/126 93/1/126 169/1/126
f 120/1/127 102/1/127 106/1/127
f 166/1/128 162/1/128 167/1/128
f 176/1/129 188/1/129 183/1/129
f 359/1/130 360/1/130 352/1/130
f 125/1/131 173/1/131 179/1/131
f 231/1/132 247/1/132 245/1/132
f 172/1/133 171/1/133 134/1/133
f 113/1/134 130/1/134 171/1/134
f 131/1/135 171/1/135 130/1/135
f 142/1/136 145/1/136 143/1/136
f 174/1/137 173/1/137 165/1/137
f 190/1/138 178/1/138 187/1/138
f 75/1/139 109/1/139 110/1/139
f 93/1/140 177/1/140 169/1/140
f 176/1/141 166/1/141 167/1/141
f 169/1/142 177/1/142 170/1/142
f 170/1/143 177/1/143 168/1/143
f 167/1/144 168/1/144 177/1/144
f 362/1/145 369/1/145 363/1/145
f 331/1/146 329/1/146 328/1/146
f 385/1/147 220/1/147 386/1/147
f 84/1/148 213/1/148 83/1/148
f 263/1/149 266/1/149 268/1/149
f 26/1/150 51/1/150 25/1/150
f 119/1/151 126/1/151 123/1/151
f 212/1/152 5/1/152 211/1/152
f 104/1/153 99/1/153 105/1/153
f 83/1/154 193/1/154 84/1/154
f 43/1/155 31/1/155 69/1/155
f 358/1/156 312/1/156 359/1/156
f 186/1/157 188/1/157 189/1/157
f 30/1/158 27/1/158 24/1/158
f 381/1/159 225/1/159 382/1/159
f 79/1/160 192/1/160 78/1/160
f 181/1/161 180/1/161 179/1/161
f 87/1/162 196/1/162 195/1/162
f 197/1/163 195/1/163 196/1/163
f 19/1/164 230/1/164 18/1/164
f 340/1/165 322/1/165 323/1/165
f 198/1/166 197/1/166 199/1/166
f 193/1/167 284/1/167 84/1/167
f 34/1/168 21/1/168 18/1/168
f 16/1/169 200/1/169 199/1/169
f 395/1/170 110/1/170 116/1/170
f 3/1/171 214/1/171 2/1/171
f 18/1/172 241/1/172 34/1/172
f 184/1/173 368/1/173 367/1/173
f 210/1/174 7/1/174 209/1/174
f 390/1/175 217/1/175 216/1/175
f 294/1/176 107/1/176 295/1/176
f 383/1/177 225/1/177 224/1/177
f 189/1/178 372/1/178 371/1/178
f 8/1/179 207/1/179 208/1/179
f 376/1/180 223/1/180 222/1/180
f 5/1/181 210/1/181 211/1/181
f 101/1/182 108/1/182 107/1/182
f 183/1/183 175/1/183 176/1/183
f 207/1/184 196/1/184 87/1/184
f 87/1/185 82/1/185 209/1/185
f 87/1/186 209/1/186 208/1/186
f 211/1/187 210/1/187 82/1/187
f 210/1/188 209/1/188 82/1/188
f 208/1/189 207/1/189 87/1/189
f 202/1/190 199/1/190 197/1/190
f 202/1/191 197/1/191 203/1/191
f 206/1/192 205/1/192 197/1/192
f 196/1/193 206/1/193 197/1/193
f 197/1/194 205/1/194 204/1/194
f 197/1/195 204/1/195 203/1/195
f 230/1/196 229/1/196 231/1/196
f 345/1/197 330/1/197 331/1/197
f 300/1/198 298/1/198 296/1/198
f 247/1/199 271/1/199 248/1/199
f 158/1/200 143/1/200 147/1/200
f 237/1/201 231/1/201 238/1/201
f 113/1/202 112/1/202 111/1/202
f 57/1/203 43/1/203 44/1/203
f 315/1/204 305/1/204 314/1/204
f 303/1/205 309/1/205 310/1/205
f 264/1/206 97/1/206 265/1/206
f 284/1/207 214/1/207 84/1/207
f 339/1/208 336/1/208 340/1/208
f 23/1/209 24/1/209 26/1/209
f 138/1/210 89/1/210 88/1/210
f 364/1/211 363/1/211 365/1/211
f 349/1/212 353/1/212 354/1/212
f 187/1/213 195/1/213 197/1/213
f 61/1/214 31/1/214 60/1/214
f 251/1/215 255/1/215 254/1/215
f 25/1/216 23/1/216 26/1/216
f 379/1/217 201/1/217 200/1/217
f 232/1/218 233/1/218 238/1/218
f 357/1/219 333/1/219 351/1/219
f 353/1/220 320/1/220 352/1/220
f 250/1/221 249/1/221 260/1/221
f 240/1/222 245/1/222 244/1/222
f 235/1/223 279/1/223 236/1/223
f 212/1/224 82/1/224 83/1/224
f 106/1/225 121/1/225 120/1/225
f 61/1/226 67/1/226 66/1/226
f 259/1/227 260/1/227 249/1/227
f 244/1/228 258/1/228 257/1/228
f 238/1/229 229/1/229 232/1/229
f 154/1/230 148/1/230 151/1/230
f 185/1/231 369/1/231 368/1/231
f 94/1/232 40/1/232 41/1/232
f 59/1/233 73/1/233 75/1/233
f 276/1/234 260/1/234 275/1/234
f 50/1/235 31/1/235 46/1/235
f 146/1/236 170/1/236 164/1/236
f 254/1/237 279/1/237 253/1/237
f 255/1/238 279/1/238 254/1/238
f 380/1/239 226/1/239 381/1/239
f 258/1/240 280/1/240 257/1/240
f 280/1/241 282/1/241 257/1/241
f 374/1/242 283/1/242 284/1/242
f 319/1/243 321/1/243 320/1/243
f 65/1/244 100/1/244 98/1/244
f 285/1/245 258/1/245 278/1/245
f 195/1/246 78/1/246 192/1/246
f 258/1/247 274/1/247 278/1/247
f 291/1/248 246/1/248 290/1/248
f 103/1/249 74/1/249 89/1/249
f 22/1/250 42/1/250 29/1/250
f 249/1/251 247/1/251 248/1/251
f 167/1/252 163/1/252 168/1/252
f 365/1/253 285/1/253 364/1/253
f 360/1/254 367/1/254 361/1/254
f 35/1/255 38/1/255 37/1/255
f 234/1/256 51/1/256 256/1/256
f 90/1/257 74/1/257 45/1/257
f 293/1/258 245/1/258 247/1/258
f 299/1/259 298/1/259 276/1/259
f 34/1/260 35/1/260 33/1/260
f 320/1/261 359/1/261 352/1/261
f 266/1/262 97/1/262 95/1/262
f 181/1/263 185/1/263 184/1/263
f 299/1/264 275/1/264 301/1/264
f 297/1/265 276/1/265 298/1/265
f 140/1/266 141/1/266 144/1/266
f 307/1/267 306/1/267 308/1/267
f 175/1/268 165/1/268 166/1/268
f 261/1/269 275/1/269 260/1/269
f 280/1/270 375/1/270 373/1/270
f 270/1/271 268/1/271 307/1/271
f 299/1/272 306/1/272 294/1/272
f 15/1/273 199/1/273 202/1/273
f 144/1/274 148/1/274 140/1/274
f 119/1/275 111/1/275 112/1/275
f 181/1/276 173/1/276 174/1/276
f 297/1/277 300/1/277 309/1/277
f 181/1/278 175/1/278 182/1/278
f 303/1/279 311/1/279 304/1/279
f 269/1/280 263/1/280 268/1/280
f 256/1/281 53/1/281 252/1/281
f 273/1/282 307/1/282 308/1/282
f 373/1/283 286/1/283 283/1/283
f 32/1/284 21/1/284 33/1/284
f 277/1/285 301/1/285 275/1/285
f 131/1/286 137/1/286 132/1/286
f 131/1/287 135/1/287 136/1/287
f 314/1/288 317/1/288 322/1/288
f 371/1/289 363/1/289 369/1/289
f 330/1/290 334/1/290 332/1/290
f 289/1/291 329/1/291 290/1/291
f 291/1/292 332/1/292 292/1/292
f 334/1/293 292/1/293 332/1/293
f 68/1/294 70/1/294 71/1/294
f 168/1/295 164/1/295 170/1/295
f 327/1/296 336/1/296 335/1/296
f 343/1/297 344/1/297 342/1/297
f 62/1/298 97/1/298 96/1/298
f 178/1/299 86/1/299 187/1/299
f 328/1/300 327/1/300 331/1/300
f 152/1/301 149/1/301 148/1/301
f 161/1/302 160/1/302 162/1/302
f 339/1/303 344/1/303 341/1/303
f 394/1/304 400/1/304 401/1/304
f 70/1/305 60/1/305 57/1/305
f 341/1/306 347/1/306 346/1/306
f 240/1/307 230/1/307 231/1/307
f 57/1/308 58/1/308 59/1/308
f 352/1/309 362/1/309 353/1/309
f 238/1/310 235/1/310 237/1/310
f 333/1/311 356/1/311 292/1/311
f 317/1/312 318/1/312 322/1/312
f 87/1/313 192/1/313 82/1/313
f 190/1/314 201/1/314 191/1/314
f 19/1/315 232/1/315 229/1/315
f 313/1/316 360/1/316 312/1/316
f 201/1/317 372/1/317 191/1/317
f 359/1/318 321/1/318 358/1/318
f 305/1/319 317/1/319 316/1/319
f 318/1/320 358/1/320 321/1/320
f 278/1/321 364/1/321 285/1/321
f 361/1/322 352/1/322 360/1/322
f 307/1/323 266/1/323 267/1/323
f 346/1/324 349/1/324 350/1/324
f 292/1/325 356/1/325 364/1/325
f 363/1/326 353/1/326 362/1/326
f 356/1/327 357/1/327 364/1/327
f 357/1/328 355/1/328 364/1/328
f 354/1/329 364/1/329 355/1/329
f 19/1/330 21/1/330 20/1/330
f 177/1/331 176/1/331 167/1/331
f 132/1/332 134/1/332 131/1/332
f 387/1/333 218/1/333 388/1/333
f 55/1/334 80/1/334 54/1/334
f 111/1/335 117/1/335 103/1/335
f 298/1/336 294/1/336 295/1/336
f 243/1/337 55/1/337 38/1/337
f 309/1/338 122/1/338 310/1/338
f 194/1/339 81/1/339 193/1/339
f 98/1/340 64/1/340 65/1/340
f 325/1/341 288/1/341 315/1/341
f 234/1/342 17/1/342 25/1/342
f 289/1/343 276/1/343 287/1/343
f 207/1/344 10/1/344 196/1/344
f 390/1/345 284/1/345 283/1/345
f 281/1/346 373/1/346 374/1/346
f 189/1/347 190/1/347 191/1/347
f 286/1/348 375/1/348 376/1/348
f 375/1/349 377/1/349 376/1/349
f 311/1/350 122/1/350 123/1/350
f 134/1/351 165/1/351 172/1/351
f 378/1/352 370/1/352 372/1/352
f 378/1/353 379/1/353 377/1/353
f 213/1/354 4/1/354 212/1/354
f 81/1/355 374/1/355 193/1/355
f 387/1/356 220/1/356 219/1/356
f 196/1/357 11/1/357 206/1/357
f 204/1/358 14/1/358 203/1/358
f 206/1/359 12/1/359 205/1/359
f 389/1/360 218/1/360 217/1/360
f 183/1/361 185/1/361 182/1/361
f 379/1/362 227/1/362 380/1/362
f 203/1/363 15/1/363 202/1/363
f 390/1/364 215/1/364 391/1/364
f 200/1/365 198/1/365 199/1/365
f 126/1/366 179/1/366 180/1/366
f 126/1/367 366/1/367 313/1/367
f 12/1/368 204/1/368 205/1/368
f 384/1/369 224/1/369 223/1/369
f 385/1/370 286/1/370 376/1/370
f 286/1/371 387/1/371 283/1/371
f 162/1/372 159/1/372 163/1/372
f 286/1/373 386/1/373 387/1/373
f 389/1/374 283/1/374 388/1/374
f 388/1/375 283/1/375 387/1/375
f 386/1/376 286/1/376 385/1/376
f 380/1/377 377/1/377 379/1/377
f 380/1/378 381/1/378 377/1/378
f 384/1/379 377/1/379 383/1/379
f 376/1/380 377/1/380 384/1/380
f 377/1/381 382/1/381 383/1/381
f 377/1/382 381/1/382 382/1/382
f 395/1/383 71/1/383 70/1/383
f 61/1/384 64/1/384 63/1/384
f 59/1/385 75/1/385 393/1/385
f 49/1/386 62/1/386 47/1/386
f 70/1/387 57/1/387 392/1/387
f 397/1/388 400/1/388 398/1/388
f 397/1/389 398/1/389 392/1/389
f 395/1/390 399/1/390 400/1/390
f 394/1/391 396/1/391 393/1/391
f 397/1/392 396/1/392 401/1/392
f 400/1/393 399/1/393 398/1/393
f 127/1/394 150/1/394 135/1/394
f 261/1/395 259/1/395 403/1/395
f 272/1/396 402/1/396 259/1/396
f 402/1/397 403/1/397 259/1/397
f 271/1/398 235/1/398 236/1/398
f 324/1/399 318/1/399 319/1/399
f 271/1/400 239/1/400 248/1/400
f 32/1/401 54/1/401 39/1/401
f 88/1/402 141/1/402 139/1/402
f 94/1/403 41/1/403 91/1/403
f 69/1/404 31/1/404 28/1/404
f 30/1/405 23/1/405 20/1/405
f 74/1/406 73/1/406 58/1/406
f 78/1/407 54/1/407 80/1/407
f 194/1/408 83/1/408 82/1/408
f 56/1/409 78/1/409 86/1/409
f 263/1/410 239/1/410 251/1/410
f 41/1/411 72/1/411 92/1/411
f 73/1/412 74/1/412 105/1/412
f 68/1/413 71/1/413 115/1/413
f 115/1/414 71/1/414 116/1/414
f 114/1/415 109/1/415 105/1/415
f 103/1/416 117/1/416 106/1/416
f 113/1/417 89/1/417 127/1/417
f 128/1/418 127/1/418 89/1/418
f 143/1/419 145/1/419 147/1/419
f 90/1/420 91/1/420 142/1/420
f 145/1/421 91/1/421 92/1/421
f 147/1/422 145/1/422 93/1/422
f 150/1/423 149/1/423 153/1/423
f 157/1/424 155/1/424 152/1/424
f 158/1/425 151/1/425 144/1/425
f 156/1/426 155/1/426 157/1/426
f 133/1/427 132/1/427 156/1/427
f 113/1/428 129/1/428 130/1/428
f 131/1/429 134/1/429 171/1/429
f 76/1/430 86/1/430 177/1/430
f 176/1/431 175/1/431 166/1/431
f 79/1/432 194/1/432 192/1/432
f 83/1/433 213/1/433 212/1/433
f 290/1/434 246/1/434 293/1/434
f 273/1/435 402/1/435 272/1/435
f 238/1/436 231/1/436 229/1/436
f 276/1/437 250/1/437 260/1/437
f 280/1/438 281/1/438 282/1/438
f 374/1/439 373/1/439 283/1/439
f 285/1/440 280/1/440 258/1/440
f 276/1/441 288/1/441 287/1/441
f 291/1/442 274/1/442 246/1/442
f 274/1/443 291/1/443 292/1/443
f 215/1/444 214/1/444 391/1/444
f 299/1/445 276/1/445 275/1/445
f 403/1/446 277/1/446 261/1/446
f 267/1/447 294/1/447 306/1/447
f 299/1/448 301/1/448 306/1/448
f 305/1/449 316/1/449 314/1/449
f 149/1/450 139/1/450 140/1/450
f 328/1/451 289/1/451 326/1/451
f 365/1/452 372/1/452 370/1/452
f 289/1/453 328/1/453 329/1/453
f 291/1/454 290/1/454 332/1/454
f 334/1/455 333/1/455 292/1/455
f 323/1/456 324/1/456 340/1/456
f 340/1/457 336/1/457 337/1/457
f 339/1/458 342/1/458 344/1/458
f 305/1/459 358/1/459 317/1/459
f 363/1/460 354/1/460 353/1/460
f 281/1/461 280/1/461 373/1/461
f 378/1/462 377/1/462 370/1/462
f 395/1/463 116/1/463 71/1/463
f 99/1/464 107/1/464 100/1/464
f 70/1/465 398/1/465 399/1/465
f 302/1/466 306/1/466 301/1/466
f 253/1/467 252/1/467 254/1/467
f 187/1/468 198/1/468 190/1/468
f 42/1/469 69/1/469 29/1/469
f 69/1/470 27/1/470 29/1/470
f 32/1/471 35/1/471 37/1/471
f 242/1/472 240/1/472 243/1/472
f 259/1/473 249/1/473 248/1/473
f 272/1/474 269/1/474 270/1/474
f 255/1/475 251/1/475 239/1/475
f 110/1/476 109/1/476 114/1/476
f 298/1/477 295/1/477 296/1/477
f 340/1/478 324/1/478 342/1/478
f 393/1/479 396/1/479 397/1/479
f 318/1/480 323/1/480 322/1/480
f 336/1/481 327/1/481 326/1/481
f 159/1/482 160/1/482 154/1/482
f 342/1/483 324/1/483 319/1/483
f 346/1/484 338/1/484 341/1/484
f 247/1/485 237/1/485 271/1/485
f 23/1/486 30/1/486 24/1/486
f 232/1/487 234/1/487 233/1/487
f 283/1/488 389/1/488 390/1/488
f 261/1/489 277/1/489 275/1/489
f 273/1/490 270/1/490 307/1/490
f 102/1/491 101/1/491 104/1/491
f 139/1/492 138/1/492 88/1/492
f 397/1/493 401/1/493 400/1/493
f 395/1/494 70/1/494 399/1/494
f 394/1/495 401/1/495 396/1/495
f 271/1/496 237/1/496 235/1/496
f 403/1/497 302/1/497 277/1/497
f 149/1/498 138/1/498 139/1/498
f 70/1/499 392/1/499 398/1/499
f 302/1/500 308/1/500 306/1/500
f 253/1/501 256/1/501 252/1/501
f 187/1/502 197/1/502 198/1/502
f 42/1/503 43/1/503 69/1/503
f 69/1/504 28/1/504 27/1/504
f 32/1/505 33/1/505 35/1/505
f 242/1/506 241/1/506 240/1/506
f 11/1/507 404/1/507 12/1/507
f 217/1/508 404/1/508 216/1/508
f 218/1/509 404/1/509 217/1/509
f 12/1/510 404/1/510 13/1/510
f 219/1/511 404/1/511 218/1/511
f 13/1/512 404/1/512 14/1/512
f 220/1/513 404/1/513 219/1/513
f 14/1/514 404/1/514 15/1/514
f 221/1/515 404/1/515 220/1/515
f 15/1/516 404/1/516 16/1/516
f 222/1/517 404/1/517 221/1/517
f 2/1/518 404/1/518 3/1/518
f 1/1/519 404/1/519 228/1/519
f 214/1/520 404/1/520 2/1/520
f 223/1/521 404/1/521 222/1/521
f 3/1/522 404/1/522 4/1/522
f 224/1/523 404/1/523 223/1/523
f 4/1/524 404/1/524 5/1/524
f 215/1/525 404/1/525 2/1/525
f 5/1/526 404/1/526 6/1/526
f 225/1/527 404/1/527 224/1/527
f 6/1/528 404/1/528 7/1/528
f 226/1/529 404/1/529 225/1/529
f 227/1/530 404/1/530 226/1/530
f 7/1/531 404/1/531 8/1/531
f 228/1/532 404/1/532 227/1/532
f 8/1/533 404/1/533 9/1/533
f 9/1/534 404/1/534 10/1/534
f 16/1/535 404/1/535 1/1/535
f 216/1/536 404/1/536 215/1/536
f 84/1/537 404/1/537 214/1/537
f 10/1/538 404/1/538 11/1/538
f 264/1/539 251/1/539 254/1/539
f 56/1/540 76/1/540 72/1/540
f 186/1/541 189/1/541 371/1/541
f 305/1/542 303/1/542 304/1/542
f 326/1/543 289/1/543 287/1/543
f 135/1/544 150/1/544 153/1/544
f 242/1/545 243/1/545 38/1/545
f 295/1/546 107/1/546 108/1/546
f 96/1/547 53/1/547 47/1/547
f 394/1/548 393/1/548 75/1/548
f 233/1/549 234/1/549 256/1/549
f 350/1/550 349/1/550 354/1/550
f 81/1/551 79/1/551 80/1/551
f 347/1/552 343/1/552 348/1/552
f 331/1/553 327/1/553 335/1/553
f 266/1/554 95/1/554 98/1/554
f 300/1/555 120/1/555 121/1/555
f 72/1/556 41/1/556 40/1/556
f 55/1/557 257/1/557 282/1/557
f 315/1/558 337/1/558 336/1/558
f 77/1/559 48/1/559 24/1/559
f 52/1/560 47/1/560 53/1/560
f 171/1/561 172/1/561 124/1/561
f 351/1/562 350/1/562 355/1/562
f 119/1/563 123/1/563 122/1/563
f 112/1/564 124/1/564 125/1/564
f 164/1/565 158/1/565 147/1/565
f 104/1/566 103/1/566 106/1/566
f 302/1/567 403/1/567 402/1/567
f 46/1/568 61/1/568 63/1/568
f 180/1/569 184/1/569 367/1/569
f 166/1/570 165/1/570 133/1/570
f 81/1/571 85/1/571 282/1/571
f 90/1/572 45/1/572 94/1/572
f 313/1/573 312/1/573 304/1/573
f 243/1/574 240/1/574 244/1/574
f 144/1/575 141/1/575 142/1/575
f 126/1/576 313/1/576 311/1/576
f 37/1/577 38/1/577 55/1/577
f 97/1/578 63/1/578 64/1/578
f 303/1/579 305/1/579 288/1/579
f 164/1/580 163/1/580 159/1/580
f 94/1/581 45/1/581 44/1/581
f 351/1/582 345/1/582 346/1/582
f 200/1/583 1/1/583 228/1/583
f 251/1/584 264/1/584 265/1/584
f 376/1/585 222/1/585 221/1/585
f 209/1/586 7/1/586 8/1/586
f 320/1/587 348/1/587 343/1/587
f 293/1/588 247/1/588 249/1/588
f 130/1/589 129/1/589 127/1/589
f 248/1/590 239/1/590 262/1/590
f 117/1/591 118/1/591 122/1/591
f 128/1/592 138/1/592 149/1/592
f 53/1/593 96/1/593 264/1/593
f 34/1/594 241/1/594 242/1/594
f 334/1/595 345/1/595 351/1/595
f 274/1/596 244/1/596 245/1/596
f 362/1/597 361/1/597 367/1/597
f 72/1/598 76/1/598 177/1/598
f 296/1/599 108/1/599 120/1/599
f 364/1/600 278/1/600 274/1/600
f 115/1/601 116/1/601 114/1/601
f 293/1/602 250/1/602 289/1/602
f 68/1/603 115/1/603 66/1/603
f 236/1/604 279/1/604 255/1/604
f 314/1/605 322/1/605 337/1/605
f 272/1/606 259/1/606 262/1/606
f 155/1/607 137/1/607 153/1/607
f 32/1/608 39/1/608 40/1/608
f 89/1/609 113/1/609 111/1/609
f 57/1/610 59/1/610 393/1/610
f 24/1/611 48/1/611 52/1/611
f 370/1/612 377/1/612 375/1/612
f 19/1/613 20/1/613 23/1/613
f 233/1/614 253/1/614 279/1/614
f 115/1/615 65/1/615 64/1/615
f 132/1/616 137/1/616 155/1/616
f 345/1/617 331/1/617 338/1/617
f 329/1/618 330/1/618 332/1/618
f 173/1/619 124/1/619 172/1/619
f 335/1/620 339/1/620 341/1/620
f 100/1/621 294/1/621 267/1/621
f 120/1/622 108/1/622 102/1/622
f 166/1/623 161/1/623 162/1/623
f 176/1/624 178/1/624 188/1/624
f 359/1/625 312/1/625 360/1/625
f 125/1/626 124/1/626 173/1/626
f 231/1/627 237/1/627 247/1/627
f 142/1/628 91/1/628 145/1/628
f 190/1/629 188/1/629 178/1/629
f 75/1/630 73/1/630 109/1/630
f 362/1/631 368/1/631 369/1/631
f 331/1/632 330/1/632 329/1/632
f 385/1/633 221/1/633 220/1/633
f 84/1/634 214/1/634 213/1/634
f 263/1/635 265/1/635 266/1/635
f 26/1/636 52/1/636 51/1/636
f 119/1/637 125/1/637 126/1/637
f 212/1/638 4/1/638 5/1/638
f 104/1/639 101/1/639 99/1/639
f 83/1/640 194/1/640 193/1/640
f 43/1/641 60/1/641 31/1/641
f 358/1/642 304/1/642 312/1/642
f 186/1/643 183/1/643 188/1/643
f 30/1/644 29/1/644 27/1/644
f 381/1/645 226/1/645 225/1/645
f 181/1/646 184/1/646 180/1/646
f 19/1/647 229/1/647 230/1/647
f 340/1/648 337/1/648 322/1/648
f 193/1/649 374/1/649 284/1/649
f 34/1/650 33/1/650 21/1/650
f 16/1/651 1/1/651 200/1/651
f 395/1/652 394/1/652 110/1/652
f 3/1/653 213/1/653 214/1/653
f 18/1/654 230/1/654 241/1/654
f 184/1/655 185/1/655 368/1/655
f 210/1/656 6/1/656 7/1/656
f 390/1/657 389/1/657 217/1/657
f 294/1/658 100/1/658 107/1/658
f 383/1/659 382/1/659 225/1/659
f 189/1/660 191/1/660 372/1/660
f 8/1/661 9/1/661 207/1/661
f 376/1/662 384/1/662 223/1/662
f 5/1/663 6/1/663 210/1/663
f 101/1/664 102/1/664 108/1/664
f 183/1/665 182/1/665 175/1/665
f 345/1/666 334/1/666 330/1/666
f 300/1/667 297/1/667 298/1/667
f 158/1/668 144/1/668 143/1/668
f 113/1/669 171/1/669 112/1/669
f 57/1/670 60/1/670 43/1/670
f 315/1/671 288/1/671 305/1/671
f 303/1/672 297/1/672 309/1/672
f 264/1/673 96/1/673 97/1/673
f 284/1/674 391/1/674 214/1/674
f 339/1/675 335/1/675 336/1/675
f 138/1/676 128/1/676 89/1/676
f 364/1/677 354/1/677 363/1/677
f 349/1/678 348/1/678 353/1/678
f 187/1/679 86/1/679 195/1/679
f 61/1/680 46/1/680 31/1/680
f 25/1/681 17/1/681 23/1/681
f 379/1/682 378/1/682 201/1/682
f 357/1/683 356/1/683 333/1/683
f 353/1/684 348/1/684 320/1/684
f 240/1/685 231/1/685 245/1/685
f 212/1/686 211/1/686 82/1/686
f 106/1/687 117/1/687 121/1/687
f 61/1/688 60/1/688 67/1/688
f 259/1/689 261/1/689 260/1/689
f 154/1/690 152/1/690 148/1/690
f 185/1/691 186/1/691 369/1/691
f 94/1/692 42/1/692 40/1/692
f 59/1/693 58/1/693 73/1/693
f 50/1/694 28/1/694 31/1/694
f 146/1/695 169/1/695 170/1/695
f 380/1/696 227/1/696 226/1/696
f 319/1/697 318/1/697 321/1/697
f 65/1/698 99/1/698 100/1/698
f 195/1/699 86/1/699 78/1/699
f 258/1/700 244/1/700 274/1/700
f 103/1/701 104/1/701 74/1/701
f 22/1/702 40/1/702 42/1/702
f 167/1/703 162/1/703 163/1/703
f 365/1/704 370/1/704 285/1/704
f 360/1/705 366/1/705 367/1/705
f 35/1/706 36/1/706 38/1/706
f 234/1/707 25/1/707 51/1/707
f 90/1/708 88/1/708 74/1/708
f 293/1/709 246/1/709 245/1/709
f 34/1/710 36/1/710 35/1/710
f 320/1/711 321/1/711 359/1/711
f 266/1/712 265/1/712 97/1/712
f 181/1/713 182/1/713 185/1/713
f 297/1/714 288/1/714 276/1/714
f 140/1/715 139/1/715 141/1/715
f 307/1/716 267/1/716 306/1/716
f 175/1/717 174/1/717 165/1/717
f 280/1/718 285/1/718 375/1/718
f 270/1/719 269/1/719 268/1/719
f 15/1/720 16/1/720 199/1/720
f 144/1/721 151/1/721 148/1/721
f 119/1/722 118/1/722 111/1/722
f 181/1/723 179/1/723 173/1/723
f 181/1/724 174/1/724 175/1/724
f 303/1/725 310/1/725 311/1/725
f 269/1/726 262/1/726 263/1/726
f 256/1/727 51/1/727 53/1/727
f 373/1/728 375/1/728 286/1/728
f 32/1/729 22/1/729 21/1/729
f 277/1/730 302/1/730 301/1/730
f 131/1/731 136/1/731 137/1/731
f 131/1/732 130/1/732 135/1/732
f 314/1/733 316/1/733 317/1/733
f 371/1/734 365/1/734 363/1/734
f 68/1/735 67/1/735 70/1/735
f 168/1/736 163/1/736 164/1/736
f 343/1/737 347/1/737 344/1/737
f 62/1/738 63/1/738 97/1/738
f 178/1/739 177/1/739 86/1/739
f 328/1/740 326/1/740 327/1/740
f 152/1/741 153/1/741 149/1/741
f 161/1/742 156/1/742 160/1/742
f 394/1/743 395/1/743 400/1/743
f 70/1/744 67/1/744 60/1/744
f 341/1/745 344/1/745 347/1/745
f 240/1/746 241/1/746 230/1/746
f 57/1/747 44/1/747 58/1/747
f 352/1/748 361/1/748 362/1/748
f 238/1/749 233/1/749 235/1/749
f 317/1/750 358/1/750 318/1/750
f 87/1/751 195/1/751 192/1/751
f 190/1/752 198/1/752 201/1/752
f 19/1/753 17/1/753 232/1/753
f 313/1/754 366/1/754 360/1/754
f 201/1/755 378/1/755 372/1/755
f 307/1/756 268/1/756 266/1/756
f 346/1/757 347/1/757 349/1/757
f 19/1/758 18/1/758 21/1/758
f 177/1/759 178/1/759 176/1/759
f 132/1/760 133/1/760 134/1/760
f 387/1/761 219/1/761 218/1/761
f 55/1/762 85/1/762 80/1/762
f 111/1/763 118/1/763 117/1/763
f 298/1/764 299/1/764 294/1/764
f 243/1/765 257/1/765 55/1/765
f 309/1/766 121/1/766 122/1/766
f 194/1/767 79/1/767 81/1/767
f 98/1/768 95/1/768 64/1/768
f 325/1/769 287/1/769 288/1/769
f 234/1/770 232/1/770 17/1/770
f 289/1/771 250/1/771 276/1/771
f 207/1/772 9/1/772 10/1/772
f 390/1/773 391/1/773 284/1/773
f 189/1/774 188/1/774 190/1/774
f 311/1/775 310/1/775 122/1/775
f 134/1/776 133/1/776 165/1/776
f 213/1/777 3/1/777 4/1/777
f 81/1/778 281/1/778 374/1/778
f 387/1/779 386/1/779 220/1/779
f 196/1/780 10/1/780 11/1/780
f 204/1/781 13/1/781 14/1/781
f 206/1/782 11/1/782 12/1/782
f 389/1/783 388/1/783 218/1/783
f 183/1/784 186/1/784 185/1/784
f 379/1/785 228/1/785 227/1/785
f 203/1/786 14/1/786 15/1/786
f 390/1/787 216/1/787 215/1/787
f 200/1/788 201/1/788 198/1/788
f 126/1/789 125/1/789 179/1/789
f 126/1/790 180/1/790 366/1/790
f 12/1/791 13/1/791 204/1/791
f 384/1/792 383/1/792 224/1/792
f 162/1/793 160/1/793 159/1/793
f 61/1/384 66/1/384 64/1/384
f 49/1/794 46/1/794 62/1/794
f 127/1/795 128/1/795 150/1/795
f 324/1/796 323/1/796 318/1/796
f 271/1/797 236/1/797 239/1/797
f 32/1/798 37/1/798 54/1/798
f 88/1/799 90/1/799 141/1/799
f 263/1/800 262/1/800 239/1/800
f 158/1/801 159/1/801 151/1/801
f 273/1/802 308/1/802 402/1/802
f 215/1/803 2/1/803 214/1/803
f 365/1/804 371/1/804 372/1/804
f 99/1/805 101/1/805 107/1/805
