# Blender 5.0.1
# www.blender.org
o AZARO
v -0.007600 -3.284084 -1.835521
v -0.007334 -3.286620 0.622578
v 0.208178 -3.285836 0.616899
v 0.409040 -3.283905 0.553379
v 0.592688 -3.283583 0.458160
v 0.761645 -3.286006 0.327529
v 0.906527 -3.287972 0.147597
v 1.026761 -3.286482 -0.073711
v 1.117719 -3.285212 -0.316032
v 1.154862 -3.276941 -0.564854
v 1.138340 -3.272273 -0.811672
v 1.078918 -3.270426 -1.042341
v 0.974902 -3.273285 -1.258778
v 0.824753 -3.271340 -1.444158
v 0.646457 -3.271378 -1.601999
v 0.447797 -3.280565 -1.732347
v -0.007789 -0.172098 1.529149
v -0.007423 -0.447007 1.466199
v -0.007404 -0.285443 1.397951
v 0.177586 -0.242837 1.393950
v 0.218719 -0.447026 1.447564
v 0.481392 -0.281087 1.245688
v 0.111070 -0.136621 1.532422
v 0.112771 0.134652 1.470383
v -0.007574 0.094406 1.495398
v 0.039282 0.096875 1.489985
v 0.267736 0.224860 1.354714
v 0.323397 0.336483 1.291641
v 0.513696 -0.029691 1.227319
v 0.404530 -0.221743 1.319391
v 0.352810 0.443094 1.292159
v 0.396341 -0.645456 1.224573
v 0.212679 -0.603978 1.326596
v -0.007398 -0.605156 1.333420
v 0.197983 -0.771470 1.375718
v -0.007366 -0.768774 1.387403
v 0.222328 -0.974172 1.262581
v -0.007461 -0.976862 1.265067
v 0.720786 -0.832254 0.579246
v 0.792370 -0.276710 0.839459
v 1.142955 0.142650 0.267633
v 0.745158 -0.007544 0.953004
v 0.616175 0.404914 1.167182
v 0.894875 0.449180 1.042076
v 1.135419 0.653017 0.679504
v 0.216057 0.525138 1.488411
v 0.085913 0.390617 1.756913
v 0.167941 0.272978 1.619215
v 0.187738 0.355417 1.563440
v 0.223752 0.421630 1.460003
v -0.007476 0.244587 1.693828
v 0.063672 0.257205 1.681449
v -0.007453 0.385398 1.774842
v 0.228360 -1.128044 0.544836
v -0.007428 -1.151474 0.570189
v 0.560377 -1.021040 0.097015
v 0.665433 0.685525 1.040814
v 0.978661 0.796178 0.817285
v 0.874517 0.865640 0.843066
v 0.384076 0.612886 1.182137
v 0.202972 0.701894 1.434231
v 0.072270 0.528509 1.697946
v 0.112107 0.763072 1.542482
v 0.082828 0.960608 1.427005
v 0.153295 1.136366 1.368409
v 0.189703 0.941868 1.254685
v 0.270925 0.826607 1.111578
v 0.272017 0.927578 1.055670
v 0.532916 0.299229 1.243917
v 0.351141 0.863634 1.015509
v 0.345631 0.951321 1.035553
v 1.111241 -0.408359 -0.191693
v 0.969760 0.957672 0.833669
v 1.094262 0.984375 0.554587
v 0.875724 0.929203 0.855302
v 1.042192 -0.526814 -0.309471
v 0.277198 0.294621 1.436002
v 0.465879 -1.202103 0.157321
v 0.212623 -1.667554 0.296317
v 0.122114 -1.498705 0.456640
v -0.007329 -1.670299 0.310149
v 0.289493 -2.256915 0.182732
v 0.184894 -2.271857 0.253333
v -0.006746 -2.266227 0.266645
v -0.007416 -1.504814 0.463050
v 0.986059 -0.888832 -0.586410
v 0.861238 -2.238703 -0.525800
v 1.304981 0.846737 -0.382226
v 1.284565 1.013663 -0.404365
v 1.287911 0.628130 -0.377656
v 1.225124 0.222247 -0.303146
v 1.227775 0.162110 -0.345920
v 1.257562 0.191519 -0.496515
v 1.140825 0.247359 0.378641
v -0.007251 0.968275 1.441996
v -0.007430 0.532442 1.704723
v -0.007531 0.772567 1.557882
v -0.007428 1.137051 1.373164
v 0.301962 1.458275 1.423812
v -0.007421 1.458784 1.429251
v 0.308914 1.855585 1.188109
v 0.346199 2.246661 0.956266
v 1.032169 2.146999 0.234328
v 0.949495 1.644740 0.791474
v 0.972994 1.269847 0.971719
v 0.381103 2.408165 0.669059
v -0.007420 1.860466 1.195974
v -0.007428 2.246906 0.956616
v 0.883377 1.086598 0.951275
v 0.800372 1.054921 0.969422
v 1.090925 2.213599 -0.370774
v 1.163305 2.111804 -1.059280
v 1.297849 1.102777 -0.562958
v 0.508183 1.197832 1.237898
v 0.211643 0.995514 1.250562
v 0.503003 1.107553 1.129180
v 0.437365 2.556678 0.245761
v 0.503146 2.707481 -0.485713
v 0.533882 2.708053 -1.118632
v -0.007428 2.423003 0.694731
v -0.007423 2.592708 0.252690
v -0.007428 2.748451 -0.480493
v -0.007427 2.753627 -1.183288
v 1.204949 1.842264 -1.342254
v 0.620027 2.153320 -1.902683
v -0.007421 2.183259 -1.924019
v 1.402985 1.072412 -0.565313
v 1.399521 0.998039 -0.538500
v 1.343752 1.088628 -0.587379
v 1.362242 1.115276 -0.683120
v 1.416492 1.139430 -0.862925
v 1.485702 1.024854 -1.029742
v 1.392769 0.923183 -0.991176
v 1.335721 1.035499 -0.866506
v 1.439930 1.097228 -0.684550
v 1.482521 1.140893 -0.872264
v 1.521303 1.051584 -0.993504
v 1.376996 0.884476 -0.513024
v 1.321468 0.788013 -0.586754
v 1.365701 0.718976 -0.693354
v 1.354208 0.613109 -0.484638
v 1.349238 0.518015 -0.473266
v 1.398032 0.412501 -0.573999
v 1.446246 0.508233 -0.656450
v 1.269666 0.204357 -0.405632
v 1.376612 0.226021 -0.689250
v 1.439088 0.235281 -0.685179
v 1.408134 0.714335 -0.781647
v 1.371656 0.910602 -0.664326
v 1.400259 1.002971 -0.644682
v 1.499293 0.510847 -0.759766
v 1.487996 0.760688 -0.868713
v 1.473859 0.981509 -0.889436
v 1.553252 0.546780 -0.849773
v 1.590078 0.756782 -0.997860
v 1.554300 0.709078 -1.050070
v 1.592567 0.635880 -0.940208
v 1.472220 0.305229 -0.777820
v 1.499817 0.399917 -0.865584
v 1.537119 0.531805 -0.974169
v 1.405703 0.633441 -0.989658
v 1.393523 0.524992 -0.928245
v 1.369679 0.425448 -0.854486
v 1.384324 0.320203 -0.780981
v 1.278020 0.950215 -1.007158
v 1.227941 0.623873 -1.052701
v 1.185587 0.467646 -0.959720
v 1.191459 0.381838 -0.852293
v 1.210191 0.221542 -0.643190
v 1.198970 0.296312 -0.752084
v 1.285376 1.078221 -0.777217
v 1.268282 1.041829 -0.900272
v 1.195151 1.508328 -1.577615
v 1.185046 1.118194 -1.662357
v 1.147446 0.783690 -1.652320
v 1.067720 0.394360 -1.600676
v 1.111942 0.155058 -0.806779
v 0.811162 -0.168478 -1.414076
v 0.595321 1.662961 -2.039933
v -0.007648 1.660739 -2.074273
v 0.587558 1.173621 -2.126104
v 0.596487 0.748616 -2.157711
v 0.582208 0.541036 -2.155246
v -0.007474 1.172460 -2.147313
v -0.007428 0.739737 -2.171661
v -0.007382 0.540717 -2.170437
v 0.754456 -1.017955 -1.357649
v 0.264163 -0.064162 -1.650678
v -0.007275 -0.068707 -1.659325
v 0.242518 -0.846842 -1.651361
v -0.007445 -0.845935 -1.657496
v 0.369726 -1.728308 0.160688
v -0.007410 -1.970159 0.280080
v 0.194886 -1.968913 0.267605
v 0.902886 -1.562241 -0.567890
v 1.188540 -2.349541 -0.565670
v 0.902208 -1.896391 -1.386225
v 0.504334 -1.590035 -1.677487
v 0.451988 -2.353053 -1.736886
v -0.007397 -2.394685 -1.822021
v -0.008117 -1.465481 -1.730826
v 0.655097 -2.351052 -1.617429
v 0.843770 -2.350804 -1.467621
v 0.994461 -2.350796 -1.275733
v 1.103545 -2.350954 -1.055107
v 1.169690 -2.350807 -0.817900
v 1.152732 -2.347763 -0.307671
v 1.060018 -2.343509 -0.055626
v 0.928240 -2.343563 0.163273
v 0.772410 -2.348588 0.339701
v 0.599508 -2.350227 0.469277
v 0.411917 -2.350737 0.560463
v 0.208904 -2.349743 0.620286
v -0.007446 -2.348897 0.625569
v -0.223767 -3.286400 0.621528
v -0.427406 -3.285801 0.562082
v -0.611556 -3.285381 0.464830
v -0.778666 -3.287892 0.330005
v -0.931383 -3.296102 0.155808
v -1.054722 -3.304711 -0.070551
v -1.132678 -3.285056 -0.315903
v -1.185683 -3.285906 -0.566999
v -1.173778 -3.280388 -0.814240
v -1.102834 -3.271606 -1.044418
v -0.992290 -3.269843 -1.262418
v -0.848959 -3.275317 -1.457148
v -0.669569 -3.277137 -1.614655
v -0.464927 -3.280601 -1.736443
v -0.193943 -0.247273 1.398947
v -0.236184 -0.447120 1.454057
v -0.504475 -0.286776 1.260922
v -0.126642 -0.138320 1.537532
v -0.128580 0.127151 1.490268
v -0.054304 0.094508 1.494808
v -0.307708 0.209215 1.378273
v -0.372823 0.333176 1.321800
v -0.544395 -0.027603 1.258415
v -0.422490 -0.236472 1.331334
v -0.394632 0.443544 1.307315
v -0.422014 -0.647777 1.232890
v -0.227893 -0.604804 1.330853
v -0.213488 -0.771273 1.380425
v -0.237060 -0.973476 1.261751
v -0.743501 -0.840522 0.580493
v -0.816465 -0.279820 0.844830
v -1.173452 0.139113 0.271546
v -0.814937 -0.026306 0.987975
v -0.631274 0.405091 1.167706
v -0.917399 0.449927 1.054127
v -1.174498 0.653664 0.691190
v -0.287318 0.528749 1.528857
v -0.111372 0.385555 1.771338
v -0.180118 0.275801 1.617101
v -0.251348 0.369827 1.594299
v -0.309493 0.420493 1.496372
v -0.089040 0.248247 1.691145
v -0.253013 -1.136251 0.557492
v -0.594240 -1.030003 0.107578
v -0.679544 0.684306 1.038269
v -0.983966 0.789505 0.806341
v -0.902562 0.863885 0.853722
v -0.413652 0.623243 1.192060
v -0.237320 0.714518 1.446848
v -0.087424 0.531934 1.703851
v -0.130574 0.770284 1.553944
v -0.099548 0.966502 1.439486
v -0.168326 1.136573 1.370236
v -0.215610 0.942283 1.260045
v -0.305863 0.837405 1.119690
v -0.308350 0.925512 1.066777
v -0.543847 0.298184 1.235325
v -0.371900 0.870701 1.028362
v -0.359643 0.943840 1.050570
v -1.151982 -0.427375 -0.196264
v -0.956716 0.969561 0.813190
v -1.130962 0.988092 0.566636
v -0.904251 0.927144 0.865176
v -1.079185 -0.538856 -0.306622
v -0.317697 0.279620 1.447981
v -0.497456 -1.207399 0.170938
v -0.229273 -1.669603 0.306149
v -0.137419 -1.502552 0.460747
v -0.312105 -2.254226 0.194538
v -0.200246 -2.270096 0.258052
v -1.028483 -0.894296 -0.582069
v -0.878442 -2.238025 -0.521968
v -1.346512 0.841284 -0.375264
v -1.327499 1.020157 -0.392733
v -1.327544 0.626862 -0.365670
v -1.265055 0.217475 -0.296154
v -1.264805 0.158771 -0.341082
v -1.300871 0.181520 -0.495209
v -1.168864 0.243889 0.382522
v -0.317025 1.458302 1.427900
v -0.324262 1.858024 1.191989
v -0.360998 2.245020 0.954234
v -1.056703 2.155864 0.237387
v -0.988156 1.652177 0.802996
v -0.994733 1.266811 0.978083
v -0.396077 2.409747 0.669797
v -0.896254 1.088325 0.948222
v -0.822779 1.055440 0.979653
v -1.126269 2.227494 -0.368399
v -1.195506 2.125420 -1.063987
v -1.340710 1.109151 -0.560983
v -0.520500 1.202033 1.233809
v -0.227022 0.995381 1.250835
v -0.519173 1.104792 1.131726
v -0.453085 2.561788 0.247458
v -0.518873 2.713269 -0.485147
v -0.551054 2.716982 -1.119139
v -1.244571 1.846962 -1.347251
v -0.636294 2.158216 -1.909155
v -1.418255 1.079025 -0.562599
v -1.439047 1.004827 -0.515654
v -1.358768 1.089194 -0.587249
v -1.378104 1.099176 -0.681672
v -1.454051 1.122472 -0.854206
v -1.515768 1.018151 -1.012570
v -1.407272 0.922555 -0.989778
v -1.350309 1.034459 -0.866114
v -1.457091 1.117871 -0.678330
v -1.500865 1.146950 -0.872902
v -1.537355 1.060514 -1.002880
v -1.412575 0.864400 -0.502499
v -1.350708 0.758673 -0.565152
v -1.413465 0.727967 -0.675121
v -1.399304 0.633679 -0.474846
v -1.390462 0.516581 -0.451118
v -1.449025 0.411032 -0.551470
v -1.487052 0.516053 -0.637703
v -1.287917 0.203215 -0.404721
v -1.408363 0.242945 -0.675137
v -1.447868 0.222689 -0.692293
v -1.451435 0.721174 -0.763785
v -1.426405 0.908451 -0.657883
v -1.453834 0.990590 -0.641716
v -1.551864 0.522126 -0.740544
v -1.519934 0.764668 -0.847759
v -1.520967 0.972812 -0.874270
v -1.605447 0.547713 -0.827253
v -1.634118 0.766572 -0.976408
v -1.571007 0.709641 -1.045338
v -1.638778 0.650526 -0.916369
v -1.482635 0.297996 -0.787585
v -1.512284 0.396554 -0.870529
v -1.551147 0.530652 -0.976148
v -1.423070 0.631303 -0.997623
v -1.414395 0.515955 -0.940806
v -1.390625 0.412380 -0.869914
v -1.399473 0.318935 -0.782193
v -1.312454 0.956704 -1.022046
v -1.261286 0.614470 -1.065187
v -1.227594 0.456989 -0.967428
v -1.227159 0.372106 -0.860077
v -1.244407 0.211845 -0.653362
v -1.229343 0.288491 -0.759539
v -1.325997 1.083544 -0.779618
v -1.313800 1.048054 -0.907354
v -1.231179 1.512751 -1.588762
v -1.222802 1.116718 -1.673717
v -1.202041 0.773762 -1.666499
v -1.109302 0.376432 -1.609221
v -1.151857 0.145170 -0.814354
v -0.847793 -0.178442 -1.422488
v -0.613219 1.666766 -2.057295
v -0.603690 1.174506 -2.134292
v -0.612096 0.748626 -2.161920
v -0.597359 0.540388 -2.158036
v -0.789215 -1.020209 -1.370765
v -0.279052 -0.064795 -1.651849
v -0.257502 -0.846241 -1.653662
v -0.396368 -1.730089 0.174639
v -0.213545 -1.969669 0.274447
v -0.939044 -1.563804 -0.555771
v -1.219946 -2.347807 -0.564426
v -0.929753 -1.894945 -1.394654
v -0.519693 -1.465385 -1.681648
v -0.470082 -2.353831 -1.739477
v -0.676937 -2.350858 -1.627746
v -0.867779 -2.350722 -1.476751
v -1.022148 -2.350702 -1.283778
v -1.134167 -2.350652 -1.060868
v -1.200419 -2.350119 -0.820552
v -1.185202 -2.347199 -0.303005
v -1.046092 -2.300524 -0.069789
v -0.953451 -2.338448 0.171265
v -0.794344 -2.345861 0.348885
v -0.619057 -2.349176 0.477700
v -0.428849 -2.349969 0.566051
v -0.224341 -2.349227 0.623488
v 0.671355 0.780078 1.060279
v 0.842836 0.889643 0.885411
v 0.793960 0.981665 0.977298
v 0.516551 1.023961 1.131806
v 0.795225 0.898850 0.916342
v 0.693765 0.836500 0.999417
v 0.577280 0.825615 1.041550
v 0.405658 0.871983 1.025233
v 0.529774 0.969409 1.060774
v 0.769040 0.952045 0.965503
v -0.579241 1.020493 1.130898
v -0.821036 0.976125 0.997516
v -0.010491 -3.194608 -0.397819
v 0.267537 1.764473 2.375830
v 0.406670 1.672409 2.344749
v 0.311684 1.532106 2.335130
v 0.172550 1.624169 2.366212
v 0.347532 1.576780 2.826576
v 0.231688 1.719799 1.884384
v -0.470109 1.632904 2.326869
v -0.332230 1.534135 2.332707
v -0.425962 1.400537 2.286170
v -0.563841 1.499305 2.280332
v -0.537643 1.418898 2.767823
v -0.358429 1.614543 1.845216
v -1.163898 1.549213 2.052130
v -1.038610 1.442035 2.092324
v -1.119751 1.316846 2.011431
v -1.245040 1.424024 1.971237
v -1.370190 1.318468 2.438136
v -0.913460 1.547591 1.625425
v -1.745918 1.521592 1.578506
v -1.643323 1.405123 1.647130
v -1.701770 1.289225 1.537806
v -1.804365 1.405695 1.469182
v -2.068613 1.285324 1.869787
v -1.379075 1.525494 1.246525
v -2.159195 1.552745 0.952359
v -2.087176 1.427013 1.040703
v -2.115048 1.320378 0.911659
v -2.187067 1.446111 0.823316
v -2.564546 1.322707 1.118411
v -1.709696 1.550417 0.745608
v -2.363276 1.639623 0.234980
v -2.326722 1.505562 0.332404
v -2.319129 1.407256 0.194281
v -2.355683 1.541317 0.096856
v -2.809443 1.426960 0.257557
v -1.872962 1.619919 0.171704
v -2.338184 1.773721 -0.503408
v -2.338512 1.633082 -0.408432
v -2.294037 1.541354 -0.544108
v -2.293709 1.681993 -0.639084
v -2.779332 1.587878 -0.628510
v -1.852888 1.727197 -0.419007
v -2.086375 1.941913 -1.190527
v -2.121392 1.797089 -1.109288
v -2.042228 1.709545 -1.231227
v -2.007210 1.854369 -1.312466
v -2.477161 1.789708 -1.453053
v -1.651441 1.861749 -0.968702
v -1.632498 2.127734 -1.759117
v -1.696616 1.981529 -1.701560
v -1.588350 1.895367 -1.799817
v -1.524232 2.041572 -1.857375
v -1.932509 2.012694 -2.135360
v -1.288339 2.010407 -1.423574
v -1.020981 2.312997 -2.153521
v -1.105764 2.168349 -2.127270
v -0.976834 2.080629 -2.194221
v -0.892051 2.225277 -2.220471
v -1.198689 2.235008 -2.608645
v -0.799126 2.158616 -1.739097
v -0.311684 2.479564 -2.335130
v -0.406670 2.339261 -2.344749
v -0.267537 2.247197 -2.375830
v -0.172550 2.387501 -2.366212
v -0.347532 2.434890 -2.826576
v -0.231688 2.291871 -1.884384
v 0.425962 2.611133 -2.286169
v 0.332230 2.477535 -2.332707
v 0.470109 2.378766 -2.326869
v 0.563842 2.512365 -2.280331
v 0.537644 2.592773 -2.767823
v 0.358429 2.397126 -1.845215
v 1.119751 2.694824 -2.011430
v 1.038610 2.569635 -2.092324
v 1.163898 2.462457 -2.052129
v 1.245040 2.587646 -1.971236
v 1.370190 2.693202 -2.438136
v 0.913460 2.464078 -1.625424
v 1.701769 2.722445 -1.537807
v 1.643322 2.606547 -1.647130
v 1.745916 2.490077 -1.578506
v 1.804365 2.605976 -1.469183
v 2.068613 2.726346 -1.869788
v 1.379074 2.486175 -1.246525
v 2.115047 2.691292 -0.911659
v 2.087175 2.584657 -1.040703
v 2.159194 2.458924 -0.952359
v 2.187067 2.565559 -0.823316
v 2.564546 2.688963 -1.118411
v 1.709696 2.461253 -0.745608
v 2.319129 2.604414 -0.194281
v 2.326722 2.506108 -0.332404
v 2.363276 2.372047 -0.234980
v 2.355683 2.470353 -0.096856
v 2.809443 2.584710 -0.257557
v 1.872962 2.391752 -0.171704
v 2.294037 2.470316 0.544108
v 2.338512 2.378588 0.408432
v 2.338184 2.237949 0.503408
v 2.293709 2.329677 0.639084
v 2.779332 2.423792 0.628509
v 1.852888 2.284473 0.419007
v 2.042227 2.302125 1.231227
v 2.121392 2.214581 1.109288
v 2.086374 2.069757 1.190527
v 2.007209 2.157301 1.312466
v 2.477161 2.221962 1.453053
v 1.651440 2.149920 0.968702
v 1.588350 2.116303 1.799817
v 1.696616 2.030141 1.701559
v 1.632498 1.883936 1.759117
v 1.524232 1.970098 1.857375
v 1.932509 1.998976 2.135360
v 1.288339 2.001263 1.423574
v 0.976834 1.931041 2.194221
v 1.105764 1.843321 2.127270
v 1.020981 1.698674 2.153521
v 0.892051 1.786394 2.220471
v 1.198689 1.776662 2.608645
v 0.799126 1.853053 1.739097
vn 0.4482 0.3104 0.8383
vn -0.7426 0.3768 0.5537
vn 0.7464 -0.6654 0.0122
vn -0.0157 -0.6463 -0.7629
vn 0.6781 -0.0335 0.7342
vn -0.9916 0.1027 -0.0788
vn -0.7477 -0.6027 0.2787
vn 0.9761 -0.0750 0.2040
vn -0.0230 -0.5067 0.8618
vn -0.0085 0.5229 0.8524
vn 0.0972 0.3994 0.9116
vn 0.8282 -0.0122 0.5603
vn -0.5953 -0.6309 0.4975
vn -0.1542 -0.7753 -0.6124
vn 0.0682 -0.6770 0.7328
vn 0.1838 -0.4232 -0.8872
vn -0.7494 0.4363 0.4981
vn 0.9476 -0.0171 0.3190
vn -0.0180 0.3708 0.9285
vn -0.0690 0.9356 0.3461
vn 0.5006 -0.4879 0.7151
vn 0.9111 -0.2652 0.3156
vn -0.0220 -0.2901 0.9567
vn 0.7503 0.2222 0.6227
vn -0.9827 -0.1819 0.0359
vn 0.9173 -0.3487 0.1924
vn 0.6730 -0.5982 0.4350
vn 0.2327 -0.4850 0.8430
vn 0.9918 0.1246 0.0273
vn -0.0522 -0.7672 -0.6392
vn 0.8880 0.0917 0.4507
vn 0.4991 -0.8503 0.1669
vn 0.3050 -0.5609 0.7697
vn 0.0800 0.9968 0.0048
vn -0.3631 -0.2145 0.9067
vn 0.6528 0.6504 -0.3885
vn 0.1489 -0.6962 -0.7023
vn 0.6971 0.5854 0.4139
vn 0.7708 0.3063 0.5586
vn -0.4653 0.3234 0.8240
vn 0.8047 0.2269 0.5486
vn 0.8414 0.1493 0.5194
vn 0.8797 0.3005 0.3687
vn 0.8440 0.2673 0.4650
vn -0.0262 0.1540 -0.9877
vn 0.8063 -0.2409 0.5402
vn 0.7391 -0.2111 0.6396
vn 0.5729 -0.0528 0.8179
vn 0.3338 0.0100 -0.9426
vn -0.0154 -0.6746 0.7381
vn 0.7983 -0.4391 0.4123
vn 0.9836 -0.1290 0.1264
vn 0.9697 0.1447 0.1969
vn 0.9894 -0.0525 0.1351
vn 0.9744 -0.1551 0.1624
vn -0.6388 0.6589 -0.3971
vn 0.4299 -0.3065 0.8492
vn -0.8670 -0.4808 0.1308
vn 0.8821 -0.0401 0.4693
vn -0.1244 0.7862 -0.6054
vn 0.1189 -0.9706 0.2091
vn 0.1834 0.5007 0.8460
vn -0.9783 0.1604 0.1313
vn -0.0863 -0.6636 -0.7431
vn 0.9722 0.1481 0.1813
vn 0.8359 -0.3556 0.4181
vn 0.0929 -0.6861 -0.7215
vn -0.1760 -0.0042 -0.9844
vn 0.1991 -0.7586 0.6204
vn -0.7417 0.4277 0.5166
vn -0.9896 -0.0572 0.1317
vn 0.8561 -0.0401 0.5153
vn 0.5331 -0.3468 0.7717
vn 0.2533 0.0572 -0.9657
vn -0.7449 0.0807 0.6623
vn -0.8480 -0.3262 0.4176
vn 0.2228 0.9383 0.2643
vn 0.3124 0.6366 0.7051
vn 0.3754 -0.3229 0.8688
vn -0.4176 0.3217 0.8498
vn 0.5100 -0.1944 0.8379
vn 0.0822 0.9749 0.2071
vn 0.9556 -0.2944 -0.0070
vn -0.0299 0.4225 0.9059
vn -0.0359 0.3131 0.9490
vn 0.5545 -0.6997 -0.4506
vn -0.8922 -0.3072 0.3311
vn -0.6403 0.0623 -0.7656
vn 0.9208 -0.3302 -0.2078
vn -0.0618 0.8604 0.5059
vn 0.2765 0.9603 -0.0366
vn -0.8606 -0.3593 -0.3609
vn 0.3739 -0.4991 0.7817
vn -0.9816 -0.1254 0.1440
vn 0.9118 0.1913 0.3634
vn -0.9101 -0.1281 0.3942
vn -0.9467 0.3132 0.0757
vn -0.8762 -0.4785 -0.0577
vn -0.5980 0.5099 0.6183
vn 0.7815 0.1077 0.6145
vn 0.7765 -0.2156 0.5921
vn 0.9815 0.1552 0.1124
vn 0.8510 0.0183 0.5248
vn 0.7130 -0.7012 0.0041
vn 0.1514 -0.9850 -0.0828
vn 0.7559 -0.1771 0.6303
vn 0.8580 -0.3524 0.3737
vn 0.4962 -0.6957 0.5194
vn 0.8954 -0.0938 0.4353
vn -0.9537 -0.1379 -0.2673
vn 0.2034 -0.7406 0.6404
vn -0.6029 -0.6029 0.5225
vn 0.7999 -0.2866 0.5273
vn 0.9276 -0.0895 0.3626
vn 0.7145 0.1984 -0.6709
vn -0.6388 0.1935 -0.7447
vn 0.7473 0.2813 0.6020
vn -0.9559 -0.2937 -0.0073
vn 0.8890 -0.4538 -0.0607
vn 0.8298 -0.2857 -0.4794
vn -0.3672 -0.0213 -0.9299
vn -0.9340 -0.2713 0.2323
vn 0.9916 0.1277 -0.0191
vn -0.7093 0.4237 0.5634
vn -0.0174 -0.1717 0.9850
vn -0.0268 -0.9810 -0.1922
vn 0.0658 0.8663 0.4951
vn 0.2705 -0.5455 -0.7933
vn 0.4349 -0.7004 -0.5660
vn -0.9948 0.0737 -0.0704
vn 0.6292 0.1799 -0.7561
vn -0.7619 -0.3150 0.5660
vn 0.2396 0.9215 -0.3058
vn -0.3440 0.9349 -0.0871
vn -0.4269 0.9043 -0.0073
vn 0.8484 -0.1033 0.5192
vn 0.9902 0.0046 -0.1393
vn 0.4729 -0.0898 -0.8765
vn 0.3623 -0.4980 0.7879
vn 0.8514 -0.3868 -0.3542
vn 0.9335 -0.3326 -0.1336
vn 0.8513 -0.3875 -0.3538
vn 0.8456 -0.3731 -0.3818
vn 0.8625 -0.3714 -0.3438
vn -0.6674 -0.2566 -0.6992
vn -0.8878 0.0261 0.4595
vn -0.8594 0.0070 0.5112
vn 0.0430 0.9779 0.2047
vn -0.7801 0.4395 0.4452
vn 0.1110 -0.7925 0.5997
vn 0.1382 0.7847 -0.6042
vn 0.4372 -0.0139 0.8993
vn 0.5863 0.4057 0.7012
vn 0.0679 -0.0451 0.9967
vn 0.4445 0.2700 0.8541
vn -0.9942 0.0294 -0.1031
vn 0.0351 -0.6422 -0.7657
vn 0.5550 0.1047 0.8252
vn -0.7803 -0.0399 -0.6242
vn 0.6250 -0.1093 0.7729
vn 0.0554 0.1723 -0.9835
vn 0.1384 0.0530 0.9890
vn 0.9311 0.3374 -0.1386
vn -0.0490 0.3887 0.9201
vn -0.9661 0.1097 0.2337
vn 0.6010 0.0210 -0.7990
vn -0.0434 -0.0454 0.9980
vn 0.0629 -0.6417 0.7643
vn 0.1827 -0.0056 -0.9832
vn 0.4851 0.1059 0.8680
vn 0.0264 -0.0032 0.9996
vn -0.0099 -0.6430 0.7658
vn -0.0216 0.0651 -0.9976
vn 0.7496 -0.0282 0.6613
vn -0.4670 -0.0045 0.8842
vn -0.0147 0.5080 0.8612
vn -0.8911 -0.0384 -0.4522
vn -0.0275 0.0016 -0.9996
vn 0.9376 -0.0397 0.3455
vn -0.9981 -0.0363 -0.0489
vn 0.5997 -0.0139 0.8001
vn 0.0292 0.5263 0.8498
vn 0.7003 -0.2329 -0.6747
vn 0.3247 0.9450 0.0386
vn 0.1372 0.9812 0.1360
vn 0.2106 0.9693 0.1270
vn 0.1263 0.9753 0.1809
vn 0.1374 0.9792 0.1492
vn 0.2890 0.9531 0.0902
vn 0.4991 0.1616 -0.8513
vn 0.6207 0.0602 -0.7818
vn 0.9385 0.2250 -0.2618
vn 0.8951 0.4405 -0.0691
vn 0.8940 0.0740 -0.4420
vn 0.7864 0.0095 -0.6176
vn -0.4184 0.3226 0.8490
vn -0.9612 -0.1692 0.2178
vn -0.6725 0.6014 0.4313
vn -0.6442 -0.0439 0.7636
vn 0.9405 0.0047 0.3399
vn -0.6176 -0.0876 0.7816
vn 0.9824 0.1695 0.0782
vn 0.3409 0.3356 0.8782
vn -0.2363 0.5660 0.7898
vn -0.5846 0.7825 0.2143
vn -0.0370 0.5272 0.8489
vn -0.0294 0.9741 0.2243
vn -0.9100 0.0479 0.4119
vn 0.1444 0.2197 0.9648
vn 0.8415 0.1709 0.5126
vn -0.8642 -0.4688 -0.1827
vn -0.2852 -0.5488 -0.7858
vn 0.9834 0.1677 -0.0693
vn 0.8279 0.1896 0.5278
vn -0.8552 0.0197 0.5180
vn 0.1014 0.2080 0.9729
vn -0.1666 0.0962 -0.9813
vn -0.5965 0.1365 0.7909
vn -0.0677 -0.8109 -0.5812
vn -0.3429 0.0668 -0.9370
vn -0.6562 0.3566 0.6650
vn -0.8011 -0.3373 0.4944
vn -0.9002 -0.3641 0.2388
vn 0.0198 0.9718 0.2350
vn 0.0592 0.9319 0.3578
vn 0.9143 0.2738 0.2984
vn -0.4210 0.4794 0.7700
vn -0.5016 -0.8460 0.1806
vn -0.2311 -0.7072 0.6682
vn 0.7165 0.3836 0.5827
vn -0.0164 -0.0198 -0.9997
vn 0.8943 -0.3168 0.3160
vn 0.2736 -0.1868 0.9435
vn -0.8089 0.1004 0.5792
vn 0.7948 -0.1050 0.5977
vn -0.0220 -0.6966 -0.7171
vn -0.7145 -0.4025 0.5722
vn -0.8784 -0.1087 0.4653
vn -0.6202 -0.0292 -0.7839
vn -0.7999 -0.2400 0.5500
vn -0.7487 -0.3798 0.5433
vn -0.5000 -0.0692 0.8633
vn 0.5583 0.4707 -0.6832
vn 0.0284 -0.1717 0.9847
vn -0.7976 -0.4364 0.4163
vn 0.8139 -0.1451 0.5625
vn -0.7607 -0.6341 0.1387
vn -0.9832 -0.1136 0.1430
vn 0.9747 0.1062 0.1967
vn 0.7653 -0.0515 0.6416
vn -0.3889 -0.2083 0.8974
vn 0.1793 -0.7639 -0.6200
vn -0.9148 -0.1884 -0.3572
vn -0.5989 0.1558 -0.7855
vn 0.0151 -0.4859 0.8739
vn -0.0555 -0.7909 0.6095
vn 0.9755 0.1727 0.1366
vn -0.8815 -0.2281 0.4135
vn -0.9640 0.1235 0.2355
vn 0.0283 0.2790 0.9599
vn -0.4428 0.6988 -0.5618
vn -0.0332 0.5093 0.8600
vn 0.0355 0.0561 -0.9978
vn -0.6045 -0.4442 0.6613
vn -0.9652 0.1260 0.2292
vn 0.8910 0.3832 0.2434
vn -0.4834 -0.6370 0.6005
vn 0.9781 -0.1270 -0.1652
vn -0.5355 0.0490 0.8431
vn -0.8096 -0.1526 0.5668
vn -0.8916 -0.1157 0.4379
vn -0.4858 -0.2489 0.8379
vn 0.5070 -0.0192 -0.8617
vn 0.8387 0.3875 0.3827
vn 0.6856 0.7272 0.0340
vn 0.6148 0.1522 -0.7739
vn -0.5268 0.7746 0.3500
vn 0.6720 0.0690 -0.7374
vn -0.6297 0.7751 -0.0511
vn -0.8857 0.3420 0.3140
vn -0.0298 -0.5077 0.8610
vn -0.4751 -0.7235 0.5008
vn -0.7815 -0.1023 0.6154
vn 0.2851 -0.5920 0.7539
vn -0.7771 -0.2574 0.5743
vn -0.0297 0.8181 -0.5743
vn 0.0108 0.9734 0.2289
vn 0.2332 0.9428 0.2382
vn -0.4035 -0.7025 -0.5862
vn -0.8330 -0.3346 0.4407
vn -0.7939 -0.0180 0.6078
vn -0.9557 -0.2241 0.1906
vn -0.5753 -0.7729 0.2677
vn 0.3160 -0.1925 0.9290
vn -0.0031 -0.7607 -0.6490
vn -0.9114 -0.1034 0.3982
vn -0.8074 -0.2452 -0.5367
vn 0.0978 0.5192 0.8490
vn 0.9582 -0.0822 -0.2740
vn -0.9057 0.3553 0.2313
vn 0.7739 -0.2128 0.5966
vn -0.2515 -0.4554 -0.8540
vn -0.6905 0.3328 0.6422
vn 0.2753 -0.5465 0.7909
vn 0.2528 0.5583 0.7902
vn -0.8536 -0.4518 -0.2595
vn -0.6496 -0.2052 0.7320
vn 0.4489 0.3713 0.8128
vn -0.9827 -0.1304 -0.1314
vn -0.4751 0.0297 0.8794
vn -0.1505 -0.9596 -0.2377
vn 0.2314 0.9724 0.0294
vn 0.7761 -0.0918 0.6239
vn 0.0248 0.1175 -0.9928
vn -0.1497 -0.7484 0.6461
vn -0.7248 0.3842 -0.5718
vn -0.0154 0.1175 -0.9929
vn -0.5873 0.7636 -0.2682
vn -0.8511 0.4746 0.2245
vn 0.5133 0.6765 -0.5281
vn -0.9921 -0.1231 -0.0238
vn -0.9909 0.0079 -0.1344
vn -0.8312 -0.1146 0.5441
vn 0.0759 -0.5513 -0.8309
vn -0.8735 -0.3141 -0.3721
vn -0.9560 -0.2461 -0.1594
vn -0.8707 -0.3319 -0.3631
vn -0.8801 -0.3554 -0.3147
vn -0.8946 -0.3522 -0.2749
vn -0.0359 0.2470 0.9683
vn 0.9461 -0.2917 -0.1406
vn -0.6200 0.5026 -0.6025
vn -0.7451 -0.0258 0.6664
vn 0.1290 -0.2644 0.9557
vn 0.5632 0.8136 0.1442
vn -0.5823 0.4054 0.7047
vn -0.0178 -0.9697 0.2437
vn -0.0690 0.9757 0.2079
vn 0.0619 -0.0996 0.9931
vn 0.0295 0.3055 0.9517
vn -0.7338 -0.0751 0.6752
vn -0.0122 0.1256 0.9920
vn -0.9694 -0.0753 0.2336
vn 0.9898 -0.0358 0.1376
vn -0.0037 0.9686 0.2485
vn -0.5882 -0.1154 0.8004
vn 0.0245 -0.0024 -0.9997
vn -0.1351 0.0375 0.9901
vn -0.9313 0.3352 -0.1426
vn -0.0664 0.9978 0.0073
vn 0.3620 0.7238 -0.5874
vn -0.5180 0.2563 -0.8161
vn -0.5872 0.0199 -0.8092
vn 0.2826 -0.0082 0.9592
vn -0.0274 -0.0997 0.9946
vn -0.8773 -0.0280 0.4791
vn 0.9966 -0.0344 -0.0743
vn 0.7861 -0.0320 -0.6173
vn 0.9628 -0.0295 -0.2685
vn -0.6277 -0.0157 0.7783
vn 0.0233 -0.0135 -0.9996
vn -0.4754 -0.0162 -0.8796
vn 0.6217 -0.0190 -0.7830
vn -0.2704 -0.0022 0.9628
vn 0.1762 0.0644 -0.9822
vn 0.0536 0.2759 -0.9597
vn -0.0341 0.2870 -0.9573
vn 0.8960 -0.0301 -0.4430
vn -0.9549 -0.0294 -0.2954
vn -0.3102 0.9499 0.0390
vn -0.1337 0.9827 0.1279
vn -0.1786 -0.5578 -0.8105
vn 0.0250 0.9890 0.1460
vn -0.1233 0.9735 0.1928
vn -0.1342 0.9778 0.1611
vn -0.3302 0.9439 0.0080
vn -0.4650 0.1848 -0.8658
vn -0.6195 0.0568 -0.7830
vn -0.9378 0.2309 -0.2591
vn -0.8946 0.4409 -0.0722
vn -0.8912 0.0717 -0.4479
vn -0.7809 0.0063 -0.6247
vn -0.4024 -0.2279 0.8866
vn 0.8024 0.3853 0.4557
vn 0.7540 -0.1380 0.6423
vn 0.8728 0.2624 0.4116
vn -0.1837 -0.1871 0.9650
vn 0.3412 -0.0129 0.9399
vn 0.1908 0.6838 0.7042
vn 0.3755 -0.7000 0.6075
vn 0.3804 -0.5444 0.7476
vn 0.7030 -0.2642 0.6603
vn -0.1403 -0.1766 0.9742
vn 0.9283 -0.2950 0.2262
vn -0.7331 -0.2682 0.6250
vn 0.2238 -0.3204 0.9205
vn -0.4659 -0.1031 0.8788
vn -0.4703 0.1492 0.8698
vn 0.6702 0.4724 -0.5724
vn -0.5184 0.1123 0.8477
vn 0.4378 -0.7806 0.4461
vn 0.9802 0.1967 0.0225
vn 0.9855 -0.1136 0.1260
vn 0.2110 -0.0629 0.9755
vn 0.2829 -0.6906 0.6656
vn 0.9129 0.0089 0.4081
vn 0.7682 -0.3481 0.5374
vn 0.5642 -0.0574 0.8237
vn 0.8380 -0.2816 0.4674
vn -0.8851 0.3654 0.2882
vn 0.9778 -0.1646 0.1299
vn 0.9046 -0.1802 0.3863
vn 0.3793 -0.8309 0.4071
vn 0.4780 -0.7528 0.4526
vn 0.5067 -0.3364 0.7938
vn 0.5375 0.7708 0.3419
vn 0.2520 0.8345 0.4900
vn 0.7563 0.1904 0.6259
vn 0.8549 -0.1188 0.5050
vn 0.8280 -0.0252 0.5602
vn 0.8674 -0.2625 0.4228
vn 0.3212 -0.9427 0.0904
vn 0.8921 -0.3396 0.2980
vn 0.7538 0.2954 0.5869
vn 0.8804 -0.1553 0.4481
vn 0.8818 -0.1881 -0.4325
vn -0.3651 -0.0194 -0.9308
vn 0.4298 0.8450 0.3182
vn -0.6249 0.5061 -0.5945
vn 0.9913 -0.1269 -0.0350
vn 0.9571 -0.2209 -0.1874
vn 0.6247 -0.1104 0.7730
vn 0.0646 0.9770 0.2031
vn -0.9836 -0.1091 0.1437
vn 0.2260 -0.3175 0.9209
vn -0.2479 -0.6283 0.7375
vn -0.6514 0.3378 0.6794
vn -0.7150 -0.2208 0.6634
vn -0.5314 -0.0533 0.8454
vn -0.8349 -0.2880 0.4690
vn -0.9714 0.1231 0.2031
vn -0.9781 -0.1534 0.1409
vn -0.9690 -0.1354 0.2067
vn -0.0096 -0.0021 1.0000
vn -0.7676 -0.3832 0.5137
vn -0.8189 -0.1234 0.5606
vn -0.3939 -0.3354 0.8558
vn -0.4773 -0.3947 0.7851
vn -0.3204 0.8473 -0.4236
vn 0.8967 -0.0934 0.4326
vn -0.6555 0.5929 0.4679
vn -0.4460 -0.0858 -0.8909
vn -0.8333 0.0487 0.5507
vn -0.9583 -0.1762 0.2249
vn 0.5577 -0.6248 -0.5465
vn -0.9736 0.1108 0.1996
vn -0.8912 -0.3535 0.2843
vn -0.6977 0.3511 0.6245
vn 0.0905 0.9898 -0.1098
vn -0.9474 -0.2886 -0.1384
vn -0.5903 -0.1085 0.7999
vn -0.6537 0.1254 -0.7463
vn -0.4741 -0.0492 0.8791
vn 0.0160 0.5021 0.8646
vn -0.1439 -0.1910 0.9710
vn -0.4968 -0.3515 0.7935
vn -0.7050 -0.3905 0.5921
vn 0.5396 0.2187 -0.8131
vn 0.7651 -0.0770 0.6393
vn 0.4011 -0.0695 0.9134
vn 0.6894 -0.2881 0.6646
vn -0.6659 -0.3184 0.6747
vn -0.2951 0.3594 0.8853
vn -0.6896 0.3585 0.6293
vn -0.9073 0.0610 0.4160
vn 0.3790 -0.5799 0.7212
vn -0.5525 0.3976 0.7326
vn -0.8866 0.3218 0.3324
vn 0.5598 0.1698 0.8111
vn 0.4533 0.8908 0.0311
vn -0.8497 -0.1102 0.5157
vn 0.9394 -0.3330 -0.0817
vn -0.3551 0.0328 -0.9343
vn -0.7677 -0.5615 0.3087
vn -0.7059 0.0513 0.7064
vn 0.6110 0.1729 0.7726
vn 0.0169 0.1754 0.9844
vn -0.0979 0.9707 0.2194
vn -0.7509 -0.1370 0.6460
vn -0.4257 -0.7674 0.4794
vn 0.5741 0.3763 0.7272
vn 0.7525 -0.6144 0.2371
vn 0.3717 0.0302 0.9279
vn -0.0670 -0.5396 0.8392
vn 0.3035 -0.5618 0.7696
vn -0.4996 0.0621 0.8640
vn -0.8582 0.0948 0.5045
vn 0.8948 -0.4337 -0.1065
vn -0.0680 0.2562 0.9642
vn -0.2211 -0.7076 0.6711
vn -0.6393 -0.4627 0.6142
vn 0.6504 0.1337 -0.7478
vn 0.7449 -0.1089 0.6583
vn 0.2683 0.3690 0.8899
vn 0.5100 0.2006 0.8365
vn -0.4773 0.2126 0.8526
vn -0.0644 -0.9979 0.0086
vn 0.0388 -0.9962 -0.0778
vn 0.0637 -0.9961 -0.0604
vn -0.0480 -0.9982 0.0363
vn 0.0903 -0.9954 -0.0323
vn -0.0520 -0.9981 0.0317
vn 0.0997 -0.9949 -0.0165
vn -0.0379 -0.9984 0.0430
vn 0.0725 -0.9921 -0.1025
vn 0.0032 -0.9979 0.0654
vn 0.0794 -0.9968 -0.0134
vn 0.0013 -0.9960 -0.0898
vn 0.0059 -0.9981 0.0621
vn -1.0000 -0.0001 0.0031
vn 0.0801 -0.9966 -0.0184
vn -0.0176 -0.9962 -0.0858
vn 0.0785 -0.9968 -0.0138
vn -0.0380 -0.9963 -0.0768
vn -0.0006 -0.9960 -0.0898
vn -0.0611 -0.9963 -0.0605
vn 0.0578 -0.9981 0.0212
vn -0.0730 -0.9962 -0.0479
vn 0.0314 -0.9982 0.0512
vn 0.0334 -0.9982 0.0496
vn -0.0736 -0.9962 -0.0467
vn 0.0177 -0.9982 0.0581
vn -0.0775 -0.9964 -0.0343
vn -0.0768 -0.9961 -0.0446
vn -0.0064 -0.9980 0.0621
vn 0.0219 -0.9961 -0.0851
vn -1.0000 0.0047 -0.0009
vn -0.0725 -0.9973 -0.0140
vn 0.5722 0.7882 0.2267
vn 0.8283 -0.5601 -0.0095
vn -0.8283 0.5601 0.0095
vn -0.5302 -0.8401 0.1150
vn -0.7863 0.5083 0.3512
vn 0.7863 -0.5083 -0.3512
vn -0.5722 -0.7882 -0.2267
vn 0.5302 0.8401 -0.1150
vn 0.5114 0.7397 0.4373
vn 0.7676 -0.6086 0.2012
vn -0.7676 0.6086 -0.2012
vn -0.5764 -0.8107 -0.1027
vn -0.8326 0.5376 0.1334
vn 0.8326 -0.5376 -0.1334
vn -0.5114 -0.7397 -0.4373
vn 0.5764 0.8107 0.1027
vn 0.3880 0.6849 0.6168
vn 0.6442 -0.6635 0.3806
vn -0.6442 0.6635 -0.3806
vn -0.5537 -0.7680 -0.3220
vn -0.8098 0.5804 -0.0859
vn 0.8098 -0.5804 0.0859
vn -0.3880 -0.6849 -0.6168
vn 0.5536 0.7680 0.3220
vn 0.2141 0.6290 0.7474
vn 0.4703 -0.7194 0.5112
vn -0.4703 0.7194 -0.5112
vn -0.4642 -0.7161 -0.5213
vn -0.7204 0.6323 -0.2852
vn 0.7203 -0.6323 0.2852
vn -0.2141 -0.6290 -0.7474
vn 0.4642 0.7161 0.5213
vn 0.0067 0.5775 0.8164
vn 0.2629 -0.7709 0.5802
vn -0.2629 0.7709 -0.5802
vn -0.3167 -0.6600 -0.6812
vn -0.5729 0.6883 -0.4450
vn 0.5729 -0.6883 0.4450
vn -0.0067 -0.5775 -0.8164
vn 0.3167 0.6600 0.6812
vn -0.2139 0.5354 0.8170
vn 0.0423 -0.8129 0.5809
vn -0.0423 0.8129 -0.5809
vn -0.1258 -0.6054 -0.7859
vn -0.3819 0.7429 -0.5497
vn 0.3819 -0.7429 0.5497
vn 0.2139 -0.5354 -0.8170
vn 0.1258 0.6054 0.7859
vn -0.4261 0.5070 0.7493
vn -0.1699 -0.8413 0.5131
vn 0.1699 0.8413 -0.5131
vn 0.0901 -0.5575 -0.8253
vn -0.1661 0.7908 -0.5891
vn 0.1661 -0.7908 0.5891
vn 0.4261 -0.5070 -0.7493
vn -0.0901 0.5575 0.8253
vn -0.6091 0.4949 0.6197
vn -0.3529 -0.8534 0.3836
vn 0.3529 0.8534 -0.3836
vn 0.3096 -0.5210 -0.7954
vn 0.0535 0.8273 -0.5592
vn -0.0535 -0.8273 0.5592
vn 0.6091 -0.4949 -0.6197
vn -0.3096 0.5210 0.7954
vn -0.7450 0.5004 0.4411
vn -0.4889 -0.8480 0.2049
vn 0.4889 0.8480 -0.2049
vn 0.5114 -0.4995 -0.6992
vn 0.2552 0.8488 -0.4631
vn -0.2552 -0.8488 0.4631
vn 0.7450 -0.5004 -0.4411
vn -0.5114 0.4995 0.6992
vn -0.8206 0.5229 0.2308
vn -0.5644 -0.8255 -0.0054
vn 0.5644 0.8255 0.0054
vn 0.6757 -0.4952 -0.5462
vn 0.4195 0.8532 -0.3100
vn -0.4195 -0.8532 0.3100
vn 0.8206 -0.5229 -0.2308
vn -0.6757 0.4951 0.5462
vn 0.5537 0.7680 0.3220
vn -0.5114 0.4996 0.6992
vn 0.5114 -0.4996 -0.6992
vn -0.6757 0.4952 0.5462
vn -0.6518 0.1579 0.7417
vn 0.7710 -0.6148 0.1663
vn -0.0303 -0.6423 -0.7658
vn -0.9818 0.1759 0.0719
vn -0.9946 -0.0853 0.0591
vn 0.9182 -0.2600 0.2989
vn -0.0199 -0.5043 0.8633
vn -0.0147 0.5265 0.8500
vn 0.1476 0.4257 0.8927
vn 0.7766 -0.1880 0.6013
vn -0.3677 -0.7627 0.5321
vn -0.2925 -0.5849 -0.7565
vn 0.0548 -0.6719 0.7386
vn 0.1165 -0.3468 -0.9307
vn -0.8667 0.3616 0.3435
vn -0.0324 0.3774 0.9255
vn -0.0548 0.9322 0.3579
vn 0.8944 -0.3156 0.3169
vn -0.0666 -0.2744 0.9593
vn -0.9291 -0.3392 0.1473
vn 0.6918 -0.6386 0.3371
vn 0.1898 -0.5072 0.8407
vn 0.9904 0.0021 -0.1382
vn -0.1220 -0.6732 -0.7294
vn 0.0830 0.9965 0.0073
vn 0.7088 0.5599 -0.4290
vn -0.1094 -0.7741 -0.6236
vn 0.6058 0.5441 0.5804
vn -0.5002 0.1798 0.8470
vn 0.8053 0.2274 0.5475
vn -0.0211 0.1479 -0.9888
vn 0.1629 0.1118 -0.9803
vn -0.0248 -0.6784 0.7342
vn 0.9851 -0.0939 0.1443
vn -0.6960 0.5686 -0.4384
vn -0.4459 -0.7745 0.4486
vn 0.8839 0.0097 0.4676
vn -0.0461 0.8179 -0.5735
vn 0.0140 -0.9698 0.2437
vn 0.1495 0.5154 0.8438
vn -0.9741 0.1591 0.1607
vn -0.1815 -0.5799 -0.7942
vn 0.8644 -0.2920 0.4093
vn 0.2003 -0.5949 -0.7785
vn -0.2116 0.0149 -0.9772
vn -0.6244 0.3317 0.7072
vn -0.9778 -0.0363 0.2065
vn 0.8784 -0.0281 0.4770
vn 0.3111 0.0087 -0.9503
vn -0.8806 -0.2457 0.4051
vn 0.1499 0.9446 0.2919
vn -0.5101 0.4254 0.7475
vn 0.0803 0.9748 0.2082
vn 0.9753 -0.2093 -0.0706
vn -0.0126 0.4304 0.9026
vn -0.0107 0.2845 0.9586
vn 0.2244 -0.7231 -0.6533
vn -0.9036 -0.2731 0.3299
vn -0.5929 -0.0528 -0.8036
vn 0.8622 -0.3531 -0.3632
vn -0.0082 0.8298 0.5580
vn -0.9052 -0.3439 -0.2497
vn 0.4888 -0.6825 0.5434
vn -0.9817 -0.1229 0.1453
vn 0.8656 -0.3247 0.3813
vn -0.9250 -0.0741 0.3727
vn -0.9378 0.0736 0.3394
vn -0.3146 0.5601 0.7664
vn 0.8396 0.1883 0.5096
vn 0.7986 -0.3366 0.4989
vn 0.9740 0.1525 0.1673
vn 0.7464 -0.1562 0.6469
vn 0.4255 -0.7361 0.5264
vn -0.9843 0.1602 -0.0741
vn 0.1835 -0.7354 0.6523
vn -0.6123 -0.6252 0.4840
vn 0.8128 -0.1371 0.5662
vn 0.6421 0.1609 -0.7495
vn -0.8019 -0.3494 0.4847
vn -0.7697 -0.1604 0.6179
vn 0.9958 0.0313 -0.0859
vn -0.6461 0.3202 0.6929
vn -0.0040 -0.1782 0.9840
vn 0.0011 0.8298 0.5580
vn 0.3141 -0.4943 -0.8106
vn 0.2922 -0.4183 -0.8600
vn -0.9946 0.0317 -0.0990
vn 0.7376 0.3744 -0.5620
vn -0.7036 -0.1016 0.7033
vn 0.8992 -0.1386 0.4150
vn 0.3953 -0.0101 -0.9185
vn 0.3354 -0.5023 0.7970
vn -0.6434 -0.0598 -0.7632
vn -0.8867 0.0557 0.4589
vn -0.9528 -0.0575 0.2981
vn 0.0093 0.9744 0.2245
vn -0.7425 0.4212 0.5208
vn 0.2399 -0.7591 0.6051
vn 0.0585 0.8180 -0.5723
vn 0.4603 -0.0082 0.8877
vn 0.5741 0.3837 0.7233
vn 0.0618 -0.0490 0.9969
vn 0.4371 0.4310 0.7894
vn -0.9901 0.1347 0.0391
vn 0.0200 -0.6464 -0.7627
vn 0.5356 0.0977 0.8388
vn -0.8054 -0.0289 -0.5920
vn 0.0349 0.1479 -0.9884
vn 0.0572 0.2542 0.9655
vn -0.9605 0.0540 0.2731
vn -0.0274 -0.0557 0.9981
vn 0.0278 -0.6109 0.7912
vn 0.2208 0.0148 -0.9752
vn 0.4918 0.0504 0.8692
vn 0.0244 -0.0036 0.9997
vn -0.0414 -0.6165 0.7863
vn -0.0153 0.0562 -0.9983
vn 0.7787 -0.0171 0.6272
vn -0.4213 -0.0158 0.9068
vn -0.0046 0.5022 0.8647
vn -0.8928 -0.0394 -0.4487
vn -0.0153 -0.0023 -0.9999
vn 0.9356 -0.0381 0.3510
vn -0.9967 -0.0291 -0.0757
vn 0.6114 -0.0173 0.7911
vn 0.0012 0.5099 0.8602
vn 0.6769 -0.0553 -0.7340
vn -0.9614 -0.1686 0.2175
vn -0.5929 0.5644 0.5744
vn 0.9112 -0.1192 0.3944
vn 0.9927 0.0984 -0.0691
vn 0.3536 0.3318 0.8746
vn -0.5617 0.7123 0.4209
vn -0.5527 0.8179 0.1602
vn -0.0126 0.5217 0.8531
vn -0.0035 0.9774 0.2114
vn -0.8077 -0.2047 0.5529
vn 0.7590 -0.0045 0.6510
vn -0.9451 -0.2968 -0.1369
vn -0.3856 -0.4309 -0.8159
vn 0.9558 -0.1254 -0.2660
vn 0.8411 0.2144 0.4965
vn -0.0647 0.1254 0.9900
vn -0.0955 0.0593 -0.9937
vn -0.0740 -0.8036 -0.5906
vn -0.3809 0.0455 -0.9235
vn -0.7816 -0.2237 0.5823
vn 0.0992 0.9728 0.2095
vn 0.0812 0.9371 0.3396
vn 0.7674 0.5269 0.3653
vn -0.5764 0.1155 0.8090
vn 0.6391 0.2591 0.7242
vn -0.0210 -0.0062 -0.9998
vn 0.8373 -0.0812 0.5407
vn 0.1828 -0.0892 0.9791
vn 0.7867 -0.2198 0.5768
vn -0.1306 -0.8235 -0.5520
vn -0.6598 -0.0159 -0.7513
vn 0.4731 0.6397 -0.6058
vn 0.0170 -0.1772 0.9840
vn 0.8333 -0.0879 0.5458
vn -0.7420 -0.6695 0.0341
vn 0.9604 0.1205 0.2511
vn 0.7893 -0.1159 0.6030
vn 0.2810 -0.6139 -0.7377
vn -0.9572 -0.0836 -0.2770
vn -0.6178 0.1098 -0.7787
vn 0.0424 -0.5064 0.8613
vn -0.0094 -0.7973 0.6035
vn 0.9709 -0.0710 0.2288
vn -0.8920 -0.3096 0.3292
vn 0.0581 0.3128 0.9480
vn -0.6369 0.6944 -0.3349
vn -0.0370 0.5079 0.8606
vn 0.0219 0.0746 -0.9970
vn -0.9719 0.1191 0.2031
vn 0.9355 0.2915 0.1994
vn -0.3924 -0.4933 0.7763
vn 0.9790 -0.1151 -0.1684
vn -0.8311 -0.0895 0.5489
vn -0.8869 0.2191 0.4066
vn 0.5488 -0.0066 -0.8359
vn 0.8081 0.4077 0.4252
vn 0.6477 0.7606 -0.0444
vn 0.6257 0.1256 -0.7698
vn 0.6052 -0.0918 -0.7907
vn -0.6739 0.7378 0.0385
vn -0.7807 0.5133 0.3564
vn -0.0508 -0.4980 0.8657
vn -0.8066 -0.0429 0.5895
vn 0.6730 -0.1984 0.7126
vn -0.5017 -0.3764 0.7789
vn -0.1038 0.7846 -0.6112
vn 0.2253 0.9543 0.1962
vn -0.1154 0.9851 0.1278
vn -0.2667 -0.4180 -0.8684
vn 0.6395 0.3671 0.6755
vn 0.1260 -0.5562 -0.8215
vn -0.7817 -0.2984 -0.5476
vn 0.1495 0.5285 0.8357
vn 0.9163 -0.1854 -0.3550
vn -0.7925 0.5283 0.3048
vn 0.8941 0.0982 0.4369
vn -0.1806 -0.3723 -0.9104
vn 0.2305 -0.7505 0.6193
vn 0.5531 0.5103 0.6585
vn -0.8368 -0.4874 -0.2493
vn -0.2482 -0.6045 0.7570
vn 0.4255 0.4174 0.8029
vn -0.9865 -0.0629 -0.1512
vn -0.5155 0.0426 0.8558
vn 0.2900 0.9570 0.0016
vn 0.8084 -0.0131 0.5885
vn 0.1219 0.0777 -0.9895
vn -0.1627 -0.7357 0.6574
vn -0.6231 0.1988 -0.7565
vn -0.0953 0.0852 -0.9918
vn -0.8316 -0.0835 0.5491
vn 0.1430 -0.5865 -0.7972
vn 0.0757 0.3880 0.9185
vn 0.8692 -0.4580 -0.1865
vn -0.6717 0.3707 -0.6414
vn -0.7510 -0.0280 0.6597
vn 0.0609 -0.2896 0.9552
vn 0.6039 0.7682 0.2127
vn -0.5520 0.3527 0.7555
vn -0.0719 -0.9714 0.2262
vn -0.0701 0.9758 0.2073
vn 0.0637 -0.0984 0.9931
vn 0.1831 0.3714 0.9102
vn -0.8684 0.1388 0.4761
vn 0.1108 0.1460 0.9831
vn -0.9745 0.1777 0.1366
vn 0.9885 -0.0382 0.1463
vn -0.0618 0.9763 0.2073
vn 0.0318 -0.0000 -0.9995
vn -0.0687 0.9976 0.0093
vn 0.2626 0.7736 -0.5768
vn 0.3015 -0.0037 0.9534
vn -0.0182 -0.1060 0.9942
vn -0.9330 0.0077 0.3598
vn 0.9971 -0.0363 -0.0674
vn 0.7766 -0.0280 -0.6293
vn 0.9677 -0.0346 -0.2496
vn -0.5923 -0.0260 0.8053
vn 0.0258 -0.0061 -0.9996
vn -0.5115 -0.0057 -0.8593
vn 0.6625 -0.0328 -0.7483
vn -0.2802 -0.0045 0.9599
vn 0.1263 0.0970 -0.9872
vn 0.0455 0.2671 -0.9626
vn -0.0242 0.2763 -0.9608
vn 0.9011 -0.0271 -0.4327
vn -0.9634 -0.0375 -0.2655
vn -0.2227 -0.5813 -0.7826
vn 0.8203 0.1112 0.5611
vn 0.9990 -0.0448 0.0049
vn 0.5481 0.6173 -0.5644
vn -0.4554 0.0268 0.8899
vn 0.8839 -0.4557 0.1051
vn 0.8453 -0.0549 0.5315
vn -0.8369 0.2300 0.4968
vn 0.9778 -0.1423 0.1540
vn 0.2728 -0.2037 0.9403
vn -0.0049 -0.0032 1.0000
vn -0.3726 -0.0081 -0.9280
vn 0.0292 0.5096 0.8599
vt 0.000000 0.000000
vt 0.250000 0.490000
vt 0.250000 0.250000
vt 0.490000 0.250000
vt 0.250000 0.010000
vt 0.750000 0.490000
vt 0.750000 0.249999
vt 0.510000 0.250000
vt 0.010000 0.250000
vt 0.750000 0.010000
vt 0.990000 0.250000
s 0
f 21/1/1 22/1/1 20/1/1
f 264/1/2 254/1/2 252/1/2
f 56/1/3 72/1/3 39/1/3
f 186/1/4 371/1/4 369/1/4
f 29/1/5 30/1/5 22/1/5
f 305/1/6 304/1/6 358/1/6
f 326/1/7 287/1/7 325/1/7
f 135/1/8 153/1/8 136/1/8
f 242/1/9 38/1/9 36/1/9
f 295/1/10 108/1/10 296/1/10
f 96/1/11 47/1/11 62/1/11
f 394/1/12 75/1/12 110/1/12
f 233/1/13 256/1/13 253/1/13
f 350/1/14 354/1/14 355/1/14
f 81/1/15 80/1/15 85/1/15
f 347/1/16 348/1/16 349/1/16
f 331/1/17 335/1/17 338/1/17
f 46/1/18 49/1/18 50/1/18
f 266/1/19 98/1/19 267/1/19
f 300/1/20 121/1/20 309/1/20
f 47/1/21 52/1/21 48/1/21
f 72/1/22 40/1/22 39/1/22
f 55/1/23 282/1/23 85/1/23
f 45/1/24 58/1/24 44/1/24
f 315/1/25 336/1/25 325/1/25
f 27/1/26 28/1/26 77/1/26
f 77/1/27 24/1/27 27/1/27
f 52/1/28 53/1/28 51/1/28
f 171/1/29 124/1/29 112/1/29
f 351/1/30 355/1/30 357/1/30
f 49/1/31 47/1/31 48/1/31
f 39/1/32 54/1/32 56/1/32
f 30/1/33 20/1/33 22/1/33
f 119/1/34 122/1/34 118/1/34
f 272/1/35 270/1/35 273/1/35
f 112/1/36 125/1/36 119/1/36
f 164/1/37 147/1/37 146/1/37
f 104/1/38 106/1/38 102/1/38
f 74/1/39 58/1/39 45/1/39
f 302/1/40 402/1/40 308/1/40
f 46/1/41 63/1/41 62/1/41
f 49/1/42 48/1/42 77/1/42
f 28/1/43 50/1/43 77/1/43
f 50/1/44 49/1/44 77/1/44
f 180/1/45 367/1/45 366/1/45
f 56/1/46 54/1/46 78/1/46
f 78/1/47 80/1/47 79/1/47
f 194/1/48 82/1/48 192/1/48
f 166/1/49 133/1/49 161/1/49
f 81/1/50 282/1/50 281/1/50
f 56/1/51 86/1/51 76/1/51
f 90/1/52 94/1/52 91/1/52
f 74/1/53 88/1/53 89/1/53
f 41/1/54 92/1/54 91/1/54
f 72/1/55 93/1/55 92/1/55
f 313/1/56 304/1/56 311/1/56
f 44/1/57 43/1/57 42/1/57
f 240/1/58 257/1/58 243/1/58
f 144/1/59 142/1/59 143/1/59
f 126/1/60 311/1/60 123/1/60
f 37/1/61 55/1/61 54/1/61
f 97/1/62 64/1/62 95/1/62
f 303/1/63 288/1/63 297/1/63
f 164/1/64 159/1/64 158/1/64
f 105/1/65 74/1/65 104/1/65
f 94/1/66 44/1/66 42/1/66
f 351/1/67 346/1/67 350/1/67
f 200/1/68 228/1/68 379/1/68
f 110/1/69 114/1/69 116/1/69
f 251/1/70 265/1/70 263/1/70
f 376/1/71 221/1/71 385/1/71
f 209/1/72 8/1/72 208/1/72
f 73/1/73 105/1/73 109/1/73
f 320/1/74 343/1/74 319/1/74
f 340/1/75 342/1/75 339/1/75
f 293/1/76 249/1/76 250/1/76
f 130/1/77 127/1/77 135/1/77
f 393/1/78 397/1/78 392/1/78
f 65/1/79 114/1/79 99/1/79
f 248/1/80 262/1/80 259/1/80
f 114/1/81 105/1/81 99/1/81
f 117/1/82 122/1/82 121/1/82
f 128/1/83 149/1/83 150/1/83
f 53/1/84 264/1/84 252/1/84
f 34/1/85 242/1/85 36/1/85
f 334/1/86 351/1/86 333/1/86
f 274/1/87 245/1/87 246/1/87
f 362/1/88 367/1/88 368/1/88
f 76/1/89 93/1/89 72/1/89
f 296/1/90 120/1/90 300/1/90
f 113/1/91 127/1/91 129/1/91
f 278/1/92 292/1/92 364/1/92
f 115/1/93 114/1/93 65/1/93
f 293/1/94 289/1/94 290/1/94
f 68/1/95 66/1/95 67/1/95
f 236/1/96 255/1/96 239/1/96
f 314/1/97 337/1/97 315/1/97
f 336/1/98 326/1/98 325/1/98
f 272/1/99 262/1/99 269/1/99
f 155/1/100 153/1/100 152/1/100
f 32/1/101 40/1/101 22/1/101
f 89/1/102 111/1/102 103/1/102
f 90/1/103 142/1/103 141/1/103
f 145/1/104 92/1/104 93/1/104
f 147/1/105 93/1/105 146/1/105
f 57/1/106 393/1/106 392/1/106
f 159/1/107 154/1/107 151/1/107
f 24/1/108 52/1/108 26/1/108
f 149/1/109 140/1/109 148/1/109
f 370/1/110 375/1/110 285/1/110
f 19/1/111 23/1/111 17/1/111
f 233/1/112 279/1/112 235/1/112
f 115/1/113 64/1/113 66/1/113
f 136/1/114 153/1/114 137/1/114
f 132/1/115 155/1/115 156/1/115
f 342/1/116 319/1/116 343/1/116
f 157/1/117 152/1/117 154/1/117
f 345/1/118 338/1/118 346/1/118
f 154/1/119 160/1/119 157/1/119
f 156/1/120 157/1/120 160/1/120
f 133/1/121 156/1/121 161/1/121
f 329/1/122 332/1/122 290/1/122
f 173/1/123 172/1/123 165/1/123
f 335/1/124 341/1/124 338/1/124
f 100/1/125 267/1/125 98/1/125
f 146/1/126 93/1/126 169/1/126
f 120/1/127 102/1/127 106/1/127
f 166/1/128 162/1/128 167/1/128
f 176/1/129 188/1/129 183/1/129
f 359/1/130 360/1/130 352/1/130
f 125/1/131 173/1/131 179/1/131
f 231/1/132 247/1/132 245/1/132
f 172/1/133 171/1/133 134/1/133
f 113/1/134 130/1/134 171/1/134
f 131/1/135 171/1/135 130/1/135
f 142/1/136 145/1/136 143/1/136
f 174/1/137 173/1/137 165/1/137
f 190/1/138 178/1/138 187/1/138
f 75/1/139 109/1/139 110/1/139
f 93/1/140 177/1/140 169/1/140
f 176/1/141 166/1/141 167/1/141
f 169/1/142 177/1/142 170/1/142
f 170/1/143 177/1/143 168/1/143
f 167/1/144 168/1/144 177/1/144
f 362/1/145 369/1/145 363/1/145
f 331/1/146 329/1/146 328/1/146
f 385/1/147 220/1/147 386/1/147
f 84/1/148 213/1/148 83/1/148
f 263/1/149 266/1/149 268/1/149
f 26/1/150 51/1/150 25/1/150
f 119/1/151 126/1/151 123/1/151
f 212/1/152 5/1/152 211/1/152
f 105/1/153 101/1/153 99/1/153
f 83/1/154 193/1/154 84/1/154
f 43/1/155 31/1/155 69/1/155
f 358/1/156 312/1/156 359/1/156
f 186/1/157 188/1/157 189/1/157
f 30/1/158 27/1/158 24/1/158
f 381/1/159 225/1/159 382/1/159
f 79/1/160 192/1/160 78/1/160
f 181/1/161 180/1/161 179/1/161
f 87/1/162 196/1/162 195/1/162
f 197/1/163 195/1/163 196/1/163
f 19/1/164 230/1/164 18/1/164
f 340/1/165 322/1/165 323/1/165
f 198/1/166 197/1/166 199/1/166
f 193/1/167 284/1/167 84/1/167
f 34/1/168 21/1/168 18/1/168
f 16/1/169 200/1/169 199/1/169
f 395/1/170 110/1/170 116/1/170
f 3/1/171 214/1/171 2/1/171
f 18/1/172 241/1/172 34/1/172
f 184/1/173 368/1/173 367/1/173
f 210/1/174 7/1/174 209/1/174
f 390/1/175 217/1/175 216/1/175
f 294/1/176 107/1/176 295/1/176
f 383/1/177 225/1/177 224/1/177
f 189/1/178 372/1/178 371/1/178
f 8/1/179 207/1/179 208/1/179
f 376/1/180 223/1/180 222/1/180
f 5/1/181 210/1/181 211/1/181
f 101/1/182 108/1/182 107/1/182
f 183/1/183 175/1/183 176/1/183
f 207/1/184 196/1/184 87/1/184
f 87/1/185 82/1/185 209/1/185
f 87/1/186 209/1/186 208/1/186
f 211/1/187 210/1/187 82/1/187
f 210/1/188 209/1/188 82/1/188
f 208/1/189 207/1/189 87/1/189
f 202/1/190 199/1/190 197/1/190
f 202/1/191 197/1/191 203/1/191
f 206/1/192 205/1/192 197/1/192
f 196/1/193 206/1/193 197/1/193
f 197/1/194 205/1/194 204/1/194
f 197/1/195 204/1/195 203/1/195
f 230/1/196 229/1/196 231/1/196
f 345/1/197 330/1/197 331/1/197
f 300/1/198 298/1/198 296/1/198
f 247/1/199 271/1/199 248/1/199
f 158/1/200 143/1/200 147/1/200
f 237/1/201 231/1/201 238/1/201
f 113/1/202 112/1/202 111/1/202
f 57/1/203 43/1/203 44/1/203
f 315/1/204 305/1/204 314/1/204
f 303/1/205 309/1/205 310/1/205
f 264/1/206 97/1/206 265/1/206
f 284/1/207 214/1/207 84/1/207
f 339/1/208 336/1/208 340/1/208
f 23/1/209 24/1/209 26/1/209
f 138/1/210 89/1/210 88/1/210
f 364/1/211 363/1/211 365/1/211
f 349/1/212 353/1/212 354/1/212
f 187/1/213 195/1/213 197/1/213
f 61/1/214 31/1/214 60/1/214
f 251/1/215 255/1/215 254/1/215
f 25/1/216 23/1/216 26/1/216
f 379/1/217 201/1/217 200/1/217
f 232/1/218 233/1/218 238/1/218
f 357/1/219 333/1/219 351/1/219
f 353/1/220 320/1/220 352/1/220
f 250/1/221 249/1/221 260/1/221
f 240/1/222 245/1/222 244/1/222
f 235/1/223 279/1/223 236/1/223
f 212/1/224 82/1/224 83/1/224
f 106/1/225 121/1/225 120/1/225
f 61/1/226 67/1/226 66/1/226
f 259/1/227 260/1/227 249/1/227
f 244/1/228 258/1/228 257/1/228
f 238/1/229 229/1/229 232/1/229
f 154/1/230 148/1/230 151/1/230
f 185/1/231 369/1/231 368/1/231
f 94/1/232 40/1/232 41/1/232
f 59/1/233 73/1/233 75/1/233
f 276/1/234 260/1/234 275/1/234
f 50/1/235 31/1/235 46/1/235
f 146/1/236 170/1/236 164/1/236
f 254/1/237 279/1/237 253/1/237
f 255/1/238 279/1/238 254/1/238
f 380/1/239 226/1/239 381/1/239
f 258/1/240 280/1/240 257/1/240
f 280/1/241 282/1/241 257/1/241
f 374/1/242 283/1/242 284/1/242
f 319/1/243 321/1/243 320/1/243
f 65/1/244 100/1/244 98/1/244
f 285/1/245 258/1/245 278/1/245
f 195/1/246 78/1/246 192/1/246
f 258/1/247 274/1/247 278/1/247
f 291/1/248 246/1/248 290/1/248
f 103/1/249 74/1/249 89/1/249
f 22/1/250 42/1/250 29/1/250
f 249/1/251 247/1/251 248/1/251
f 167/1/252 163/1/252 168/1/252
f 365/1/253 285/1/253 364/1/253
f 360/1/254 367/1/254 361/1/254
f 35/1/255 38/1/255 37/1/255
f 234/1/256 51/1/256 256/1/256
f 90/1/257 74/1/257 45/1/257
f 293/1/258 245/1/258 247/1/258
f 299/1/259 298/1/259 276/1/259
f 34/1/260 35/1/260 33/1/260
f 320/1/261 359/1/261 352/1/261
f 266/1/262 97/1/262 95/1/262
f 181/1/263 185/1/263 184/1/263
f 299/1/264 275/1/264 301/1/264
f 297/1/265 276/1/265 298/1/265
f 140/1/266 141/1/266 144/1/266
f 307/1/267 306/1/267 308/1/267
f 175/1/268 165/1/268 166/1/268
f 261/1/269 275/1/269 260/1/269
f 280/1/270 375/1/270 373/1/270
f 270/1/271 268/1/271 307/1/271
f 299/1/272 306/1/272 294/1/272
f 15/1/273 199/1/273 202/1/273
f 144/1/274 148/1/274 140/1/274
f 118/1/275 112/1/275 119/1/275
f 181/1/276 173/1/276 174/1/276
f 297/1/277 300/1/277 309/1/277
f 181/1/278 175/1/278 182/1/278
f 310/1/279 304/1/279 303/1/279
f 269/1/280 263/1/280 268/1/280
f 256/1/281 53/1/281 252/1/281
f 273/1/282 307/1/282 308/1/282
f 373/1/283 286/1/283 283/1/283
f 32/1/284 21/1/284 33/1/284
f 277/1/285 301/1/285 275/1/285
f 131/1/286 137/1/286 132/1/286
f 131/1/287 135/1/287 136/1/287
f 314/1/288 317/1/288 322/1/288
f 371/1/289 363/1/289 369/1/289
f 330/1/290 334/1/290 332/1/290
f 289/1/291 329/1/291 290/1/291
f 291/1/292 332/1/292 292/1/292
f 334/1/293 292/1/293 332/1/293
f 68/1/294 70/1/294 71/1/294
f 168/1/295 164/1/295 170/1/295
f 327/1/296 336/1/296 335/1/296
f 343/1/297 344/1/297 342/1/297
f 62/1/298 97/1/298 96/1/298
f 178/1/299 86/1/299 187/1/299
f 328/1/300 327/1/300 331/1/300
f 152/1/301 149/1/301 148/1/301
f 161/1/302 160/1/302 162/1/302
f 339/1/303 344/1/303 341/1/303
f 394/1/304 400/1/304 401/1/304
f 70/1/305 60/1/305 57/1/305
f 341/1/306 347/1/306 346/1/306
f 240/1/307 230/1/307 231/1/307
f 57/1/308 58/1/308 59/1/308
f 352/1/309 362/1/309 353/1/309
f 238/1/310 235/1/310 237/1/310
f 333/1/311 356/1/311 292/1/311
f 317/1/312 318/1/312 322/1/312
f 87/1/313 192/1/313 82/1/313
f 190/1/314 201/1/314 191/1/314
f 17/1/315 229/1/315 19/1/315
f 313/1/316 360/1/316 312/1/316
f 201/1/317 372/1/317 191/1/317
f 359/1/318 321/1/318 358/1/318
f 305/1/319 317/1/319 316/1/319
f 318/1/320 358/1/320 321/1/320
f 278/1/321 364/1/321 285/1/321
f 361/1/322 352/1/322 360/1/322
f 307/1/323 266/1/323 267/1/323
f 346/1/324 349/1/324 350/1/324
f 292/1/325 356/1/325 364/1/325
f 363/1/326 353/1/326 362/1/326
f 356/1/327 357/1/327 364/1/327
f 357/1/328 355/1/328 364/1/328
f 354/1/329 364/1/329 355/1/329
f 19/1/330 21/1/330 20/1/330
f 177/1/331 176/1/331 167/1/331
f 132/1/332 134/1/332 131/1/332
f 387/1/333 218/1/333 388/1/333
f 55/1/334 80/1/334 54/1/334
f 111/1/335 117/1/335 103/1/335
f 295/1/336 299/1/336 294/1/336
f 243/1/337 55/1/337 38/1/337
f 309/1/338 122/1/338 310/1/338
f 194/1/339 81/1/339 193/1/339
f 98/1/340 64/1/340 65/1/340
f 325/1/341 288/1/341 315/1/341
f 234/1/342 17/1/342 25/1/342
f 289/1/343 276/1/343 287/1/343
f 207/1/344 10/1/344 196/1/344
f 390/1/345 284/1/345 283/1/345
f 281/1/346 373/1/346 374/1/346
f 189/1/347 190/1/347 191/1/347
f 286/1/348 375/1/348 376/1/348
f 375/1/349 377/1/349 376/1/349
f 311/1/350 122/1/350 123/1/350
f 134/1/351 165/1/351 172/1/351
f 378/1/352 370/1/352 372/1/352
f 378/1/353 379/1/353 377/1/353
f 213/1/354 4/1/354 212/1/354
f 81/1/355 374/1/355 193/1/355
f 387/1/356 220/1/356 219/1/356
f 196/1/357 11/1/357 206/1/357
f 204/1/358 14/1/358 203/1/358
f 206/1/359 12/1/359 205/1/359
f 389/1/360 218/1/360 217/1/360
f 183/1/361 185/1/361 182/1/361
f 379/1/362 227/1/362 380/1/362
f 203/1/363 15/1/363 202/1/363
f 390/1/364 215/1/364 391/1/364
f 200/1/365 198/1/365 199/1/365
f 126/1/366 179/1/366 180/1/366
f 126/1/367 366/1/367 313/1/367
f 12/1/368 204/1/368 205/1/368
f 384/1/369 224/1/369 223/1/369
f 385/1/370 286/1/370 376/1/370
f 286/1/371 387/1/371 283/1/371
f 162/1/372 159/1/372 163/1/372
f 286/1/373 386/1/373 387/1/373
f 389/1/374 283/1/374 388/1/374
f 388/1/375 283/1/375 387/1/375
f 386/1/376 286/1/376 385/1/376
f 380/1/377 377/1/377 379/1/377
f 380/1/378 381/1/378 377/1/378
f 384/1/379 377/1/379 383/1/379
f 376/1/380 377/1/380 384/1/380
f 377/1/381 382/1/381 383/1/381
f 377/1/382 381/1/382 382/1/382
f 395/1/383 71/1/383 70/1/383
f 61/1/384 64/1/384 63/1/384
f 59/1/385 75/1/385 393/1/385
f 49/1/386 62/1/386 47/1/386
f 70/1/387 57/1/387 392/1/387
f 397/1/388 400/1/388 398/1/388
f 397/1/389 398/1/389 392/1/389
f 395/1/390 399/1/390 400/1/390
f 394/1/391 396/1/391 393/1/391
f 397/1/392 396/1/392 401/1/392
f 400/1/393 399/1/393 398/1/393
f 127/1/394 150/1/394 135/1/394
f 261/1/395 259/1/395 403/1/395
f 272/1/396 402/1/396 259/1/396
f 402/1/397 403/1/397 259/1/397
f 271/1/398 235/1/398 236/1/398
f 324/1/399 318/1/399 319/1/399
f 271/1/400 239/1/400 248/1/400
f 32/1/401 54/1/401 39/1/401
f 88/1/402 141/1/402 139/1/402
f 94/1/403 41/1/403 91/1/403
f 69/1/404 31/1/404 28/1/404
f 30/1/405 23/1/405 20/1/405
f 74/1/406 73/1/406 58/1/406
f 78/1/407 54/1/407 80/1/407
f 194/1/408 83/1/408 82/1/408
f 56/1/409 78/1/409 86/1/409
f 263/1/410 239/1/410 251/1/410
f 41/1/411 72/1/411 92/1/411
f 73/1/412 74/1/412 105/1/412
f 68/1/413 71/1/413 115/1/413
f 115/1/414 71/1/414 116/1/414
f 114/1/415 109/1/415 105/1/415
f 103/1/416 117/1/416 106/1/416
f 113/1/417 89/1/417 127/1/417
f 128/1/418 127/1/418 89/1/418
f 143/1/419 145/1/419 147/1/419
f 90/1/420 91/1/420 142/1/420
f 145/1/421 91/1/421 92/1/421
f 147/1/422 145/1/422 93/1/422
f 150/1/423 149/1/423 153/1/423
f 157/1/424 155/1/424 152/1/424
f 158/1/425 151/1/425 144/1/425
f 156/1/426 155/1/426 157/1/426
f 133/1/427 132/1/427 156/1/427
f 113/1/428 129/1/428 130/1/428
f 131/1/429 134/1/429 171/1/429
f 76/1/430 86/1/430 177/1/430
f 176/1/431 175/1/431 166/1/431
f 79/1/432 194/1/432 192/1/432
f 83/1/433 213/1/433 212/1/433
f 290/1/434 246/1/434 293/1/434
f 273/1/435 402/1/435 272/1/435
f 238/1/436 231/1/436 229/1/436
f 276/1/437 250/1/437 260/1/437
f 280/1/438 281/1/438 282/1/438
f 374/1/439 373/1/439 283/1/439
f 285/1/440 280/1/440 258/1/440
f 276/1/441 288/1/441 287/1/441
f 291/1/442 274/1/442 246/1/442
f 274/1/443 291/1/443 292/1/443
f 215/1/444 214/1/444 391/1/444
f 299/1/445 276/1/445 275/1/445
f 403/1/446 277/1/446 261/1/446
f 267/1/447 294/1/447 306/1/447
f 299/1/448 301/1/448 306/1/448
f 305/1/449 316/1/449 314/1/449
f 149/1/450 139/1/450 140/1/450
f 328/1/451 289/1/451 326/1/451
f 365/1/452 372/1/452 370/1/452
f 289/1/453 328/1/453 329/1/453
f 291/1/454 290/1/454 332/1/454
f 334/1/455 333/1/455 292/1/455
f 323/1/456 324/1/456 340/1/456
f 340/1/457 336/1/457 337/1/457
f 339/1/458 342/1/458 344/1/458
f 305/1/459 358/1/459 317/1/459
f 363/1/460 354/1/460 353/1/460
f 281/1/461 280/1/461 373/1/461
f 378/1/462 377/1/462 370/1/462
f 395/1/463 116/1/463 71/1/463
f 99/1/464 107/1/464 100/1/464
f 70/1/465 398/1/465 399/1/465
f 302/1/466 306/1/466 301/1/466
f 253/1/467 252/1/467 254/1/467
f 187/1/468 198/1/468 190/1/468
f 42/1/469 69/1/469 29/1/469
f 69/1/470 27/1/470 29/1/470
f 32/1/471 35/1/471 37/1/471
f 242/1/472 240/1/472 243/1/472
f 259/1/473 249/1/473 248/1/473
f 272/1/474 269/1/474 270/1/474
f 255/1/475 251/1/475 239/1/475
f 110/1/476 109/1/476 114/1/476
f 298/1/477 295/1/477 296/1/477
f 340/1/478 324/1/478 342/1/478
f 393/1/479 396/1/479 397/1/479
f 318/1/480 323/1/480 322/1/480
f 336/1/481 327/1/481 326/1/481
f 159/1/482 160/1/482 154/1/482
f 342/1/483 324/1/483 319/1/483
f 346/1/484 338/1/484 341/1/484
f 247/1/485 237/1/485 271/1/485
f 23/1/486 30/1/486 24/1/486
f 232/1/487 234/1/487 233/1/487
f 283/1/488 389/1/488 390/1/488
f 261/1/489 277/1/489 275/1/489
f 273/1/490 270/1/490 307/1/490
f 102/1/491 101/1/491 104/1/491
f 139/1/492 138/1/492 88/1/492
f 397/1/493 401/1/493 400/1/493
f 395/1/494 70/1/494 399/1/494
f 394/1/495 401/1/495 396/1/495
f 271/1/496 237/1/496 235/1/496
f 403/1/497 302/1/497 277/1/497
f 149/1/498 138/1/498 139/1/498
f 70/1/499 392/1/499 398/1/499
f 302/1/500 308/1/500 306/1/500
f 253/1/501 256/1/501 252/1/501
f 187/1/502 197/1/502 198/1/502
f 42/1/503 43/1/503 69/1/503
f 69/1/504 28/1/504 27/1/504
f 32/1/505 33/1/505 35/1/505
f 242/1/506 241/1/506 240/1/506
f 11/1/507 404/1/507 12/1/507
f 217/1/508 404/1/508 216/1/508
f 218/1/509 404/1/509 217/1/509
f 12/1/510 404/1/510 13/1/510
f 219/1/511 404/1/511 218/1/511
f 13/1/512 404/1/512 14/1/512
f 220/1/513 404/1/513 219/1/513
f 14/1/514 404/1/514 15/1/514
f 221/1/515 404/1/515 220/1/515
f 15/1/516 404/1/516 16/1/516
f 222/1/517 404/1/517 221/1/517
f 2/1/518 404/1/518 3/1/518
f 1/1/519 404/1/519 228/1/519
f 214/1/520 404/1/520 2/1/520
f 223/1/521 404/1/521 222/1/521
f 3/1/522 404/1/522 4/1/522
f 224/1/523 404/1/523 223/1/523
f 4/1/524 404/1/524 5/1/524
f 215/1/525 404/1/525 2/1/525
f 5/1/526 404/1/526 6/1/526
f 225/1/527 404/1/527 224/1/527
f 6/1/528 404/1/528 7/1/528
f 226/1/529 404/1/529 225/1/529
f 227/1/530 404/1/530 226/1/530
f 7/1/531 404/1/531 8/1/531
f 228/1/532 404/1/532 227/1/532
f 8/1/533 404/1/533 9/1/533
f 9/1/534 404/1/534 10/1/534
f 16/1/535 404/1/535 1/1/535
f 216/1/536 404/1/536 215/1/536
f 84/1/537 404/1/537 214/1/537
f 10/1/538 404/1/538 11/1/538
s 1
f 405/2/539 409/3/539 406/4/539
f 406/4/540 409/3/540 407/5/540
f 405/6/541 410/7/541 408/8/541
f 407/5/542 409/3/542 408/9/542
f 408/9/543 409/3/543 405/2/543
f 407/10/544 410/7/544 406/11/544
f 408/8/545 410/7/545 407/10/545
f 406/11/546 410/7/546 405/6/546
f 411/2/547 415/3/547 412/4/547
f 412/4/548 415/3/548 413/5/548
f 411/6/549 416/7/549 414/8/549
f 413/5/550 415/3/550 414/9/550
f 414/9/551 415/3/551 411/2/551
f 413/10/552 416/7/552 412/11/552
f 414/8/553 416/7/553 413/10/553
f 412/11/554 416/7/554 411/6/554
f 417/2/555 421/3/555 418/4/555
f 418/4/556 421/3/556 419/5/556
f 417/6/557 422/7/557 420/8/557
f 419/5/558 421/3/558 420/9/558
f 420/9/559 421/3/559 417/2/559
f 419/10/560 422/7/560 418/11/560
f 420/8/561 422/7/561 419/10/561
f 418/11/562 422/7/562 417/6/562
f 423/2/563 427/3/563 424/4/563
f 424/4/564 427/3/564 425/5/564
f 423/6/565 428/7/565 426/8/565
f 425/5/566 427/3/566 426/9/566
f 426/9/567 427/3/567 423/2/567
f 425/10/568 428/7/568 424/11/568
f 426/8/569 428/7/569 425/10/569
f 424/11/570 428/7/570 423/6/570
f 429/2/571 433/3/571 430/4/571
f 430/4/572 433/3/572 431/5/572
f 429/6/573 434/7/573 432/8/573
f 431/5/574 433/3/574 432/9/574
f 432/9/575 433/3/575 429/2/575
f 431/10/576 434/7/576 430/11/576
f 432/8/577 434/7/577 431/10/577
f 430/11/578 434/7/578 429/6/578
f 435/2/579 439/3/579 436/4/579
f 436/4/580 439/3/580 437/5/580
f 435/6/581 440/7/581 438/8/581
f 437/5/582 439/3/582 438/9/582
f 438/9/583 439/3/583 435/2/583
f 437/10/584 440/7/584 436/11/584
f 438/8/585 440/7/585 437/10/585
f 436/11/586 440/7/586 435/6/586
f 441/2/587 445/3/587 442/4/587
f 442/4/588 445/3/588 443/5/588
f 441/6/589 446/7/589 444/8/589
f 443/5/590 445/3/590 444/9/590
f 444/9/591 445/3/591 441/2/591
f 443/10/592 446/7/592 442/11/592
f 444/8/593 446/7/593 443/10/593
f 442/11/594 446/7/594 441/6/594
f 447/2/595 451/3/595 448/4/595
f 448/4/596 451/3/596 449/5/596
f 447/6/597 452/7/597 450/8/597
f 449/5/598 451/3/598 450/9/598
f 450/9/599 451/3/599 447/2/599
f 449/10/600 452/7/600 448/11/600
f 450/8/601 452/7/601 449/10/601
f 448/11/602 452/7/602 447/6/602
f 453/2/603 457/3/603 454/4/603
f 454/4/604 457/3/604 455/5/604
f 453/6/605 458/7/605 456/8/605
f 455/5/606 457/3/606 456/9/606
f 456/9/607 457/3/607 453/2/607
f 455/10/608 458/7/608 454/11/608
f 456/8/609 458/7/609 455/10/609
f 454/11/610 458/7/610 453/6/610
f 459/2/611 463/3/611 460/4/611
f 460/4/612 463/3/612 461/5/612
f 459/6/613 464/7/613 462/8/613
f 461/5/614 463/3/614 462/9/614
f 462/9/615 463/3/615 459/2/615
f 461/10/616 464/7/616 460/11/616
f 462/8/617 464/7/617 461/10/617
f 460/11/618 464/7/618 459/6/618
f 465/2/541 469/3/541 466/4/541
f 466/4/545 469/3/545 467/5/545
f 465/6/539 470/7/539 468/8/539
f 467/5/544 469/3/544 468/9/544
f 468/9/546 469/3/546 465/2/546
f 467/10/542 470/7/542 466/11/542
f 468/8/540 470/7/540 467/10/540
f 466/11/543 470/7/543 465/6/543
f 471/2/549 475/3/549 472/4/549
f 472/4/553 475/3/553 473/5/553
f 471/6/547 476/7/547 474/8/547
f 473/5/552 475/3/552 474/9/552
f 474/9/554 475/3/554 471/2/554
f 473/10/550 476/7/550 472/11/550
f 474/8/548 476/7/548 473/10/548
f 472/11/551 476/7/551 471/6/551
f 477/2/557 481/3/557 478/4/557
f 478/4/561 481/3/561 479/5/561
f 477/6/555 482/7/555 480/8/555
f 479/5/560 481/3/560 480/9/560
f 480/9/619 481/3/619 477/2/619
f 479/10/558 482/7/558 478/11/558
f 480/8/556 482/7/556 479/10/556
f 478/11/559 482/7/559 477/6/559
f 483/2/565 487/3/565 484/4/565
f 484/4/569 487/3/569 485/5/569
f 483/6/563 488/7/563 486/8/563
f 485/5/568 487/3/568 486/9/568
f 486/9/570 487/3/570 483/2/570
f 485/10/566 488/7/566 484/11/566
f 486/8/564 488/7/564 485/10/564
f 484/11/567 488/7/567 483/6/567
f 489/2/573 493/3/573 490/4/573
f 490/4/577 493/3/577 491/5/577
f 489/6/571 494/7/571 492/8/571
f 491/5/576 493/3/576 492/9/576
f 492/9/578 493/3/578 489/2/578
f 491/10/574 494/7/574 490/11/574
f 492/8/572 494/7/572 491/10/572
f 490/11/575 494/7/575 489/6/575
f 495/2/581 499/3/581 496/4/581
f 496/4/585 499/3/585 497/5/585
f 495/6/579 500/7/579 498/8/579
f 497/5/584 499/3/584 498/9/584
f 498/9/586 499/3/586 495/2/586
f 497/10/582 500/7/582 496/11/582
f 498/8/580 500/7/580 497/10/580
f 496/11/583 500/7/583 495/6/583
f 501/2/589 505/3/589 502/4/589
f 502/4/593 505/3/593 503/5/593
f 501/6/587 506/7/587 504/8/587
f 503/5/592 505/3/592 504/9/592
f 504/9/594 505/3/594 501/2/594
f 503/10/590 506/7/590 502/11/590
f 504/8/588 506/7/588 503/10/588
f 502/11/591 506/7/591 501/6/591
f 507/2/597 511/3/597 508/4/597
f 508/4/601 511/3/601 509/5/601
f 507/6/595 512/7/595 510/8/595
f 509/5/600 511/3/600 510/9/600
f 510/9/602 511/3/602 507/2/602
f 509/10/598 512/7/598 508/11/598
f 510/8/596 512/7/596 509/10/596
f 508/11/599 512/7/599 507/6/599
f 513/2/605 517/3/605 514/4/605
f 514/4/609 517/3/609 515/5/609
f 513/6/603 518/7/603 516/8/603
f 515/5/608 517/3/608 516/9/608
f 516/9/620 517/3/620 513/2/620
f 515/10/621 518/7/621 514/11/621
f 516/8/604 518/7/604 515/10/604
f 514/11/607 518/7/607 513/6/607
f 519/2/613 523/3/613 520/4/613
f 520/4/617 523/3/617 521/5/617
f 519/6/611 524/7/611 522/8/611
f 521/5/616 523/3/616 522/9/616
f 522/9/622 523/3/622 519/2/622
f 521/10/614 524/7/614 520/11/614
f 522/8/612 524/7/612 521/10/612
f 520/11/615 524/7/615 519/6/615
s 0
f 264/1/623 251/1/623 254/1/623
f 56/1/624 76/1/624 72/1/624
f 186/1/625 189/1/625 371/1/625
f 305/1/626 303/1/626 304/1/626
f 326/1/627 289/1/627 287/1/627
f 135/1/628 150/1/628 153/1/628
f 242/1/629 243/1/629 38/1/629
f 295/1/630 107/1/630 108/1/630
f 96/1/631 53/1/631 47/1/631
f 394/1/632 393/1/632 75/1/632
f 233/1/633 234/1/633 256/1/633
f 350/1/634 349/1/634 354/1/634
f 81/1/635 79/1/635 80/1/635
f 347/1/636 343/1/636 348/1/636
f 331/1/637 327/1/637 335/1/637
f 266/1/638 95/1/638 98/1/638
f 300/1/639 120/1/639 121/1/639
f 72/1/640 41/1/640 40/1/640
f 55/1/641 257/1/641 282/1/641
f 315/1/642 337/1/642 336/1/642
f 77/1/643 48/1/643 24/1/643
f 52/1/644 47/1/644 53/1/644
f 171/1/645 172/1/645 124/1/645
f 351/1/646 350/1/646 355/1/646
f 119/1/647 123/1/647 122/1/647
f 112/1/648 124/1/648 125/1/648
f 164/1/649 158/1/649 147/1/649
f 104/1/650 103/1/650 106/1/650
f 302/1/651 403/1/651 402/1/651
f 46/1/652 61/1/652 63/1/652
f 180/1/653 184/1/653 367/1/653
f 166/1/654 165/1/654 133/1/654
f 81/1/655 85/1/655 282/1/655
f 90/1/656 45/1/656 94/1/656
f 313/1/657 312/1/657 304/1/657
f 240/1/658 244/1/658 257/1/658
f 144/1/659 141/1/659 142/1/659
f 126/1/660 313/1/660 311/1/660
f 37/1/661 38/1/661 55/1/661
f 97/1/662 63/1/662 64/1/662
f 303/1/663 305/1/663 288/1/663
f 164/1/664 163/1/664 159/1/664
f 94/1/665 45/1/665 44/1/665
f 351/1/666 345/1/666 346/1/666
f 200/1/667 1/1/667 228/1/667
f 251/1/668 264/1/668 265/1/668
f 376/1/669 222/1/669 221/1/669
f 209/1/670 7/1/670 8/1/670
f 320/1/671 348/1/671 343/1/671
f 293/1/672 247/1/672 249/1/672
f 130/1/673 129/1/673 127/1/673
f 248/1/674 239/1/674 262/1/674
f 117/1/675 118/1/675 122/1/675
f 128/1/676 138/1/676 149/1/676
f 53/1/677 96/1/677 264/1/677
f 34/1/678 241/1/678 242/1/678
f 334/1/679 345/1/679 351/1/679
f 274/1/680 244/1/680 245/1/680
f 362/1/681 361/1/681 367/1/681
f 76/1/682 177/1/682 93/1/682
f 296/1/683 108/1/683 120/1/683
f 278/1/684 274/1/684 292/1/684
f 115/1/685 116/1/685 114/1/685
f 293/1/686 250/1/686 289/1/686
f 68/1/687 115/1/687 66/1/687
f 236/1/688 279/1/688 255/1/688
f 314/1/689 322/1/689 337/1/689
f 272/1/690 259/1/690 262/1/690
f 155/1/691 137/1/691 153/1/691
f 32/1/692 39/1/692 40/1/692
f 89/1/693 113/1/693 111/1/693
f 57/1/694 59/1/694 393/1/694
f 24/1/695 48/1/695 52/1/695
f 370/1/696 377/1/696 375/1/696
f 19/1/697 20/1/697 23/1/697
f 233/1/698 253/1/698 279/1/698
f 115/1/699 65/1/699 64/1/699
f 132/1/700 137/1/700 155/1/700
f 345/1/701 331/1/701 338/1/701
f 329/1/702 330/1/702 332/1/702
f 173/1/703 124/1/703 172/1/703
f 335/1/704 339/1/704 341/1/704
f 100/1/705 294/1/705 267/1/705
f 120/1/706 108/1/706 102/1/706
f 166/1/707 161/1/707 162/1/707
f 176/1/708 178/1/708 188/1/708
f 359/1/709 312/1/709 360/1/709
f 125/1/710 124/1/710 173/1/710
f 231/1/711 237/1/711 247/1/711
f 142/1/712 91/1/712 145/1/712
f 190/1/713 188/1/713 178/1/713
f 75/1/714 73/1/714 109/1/714
f 362/1/715 368/1/715 369/1/715
f 331/1/716 330/1/716 329/1/716
f 385/1/717 221/1/717 220/1/717
f 84/1/718 214/1/718 213/1/718
f 263/1/719 265/1/719 266/1/719
f 26/1/720 52/1/720 51/1/720
f 119/1/721 125/1/721 126/1/721
f 212/1/722 4/1/722 5/1/722
f 105/1/723 104/1/723 101/1/723
f 83/1/724 194/1/724 193/1/724
f 43/1/725 60/1/725 31/1/725
f 358/1/726 304/1/726 312/1/726
f 186/1/727 183/1/727 188/1/727
f 30/1/728 29/1/728 27/1/728
f 381/1/729 226/1/729 225/1/729
f 181/1/730 184/1/730 180/1/730
f 19/1/731 229/1/731 230/1/731
f 340/1/732 337/1/732 322/1/732
f 193/1/733 374/1/733 284/1/733
f 34/1/734 33/1/734 21/1/734
f 16/1/735 1/1/735 200/1/735
f 395/1/736 394/1/736 110/1/736
f 3/1/737 213/1/737 214/1/737
f 18/1/738 230/1/738 241/1/738
f 184/1/739 185/1/739 368/1/739
f 210/1/740 6/1/740 7/1/740
f 390/1/741 389/1/741 217/1/741
f 294/1/742 100/1/742 107/1/742
f 383/1/743 382/1/743 225/1/743
f 189/1/744 191/1/744 372/1/744
f 8/1/745 9/1/745 207/1/745
f 376/1/746 384/1/746 223/1/746
f 5/1/747 6/1/747 210/1/747
f 101/1/748 102/1/748 108/1/748
f 183/1/749 182/1/749 175/1/749
f 345/1/750 334/1/750 330/1/750
f 300/1/751 297/1/751 298/1/751
f 158/1/752 144/1/752 143/1/752
f 113/1/753 171/1/753 112/1/753
f 57/1/754 60/1/754 43/1/754
f 315/1/755 288/1/755 305/1/755
f 303/1/756 297/1/756 309/1/756
f 264/1/757 96/1/757 97/1/757
f 284/1/758 391/1/758 214/1/758
f 339/1/759 335/1/759 336/1/759
f 138/1/760 128/1/760 89/1/760
f 364/1/761 354/1/761 363/1/761
f 349/1/762 348/1/762 353/1/762
f 187/1/763 86/1/763 195/1/763
f 61/1/764 46/1/764 31/1/764
f 25/1/765 17/1/765 23/1/765
f 379/1/766 378/1/766 201/1/766
f 357/1/767 356/1/767 333/1/767
f 353/1/768 348/1/768 320/1/768
f 240/1/769 231/1/769 245/1/769
f 212/1/770 211/1/770 82/1/770
f 106/1/771 117/1/771 121/1/771
f 61/1/772 60/1/772 67/1/772
f 259/1/773 261/1/773 260/1/773
f 154/1/774 152/1/774 148/1/774
f 185/1/775 186/1/775 369/1/775
f 94/1/776 42/1/776 40/1/776
f 59/1/777 58/1/777 73/1/777
f 50/1/778 28/1/778 31/1/778
f 146/1/779 169/1/779 170/1/779
f 380/1/780 227/1/780 226/1/780
f 319/1/781 318/1/781 321/1/781
f 65/1/782 99/1/782 100/1/782
f 195/1/783 86/1/783 78/1/783
f 258/1/784 244/1/784 274/1/784
f 103/1/785 104/1/785 74/1/785
f 22/1/786 40/1/786 42/1/786
f 167/1/787 162/1/787 163/1/787
f 365/1/788 370/1/788 285/1/788
f 360/1/789 366/1/789 367/1/789
f 35/1/790 36/1/790 38/1/790
f 234/1/791 25/1/791 51/1/791
f 90/1/792 88/1/792 74/1/792
f 293/1/793 246/1/793 245/1/793
f 34/1/794 36/1/794 35/1/794
f 320/1/795 321/1/795 359/1/795
f 266/1/796 265/1/796 97/1/796
f 181/1/797 182/1/797 185/1/797
f 297/1/798 288/1/798 276/1/798
f 140/1/799 139/1/799 141/1/799
f 307/1/800 267/1/800 306/1/800
f 175/1/801 174/1/801 165/1/801
f 280/1/802 285/1/802 375/1/802
f 270/1/803 269/1/803 268/1/803
f 15/1/804 16/1/804 199/1/804
f 144/1/805 151/1/805 148/1/805
f 118/1/806 111/1/806 112/1/806
f 181/1/807 179/1/807 173/1/807
f 181/1/808 174/1/808 175/1/808
f 310/1/809 311/1/809 304/1/809
f 269/1/810 262/1/810 263/1/810
f 256/1/811 51/1/811 53/1/811
f 373/1/812 375/1/812 286/1/812
f 32/1/813 22/1/813 21/1/813
f 277/1/814 302/1/814 301/1/814
f 131/1/815 136/1/815 137/1/815
f 131/1/816 130/1/816 135/1/816
f 314/1/817 316/1/817 317/1/817
f 371/1/818 365/1/818 363/1/818
f 68/1/819 67/1/819 70/1/819
f 168/1/820 163/1/820 164/1/820
f 343/1/821 347/1/821 344/1/821
f 62/1/822 63/1/822 97/1/822
f 178/1/823 177/1/823 86/1/823
f 328/1/824 326/1/824 327/1/824
f 152/1/825 153/1/825 149/1/825
f 161/1/826 156/1/826 160/1/826
f 394/1/827 395/1/827 400/1/827
f 70/1/828 67/1/828 60/1/828
f 341/1/829 344/1/829 347/1/829
f 240/1/830 241/1/830 230/1/830
f 57/1/831 44/1/831 58/1/831
f 352/1/832 361/1/832 362/1/832
f 238/1/833 233/1/833 235/1/833
f 317/1/834 358/1/834 318/1/834
f 87/1/835 195/1/835 192/1/835
f 190/1/836 198/1/836 201/1/836
f 17/1/837 232/1/837 229/1/837
f 313/1/838 366/1/838 360/1/838
f 201/1/839 378/1/839 372/1/839
f 307/1/840 268/1/840 266/1/840
f 346/1/841 347/1/841 349/1/841
f 19/1/842 18/1/842 21/1/842
f 177/1/843 178/1/843 176/1/843
f 132/1/844 133/1/844 134/1/844
f 387/1/845 219/1/845 218/1/845
f 55/1/846 85/1/846 80/1/846
f 111/1/847 118/1/847 117/1/847
f 295/1/848 298/1/848 299/1/848
f 243/1/849 257/1/849 55/1/849
f 309/1/850 121/1/850 122/1/850
f 194/1/851 79/1/851 81/1/851
f 98/1/852 95/1/852 64/1/852
f 325/1/853 287/1/853 288/1/853
f 234/1/854 232/1/854 17/1/854
f 289/1/855 250/1/855 276/1/855
f 207/1/856 9/1/856 10/1/856
f 390/1/857 391/1/857 284/1/857
f 189/1/858 188/1/858 190/1/858
f 311/1/859 310/1/859 122/1/859
f 134/1/860 133/1/860 165/1/860
f 213/1/861 3/1/861 4/1/861
f 81/1/862 281/1/862 374/1/862
f 387/1/863 386/1/863 220/1/863
f 196/1/864 10/1/864 11/1/864
f 204/1/865 13/1/865 14/1/865
f 206/1/866 11/1/866 12/1/866
f 389/1/867 388/1/867 218/1/867
f 183/1/868 186/1/868 185/1/868
f 379/1/869 228/1/869 227/1/869
f 203/1/870 14/1/870 15/1/870
f 390/1/871 216/1/871 215/1/871
f 200/1/872 201/1/872 198/1/872
f 126/1/873 125/1/873 179/1/873
f 126/1/874 180/1/874 366/1/874
f 12/1/875 13/1/875 204/1/875
f 384/1/876 383/1/876 224/1/876
f 162/1/877 160/1/877 159/1/877
f 61/1/384 66/1/384 64/1/384
f 49/1/878 46/1/878 62/1/878
f 127/1/879 128/1/879 150/1/879
f 324/1/880 323/1/880 318/1/880
f 271/1/881 236/1/881 239/1/881
f 32/1/882 37/1/882 54/1/882
f 88/1/883 90/1/883 141/1/883
f 263/1/884 262/1/884 239/1/884
f 158/1/885 159/1/885 151/1/885
f 273/1/886 308/1/886 402/1/886
f 215/1/887 2/1/887 214/1/887
f 365/1/888 371/1/888 372/1/888
f 99/1/889 101/1/889 107/1/889
o BézierCircle
v 0.000000 0.000000 -2.000000
v 0.000000 -0.271321 -1.981736
v 0.000000 -0.531568 -1.928536
v 0.000000 -0.778356 -1.842785
v 0.000000 -1.009296 -1.726871
v 0.000000 -1.222005 -1.583178
v 0.000000 -1.414094 -1.414094
v 0.000000 -1.583178 -1.222005
v 0.000000 -1.726870 -1.009296
v 0.000000 -1.842785 -0.778356
v 0.000000 -1.928536 -0.531568
v 0.000000 -1.981736 -0.271321
v 0.000000 -2.000000 0.000000
v 0.000000 -1.981736 0.271321
v 0.000000 -1.928536 0.531568
v 0.000000 -1.842785 0.778356
v 0.000000 -1.726871 1.009296
v 0.000000 -1.583178 1.222005
v 0.000000 -1.414094 1.414094
v 0.000000 -1.222005 1.583178
v 0.000000 -1.009296 1.726870
v 0.000000 -0.778356 1.842785
v 0.000000 -0.531568 1.928536
v 0.000000 -0.271321 1.981736
v 0.000000 0.000000 2.000000
v 0.000000 0.271321 1.981736
v 0.000000 0.531568 1.928536
v 0.000000 0.778356 1.842785
v 0.000000 1.009296 1.726871
v 0.000000 1.222005 1.583178
v 0.000000 1.414094 1.414094
v 0.000000 1.583178 1.222005
v 0.000000 1.726870 1.009296
v 0.000000 1.842785 0.778356
v 0.000000 1.928536 0.531568
v 0.000000 1.981736 0.271321
v 0.000000 2.000000 0.000000
v 0.000000 1.981736 -0.271321
v 0.000000 1.928536 -0.531568
v 0.000000 1.842785 -0.778356
v 0.000000 1.726871 -1.009296
v 0.000000 1.583178 -1.222005
v 0.000000 1.414094 -1.414094
v 0.000000 1.222005 -1.583178
v 0.000000 1.009296 -1.726870
v 0.000000 0.778356 -1.842785
v 0.000000 0.531568 -1.928536
v 0.000000 0.271321 -1.981736
l 525 526
l 526 527
l 527 528
l 528 529
l 529 530
l 530 531
l 531 532
l 532 533
l 533 534
l 534 535
l 535 536
l 536 537
l 537 538
l 538 539
l 539 540
l 540 541
l 541 542
l 542 543
l 543 544
l 544 545
l 545 546
l 546 547
l 547 548
l 548 549
l 549 550
l 550 551
l 551 552
l 552 553
l 553 554
l 554 555
l 555 556
l 556 557
l 557 558
l 558 559
l 559 560
l 560 561
l 561 562
l 562 563
l 563 564
l 564 565
l 565 566
l 566 567
l 567 568
l 568 569
l 569 570
l 570 571
l 571 572
l 572 525
