# Blender 5.2.2 LTS
# www.blender.org
mtllib ghost_cloak.mtl
o GHOST_CLOAK
v -0.101895 -2.647122 -0.379577
v -0.252488 -2.654254 -0.265615
v -0.309677 -2.660131 -0.141400
v -0.332184 -2.663300 -0.070666
v -0.289269 -2.665531 0.005767
v -0.162643 -2.666141 0.078688
v 0.077816 -2.665352 0.167459
v 0.288492 -2.657122 0.052679
v 0.366353 -2.650762 -0.074488
v 0.372757 -2.646729 -0.174608
v 0.291786 -2.644933 -0.257172
v 0.117352 -2.645309 -0.326560
v -0.119429 -2.922222 -0.552747
v -0.396553 -2.920484 -0.411385
v -0.559532 -2.929804 -0.220252
v -0.588113 -2.922007 -0.021518
v -0.498184 -2.891512 0.162545
v -0.293858 -2.858356 0.283302
v 0.076221 -2.844010 0.307021
v 0.382015 -2.848530 0.193447
v 0.543547 -2.847529 -0.003290
v 0.552745 -2.857895 -0.216088
v 0.428550 -2.872336 -0.402315
v 0.188427 -2.901998 -0.525001
v -0.127969 -3.528766 -0.723503
v -0.521141 -3.542679 -0.548426
v -0.778433 -3.550355 -0.250197
v -0.831508 -3.540470 0.083246
v -0.588129 -3.527704 0.309352
v -0.296774 -3.559769 0.538940
v 0.160035 -3.504809 0.557567
v 0.583162 -3.453321 0.358375
v 0.836167 -3.429542 0.057727
v 0.874843 -3.419158 -0.251170
v 0.638269 -3.458584 -0.471802
v 0.280179 -3.501066 -0.590166
v -0.093072 -4.244405 -0.663840
v -0.516325 -4.242074 -0.505283
v -0.538006 -4.221100 -0.050557
v -0.706141 -4.231619 0.290069
v -0.569188 -4.052610 0.590591
v -0.185276 -4.201473 0.466498
v 0.327627 -4.183632 0.468875
v 0.798631 -4.128854 0.426851
v 0.837601 -4.133945 0.026746
v 0.974051 -4.104848 -0.301633
v 0.719942 -4.066516 -0.557289
v 0.332052 -4.226775 -0.412225
v -0.048390 -4.526258 -0.622931
v -0.447419 -4.409005 -0.551098
v -0.517660 -4.490894 -0.015565
v -0.449783 -4.384732 0.382848
v -0.465045 -4.217689 0.750344
v -0.020585 -4.246520 0.740949
v 0.369067 -4.495698 0.495174
v 0.818795 -4.474049 0.389694
v 1.007297 -4.320521 0.054286
v 0.895036 -4.390840 -0.274440
v 0.763261 -4.320064 -0.696600
v 0.389849 -4.541569 -0.466259
v 0.849761 -3.779613 0.016059
v 0.990511 -3.753330 -0.270997
v -0.202314 -3.888139 0.374391
v 0.218574 -3.861301 0.587036
v -0.699763 -3.895764 -0.146323
v -0.866199 -3.896658 0.161537
v 0.671847 -3.797149 -0.377858
v 0.675441 -3.795861 0.387389
v -0.593983 -3.911540 0.331752
v 0.281462 -3.845209 -0.482497
v -0.115918 -3.891540 -0.706066
v -0.535309 -3.900327 -0.532096
v -0.279360 -3.206680 0.427584
v 0.115241 -3.168466 0.459209
v -0.688647 -3.235180 -0.259885
v -0.720762 -3.225002 0.034428
v 0.723870 -3.131008 -0.239010
v 0.554804 -3.156966 -0.475115
v 0.478705 -3.143630 0.307739
v -0.580858 -3.206831 0.293885
v 0.257044 -3.189543 -0.635572
v -0.121431 -3.218993 -0.659502
v -0.477023 -3.226290 -0.524503
v 0.696304 -3.133605 0.046815
v -0.191504 -2.649678 -0.354882
v -0.284768 -2.657957 -0.185666
v -0.330220 -2.661880 -0.106055
v -0.318924 -2.664582 -0.031918
v -0.239646 -2.666121 0.043310
v -0.049408 -2.665934 0.124696
v 0.185188 -2.661561 0.119286
v 0.337151 -2.653641 -0.014198
v 0.384379 -2.648308 -0.129011
v 0.344107 -2.645529 -0.218246
v 0.213419 -2.644865 -0.294400
v 0.008028 -2.646243 -0.352241
v -0.267087 -2.924651 -0.502481
v -0.496251 -2.922998 -0.314055
v -0.588067 -2.932097 -0.122096
v -0.558194 -2.904624 0.076621
v -0.413181 -2.871284 0.232984
v -0.125211 -2.854555 0.307863
v 0.245383 -2.846019 0.257593
v 0.483444 -2.846984 0.103327
v 0.565393 -2.852407 -0.111287
v 0.507488 -2.861425 -0.315492
v 0.320766 -2.885102 -0.472488
v 0.038271 -2.915873 -0.552941
v 0.348086 -2.737496 -0.324736
v 0.139452 -2.752660 -0.422141
v -0.128989 -2.769949 -0.467025
v -0.332189 -2.777510 -0.300861
v 0.325157 -2.726899 0.108621
v 0.456778 -2.723601 -0.056906
v -0.422133 -2.772429 0.077821
v -0.273227 -2.760979 0.170071
v -0.448972 -2.780626 -0.160878
v 0.451607 -2.727868 -0.200227
v 0.060971 -2.738608 0.256595
v -0.478487 -2.779265 -0.047714
v -0.339250 -3.541408 -0.659683
v -0.673537 -3.547693 -0.410621
v -0.823946 -3.554339 -0.082793
v -0.748503 -3.520360 0.232618
v -0.461987 -3.550757 0.453697
v -0.081592 -3.537210 0.572249
v 0.386778 -3.477315 0.486836
v 0.728528 -3.442098 0.205101
v 0.882929 -3.425425 -0.095358
v 0.788445 -3.422454 -0.390928
v 0.467641 -3.485943 -0.524169
v 0.095068 -3.520584 -0.697392
v -0.285352 -3.028709 0.381793
v 0.132179 -3.333847 0.507657
v -0.636515 -3.080045 -0.256387
v -0.782615 -3.375215 0.059635
v 0.642867 -2.991086 -0.231903
v 0.606668 -3.303450 -0.487995
v 0.533097 -3.294638 0.339768
v -0.606374 -3.373323 0.334450
v 0.279728 -3.342829 -0.640223
v -0.120159 -3.067220 -0.632231
v -0.503625 -3.380435 -0.541120
v 0.765485 -3.280363 0.053732
v -0.344658 -4.274753 -0.663111
v -0.577155 -4.246085 -0.262772
v -0.612928 -4.223986 0.132589
v -0.710653 -4.150082 0.486765
v -0.362651 -4.074175 0.562040
v 0.086137 -4.217966 0.386492
v 0.561822 -4.164595 0.530370
v 0.894922 -4.104284 0.211629
v 0.873581 -4.117996 -0.151713
v 0.917296 -4.064670 -0.495834
v 0.547331 -4.157685 -0.474954
v 0.108974 -4.212522 -0.515418
v 0.879127 -3.601141 0.052954
v 1.000086 -3.932402 -0.290529
v -0.271809 -3.738294 0.489473
v 0.263158 -4.034855 0.543277
v -0.767776 -3.735533 -0.219957
v -0.809240 -4.071564 0.224374
v 0.702509 -3.948730 -0.467436
v 0.735649 -3.960280 0.411957
v -0.588449 -3.983911 0.475575
v 0.294594 -4.031423 -0.439611
v -0.122839 -3.709653 -0.725673
v -0.530605 -4.081137 -0.508564
v -0.330741 -4.576250 -0.643583
v -0.556734 -4.552659 -0.189512
v -0.440800 -4.504505 0.167587
v -0.525866 -4.370608 0.578000
v -0.258017 -4.220908 0.818010
v 0.165453 -4.404787 0.635172
v 0.561565 -4.385790 0.454629
v 1.010816 -4.419497 0.172792
v 0.882145 -4.405011 -0.091478
v 0.885670 -4.294624 -0.424985
v 0.528939 -4.352221 -0.705385
v 0.165672 -4.457850 -0.477170
v -0.474779 -4.323488 -0.536882
v -0.511385 -4.371253 -0.038040
v 0.935272 -4.223227 0.045340
v 0.938160 -4.249793 -0.282703
v -0.095277 -4.226491 0.612538
v 0.367937 -4.352370 0.424733
v -0.591713 -4.359350 0.342859
v 0.741575 -4.191539 -0.630882
v 0.819580 -4.317443 0.411327
v -0.526460 -4.138825 0.681104
v 0.370449 -4.387335 -0.402440
v -0.068475 -4.388486 -0.638994
v 0.831504 -3.961462 0.008379
v 0.944640 -3.580625 -0.256685
v -0.190797 -4.078614 0.346934
v 0.184031 -3.684359 0.595556
v -0.611222 -4.047535 -0.076886
v -0.862294 -3.718119 0.115584
v 0.641992 -3.610960 -0.390590
v 0.622116 -3.623795 0.365434
v -0.576925 -3.709005 0.270736
v 0.278641 -3.667185 -0.538260
v -0.106257 -4.071395 -0.689856
v -0.532435 -3.718172 -0.547460
v -0.584257 -3.885790 -0.311683
v 0.099108 -3.870162 -0.614172
v -0.422009 -3.917845 0.319533
v 0.755206 -3.795823 0.178639
v -0.358267 -3.899504 -0.689665
v 0.476658 -3.820421 -0.391077
v -0.756318 -3.871640 0.325350
v 0.483147 -3.819567 0.555286
v 0.854331 -3.763878 -0.399878
v -0.815163 -3.918257 -0.010883
v -0.021903 -3.897436 0.509433
v 0.971518 -3.771481 -0.100387
v -0.294854 -3.373079 0.501155
v 0.095960 -3.003388 0.400112
v -0.735018 -3.388357 -0.257334
v -0.666881 -3.068186 0.008512
v 0.800773 -3.271665 -0.246677
v 0.496806 -3.010991 -0.456880
v 0.431140 -2.992833 0.272757
v -0.538579 -3.051009 0.235382
v 0.225253 -3.042663 -0.604632
v -0.123507 -3.368884 -0.688401
v -0.444122 -3.073375 -0.497374
v 0.622789 -2.988841 0.033461
v 0.734511 -3.131435 -0.097727
v -0.604818 -3.231057 -0.401561
v 0.071387 -3.206115 -0.668105
v -0.443333 -3.207106 0.376468
v 0.601701 -3.140456 0.180176
v -0.310770 -3.223699 -0.615604
v 0.419987 -3.174398 -0.566921
v -0.671796 -3.211412 0.169483
v 0.312401 -3.154174 0.407064
v 0.660292 -3.138663 -0.368175
v -0.727755 -3.232392 -0.112449
v -0.092611 -3.190578 0.468720
v 0.254216 -2.744527 -0.376123
v -0.238923 -2.775125 -0.416415
v 0.407975 -2.724179 0.027817
v -0.362688 -2.767441 0.129752
v 0.006600 -2.761516 -0.455198
v -0.402247 -2.779080 -0.206052
v 0.470441 -2.724865 -0.132270
v -0.130593 -2.751480 0.205233
v -0.475572 -2.780805 -0.109752
v 0.411974 -2.732028 -0.265084
v 0.201017 -2.732303 0.181703
v -0.459777 -2.776378 0.016342
v -0.091506 -3.359997 0.519491
v -0.768685 -3.389514 -0.096061
v 0.732140 -3.280904 -0.384051
v 0.349245 -3.309994 0.449852
v -0.728070 -3.365148 0.216353
v 0.443504 -3.327236 -0.542724
v -0.322284 -3.377191 -0.630616
v 0.672038 -3.286071 0.200319
v -0.470139 -3.373083 0.437838
v 0.086807 -3.355649 -0.698869
v -0.650069 -3.382301 -0.415548
v 0.808732 -3.275202 -0.096353
v 0.953718 -3.954403 -0.122251
v 0.060519 -4.035480 0.399383
v -0.731713 -4.079172 0.063259
v 0.891782 -3.920900 -0.451224
v 0.522190 -3.998290 0.568371
v -0.763385 -4.011926 0.409070
v 0.514389 -4.005123 -0.397605
v -0.352674 -4.087718 -0.686797
v 0.797655 -3.969261 0.205222
v -0.421272 -4.066181 0.411907
v 0.107731 -4.050567 -0.574573
v -0.549548 -4.069733 -0.288145
v -0.561595 -4.413776 -0.222824
v 0.862373 -4.282642 -0.122253
v 0.131752 -4.353456 0.496240
v -0.513451 -4.378222 0.138552
v 0.907455 -4.185401 -0.463192
v 0.567289 -4.284551 0.489011
v -0.624853 -4.269198 0.533910
v 0.533146 -4.246065 -0.605694
v -0.318824 -4.456624 -0.658249
v 0.956710 -4.254450 0.201981
v -0.299903 -4.108305 0.690955
v 0.130047 -4.342260 -0.455325
v -0.633177 -3.715054 -0.357843
v 0.095816 -3.692843 -0.656287
v -0.413239 -3.706120 0.372863
v 0.744254 -3.612886 0.178724
v -0.352670 -3.717465 -0.684500
v 0.462475 -3.641160 -0.441048
v -0.743950 -3.695107 0.253602
v 0.435736 -3.646798 0.523429
v 0.819860 -3.585309 -0.388132
v -0.851272 -3.737388 -0.054968
v -0.058805 -3.725421 0.566558
v 0.946270 -3.591334 -0.095985
v 0.654306 -2.989578 -0.099817
v -0.560562 -3.076699 -0.383830
v 0.054384 -3.058727 -0.630747
v -0.426733 -3.038007 0.321465
v 0.547615 -2.989979 0.163585
v -0.292490 -3.071703 -0.585648
v 0.372090 -3.025074 -0.545596
v -0.619490 -3.059055 0.131786
v 0.277602 -2.996593 0.354404
v 0.587894 -2.998411 -0.353454
v -0.671282 -3.077239 -0.124988
v -0.102421 -3.016978 0.409561
v -0.102768 -2.640975 -0.387703
v -0.259450 -2.648265 -0.270113
v -0.315693 -2.652865 -0.145349
v -0.338431 -2.655233 -0.069981
v -0.293771 -2.657240 0.009714
v -0.165061 -2.658043 0.084446
v 0.078563 -2.657657 0.174154
v 0.293018 -2.649925 0.058362
v 0.372439 -2.642942 -0.071959
v 0.379227 -2.639423 -0.177664
v 0.295698 -2.637965 -0.263555
v 0.119324 -2.638459 -0.333892
v -0.120945 -2.917146 -0.561495
v -0.402160 -2.914598 -0.417590
v -0.567141 -2.923980 -0.223825
v -0.596640 -2.916421 -0.020706
v -0.504797 -2.885749 0.167803
v -0.296540 -2.852083 0.290921
v 0.077228 -2.838387 0.315503
v 0.386688 -2.842498 0.200256
v 0.551365 -2.841614 -0.000378
v 0.560643 -2.851952 -0.218713
v 0.433499 -2.866425 -0.409035
v 0.190295 -2.896357 -0.533325
v -0.128704 -3.528026 -0.733676
v -0.527602 -3.542214 -0.556340
v -0.787605 -3.549970 -0.254704
v -0.841291 -3.538299 0.085286
v -0.593803 -3.529057 0.317752
v -0.300311 -3.560465 0.548510
v 0.161229 -3.502473 0.567452
v 0.589663 -3.450999 0.365921
v 0.844737 -3.426687 0.062524
v 0.883852 -3.415342 -0.254145
v 0.642088 -3.460133 -0.481161
v 0.284749 -3.503330 -0.599030
v -0.089817 -4.245825 -0.673430
v -0.525336 -4.243223 -0.509981
v -0.547632 -4.224292 -0.051874
v -0.714466 -4.237518 0.289379
v -0.572518 -4.045571 0.597220
v -0.181316 -4.193000 0.470636
v 0.325634 -4.185797 0.478669
v 0.805637 -4.127248 0.434125
v 0.847494 -4.131354 0.026771
v 0.984148 -4.106456 -0.301430
v 0.719240 -4.061820 -0.566346
v 0.332058 -4.226516 -0.422448
v -0.044773 -4.526123 -0.632496
v -0.455427 -4.409986 -0.557382
v -0.527624 -4.491769 -0.013437
v -0.455369 -4.393216 0.384032
v -0.469790 -4.214078 0.758653
v -0.015558 -4.237703 0.742206
v 0.371297 -4.490348 0.503599
v 0.824572 -4.474900 0.398089
v 1.016634 -4.316783 0.052436
v 0.905138 -4.392287 -0.273779
v 0.766569 -4.315723 -0.705249
v 0.385045 -4.538088 -0.474589
v 0.858147 -3.780223 0.021880
v 1.000171 -3.751668 -0.273916
v -0.205329 -3.891535 0.383555
v 0.217708 -3.863243 0.597040
v -0.707061 -3.900513 -0.151687
v -0.876279 -3.897715 0.162906
v 0.671468 -3.795891 -0.388000
v 0.683244 -3.793090 0.393391
v -0.594168 -3.906413 0.340599
v 0.286467 -3.846853 -0.491262
v -0.114234 -3.892481 -0.716110
v -0.543985 -3.901359 -0.537410
v -0.281892 -3.203367 0.436922
v 0.116438 -3.165210 0.468829
v -0.697741 -3.232276 -0.263553
v -0.730203 -3.221334 0.035841
v 0.732515 -3.126125 -0.241459
v 0.560519 -3.154225 -0.483141
v 0.484418 -3.139988 0.315400
v -0.587338 -3.203141 0.300882
v 0.260043 -3.187861 -0.645204
v -0.122944 -3.217077 -0.669433
v -0.482874 -3.224027 -0.532579
v 0.704681 -3.129212 0.050702
v -0.196668 -2.643915 -0.361568
v -0.291280 -2.651235 -0.189788
v -0.336527 -2.654069 -0.108006
v -0.324484 -2.656386 -0.029367
v -0.242916 -2.657849 0.048357
v -0.051574 -2.657995 0.130769
v 0.188622 -2.654579 0.125921
v 0.342618 -2.646024 -0.010113
v 0.391085 -2.640588 -0.129117
v 0.349490 -2.638445 -0.223289
v 0.216212 -2.637962 -0.301410
v 0.009345 -2.639664 -0.359959
v -0.271204 -2.919328 -0.510182
v -0.502726 -2.916915 -0.319121
v -0.596503 -2.926510 -0.123584
v -0.566037 -2.898926 0.079876
v -0.418033 -2.865236 0.239652
v -0.126397 -2.848611 0.316100
v 0.248606 -2.840235 0.265388
v 0.489886 -2.840982 0.108529
v 0.573756 -2.846522 -0.111163
v 0.514117 -2.855452 -0.320490
v 0.324103 -2.879240 -0.480175
v 0.038837 -2.910597 -0.561683
v 0.352320 -2.730795 -0.331198
v 0.141357 -2.746210 -0.429845
v -0.130542 -2.764359 -0.475447
v -0.338540 -2.771206 -0.305812
v 0.329622 -2.720048 0.114762
v 0.463704 -2.716500 -0.054417
v -0.427581 -2.764783 0.081874
v -0.275777 -2.753121 0.176099
v -0.455478 -2.773636 -0.164538
v 0.458672 -2.721094 -0.203190
v 0.061437 -2.731857 0.264263
v -0.485742 -2.772081 -0.047142
v -0.343298 -3.540068 -0.668978
v -0.681509 -3.548096 -0.417015
v -0.833831 -3.552629 -0.084781
v -0.755616 -3.519466 0.239911
v -0.467836 -3.552567 0.461888
v -0.082641 -3.536123 0.582363
v 0.390725 -3.474585 0.495867
v 0.736219 -3.440100 0.211539
v 0.892248 -3.421496 -0.093838
v 0.795002 -3.420925 -0.398626
v 0.471440 -3.488611 -0.533281
v 0.098165 -3.521523 -0.707092
v -0.288064 -3.024860 0.390872
v 0.133419 -3.330881 0.517365
v -0.645135 -3.075974 -0.260092
v -0.792213 -3.371963 0.061003
v 0.651253 -2.985775 -0.234364
v 0.611568 -3.302165 -0.496878
v 0.538981 -3.291340 0.347455
v -0.612882 -3.371844 0.342198
v 0.283650 -3.343199 -0.649661
v -0.121584 -3.063704 -0.641728
v -0.509446 -3.378852 -0.549378
v 0.773891 -3.276246 0.057853
v -0.348425 -4.275900 -0.672549
v -0.587281 -4.247282 -0.263566
v -0.620596 -4.229761 0.129062
v -0.719332 -4.151373 0.492017
v -0.359576 -4.064761 0.564594
v 0.086162 -4.214389 0.396073
v 0.563390 -4.166454 0.540303
v 0.904221 -4.100358 0.213271
v 0.883192 -4.118873 -0.148332
v 0.924347 -4.062995 -0.503049
v 0.542931 -4.153874 -0.483362
v 0.114272 -4.214121 -0.524018
v 0.887605 -3.600668 0.058654
v 1.010208 -3.932518 -0.291984
v -0.275844 -3.742329 0.497960
v 0.260917 -4.038246 0.552661
v -0.775917 -3.738437 -0.225423
v -0.818658 -4.075551 0.224375
v 0.700850 -3.944744 -0.476707
v 0.743197 -3.957288 0.418174
v -0.588973 -3.975969 0.481996
v 0.298188 -4.032047 -0.449165
v -0.122271 -3.710212 -0.735868
v -0.539704 -4.081865 -0.513175
v -0.332983 -4.577237 -0.653512
v -0.566955 -4.553009 -0.189473
v -0.449117 -4.510199 0.169315
v -0.532745 -4.377084 0.581915
v -0.256231 -4.212210 0.823082
v 0.170808 -4.396551 0.638015
v 0.561979 -4.386070 0.464844
v 1.019819 -4.417336 0.177136
v 0.892051 -4.403949 -0.093785
v 0.895021 -4.296274 -0.428783
v 0.523007 -4.347800 -0.712445
v 0.169650 -4.455184 -0.486206
v -0.483154 -4.324931 -0.542572
v -0.521407 -4.372976 -0.036954
v 0.944375 -4.219194 0.043002
v 0.948214 -4.251485 -0.281907
v -0.090564 -4.217548 0.614087
v 0.368039 -4.350238 0.434734
v -0.598610 -4.366899 0.343018
v 0.744193 -4.187140 -0.639735
v 0.825613 -4.317888 0.419573
v -0.531720 -4.134906 0.688950
v 0.367114 -4.384910 -0.411798
v -0.064691 -4.388962 -0.648483
v 0.840973 -3.961386 0.012241
v 0.953888 -3.577806 -0.260019
v -0.190353 -4.075620 0.356702
v 0.184530 -3.683805 0.605755
v -0.619405 -4.052125 -0.080956
v -0.872209 -3.717132 0.117888
v 0.643900 -3.613117 -0.400403
v 0.629466 -3.621674 0.372221
v -0.580065 -3.709081 0.280469
v 0.283696 -3.669824 -0.546749
v -0.103763 -4.072690 -0.699689
v -0.540117 -3.718836 -0.554178
v -0.593204 -3.888897 -0.315540
v 0.104150 -3.871751 -0.622927
v -0.422776 -3.916192 0.329596
v 0.764338 -3.794565 0.183067
v -0.362292 -3.899966 -0.699055
v 0.478740 -3.820951 -0.401075
v -0.761952 -3.867953 0.333047
v 0.486871 -3.818048 0.564688
v 0.858074 -3.761464 -0.409083
v -0.823483 -3.922482 -0.015069
v -0.025143 -3.901882 0.518055
v 0.980894 -3.771628 -0.096305
v -0.297438 -3.370267 0.510642
v 0.097080 -2.998919 0.409242
v -0.744254 -3.385948 -0.261004
v -0.676084 -3.063948 0.009904
v 0.809573 -3.267119 -0.249223
v 0.502513 -3.006599 -0.464142
v 0.436408 -2.988280 0.280247
v -0.545336 -3.046799 0.241800
v 0.227427 -3.038769 -0.613835
v -0.124968 -3.367217 -0.698385
v -0.449843 -3.069382 -0.504851
v 0.631058 -2.983942 0.036953
v 0.743481 -3.126606 -0.096826
v -0.612559 -3.228333 -0.407664
v 0.072079 -3.204090 -0.678105
v -0.447698 -3.203623 0.385036
v 0.608955 -3.136554 0.186236
v -0.314474 -3.221820 -0.624949
v 0.424547 -3.172783 -0.575931
v -0.680106 -3.207482 0.173963
v 0.315864 -3.150717 0.416045
v 0.667641 -3.134470 -0.373919
v -0.737414 -3.229286 -0.113728
v -0.093448 -3.187403 0.478405
v 0.257132 -2.737902 -0.383347
v -0.243866 -2.769482 -0.423366
v 0.413806 -2.717064 0.032287
v -0.366702 -2.759589 0.134931
v 0.007570 -2.755480 -0.463397
v -0.408394 -2.772225 -0.210503
v 0.477961 -2.717938 -0.132522
v -0.132462 -2.744056 0.212015
v -0.482826 -2.773790 -0.111413
v 0.417813 -2.725282 -0.270082
v 0.204409 -2.725806 0.188836
v -0.466327 -2.768941 0.018867
v -0.092215 -3.357031 0.529253
v -0.778384 -3.386627 -0.097538
v 0.739312 -3.277536 -0.390516
v 0.352884 -3.306910 0.458898
v -0.736192 -3.362554 0.221999
v 0.447683 -3.327572 -0.552051
v -0.326097 -3.375517 -0.639956
v 0.679353 -3.282468 0.206491
v -0.475219 -3.371116 0.446493
v 0.088406 -3.354871 -0.708940
v -0.657882 -3.380393 -0.421865
v 0.817804 -3.270620 -0.095217
v 0.962751 -3.956250 -0.117826
v 0.057629 -4.038146 0.408823
v -0.738917 -4.084975 0.058898
v 0.896875 -3.917500 -0.459414
v 0.524789 -3.998666 0.578254
v -0.771288 -4.009613 0.415135
v 0.513199 -4.003228 -0.407584
v -0.356521 -4.088714 -0.696220
v 0.807088 -3.966091 0.207578
v -0.418232 -4.058459 0.417883
v 0.113068 -4.052104 -0.583160
v -0.559458 -4.071381 -0.290063
v -0.571754 -4.414856 -0.223266
v 0.872537 -4.281526 -0.122423
v 0.135616 -4.345969 0.502037
v -0.522163 -4.383570 0.138239
v 0.916243 -4.186082 -0.468379
v 0.567956 -4.286225 0.499077
v -0.632718 -4.274006 0.538339
v 0.527471 -4.241438 -0.612833
v -0.321722 -4.457560 -0.668011
v 0.965959 -4.251327 0.205029
v -0.297808 -4.099083 0.694847
v 0.134673 -4.342057 -0.464443
v -0.641326 -3.717752 -0.363402
v 0.100147 -3.694623 -0.665379
v -0.418077 -3.709337 0.381278
v 0.752456 -3.612280 0.184803
v -0.356752 -3.717144 -0.693871
v 0.466034 -3.644203 -0.450140
v -0.749395 -3.693352 0.262079
v 0.439897 -3.644460 0.532473
v 0.824575 -3.584648 -0.397183
v -0.860971 -3.738548 -0.057997
v -0.061084 -3.727699 0.576264
v 0.955940 -3.589314 -0.093341
v 0.663047 -2.984303 -0.099224
v -0.567920 -3.072623 -0.389646
v 0.054858 -3.055065 -0.640283
v -0.431495 -3.034085 0.329622
v 0.554667 -2.985438 0.169437
v -0.296219 -3.068007 -0.594424
v 0.376126 -3.020979 -0.554053
v -0.627804 -3.054751 0.135903
v 0.280813 -2.991994 0.362956
v 0.595117 -2.993499 -0.358772
v -0.680542 -3.073094 -0.126276
v -0.103282 -3.012821 0.418865
vn 0.0467 0.1606 0.9859
vn 0.8390 0.1561 0.5213
vn 0.8448 -0.0077 0.5350
vn 0.9841 -0.1355 -0.1145
vn 0.7147 -0.1697 -0.6785
vn 0.3902 -0.1307 -0.9114
vn -0.0724 -0.0711 -0.9948
vn -0.6737 -0.0008 -0.7390
vn -0.9292 -0.0851 -0.3597
vn -0.9072 -0.0145 0.4205
vn -0.5175 0.0383 0.8548
vn -0.2700 0.0568 0.9612
vn 0.1481 -0.4963 0.8554
vn 0.5483 -0.5755 0.6068
vn 0.7441 -0.5694 0.3494
vn 0.8339 -0.5462 -0.0793
vn 0.6466 -0.5635 -0.5141
vn 0.2623 -0.6133 -0.7450
vn -0.0985 -0.5498 -0.8294
vn -0.4570 -0.5898 -0.6658
vn -0.7644 -0.5784 -0.2847
vn -0.7723 -0.5811 0.2567
vn -0.4839 -0.5780 0.6571
vn -0.1826 -0.5516 0.8139
vn 0.0719 -0.0724 0.9948
vn 0.6318 -0.0455 0.7738
vn 0.8969 -0.0376 0.4406
vn 0.9566 -0.2123 -0.1995
vn 0.5548 0.1322 -0.8214
vn 0.3459 0.0681 -0.9358
vn -0.1167 -0.2284 -0.9666
vn -0.6357 -0.2270 -0.7378
vn -0.8379 -0.2791 -0.4690
vn -0.8810 -0.3732 0.2909
vn -0.3734 0.1515 0.9152
vn -0.4469 0.2214 0.8667
vn -0.3183 0.1389 0.9378
vn 0.8811 0.1123 0.4594
vn 0.9413 0.3122 0.1288
vn 0.8140 0.5769 0.0675
vn 0.3256 -0.6883 -0.6482
vn -0.3872 -0.8285 -0.4046
vn 0.1948 0.2117 -0.9577
vn -0.6851 -0.1570 -0.7113
vn -0.9674 -0.2534 -0.0024
vn -0.9874 0.1573 -0.0199
vn 0.0687 -0.4592 0.8857
vn -0.0006 -0.0253 0.9997
vn -0.0346 -0.7821 0.6222
vn 0.5902 -0.5332 0.6060
vn 0.8177 -0.5624 -0.1228
vn 0.9546 0.2523 0.1581
vn 0.5259 -0.8445 -0.1017
vn -0.1201 -0.7969 0.5921
vn 0.1057 -0.9538 -0.2811
vn -0.3915 -0.7762 -0.4942
vn -0.3763 -0.9264 0.0149
vn -0.7192 -0.6349 -0.2822
vn -0.0067 -0.9822 0.1875
vn 0.3161 -0.8913 0.3250
vn -0.8201 0.0596 -0.5692
vn -0.9445 -0.1625 0.2854
vn 0.2948 0.3320 -0.8960
vn 0.0847 0.1899 -0.9782
vn 0.7136 0.4643 0.5245
vn 0.9856 0.1033 -0.1339
vn 0.0370 -0.1230 0.9917
vn -0.7630 -0.2710 -0.5869
vn 0.0180 -0.5013 -0.8651
vn -0.4894 0.1607 0.8571
vn -0.1647 0.0920 0.9820
vn 0.8484 0.1009 0.5197
vn 0.2476 -0.3239 -0.9131
vn -0.1171 -0.3184 -0.9407
vn 0.8892 -0.2840 0.3587
vn 0.9232 -0.3587 -0.1382
vn -0.8454 -0.4774 0.2394
vn -0.5588 -0.2680 0.7848
vn -0.5586 -0.3561 -0.7491
vn 0.6337 -0.3608 -0.6843
vn -0.2932 -0.1646 0.9418
vn 0.1480 -0.1874 0.9711
vn 0.5722 -0.2213 0.7897
vn -0.8191 -0.4296 -0.3801
vn 0.5657 0.2175 0.7954
vn 0.8598 0.0671 0.5063
vn 0.9510 -0.0889 0.2961
vn 0.8835 -0.1581 -0.4410
vn 0.5215 -0.1632 -0.8375
vn 0.3395 -0.1096 -0.9342
vn -0.4805 0.0144 -0.8769
vn -0.8431 -0.0575 -0.5347
vn -0.9975 -0.0700 -0.0037
vn -0.7251 0.0235 0.6882
vn -0.3729 0.0464 0.9267
vn -0.2032 0.0843 0.9755
vn 0.4027 -0.5205 0.7530
vn 0.6331 -0.5948 0.4954
vn 0.8248 -0.5463 0.1455
vn 0.7670 -0.5571 -0.3183
vn 0.4745 -0.5914 -0.6520
vn 0.1160 -0.5812 -0.8054
vn -0.3151 -0.5655 -0.7622
vn -0.6299 -0.5869 -0.5087
vn -0.8177 -0.5755 -0.0122
vn -0.6482 -0.5840 0.4887
vn -0.3263 -0.5732 0.7517
vn -0.0554 -0.5159 0.8549
vn -0.4140 -0.6552 0.6319
vn -0.1863 -0.6307 0.7533
vn 0.1519 -0.5467 0.8235
vn 0.6210 -0.6164 0.4842
vn -0.4366 -0.6699 -0.6005
vn -0.6773 -0.6943 -0.2434
vn 0.5328 -0.7477 -0.3964
vn 0.2494 -0.7683 -0.5895
vn 0.6362 -0.6835 0.3578
vn -0.6909 -0.6624 0.2897
vn -0.0455 -0.6601 -0.7498
vn 0.7094 -0.7026 -0.0559
vn 0.3959 -0.1310 0.9089
vn 0.7795 0.0393 0.6252
vn 0.9666 -0.1673 0.1944
vn 0.6955 -0.0874 -0.7132
vn 0.5720 0.1770 -0.8009
vn 0.1026 -0.1063 -0.9890
vn -0.3859 -0.2669 -0.8831
vn -0.7521 -0.1954 -0.6295
vn -0.9112 -0.3842 -0.1486
vn -0.6412 -0.1496 0.7527
vn -0.3715 0.2609 0.8910
vn -0.3029 0.0919 0.9486
vn 0.2652 -0.3763 -0.8877
vn -0.1213 -0.2900 -0.9493
vn 0.8428 -0.3981 0.3622
vn 0.9386 -0.3181 -0.1338
vn -0.8199 -0.5194 0.2406
vn -0.4792 -0.1256 0.8687
vn -0.5754 -0.3224 -0.7516
vn 0.6364 -0.1446 -0.7577
vn -0.3835 0.0361 0.9228
vn 0.1394 -0.3438 0.9286
vn 0.5692 -0.1549 0.8075
vn -0.8219 -0.4025 -0.4030
vn 0.3683 0.1122 0.9229
vn 0.9901 0.1171 0.0776
vn 0.7498 0.5647 0.3449
vn 0.8487 0.1263 -0.5136
vn -0.3007 -0.9205 -0.2497
vn -0.0024 -0.3497 -0.9369
vn -0.1534 0.1818 -0.9713
vn -0.9093 -0.3839 -0.1606
vn -0.9398 0.0857 -0.3307
vn -0.6896 -0.1637 0.7055
vn 0.4303 -0.3726 0.8222
vn -0.5181 0.1564 0.8409
vn -0.8290 -0.0463 -0.5574
vn -0.9898 0.0114 0.1423
vn 0.3946 0.3946 -0.8298
vn 0.2192 0.3315 -0.9176
vn 0.7961 0.2839 0.5345
vn 0.9209 0.3899 -0.0001
vn 0.1622 -0.3897 0.9066
vn -0.7380 -0.2926 -0.6080
vn 0.0512 -0.7767 -0.6278
vn -0.3514 0.0611 0.9342
vn -0.0556 0.0547 0.9970
vn 0.8898 0.0712 0.4508
vn -0.0888 -0.7064 0.7022
vn 0.6484 -0.7613 -0.0080
vn 0.9530 -0.3022 -0.0229
vn 0.9866 -0.1356 0.0903
vn -0.0941 -0.9462 0.3095
vn -0.2149 -0.9028 0.3726
vn 0.0029 -0.6188 -0.7856
vn -0.2678 -0.8173 -0.5102
vn -0.6179 -0.7517 0.2303
vn -0.8183 -0.5632 0.1144
vn 0.4208 -0.9037 -0.0787
vn -0.2978 -0.7390 0.6043
vn 0.8189 0.1410 0.5563
vn 0.9800 0.1685 -0.1062
vn -0.8901 -0.3943 0.2286
vn -0.9831 0.1655 -0.0779
vn -0.4609 -0.8744 -0.1515
vn -0.0100 -0.2085 -0.9780
vn 0.6744 0.7382 -0.0155
vn -0.2560 -0.4301 0.8657
vn -0.5899 0.0435 -0.8063
vn 0.5143 -0.3832 -0.7672
vn 0.3262 -0.2371 0.9151
vn -0.3701 0.0466 0.9278
vn -0.9259 -0.0075 -0.3776
vn -0.9043 -0.2756 0.3259
vn -0.0434 -0.2928 -0.9552
vn -0.0489 -0.0541 -0.9973
vn 0.8001 0.4488 0.3980
vn 0.9695 -0.0965 -0.2253
vn -0.1865 0.2109 0.9595
vn -0.7187 -0.2074 -0.6636
vn 0.3070 0.0074 -0.9517
vn -0.4943 0.2581 0.8301
vn -0.2439 0.1266 0.9615
vn 0.7511 0.0649 0.6570
vn 0.8749 0.3039 0.3771
vn -0.4930 0.1554 0.8560
vn 0.0751 -0.1617 -0.9840
vn -0.8929 -0.1229 -0.4330
vn 0.3936 0.0451 0.9182
vn -0.2035 0.0518 0.9777
vn 0.5509 -0.3605 -0.7527
vn -0.3642 -0.1485 -0.9194
vn -0.3661 -0.2361 0.9001
vn 0.8135 0.4131 0.4093
vn 0.3168 0.4347 -0.8430
vn -0.9168 0.0144 -0.3991
vn 0.2527 -0.2750 -0.9277
vn -0.1095 -0.4370 -0.8928
vn 0.9032 -0.2355 0.3589
vn 0.8999 -0.4144 -0.1362
vn -0.8605 -0.4446 0.2489
vn -0.5580 -0.4294 0.7101
vn -0.5151 -0.4452 -0.7324
vn 0.6608 -0.4117 -0.6276
vn -0.2126 -0.3808 0.8999
vn 0.1428 -0.1630 0.9762
vn 0.5594 -0.3905 0.7312
vn -0.8087 -0.4791 -0.3414
vn -0.8771 -0.4722 -0.0881
vn 0.7569 -0.2664 0.5968
vn -0.0676 -0.1980 0.9779
vn 0.4269 -0.3405 -0.8378
vn -0.7094 -0.3816 -0.5926
vn 0.3623 -0.1837 0.9138
vn -0.4458 -0.1579 0.8811
vn 0.8127 -0.3843 -0.4381
vn -0.3386 -0.3380 -0.8781
vn -0.7186 -0.4100 0.5617
vn 0.9445 -0.3037 0.1250
vn 0.0819 -0.3104 -0.9471
vn -0.2851 -0.6479 0.7064
vn 0.4833 -0.5517 0.6797
vn -0.5701 -0.6957 -0.4370
vn 0.3925 -0.7678 -0.5064
vn -0.0949 -0.5902 0.8016
vn 0.6011 -0.6703 0.4352
vn -0.7353 -0.6773 0.0247
vn 0.1827 -0.7259 -0.6631
vn 0.7093 -0.6859 0.1625
vn -0.5709 -0.6597 0.4887
vn -0.3316 -0.6352 -0.6975
vn 0.6405 -0.7272 -0.2469
vn 0.0694 -0.2901 -0.9545
vn 0.9484 -0.2822 0.1445
vn -0.7013 -0.3293 0.6322
vn -0.3558 -0.3016 -0.8846
vn 0.7942 -0.2536 -0.5521
vn -0.4086 0.0329 0.9121
vn 0.3729 -0.1637 0.9133
vn -0.7152 -0.3523 -0.6036
vn 0.4967 -0.1923 -0.8463
vn -0.1564 -0.0761 0.9848
vn 0.7640 -0.1867 0.6177
vn -0.8871 -0.4481 -0.1111
vn -0.8833 0.1805 -0.4326
vn 0.2826 0.2608 -0.9231
vn 0.7044 0.5674 0.4264
vn -0.4980 -0.3325 0.8009
vn -0.2542 0.0368 -0.9664
vn 0.7728 -0.2262 -0.5930
vn 0.1164 -0.1854 0.9758
vn 0.3762 0.0973 0.9214
vn -0.9224 -0.3099 -0.2304
vn -0.2972 -0.7551 -0.5844
vn -0.5218 0.1503 0.8397
vn 0.9690 0.1611 0.1875
vn 0.9935 0.1056 0.0432
vn -0.9939 -0.1091 0.0166
vn -0.3778 -0.7320 -0.5669
vn 0.8518 0.5229 0.0306
vn -0.8593 0.0666 0.5072
vn -0.0653 0.1637 -0.9843
vn 0.7691 0.4701 -0.4331
vn 0.5550 -0.4524 0.6981
vn 0.2834 0.0916 0.9546
vn -0.9044 -0.3054 -0.2980
vn -0.2049 -0.9018 -0.3806
vn -0.4523 -0.0199 0.8916
vn 0.7968 0.2638 0.5436
vn -0.4235 0.1741 0.8890
vn 0.4731 0.3145 -0.8229
vn -0.8020 -0.0592 -0.5944
vn 0.3992 -0.0314 0.9163
vn -0.3480 0.2975 0.8890
vn 0.5324 -0.1715 -0.8289
vn -0.4069 -0.2286 -0.8844
vn -0.4610 -0.0647 0.8850
vn 0.9484 0.1135 0.2962
vn 0.2229 0.2227 -0.9491
vn -0.9456 -0.1976 -0.2585
vn -0.8547 -0.5159 -0.0579
vn 0.7195 -0.3985 0.5688
vn -0.0464 -0.3581 0.9325
vn 0.4657 -0.3835 -0.7976
vn -0.6895 -0.4440 -0.5722
vn 0.3646 -0.3614 0.8582
vn -0.3946 -0.4004 0.8270
vn 0.8129 -0.4208 -0.4026
vn -0.3139 -0.4496 -0.8362
vn -0.7063 -0.4803 0.5201
vn 0.9055 -0.4052 0.1259
vn 0.0842 -0.4065 -0.9098
vn -0.0698 0.9683 -0.2397
vn -0.1617 0.9797 -0.1187
vn 0.0158 0.9998 -0.0080
vn 0.0339 0.9994 -0.0049
vn 0.0544 0.9944 -0.0910
vn 0.0522 0.9929 -0.1070
vn 0.0312 0.9936 0.1081
vn 0.0105 0.9944 0.1052
vn -0.0592 0.9982 0.0014
vn 0.0554 0.9981 -0.0283
vn 0.0455 0.9969 -0.0640
vn 0.0092 0.9971 -0.0751
vn -0.1483 0.4962 -0.8554
vn -0.5484 0.5750 -0.6071
vn -0.7443 0.5692 -0.3493
vn -0.8338 0.5464 0.0796
vn -0.6465 0.5635 0.5143
vn -0.2624 0.6131 0.7451
vn 0.0984 0.5500 0.8294
vn 0.4572 0.5897 0.6657
vn 0.7644 0.5785 0.2847
vn 0.7723 0.5811 -0.2566
vn 0.4841 0.5778 -0.6571
vn 0.1828 0.5513 -0.8141
vn -0.0719 0.0721 -0.9948
vn -0.6316 0.0458 -0.7739
vn -0.8968 0.0377 -0.4409
vn -0.9568 0.2110 0.2002
vn -0.5557 -0.1302 0.8211
vn -0.3458 -0.0679 0.9359
vn 0.1167 0.2279 0.9667
vn 0.6354 0.2272 0.7380
vn 0.8380 0.2793 0.4688
vn 0.8812 0.3720 -0.2917
vn 0.3740 -0.1505 -0.9151
vn 0.4466 -0.2207 -0.8671
vn 0.3168 -0.1390 -0.9382
vn -0.8809 -0.1130 -0.4597
vn -0.9410 -0.3127 -0.1293
vn -0.8154 -0.5752 -0.0656
vn -0.3274 0.6868 0.6490
vn 0.3874 0.8292 0.4029
vn -0.1942 -0.2137 0.9574
vn 0.6851 0.1567 0.7114
vn 0.9675 0.2528 0.0058
vn 0.9876 -0.1562 0.0178
vn -0.0693 0.4604 -0.8850
vn -0.0021 0.0254 -0.9997
vn 0.4155 -0.6179 -0.6675
vn -0.7505 -0.4887 -0.4448
vn -0.6602 -0.7185 0.2189
vn 0.2280 -0.9152 0.3322
vn -0.3147 -0.1156 0.9421
vn 0.5529 0.4265 0.7159
vn 0.4022 -0.4070 0.8201
vn 0.3595 -0.7436 0.5637
vn 0.9530 -0.1302 -0.2735
vn 0.5794 -0.7976 -0.1676
vn 0.3716 -0.3416 -0.8632
vn -0.2599 -0.6398 -0.7232
vn 0.8212 -0.0588 0.5676
vn 0.9442 0.1626 -0.2863
vn -0.2954 -0.3329 0.8955
vn -0.0841 -0.1893 0.9783
vn -0.7144 -0.4638 -0.5240
vn -0.9856 -0.1021 0.1346
vn -0.0336 0.1240 -0.9917
vn 0.7625 0.2703 0.5878
vn -0.0250 0.4993 0.8661
vn 0.4899 -0.1613 -0.8567
vn 0.1637 -0.0921 -0.9822
vn -0.8479 -0.1007 -0.5205
vn -0.2478 0.3239 0.9131
vn 0.1172 0.3186 0.9406
vn -0.8891 0.2841 -0.3589
vn -0.9232 0.3585 0.1388
vn 0.8455 0.4771 -0.2397
vn 0.5589 0.2686 -0.7845
vn 0.5584 0.3563 0.7492
vn -0.6338 0.3606 0.6843
vn 0.2932 0.1649 -0.9417
vn -0.1479 0.1876 -0.9710
vn -0.5722 0.2216 -0.7896
vn 0.8192 0.4296 0.3800
vn -0.2241 0.9441 -0.2420
vn -0.0170 0.9984 -0.0547
vn -0.0285 0.9996 -0.0002
vn 0.0508 0.9975 -0.0496
vn 0.0449 0.9942 -0.0976
vn 0.0375 0.9957 -0.0847
vn 0.0023 0.9983 0.0585
vn -0.0508 0.9974 0.0507
vn 0.0624 0.9980 -0.0075
vn 0.0765 0.9952 -0.0618
vn 0.0234 0.9975 -0.0671
vn -0.0227 0.9958 -0.0884
vn -0.4023 0.5202 -0.7534
vn -0.6333 0.5945 -0.4954
vn -0.8248 0.5464 -0.1454
vn -0.7669 0.5572 0.3184
vn -0.4743 0.5913 0.6522
vn -0.1161 0.5809 0.8056
vn 0.3149 0.5654 0.7623
vn 0.6300 0.5869 0.5086
vn 0.8176 0.5756 0.0124
vn 0.6482 0.5839 -0.4887
vn 0.3265 0.5729 -0.7518
vn 0.0552 0.5157 -0.8550
vn 0.4144 0.6551 -0.6318
vn 0.1863 0.6307 -0.7534
vn -0.1526 0.5468 -0.8232
vn -0.6206 0.6162 -0.4849
vn 0.4367 0.6698 0.6006
vn 0.6775 0.6943 0.2429
vn -0.5330 0.7475 0.3966
vn -0.2497 0.7679 0.5899
vn -0.6367 0.6835 -0.3571
vn 0.6911 0.6624 -0.2892
vn 0.0453 0.6600 0.7499
vn -0.7095 0.7025 0.0557
vn -0.3957 0.1302 -0.9091
vn -0.7796 -0.0390 -0.6251
vn -0.9668 0.1667 -0.1939
vn -0.6969 0.0878 0.7118
vn -0.5728 -0.1780 0.8002
vn -0.1029 0.1061 0.9890
vn 0.3858 0.2665 0.8832
vn 0.7520 0.1956 0.6294
vn 0.9115 0.3836 0.1480
vn 0.6424 0.1503 -0.7515
vn 0.3720 -0.2611 -0.8908
vn 0.3025 -0.0918 -0.9487
vn -0.2654 0.3766 0.8876
vn 0.1213 0.2898 0.9494
vn -0.8427 0.3981 -0.3623
vn -0.9386 0.3174 0.1349
vn 0.8200 0.5193 -0.2408
vn 0.4795 0.1254 -0.8685
vn 0.5753 0.3224 0.7517
vn -0.6364 0.1451 0.7575
vn 0.3835 -0.0359 -0.9229
vn -0.1395 0.3439 -0.9286
vn -0.5694 0.1548 -0.8074
vn 0.8220 0.4025 0.4028
vn -0.3688 -0.1121 -0.9227
vn -0.9902 -0.1161 -0.0777
vn -0.7505 -0.5649 -0.3431
vn -0.8487 -0.1250 0.5138
vn 0.2992 0.9214 0.2482
vn 0.0021 0.3512 0.9363
vn 0.1541 -0.1824 0.9711
vn 0.9089 0.3847 0.1606
vn 0.9417 -0.0848 0.3256
vn 0.6897 0.1639 -0.7053
vn -0.4271 0.3736 -0.8234
vn 0.5188 -0.1586 -0.8401
vn 0.8289 0.0461 0.5575
vn 0.9896 -0.0100 -0.1438
vn -0.3957 -0.3956 0.8288
vn -0.2198 -0.3343 0.9165
vn -0.7957 -0.2841 -0.5349
vn -0.9215 -0.3883 0.0018
vn -0.1601 0.3901 -0.9068
vn 0.7376 0.2921 0.6087
vn -0.0519 0.7787 0.6252
vn 0.3513 -0.0617 -0.9342
vn 0.0550 -0.0550 -0.9970
vn -0.8894 -0.0711 -0.4515
vn -0.3362 -0.8044 -0.4898
vn -0.6210 -0.7838 0.0092
vn -0.0840 -0.9852 0.1496
vn -0.1005 -0.8488 0.5191
vn 0.1568 0.1808 0.9709
vn 0.5133 0.1416 0.8464
vn 0.1187 -0.5689 0.8138
vn 0.8469 -0.5313 0.0202
vn 0.6380 -0.7699 -0.0153
vn 0.6605 -0.6302 -0.4082
vn -0.3791 -0.1827 -0.9071
vn 0.3051 -0.4666 -0.8302
vn -0.8180 -0.1415 -0.5576
vn -0.9802 -0.1685 0.1041
vn 0.8897 0.3952 -0.2286
vn 0.9831 -0.1654 0.0781
vn 0.4610 0.8750 0.1477
vn 0.0131 0.2068 0.9783
vn -0.6755 -0.7371 0.0176
vn 0.2561 0.4263 -0.8676
vn 0.5902 -0.0431 0.8061
vn -0.5146 0.3787 0.7693
vn -0.3259 0.2367 -0.9153
vn 0.3695 -0.0465 -0.9281
vn 0.9260 0.0091 0.3773
vn 0.9046 0.2741 -0.3265
vn 0.0438 0.2934 0.9550
vn 0.0492 0.0540 0.9973
vn -0.8012 -0.4478 -0.3970
vn -0.9694 0.0958 0.2261
vn 0.1890 -0.2096 -0.9593
vn 0.7181 0.2072 0.6643
vn -0.3117 -0.0077 0.9501
vn 0.4943 -0.2581 -0.8301
vn 0.2424 -0.1267 -0.9619
vn -0.7503 -0.0649 -0.6579
vn -0.8745 -0.3032 -0.3786
vn 0.4927 -0.1553 -0.8562
vn -0.0751 0.1627 0.9838
vn 0.8923 0.1231 0.4343
vn -0.3938 -0.0459 -0.9180
vn 0.2029 -0.0511 -0.9779
vn -0.5528 0.3615 0.7508
vn 0.3645 0.1480 0.9194
vn 0.3684 0.2360 -0.8992
vn -0.8143 -0.4126 -0.4082
vn -0.3178 -0.4373 0.8413
vn 0.9175 -0.0144 0.3976
vn -0.2533 0.2741 0.9277
vn 0.1095 0.4371 0.8927
vn -0.9031 0.2351 -0.3593
vn -0.8999 0.4144 0.1362
vn 0.8606 0.4439 -0.2497
vn 0.5580 0.4294 -0.7101
vn 0.5151 0.4453 0.7324
vn -0.6608 0.4119 0.6274
vn 0.2127 0.3807 -0.8999
vn -0.1425 0.1625 -0.9764
vn -0.5594 0.3905 -0.7312
vn 0.8086 0.4792 0.3414
vn 0.8771 0.4721 0.0879
vn -0.7569 0.2664 -0.5968
vn 0.0677 0.1980 -0.9779
vn -0.4272 0.3402 0.8377
vn 0.7094 0.3818 0.5925
vn -0.3623 0.1841 -0.9137
vn 0.4455 0.1584 -0.8811
vn -0.8128 0.3839 0.4382
vn 0.3386 0.3381 0.8781
vn 0.7188 0.4097 -0.5617
vn -0.9445 0.3038 -0.1250
vn -0.0818 0.3106 0.9470
vn 0.2853 0.6478 -0.7064
vn -0.4827 0.5519 -0.6800
vn 0.5704 0.6955 0.4371
vn -0.3927 0.7674 0.5068
vn 0.0942 0.5902 -0.8018
vn -0.6015 0.6701 -0.4350
vn 0.7353 0.6773 -0.0246
vn -0.1821 0.7258 0.6634
vn -0.7093 0.6859 -0.1622
vn 0.5711 0.6596 -0.4886
vn 0.3307 0.6354 0.6978
vn -0.6406 0.7271 0.2469
vn -0.0697 0.2895 0.9546
vn -0.9486 0.2817 -0.1443
vn 0.7016 0.3290 -0.6321
vn 0.3559 0.3015 0.8846
vn -0.7946 0.2541 0.5514
vn 0.4085 -0.0324 -0.9122
vn -0.3728 0.1634 -0.9134
vn 0.7153 0.3524 0.6035
vn -0.4968 0.1921 0.8464
vn 0.1561 0.0763 -0.9848
vn -0.7640 0.1865 -0.6176
vn 0.8873 0.4478 0.1108
vn 0.8837 -0.1812 0.4315
vn -0.2824 -0.2621 0.9228
vn -0.7052 -0.5671 -0.4255
vn 0.4996 0.3322 -0.8000
vn 0.2546 -0.0362 0.9664
vn -0.7747 0.2248 0.5910
vn -0.1160 0.1863 -0.9756
vn -0.3764 -0.0977 -0.9213
vn 0.9219 0.3098 0.2325
vn 0.2939 0.7555 0.5855
vn 0.5220 -0.1510 -0.8395
vn -0.9686 -0.1609 -0.1893
vn -0.9934 -0.1057 -0.0438
vn 0.9939 0.1089 -0.0193
vn 0.3785 0.7311 0.5676
vn -0.8524 -0.5221 -0.0298
vn 0.8591 -0.0647 -0.5077
vn 0.0661 -0.1644 0.9842
vn -0.7698 -0.4666 0.4356
vn -0.5554 0.4534 -0.6971
vn -0.2827 -0.0912 -0.9549
vn 0.9042 0.3054 0.2985
vn 0.2037 0.9017 0.3813
vn 0.4546 0.0177 -0.8905
vn -0.7975 -0.2620 -0.5434
vn 0.4230 -0.1737 -0.8893
vn -0.4737 -0.3142 0.8227
vn 0.8020 0.0604 0.5942
vn -0.3993 0.0305 -0.9163
vn 0.3485 -0.2974 -0.8889
vn -0.5346 0.1706 0.8277
vn 0.4069 0.2278 0.8846
vn 0.4636 0.0641 -0.8837
vn -0.9489 -0.1128 -0.2947
vn -0.2227 -0.2223 0.9492
vn 0.9461 0.1980 0.2565
vn 0.8547 0.5158 0.0579
vn -0.7195 0.3985 -0.5688
vn 0.0464 0.3581 -0.9325
vn -0.4656 0.3839 0.7974
vn 0.6895 0.4442 0.5721
vn -0.3646 0.3614 -0.8581
vn 0.3946 0.4004 -0.8270
vn -0.8129 0.4209 0.4025
vn 0.3140 0.4496 0.8362
vn 0.7063 0.4802 -0.5200
vn -0.9055 0.4053 -0.1259
vn -0.0842 0.4066 0.9097
vt 0.555560 0.978929
vt 0.430006 0.978903
vt 0.431404 0.958230
vt 0.553787 0.959318
vt 0.299861 0.942338
vt 0.301547 0.918008
vt 0.319872 0.899926
vt 0.438019 0.934897
vt 0.549546 0.936361
vt 0.083090 0.729011
vt 0.036384 0.584121
vt 0.057007 0.571643
vt 0.097108 0.705846
vt 0.037998 0.411236
vt 0.062936 0.395772
vt 0.081344 0.447242
vt 0.082964 0.586999
vt 0.127717 0.715104
vt 0.971815 0.571065
vt 0.937341 0.691976
vt 0.924351 0.679932
vt 0.957795 0.550846
vt 0.885053 0.785558
vt 0.868170 0.779386
vt 0.868815 0.740255
vt 0.913187 0.644819
vt 0.936029 0.530867
vt 0.398928 0.033120
vt 0.509396 0.021115
vt 0.474269 0.049731
vt 0.391351 0.061376
vt 0.638129 0.040110
vt 0.578809 0.051470
vt 0.611896 0.080714
vt 0.509933 0.069110
vt 0.423078 0.079036
vt 0.178192 0.859879
vt 0.181752 0.830108
vt 0.210604 0.824604
vt 0.081097 0.278445
vt 0.112995 0.265873
vt 0.124835 0.202487
vt 0.150959 0.208188
vt 0.155135 0.248245
vt 0.110111 0.331963
vt 0.817178 0.861814
vt 0.807278 0.846821
vt 0.744660 0.913768
vt 0.738411 0.897166
vt 0.736342 0.873027
vt 0.809734 0.816059
vt 0.781098 0.112901
vt 0.725332 0.101241
vt 0.900525 0.244598
vt 0.873870 0.237819
vt 0.865485 0.255426
vt 0.739963 0.135826
vt 0.175429 0.144861
vt 0.194638 0.162259
vt 0.233379 0.099454
vt 0.250410 0.119749
vt 0.271453 0.134440
vt 0.206991 0.183797
vt 0.659261 0.953696
vt 0.654729 0.935895
vt 0.649583 0.913759
vt 0.964654 0.401525
vt 0.944871 0.387746
vt 0.926484 0.397739
vt 0.308719 0.060841
vt 0.316290 0.086812
vt 0.344369 0.099765
vt 0.651081 0.143350
vt 0.746025 0.198696
vt 0.735325 0.216064
vt 0.647543 0.165054
vt 0.831071 0.288821
vt 0.814575 0.301173
vt 0.798857 0.315436
vt 0.724119 0.234073
vt 0.642531 0.186908
vt 0.179365 0.283175
vt 0.234223 0.212971
vt 0.249052 0.224502
vt 0.195985 0.291454
vt 0.303307 0.162865
vt 0.315915 0.177250
vt 0.325869 0.194370
vt 0.263092 0.238158
vt 0.213457 0.299483
vt 0.717890 0.837347
vt 0.638621 0.874701
vt 0.634421 0.855445
vt 0.708195 0.820830
vt 0.548148 0.896432
vt 0.549508 0.877577
vt 0.548073 0.858870
vt 0.630039 0.837433
vt 0.698888 0.803822
vt 0.880543 0.400542
vt 0.861807 0.408684
vt 0.895399 0.516026
vt 0.876037 0.520200
vt 0.856547 0.524726
vt 0.841934 0.416267
vt 0.381171 0.132366
vt 0.393876 0.150781
vt 0.466722 0.118389
vt 0.477169 0.139421
vt 0.483365 0.158555
vt 0.400258 0.168617
vt 0.446247 0.897061
vt 0.453284 0.879790
vt 0.339688 0.867621
vt 0.348859 0.852494
vt 0.358071 0.836480
vt 0.457390 0.861892
vt 0.166598 0.705156
vt 0.125024 0.591517
vt 0.142842 0.587715
vt 0.182352 0.696588
vt 0.120877 0.475476
vt 0.139917 0.476503
vt 0.159730 0.477741
vt 0.161723 0.583519
vt 0.198486 0.686706
vt 0.878004 0.621456
vt 0.857748 0.622629
vt 0.838987 0.711752
vt 0.820199 0.705799
vt 0.800794 0.700514
vt 0.837377 0.623953
vt 0.556712 0.119468
vt 0.560736 0.141817
vt 0.568367 0.164363
vt 0.241522 0.800844
vt 0.255037 0.789200
vt 0.267546 0.774995
vt 0.139941 0.371638
vt 0.157622 0.376477
vt 0.176191 0.381006
vt 0.785292 0.783905
vt 0.770832 0.771343
vt 0.756209 0.758523
vt 0.763560 0.680821
vt 0.726184 0.730888
vt 0.712019 0.716687
vt 0.747541 0.666557
vt 0.678130 0.768712
vt 0.664502 0.753333
vt 0.654583 0.736537
vt 0.702087 0.699145
vt 0.733904 0.650746
vt 0.634102 0.229698
vt 0.703915 0.272141
vt 0.698676 0.295766
vt 0.629492 0.250162
vt 0.766571 0.342819
vt 0.752129 0.359556
vt 0.739233 0.377363
vt 0.691308 0.316226
vt 0.627141 0.269781
vt 0.252729 0.316011
vt 0.296028 0.263815
vt 0.314336 0.275571
vt 0.272277 0.324017
vt 0.349423 0.227751
vt 0.365117 0.243262
vt 0.377747 0.261084
vt 0.329954 0.289710
vt 0.289529 0.335423
vt 0.611953 0.799997
vt 0.604572 0.780932
vt 0.537757 0.818497
vt 0.538113 0.798224
vt 0.534013 0.781800
vt 0.596524 0.764854
vt 0.801987 0.434273
vt 0.781232 0.441544
vt 0.816254 0.528307
vt 0.796459 0.528321
vt 0.777244 0.531179
vt 0.762316 0.452519
vt 0.419612 0.208222
vt 0.427050 0.225878
vt 0.484960 0.206895
vt 0.489342 0.226114
vt 0.495791 0.242567
vt 0.436348 0.243510
vt 0.459986 0.821536
vt 0.463475 0.801414
vt 0.374389 0.801298
vt 0.383925 0.783561
vt 0.392981 0.765225
vt 0.464209 0.783503
vt 0.235554 0.669328
vt 0.201396 0.576231
vt 0.222043 0.575210
vt 0.253772 0.661427
vt 0.203397 0.478947
vt 0.225646 0.479519
vt 0.244575 0.485842
vt 0.242472 0.574685
vt 0.271482 0.654452
vt 0.797593 0.616361
vt 0.781255 0.604265
vt 0.763780 0.598402
vt 0.553225 0.208056
vt 0.553875 0.228422
vt 0.559705 0.247394
vt 0.296266 0.745962
vt 0.311672 0.731646
vt 0.326799 0.719569
vt 0.216069 0.389109
vt 0.235369 0.395760
vt 0.254485 0.397863
vt 0.272326 0.396652
vt 0.252906 0.504753
vt 0.301479 0.346631
vt 0.312735 0.354063
vt 0.287497 0.396199
vt 0.262153 0.514930
vt 0.695651 0.680960
vt 0.725917 0.634016
vt 0.655328 0.717800
vt 0.656227 0.699642
vt 0.686355 0.670312
vt 0.716284 0.621620
vt 0.688180 0.339362
vt 0.627702 0.291326
vt 0.724621 0.392000
vt 0.707260 0.393880
vt 0.673392 0.348844
vt 0.624332 0.308564
vt 0.336668 0.308430
vt 0.383874 0.278675
vt 0.389023 0.294025
vt 0.345524 0.321606
vt 0.598658 0.748814
vt 0.527030 0.766876
vt 0.518659 0.752265
vt 0.604232 0.733042
vt 0.747214 0.455029
vt 0.757439 0.531965
vt 0.740342 0.530726
vt 0.733536 0.454397
vt 0.439543 0.260442
vt 0.504316 0.258297
vt 0.514376 0.272585
vt 0.440852 0.277033
vt 0.464423 0.766672
vt 0.397624 0.748884
vt 0.403097 0.731695
vt 0.466487 0.750005
vt 0.260554 0.579127
vt 0.286784 0.650449
vt 0.272839 0.576901
vt 0.299836 0.642688
vt 0.746728 0.594049
vt 0.729527 0.588102
vt 0.566009 0.264689
vt 0.571651 0.284675
vt 0.343618 0.713441
vt 0.355307 0.704714
vt 0.196161 0.384869
vt 0.181153 0.478198
vt 0.232551 0.308685
vt 0.281253 0.760319
vt 0.365633 0.819190
vt 0.216791 0.677263
vt 0.566340 0.185392
vt 0.484758 0.181206
vt 0.638006 0.207551
vt 0.816657 0.624355
vt 0.836558 0.527490
vt 0.781157 0.692840
vt 0.181499 0.579627
vt 0.458072 0.841893
vt 0.541023 0.839811
vt 0.411250 0.187215
vt 0.336273 0.212004
vt 0.822225 0.426047
vt 0.781566 0.327650
vt 0.619560 0.820257
vt 0.689514 0.785822
vt 0.279544 0.251050
vt 0.713241 0.253241
vt 0.741143 0.744912
vt 0.800254 0.796961
vt 0.857371 0.719077
vt 0.726781 0.855023
vt 0.122205 0.364588
vt 0.101675 0.473059
vt 0.162806 0.273313
vt 0.226724 0.811533
vt 0.328372 0.881945
vt 0.149999 0.713329
vt 0.545262 0.095747
vt 0.453270 0.097806
vt 0.643460 0.117033
vt 0.897732 0.622949
vt 0.915044 0.513868
vt 0.106504 0.595179
vt 0.437149 0.914694
vt 0.545703 0.916042
vt 0.369064 0.114728
vt 0.288783 0.148066
vt 0.900614 0.393450
vt 0.846801 0.273520
vt 0.641082 0.894602
vt 0.218720 0.201214
vt 0.751628 0.174803
vt 0.511027 0.551311
vt 0.509317 0.564260
vt 0.497487 0.561682
vt 0.502698 0.548388
vt 0.484711 0.556479
vt 0.493550 0.543868
vt 0.492790 0.579670
vt 0.476078 0.573749
vt 0.508687 0.582058
vt 0.474690 0.531231
vt 0.460517 0.537367
vt 0.455567 0.524124
vt 0.470076 0.522690
vt 0.457287 0.507676
vt 0.471960 0.511737
vt 0.439008 0.530531
vt 0.437400 0.511047
vt 0.446913 0.548592
vt 0.535199 0.527968
vt 0.545219 0.526370
vt 0.544163 0.539398
vt 0.533386 0.536446
vt 0.540334 0.549891
vt 0.530755 0.543004
vt 0.560650 0.540560
vt 0.555577 0.555147
vt 0.561155 0.523852
vt 0.489975 0.488971
vt 0.484323 0.471246
vt 0.493244 0.471525
vt 0.496598 0.489578
vt 0.503769 0.474578
vt 0.505019 0.492316
vt 0.496775 0.455857
vt 0.511314 0.460765
vt 0.483589 0.454446
vt 0.471731 0.548391
vt 0.484117 0.537703
vt 0.460131 0.563377
vt 0.460504 0.495194
vt 0.475384 0.503720
vt 0.461612 0.488146
vt 0.476883 0.498829
vt 0.439266 0.494375
vt 0.443082 0.481096
vt 0.534869 0.557013
vt 0.527703 0.548413
vt 0.527859 0.561432
vt 0.523224 0.551018
vt 0.547466 0.566818
vt 0.536639 0.575311
vt 0.518037 0.482106
vt 0.516436 0.497230
vt 0.535820 0.494246
vt 0.528830 0.503972
vt 0.528702 0.470807
vt 0.546067 0.487753
vt 0.464443 0.482157
vt 0.478207 0.494679
vt 0.469549 0.477034
vt 0.480860 0.491769
vt 0.449759 0.470203
vt 0.459355 0.461952
vt 0.519378 0.563981
vt 0.517754 0.552184
vt 0.523505 0.580365
vt 0.542149 0.510802
vt 0.533054 0.515463
vt 0.556348 0.506336
vt 0.476366 0.473432
vt 0.484860 0.489758
vt 0.471019 0.456716
vt 0.532354 0.427777
vt 0.539767 0.411070
vt 0.566667 0.428939
vt 0.555759 0.443318
vt 0.590291 0.455323
vt 0.575849 0.465938
vt 0.578953 0.414201
vt 0.606135 0.445092
vt 0.548227 0.393460
vt 0.412950 0.464812
vt 0.399823 0.455123
vt 0.415895 0.433746
vt 0.426279 0.446308
vt 0.435824 0.417059
vt 0.443494 0.431871
vt 0.404382 0.420557
vt 0.427686 0.401799
vt 0.386316 0.444319
vt 0.554315 0.602542
vt 0.563473 0.615964
vt 0.540435 0.626724
vt 0.533985 0.611415
vt 0.513735 0.631079
vt 0.511055 0.615192
vt 0.546895 0.641548
vt 0.516457 0.647570
vt 0.573464 0.629626
vt 0.606510 0.486864
vt 0.589962 0.491992
vt 0.612197 0.520671
vt 0.595394 0.519961
vt 0.624323 0.481517
vt 0.629524 0.522159
vt 0.460219 0.405032
vt 0.463211 0.422562
vt 0.485924 0.398804
vt 0.485301 0.417666
vt 0.456310 0.388525
vt 0.486468 0.381159
vt 0.484764 0.628647
vt 0.486306 0.612667
vt 0.454632 0.617646
vt 0.461299 0.603204
vt 0.483051 0.645059
vt 0.447591 0.632962
vt 0.418935 0.566251
vt 0.405132 0.573940
vt 0.390722 0.543329
vt 0.406500 0.540323
vt 0.385139 0.511381
vt 0.401728 0.513054
vt 0.373490 0.546207
vt 0.367636 0.508960
vt 0.390155 0.581955
vt 0.608975 0.552580
vt 0.593466 0.546477
vt 0.598553 0.579051
vt 0.585053 0.569847
vt 0.624737 0.559742
vt 0.612098 0.589132
vt 0.512164 0.401621
vt 0.508328 0.419712
vt 0.518973 0.384043
vt 0.427451 0.599465
vt 0.438084 0.587489
vt 0.415377 0.612059
vt 0.389040 0.481450
vt 0.404353 0.487455
vt 0.372906 0.474223
vt 0.583104 0.600051
vt 0.571588 0.588747
vt 0.595291 0.611821
vt 0.644243 0.609992
vt 0.662120 0.618057
vt 0.637430 0.650018
vt 0.622970 0.636845
vt 0.607088 0.674504
vt 0.596046 0.658581
vt 0.654525 0.659224
vt 0.618835 0.689831
vt 0.680774 0.622629
vt 0.567559 0.358872
vt 0.581048 0.344369
vt 0.624265 0.376395
vt 0.605197 0.385787
vt 0.658160 0.417303
vt 0.639207 0.424231
vt 0.641733 0.367198
vt 0.677820 0.412853
vt 0.594127 0.332120
vt 0.358944 0.415030
vt 0.346806 0.397821
vt 0.375279 0.368828
vt 0.383192 0.388276
vt 0.408939 0.348027
vt 0.413018 0.368010
vt 0.366626 0.349685
vt 0.403870 0.327237
vt 0.333755 0.380959
vt 0.568947 0.694320
vt 0.559939 0.677697
vt 0.522542 0.703246
vt 0.518291 0.684702
vt 0.578198 0.709641
vt 0.524767 0.719179
vt 0.682897 0.466538
vt 0.662628 0.471916
vt 0.684307 0.523846
vt 0.666204 0.524416
vt 0.703786 0.464607
vt 0.702731 0.526125
vt 0.448885 0.331529
vt 0.450720 0.349345
vt 0.490205 0.320117
vt 0.487201 0.338752
vt 0.448936 0.312341
vt 0.495584 0.303866
vt 0.473942 0.698487
vt 0.475798 0.679810
vt 0.423767 0.682372
vt 0.431313 0.664927
vt 0.471305 0.715918
vt 0.416596 0.700528
vt 0.357357 0.601528
vt 0.341089 0.611949
vt 0.317214 0.555158
vt 0.336394 0.551975
vt 0.307316 0.499267
vt 0.328309 0.501764
vt 0.298143 0.558207
vt 0.287418 0.501645
vt 0.325788 0.623110
vt 0.677250 0.574980
vt 0.658830 0.573249
vt 0.693816 0.580373
vt 0.532992 0.326256
vt 0.522802 0.342025
vt 0.542861 0.311307
vt 0.377496 0.656150
vt 0.389797 0.640314
vt 0.367263 0.672469
vt 0.322941 0.444449
vt 0.339471 0.454511
vt 0.309562 0.429647
vt 0.275003 0.510930
vt 0.298183 0.412488
vt 0.322663 0.367557
vt 0.288526 0.396316
vt 0.313508 0.355224
vt 0.263487 0.515199
vt 0.698412 0.620635
vt 0.672974 0.663274
vt 0.635319 0.696811
vt 0.685704 0.669414
vt 0.655623 0.698708
vt 0.715195 0.620917
vt 0.610740 0.320741
vt 0.662709 0.363223
vt 0.697479 0.410157
vt 0.672375 0.349422
vt 0.706217 0.394200
vt 0.623831 0.309596
vt 0.353049 0.336835
vt 0.396997 0.309355
vt 0.345932 0.322637
vt 0.389439 0.295067
vt 0.590264 0.721624
vt 0.523132 0.735065
vt 0.603612 0.731988
vt 0.518352 0.751204
vt 0.719116 0.459986
vt 0.722552 0.527484
vt 0.732179 0.454374
vt 0.739268 0.530652
vt 0.445408 0.294791
vt 0.503687 0.287936
vt 0.441181 0.278088
vt 0.514637 0.273778
vt 0.468853 0.732368
vt 0.408225 0.714660
vt 0.466767 0.748889
vt 0.403597 0.730870
vt 0.314274 0.634463
vt 0.284605 0.571404
vt 0.273687 0.576678
vt 0.300908 0.642184
vt 0.710307 0.584873
vt 0.728420 0.588071
vt 0.555156 0.298936
vt 0.571474 0.285766
vt 0.362653 0.689508
vt 0.356080 0.703697
vt 0.348525 0.505394
vt 0.356056 0.464800
vt 0.371715 0.431137
vt 0.439436 0.648311
vt 0.402317 0.625732
vt 0.373812 0.591198
vt 0.486935 0.361409
vt 0.522957 0.364801
vt 0.556588 0.376532
vt 0.647563 0.523726
vt 0.641025 0.568147
vt 0.626989 0.599977
vt 0.355140 0.549317
vt 0.517056 0.665409
vt 0.479651 0.662091
vt 0.419597 0.385579
vt 0.453862 0.369530
vt 0.622123 0.433637
vt 0.643265 0.476988
vt 0.584766 0.643792
vt 0.552296 0.658964
vt 0.393241 0.405070
vt 0.591812 0.399028
vt 0.608900 0.624141
vt 0.571132 0.561350
vt 0.560077 0.577430
vt 0.545135 0.589102
vt 0.418488 0.513947
vt 0.420251 0.492620
vt 0.426887 0.473986
vt 0.467849 0.588762
vt 0.448740 0.575436
vt 0.432934 0.558318
vt 0.484909 0.435659
vt 0.503571 0.437439
vt 0.522864 0.443906
vt 0.578700 0.520172
vt 0.577848 0.541658
vt 0.422484 0.536871
vt 0.508843 0.598956
vt 0.488030 0.596397
vt 0.451250 0.446684
vt 0.467673 0.439141
vt 0.560859 0.476553
vt 0.573256 0.497818
vt 0.527801 0.596419
vt 0.437352 0.458743
vt 0.543413 0.457075
vt 0.034224 0.584566
vt 0.035738 0.412188
vt 0.080676 0.729039
vt 0.078460 0.279554
vt 0.122451 0.202362
vt 0.173658 0.143696
vt 0.231456 0.098265
vt 0.306729 0.059430
vt 0.397363 0.031334
vt 0.508932 0.019039
vt 0.638854 0.038190
vt 0.782485 0.111362
vt 0.902820 0.244113
vt 0.966708 0.401178
vt 0.973935 0.571129
vt 0.939425 0.692323
vt 0.886413 0.787165
vt 0.817612 0.864244
vt 0.745216 0.915826
vt 0.660046 0.955630
vt 0.556011 0.980961
vt 0.429761 0.980961
vt 0.298939 0.944196
vt 0.176324 0.860927
s 1
usemtl Material
f 11/1/11 95/2/95 241/3/241 109/4/109
f 95/2/95 12/5/12 110/6/110 241/3/241
f 241/3/241 110/6/110 24/7/24 107/8/107
f 109/4/109 241/3/241 107/8/107 23/9/23
f 1/10/1 85/11/85 242/12/242 111/13/111
f 85/11/85 2/14/2 112/15/112 242/12/242
f 242/12/242 112/15/112 14/16/14 97/17/97
f 111/13/111 242/12/242 97/17/97 13/18/13
f 8/19/8 92/20/92 243/21/243 113/22/113
f 92/20/92 9/23/9 114/24/114 243/21/243
f 243/21/243 114/24/114 21/25/21 104/26/104
f 113/22/113 243/21/243 104/26/104 20/27/20
f 5/28/5 89/29/89 244/30/244 115/31/115
f 89/29/89 6/32/6 116/33/116 244/30/244
f 244/30/244 116/33/116 18/34/18 101/35/101
f 115/31/115 244/30/244 101/35/101 17/36/17
f 12/5/12 96/37/96 245/38/245 110/6/110
f 96/37/96 1/10/1 111/13/111 245/38/245
f 245/38/245 111/13/111 13/18/13 108/39/108
f 110/6/110 245/38/245 108/39/108 24/7/24
f 2/14/2 86/40/86 246/41/246 112/15/112
f 86/40/86 3/42/3 117/43/117 246/41/246
f 246/41/246 117/43/117 15/44/15 98/45/98
f 112/15/112 246/41/246 98/45/98 14/16/14
f 9/23/9 93/46/93 247/47/247 114/24/114
f 93/46/93 10/48/10 118/49/118 247/47/247
f 247/47/247 118/49/118 22/50/22 105/51/105
f 114/24/114 247/47/247 105/51/105 21/25/21
f 6/32/6 90/52/90 248/53/248 116/33/116
f 90/52/90 7/54/7 119/55/119 248/53/248
f 248/53/248 119/55/119 19/56/19 102/57/102
f 116/33/116 248/53/248 102/57/102 18/34/18
f 3/42/3 87/58/87 249/59/249 117/43/117
f 87/58/87 4/60/4 120/61/120 249/59/249
f 249/59/249 120/61/120 16/62/16 99/63/99
f 117/43/117 249/59/249 99/63/99 15/44/15
f 10/48/10 94/64/94 250/65/250 118/49/118
f 94/64/94 11/1/11 109/4/109 250/65/250
f 250/65/250 109/4/109 23/9/23 106/66/106
f 118/49/118 250/65/250 106/66/106 22/50/22
f 7/54/7 91/67/91 251/68/251 119/55/119
f 91/67/91 8/19/8 113/22/113 251/68/251
f 251/68/251 113/22/113 20/27/20 103/69/103
f 119/55/119 251/68/251 103/69/103 19/56/19
f 4/60/4 88/70/88 252/71/252 120/61/120
f 88/70/88 5/28/5 115/31/115 252/71/252
f 252/71/252 115/31/115 17/36/17 100/72/100
f 120/61/120 252/71/252 100/72/100 16/62/16
f 73/73/73 240/74/240 253/75/253 217/76/217
f 240/74/240 74/77/74 134/78/134 253/75/253
f 253/75/253 134/78/134 31/79/31 126/80/126
f 217/76/217 253/75/253 126/80/126 30/81/30
f 75/82/75 239/83/239 254/84/254 219/85/219
f 239/83/239 76/86/76 136/87/136 254/84/254
f 254/84/254 136/87/136 28/88/28 123/89/123
f 219/85/219 254/84/254 123/89/123 27/90/27
f 77/91/77 238/92/238 255/93/255 221/94/221
f 238/92/238 78/95/78 138/96/138 255/93/255
f 255/93/255 138/96/138 35/97/35 130/98/130
f 221/94/221 255/93/255 130/98/130 34/99/34
f 74/77/74 237/100/237 256/101/256 134/78/134
f 237/100/237 79/102/79 139/103/139 256/101/256
f 256/101/256 139/103/139 32/104/32 127/105/127
f 134/78/134 256/101/256 127/105/127 31/79/31
f 76/86/76 236/106/236 257/107/257 136/87/136
f 236/106/236 80/108/80 140/109/140 257/107/257
f 257/107/257 140/109/140 29/110/29 124/111/124
f 136/87/136 257/107/257 124/111/124 28/88/28
f 78/95/78 235/112/235 258/113/258 138/96/138
f 235/112/235 81/114/81 141/115/141 258/113/258
f 258/113/258 141/115/141 36/116/36 131/117/131
f 138/96/138 258/113/258 131/117/131 35/97/35
f 82/118/82 234/119/234 259/120/259 226/121/226
f 234/119/234 83/122/83 143/123/143 259/120/259
f 259/120/259 143/123/143 26/124/26 121/125/121
f 226/121/226 259/120/259 121/125/121 25/126/25
f 79/102/79 233/127/233 260/128/260 139/103/139
f 233/127/233 84/129/84 144/130/144 260/128/260
f 260/128/260 144/130/144 33/131/33 128/132/128
f 139/103/139 260/128/260 128/132/128 32/104/32
f 80/108/80 232/133/232 261/134/261 140/109/140
f 232/133/232 73/73/73 217/76/217 261/134/261
f 261/134/261 217/76/217 30/81/30 125/135/125
f 140/109/140 261/134/261 125/135/125 29/110/29
f 81/114/81 231/136/231 262/137/262 141/115/141
f 231/136/231 82/118/82 226/121/226 262/137/262
f 262/137/262 226/121/226 25/126/25 132/138/132
f 141/115/141 262/137/262 132/138/132 36/116/36
f 83/122/83 230/139/230 263/140/263 143/123/143
f 230/139/230 75/82/75 219/85/219 263/140/263
f 263/140/263 219/85/219 27/90/27 122/141/122
f 143/123/143 263/140/263 122/141/122 26/124/26
f 84/129/84 229/142/229 264/143/264 144/130/144
f 229/142/229 77/91/77 221/94/221 264/143/264
f 264/143/264 221/94/221 34/99/34 129/144/129
f 144/130/144 264/143/264 129/144/129 33/131/33
f 61/145/61 216/146/216 265/147/265 193/148/193
f 216/146/216 62/149/62 158/150/158 265/147/265
f 265/147/265 158/150/158 46/151/46 153/152/153
f 193/148/193 265/147/265 153/152/153 45/153/45
f 63/154/63 215/155/215 266/156/266 195/157/195
f 215/155/215 64/158/64 160/159/160 266/156/266
f 266/156/266 160/159/160 43/160/43 150/161/150
f 195/157/195 266/156/266 150/161/150 42/162/42
f 65/163/65 214/164/214 267/165/267 197/166/197
f 214/164/214 66/167/66 162/168/162 267/165/267
f 267/165/267 162/168/162 40/169/40 147/170/147
f 197/166/197 267/165/267 147/170/147 39/171/39
f 62/149/62 213/172/213 268/173/268 158/150/158
f 213/172/213 67/174/67 163/175/163 268/173/268
f 268/173/268 163/175/163 47/176/47 154/177/154
f 158/150/158 268/173/268 154/177/154 46/151/46
f 64/158/64 212/178/212 269/179/269 160/159/160
f 212/178/212 68/180/68 164/181/164 269/179/269
f 269/179/269 164/181/164 44/182/44 151/183/151
f 160/159/160 269/179/269 151/183/151 43/160/43
f 66/167/66 211/184/211 270/185/270 162/168/162
f 211/184/211 69/186/69 165/187/165 270/185/270
f 270/185/270 165/187/165 41/188/41 148/189/148
f 162/168/162 270/185/270 148/189/148 40/169/40
f 67/174/67 210/190/210 271/191/271 163/175/163
f 210/190/210 70/192/70 166/193/166 271/191/271
f 271/191/271 166/193/166 48/194/48 155/195/155
f 163/175/163 271/191/271 155/195/155 47/176/47
f 71/196/71 209/197/209 272/198/272 203/199/203
f 209/197/209 72/200/72 168/201/168 272/198/272
f 272/198/272 168/201/168 38/202/38 145/203/145
f 203/199/203 272/198/272 145/203/145 37/204/37
f 68/180/68 208/205/208 273/206/273 164/181/164
f 208/205/208 61/145/61 193/148/193 273/206/273
f 273/206/273 193/148/193 45/153/45 152/207/152
f 164/181/164 273/206/273 152/207/152 44/182/44
f 69/186/69 207/208/207 274/209/274 165/187/165
f 207/208/207 63/154/63 195/157/195 274/209/274
f 274/209/274 195/157/195 42/162/42 149/210/149
f 165/187/165 274/209/274 149/210/149 41/188/41
f 70/192/70 206/211/206 275/212/275 166/193/166
f 206/211/206 71/196/71 203/199/203 275/212/275
f 275/212/275 203/199/203 37/204/37 156/213/156
f 166/193/166 275/212/275 156/213/156 48/194/48
f 72/200/72 205/214/205 276/215/276 168/201/168
f 205/214/205 65/163/65 197/166/197 276/215/276
f 276/215/276 197/166/197 39/171/39 146/216/146
f 168/201/168 276/215/276 146/216/146 38/202/38
f 38/202/38 146/216/146 277/217/277 181/218/181
f 146/216/146 39/171/39 182/219/182 277/217/277
f 277/217/277 182/219/182 51/220/51 170/221/170
f 181/218/181 277/217/277 170/221/170 50/222/50
f 45/153/45 153/152/153 278/223/278 183/224/183
f 153/152/153 46/151/46 184/225/184 278/223/278
f 278/223/278 184/225/184 58/226/58 177/227/177
f 183/224/183 278/223/278 177/227/177 57/228/57
f 42/162/42 150/161/150 279/229/279 185/230/185
f 150/161/150 43/160/43 186/231/186 279/229/279
f 279/229/279 186/231/186 55/232/55 174/233/174
f 185/230/185 279/229/279 174/233/174 54/234/54
f 39/171/39 147/170/147 280/235/280 182/219/182
f 147/170/147 40/169/40 187/236/187 280/235/280
f 280/235/280 187/236/187 52/237/52 171/238/171
f 182/219/182 280/235/280 171/238/171 51/220/51
f 46/151/46 154/177/154 281/239/281 184/225/184
f 154/177/154 47/176/47 188/240/188 281/239/281
f 281/239/281 188/240/188 59/241/59 178/242/178
f 184/225/184 281/239/281 178/242/178 58/226/58
f 43/160/43 151/183/151 282/243/282 186/231/186
f 151/183/151 44/182/44 189/244/189 282/243/282
f 282/243/282 189/244/189 56/245/56 175/246/175
f 186/231/186 282/243/282 175/246/175 55/232/55
f 40/169/40 148/189/148 283/247/283 187/236/187
f 148/189/148 41/188/41 190/248/190 283/247/283
f 283/247/283 190/248/190 53/249/53 172/250/172
f 187/236/187 283/247/283 172/250/172 52/237/52
f 47/176/47 155/195/155 284/251/284 188/240/188
f 155/195/155 48/194/48 191/252/191 284/251/284
f 284/251/284 191/252/191 60/253/60 179/254/179
f 188/240/188 284/251/284 179/254/179 59/241/59
f 37/204/37 145/203/145 285/255/285 192/256/192
f 145/203/145 38/202/38 181/218/181 285/255/285
f 285/255/285 181/218/181 50/222/50 169/257/169
f 192/256/192 285/255/285 169/257/169 49/258/49
f 44/182/44 152/207/152 286/259/286 189/244/189
f 152/207/152 45/153/45 183/224/183 286/259/286
f 286/259/286 183/224/183 57/228/57 176/260/176
f 189/244/189 286/259/286 176/260/176 56/245/56
f 41/188/41 149/210/149 287/261/287 190/248/190
f 149/210/149 42/162/42 185/230/185 287/261/287
f 287/261/287 185/230/185 54/234/54 173/262/173
f 190/248/190 287/261/287 173/262/173 53/249/53
f 48/194/48 156/213/156 288/263/288 191/252/191
f 156/213/156 37/204/37 192/256/192 288/263/288
f 288/263/288 192/256/192 49/258/49 180/264/180
f 191/252/191 288/263/288 180/264/180 60/253/60
f 26/124/26 122/141/122 289/265/289 204/266/204
f 122/141/122 27/90/27 161/267/161 289/265/289
f 289/265/289 161/267/161 65/163/65 205/214/205
f 204/266/204 289/265/289 205/214/205 72/200/72
f 36/116/36 132/138/132 290/268/290 202/269/202
f 132/138/132 25/126/25 167/270/167 290/268/290
f 290/268/290 167/270/167 71/196/71 206/211/206
f 202/269/202 290/268/290 206/211/206 70/192/70
f 29/110/29 125/135/125 291/271/291 201/272/201
f 125/135/125 30/81/30 159/273/159 291/271/291
f 291/271/291 159/273/159 63/154/63 207/208/207
f 201/272/201 291/271/291 207/208/207 69/186/69
f 32/104/32 128/132/128 292/274/292 200/275/200
f 128/132/128 33/131/33 157/276/157 292/274/292
f 292/274/292 157/276/157 61/145/61 208/205/208
f 200/275/200 292/274/292 208/205/208 68/180/68
f 25/126/25 121/125/121 293/277/293 167/270/167
f 121/125/121 26/124/26 204/266/204 293/277/293
f 293/277/293 204/266/204 72/200/72 209/197/209
f 167/270/167 293/277/293 209/197/209 71/196/71
f 35/97/35 131/117/131 294/278/294 199/279/199
f 131/117/131 36/116/36 202/269/202 294/278/294
f 294/278/294 202/269/202 70/192/70 210/190/210
f 199/279/199 294/278/294 210/190/210 67/174/67
f 28/88/28 124/111/124 295/280/295 198/281/198
f 124/111/124 29/110/29 201/272/201 295/280/295
f 295/280/295 201/272/201 69/186/69 211/184/211
f 198/281/198 295/280/295 211/184/211 66/167/66
f 31/79/31 127/105/127 296/282/296 196/283/196
f 127/105/127 32/104/32 200/275/200 296/282/296
f 296/282/296 200/275/200 68/180/68 212/178/212
f 196/283/196 296/282/296 212/178/212 64/158/64
f 34/99/34 130/98/130 297/284/297 194/285/194
f 130/98/130 35/97/35 199/279/199 297/284/297
f 297/284/297 199/279/199 67/174/67 213/172/213
f 194/285/194 297/284/297 213/172/213 62/149/62
f 27/90/27 123/89/123 298/286/298 161/267/161
f 123/89/123 28/88/28 198/281/198 298/286/298
f 298/286/298 198/281/198 66/167/66 214/164/214
f 161/267/161 298/286/298 214/164/214 65/163/65
f 30/81/30 126/80/126 299/287/299 159/273/159
f 126/80/126 31/79/31 196/283/196 299/287/299
f 299/287/299 196/283/196 64/158/64 215/155/215
f 159/273/159 299/287/299 215/155/215 63/154/63
f 33/131/33 129/144/129 300/288/300 157/276/157
f 129/144/129 34/99/34 194/285/194 300/288/300
f 300/288/300 194/285/194 62/149/62 216/146/216
f 157/276/157 300/288/300 216/146/216 61/145/61
f 21/25/21 105/51/105 301/289/301 228/290/228
f 105/51/105 22/50/22 137/291/137 301/289/301
f 301/289/301 137/291/137 77/91/77 229/142/229
f 228/290/228 301/289/301 229/142/229 84/129/84
f 14/16/14 98/45/98 302/292/302 227/293/227
f 98/45/98 15/44/15 135/294/135 302/292/302
f 302/292/302 135/294/135 75/82/75 230/139/230
f 227/293/227 302/292/302 230/139/230 83/122/83
f 24/7/24 108/39/108 303/295/303 225/296/225
f 108/39/108 13/18/13 142/297/142 303/295/303
f 303/295/303 142/297/142 82/118/82 231/136/231
f 225/296/225 303/295/303 231/136/231 81/114/81
f 17/36/17 101/35/101 304/298/304 224/299/224
f 101/35/101 18/34/18 133/300/133 304/298/304
f 304/298/304 133/300/133 73/73/73 232/133/232
f 224/299/224 304/298/304 232/133/232 80/108/80
f 20/27/20 104/26/104 305/301/305 223/302/223
f 104/26/104 21/25/21 228/290/228 305/301/305
f 305/301/305 228/290/228 84/129/84 233/127/233
f 223/302/223 305/301/305 233/127/233 79/102/79
f 13/18/13 97/17/97 306/303/306 142/297/142
f 97/17/97 14/16/14 227/293/227 306/303/306
f 306/303/306 227/293/227 83/122/83 234/119/234
f 142/297/142 306/303/306 234/119/234 82/118/82
f 23/9/23 107/8/107 307/304/307 222/305/222
f 107/8/107 24/7/24 225/296/225 307/304/307
f 307/304/307 225/296/225 81/114/81 235/112/235
f 222/305/222 307/304/307 235/112/235 78/95/78
f 16/62/16 100/72/100 308/306/308 220/307/220
f 100/72/100 17/36/17 224/299/224 308/306/308
f 308/306/308 224/299/224 80/108/80 236/106/236
f 220/307/220 308/306/308 236/106/236 76/86/76
f 19/56/19 103/69/103 309/308/309 218/309/218
f 103/69/103 20/27/20 223/302/223 309/308/309
f 309/308/309 223/302/223 79/102/79 237/100/237
f 218/309/218 309/308/309 237/100/237 74/77/74
f 22/50/22 106/66/106 310/310/310 137/291/137
f 106/66/106 23/9/23 222/305/222 310/310/310
f 310/310/310 222/305/222 78/95/78 238/92/238
f 137/291/137 310/310/310 238/92/238 77/91/77
f 15/44/15 99/63/99 311/311/311 135/294/135
f 99/63/99 16/62/16 220/307/220 311/311/311
f 311/311/311 220/307/220 76/86/76 239/83/239
f 135/294/135 311/311/311 239/83/239 75/82/75
f 18/34/18 102/57/102 312/312/312 133/300/133
f 102/57/102 19/56/19 218/309/218 312/312/312
f 312/312/312 218/309/218 74/77/74 240/74/240
f 133/300/133 312/312/312 240/74/240 73/73/73
f 323/313/323 421/314/421 553/315/553 407/316/407
f 407/316/407 553/315/553 422/317/422 324/318/324
f 553/315/553 419/319/419 336/320/336 422/317/422
f 421/314/421 335/321/335 419/319/419 553/315/553
f 313/322/313 423/323/423 554/324/554 397/325/397
f 397/325/397 554/324/554 424/326/424 314/327/314
f 554/324/554 409/328/409 326/329/326 424/326/424
f 423/323/423 325/330/325 409/328/409 554/324/554
f 320/331/320 425/332/425 555/333/555 404/334/404
f 404/334/404 555/333/555 426/335/426 321/336/321
f 555/333/555 416/337/416 333/338/333 426/335/426
f 425/332/425 332/339/332 416/337/416 555/333/555
f 317/340/317 427/341/427 556/342/556 401/343/401
f 401/343/401 556/342/556 428/344/428 318/345/318
f 556/342/556 413/346/413 330/347/330 428/344/428
f 427/341/427 329/348/329 413/346/413 556/342/556
f 324/318/324 422/317/422 557/349/557 408/350/408
f 408/350/408 557/349/557 423/323/423 313/322/313
f 557/349/557 420/351/420 325/330/325 423/323/423
f 422/317/422 336/320/336 420/351/420 557/349/557
f 314/327/314 424/326/424 558/352/558 398/353/398
f 398/353/398 558/352/558 429/354/429 315/355/315
f 558/352/558 410/356/410 327/357/327 429/354/429
f 424/326/424 326/329/326 410/356/410 558/352/558
f 321/336/321 426/335/426 559/358/559 405/359/405
f 405/359/405 559/358/559 430/360/430 322/361/322
f 559/358/559 417/362/417 334/363/334 430/360/430
f 426/335/426 333/338/333 417/362/417 559/358/559
f 318/345/318 428/344/428 560/364/560 402/365/402
f 402/365/402 560/364/560 431/366/431 319/367/319
f 560/364/560 414/368/414 331/369/331 431/366/431
f 428/344/428 330/347/330 414/368/414 560/364/560
f 315/355/315 429/354/429 561/370/561 399/371/399
f 399/371/399 561/370/561 432/372/432 316/373/316
f 561/370/561 411/374/411 328/375/328 432/372/432
f 429/354/429 327/357/327 411/374/411 561/370/561
f 322/361/322 430/360/430 562/376/562 406/377/406
f 406/377/406 562/376/562 421/314/421 323/313/323
f 562/376/562 418/378/418 335/321/335 421/314/421
f 430/360/430 334/363/334 418/378/418 562/376/562
f 319/367/319 431/366/431 563/379/563 403/380/403
f 403/380/403 563/379/563 425/332/425 320/331/320
f 563/379/563 415/381/415 332/339/332 425/332/425
f 431/366/431 331/369/331 415/381/415 563/379/563
f 316/373/316 432/372/432 564/382/564 400/383/400
f 400/383/400 564/382/564 427/341/427 317/340/317
f 564/382/564 412/384/412 329/348/329 427/341/427
f 432/372/432 328/375/328 412/384/412 564/382/564
f 385/385/385 529/386/529 565/387/565 552/388/552
f 552/388/552 565/387/565 446/389/446 386/390/386
f 565/387/565 438/391/438 343/392/343 446/389/446
f 529/386/529 342/393/342 438/391/438 565/387/565
f 387/394/387 531/395/531 566/396/566 551/397/551
f 551/397/551 566/396/566 448/398/448 388/399/388
f 566/396/566 435/400/435 340/401/340 448/398/448
f 531/395/531 339/402/339 435/400/435 566/396/566
f 389/403/389 533/404/533 567/405/567 550/406/550
f 550/406/550 567/405/567 450/407/450 390/408/390
f 567/405/567 442/409/442 347/410/347 450/407/450
f 533/404/533 346/411/346 442/409/442 567/405/567
f 386/390/386 446/389/446 568/412/568 549/413/549
f 549/413/549 568/412/568 451/414/451 391/415/391
f 568/412/568 439/416/439 344/417/344 451/414/451
f 446/389/446 343/392/343 439/416/439 568/412/568
f 388/399/388 448/398/448 569/418/569 548/419/548
f 548/419/548 569/418/569 452/420/452 392/421/392
f 569/418/569 436/422/436 341/423/341 452/420/452
f 448/398/448 340/401/340 436/422/436 569/418/569
f 390/408/390 450/407/450 570/424/570 547/425/547
f 547/425/547 570/424/570 453/426/453 393/427/393
f 570/424/570 443/428/443 348/429/348 453/426/453
f 450/407/450 347/410/347 443/428/443 570/424/570
f 394/430/394 538/431/538 571/432/571 546/433/546
f 546/433/546 571/432/571 455/434/455 395/435/395
f 571/432/571 433/436/433 338/437/338 455/434/455
f 538/431/538 337/438/337 433/436/433 571/432/571
f 391/415/391 451/414/451 572/439/572 545/440/545
f 545/440/545 572/439/572 456/441/456 396/442/396
f 572/439/572 440/443/440 345/444/345 456/441/456
f 451/414/451 344/417/344 440/443/440 572/439/572
f 392/421/392 452/420/452 573/445/573 544/446/544
f 544/446/544 573/445/573 529/386/529 385/385/385
f 573/445/573 437/447/437 342/393/342 529/386/529
f 452/420/452 341/423/341 437/447/437 573/445/573
f 393/427/393 453/426/453 574/448/574 543/449/543
f 543/449/543 574/448/574 538/431/538 394/430/394
f 574/448/574 444/450/444 337/438/337 538/431/538
f 453/426/453 348/429/348 444/450/444 574/448/574
f 395/435/395 455/434/455 575/451/575 542/452/542
f 542/452/542 575/451/575 531/395/531 387/394/387
f 575/451/575 434/453/434 339/402/339 531/395/531
f 455/434/455 338/437/338 434/453/434 575/451/575
f 396/442/396 456/441/456 576/454/576 541/455/541
f 541/455/541 576/454/576 533/404/533 389/403/389
f 576/454/576 441/456/441 346/411/346 533/404/533
f 456/441/456 345/444/345 441/456/441 576/454/576
f 373/457/373 505/458/505 577/459/577 528/460/528
f 528/460/528 577/459/577 470/461/470 374/462/374
f 577/459/577 465/463/465 358/464/358 470/461/470
f 505/458/505 357/465/357 465/463/465 577/459/577
f 375/466/375 507/467/507 578/468/578 527/469/527
f 527/469/527 578/468/578 472/470/472 376/471/376
f 578/468/578 462/472/462 355/473/355 472/470/472
f 507/467/507 354/474/354 462/472/462 578/468/578
f 377/475/377 509/476/509 579/477/579 526/478/526
f 526/478/526 579/477/579 474/479/474 378/480/378
f 579/477/579 459/481/459 352/482/352 474/479/474
f 509/476/509 351/483/351 459/481/459 579/477/579
f 374/462/374 470/461/470 580/484/580 525/485/525
f 525/485/525 580/484/580 475/486/475 379/487/379
f 580/484/580 466/488/466 359/489/359 475/486/475
f 470/461/470 358/464/358 466/488/466 580/484/580
f 376/471/376 472/470/472 581/490/581 524/491/524
f 524/491/524 581/490/581 476/492/476 380/493/380
f 581/490/581 463/494/463 356/495/356 476/492/476
f 472/470/472 355/473/355 463/494/463 581/490/581
f 378/480/378 474/479/474 582/496/582 523/497/523
f 523/497/523 582/496/582 477/498/477 381/499/381
f 582/496/582 460/500/460 353/501/353 477/498/477
f 474/479/474 352/482/352 460/500/460 582/496/582
f 379/487/379 475/486/475 583/502/583 522/503/522
f 522/503/522 583/502/583 478/504/478 382/505/382
f 583/502/583 467/506/467 360/507/360 478/504/478
f 475/486/475 359/489/359 467/506/467 583/502/583
f 383/508/383 515/509/515 584/510/584 521/511/521
f 521/511/521 584/510/584 480/512/480 384/513/384
f 584/510/584 457/514/457 350/515/350 480/512/480
f 515/509/515 349/516/349 457/514/457 584/510/584
f 380/493/380 476/492/476 585/517/585 520/518/520
f 520/518/520 585/517/585 505/458/505 373/457/373
f 585/517/585 464/519/464 357/465/357 505/458/505
f 476/492/476 356/495/356 464/519/464 585/517/585
f 381/499/381 477/498/477 586/520/586 519/521/519
f 519/521/519 586/520/586 507/467/507 375/466/375
f 586/520/586 461/522/461 354/474/354 507/467/507
f 477/498/477 353/501/353 461/522/461 586/520/586
f 382/505/382 478/504/478 587/523/587 518/524/518
f 518/524/518 587/523/587 515/509/515 383/508/383
f 587/523/587 468/525/468 349/516/349 515/509/515
f 478/504/478 360/507/360 468/525/468 587/523/587
f 384/513/384 480/512/480 588/526/588 517/527/517
f 517/527/517 588/526/588 509/476/509 377/475/377
f 588/526/588 458/528/458 351/483/351 509/476/509
f 480/512/480 350/515/350 458/528/458 588/526/588
f 350/515/350 493/529/493 589/530/589 458/528/458
f 458/528/458 589/530/589 494/531/494 351/483/351
f 589/530/589 482/532/482 363/533/363 494/531/494
f 493/529/493 362/534/362 482/532/482 589/530/589
f 357/465/357 495/535/495 590/536/590 465/463/465
f 465/463/465 590/536/590 496/537/496 358/464/358
f 590/536/590 489/538/489 370/539/370 496/537/496
f 495/535/495 369/540/369 489/538/489 590/536/590
f 354/474/354 497/541/497 591/542/591 462/472/462
f 462/472/462 591/542/591 498/543/498 355/473/355
f 591/542/591 486/544/486 367/545/367 498/543/498
f 497/541/497 366/546/366 486/544/486 591/542/591
f 351/483/351 494/531/494 592/547/592 459/481/459
f 459/481/459 592/547/592 499/548/499 352/482/352
f 592/547/592 483/549/483 364/550/364 499/548/499
f 494/531/494 363/533/363 483/549/483 592/547/592
f 358/464/358 496/537/496 593/551/593 466/488/466
f 466/488/466 593/551/593 500/552/500 359/489/359
f 593/551/593 490/553/490 371/554/371 500/552/500
f 496/537/496 370/539/370 490/553/490 593/551/593
f 355/473/355 498/543/498 594/555/594 463/494/463
f 463/494/463 594/555/594 501/556/501 356/495/356
f 594/555/594 487/557/487 368/558/368 501/556/501
f 498/543/498 367/545/367 487/557/487 594/555/594
f 352/482/352 499/548/499 595/559/595 460/500/460
f 460/500/460 595/559/595 502/560/502 353/501/353
f 595/559/595 484/561/484 365/562/365 502/560/502
f 499/548/499 364/550/364 484/561/484 595/559/595
f 359/489/359 500/552/500 596/563/596 467/506/467
f 467/506/467 596/563/596 503/564/503 360/507/360
f 596/563/596 491/565/491 372/566/372 503/564/503
f 500/552/500 371/554/371 491/565/491 596/563/596
f 349/516/349 504/567/504 597/568/597 457/514/457
f 457/514/457 597/568/597 493/529/493 350/515/350
f 597/568/597 481/569/481 362/534/362 493/529/493
f 504/567/504 361/570/361 481/569/481 597/568/597
f 356/495/356 501/556/501 598/571/598 464/519/464
f 464/519/464 598/571/598 495/535/495 357/465/357
f 598/571/598 488/572/488 369/540/369 495/535/495
f 501/556/501 368/558/368 488/572/488 598/571/598
f 353/501/353 502/560/502 599/573/599 461/522/461
f 461/522/461 599/573/599 497/541/497 354/474/354
f 599/573/599 485/574/485 366/546/366 497/541/497
f 502/560/502 365/562/365 485/574/485 599/573/599
f 360/507/360 503/564/503 600/575/600 468/525/468
f 468/525/468 600/575/600 504/567/504 349/516/349
f 600/575/600 492/576/492 361/570/361 504/567/504
f 503/564/503 372/566/372 492/576/492 600/575/600
f 338/437/338 516/577/516 601/578/601 434/453/434
f 434/453/434 601/578/601 473/579/473 339/402/339
f 601/578/601 517/527/517 377/475/377 473/579/473
f 516/577/516 384/513/384 517/527/517 601/578/601
f 348/429/348 514/580/514 602/581/602 444/450/444
f 444/450/444 602/581/602 479/582/479 337/438/337
f 602/581/602 518/524/518 383/508/383 479/582/479
f 514/580/514 382/505/382 518/524/518 602/581/602
f 341/423/341 513/583/513 603/584/603 437/447/437
f 437/447/437 603/584/603 471/585/471 342/393/342
f 603/584/603 519/521/519 375/466/375 471/585/471
f 513/583/513 381/499/381 519/521/519 603/584/603
f 344/417/344 512/586/512 604/587/604 440/443/440
f 440/443/440 604/587/604 469/588/469 345/444/345
f 604/587/604 520/518/520 373/457/373 469/588/469
f 512/586/512 380/493/380 520/518/520 604/587/604
f 337/438/337 479/582/479 605/589/605 433/436/433
f 433/436/433 605/589/605 516/577/516 338/437/338
f 605/589/605 521/511/521 384/513/384 516/577/516
f 479/582/479 383/508/383 521/511/521 605/589/605
f 347/410/347 511/590/511 606/591/606 443/428/443
f 443/428/443 606/591/606 514/580/514 348/429/348
f 606/591/606 522/503/522 382/505/382 514/580/514
f 511/590/511 379/487/379 522/503/522 606/591/606
f 340/401/340 510/592/510 607/593/607 436/422/436
f 436/422/436 607/593/607 513/583/513 341/423/341
f 607/593/607 523/497/523 381/499/381 513/583/513
f 510/592/510 378/480/378 523/497/523 607/593/607
f 343/392/343 508/594/508 608/595/608 439/416/439
f 439/416/439 608/595/608 512/586/512 344/417/344
f 608/595/608 524/491/524 380/493/380 512/586/512
f 508/594/508 376/471/376 524/491/524 608/595/608
f 346/411/346 506/596/506 609/597/609 442/409/442
f 442/409/442 609/597/609 511/590/511 347/410/347
f 609/597/609 525/485/525 379/487/379 511/590/511
f 506/596/506 374/462/374 525/485/525 609/597/609
f 339/402/339 473/579/473 610/598/610 435/400/435
f 435/400/435 610/598/610 510/592/510 340/401/340
f 610/598/610 526/478/526 378/480/378 510/592/510
f 473/579/473 377/475/377 526/478/526 610/598/610
f 342/393/342 471/585/471 611/599/611 438/391/438
f 438/391/438 611/599/611 508/594/508 343/392/343
f 611/599/611 527/469/527 376/471/376 508/594/508
f 471/585/471 375/466/375 527/469/527 611/599/611
f 345/444/345 469/588/469 612/600/612 441/456/441
f 441/456/441 612/600/612 506/596/506 346/411/346
f 612/600/612 528/460/528 374/462/374 506/596/506
f 469/588/469 373/457/373 528/460/528 612/600/612
f 333/338/333 540/601/540 613/602/613 417/362/417
f 417/362/417 613/602/613 449/603/449 334/363/334
f 613/602/613 541/455/541 389/403/389 449/603/449
f 540/601/540 396/442/396 541/455/541 613/602/613
f 326/329/326 539/604/539 614/605/614 410/356/410
f 410/356/410 614/605/614 447/606/447 327/357/327
f 614/605/614 542/452/542 387/394/387 447/606/447
f 539/604/539 395/435/395 542/452/542 614/605/614
f 336/320/336 537/607/537 615/608/615 420/351/420
f 420/351/420 615/608/615 454/609/454 325/330/325
f 615/608/615 543/449/543 394/430/394 454/609/454
f 537/607/537 393/427/393 543/449/543 615/608/615
f 329/348/329 536/610/536 616/611/616 413/346/413
f 413/346/413 616/611/616 445/612/445 330/347/330
f 616/611/616 544/446/544 385/385/385 445/612/445
f 536/610/536 392/421/392 544/446/544 616/611/616
f 332/339/332 535/613/535 617/614/617 416/337/416
f 416/337/416 617/614/617 540/601/540 333/338/333
f 617/614/617 545/440/545 396/442/396 540/601/540
f 535/613/535 391/415/391 545/440/545 617/614/617
f 325/330/325 454/609/454 618/615/618 409/328/409
f 409/328/409 618/615/618 539/604/539 326/329/326
f 618/615/618 546/433/546 395/435/395 539/604/539
f 454/609/454 394/430/394 546/433/546 618/615/618
f 335/321/335 534/616/534 619/617/619 419/319/419
f 419/319/419 619/617/619 537/607/537 336/320/336
f 619/617/619 547/425/547 393/427/393 537/607/537
f 534/616/534 390/408/390 547/425/547 619/617/619
f 328/375/328 532/618/532 620/619/620 412/384/412
f 412/384/412 620/619/620 536/610/536 329/348/329
f 620/619/620 548/419/548 392/421/392 536/610/536
f 532/618/532 388/399/388 548/419/548 620/619/620
f 331/369/331 530/620/530 621/621/621 415/381/415
f 415/381/415 621/621/621 535/613/535 332/339/332
f 621/621/621 549/413/549 391/415/391 535/613/535
f 530/620/530 386/390/386 549/413/549 621/621/621
f 334/363/334 449/603/449 622/622/622 418/378/418
f 418/378/418 622/622/622 534/616/534 335/321/335
f 622/622/622 550/406/550 390/408/390 534/616/534
f 449/603/449 389/403/389 550/406/550 622/622/622
f 327/357/327 447/606/447 623/623/623 411/374/411
f 411/374/411 623/623/623 532/618/532 328/375/328
f 623/623/623 551/397/551 388/399/388 532/618/532
f 447/606/447 387/394/387 551/397/551 623/623/623
f 330/347/330 445/612/445 624/624/624 414/368/414
f 414/368/414 624/624/624 530/620/530 331/369/331
f 624/624/624 552/388/552 386/390/386 530/620/530
f 445/612/445 385/385/385 552/388/552 624/624/624
f 2/14/2 85/11/85 397/625/397 314/626/314
f 85/11/85 1/10/1 313/627/313 397/625/397
f 3/42/3 86/40/86 398/628/398 315/629/315
f 86/40/86 2/14/2 314/626/314 398/628/398
f 4/60/4 87/58/87 399/630/399 316/631/316
f 87/58/87 3/42/3 315/629/315 399/630/399
f 5/28/5 88/70/88 400/632/400 317/633/317
f 88/70/88 4/60/4 316/631/316 400/632/400
f 6/32/6 89/29/89 401/634/401 318/635/318
f 89/29/89 5/28/5 317/633/317 401/634/401
f 7/54/7 90/52/90 402/636/402 319/637/319
f 90/52/90 6/32/6 318/635/318 402/636/402
f 8/19/8 91/67/91 403/638/403 320/639/320
f 91/67/91 7/54/7 319/637/319 403/638/403
f 9/23/9 92/20/92 404/640/404 321/641/321
f 92/20/92 8/19/8 320/639/320 404/640/404
f 10/48/10 93/46/93 405/642/405 322/643/322
f 93/46/93 9/23/9 321/641/321 405/642/405
f 11/1/11 94/64/94 406/644/406 323/645/323
f 94/64/94 10/48/10 322/643/322 406/644/406
f 12/5/12 95/2/95 407/646/407 324/647/324
f 95/2/95 11/1/11 323/645/323 407/646/407
f 1/10/1 96/37/96 408/648/408 313/627/313
f 96/37/96 12/5/12 324/647/324 408/648/408
f 169/257/169 50/222/50 362/534/362 481/569/481
f 49/258/49 169/257/169 481/569/481 361/570/361
f 170/221/170 51/220/51 363/533/363 482/532/482
f 50/222/50 170/221/170 482/532/482 362/534/362
f 171/238/171 52/237/52 364/550/364 483/549/483
f 51/220/51 171/238/171 483/549/483 363/533/363
f 172/250/172 53/249/53 365/562/365 484/561/484
f 52/237/52 172/250/172 484/561/484 364/550/364
f 173/262/173 54/234/54 366/546/366 485/574/485
f 53/249/53 173/262/173 485/574/485 365/562/365
f 174/233/174 55/232/55 367/545/367 486/544/486
f 54/234/54 174/233/174 486/544/486 366/546/366
f 175/246/175 56/245/56 368/558/368 487/557/487
f 55/232/55 175/246/175 487/557/487 367/545/367
f 176/260/176 57/228/57 369/540/369 488/572/488
f 56/245/56 176/260/176 488/572/488 368/558/368
f 177/227/177 58/226/58 370/539/370 489/538/489
f 57/228/57 177/227/177 489/538/489 369/540/369
f 178/242/178 59/241/59 371/554/371 490/553/490
f 58/226/58 178/242/178 490/553/490 370/539/370
f 179/254/179 60/253/60 372/566/372 491/565/491
f 59/241/59 179/254/179 491/565/491 371/554/371
f 180/264/180 49/258/49 361/570/361 492/576/492
f 60/253/60 180/264/180 492/576/492 372/566/372
