# Blender 5.2.2 LTS
# www.blender.org
mtllib Grass.mtl
o GrassyGround
v 13.055948 0.164327 11.256768
v 12.114703 0.164327 14.216781
v 13.055947 3.270388 11.256768
v 12.114702 3.270388 14.216781
v 11.105319 0.164327 12.266151
v 14.065331 0.164327 13.207397
v 11.105319 3.270388 12.266152
v 14.065331 3.270388 13.207397
v 11.958198 0.164327 16.617348
v 13.971181 0.164327 14.092254
v 11.958198 3.393599 16.617348
v 13.971181 3.393599 14.092254
v 14.227236 0.164327 16.361292
v 11.702143 0.164327 14.348309
v 14.227236 3.393599 16.361292
v 11.702143 3.393599 14.348309
v 10.324492 0.164327 16.015617
v 11.284632 0.164327 12.927091
v 10.324492 3.398653 16.015617
v 11.284632 3.398653 12.927091
v 12.348825 0.164327 14.951424
v 9.260298 0.164327 13.991283
v 12.348825 3.398653 14.951424
v 9.260298 3.398653 13.991283
v -11.207644 0.164327 10.484907
v -13.539794 0.164327 12.898378
v -11.207644 3.520480 10.484907
v -13.539794 3.520480 12.898378
v -13.580455 0.164327 10.525568
v -11.166984 0.164327 12.857718
v -13.580455 3.520481 10.525568
v -11.166984 3.520481 12.857718
v -10.808533 0.164327 14.366832
v -15.131615 0.164327 13.299813
v -10.808533 4.617143 14.366832
v -15.131615 4.617143 13.299813
v -12.436564 0.164327 11.671782
v -13.503583 0.164327 15.994864
v -12.436564 4.617143 11.671782
v -13.503583 4.617143 15.994864
v -7.450006 0.164327 12.765205
v -10.877796 0.164327 12.920494
v -7.450006 3.595633 12.765205
v -10.877796 3.595633 12.920494
v -9.241546 0.164327 11.128954
v -9.086257 0.164327 14.556746
v -9.241546 3.595634 11.128954
v -9.086257 3.595634 14.556746
v -9.481283 0.164327 14.307824
v -10.816931 0.164327 11.826591
v -9.481283 2.982211 14.307824
v -10.816931 2.982211 11.826591
v -8.908490 0.164327 12.399384
v -11.389724 0.164327 13.735031
v -8.908490 2.982211 12.399384
v -11.389724 2.982211 13.735031
v -8.564681 0.164327 13.591384
v -12.335240 0.164327 10.502850
v -8.564681 5.038357 13.591383
v -12.335240 5.038357 10.502849
v -8.905693 0.164327 10.161837
v -11.994228 0.164327 13.932396
v -8.905693 5.038357 10.161837
v -11.994228 5.038357 13.932396
v -2.876410 0.164327 15.348303
v -5.367556 0.164327 13.843069
v -2.876410 3.074918 15.348303
v -5.367556 3.074918 13.843069
v -3.369365 0.164327 13.350113
v -4.874600 0.164327 15.841259
v -3.369365 3.074918 13.350113
v -4.874600 3.074918 15.841259
v -5.121462 0.164327 16.885725
v -3.757182 0.164327 13.767386
v -5.121462 3.568046 16.885725
v -3.757181 3.568046 13.767386
v -2.880152 0.164327 16.008698
v -5.998492 0.164327 14.644416
v -2.880152 3.568046 16.008698
v -5.998492 3.568046 14.644416
v -1.394388 0.164327 12.003199
v -1.202571 0.164327 15.707346
v -1.394389 3.873438 12.003199
v -1.202571 3.873438 15.707346
v -3.150554 0.164327 13.951181
v 0.553594 0.164327 13.759363
v -3.150554 3.873438 13.951181
v 0.553594 3.873438 13.759363
v -4.802829 0.164327 13.478311
v -1.322922 0.164327 15.737971
v -4.802829 4.313521 13.478311
v -1.322922 4.313521 15.737971
v -4.192706 0.164327 16.348095
v -1.933045 0.164327 12.868187
v -4.192706 4.313521 16.348095
v -1.933045 4.313521 12.868187
v 5.222543 0.164327 13.976860
v 1.397772 0.164327 13.485451
v 5.222543 4.020536 13.976860
v 1.397772 4.020536 13.485451
v 3.555862 0.164327 11.818769
v 3.064453 0.164327 15.643541
v 3.555862 4.020536 11.818769
v 3.064453 4.020536 15.643541
v 0.632371 0.164327 13.509121
v 2.603776 0.164327 15.702736
v 0.632371 3.113629 13.509121
v 2.603776 3.113629 15.702736
v 0.521266 0.164327 15.591631
v 2.714880 0.164327 13.620226
v 0.521266 3.113629 15.591631
v 2.714881 3.113629 13.620226
v 6.761385 0.164327 11.852143
v 6.105186 0.164327 14.626327
v 6.761385 3.015062 11.852143
v 6.105186 3.015062 14.626327
v 5.046194 0.164327 12.911136
v 7.820377 0.164327 13.567334
v 5.046194 3.015062 12.911136
v 7.820377 3.015062 13.567334
v 2.771676 0.164327 14.940955
v 5.560338 0.164327 15.008389
v 2.771676 2.953804 14.940955
v 5.560338 2.953804 15.008389
v 4.132289 0.164327 16.369003
v 4.199724 0.164327 13.580341
v 4.132289 2.953804 16.369003
v 4.199724 2.953804 13.580341
v 12.225549 0.164327 13.579598
v 8.865188 0.164327 12.558314
v 12.225549 3.676456 13.579598
v 8.865188 3.676456 12.558314
v 11.056010 0.164327 11.388776
v 10.034726 0.164327 14.749137
v 11.056010 3.676456 11.388776
v 10.034726 3.676456 14.749137
v 7.738415 0.164327 12.839490
v 6.639305 0.164327 16.644878
v 7.738415 4.125264 12.839490
v 6.639305 4.125264 16.644878
v 5.286166 0.164327 14.192629
v 9.091554 0.164327 15.291739
v 5.286166 4.125265 14.192629
v 9.091554 4.125265 15.291739
v 11.525826 0.164327 -12.453210
v 7.123360 0.164327 -11.324021
v 11.525826 4.709299 -12.453210
v 7.123360 4.709299 -11.324021
v 8.759998 0.164327 -14.089849
v 9.889187 0.164327 -9.687383
v 8.759998 4.709300 -14.089849
v 9.889187 4.709300 -9.687383
v 10.011089 0.164327 -6.637947
v 9.151676 0.164327 -10.380186
v 10.011089 4.003981 -6.637947
v 9.151676 4.003981 -10.380186
v 11.452502 0.164327 -8.938773
v 7.710263 0.164327 -8.079359
v 11.452502 4.003982 -8.938774
v 7.710263 4.003982 -8.079360
v 11.227444 0.164327 -8.045056
v 9.358282 0.164327 -6.257179
v 11.227444 2.750883 -8.045056
v 9.358282 2.750883 -6.257179
v 9.398924 0.164327 -8.085699
v 11.186802 0.164327 -6.216537
v 9.398924 2.750884 -8.085699
v 11.186802 2.750884 -6.216537
v 5.604366 0.164327 -6.290182
v 9.130507 0.164327 -6.785536
v 5.604366 3.725092 -6.290182
v 9.130507 3.725092 -6.785536
v 7.615114 0.164327 -4.774788
v 7.119760 0.164327 -8.300930
v 7.615114 3.725093 -4.774788
v 7.119760 3.725093 -8.300930
v 11.131720 0.164327 -1.071072
v 9.222361 0.164327 -2.910425
v 11.131720 2.815528 -1.071072
v 9.222361 2.815528 -2.910425
v 11.096717 0.164327 -2.945428
v 9.257363 0.164327 -1.036069
v 11.096717 2.815528 -2.945428
v 9.257363 2.815528 -1.036070
v 10.196306 0.164327 -2.148703
v 9.098484 0.164327 1.299519
v 10.196306 3.783091 -2.148703
v 9.098484 3.783091 1.299519
v 7.923284 0.164327 -0.973503
v 11.371507 0.164327 0.124319
v 7.923284 3.783091 -0.973503
v 11.371507 3.783091 0.124319
v 8.418605 0.164327 2.785074
v 11.677808 0.164327 0.627539
v 8.418605 4.072952 2.785074
v 11.677808 4.072952 0.627540
v 11.126974 0.164327 3.335908
v 8.969439 0.164327 0.076706
v 11.126974 4.072953 3.335908
v 8.969439 4.072953 0.076705
v 9.616570 0.164327 4.377986
v 8.892233 0.164327 1.130935
v 9.616571 3.491188 4.377986
v 8.892234 3.491188 1.130935
v 10.877928 0.164327 2.392292
v 7.630877 0.164327 3.116630
v 10.877928 3.491189 2.392292
v 7.630877 3.491189 3.116630
v 8.603994 0.164327 3.973835
v 11.021103 0.164327 5.172706
v 8.603994 2.862419 3.973835
v 11.021103 2.862419 5.172707
v 9.213113 0.164327 5.781825
v 10.411984 0.164327 3.364717
v 9.213113 2.862419 5.781825
v 10.411984 2.862419 3.364717
v 6.840316 0.164327 6.083835
v 9.415558 0.164327 6.895753
v 6.840316 2.864527 6.083835
v 9.415558 2.864527 6.895753
v 7.721978 0.164327 7.777415
v 8.533896 0.164327 5.202173
v 7.721978 2.864528 7.777415
v 8.533896 2.864528 5.202173
v 9.440326 0.164327 10.869003
v 9.193921 0.164327 7.039464
v 9.440326 4.001785 10.869003
v 9.193921 4.001785 7.039464
v 11.231894 0.164327 8.831031
v 7.402353 0.164327 9.077435
v 11.231894 4.001786 8.831031
v 7.402353 4.001786 9.077435
v 8.606298 0.164327 10.874314
v 6.407009 0.164327 8.037858
v 8.606298 3.753527 10.874314
v 6.407010 3.753527 8.037858
v 8.924883 0.164327 8.356441
v 6.088425 0.164327 10.555731
v 8.924882 3.753527 8.356441
v 6.088425 3.753527 10.555731
v 9.114938 0.164327 -9.744587
v 4.764683 0.164327 -11.306997
v 9.114938 4.786647 -9.744587
v 4.764683 4.786647 -11.306997
v 7.721015 0.164327 -12.700920
v 6.158605 0.164327 -8.350664
v 7.721015 4.786647 -12.700920
v 6.158605 4.786647 -8.350664
v 4.641603 0.164327 -12.725069
v 4.185744 0.164327 -8.960348
v 4.641602 3.956547 -12.725069
v 4.185743 3.956547 -8.960348
v 2.531312 0.164327 -11.070638
v 6.296033 0.164327 -10.614779
v 2.531312 3.956547 -11.070638
v 6.296033 3.956547 -10.614779
v 7.003123 0.164327 -4.800364
v 4.636806 0.164327 -8.045245
v 7.003123 4.180383 -4.800364
v 4.636806 4.180383 -8.045245
v 7.442405 0.164327 -7.605964
v 4.197524 0.164327 -5.239646
v 7.442405 4.180384 -7.605964
v 4.197524 4.180384 -5.239646
v 4.996280 0.164327 -3.900435
v 7.364887 0.164327 -4.813372
v 4.996280 2.702782 -3.900435
v 7.364887 2.702782 -4.813372
v 6.637052 0.164327 -3.172600
v 5.724115 0.164327 -5.541207
v 6.637052 2.702782 -3.172600
v 5.724115 2.702782 -5.541207
v 5.414905 0.164327 -2.499538
v 7.755528 0.164327 0.711197
v 5.414905 4.137655 -2.499538
v 7.755528 4.137655 0.711197
v 4.979849 0.164327 0.276141
v 8.190584 0.164327 -2.064482
v 4.979849 4.137655 0.276141
v 8.190584 4.137655 -2.064482
v 4.970878 0.164327 -4.736548
v 3.466072 0.164327 -0.524480
v 4.970878 4.637130 -4.736548
v 3.466072 4.637130 -0.524480
v 2.112441 0.164327 -3.382917
v 6.324509 0.164327 -1.878111
v 2.112441 4.637130 -3.382917
v 6.324509 4.637130 -1.878111
v 4.974319 0.164327 11.189823
v 5.015246 0.164327 6.755394
v 4.974319 4.598945 11.189823
v 5.015246 4.598945 6.755394
v 7.211997 0.164327 8.993073
v 2.777568 0.164327 8.952145
v 7.211997 4.598946 8.993073
v 2.777568 4.598946 8.952145
v 3.470946 0.164327 9.935346
v 5.335350 0.164327 12.219764
v 3.470946 3.112982 9.935346
v 5.335349 3.112982 12.219764
v 3.260939 0.164327 12.009756
v 5.545357 0.164327 10.145352
v 3.260939 3.112982 12.009757
v 5.545357 3.112982 10.145353
v 3.798485 0.164327 -9.506664
v 1.167974 0.164327 -9.899045
v 3.798485 2.823941 -9.506665
v 1.167974 2.823941 -9.899046
v 2.679420 0.164327 -11.018110
v 2.287039 0.164327 -8.387600
v 2.679420 2.823942 -11.018110
v 2.287039 2.823942 -8.387600
v 1.866504 0.164327 -9.298795
v 3.924600 0.164327 -11.786937
v 1.866504 3.393353 -9.298795
v 3.924600 3.393353 -11.786937
v 4.139623 0.164327 -9.513818
v 1.651481 0.164327 -11.571914
v 4.139623 3.393353 -9.513818
v 1.651481 3.393353 -11.571914
v 0.096027 0.164327 -10.811915
v 1.727424 0.164327 -7.285821
v 0.096027 4.049530 -10.811915
v 1.727424 4.049530 -7.285821
v -0.851322 0.164327 -8.233170
v 2.674773 0.164327 -9.864567
v -0.851322 4.049531 -8.233170
v 2.674773 4.049531 -9.864567
v 1.805084 0.164327 -6.212661
v 3.062150 0.164327 -8.815502
v 1.805084 3.054828 -6.212661
v 3.062150 3.054828 -8.815502
v 3.735037 0.164327 -6.885548
v 1.132197 0.164327 -8.142614
v 3.735037 3.054828 -6.885548
v 1.132197 3.054828 -8.142614
v 0.475446 0.164327 -8.440211
v 1.762031 0.164327 -4.957009
v 0.475446 3.877546 -8.440211
v 1.762031 3.877546 -4.957009
v -0.622863 0.164327 -6.055318
v 2.860340 0.164327 -7.341903
v -0.622863 3.877547 -6.055318
v 2.860340 3.877547 -7.341903
v 4.044822 0.164327 7.573068
v 1.110045 0.164327 10.941693
v 4.044821 4.632050 7.573068
v 1.110045 4.632050 10.941692
v 0.893121 0.164327 7.789992
v 4.261745 0.164327 10.724769
v 0.893121 4.632050 7.789992
v 4.261745 4.632050 10.724769
v -0.960792 0.164327 9.301938
v 2.854030 0.164327 9.231457
v -0.960792 3.979800 9.301939
v 2.854030 3.979800 9.231458
v 0.981859 0.164327 11.174109
v 0.911378 0.164327 7.359287
v 0.981860 3.979800 11.174109
v 0.911378 3.979800 7.359287
v -0.666951 0.164327 -13.784410
v 0.172782 0.164327 -9.123199
v -0.666951 4.900574 -13.784410
v 0.172782 4.900574 -9.123199
v -2.577690 0.164327 -11.033938
v 2.083521 0.164327 -11.873672
v -2.577690 4.900575 -11.033938
v 2.083521 4.900575 -11.873672
v -3.805732 0.164327 -8.007736
v -3.071845 0.164327 -10.806240
v -3.805732 3.057458 -8.007736
v -3.071845 3.057458 -10.806240
v -2.039537 0.164327 -9.040045
v -4.838040 0.164327 -9.773932
v -2.039537 3.057459 -9.040045
v -4.838040 3.057459 -9.773932
v -0.489479 0.164327 -4.741463
v -1.026168 0.164327 -9.403328
v -0.489479 4.856983 -4.741463
v -1.026168 4.856983 -9.403328
v 1.573109 0.164327 -7.340741
v -3.088756 0.164327 -6.804051
v 1.573109 4.856983 -7.340741
v -3.088756 4.856983 -6.804051
v 0.222265 0.164327 -4.739056
v -2.850461 0.164327 -5.041267
v 0.222265 3.251879 -4.739056
v -2.850461 3.251879 -5.041267
v -1.162992 0.164327 -6.426525
v -1.465204 0.164327 -3.353798
v -1.162993 3.251879 -6.426525
v -1.465204 3.251879 -3.353798
v -2.716295 0.164327 6.234963
v -2.109451 0.164327 1.930139
v -2.716295 4.511714 6.234963
v -2.109451 4.511714 1.930139
v -0.260460 0.164327 4.385973
v -4.565286 0.164327 3.779129
v -0.260460 4.511715 4.385973
v -4.565286 4.511715 3.779129
v -1.007006 0.164327 4.694799
v -4.556216 0.164327 7.543040
v -1.007006 4.715081 4.694798
v -4.556216 4.715081 7.543040
v -4.205732 0.164327 4.344314
v -1.357490 0.164327 7.893525
v -4.205732 4.715082 4.344314
v -1.357490 4.715082 7.893525
v -1.513273 0.164327 8.831847
v -3.856426 0.164327 7.583446
v -1.513273 2.819298 8.831847
v -3.856426 2.819298 7.583446
v -2.060649 0.164327 7.036070
v -3.309050 0.164327 9.379223
v -2.060649 2.819298 7.036070
v -3.309050 2.819298 9.379223
v -3.306963 0.164327 7.961478
v -0.944002 0.164327 10.492035
v -3.306963 3.626596 7.961478
v -0.944002 3.626596 10.492035
v -3.390761 0.164327 10.408237
v -0.860204 0.164327 8.045275
v -3.390761 3.626596 10.408237
v -0.860204 3.626596 8.045275
v -7.278456 0.164327 -13.264900
v -5.560100 0.164327 -10.361410
v -7.278456 3.538197 -13.264900
v -5.560100 3.538197 -10.361410
v -7.871022 0.164327 -10.953977
v -4.967533 0.164327 -12.672334
v -7.871022 3.538197 -10.953977
v -4.967533 3.538197 -12.672334
v -7.589453 0.164327 -9.699944
v -3.952217 0.164327 -8.561971
v -7.589453 3.975425 -9.699944
v -3.952217 3.975425 -8.561971
v -6.339822 0.164327 -7.312340
v -5.201848 0.164327 -10.949575
v -6.339822 3.975425 -7.312340
v -5.201848 3.975425 -10.949575
v -5.433747 0.164327 -5.639353
v -3.294118 0.164327 -7.822723
v -5.433747 3.221305 -5.639353
v -3.294118 3.221305 -7.822723
v -3.272248 0.164327 -5.661223
v -5.455618 0.164327 -7.800853
v -3.272248 3.221306 -5.661223
v -5.455617 3.221306 -7.800853
v -6.564062 0.164327 -6.879672
v -4.589961 0.164327 -4.037724
v -6.564062 3.624637 -6.879672
v -4.589961 3.624637 -4.037724
v -6.997985 0.164327 -4.471647
v -4.156037 0.164327 -6.445748
v -6.997985 3.624637 -4.471647
v -4.156037 3.624637 -6.445748
v -5.500981 0.164327 -5.142931
v -3.121898 0.164327 -1.960385
v -5.500981 4.137818 -5.142931
v -3.121898 4.137818 -1.960385
v -5.902713 0.164327 -2.362116
v -2.720167 0.164327 -4.741199
v -5.902712 4.137819 -2.362116
v -2.720166 4.137819 -4.741199
v -7.380787 0.164327 -2.213754
v -6.426665 0.164327 0.207694
v -7.380787 2.766972 -2.213754
v -6.426665 2.766972 0.207694
v -8.114450 0.164327 -0.525969
v -5.693002 0.164327 -1.480091
v -8.114450 2.766972 -0.525969
v -5.693002 2.766972 -1.480091
v -5.281488 0.164327 4.694757
v -2.241602 0.164327 1.479981
v -5.281488 4.588769 4.694757
v -2.241602 4.588769 1.479981
v -2.154157 0.164327 4.607312
v -5.368933 0.164327 1.567426
v -2.154157 4.588770 4.607312
v -5.368933 4.588770 1.567426
v -8.010136 0.164327 2.274842
v -4.299698 0.164327 3.149234
v -8.010136 3.976401 2.274842
v -4.299698 3.976401 3.149234
v -6.592113 0.164327 4.567257
v -5.717721 0.164327 0.856819
v -6.592113 3.976401 4.567257
v -5.717721 3.976401 0.856819
v -3.723193 0.164327 7.104154
v -5.541276 0.164327 4.729203
v -3.723193 3.155283 7.104154
v -5.541276 3.155283 4.729203
v -3.444759 0.164327 5.007637
v -5.819710 0.164327 6.825721
v -3.444759 3.155284 5.007636
v -5.819710 3.155284 6.825720
v -7.410882 0.164327 4.253132
v -4.354559 0.164327 5.701048
v -7.410882 3.546275 4.253132
v -4.354559 3.546275 5.701048
v -6.606678 0.164327 6.505252
v -5.158762 0.164327 3.448928
v -6.606678 3.546275 6.505252
v -5.158762 3.546275 3.448929
v -5.010314 0.164327 5.272977
v -3.457699 0.164327 9.749747
v -5.010314 4.902690 5.272977
v -3.457699 4.902690 9.749747
v -6.472392 0.164327 8.287669
v -1.995621 0.164327 6.735054
v -6.472392 4.902691 8.287670
v -1.995621 4.902691 6.735054
v -4.742251 0.164327 10.742537
v -5.264757 0.164327 6.767467
v -4.742251 4.173592 10.742537
v -5.264757 4.173592 6.767467
v -3.015969 0.164327 8.493750
v -6.991040 0.164327 9.016255
v -3.015969 4.173592 8.493749
v -6.991040 4.173592 9.016254
v -6.396435 0.164327 8.972268
v -6.328921 0.164327 13.278518
v -6.396435 4.471107 8.972268
v -6.328921 4.471107 13.278518
v -8.515803 0.164327 11.159150
v -4.209553 0.164327 11.091636
v -8.515803 4.471107 11.159150
v -4.209553 4.471107 11.091636
v -3.824320 0.164327 8.643169
v -6.441942 0.164327 12.051678
v -3.824321 4.461987 8.643169
v -6.441943 4.461987 12.051678
v -6.837386 0.164327 9.038612
v -3.428877 0.164327 11.656235
v -6.837386 4.461987 9.038612
v -3.428877 4.461987 11.656235
v -9.617182 0.164327 -12.421265
v -7.501232 0.164327 -10.013359
v -9.617182 3.369831 -12.421265
v -7.501232 3.369831 -10.013359
v -9.763160 0.164327 -10.159337
v -7.355254 0.164327 -12.275288
v -9.763160 3.369831 -10.159336
v -7.355254 3.369831 -12.275287
v -8.646608 0.164327 -11.719053
v -9.525521 0.164327 -9.008352
v -8.646609 3.013957 -11.719053
v -9.525522 3.013957 -9.008352
v -10.441417 0.164327 -10.803160
v -7.730714 0.164327 -9.924247
v -10.441417 3.013957 -10.803159
v -7.730714 3.013957 -9.924246
v -5.229307 0.164327 -6.770488
v -8.987789 0.164327 -7.082029
v -5.229307 3.935698 -6.770488
v -8.987789 3.935698 -7.082029
v -6.952777 0.164327 -8.805500
v -7.264318 0.164327 -5.047018
v -6.952778 3.935699 -8.805500
v -7.264319 3.935699 -5.047018
v -8.496896 0.164327 -6.456082
v -10.372077 0.164327 -3.067948
v -8.496896 4.036762 -6.456082
v -10.372077 4.036762 -3.067948
v -11.128553 0.164327 -5.699606
v -7.740419 0.164327 -3.824425
v -11.128553 4.036763 -5.699606
v -7.740419 4.036763 -3.824425
v -7.428126 0.164327 0.632362
v -7.290300 0.164327 -3.457797
v -7.428125 4.256807 0.632362
v -7.290300 4.256807 -3.457797
v -5.314134 0.164327 -1.343805
v -9.404292 0.164327 -1.481630
v -5.314134 4.256807 -1.343805
v -9.404292 4.256807 -1.481630
v -8.155898 0.164327 -1.254089
v -12.108790 0.164327 -3.958965
v -8.155898 4.954077 -1.254089
v -12.108790 4.954077 -3.958965
v -8.779906 0.164327 -4.582973
v -11.484782 0.164327 -0.630080
v -8.779906 4.954077 -4.582973
v -11.484782 4.954077 -0.630080
v -9.120466 0.164327 1.537472
v -6.719885 0.164327 3.255914
v -9.120466 3.116585 1.537473
v -6.719885 3.116585 3.255914
v -8.779396 0.164327 3.596984
v -7.060955 0.164327 1.196403
v -8.779396 3.116586 3.596984
v -7.060955 3.116586 1.196403
v -11.290410 0.164327 2.975045
v -6.957698 0.164327 1.749962
v -11.290410 4.666906 2.975046
v -6.957698 4.666906 1.749963
v -8.511513 0.164327 4.528860
v -9.736596 0.164327 0.196148
v -8.511512 4.666907 4.528860
v -9.736595 4.666907 0.196148
v -6.606291 0.164327 3.505821
v -9.995377 0.164327 6.917140
v -6.606291 4.972964 3.505821
v -9.995377 4.972964 6.917139
v -10.006493 0.164327 3.516937
v -6.595174 0.164327 6.906023
v -10.006494 4.972965 3.516937
v -6.595174 4.972965 6.906023
v -5.256157 0.164327 6.811328
v -10.017157 0.164327 7.911458
v -5.256157 5.050778 6.811328
v -10.017157 5.050778 7.911458
v -8.186722 0.164327 4.980893
v -7.086592 0.164327 9.741894
v -8.186722 5.050778 4.980893
v -7.086592 5.050778 9.741894
v -8.911369 0.164327 7.566070
v -6.237581 0.164327 9.899955
v -8.911369 3.713435 7.566070
v -6.237581 3.713435 9.899955
v -8.741418 0.164327 10.069906
v -6.407533 0.164327 7.396118
v -8.741418 3.713435 10.069906
v -6.407533 3.713435 7.396118
v -10.200114 0.164327 11.315519
v -7.754178 0.164327 11.200500
v -10.200114 2.612966 11.315519
v -7.754178 2.612966 11.200500
v -8.919637 0.164327 12.480978
v -9.034656 0.164327 10.035042
v -8.919637 2.612967 12.480978
v -9.034656 2.612967 10.035042
v -11.964192 0.164327 -14.370429
v -10.521694 0.164327 -9.947032
v -11.964193 4.816986 -14.370429
v -10.521695 4.816986 -9.947032
v -13.454642 0.164327 -11.437481
v -9.031245 0.164327 -12.879980
v -13.454642 4.816986 -11.437481
v -9.031245 4.816986 -12.879980
v -15.291613 0.164327 -12.782411
v -11.462040 0.164327 -9.836247
v -15.291613 4.996046 -12.782411
v -11.462040 4.996046 -9.836247
v -14.849908 0.164327 -9.394543
v -11.903745 0.164327 -13.224115
v -14.849908 4.996046 -9.394543
v -11.903745 4.996046 -13.224115
v -10.373702 0.164327 -5.292877
v -11.162095 0.164327 -8.525249
v -10.373702 3.491457 -5.292877
v -11.162095 3.491457 -8.525249
v -9.151712 0.164327 -7.303260
v -12.384085 0.164327 -6.514867
v -9.151712 3.491457 -7.303260
v -12.384085 3.491457 -6.514867
v -12.355839 0.164327 -7.862500
v -13.852072 0.164327 -5.340939
v -12.355839 3.096389 -7.862500
v -13.852072 3.096389 -5.340939
v -14.364737 0.164327 -7.349836
v -11.843174 0.164327 -5.853603
v -14.364737 3.096389 -7.349836
v -11.843174 3.096389 -5.853602
v -9.910122 0.164327 -4.278954
v -13.920273 0.164327 -1.630392
v -9.910122 4.970177 -4.278954
v -13.920273 4.970177 -1.630392
v -13.239478 0.164327 -4.959749
v -10.590917 0.164327 -0.949597
v -13.239478 4.970178 -4.959749
v -10.590917 4.970178 -0.949597
v -13.513951 0.164327 -2.301314
v -14.053080 0.164327 0.236751
v -13.513952 2.759021 -2.301314
v -14.053081 2.759021 0.236751
v -15.052548 0.164327 -1.301846
v -12.514483 0.164327 -0.762717
v -15.052548 2.759021 -1.301846
v -12.514483 2.759021 -0.762717
v -12.661607 0.164327 2.491802
v -12.310571 0.164327 -0.467919
v -12.661607 3.144793 2.491802
v -12.310571 3.144793 -0.467919
v -11.006228 0.164327 1.187459
v -13.965949 0.164327 0.836424
v -11.006228 3.144793 1.187459
v -13.965949 3.144793 0.836424
v -12.985372 0.164327 3.420808
v -14.917445 0.164327 0.499135
v -12.985372 3.667052 3.420808
v -14.917445 3.667052 0.499135
v -12.490572 0.164327 0.993934
v -15.412245 0.164327 2.926008
v -12.490572 3.667052 0.993934
v -15.412245 3.667052 2.926008
v -11.723909 0.164327 7.106812
v -10.513983 0.164327 3.470611
v -11.723909 3.996542 7.106812
v -10.513983 3.996542 3.470611
v -9.300846 0.164327 5.893675
v -12.937046 0.164327 4.683748
v -9.300846 3.996543 5.893675
v -12.937046 3.996543 4.683748
v -12.790366 0.164327 7.900414
v -14.491357 0.164327 5.545336
v -12.790366 3.069454 7.900414
v -14.491357 3.069454 5.545336
v -12.463323 0.164327 5.872380
v -14.818400 0.164327 7.573370
v -12.463323 3.069454 5.872380
v -14.818400 3.069454 7.573370
v -12.457447 0.164327 10.548896
v -8.825294 0.164327 10.833133
v -12.457447 3.807584 10.548896
v -8.825294 3.807584 10.833133
v -10.783489 0.164327 12.507091
v -10.499252 0.164327 8.874938
v -10.783489 3.807584 12.507091
v -10.499252 3.807584 8.874938
v -11.724449 0.164327 11.824370
v -15.830582 0.164327 9.526196
v -11.724449 4.869847 11.824370
v -15.830582 4.869847 9.526196
v -12.628428 0.164327 8.622217
v -14.926602 0.164327 12.728350
v -12.628428 4.869848 8.622217
v -14.926602 4.869848 12.728350
v 15.212592 0.164327 -9.613865
v 12.617831 0.164327 -12.680429
v 15.212592 4.181365 -9.613865
v 12.617831 4.181365 -12.680429
v 15.448494 0.164327 -12.444528
v 12.381929 0.164327 -9.849767
v 15.448494 4.181365 -12.444528
v 12.381929 4.181365 -9.849767
v 9.343676 0.164327 -9.288665
v 11.961315 0.164327 -9.219800
v 9.343676 2.782872 -9.288665
v 11.961315 2.782872 -9.219800
v 10.618063 0.164327 -7.945413
v 10.686928 0.164327 -10.563052
v 10.618063 2.782872 -7.945413
v 10.686928 2.782872 -10.563052
v 14.706235 0.164327 -8.652077
v 12.425400 0.164327 -5.739493
v 14.706234 3.863699 -8.652077
v 12.425399 3.863699 -5.739493
v 12.109525 0.164327 -8.336203
v 15.022109 0.164327 -6.055367
v 12.109525 3.863699 -8.336203
v 15.022109 3.863699 -6.055367
v 11.319308 0.164327 -8.832319
v 10.954888 0.164327 -6.089778
v 11.319308 2.930973 -8.832319
v 10.954888 2.930973 -6.089778
v 9.765828 0.164327 -7.643259
v 12.508368 0.164327 -7.278839
v 9.765828 2.930973 -7.643259
v 12.508368 2.930973 -7.278839
v 14.295427 0.164327 -3.987442
v 11.580496 0.164327 -4.393052
v 14.295427 2.909390 -3.987442
v 11.580496 2.909390 -4.393052
v 13.140766 0.164327 -5.547713
v 12.735157 0.164327 -2.832781
v 13.140766 2.909390 -5.547713
v 12.735157 2.909390 -2.832781
v 11.938267 0.164327 -2.105711
v 14.315742 0.164327 -2.994908
v 11.938267 2.702646 -2.105711
v 14.315742 2.702646 -2.994908
v 13.571604 0.164327 -1.361571
v 12.682405 0.164327 -3.739048
v 13.571604 2.702646 -1.361571
v 12.682405 2.702646 -3.739048
v 12.984215 0.164327 -3.793382
v 9.830219 0.164327 -0.630365
v 12.984215 4.631134 -3.793382
v 9.830219 4.631134 -0.630365
v 9.825708 0.164327 -3.788872
v 12.988726 0.164327 -0.634876
v 9.825708 4.631135 -3.788872
v 12.988726 4.631135 -0.634876
v 12.105933 0.164327 1.097637
v 15.429120 0.164327 2.776977
v 12.105933 3.887733 1.097638
v 15.429120 3.887733 2.776977
v 12.927856 0.164327 3.598901
v 14.607197 0.164327 0.275714
v 12.927856 3.887734 3.598901
v 14.607197 3.887734 0.275714
v 9.727444 0.164327 0.846897
v 11.864830 0.164327 3.235959
v 9.727444 3.369952 0.846897
v 11.864830 3.369952 3.235959
v 9.601606 0.164327 3.110121
v 11.990667 0.164327 0.972735
v 9.601606 3.369952 3.110121
v 11.990667 3.369952 0.972735
v 12.824072 0.164327 7.020328
v 11.320374 0.164327 3.577663
v 12.824072 3.921060 7.020328
v 11.320374 3.921060 3.577663
v 13.793555 0.164327 4.547146
v 10.350890 0.164327 6.050845
v 13.793555 3.921061 4.547146
v 10.350890 3.921061 6.050845
v 9.904599 0.164327 6.834309
v 12.802318 0.164327 7.428236
v 9.904599 3.122286 6.834309
v 12.802318 3.122286 7.428236
v 11.056495 0.164327 8.580132
v 11.650421 0.164327 5.682413
v 11.056496 3.122286 8.580132
v 11.650422 3.122286 5.682413
v 12.668384 0.164327 9.591825
v 11.962405 0.164327 7.132535
v 12.668384 2.722943 9.591825
v 11.962405 2.722943 7.132535
v 13.545040 0.164327 8.009192
v 11.085749 0.164327 8.715170
v 13.545040 2.722943 8.009192
v 11.085749 2.722943 8.715170
v 12.295911 0.164327 13.185490
v 11.943300 0.164327 8.678005
v 12.295912 4.685583 13.185490
v 11.943301 4.685583 8.678005
v 14.373349 0.164327 10.755442
v 9.865863 0.164327 11.108053
v 14.373349 4.685584 10.755442
v 9.865863 4.685584 11.108053
v 5.606405 0.164327 3.052758
v 7.230872 0.164327 6.298168
v 5.606405 3.793594 3.052758
v 7.230871 3.793594 6.298168
v 4.795933 0.164327 5.487696
v 8.041344 0.164327 3.863229
v 4.795933 3.793595 5.487696
v 8.041344 3.793595 3.863230
v 0.902162 0.164327 4.415604
v 1.754304 0.164327 9.161398
v 0.902161 4.986018 4.415604
v 1.754304 4.986018 9.161398
v -1.044664 0.164327 7.214572
v 3.701130 0.164327 6.362429
v -1.044664 4.986018 7.214572
v 3.701130 4.986018 6.362429
v -3.563358 0.164327 -1.097583
v -1.339565 0.164327 -3.194385
v -3.563358 3.220768 -1.097583
v -1.339565 3.220768 -3.194385
v -1.403061 0.164327 -1.034087
v -3.499863 0.164327 -3.257880
v -1.403061 3.220768 -1.034088
v -3.499863 3.220768 -3.257880
v 3.670899 0.164327 -4.817871
v 3.025344 0.164327 -0.302798
v 3.670898 4.725316 -4.817871
v 3.025344 4.725316 -0.302798
v 1.090585 0.164327 -2.883112
v 5.605658 0.164327 -2.237558
v 1.090585 4.725317 -2.883112
v 5.605658 4.725317 -2.237557
v -4.018992 0.164327 4.027466
v -1.244849 0.164327 2.755112
v -4.018992 3.216335 4.027466
v -1.244849 3.216335 2.755112
v -1.995744 0.164327 4.778360
v -3.268098 0.164327 2.004218
v -1.995743 3.216335 4.778360
v -3.268098 3.216335 2.004218
v 4.827268 0.164327 0.666814
v 5.222535 0.164327 3.322561
v 4.827268 2.849328 0.666814
v 5.222535 2.849328 3.322561
v 3.697028 0.164327 2.192322
v 6.352775 0.164327 1.797054
v 3.697028 2.849328 2.192322
v 6.352775 2.849328 1.797054
v 5.886791 0.164327 -0.113596
v 4.569125 0.164327 2.697160
v 5.886791 3.268613 -0.113596
v 4.569125 3.268613 2.697160
v 3.822580 0.164327 0.632949
v 6.633336 0.164327 1.950615
v 3.822580 3.268613 0.632949
v 6.633336 3.268613 1.950615
vn -0.9530 -0.0000 -0.3030
vn -0.3030 -0.0000 0.9530
vn 0.7819 -0.0000 0.6234
vn 0.6234 -0.0000 -0.7819
vn 0.9549 -0.0000 0.2969
vn 0.2969 -0.0000 -0.9549
vn -0.7191 -0.0000 -0.6949
vn -0.6949 -0.0000 0.7191
vn 0.2396 -0.0000 -0.9709
vn -0.9709 -0.0000 -0.2396
vn -0.0453 -0.0000 -0.9990
vn -0.9990 -0.0000 0.0453
vn 0.8805 -0.0000 -0.4740
vn -0.4740 -0.0000 -0.8805
vn 0.6337 -0.0000 -0.7736
vn -0.7736 -0.0000 -0.6337
vn 0.5172 -0.0000 -0.8559
vn -0.8559 -0.0000 -0.5172
vn 0.9162 -0.0000 0.4008
vn 0.4008 -0.0000 -0.9162
vn -0.9987 -0.0000 0.0517
vn 0.0517 -0.0000 0.9987
vn -0.5446 -0.0000 0.8387
vn 0.8387 -0.0000 0.5446
vn 0.1274 -0.0000 -0.9918
vn -0.9918 -0.0000 -0.1274
vn -0.7438 -0.0000 0.6684
vn 0.6684 -0.0000 0.7438
vn -0.9731 -0.0000 -0.2302
vn -0.2302 -0.0000 0.9731
vn -0.0242 -0.0000 0.9997
vn 0.9997 -0.0000 0.0242
vn 0.2908 -0.0000 -0.9568
vn -0.9568 -0.0000 -0.2908
vn -0.9607 -0.0000 -0.2775
vn -0.2775 -0.0000 0.9607
vn -0.2484 -0.0000 -0.9686
vn -0.9686 -0.0000 0.2484
vn 0.9746 -0.0000 -0.2238
vn -0.2238 -0.0000 -0.9746
vn -0.6912 -0.0000 -0.7226
vn -0.7226 -0.0000 0.6912
vn 0.1391 -0.0000 0.9903
vn 0.9903 -0.0000 -0.1391
vn 0.6938 -0.0000 -0.7202
vn -0.7202 -0.0000 -0.6938
vn -0.9529 -0.0000 -0.3034
vn -0.3034 -0.0000 0.9529
vn 0.5520 -0.0000 0.8338
vn 0.8338 -0.0000 -0.5520
vn 0.9760 -0.0000 -0.2177
vn -0.2177 -0.0000 -0.9760
vn -0.4443 -0.0000 0.8959
vn 0.8959 -0.0000 0.4443
vn -0.3007 -0.0000 0.9537
vn 0.9537 -0.0000 0.3007
vn 0.9979 -0.0000 -0.0642
vn -0.0642 -0.0000 -0.9979
vn 0.7903 -0.0000 -0.6128
vn -0.6128 -0.0000 -0.7903
vn 0.3380 -0.0000 -0.9411
vn -0.9411 -0.0000 -0.3380
vn -0.9927 -0.0000 -0.1202
vn -0.1202 -0.0000 0.9927
vn 0.8080 -0.0000 -0.5892
vn -0.5892 -0.0000 -0.8080
vn 0.3596 -0.0000 0.9331
vn 0.9331 -0.0000 -0.3596
vn -0.8081 -0.0000 0.5891
vn 0.5891 -0.0000 0.8081
vn -0.9417 -0.0000 -0.3364
vn -0.3364 -0.0000 0.9417
vn 1.0000 -0.0000 0.0092
vn 0.0092 -0.0000 -1.0000
vn -0.7747 -0.0000 0.6323
vn 0.6323 -0.0000 0.7747
vn 0.1475 -0.0000 -0.9891
vn -0.9891 -0.0000 -0.1475
vn 0.7706 -0.0000 0.6374
vn 0.6374 -0.0000 -0.7706
vn -0.9076 -0.0000 0.4199
vn 0.4199 -0.0000 0.9076
vn 0.9005 -0.0000 0.4349
vn 0.4349 -0.0000 -0.9005
vn -0.9381 -0.0000 0.3465
vn 0.3465 -0.0000 0.9381
vn -0.7540 -0.0000 -0.6569
vn -0.6569 -0.0000 0.7540
vn 0.0185 -0.0000 0.9998
vn 0.9998 -0.0000 -0.0185
vn -0.9842 -0.0000 0.1773
vn 0.1773 -0.0000 0.9842
vn 0.9673 -0.0000 0.2537
vn 0.2537 -0.0000 -0.9673
vn 0.9934 -0.0000 -0.1144
vn -0.1144 -0.0000 -0.9934
vn 0.0979 -0.0000 -0.9952
vn -0.9952 -0.0000 -0.0979
vn 0.9902 -0.0000 0.1396
vn 0.1396 -0.0000 -0.9902
vn -0.6259 -0.0000 -0.7799
vn -0.7799 -0.0000 0.6259
vn 0.4702 -0.0000 -0.8826
vn -0.8826 -0.0000 -0.4702
vn -0.7309 -0.0000 0.6825
vn 0.6825 -0.0000 0.7309
vn -0.8606 -0.0000 0.5093
vn 0.5093 -0.0000 0.8606
vn -0.2986 -0.0000 0.9544
vn 0.9544 -0.0000 0.2986
vn 0.7142 -0.0000 0.6999
vn 0.6999 -0.0000 -0.7142
vn -0.8213 -0.0000 0.5705
vn 0.5705 -0.0000 0.8213
vn -0.8009 -0.0000 0.5987
vn 0.5987 -0.0000 0.8009
vn -0.9304 -0.0000 0.3666
vn 0.3666 -0.0000 0.9304
vn 0.7266 -0.0000 0.6871
vn 0.6871 -0.0000 -0.7266
vn -0.2294 -0.0000 0.9733
vn 0.9733 -0.0000 0.2294
vn 0.7940 -0.0000 -0.6079
vn -0.6079 -0.0000 -0.7940
vn -0.4281 -0.0000 0.9037
vn 0.9037 -0.0000 0.4281
vn -0.9448 -0.0000 0.3277
vn 0.3277 -0.0000 0.9448
vn 0.9915 -0.0000 -0.1303
vn -0.1303 -0.0000 -0.9915
vn -0.9999 -0.0000 0.0157
vn 0.0157 -0.0000 0.9999
vn -0.7931 -0.0000 -0.6091
vn -0.6091 -0.0000 0.7931
vn -0.7512 -0.0000 0.6601
vn 0.6601 -0.0000 0.7512
vn -0.9512 -0.0000 -0.3084
vn -0.3084 -0.0000 0.9512
vn 0.0826 -0.0000 -0.9966
vn -0.9966 -0.0000 -0.0826
vn -0.8749 -0.0000 -0.4842
vn -0.4842 -0.0000 0.8749
vn 0.9994 -0.0000 0.0337
vn 0.0337 -0.0000 -0.9994
vn 0.5647 -0.0000 -0.8253
vn -0.8253 -0.0000 -0.5647
vn -0.5821 -0.0000 0.8131
vn 0.8131 -0.0000 0.5821
vn 0.2721 -0.0000 0.9623
vn 0.9623 -0.0000 -0.2721
vn -0.7094 -0.0000 -0.7048
vn -0.7048 -0.0000 0.7094
vn -0.2251 -0.0000 -0.9743
vn -0.9743 -0.0000 0.2251
vn -0.6576 -0.0000 0.7534
vn 0.7534 -0.0000 0.6576
vn 0.0470 -0.0000 0.9989
vn 0.9989 -0.0000 -0.0470
vn -0.9507 -0.0000 0.3100
vn 0.3100 -0.0000 0.9507
vn -0.6098 -0.0000 0.7926
vn 0.7926 -0.0000 0.6098
vn 0.9715 -0.0000 -0.2370
vn -0.2370 -0.0000 -0.9715
vn -0.8600 -0.0000 -0.5103
vn -0.5103 -0.0000 0.8600
vn -0.5511 -0.0000 -0.8344
vn -0.8344 -0.0000 0.5511
vn -0.9782 -0.0000 -0.2078
vn -0.2078 -0.0000 0.9782
vn 0.9930 -0.0000 0.1178
vn 0.1178 -0.0000 -0.9930
vn 0.8341 -0.0000 -0.5516
vn -0.5516 -0.0000 -0.8341
vn 0.9489 -0.0000 0.3157
vn 0.3157 -0.0000 -0.9489
vn 0.8107 -0.0000 -0.5855
vn -0.5855 -0.0000 -0.8107
vn -0.0780 -0.0000 0.9970
vn 0.9970 -0.0000 0.0780
vn 0.4884 -0.0000 -0.8726
vn -0.8726 -0.0000 -0.4884
vn 0.7634 -0.0000 -0.6459
vn -0.6459 -0.0000 -0.7634
vn -0.0263 -0.0000 0.9997
vn 0.9997 -0.0000 0.0263
vn -0.7873 -0.0000 -0.6165
vn -0.6165 -0.0000 0.7873
vn -0.9913 -0.0000 -0.1317
vn -0.1317 -0.0000 0.9913
vn 0.1478 -0.0000 -0.9890
vn -0.9890 -0.0000 -0.1478
vn 0.3503 -0.0000 0.9366
vn 0.9366 -0.0000 -0.3503
vn -0.7081 -0.0000 -0.7061
vn -0.7061 -0.0000 0.7081
vn -0.4510 -0.0000 0.8925
vn 0.8925 -0.0000 0.4510
vn -0.7453 -0.0000 0.6668
vn 0.6668 -0.0000 0.7453
vn 0.9164 -0.0000 -0.4003
vn -0.4003 -0.0000 -0.9164
vn -0.2008 -0.0000 0.9796
vn 0.9796 -0.0000 0.2008
vn 0.9612 -0.0000 -0.2759
vn -0.2759 -0.0000 -0.9612
vn 0.9970 -0.0000 -0.0780
vn -0.0780 -0.0000 -0.9970
vn -0.8942 -0.0000 0.4476
vn 0.4476 -0.0000 0.8942
vn -0.9843 -0.0000 0.1767
vn 0.1767 -0.0000 0.9843
vn 0.6860 -0.0000 0.7276
vn 0.7276 -0.0000 -0.6860
vn -0.9899 -0.0000 -0.1415
vn -0.1415 -0.0000 0.9899
vn 0.4169 -0.0000 0.9090
vn 0.9090 -0.0000 -0.4169
vn -0.9891 -0.0000 0.1472
vn 0.1472 -0.0000 0.9891
vn -0.9054 -0.0000 -0.4245
vn -0.4245 -0.0000 0.9054
vt 0.000000 0.000000
vt 1.000000 0.000000
vt 1.000000 1.000000
vt 0.000000 1.000000
s 0
usemtl Material.001
f 1/1/1 2/2/1 4/3/1 3/4/1
f 5/1/2 6/2/2 8/3/2 7/4/2
f 9/1/3 10/2/3 12/3/3 11/4/3
f 13/1/4 14/2/4 16/3/4 15/4/4
f 17/1/5 18/2/5 20/3/5 19/4/5
f 21/1/6 22/2/6 24/3/6 23/4/6
f 25/1/7 26/2/7 28/3/7 27/4/7
f 29/1/8 30/2/8 32/3/8 31/4/8
f 33/1/9 34/2/9 36/3/9 35/4/9
f 37/1/10 38/2/10 40/3/10 39/4/10
f 41/1/11 42/2/11 44/3/11 43/4/11
f 45/1/12 46/2/12 48/3/12 47/4/12
f 49/1/13 50/2/13 52/3/13 51/4/13
f 53/1/14 54/2/14 56/3/14 55/4/14
f 57/1/15 58/2/15 60/3/15 59/4/15
f 61/1/16 62/2/16 64/3/16 63/4/16
f 65/1/17 66/2/17 68/3/17 67/4/17
f 69/1/18 70/2/18 72/3/18 71/4/18
f 73/1/19 74/2/19 76/3/19 75/4/19
f 77/1/20 78/2/20 80/3/20 79/4/20
f 81/1/21 82/2/21 84/3/21 83/4/21
f 85/1/22 86/2/22 88/3/22 87/4/22
f 89/1/23 90/2/23 92/3/23 91/4/23
f 93/1/24 94/2/24 96/3/24 95/4/24
f 97/1/25 98/2/25 100/3/25 99/4/25
f 101/1/26 102/2/26 104/3/26 103/4/26
f 105/1/27 106/2/27 108/3/27 107/4/27
f 109/1/28 110/2/28 112/3/28 111/4/28
f 113/1/29 114/2/29 116/3/29 115/4/29
f 117/1/30 118/2/30 120/3/30 119/4/30
f 121/1/31 122/2/31 124/3/31 123/4/31
f 125/1/32 126/2/32 128/3/32 127/4/32
f 129/1/33 130/2/33 132/3/33 131/4/33
f 133/1/34 134/2/34 136/3/34 135/4/34
f 137/1/35 138/2/35 140/3/35 139/4/35
f 141/1/36 142/2/36 144/3/36 143/4/36
f 145/1/37 146/2/37 148/3/37 147/4/37
f 149/1/38 150/2/38 152/3/38 151/4/38
f 153/1/39 154/2/39 156/3/39 155/4/39
f 157/1/40 158/2/40 160/3/40 159/4/40
f 161/1/41 162/2/41 164/3/41 163/4/41
f 165/1/42 166/2/42 168/3/42 167/4/42
f 169/1/43 170/2/43 172/3/43 171/4/43
f 173/1/44 174/2/44 176/3/44 175/4/44
f 177/1/45 178/2/45 180/3/45 179/4/45
f 181/1/46 182/2/46 184/3/46 183/4/46
f 185/1/47 186/2/47 188/3/47 187/4/47
f 189/1/48 190/2/48 192/3/48 191/4/48
f 193/1/49 194/2/49 196/3/49 195/4/49
f 197/1/50 198/2/50 200/3/50 199/4/50
f 201/1/51 202/2/51 204/3/51 203/4/51
f 205/1/52 206/2/52 208/3/52 207/4/52
f 209/1/53 210/2/53 212/3/53 211/4/53
f 213/1/54 214/2/54 216/3/54 215/4/54
f 217/1/55 218/2/55 220/3/55 219/4/55
f 221/1/56 222/2/56 224/3/56 223/4/56
f 225/1/57 226/2/57 228/3/57 227/4/57
f 229/1/58 230/2/58 232/3/58 231/4/58
f 233/1/59 234/2/59 236/3/59 235/4/59
f 237/1/60 238/2/60 240/3/60 239/4/60
f 241/1/61 242/2/61 244/3/61 243/4/61
f 245/1/62 246/2/62 248/3/62 247/4/62
f 249/1/63 250/2/63 252/3/63 251/4/63
f 253/1/64 254/2/64 256/3/64 255/4/64
f 257/1/65 258/2/65 260/3/65 259/4/65
f 261/1/66 262/2/66 264/3/66 263/4/66
f 265/1/67 266/2/67 268/3/67 267/4/67
f 269/1/68 270/2/68 272/3/68 271/4/68
f 273/1/69 274/2/69 276/3/69 275/4/69
f 277/1/70 278/2/70 280/3/70 279/4/70
f 281/1/71 282/2/71 284/3/71 283/4/71
f 285/1/72 286/2/72 288/3/72 287/4/72
f 289/1/73 290/2/73 292/3/73 291/4/73
f 293/1/74 294/2/74 296/3/74 295/4/74
f 297/1/75 298/2/75 300/3/75 299/4/75
f 301/1/76 302/2/76 304/3/76 303/4/76
f 305/1/77 306/2/77 308/3/77 307/4/77
f 309/1/78 310/2/78 312/3/78 311/4/78
f 313/1/79 314/2/79 316/3/79 315/4/79
f 317/1/80 318/2/80 320/3/80 319/4/80
f 321/1/81 322/2/81 324/3/81 323/4/81
f 325/1/82 326/2/82 328/3/82 327/4/82
f 329/1/83 330/2/83 332/3/83 331/4/83
f 333/1/84 334/2/84 336/3/84 335/4/84
f 337/1/85 338/2/85 340/3/85 339/4/85
f 341/1/86 342/2/86 344/3/86 343/4/86
f 345/1/87 346/2/87 348/3/87 347/4/87
f 349/1/88 350/2/88 352/3/88 351/4/88
f 353/1/89 354/2/89 356/3/89 355/4/89
f 357/1/90 358/2/90 360/3/90 359/4/90
f 361/1/91 362/2/91 364/3/91 363/4/91
f 365/1/92 366/2/92 368/3/92 367/4/92
f 369/1/93 370/2/93 372/3/93 371/4/93
f 373/1/94 374/2/94 376/3/94 375/4/94
f 377/1/95 378/2/95 380/3/95 379/4/95
f 381/1/96 382/2/96 384/3/96 383/4/96
f 385/1/97 386/2/97 388/3/97 387/4/97
f 389/1/98 390/2/98 392/3/98 391/4/98
f 393/1/99 394/2/99 396/3/99 395/4/99
f 397/1/100 398/2/100 400/3/100 399/4/100
f 401/1/101 402/2/101 404/3/101 403/4/101
f 405/1/102 406/2/102 408/3/102 407/4/102
f 409/1/103 410/2/103 412/3/103 411/4/103
f 413/1/104 414/2/104 416/3/104 415/4/104
f 417/1/105 418/2/105 420/3/105 419/4/105
f 421/1/106 422/2/106 424/3/106 423/4/106
f 425/1/107 426/2/107 428/3/107 427/4/107
f 429/1/108 430/2/108 432/3/108 431/4/108
f 433/1/109 434/2/109 436/3/109 435/4/109
f 437/1/110 438/2/110 440/3/110 439/4/110
f 441/1/111 442/2/111 444/3/111 443/4/111
f 445/1/112 446/2/112 448/3/112 447/4/112
f 449/1/113 450/2/113 452/3/113 451/4/113
f 453/1/114 454/2/114 456/3/114 455/4/114
f 457/1/115 458/2/115 460/3/115 459/4/115
f 461/1/116 462/2/116 464/3/116 463/4/116
f 465/1/117 466/2/117 468/3/117 467/4/117
f 469/1/118 470/2/118 472/3/118 471/4/118
f 473/1/119 474/2/119 476/3/119 475/4/119
f 477/1/120 478/2/120 480/3/120 479/4/120
f 481/1/121 482/2/121 484/3/121 483/4/121
f 485/1/122 486/2/122 488/3/122 487/4/122
f 489/1/123 490/2/123 492/3/123 491/4/123
f 493/1/124 494/2/124 496/3/124 495/4/124
f 497/1/125 498/2/125 500/3/125 499/4/125
f 501/1/126 502/2/126 504/3/126 503/4/126
f 505/1/127 506/2/127 508/3/127 507/4/127
f 509/1/128 510/2/128 512/3/128 511/4/128
f 513/1/129 514/2/129 516/3/129 515/4/129
f 517/1/130 518/2/130 520/3/130 519/4/130
f 521/1/131 522/2/131 524/3/131 523/4/131
f 525/1/132 526/2/132 528/3/132 527/4/132
f 529/1/133 530/2/133 532/3/133 531/4/133
f 533/1/134 534/2/134 536/3/134 535/4/134
f 537/1/135 538/2/135 540/3/135 539/4/135
f 541/1/136 542/2/136 544/3/136 543/4/136
f 545/1/137 546/2/137 548/3/137 547/4/137
f 549/1/138 550/2/138 552/3/138 551/4/138
f 553/1/139 554/2/139 556/3/139 555/4/139
f 557/1/140 558/2/140 560/3/140 559/4/140
f 561/1/141 562/2/141 564/3/141 563/4/141
f 565/1/142 566/2/142 568/3/142 567/4/142
f 569/1/143 570/2/143 572/3/143 571/4/143
f 573/1/144 574/2/144 576/3/144 575/4/144
f 577/1/145 578/2/145 580/3/145 579/4/145
f 581/1/146 582/2/146 584/3/146 583/4/146
f 585/1/147 586/2/147 588/3/147 587/4/147
f 589/1/148 590/2/148 592/3/148 591/4/148
f 593/1/149 594/2/149 596/3/149 595/4/149
f 597/1/150 598/2/150 600/3/150 599/4/150
f 601/1/151 602/2/151 604/3/151 603/4/151
f 605/1/152 606/2/152 608/3/152 607/4/152
f 609/1/153 610/2/153 612/3/153 611/4/153
f 613/1/154 614/2/154 616/3/154 615/4/154
f 617/1/155 618/2/155 620/3/155 619/4/155
f 621/1/156 622/2/156 624/3/156 623/4/156
f 625/1/157 626/2/157 628/3/157 627/4/157
f 629/1/158 630/2/158 632/3/158 631/4/158
f 633/1/159 634/2/159 636/3/159 635/4/159
f 637/1/160 638/2/160 640/3/160 639/4/160
f 641/1/161 642/2/161 644/3/161 643/4/161
f 645/1/162 646/2/162 648/3/162 647/4/162
f 649/1/163 650/2/163 652/3/163 651/4/163
f 653/1/164 654/2/164 656/3/164 655/4/164
f 657/1/165 658/2/165 660/3/165 659/4/165
f 661/1/166 662/2/166 664/3/166 663/4/166
f 665/1/167 666/2/167 668/3/167 667/4/167
f 669/1/168 670/2/168 672/3/168 671/4/168
f 673/1/169 674/2/169 676/3/169 675/4/169
f 677/1/170 678/2/170 680/3/170 679/4/170
f 681/1/171 682/2/171 684/3/171 683/4/171
f 685/1/172 686/2/172 688/3/172 687/4/172
f 689/1/173 690/2/173 692/3/173 691/4/173
f 693/1/174 694/2/174 696/3/174 695/4/174
f 697/1/175 698/2/175 700/3/175 699/4/175
f 701/1/176 702/2/176 704/3/176 703/4/176
f 705/1/177 706/2/177 708/3/177 707/4/177
f 709/1/178 710/2/178 712/3/178 711/4/178
f 713/1/179 714/2/179 716/3/179 715/4/179
f 717/1/180 718/2/180 720/3/180 719/4/180
f 721/1/181 722/2/181 724/3/181 723/4/181
f 725/1/182 726/2/182 728/3/182 727/4/182
f 729/1/183 730/2/183 732/3/183 731/4/183
f 733/1/184 734/2/184 736/3/184 735/4/184
f 737/1/185 738/2/185 740/3/185 739/4/185
f 741/1/186 742/2/186 744/3/186 743/4/186
f 745/1/187 746/2/187 748/3/187 747/4/187
f 749/1/188 750/2/188 752/3/188 751/4/188
f 753/1/189 754/2/189 756/3/189 755/4/189
f 757/1/190 758/2/190 760/3/190 759/4/190
f 761/1/191 762/2/191 764/3/191 763/4/191
f 765/1/192 766/2/192 768/3/192 767/4/192
f 769/1/193 770/2/193 772/3/193 771/4/193
f 773/1/194 774/2/194 776/3/194 775/4/194
f 777/1/195 778/2/195 780/3/195 779/4/195
f 781/1/196 782/2/196 784/3/196 783/4/196
f 785/1/197 786/2/197 788/3/197 787/4/197
f 789/1/198 790/2/198 792/3/198 791/4/198
f 793/1/199 794/2/199 796/3/199 795/4/199
f 797/1/200 798/2/200 800/3/200 799/4/200
f 801/1/201 802/2/201 804/3/201 803/4/201
f 805/1/202 806/2/202 808/3/202 807/4/202
f 809/1/203 810/2/203 812/3/203 811/4/203
f 813/1/204 814/2/204 816/3/204 815/4/204
f 817/1/205 818/2/205 820/3/205 819/4/205
f 821/1/206 822/2/206 824/3/206 823/4/206
f 825/1/207 826/2/207 828/3/207 827/4/207
f 829/1/208 830/2/208 832/3/208 831/4/208
f 833/1/209 834/2/209 836/3/209 835/4/209
f 837/1/210 838/2/210 840/3/210 839/4/210
f 841/1/211 842/2/211 844/3/211 843/4/211
f 845/1/212 846/2/212 848/3/212 847/4/212
f 849/1/213 850/2/213 852/3/213 851/4/213
f 853/1/214 854/2/214 856/3/214 855/4/214
f 857/1/215 858/2/215 860/3/215 859/4/215
f 861/1/216 862/2/216 864/3/216 863/4/216
f 865/1/217 866/2/217 868/3/217 867/4/217
f 869/1/218 870/2/218 872/3/218 871/4/218
f 873/1/219 874/2/219 876/3/219 875/4/219
f 877/1/220 878/2/220 880/3/220 879/4/220
f 881/1/221 882/2/221 884/3/221 883/4/221
f 885/1/222 886/2/222 888/3/222 887/4/222
