# Blender 5.2.2 LTS
# www.blender.org
mtllib Greenpath_Ceiling.mtl
o Cube.002
v -19.719481 10.795519 15.480519
v -19.648052 8.660027 15.480519
v -19.386568 6.578701 15.480519
v -18.906269 4.643251 15.480519
v -18.208721 2.963307 15.480519
v -17.324539 1.637964 15.480519
v -19.719481 12.215150 15.480519
v -19.386568 16.431965 15.480519
v -19.648052 14.350640 15.480519
v -19.719481 10.795518 -12.214565
v -17.324539 1.637964 -12.214565
v -18.208719 2.963307 -12.214565
v -19.648050 8.660027 -12.214565
v -19.386566 6.578701 -12.214565
v -18.906269 4.643250 -12.214565
v -19.719481 12.215149 -12.214565
v -19.648050 14.350640 -12.214565
v -19.386566 16.431965 -12.214565
vn -0.9999 -0.0167 -0.0000
vn -0.9969 -0.0791 -0.0000
vn -0.9831 -0.1831 -0.0000
vn -0.9497 -0.3130 -0.0000
vn -0.8819 -0.4715 -0.0000
vn -0.8319 -0.5550 -0.0000
vn -0.9999 0.0167 -0.0000
vn -0.9922 0.1247 -0.0000
vn -0.9969 0.0791 -0.0000
vt 0.140181 0.572290
vt 0.140181 0.750000
vt 0.125000 0.750000
vt 0.125000 0.572290
vt 0.375000 0.177710
vt 0.375000 0.000000
vt 0.424840 0.000000
vt 0.424840 0.177710
vt 0.446039 0.000000
vt 0.446039 0.177710
vt 0.468836 0.000000
vt 0.468836 0.177710
vt 0.492225 0.000000
vt 0.492225 0.177710
vt 0.553961 0.000000
vt 0.553961 0.177710
vt 0.531164 0.177710
vt 0.531164 0.000000
vt 0.507775 0.177710
vt 0.507775 0.000000
s 1
f 11/1/6 6/2/6 5/3/5 12/4/5
f 12/5/5 5/6/5 4/7/4 15/8/4
f 15/8/4 4/7/4 3/9/3 14/10/3
f 14/10/3 3/9/3 2/11/2 13/12/2
f 13/12/2 2/11/2 1/13/1 10/14/1
f 8/15/8 18/16/8 17/17/9 9/18/9
f 9/18/9 17/17/9 16/19/7 7/20/7
f 1/13/1 7/20/7 16/19/7 10/14/1
