# Blender 5.2.2 LTS
# www.blender.org
mtllib Greenpath_Room.mtl
o Cube.001
v -14.086502 0.092860 15.480519
v -17.324539 1.637964 15.480519
v -16.305882 0.725398 15.480519
v -15.210447 0.228579 15.480519
v -14.086502 22.917807 15.480519
v -15.210447 22.782087 15.480519
v -16.305882 22.285269 15.480519
v -17.324539 21.372702 15.480519
v -18.208721 20.047359 15.480519
v -18.906269 18.367414 15.480519
v -19.386568 16.431965 15.480519
v -14.086502 0.092860 -12.214565
v -19.719481 10.795518 -12.214565
v -14.086502 10.795518 -23.480520
v -15.210446 0.228579 -12.214565
v -16.305882 0.725398 -12.214565
v -17.324539 1.637964 -12.214565
v -18.208719 2.963307 -12.214565
v -14.086503 0.228579 -14.462452
v -15.261719 0.391509 -14.537743
v -16.373058 0.930492 -14.547983
v -17.347847 1.841588 -14.527241
v -18.151041 3.062343 -14.512251
v -14.086503 0.725398 -16.653320
v -15.266491 0.933780 -16.785313
v -16.361605 1.488230 -16.754581
v -17.265087 2.328765 -16.627102
v -17.977654 3.399722 -16.546844
v -14.086503 1.637964 -18.690636
v -15.250200 1.852963 -18.751806
v -16.296041 2.333136 -18.574484
v -17.115284 2.994979 -18.272125
v -17.736279 3.860943 -18.102015
v -17.520546 4.270838 -19.082649
v -19.648050 10.795518 -14.462452
v -19.386566 10.795518 -16.653320
v -18.906269 10.795518 -18.690636
v -18.208719 10.795518 -20.458998
v -19.648050 8.660027 -12.214565
v -19.562298 8.588499 -14.564997
v -19.278622 8.578771 -16.787672
v -18.799097 8.598475 -18.737251
v -18.156595 8.612716 -20.343639
v -19.386566 6.578701 -12.214565
v -19.276892 6.453307 -14.574539
v -18.985075 6.482502 -16.764767
v -18.542688 6.603608 -18.571733
v -17.979027 6.679853 -19.996864
v -18.906269 4.643250 -12.214565
v -18.793110 4.585138 -14.541960
v -18.540388 4.753594 -16.633642
v -18.192049 5.040836 -18.272125
v -17.736279 5.202440 -19.514118
v -14.086503 8.660027 -23.337658
v -14.086503 6.578701 -22.814690
v -14.086503 4.643250 -21.854095
v -14.086503 2.963307 -20.458998
v -15.210446 10.795518 -23.337658
v -15.248092 8.562609 -23.166151
v -15.253212 6.451065 -22.598801
v -15.242841 4.598965 -21.639751
v -15.235346 3.072895 -20.354748
v -16.305882 10.795518 -22.814690
v -16.371878 8.553541 -22.595341
v -16.356510 6.472826 -22.011707
v -16.292772 4.756208 -21.126936
v -16.252644 3.402333 -19.999615
v -17.324539 10.795518 -21.854095
v -17.355124 8.584493 -21.627781
v -17.266462 6.597394 -21.122334
v -17.115284 5.040836 -20.425657
v -17.030228 3.860943 -19.514118
v -14.086502 22.917807 -12.214565
v -14.086502 12.215150 -23.480520
v -19.719481 12.215149 -12.214565
v -14.086503 22.782089 -14.462452
v -14.086503 22.285271 -16.653320
v -14.086503 21.372702 -18.690636
v -14.086503 20.047361 -20.458998
v -15.210446 22.782089 -12.214565
v -15.248092 22.619156 -14.564997
v -15.253212 22.080175 -16.787674
v -15.242841 21.169079 -18.737251
v -15.235346 19.948324 -20.343639
v -16.305882 22.285271 -12.214565
v -16.371878 22.076887 -14.574539
v -16.356512 21.522436 -16.764767
v -16.292772 20.681902 -18.571733
v -16.252644 19.610945 -19.996862
v -17.324539 21.372702 -12.214565
v -17.355124 21.157703 -14.541960
v -17.266462 20.677532 -16.633642
v -17.115284 20.015688 -18.272125
v -17.030228 19.149723 -19.514118
v -17.520546 18.739828 -19.082649
v -15.210446 12.215149 -23.337658
v -16.305882 12.215149 -22.814690
v -17.324539 12.215149 -21.854095
v -18.208719 12.215149 -20.458998
v -14.086503 14.350641 -23.337658
v -15.261719 14.422167 -23.166151
v -16.373056 14.431896 -22.598801
v -17.347847 14.412191 -21.639751
v -18.151041 14.397950 -20.354748
v -14.086503 16.431965 -22.814690
v -15.266490 16.557360 -22.595341
v -16.361605 16.528164 -22.011709
v -17.265087 16.407059 -21.126936
v -17.977654 16.330814 -19.999613
v -14.086503 18.367414 -21.854095
v -15.250200 18.425529 -21.627779
v -16.296041 18.257072 -21.122334
v -17.115284 17.969830 -20.425657
v -17.736279 17.808228 -19.514118
v -19.648050 14.350640 -12.214565
v -19.386566 16.431965 -12.214565
v -18.906269 18.367414 -12.214565
v -18.208719 20.047361 -12.214565
v -19.648050 12.215149 -14.462452
v -19.562298 14.448057 -14.537743
v -19.278622 16.559601 -14.547983
v -18.799097 18.411699 -14.527241
v -18.156595 19.937773 -14.512251
v -19.386566 12.215149 -16.653320
v -19.276890 14.457124 -16.785313
v -18.985075 16.537840 -16.754581
v -18.542688 18.254457 -16.627102
v -17.979029 19.608332 -16.546844
v -18.906269 12.215149 -18.690636
v -18.793110 14.426173 -18.751806
v -18.540388 16.413273 -18.574484
v -18.192049 17.969830 -18.272125
v -17.736279 19.149723 -18.102015
v 14.086502 0.092860 15.480519
v 19.719481 10.795518 15.480519
v 15.210447 0.228579 15.480519
v 16.305882 0.725398 15.480519
v 17.324539 1.637964 15.480519
v 18.208721 2.963307 15.480519
v 18.906269 4.643250 15.480519
v 19.386568 6.578701 15.480519
v 19.648052 8.660027 15.480519
v 19.719481 12.215149 15.480519
v 14.086502 22.917807 15.480519
v 19.648052 14.350641 15.480519
v 19.386568 16.431965 15.480519
v 18.906269 18.367414 15.480519
v 18.208721 20.047361 15.480519
v 17.324539 21.372702 15.480519
v 16.305882 22.285271 15.480519
v 15.210447 22.782089 15.480519
v 14.086502 0.092860 -12.214565
v 14.086502 10.795518 -23.480520
v 19.719481 10.795519 -12.214565
v 14.086503 0.228578 -14.462452
v 14.086503 0.725398 -16.653320
v 14.086503 1.637964 -18.690636
v 14.086503 2.963306 -20.458998
v 15.210446 0.228578 -12.214565
v 15.248092 0.391509 -14.564997
v 15.253212 0.930492 -16.787674
v 15.242841 1.841588 -18.737251
v 15.235346 3.062343 -20.343639
v 16.305882 0.725398 -12.214565
v 16.371878 0.933779 -14.574539
v 16.356512 1.488230 -16.764767
v 16.292772 2.328765 -18.571733
v 16.252644 3.399721 -19.996862
v 17.324539 1.637964 -12.214565
v 17.355124 1.852963 -14.541960
v 17.266462 2.333136 -16.633642
v 17.115284 2.994980 -18.272125
v 17.030228 3.860943 -19.514118
v 17.520546 4.270838 -19.082649
v 15.210446 10.795518 -23.337658
v 16.305882 10.795518 -22.814690
v 17.324539 10.795518 -21.854095
v 18.208719 10.795518 -20.458998
v 14.086503 8.660027 -23.337658
v 15.261719 8.588499 -23.166151
v 16.373056 8.578771 -22.598801
v 17.347847 8.598475 -21.639751
v 18.151041 8.612716 -20.354748
v 14.086503 6.578700 -22.814690
v 15.266490 6.453307 -22.595341
v 16.361605 6.482502 -22.011709
v 17.265087 6.603608 -21.126936
v 17.977654 6.679853 -19.999613
v 14.086503 4.643250 -21.854095
v 15.250200 4.585137 -21.627779
v 16.296041 4.753594 -21.122334
v 17.115284 5.040836 -20.425657
v 17.736279 5.202440 -19.514118
v 19.648050 8.660027 -12.214565
v 19.386566 6.578701 -12.214565
v 18.906269 4.643251 -12.214565
v 18.208719 2.963306 -12.214565
v 19.648050 10.795519 -14.462452
v 19.562298 8.562610 -14.537743
v 19.278622 6.451066 -14.547983
v 18.799097 4.598966 -14.527241
v 18.156595 3.072895 -14.512251
v 19.386566 10.795519 -16.653320
v 19.276890 8.553542 -16.785313
v 18.985075 6.472827 -16.754581
v 18.542688 4.756208 -16.627102
v 17.979029 3.402334 -16.546844
v 18.906269 10.795519 -18.690636
v 18.793110 8.584494 -18.751806
v 18.540388 6.597394 -18.574484
v 18.192049 5.040836 -18.272125
v 17.736279 3.860943 -18.102015
v 14.086502 22.917807 -12.214565
v 19.719481 12.215150 -12.214565
v 14.086502 12.215150 -23.480520
v 15.210446 22.782087 -12.214565
v 16.305882 22.285269 -12.214565
v 17.324539 21.372702 -12.214565
v 18.208719 20.047359 -12.214565
v 14.086503 22.782087 -14.462452
v 15.261719 22.619156 -14.537743
v 16.373058 22.080173 -14.547983
v 17.347847 21.169079 -14.527241
v 18.151041 19.948322 -14.512251
v 14.086503 22.285269 -16.653320
v 15.266491 22.076885 -16.785313
v 16.361605 21.522436 -16.754581
v 17.265087 20.681900 -16.627102
v 17.977654 19.610945 -16.546844
v 14.086503 21.372702 -18.690636
v 15.250200 21.157703 -18.751806
v 16.296041 20.677530 -18.574484
v 17.115284 20.015688 -18.272125
v 17.736279 19.149723 -18.102015
v 17.520546 18.739828 -19.082649
v 19.648050 12.215149 -14.462452
v 19.386566 12.215149 -16.653320
v 18.906269 12.215149 -18.690636
v 18.208719 12.215149 -20.458998
v 19.648050 14.350640 -12.214565
v 19.562298 14.422167 -14.564997
v 19.278622 14.431895 -16.787672
v 18.799097 14.412190 -18.737251
v 18.156595 14.397950 -20.343639
v 19.386566 16.431965 -12.214565
v 19.276892 16.557358 -14.574539
v 18.985075 16.528164 -16.764767
v 18.542688 16.407059 -18.571733
v 17.979027 16.330814 -19.996864
v 18.906269 18.367414 -12.214565
v 18.793110 18.425529 -14.541960
v 18.540388 18.257071 -16.633642
v 18.192049 17.969830 -18.272125
v 17.736279 17.808228 -19.514118
v 14.086503 14.350640 -23.337658
v 14.086503 16.431965 -22.814690
v 14.086503 18.367414 -21.854095
v 14.086503 20.047359 -20.458998
v 15.210446 12.215149 -23.337658
v 15.248092 14.448057 -23.166151
v 15.253212 16.559601 -22.598801
v 15.242841 18.411699 -21.639751
v 15.235346 19.937773 -20.354748
v 16.305882 12.215149 -22.814690
v 16.371878 14.457125 -22.595341
v 16.356510 16.537840 -22.011707
v 16.292772 18.254457 -21.126936
v 16.252644 19.608332 -19.999615
v 17.324539 12.215149 -21.854095
v 17.355124 14.426173 -21.627781
v 17.266462 16.413271 -21.122334
v 17.115284 17.969830 -20.425657
v 17.030228 19.149723 -19.514118
v -14.086502 0.092860 15.480519
v -14.086502 0.092860 -12.214565
v 14.086502 0.092860 15.480519
v 14.086502 0.092860 -12.214565
v -14.086502 22.917807 15.480519
v -14.086502 22.917807 -12.214565
v 14.086502 22.917807 15.480519
v 14.086502 22.917807 -12.214565
vn -0.1199 -0.9928 -0.0000
vn -0.6673 -0.7448 -0.0000
vn -0.5465 -0.8375 -0.0000
vn -0.2696 -0.9630 -0.0000
vn -0.1199 0.9928 -0.0000
vn -0.2696 0.9630 -0.0000
vn -0.5465 0.8375 -0.0000
vn -0.7556 0.6551 -0.0000
vn -0.8819 0.4715 -0.0000
vn -0.9497 0.3130 -0.0000
vn -0.9706 0.2409 -0.0000
vn -0.0822 -0.9958 -0.0412
vn -0.9993 -0.0177 -0.0327
vn -0.0649 -0.0342 -0.9973
vn -0.2723 -0.9617 -0.0313
vn -0.5483 -0.8358 -0.0284
vn -0.7274 -0.6855 -0.0317
vn -0.8805 -0.4723 -0.0402
vn -0.0648 -0.9879 -0.1413
vn -0.2825 -0.9484 -0.1442
vn -0.5582 -0.8193 -0.1310
vn -0.7581 -0.6426 -0.1110
vn -0.8771 -0.4708 -0.0951
vn -0.0656 -0.9469 -0.3147
vn -0.2844 -0.9045 -0.3179
vn -0.5573 -0.7794 -0.2862
vn -0.7490 -0.6172 -0.2411
vn -0.8625 -0.4615 -0.2076
vn -0.0631 -0.8608 -0.5050
vn -0.2786 -0.8207 -0.4989
vn -0.5457 -0.7117 -0.4423
vn -0.7275 -0.5789 -0.3682
vn -0.8373 -0.4462 -0.3158
vn -0.8102 -0.4253 -0.4033
vn -0.9969 -0.0181 -0.0760
vn -0.9844 -0.0187 -0.1752
vn -0.9538 -0.0194 -0.2999
vn -0.8909 -0.0214 -0.4537
vn -0.9961 -0.0810 -0.0347
vn -0.9932 -0.0843 -0.0808
vn -0.9792 -0.0877 -0.1830
vn -0.9476 -0.0919 -0.3060
vn -0.8865 -0.1011 -0.4516
vn -0.9820 -0.1852 -0.0361
vn -0.9778 -0.1921 -0.0840
vn -0.9620 -0.1978 -0.1884
vn -0.9294 -0.2040 -0.3075
vn -0.8696 -0.2204 -0.4419
vn -0.9484 -0.3150 -0.0370
vn -0.9430 -0.3210 -0.0875
vn -0.9265 -0.3226 -0.1936
vn -0.8977 -0.3194 -0.3035
vn -0.8408 -0.3343 -0.4258
vn -0.0672 -0.1554 -0.9856
vn -0.0669 -0.3440 -0.9366
vn -0.0638 -0.5429 -0.8374
vn -0.0616 -0.7231 -0.6880
vn -0.2847 -0.0349 -0.9580
vn -0.2926 -0.1598 -0.9428
vn -0.2916 -0.3461 -0.8917
vn -0.2825 -0.5331 -0.7975
vn -0.2757 -0.6956 -0.6634
vn -0.5666 -0.0316 -0.8234
vn -0.5751 -0.1437 -0.8053
vn -0.5701 -0.3096 -0.7611
vn -0.5525 -0.4717 -0.6872
vn -0.5401 -0.6096 -0.5802
vn -0.7713 -0.0259 -0.6359
vn -0.7732 -0.1197 -0.6228
vn -0.7605 -0.2582 -0.5957
vn -0.7339 -0.3914 -0.5551
vn -0.7144 -0.5072 -0.4821
vn -0.0822 0.9958 -0.0412
vn -0.0649 0.0342 -0.9973
vn -0.9993 0.0177 -0.0327
vn -0.0641 0.9880 -0.1408
vn -0.0643 0.9470 -0.3147
vn -0.0624 0.8607 -0.5052
vn -0.0616 0.7229 -0.6882
vn -0.2724 0.9617 -0.0316
vn -0.2808 0.9487 -0.1456
vn -0.2822 0.9050 -0.3182
vn -0.2773 0.8218 -0.4978
vn -0.2757 0.6968 -0.6622
vn -0.5482 0.8359 -0.0290
vn -0.5578 0.8194 -0.1322
vn -0.5564 0.7798 -0.2870
vn -0.5450 0.7123 -0.4423
vn -0.5401 0.6101 -0.5798
vn -0.7558 0.6544 -0.0241
vn -0.7587 0.6418 -0.1115
vn -0.7492 0.6168 -0.2414
vn -0.7275 0.5789 -0.3683
vn -0.7144 0.5073 -0.4820
vn -0.8102 0.4253 -0.4033
vn -0.2846 0.0345 -0.9580
vn -0.5667 0.0310 -0.8233
vn -0.7714 0.0256 -0.6359
vn -0.8909 0.0214 -0.4538
vn -0.0679 0.1559 -0.9854
vn -0.2944 0.1582 -0.9425
vn -0.5756 0.1424 -0.8052
vn -0.7726 0.1192 -0.6236
vn -0.8860 0.1012 -0.4525
vn -0.0682 0.3440 -0.9365
vn -0.2939 0.3457 -0.8911
vn -0.5709 0.3088 -0.7607
vn -0.7603 0.2579 -0.5962
vn -0.8693 0.2205 -0.4424
vn -0.0646 0.5426 -0.8375
vn -0.2838 0.5342 -0.7963
vn -0.5532 0.4717 -0.6866
vn -0.7340 0.3913 -0.5551
vn -0.8407 0.3343 -0.4259
vn -0.9961 0.0808 -0.0343
vn -0.9787 0.2039 -0.0236
vn -0.9492 0.3141 -0.0183
vn -0.8814 0.4719 -0.0201
vn -0.9969 0.0183 -0.0761
vn -0.9932 0.0849 -0.0802
vn -0.9778 0.1922 -0.0833
vn -0.9433 0.3203 -0.0869
vn -0.8776 0.4699 -0.0950
vn -0.9843 0.0190 -0.1752
vn -0.9791 0.0885 -0.1829
vn -0.9619 0.1982 -0.1881
vn -0.9267 0.3223 -0.1932
vn -0.8628 0.4609 -0.2075
vn -0.9538 0.0196 -0.2999
vn -0.9473 0.0925 -0.3067
vn -0.9293 0.2044 -0.3077
vn -0.8977 0.3194 -0.3034
vn -0.8374 0.4461 -0.3158
vn 0.1199 -0.9928 -0.0000
vn 0.9999 -0.0167 -0.0000
vn 0.2696 -0.9630 -0.0000
vn 0.5465 -0.8375 -0.0000
vn 0.7556 -0.6551 -0.0000
vn 0.8819 -0.4715 -0.0000
vn 0.9497 -0.3130 -0.0000
vn 0.9831 -0.1831 -0.0000
vn 0.9969 -0.0791 -0.0000
vn 0.9999 0.0167 -0.0000
vn 0.1199 0.9928 -0.0000
vn 0.9969 0.0791 -0.0000
vn 0.9831 0.1831 -0.0000
vn 0.9497 0.3130 -0.0000
vn 0.8819 0.4715 -0.0000
vn 0.7556 0.6551 -0.0000
vn 0.5465 0.8375 -0.0000
vn 0.2696 0.9630 -0.0000
vn 0.0822 -0.9958 -0.0412
vn 0.0649 -0.0342 -0.9973
vn 0.9997 -0.0172 -0.0163
vn 0.0641 -0.9880 -0.1408
vn 0.0643 -0.9470 -0.3147
vn 0.0624 -0.8607 -0.5052
vn 0.0616 -0.7229 -0.6882
vn 0.2724 -0.9617 -0.0316
vn 0.2808 -0.9487 -0.1456
vn 0.2822 -0.9050 -0.3182
vn 0.2773 -0.8218 -0.4978
vn 0.2757 -0.6968 -0.6622
vn 0.5482 -0.8359 -0.0290
vn 0.5578 -0.8194 -0.1322
vn 0.5564 -0.7798 -0.2870
vn 0.5450 -0.7123 -0.4423
vn 0.5401 -0.6101 -0.5798
vn 0.7558 -0.6544 -0.0241
vn 0.7587 -0.6418 -0.1115
vn 0.7492 -0.6168 -0.2414
vn 0.7275 -0.5789 -0.3683
vn 0.7144 -0.5073 -0.4820
vn 0.8102 -0.4253 -0.4033
vn 0.2846 -0.0345 -0.9580
vn 0.5667 -0.0310 -0.8233
vn 0.7714 -0.0256 -0.6359
vn 0.8909 -0.0214 -0.4538
vn 0.0679 -0.1559 -0.9854
vn 0.2944 -0.1582 -0.9425
vn 0.5756 -0.1424 -0.8052
vn 0.7726 -0.1192 -0.6236
vn 0.8860 -0.1012 -0.4525
vn 0.0682 -0.3440 -0.9365
vn 0.2939 -0.3457 -0.8911
vn 0.5709 -0.3088 -0.7607
vn 0.7603 -0.2579 -0.5962
vn 0.8693 -0.2205 -0.4424
vn 0.0646 -0.5426 -0.8375
vn 0.2838 -0.5342 -0.7963
vn 0.5532 -0.4717 -0.6866
vn 0.7340 -0.3913 -0.5551
vn 0.8407 -0.3343 -0.4259
vn 0.9966 -0.0800 -0.0172
vn 0.9827 -0.1842 -0.0177
vn 0.9492 -0.3141 -0.0183
vn 0.8814 -0.4719 -0.0201
vn 0.9969 -0.0183 -0.0761
vn 0.9932 -0.0849 -0.0802
vn 0.9778 -0.1922 -0.0833
vn 0.9433 -0.3203 -0.0869
vn 0.8776 -0.4699 -0.0950
vn 0.9843 -0.0190 -0.1752
vn 0.9791 -0.0885 -0.1829
vn 0.9619 -0.1982 -0.1881
vn 0.9267 -0.3223 -0.1932
vn 0.8628 -0.4609 -0.2075
vn 0.9538 -0.0196 -0.2999
vn 0.9473 -0.0925 -0.3067
vn 0.9293 -0.2044 -0.3077
vn 0.8977 -0.3194 -0.3034
vn 0.8374 -0.4461 -0.3158
vn 0.0822 0.9958 -0.0412
vn 0.9997 0.0172 -0.0163
vn 0.0649 0.0342 -0.9973
vn 0.2723 0.9617 -0.0313
vn 0.5483 0.8358 -0.0284
vn 0.7558 0.6544 -0.0238
vn 0.8814 0.4720 -0.0201
vn 0.0648 0.9879 -0.1413
vn 0.2825 0.9484 -0.1442
vn 0.5582 0.8193 -0.1310
vn 0.7581 0.6426 -0.1110
vn 0.8771 0.4708 -0.0951
vn 0.0656 0.9469 -0.3147
vn 0.2844 0.9045 -0.3179
vn 0.5573 0.7794 -0.2862
vn 0.7490 0.6172 -0.2411
vn 0.8625 0.4615 -0.2076
vn 0.0631 0.8608 -0.5050
vn 0.2786 0.8207 -0.4989
vn 0.5457 0.7117 -0.4423
vn 0.7275 0.5789 -0.3682
vn 0.8373 0.4462 -0.3158
vn 0.8102 0.4253 -0.4033
vn 0.9969 0.0181 -0.0760
vn 0.9844 0.0187 -0.1752
vn 0.9538 0.0194 -0.2999
vn 0.8909 0.0214 -0.4537
vn 0.9966 0.0801 -0.0173
vn 0.9932 0.0843 -0.0808
vn 0.9792 0.0877 -0.1830
vn 0.9476 0.0919 -0.3060
vn 0.8865 0.1011 -0.4516
vn 0.9827 0.1842 -0.0181
vn 0.9778 0.1921 -0.0840
vn 0.9620 0.1978 -0.1884
vn 0.9294 0.2040 -0.3075
vn 0.8696 0.2204 -0.4419
vn 0.9492 0.3141 -0.0185
vn 0.9430 0.3210 -0.0875
vn 0.9265 0.3226 -0.1936
vn 0.8977 0.3194 -0.3035
vn 0.8408 0.3343 -0.4258
vn 0.0672 0.1554 -0.9856
vn 0.0669 0.3440 -0.9366
vn 0.0638 0.5429 -0.8374
vn 0.0616 0.7231 -0.6880
vn 0.2847 0.0349 -0.9580
vn 0.2926 0.1598 -0.9428
vn 0.2916 0.3461 -0.8917
vn 0.2825 0.5331 -0.7975
vn 0.2757 0.6956 -0.6634
vn 0.5666 0.0316 -0.8234
vn 0.5751 0.1437 -0.8053
vn 0.5701 0.3096 -0.7611
vn 0.5525 0.4717 -0.6872
vn 0.5401 0.6096 -0.5802
vn 0.7713 0.0259 -0.6359
vn 0.7732 0.1197 -0.6228
vn 0.7605 0.2582 -0.5957
vn 0.7339 0.3914 -0.5551
vn 0.7144 0.5072 -0.4821
vn -0.0000 -1.0000 -0.0000
vn -0.0000 1.0000 -0.0000
vt 0.160707 0.572290
vt 0.153582 0.572290
vt 0.153257 0.557383
vt 0.160707 0.557866
vt 0.146638 0.572290
vt 0.146213 0.557317
vt 0.140181 0.572290
vt 0.140034 0.557450
vt 0.125000 0.572290
vt 0.125000 0.557546
vt 0.153227 0.542961
vt 0.160707 0.543808
vt 0.146285 0.543158
vt 0.140558 0.543976
vt 0.125000 0.544491
vt 0.153330 0.530343
vt 0.160707 0.530735
vt 0.146701 0.531480
vt 0.141508 0.533421
vt 0.125000 0.534512
vt 0.153425 0.500000
vt 0.160707 0.500000
vt 0.146976 0.500000
vt 0.142047 0.500000
vt 0.125000 0.528220
vt 0.492225 0.177710
vt 0.492225 0.192134
vt 0.468052 0.192792
vt 0.468836 0.177710
vt 0.492225 0.206192
vt 0.467946 0.207054
vt 0.492225 0.219265
vt 0.468161 0.219564
vt 0.492225 0.250000
vt 0.468317 0.250000
vt 0.444666 0.192853
vt 0.446039 0.177710
vt 0.444985 0.206907
vt 0.446312 0.218502
vt 0.447147 0.250000
vt 0.424204 0.192644
vt 0.424840 0.177710
vt 0.426049 0.206066
vt 0.429195 0.216579
vt 0.430965 0.250000
vt 0.375000 0.192454
vt 0.375000 0.177710
vt 0.375000 0.205509
vt 0.375000 0.215488
vt 0.397881 0.256969
vt 0.492225 0.285707
vt 0.468836 0.285707
vt 0.467769 0.278344
vt 0.492225 0.278582
vt 0.446039 0.285707
vt 0.444641 0.278311
vt 0.424840 0.285707
vt 0.424355 0.278377
vt 0.375000 0.285707
vt 0.375000 0.278425
vt 0.467669 0.271220
vt 0.492225 0.271638
vt 0.444879 0.271318
vt 0.426077 0.271722
vt 0.375000 0.271976
vt 0.468008 0.264987
vt 0.492225 0.265181
vt 0.446244 0.265549
vt 0.429195 0.266508
vt 0.375000 0.267047
vt 0.839293 0.572290
vt 0.839293 0.557866
vt 0.846656 0.557208
vt 0.846418 0.572290
vt 0.839293 0.543808
vt 0.846689 0.542946
vt 0.839293 0.530735
vt 0.846623 0.530436
vt 0.839293 0.500000
vt 0.846575 0.500000
vt 0.853780 0.557147
vt 0.853361 0.572290
vt 0.853682 0.543093
vt 0.853278 0.531498
vt 0.853024 0.500000
vt 0.860013 0.557356
vt 0.859819 0.572290
vt 0.859451 0.543934
vt 0.858492 0.533421
vt 0.857953 0.500000
vt 0.875000 0.557546
vt 0.875000 0.572290
vt 0.875000 0.544491
vt 0.875000 0.534512
vt 0.861061 0.500000
vt 0.507775 0.285707
vt 0.507775 0.278582
vt 0.531948 0.278257
vt 0.531164 0.285707
vt 0.507775 0.271638
vt 0.532054 0.271213
vt 0.507775 0.265181
vt 0.531839 0.265034
vt 0.507775 0.250000
vt 0.531683 0.250000
vt 0.555335 0.278227
vt 0.553961 0.285707
vt 0.555015 0.271285
vt 0.553688 0.265558
vt 0.552853 0.250000
vt 0.575796 0.278330
vt 0.575160 0.285707
vt 0.573951 0.271701
vt 0.570805 0.266508
vt 0.569035 0.250000
vt 0.625000 0.278425
vt 0.625000 0.285707
vt 0.625000 0.271976
vt 0.625000 0.267047
vt 0.602119 0.235890
vt 0.507775 0.177710
vt 0.531164 0.177710
vt 0.532231 0.192617
vt 0.507775 0.192134
vt 0.553961 0.177710
vt 0.555359 0.192683
vt 0.575160 0.177710
vt 0.575645 0.192550
vt 0.625000 0.177710
vt 0.625000 0.192454
vt 0.532331 0.207039
vt 0.507775 0.206192
vt 0.555121 0.206842
vt 0.573923 0.206024
vt 0.625000 0.205509
vt 0.531992 0.219657
vt 0.507775 0.219265
vt 0.553756 0.218520
vt 0.570805 0.216579
vt 0.625000 0.215488
vt 0.339293 0.572290
vt 0.339293 0.557866
vt 0.346656 0.557208
vt 0.346418 0.572290
vt 0.339293 0.543808
vt 0.346689 0.542946
vt 0.339293 0.530735
vt 0.346623 0.530436
vt 0.357147 0.482147
vt 0.360788 0.485788
vt 0.353780 0.557147
vt 0.353361 0.572290
vt 0.353682 0.543093
vt 0.353278 0.531498
vt 0.364012 0.489012
vt 0.360013 0.557356
vt 0.359819 0.572290
vt 0.359451 0.543934
vt 0.358492 0.533421
vt 0.366477 0.491477
vt 0.375000 0.557546
vt 0.375000 0.572290
vt 0.375000 0.544491
vt 0.375000 0.534512
vt 0.385607 0.509407
vt 0.492225 0.464293
vt 0.492225 0.471418
vt 0.468052 0.471743
vt 0.468836 0.464293
vt 0.492225 0.478361
vt 0.467946 0.478787
vt 0.492225 0.484819
vt 0.468161 0.484966
vt 0.492225 0.500000
vt 0.468317 0.500000
vt 0.444665 0.471773
vt 0.446039 0.464293
vt 0.444985 0.478715
vt 0.446312 0.484442
vt 0.447147 0.500000
vt 0.424204 0.471670
vt 0.424840 0.464293
vt 0.426049 0.478299
vt 0.429195 0.483492
vt 0.430965 0.500000
vt 0.492225 0.572290
vt 0.468836 0.572290
vt 0.467769 0.557383
vt 0.492225 0.557866
vt 0.446039 0.572290
vt 0.444641 0.557317
vt 0.424840 0.572290
vt 0.424355 0.557450
vt 0.467669 0.542961
vt 0.492225 0.543808
vt 0.444879 0.543158
vt 0.426077 0.543976
vt 0.468008 0.530343
vt 0.492225 0.530735
vt 0.446244 0.531480
vt 0.429195 0.533421
vt 0.660707 0.572290
vt 0.653582 0.572290
vt 0.653257 0.557383
vt 0.660707 0.557866
vt 0.646638 0.572290
vt 0.646213 0.557317
vt 0.640181 0.572290
vt 0.640034 0.557450
vt 0.625000 0.572290
vt 0.625000 0.557546
vt 0.653227 0.542961
vt 0.660707 0.543808
vt 0.646285 0.543158
vt 0.640558 0.543976
vt 0.625000 0.544491
vt 0.653330 0.530343
vt 0.660707 0.530735
vt 0.646701 0.531480
vt 0.641508 0.533421
vt 0.625000 0.534512
vt 0.639212 0.485788
vt 0.642853 0.482147
vt 0.635988 0.489012
vt 0.633523 0.491477
vt 0.609746 0.504760
vt 0.507775 0.572290
vt 0.507775 0.557866
vt 0.531948 0.557208
vt 0.531164 0.572290
vt 0.507775 0.543808
vt 0.532054 0.542946
vt 0.507775 0.530735
vt 0.531839 0.530436
vt 0.507775 0.500000
vt 0.531683 0.500000
vt 0.555335 0.557147
vt 0.553961 0.572290
vt 0.555015 0.543093
vt 0.553688 0.531498
vt 0.552853 0.500000
vt 0.575796 0.557356
vt 0.575160 0.572290
vt 0.573951 0.543934
vt 0.570805 0.533421
vt 0.569035 0.500000
vt 0.507775 0.464293
vt 0.531164 0.464293
vt 0.532231 0.471656
vt 0.507775 0.471418
vt 0.553961 0.464293
vt 0.555359 0.471689
vt 0.575160 0.464293
vt 0.575645 0.471623
vt 0.532331 0.478780
vt 0.507775 0.478361
vt 0.555121 0.478682
vt 0.573923 0.478278
vt 0.531992 0.485013
vt 0.507775 0.484819
vt 0.553756 0.484451
vt 0.570805 0.483492
vt 0.160707 0.750000
vt 0.153582 0.750000
vt 0.146639 0.750000
vt 0.140181 0.750000
vt 0.839293 0.750000
vt 0.846418 0.750000
vt 0.853361 0.750000
vt 0.859819 0.750000
vt 0.875000 0.750000
vt 0.625000 0.000000
vt 0.575160 0.000000
vt 0.553961 0.000000
vt 0.339293 0.750000
vt 0.346418 0.750000
vt 0.353362 0.750000
vt 0.359819 0.750000
vt 0.375000 0.750000
vt 0.424840 0.750000
vt 0.446039 0.750000
vt 0.468836 0.750000
vt 0.492225 0.750000
vt 0.660707 0.750000
vt 0.653582 0.750000
vt 0.646639 0.750000
vt 0.640181 0.750000
vt 0.625000 0.750000
vt 0.575160 0.750000
vt 0.553961 0.750000
vt 0.531164 0.750000
vt 0.507775 0.750000
s 1
f 12/1/12 15/2/15 20/3/20 19/4/19
f 15/2/15 16/5/16 21/6/21 20/3/20
f 16/5/16 17/7/17 22/8/22 21/6/21
f 17/7/17 18/9/18 23/10/23 22/8/22
f 19/4/19 20/3/20 25/11/25 24/12/24
f 20/3/20 21/6/21 26/13/26 25/11/25
f 21/6/21 22/8/22 27/14/27 26/13/26
f 22/8/22 23/10/23 28/15/28 27/14/27
f 24/12/24 25/11/25 30/16/30 29/17/29
f 25/11/25 26/13/26 31/18/31 30/16/30
f 26/13/26 27/14/27 32/19/32 31/18/31
f 27/14/27 28/15/28 33/20/33 32/19/32
f 29/17/29 30/16/30 62/21/62 57/22/57
f 30/16/30 31/18/31 67/23/67 62/21/62
f 31/18/31 32/19/32 72/24/72 67/23/67
f 32/19/32 33/20/33 34/25/34 72/24/72
f 13/26/13 35/27/35 40/28/40 39/29/39
f 35/27/35 36/30/36 41/31/41 40/28/40
f 36/30/36 37/32/37 42/33/42 41/31/41
f 37/32/37 38/34/38 43/35/43 42/33/42
f 39/29/39 40/28/40 45/36/45 44/37/44
f 40/28/40 41/31/41 46/38/46 45/36/45
f 41/31/41 42/33/42 47/39/47 46/38/46
f 42/33/42 43/35/43 48/40/48 47/39/47
f 44/37/44 45/36/45 50/41/50 49/42/49
f 45/36/45 46/38/46 51/43/51 50/41/50
f 46/38/46 47/39/47 52/44/52 51/43/51
f 47/39/47 48/40/48 53/45/53 52/44/52
f 49/42/49 50/41/50 23/46/23 18/47/18
f 50/41/50 51/43/51 28/48/28 23/46/23
f 51/43/51 52/44/52 33/49/33 28/48/28
f 52/44/52 53/45/53 34/50/34 33/49/33
f 14/51/14 54/52/54 59/53/59 58/54/58
f 54/52/54 55/55/55 60/56/60 59/53/59
f 55/55/55 56/57/56 61/58/61 60/56/60
f 56/57/56 57/59/57 62/60/62 61/58/61
f 58/54/58 59/53/59 64/61/64 63/62/63
f 59/53/59 60/56/60 65/63/65 64/61/64
f 60/56/60 61/58/61 66/64/66 65/63/65
f 61/58/61 62/60/62 67/65/67 66/64/66
f 63/62/63 64/61/64 69/66/69 68/67/68
f 64/61/64 65/63/65 70/68/70 69/66/69
f 65/63/65 66/64/66 71/69/71 70/68/70
f 66/64/66 67/65/67 72/70/72 71/69/71
f 68/67/68 69/66/69 43/35/43 38/34/38
f 69/66/69 70/68/70 48/40/48 43/35/43
f 70/68/70 71/69/71 53/45/53 48/40/48
f 71/69/71 72/70/72 34/50/34 53/45/53
f 73/71/73 76/72/76 81/73/81 80/74/80
f 76/72/76 77/75/77 82/76/82 81/73/81
f 77/75/77 78/77/78 83/78/83 82/76/82
f 78/77/78 79/79/79 84/80/84 83/78/83
f 80/74/80 81/73/81 86/81/86 85/82/85
f 81/73/81 82/76/82 87/83/87 86/81/86
f 82/76/82 83/78/83 88/84/88 87/83/87
f 83/78/83 84/80/84 89/85/89 88/84/88
f 85/82/85 86/81/86 91/86/91 90/87/90
f 86/81/86 87/83/87 92/88/92 91/86/91
f 87/83/87 88/84/88 93/89/93 92/88/92
f 88/84/88 89/85/89 94/90/94 93/89/93
f 90/87/90 91/86/91 123/91/123 118/92/118
f 91/86/91 92/88/92 128/93/128 123/91/123
f 92/88/92 93/89/93 133/94/133 128/93/128
f 93/89/93 94/90/94 95/95/95 133/94/133
f 74/96/74 96/97/96 101/98/101 100/99/100
f 96/97/96 97/100/97 102/101/102 101/98/101
f 97/100/97 98/102/98 103/103/103 102/101/102
f 98/102/98 99/104/99 104/105/104 103/103/103
f 100/99/100 101/98/101 106/106/106 105/107/105
f 101/98/101 102/101/102 107/108/107 106/106/106
f 102/101/102 103/103/103 108/109/108 107/108/107
f 103/103/103 104/105/104 109/110/109 108/109/108
f 105/107/105 106/106/106 111/111/111 110/112/110
f 106/106/106 107/108/107 112/113/112 111/111/111
f 107/108/107 108/109/108 113/114/113 112/113/112
f 108/109/108 109/110/109 114/115/114 113/114/113
f 110/112/110 111/111/111 84/116/84 79/117/79
f 111/111/111 112/113/112 89/118/89 84/116/84
f 112/113/112 113/114/113 94/119/94 89/118/89
f 113/114/113 114/115/114 95/120/95 94/119/94
f 75/121/75 115/122/115 120/123/120 119/124/119
f 115/122/115 116/125/116 121/126/121 120/123/120
f 116/125/116 117/127/117 122/128/122 121/126/121
f 117/127/117 118/129/118 123/130/123 122/128/122
f 119/124/119 120/123/120 125/131/125 124/132/124
f 120/123/120 121/126/121 126/133/126 125/131/125
f 121/126/121 122/128/122 127/134/127 126/133/126
f 122/128/122 123/130/123 128/135/128 127/134/127
f 124/132/124 125/131/125 130/136/130 129/137/129
f 125/131/125 126/133/126 131/138/131 130/136/130
f 126/133/126 127/134/127 132/139/132 131/138/131
f 127/134/127 128/135/128 133/140/133 132/139/132
f 129/137/129 130/136/130 104/105/104 99/104/99
f 130/136/130 131/138/131 109/110/109 104/105/104
f 131/138/131 132/139/132 114/115/114 109/110/109
f 132/139/132 133/140/133 95/120/95 114/115/114
f 152/141/152 155/142/155 160/143/160 159/144/159
f 155/142/155 156/145/156 161/146/161 160/143/160
f 156/145/156 157/147/157 162/148/162 161/146/161
f 157/147/157 158/149/158 163/150/163 162/148/162
f 159/144/159 160/143/160 165/151/165 164/152/164
f 160/143/160 161/146/161 166/153/166 165/151/165
f 161/146/161 162/148/162 167/154/167 166/153/166
f 162/148/162 163/150/163 168/155/168 167/154/167
f 164/152/164 165/151/165 170/156/170 169/157/169
f 165/151/165 166/153/166 171/158/171 170/156/170
f 166/153/166 167/154/167 172/159/172 171/158/171
f 167/154/167 168/155/168 173/160/173 172/159/172
f 169/157/169 170/156/170 202/161/202 197/162/197
f 170/156/170 171/158/171 207/163/207 202/161/202
f 171/158/171 172/159/172 212/164/212 207/163/207
f 172/159/172 173/160/173 174/165/174 212/164/212
f 153/166/153 175/167/175 180/168/180 179/169/179
f 175/167/175 176/170/176 181/171/181 180/168/180
f 176/170/176 177/172/177 182/173/182 181/171/181
f 177/172/177 178/174/178 183/175/183 182/173/182
f 179/169/179 180/168/180 185/176/185 184/177/184
f 180/168/180 181/171/181 186/178/186 185/176/185
f 181/171/181 182/173/182 187/179/187 186/178/186
f 182/173/182 183/175/183 188/180/188 187/179/187
f 184/177/184 185/176/185 190/181/190 189/182/189
f 185/176/185 186/178/186 191/183/191 190/181/190
f 186/178/186 187/179/187 192/184/192 191/183/191
f 187/179/187 188/180/188 193/185/193 192/184/192
f 189/182/189 190/181/190 163/150/163 158/149/158
f 190/181/190 191/183/191 168/155/168 163/150/163
f 191/183/191 192/184/192 173/160/173 168/155/168
f 192/184/192 193/185/193 174/165/174 173/160/173
f 154/186/154 194/187/194 199/188/199 198/189/198
f 194/187/194 195/190/195 200/191/200 199/188/199
f 195/190/195 196/192/196 201/193/201 200/191/200
f 196/192/196 197/162/197 202/161/202 201/193/201
f 198/189/198 199/188/199 204/194/204 203/195/203
f 199/188/199 200/191/200 205/196/205 204/194/204
f 200/191/200 201/193/201 206/197/206 205/196/205
f 201/193/201 202/161/202 207/163/207 206/197/206
f 203/195/203 204/194/204 209/198/209 208/199/208
f 204/194/204 205/196/205 210/200/210 209/198/209
f 205/196/205 206/197/206 211/201/211 210/200/210
f 206/197/206 207/163/207 212/164/212 211/201/211
f 208/199/208 209/198/209 183/175/183 178/174/178
f 209/198/209 210/200/210 188/180/188 183/175/183
f 210/200/210 211/201/211 193/185/193 188/180/188
f 211/201/211 212/164/212 174/165/174 193/185/193
f 213/202/213 216/203/216 221/204/221 220/205/220
f 216/203/216 217/206/217 222/207/222 221/204/221
f 217/206/217 218/208/218 223/209/223 222/207/222
f 218/208/218 219/210/219 224/211/224 223/209/223
f 220/205/220 221/204/221 226/212/226 225/213/225
f 221/204/221 222/207/222 227/214/227 226/212/226
f 222/207/222 223/209/223 228/215/228 227/214/227
f 223/209/223 224/211/224 229/216/229 228/215/228
f 225/213/225 226/212/226 231/217/231 230/218/230
f 226/212/226 227/214/227 232/219/232 231/217/231
f 227/214/227 228/215/228 233/220/233 232/219/232
f 228/215/228 229/216/229 234/221/234 233/220/233
f 230/218/230 231/217/231 263/222/263 258/223/258
f 231/217/231 232/219/232 268/224/268 263/222/263
f 232/219/232 233/220/233 273/225/273 268/224/268
f 233/220/233 234/221/234 235/226/235 273/225/273
f 214/227/214 236/228/236 241/229/241 240/230/240
f 236/228/236 237/231/237 242/232/242 241/229/241
f 237/231/237 238/233/238 243/234/243 242/232/242
f 238/233/238 239/235/239 244/236/244 243/234/243
f 240/230/240 241/229/241 246/237/246 245/238/245
f 241/229/241 242/232/242 247/239/247 246/237/246
f 242/232/242 243/234/243 248/240/248 247/239/247
f 243/234/243 244/236/244 249/241/249 248/240/248
f 245/238/245 246/237/246 251/242/251 250/243/250
f 246/237/246 247/239/247 252/244/252 251/242/251
f 247/239/247 248/240/248 253/245/253 252/244/252
f 248/240/248 249/241/249 254/246/254 253/245/253
f 250/243/250 251/242/251 224/211/224 219/210/219
f 251/242/251 252/244/252 229/216/229 224/211/224
f 252/244/252 253/245/253 234/221/234 229/216/229
f 253/245/253 254/246/254 235/226/235 234/221/234
f 215/247/215 255/248/255 260/249/260 259/250/259
f 255/248/255 256/251/256 261/252/261 260/249/260
f 256/251/256 257/253/257 262/254/262 261/252/261
f 257/253/257 258/223/258 263/222/263 262/254/262
f 259/250/259 260/249/260 265/255/265 264/256/264
f 260/249/260 261/252/261 266/257/266 265/255/265
f 261/252/261 262/254/262 267/258/267 266/257/266
f 262/254/262 263/222/263 268/224/268 267/258/267
f 264/256/264 265/255/265 270/259/270 269/260/269
f 265/255/265 266/257/266 271/261/271 270/259/270
f 266/257/266 267/258/267 272/262/272 271/261/271
f 267/258/267 268/224/268 273/225/273 272/262/272
f 269/260/269 270/259/270 244/236/244 239/235/239
f 270/259/270 271/261/271 249/241/249 244/236/244
f 271/261/271 272/262/272 254/246/254 249/241/249
f 272/262/272 273/225/273 235/226/235 254/246/254
f 12/1/12 1/263/1 4/264/4 15/2/15
f 15/2/15 4/264/4 3/265/3 16/5/16
f 16/5/16 3/265/3 2/266/2 17/7/17
f 5/267/5 73/71/73 80/74/80 6/268/6
f 6/268/6 80/74/80 85/82/85 7/269/7
f 7/269/7 85/82/85 90/87/90 8/270/8
f 8/270/8 90/87/90 118/92/118 9/271/9
f 9/272/9 118/129/118 117/127/117 10/273/10
f 10/273/10 117/127/117 116/125/116 11/274/11
f 74/96/74 14/51/14 58/54/58 96/97/96
f 96/97/96 58/54/58 63/62/63 97/100/97
f 97/100/97 63/62/63 68/67/68 98/102/98
f 98/102/98 68/67/68 38/34/38 99/104/99
f 99/104/99 38/34/38 37/32/37 129/137/129
f 129/137/129 37/32/37 36/30/36 124/132/124
f 124/132/124 36/30/36 35/27/35 119/124/119
f 119/124/119 35/27/35 13/26/13 75/121/75
f 152/141/152 12/1/12 19/4/19 155/142/155
f 155/142/155 19/4/19 24/12/24 156/145/156
f 156/145/156 24/12/24 29/17/29 157/147/157
f 157/147/157 29/17/29 57/22/57 158/149/158
f 158/149/158 57/59/57 56/57/56 189/182/189
f 189/182/189 56/57/56 55/55/55 184/177/184
f 184/177/184 55/55/55 54/52/54 179/169/179
f 179/169/179 54/52/54 14/51/14 153/166/153
f 73/71/73 213/202/213 220/205/220 76/72/76
f 76/72/76 220/205/220 225/213/225 77/75/77
f 77/75/77 225/213/225 230/218/230 78/77/78
f 78/77/78 230/218/230 258/223/258 79/79/79
f 79/117/79 258/223/258 257/253/257 110/112/110
f 110/112/110 257/253/257 256/251/256 105/107/105
f 105/107/105 256/251/256 255/248/255 100/99/100
f 100/99/100 255/248/255 215/247/215 74/96/74
f 214/227/214 154/186/154 198/189/198 236/228/236
f 236/228/236 198/189/198 203/195/203 237/231/237
f 237/231/237 203/195/203 208/199/208 238/233/238
f 238/233/238 208/199/208 178/174/178 239/235/239
f 239/235/239 178/174/178 177/172/177 269/260/269
f 269/260/269 177/172/177 176/170/176 264/256/264
f 264/256/264 176/170/176 175/167/175 259/250/259
f 259/250/259 175/167/175 153/166/153 215/247/215
f 134/275/134 152/141/152 159/144/159 136/276/136
f 136/276/136 159/144/159 164/152/164 137/277/137
f 137/277/137 164/152/164 169/157/169 138/278/138
f 138/278/138 169/157/169 197/162/197 139/279/139
f 139/279/139 197/162/197 196/192/196 140/280/140
f 140/280/140 196/192/196 195/190/195 141/281/141
f 141/281/141 195/190/195 194/187/194 142/282/142
f 142/282/142 194/187/194 154/186/154 135/283/135
f 213/202/213 144/284/144 151/285/151 216/203/216
f 216/203/216 151/285/151 150/286/150 217/206/217
f 217/206/217 150/286/150 149/287/149 218/208/218
f 218/208/218 149/287/149 148/288/148 219/210/219
f 219/210/219 148/288/148 147/289/147 250/243/250
f 250/243/250 147/289/147 146/290/146 245/238/245
f 245/238/245 146/290/146 145/291/145 240/230/240
f 240/230/240 145/291/145 143/292/143 214/227/214
f 14/51/14 74/96/74 215/247/215 153/166/153
f 154/186/154 214/227/214 143/292/143 135/283/135
f 275/1/274 277/141/274 276/275/274 274/263/274
f 281/202/275 279/71/275 278/267/275 280/284/275
