# Blender 5.2.2 LTS
# www.blender.org
mtllib hornet_cloak.mtl
o CLOAK
v -0.221988 1.387892 -0.507489
v -0.331283 1.397545 -0.428928
v -0.449316 1.343930 -0.359376
v -0.559218 1.287946 -0.255332
v -0.661016 1.213805 -0.149590
v -0.769276 1.110463 -0.084071
v -0.836406 1.055670 0.038720
v -0.855221 1.030811 0.175093
v -0.811740 1.052191 0.332292
v -0.740113 1.090241 0.459371
v -0.662487 1.096694 0.599200
v -0.561739 1.072555 0.735119
v -0.463046 1.020755 0.910057
v -0.312825 0.965356 1.051069
v -0.121294 0.979313 1.099549
v 0.043626 1.048805 1.052801
v 0.229831 1.078559 1.014144
v 0.035835 0.847435 -0.065143
v -0.041767 0.826497 -0.049742
v -0.119207 0.795586 -0.022138
v -0.184634 0.764517 0.014391
v -0.239729 0.738684 0.061397
v -0.285632 0.716013 0.110819
v -0.323684 0.692208 0.156882
v -0.359644 0.677578 0.204692
v -0.391494 0.671129 0.256752
v -0.414471 0.667472 0.314643
v -0.436637 0.673405 0.376409
v -0.437958 0.670283 0.438626
v -0.399238 0.666735 0.480550
v -0.324345 0.655711 0.504386
v -0.240921 0.644638 0.525980
v -0.164764 0.624176 0.554384
v -0.104437 0.603238 0.581735
v 0.527296 -1.429810 -0.574214
v 0.084468 -1.424230 -0.750773
v -0.176255 -1.295737 -1.035328
v -0.313265 -1.065049 -1.336582
v -0.680080 -0.983917 -1.494765
v -1.079209 -1.038276 -1.376358
v -1.381522 -1.110531 -1.081405
v -1.650385 -1.158635 -0.717958
v -1.962301 -1.139788 -0.364844
v -1.975714 -1.207464 -0.065890
v -1.919055 -1.271267 0.231529
v -1.848240 -1.290075 0.535027
v -1.712147 -1.303154 0.839150
v -1.701081 -1.150816 1.050223
v -1.677974 -0.899876 1.245588
v -1.390785 -0.886540 1.589975
v -0.965494 -1.030034 1.701129
v -1.406809 -0.424187 0.428941
v -1.558358 -0.375060 0.251789
v -1.154362 -0.473678 0.515736
v -0.953826 -0.490547 0.731476
v -0.898807 -0.403527 0.962185
v -0.076311 -0.367735 -0.417027
v 0.248973 -0.346711 -0.543886
v -0.858220 -0.234596 1.193716
v -0.426735 -0.370783 -0.411610
v -0.558037 -0.233499 1.406344
v -0.584599 -0.370084 -0.661343
v -0.757734 -0.370349 -0.829011
v -0.979282 -0.398798 -0.825953
v -1.182700 -0.434279 -0.673976
v -1.357275 -0.438281 -0.442134
v -1.501164 -0.389560 -0.199359
v -1.561505 -0.358174 0.028417
v -1.037051 0.072315 0.427017
v -0.877513 0.048813 0.538721
v -0.699295 0.027854 0.591657
v -0.549694 0.031478 0.728127
v -0.192520 0.202137 -0.441107
v -0.471497 0.090434 0.901600
v -0.412385 0.175026 -0.327454
v -0.345373 0.164444 1.070682
v -0.580026 0.138044 -0.357227
v -0.704647 0.143795 -0.453451
v -0.838920 0.154087 -0.488109
v -0.963134 0.125740 -0.407009
v -1.043588 0.087915 -0.242726
v -1.101065 0.071923 -0.057566
v -1.149474 0.090274 0.110080
v -1.134080 0.096714 0.269648
v 0.084292 0.214231 -0.473624
v 0.876918 -2.387087 -1.032119
v 0.595700 -2.203270 -1.418906
v 0.451161 -1.876923 -1.790472
v 0.016188 -1.777471 -2.087780
v -0.487669 -1.886168 -2.067720
v -0.871322 -2.015595 -1.802864
v -1.221463 -2.099406 -1.480450
v -1.631628 -2.138575 -1.212986
v -1.986169 -2.163535 -0.813208
v -2.178496 -2.193133 -0.319059
v -2.199545 -2.252905 0.144953
v -2.294992 -2.185251 0.585548
v -2.391958 -1.944948 0.888264
v -2.472932 -1.565553 1.061165
v -2.297832 -1.488949 1.475727
v -1.871199 -1.654530 1.764048
v -1.376028 -1.836206 1.808900
v -0.075189 1.398498 -0.543623
v 0.079415 1.437527 -0.493669
v 0.201935 1.452226 -0.373384
v 0.378370 1.390602 -0.301070
v 0.557776 1.288728 -0.272312
v 0.700900 1.255734 -0.166122
v 0.795932 1.240153 -0.005683
v 0.881028 1.147916 0.117141
v 0.922438 1.091645 0.272727
v 0.887303 1.098032 0.414329
v 0.783607 1.142713 0.487862
v 0.684394 1.139096 0.604830
v 0.597494 1.100213 0.743038
v 0.512156 1.039276 0.880255
v 0.384376 1.040031 0.981080
v 0.119513 0.867950 -0.081512
v 0.200201 0.859469 -0.085046
v 0.230478 0.849266 -0.072699
v 0.272027 0.808041 -0.036308
v 0.305841 0.778054 0.027686
v 0.333980 0.751428 0.100059
v 0.362280 0.726809 0.177284
v 0.379323 0.701433 0.253970
v 0.380008 0.675116 0.326723
v 0.346199 0.649114 0.393006
v 0.268952 0.629466 0.450881
v 0.195920 0.612864 0.512909
v 0.118377 0.603048 0.573999
v 0.034053 0.598499 0.612553
v -0.040930 0.599500 0.607278
v 1.016147 -1.370253 -0.618647
v 1.478664 -1.311986 -0.532287
v 1.858988 -1.269673 -0.224370
v 2.021053 -1.270637 0.194819
v 1.862035 -1.294933 0.479546
v 1.836568 -1.245597 0.735908
v 1.865265 -1.186046 1.047312
v 1.757984 -1.112039 1.357069
v 1.455516 -1.068799 1.565503
v 1.059242 -1.121984 1.626332
v 0.740220 -1.280757 1.546066
v 0.389396 -1.373851 1.449143
v 0.039466 -1.388294 1.365452
v -0.283328 -1.312279 1.414994
v -0.580064 -1.186094 1.600500
v 0.677922 -0.620684 0.789178
v 0.928125 -0.571096 0.801154
v 0.398346 -0.604773 0.870928
v 0.169211 -0.546514 1.030943
v -0.035022 -0.461938 1.212280
v 0.594861 -0.328392 -0.520324
v -0.251493 -0.351838 1.370139
v 0.891784 -0.324318 -0.372007
v 1.103540 -0.342456 -0.170854
v 1.290372 -0.323899 0.020530
v 1.396132 -0.309815 0.236848
v 1.489974 -0.285187 0.439935
v 1.477015 -0.272335 0.673213
v 1.305323 -0.348612 0.829314
v 1.131339 -0.487571 0.799011
v 0.530219 -0.026067 0.654153
v 0.405659 -0.020118 0.800675
v 0.254019 0.015216 0.932096
v 0.105745 0.078698 1.062330
v 0.360549 0.198531 -0.392902
v -0.099831 0.151368 1.139690
v 0.542930 0.156438 -0.227794
v 0.712935 0.149314 -0.088467
v 0.871245 0.194293 -0.013051
v 0.967676 0.228097 0.121297
v 1.027269 0.247599 0.286329
v 1.005590 0.215057 0.460670
v 0.904018 0.127479 0.539315
v 0.786577 0.043844 0.513121
v 0.656205 -0.004146 0.547520
v 1.355083 -2.378840 -0.692633
v 1.996143 -2.254137 -0.571843
v 2.505421 -2.167938 -0.214367
v 2.518840 -2.156319 0.241961
v 2.288458 -2.174971 0.618657
v 2.009985 -2.175043 0.966084
v 1.909013 -2.096518 1.369439
v 1.837376 -1.988010 1.764001
v 1.639648 -1.842227 2.108308
v 1.243457 -1.731304 2.295408
v 0.747912 -1.771925 2.280576
v 0.373544 -1.983219 2.124829
v -0.030113 -2.179264 1.907176
v -0.464895 -2.200157 1.696768
v -0.905858 -2.023434 1.696758
v 1.435571 -3.014677 -1.598056
v 1.265261 -2.667208 -2.057648
v 0.801529 -2.534285 -2.482123
v 0.193275 -2.665759 -2.574545
v -0.268433 -2.867456 -2.290311
v -0.579511 -3.022950 -1.845229
v -1.060359 -3.139529 -1.609958
v -1.575006 -3.183719 -1.480134
v -1.997582 -3.207711 -1.120243
v -2.247370 -3.242078 -0.635418
v -2.560277 -3.136429 -0.162718
v -2.875778 -2.834876 0.201511
v -3.107268 -2.420353 0.503936
v -3.127270 -2.237387 1.032325
v -2.773704 -2.405399 1.516152
v -2.238136 -2.627015 1.618629
v -1.690133 -2.822721 1.829288
v 1.646764 -3.258381 -1.077404
v 1.934919 -3.296179 -0.608948
v 2.463815 -3.194738 -0.037883
v 2.697493 -3.126729 0.488737
v 2.515450 -3.118711 0.905429
v 2.208535 -3.122673 1.319506
v 1.915709 -3.066551 1.732095
v 1.670415 -2.934050 2.148700
v 1.581700 -2.745861 2.609671
v 1.271996 -2.522372 2.970496
v 0.703663 -2.362989 3.122070
v 0.058390 -2.402822 3.051654
v -0.542301 -2.780445 2.814819
v -0.909380 -3.070437 2.394371
v -1.143035 -2.996966 1.999652
v 0.037680 0.737546 -0.187339
v 0.028874 0.559805 -0.292406
v -0.170867 0.525734 -0.285210
v -0.109389 0.701778 -0.169088
v -0.344598 0.502658 -0.239412
v -0.243674 0.667969 -0.132044
v -0.482700 0.448994 -0.198899
v -0.347888 0.634255 -0.079970
v -0.590994 0.439138 -0.205877
v -0.409026 0.594802 -0.033236
v -0.681838 0.440679 -0.199814
v -0.450960 0.561635 0.011628
v -0.763042 0.426949 -0.150579
v -0.499469 0.565842 0.062787
v -0.834681 0.420790 -0.065940
v -0.551078 0.590298 0.111212
v -0.863247 0.434783 0.049300
v -0.585203 0.603294 0.181454
v -0.824575 0.447541 0.190077
v -0.591297 0.609286 0.267734
v -0.792241 0.418768 0.318876
v -0.577860 0.590499 0.355892
v -0.753634 0.394290 0.439876
v -0.534736 0.552247 0.420282
v -0.666152 0.379002 0.531451
v -0.482458 0.540625 0.481722
v -0.557818 0.375571 0.599078
v -0.435741 0.566090 0.558375
v -0.435071 0.379262 0.667715
v -0.358165 0.564783 0.619958
v -0.332895 0.387908 0.759895
v -0.274101 0.549688 0.691466
v -0.233470 0.376607 0.863552
v -0.184071 0.522475 0.728647
v 0.188676 0.729376 -0.174543
v 0.225021 0.520030 -0.248515
v 0.291118 0.687288 -0.120463
v 0.390374 0.470672 -0.172269
v 0.385051 0.667494 -0.081553
v 0.533557 0.447514 -0.076590
v 0.474853 0.664014 -0.020581
v 0.648321 0.453494 0.004845
v 0.541885 0.663098 0.068691
v 0.736214 0.482435 0.105729
v 0.585529 0.651856 0.169582
v 0.788419 0.487183 0.231124
v 0.607493 0.613222 0.264760
v 0.785396 0.446478 0.350948
v 0.604374 0.572964 0.344684
v 0.737600 0.391454 0.428233
v 0.585622 0.549522 0.417752
v 0.670940 0.353511 0.476624
v 0.538092 0.534163 0.492999
v 0.591659 0.337393 0.543473
v 0.436290 0.514540 0.564681
v 0.494670 0.335742 0.636523
v 0.281669 0.483451 0.621714
v 0.362030 0.318034 0.726668
v 0.140096 0.475045 0.681813
v 0.208831 0.295018 0.804441
v 0.023003 0.490501 0.738363
v 0.068014 0.309366 0.880641
v -0.089684 0.507346 0.748592
v -0.085393 0.347740 0.912752
v -0.288393 0.861823 0.903547
v -0.316893 0.731935 0.651359
v -0.197892 0.674969 0.745890
v -0.090452 0.907092 0.962011
v -0.132777 1.228970 -0.327640
v -0.035631 1.038719 -0.225999
v -0.133104 1.019283 -0.184523
v -0.237350 1.198570 -0.300649
v -0.084534 0.687331 0.780424
v 0.039551 0.947667 0.929706
v -0.203848 1.006734 -0.125673
v -0.332133 1.162093 -0.244710
v -0.010671 0.708662 0.771308
v 0.155383 0.962195 0.887510
v -0.283501 0.967658 -0.071510
v -0.427910 1.108205 -0.180123
v -0.362597 0.905547 -0.030346
v -0.524189 1.026764 -0.132818
v -0.437141 0.843440 0.017966
v -0.611043 0.960715 -0.051518
v -0.483782 0.818322 0.102654
v -0.657712 0.941533 0.066523
v -0.479039 0.837055 0.188190
v -0.658804 0.956035 0.172753
v -0.465796 0.840102 0.273962
v -0.619122 0.989645 0.283636
v -0.461773 0.824399 0.360786
v -0.577296 0.987513 0.400549
v -0.476955 0.798760 0.441859
v -0.555647 0.953741 0.519907
v -0.474099 0.768961 0.527667
v -0.532699 0.913643 0.643585
v -0.419345 0.746508 0.593561
v -0.454120 0.883454 0.761742
v 0.494179 0.902447 0.682402
v 0.338751 0.706703 0.607965
v 0.172301 0.708048 0.678870
v 0.389920 0.897788 0.783980
v 0.081248 1.073754 -0.252474
v -0.013954 1.213820 -0.392178
v 0.076914 0.721537 0.735636
v 0.291596 0.943470 0.851468
v 0.201473 1.082305 -0.274446
v 0.130187 1.225993 -0.396359
v 0.290491 1.082007 -0.255402
v 0.244878 1.232433 -0.344201
v 0.386542 1.074158 -0.206467
v 0.364273 1.213493 -0.244448
v 0.460793 1.052131 -0.148002
v 0.495741 1.170835 -0.192673
v 0.509189 1.012450 -0.068701
v 0.591746 1.166193 -0.087399
v 0.538005 0.944652 0.036366
v 0.661547 1.141582 0.042874
v 0.552488 0.881093 0.156892
v 0.720811 1.063933 0.158796
v 0.572114 0.821678 0.270350
v 0.762983 0.968897 0.268671
v 0.568788 0.776005 0.368612
v 0.758048 0.929985 0.393292
v 0.535548 0.744472 0.451341
v 0.701782 0.932292 0.488797
v 0.469360 0.720827 0.526392
v 0.610305 0.923867 0.581503
v -0.214671 1.408270 -0.488937
v -0.324674 1.416309 -0.408504
v -0.442409 1.361050 -0.337648
v -0.550593 1.302954 -0.232676
v -0.652228 1.225729 -0.125227
v -0.757415 1.127194 -0.064263
v -0.822701 1.079402 0.046588
v -0.844495 1.057087 0.172359
v -0.802949 1.078097 0.324261
v -0.726518 1.114449 0.452883
v -0.641698 1.115245 0.593148
v -0.538257 1.085725 0.725735
v -0.443506 1.037193 0.897372
v -0.305072 0.988352 1.036103
v -0.126827 1.002644 1.084123
v 0.033837 1.070303 1.036834
v 0.226557 1.100663 0.996436
v 0.039811 0.846612 -0.036921
v -0.031746 0.824315 -0.023138
v -0.105543 0.790750 0.002415
v -0.168873 0.757793 0.037179
v -0.221671 0.733566 0.082860
v -0.265235 0.714238 0.130662
v -0.300490 0.688807 0.173111
v -0.334376 0.669627 0.215239
v -0.366381 0.659143 0.262967
v -0.389810 0.653774 0.318778
v -0.410035 0.663169 0.375727
v -0.411963 0.668453 0.427056
v -0.378626 0.671247 0.461374
v -0.307338 0.657652 0.481584
v -0.225868 0.646500 0.501837
v -0.160618 0.627860 0.526417
v -0.104384 0.601743 0.553263
v 0.520420 -1.439196 -0.548184
v 0.069418 -1.439884 -0.732297
v -0.196518 -1.313333 -1.025698
v -0.328671 -1.084655 -1.322755
v -0.678292 -1.001798 -1.472629
v -1.064015 -1.050690 -1.355670
v -1.361948 -1.121080 -1.063558
v -1.630419 -1.169755 -0.700910
v -1.938094 -1.150647 -0.354401
v -1.948757 -1.216742 -0.065506
v -1.892671 -1.281157 0.227169
v -1.824269 -1.304189 0.528772
v -1.691462 -1.322487 0.842509
v -1.682862 -1.171189 1.058343
v -1.659493 -0.921496 1.243610
v -1.379576 -0.903183 1.569718
v -0.966697 -1.037269 1.673576
v -1.388774 -0.436692 0.410739
v -1.535316 -0.389411 0.243072
v -1.137640 -0.487119 0.496956
v -0.932767 -0.508691 0.725134
v -0.878263 -0.423285 0.962883
v -0.076967 -0.372932 -0.389000
v 0.248907 -0.350289 -0.515600
v -0.841777 -0.255715 1.183888
v -0.440063 -0.380423 -0.388321
v -0.555064 -0.248984 1.382589
v -0.603897 -0.383884 -0.645529
v -0.763787 -0.388745 -0.808085
v -0.968541 -0.416055 -0.805959
v -1.163786 -0.449369 -0.658894
v -1.337316 -0.453662 -0.428792
v -1.479911 -0.406173 -0.190126
v -1.538119 -0.374449 0.029493
v -1.020748 0.059539 0.407423
v -0.863944 0.039791 0.515323
v -0.682507 0.017105 0.571272
v -0.527623 0.016604 0.717901
v -0.185460 0.196083 -0.414154
v -0.451361 0.072010 0.893351
v -0.410523 0.166728 -0.300240
v -0.336335 0.144425 1.052503
v -0.591991 0.127011 -0.333817
v -0.713393 0.128544 -0.431005
v -0.832069 0.135601 -0.467512
v -0.945368 0.108158 -0.393292
v -1.022960 0.070698 -0.233187
v -1.080162 0.053831 -0.050590
v -1.128343 0.071165 0.111202
v -1.113894 0.078816 0.260421
v 0.084180 0.206093 -0.446298
v 0.859474 -2.405195 -1.018676
v 0.575851 -2.223262 -1.414511
v 0.433517 -1.897794 -1.782348
v 0.011034 -1.795986 -2.066719
v -0.476576 -1.895131 -2.043031
v -0.853900 -2.018216 -1.780446
v -1.204705 -2.102896 -1.457648
v -1.613564 -2.144714 -1.191798
v -1.962429 -2.169600 -0.798628
v -2.151472 -2.199556 -0.312624
v -2.174667 -2.264753 0.152277
v -2.277486 -2.203049 0.599322
v -2.377930 -1.963652 0.904583
v -2.454360 -1.585797 1.068791
v -2.280159 -1.505492 1.460663
v -1.862609 -1.661499 1.737769
v -1.375287 -1.839287 1.780565
v -0.073898 1.416739 -0.521748
v 0.068483 1.447036 -0.469113
v 0.186395 1.455782 -0.349745
v 0.369341 1.398096 -0.275084
v 0.551982 1.305740 -0.250177
v 0.689124 1.278088 -0.152910
v 0.785983 1.262419 0.009089
v 0.871793 1.168634 0.134415
v 0.905826 1.113284 0.281016
v 0.866854 1.115001 0.403993
v 0.764690 1.152471 0.468893
v 0.663624 1.149104 0.588056
v 0.576872 1.114807 0.729821
v 0.497558 1.059699 0.866737
v 0.380352 1.062313 0.963751
v 0.118657 0.870853 -0.053161
v 0.193222 0.863820 -0.057746
v 0.219294 0.853751 -0.046858
v 0.253285 0.805520 -0.014969
v 0.283014 0.772613 0.043880
v 0.309067 0.744573 0.112112
v 0.335016 0.720680 0.182941
v 0.351203 0.697286 0.256211
v 0.351689 0.673111 0.324078
v 0.321998 0.649587 0.377938
v 0.250734 0.633301 0.429287
v 0.181036 0.616529 0.488867
v 0.105397 0.605109 0.548697
v 0.025312 0.598068 0.585417
v -0.044144 0.598230 0.578976
v 1.010991 -1.376203 -0.591244
v 1.467603 -1.320737 -0.507508
v 1.839568 -1.283455 -0.208690
v 1.997119 -1.286119 0.194191
v 1.837047 -1.307357 0.473700
v 1.809460 -1.254296 0.734348
v 1.838615 -1.194944 1.042459
v 1.737600 -1.126183 1.343019
v 1.447459 -1.088494 1.546525
v 1.062640 -1.143509 1.607946
v 0.748953 -1.301222 1.528237
v 0.396163 -1.392181 1.428379
v 0.039525 -1.401474 1.340170
v -0.291811 -1.318136 1.388411
v -0.589743 -1.188613 1.573799
v 0.676882 -0.636165 0.765258
v 0.931346 -0.588569 0.778855
v 0.389779 -0.616041 0.846178
v 0.155552 -0.552368 1.006610
v -0.050779 -0.464733 1.188683
v 0.588143 -0.335994 -0.493678
v -0.262101 -0.358243 1.344461
v 0.878283 -0.337043 -0.350356
v 1.086948 -0.356667 -0.152533
v 1.269458 -0.339179 0.032449
v 1.372353 -0.324220 0.243173
v 1.465357 -0.299123 0.443506
v 1.455934 -0.289437 0.664492
v 1.298763 -0.366083 0.807758
v 1.134576 -0.504114 0.776016
v 0.516005 -0.032474 0.630282
v 0.389063 -0.025546 0.778135
v 0.236381 0.008836 0.910622
v 0.089379 0.069276 1.040969
v 0.349627 0.186699 -0.369373
v -0.107023 0.136180 1.116657
v 0.527093 0.142933 -0.208307
v 0.698175 0.136483 -0.067720
v 0.855141 0.180980 0.006349
v 0.947655 0.212269 0.134008
v 1.006178 0.228624 0.289164
v 0.990806 0.195153 0.446592
v 0.903341 0.115008 0.513684
v 0.787019 0.035907 0.485740
v 0.647717 -0.012126 0.521496
v 1.342800 -2.388932 -0.668963
v 1.981683 -2.258756 -0.547708
v 2.481687 -2.174195 -0.199859
v 2.492141 -2.165877 0.239006
v 2.265639 -2.185474 0.605170
v 1.984762 -2.183125 0.955527
v 1.881847 -2.100861 1.361953
v 1.811240 -1.992846 1.753683
v 1.619173 -1.853663 2.092093
v 1.236454 -1.750665 2.275684
v 0.754173 -1.794210 2.263930
v 0.386375 -2.004937 2.111539
v -0.016901 -2.199406 1.891923
v -0.458697 -2.215441 1.673511
v -0.908063 -2.029392 1.668963
v 1.415293 -3.034189 -1.593470
v 1.245534 -2.687793 -2.057395
v 0.787131 -2.555431 -2.469533
v 0.195070 -2.679566 -2.549664
v -0.252744 -2.870028 -2.266643
v -0.561720 -3.021025 -1.823032
v -1.046675 -3.140607 -1.584968
v -1.559402 -3.188134 -1.456683
v -1.974728 -3.212535 -1.103892
v -2.221642 -3.248232 -0.624779
v -2.537700 -3.148700 -0.150363
v -2.864107 -2.853003 0.220170
v -3.101186 -2.439398 0.524264
v -3.108931 -2.258608 1.037451
v -2.757423 -2.414914 1.494766
v -2.229942 -2.628724 1.591373
v -1.686866 -2.825353 1.801087
v 1.628972 -3.271353 -1.059290
v 1.918004 -3.298797 -0.586144
v 2.439361 -3.193716 -0.023258
v 2.669789 -3.132056 0.484613
v 2.492920 -3.128245 0.890785
v 2.184957 -3.131166 1.305910
v 1.889526 -3.070632 1.721571
v 1.643573 -2.935405 2.139183
v 1.557864 -2.752797 2.595648
v 1.259570 -2.539500 2.951386
v 0.705890 -2.386446 3.106016
v 0.071236 -2.426764 3.043010
v -0.526300 -2.802601 2.806695
v -0.896479 -3.089870 2.377974
v -1.138554 -3.007932 1.973718
v 0.039734 0.720332 -0.164702
v 0.027866 0.545967 -0.267497
v -0.163705 0.511424 -0.261613
v -0.101153 0.682668 -0.149597
v -0.334173 0.487272 -0.217790
v -0.231834 0.647214 -0.116489
v -0.477502 0.431370 -0.177097
v -0.333769 0.612156 -0.068780
v -0.590450 0.417615 -0.187185
v -0.395334 0.571249 -0.024824
v -0.675707 0.416805 -0.185484
v -0.438982 0.536800 0.018887
v -0.750379 0.403708 -0.139975
v -0.490022 0.540564 0.071988
v -0.818195 0.399063 -0.057630
v -0.542138 0.564600 0.119734
v -0.844842 0.413479 0.053806
v -0.573830 0.577402 0.185087
v -0.805713 0.426326 0.187411
v -0.577587 0.584388 0.265478
v -0.773820 0.399354 0.309044
v -0.562033 0.568513 0.347003
v -0.737416 0.377389 0.423620
v -0.518643 0.533910 0.405526
v -0.652273 0.365269 0.510673
v -0.466229 0.523728 0.465471
v -0.542531 0.363927 0.578014
v -0.422066 0.548491 0.540593
v -0.417213 0.367422 0.648904
v -0.347760 0.545566 0.601644
v -0.315322 0.372503 0.743561
v -0.265990 0.529013 0.673586
v -0.223876 0.356767 0.845462
v -0.180372 0.500563 0.710784
v 0.180920 0.715201 -0.151052
v 0.213883 0.507247 -0.225592
v 0.277987 0.675653 -0.097988
v 0.374751 0.458875 -0.151540
v 0.369654 0.654125 -0.061625
v 0.518632 0.437086 -0.054649
v 0.458157 0.646525 -0.005471
v 0.632746 0.441016 0.025208
v 0.525471 0.641164 0.076593
v 0.717423 0.465158 0.118430
v 0.570801 0.627463 0.168595
v 0.769061 0.466267 0.231967
v 0.594685 0.589522 0.255421
v 0.770326 0.426120 0.337858
v 0.592112 0.551269 0.330831
v 0.728466 0.376308 0.405870
v 0.571885 0.530108 0.402024
v 0.660024 0.343648 0.452200
v 0.524777 0.516129 0.475380
v 0.575410 0.329633 0.521367
v 0.426792 0.496222 0.545005
v 0.478762 0.326721 0.614649
v 0.274015 0.464907 0.601453
v 0.348696 0.306121 0.704460
v 0.130360 0.456636 0.662338
v 0.195420 0.280428 0.783942
v 0.015228 0.470741 0.719336
v 0.055847 0.292057 0.861528
v -0.091049 0.485545 0.730267
v -0.088785 0.327543 0.892914
v -0.277846 0.883153 0.887839
v -0.305054 0.754415 0.638419
v -0.191935 0.699052 0.731838
v -0.093671 0.928757 0.943757
v -0.126517 1.247920 -0.307277
v -0.032403 1.056567 -0.204000
v -0.127445 1.036808 -0.162757
v -0.231101 1.216736 -0.279580
v -0.086522 0.710128 0.763417
v 0.030992 0.967223 0.910805
v -0.197030 1.024269 -0.104251
v -0.325559 1.180279 -0.223757
v -0.015718 0.729497 0.752509
v 0.149461 0.981698 0.867572
v -0.279624 0.984086 -0.048531
v -0.422890 1.124694 -0.157410
v -0.359817 0.922598 -0.007664
v -0.519554 1.041746 -0.109007
v -0.429489 0.864334 0.035793
v -0.601115 0.980016 -0.033030
v -0.468442 0.841406 0.109344
v -0.643313 0.965441 0.072355
v -0.459239 0.857498 0.186462
v -0.645201 0.980653 0.168082
v -0.442623 0.856684 0.272970
v -0.605060 1.013355 0.276357
v -0.436164 0.836511 0.364016
v -0.558351 1.008550 0.397166
v -0.450475 0.808830 0.445068
v -0.532156 0.969765 0.517819
v -0.450255 0.783697 0.522449
v -0.509151 0.927900 0.636158
v -0.403744 0.766976 0.581289
v -0.435220 0.900906 0.749446
v 0.477078 0.919414 0.667151
v 0.327497 0.728285 0.593116
v 0.164704 0.728159 0.660141
v 0.378226 0.917767 0.767335
v 0.083531 1.092591 -0.231193
v -0.011911 1.232253 -0.370521
v 0.071517 0.741113 0.715621
v 0.286341 0.963886 0.832271
v 0.198364 1.099574 -0.251973
v 0.121902 1.238827 -0.372284
v 0.280840 1.095607 -0.232275
v 0.231750 1.239869 -0.320008
v 0.375253 1.086898 -0.183593
v 0.354258 1.221875 -0.219103
v 0.445952 1.066609 -0.128429
v 0.484932 1.185111 -0.170485
v 0.491362 1.028329 -0.053112
v 0.575676 1.184577 -0.072678
v 0.520358 0.961869 0.050686
v 0.646481 1.160451 0.058037
v 0.536068 0.899873 0.170699
v 0.707068 1.082617 0.175379
v 0.556329 0.842843 0.281113
v 0.745864 0.989451 0.278541
v 0.552219 0.799135 0.370451
v 0.737996 0.949501 0.387813
v 0.519592 0.767143 0.444685
v 0.682222 0.946914 0.474081
v 0.455288 0.743050 0.515388
v 0.591132 0.937816 0.565668
vn -0.3907 -0.0221 -0.9203
vn -0.5100 0.1397 -0.8488
vn -0.6031 0.0693 -0.7946
vn -0.6896 0.1522 -0.7080
vn -0.7174 0.2429 -0.6529
vn -0.7927 -0.0190 -0.6093
vn -0.9306 -0.2403 -0.2761
vn -0.9118 -0.3910 0.1255
vn -0.8457 -0.3570 0.3965
vn -0.8917 -0.1641 0.4219
vn -0.8916 0.0866 0.4445
vn -0.8043 0.2651 0.5318
vn -0.7225 0.1204 0.6808
vn -0.4120 -0.1878 0.8916
vn 0.0559 -0.2247 0.9728
vn 0.2511 -0.0613 0.9660
vn 0.2179 -0.0171 0.9758
vn -0.1395 0.0289 -0.9898
vn -0.3515 0.0765 -0.9331
vn -0.4792 0.1696 -0.8611
vn -0.5528 0.2358 -0.7993
vn -0.6333 0.1795 -0.7528
vn -0.7154 0.0623 -0.6960
vn -0.8135 0.1193 -0.5692
vn -0.8862 0.2789 -0.3699
vn -0.8808 0.4204 -0.2180
vn -0.8650 0.4804 -0.1450
vn -0.9330 0.3590 0.0239
vn -0.9117 0.0642 0.4058
vn -0.7229 -0.1582 0.6725
vn -0.5965 -0.0681 0.7997
vn -0.5279 -0.0653 0.8468
vn -0.1454 -0.1292 0.9809
vn -0.0019 0.0525 0.9986
vn 0.2412 0.3292 -0.9129
vn 0.5278 0.5490 -0.6480
vn 0.7107 0.6171 -0.3378
vn 0.5403 0.6876 -0.4849
vn -0.0627 0.6271 -0.7764
vn -0.5329 0.4354 -0.7256
vn -0.6865 0.3700 -0.6259
vn -0.7003 0.3900 -0.5979
vn -0.8490 0.3809 -0.3663
vn -0.9455 0.3254 -0.0134
vn -0.9254 0.3469 0.1529
vn -0.8407 0.4950 0.2194
vn -0.7255 0.6781 -0.1178
vn -0.6390 0.7145 -0.2848
vn -0.6482 0.7583 0.0694
vn -0.3931 0.5837 0.7105
vn 0.0422 0.2537 0.9664
vn -0.6325 0.4386 0.6384
vn -0.8082 0.5033 0.3058
vn -0.5865 0.4714 0.6586
vn -0.7386 0.6364 0.2225
vn -0.7205 0.6930 -0.0245
vn 0.0230 0.1823 -0.9830
vn 0.0023 0.1255 -0.9921
vn -0.5767 0.7407 0.3447
vn 0.4675 0.3381 -0.8168
vn -0.1043 0.5431 0.8332
vn 0.6768 0.4840 -0.5546
vn 0.2123 0.6452 -0.7339
vn -0.3767 0.6053 -0.7012
vn -0.6634 0.5293 -0.5290
vn -0.7000 0.5395 -0.4680
vn -0.7454 0.5826 -0.3239
vn -0.8202 0.5708 -0.0378
vn -0.5718 0.4481 0.6872
vn -0.4759 0.3164 0.8206
vn -0.5888 0.3770 0.7150
vn -0.7741 0.5217 0.3586
vn -0.2476 0.2123 -0.9453
vn -0.7062 0.6462 0.2893
vn -0.0653 0.2910 -0.9545
vn -0.3170 0.7021 0.6376
vn 0.4197 0.3869 -0.8211
vn 0.3068 0.5349 -0.7873
vn -0.2403 0.6484 -0.7224
vn -0.6231 0.6167 -0.4811
vn -0.7235 0.6039 -0.3346
vn -0.7331 0.6345 -0.2447
vn -0.7411 0.6702 -0.0394
vn -0.7080 0.6277 0.3236
vn 0.0039 0.2854 -0.9584
vn 0.6118 0.6351 -0.4715
vn 0.6961 0.7011 -0.1542
vn 0.6188 0.7320 -0.2849
vn 0.1807 0.6494 -0.7387
vn -0.3891 0.3143 -0.8659
vn -0.6110 0.0919 -0.7862
vn -0.5877 0.1224 -0.7997
vn -0.6336 0.2153 -0.7431
vn -0.8326 0.2127 -0.5114
vn -0.9478 0.2253 -0.2257
vn -0.8726 0.4155 -0.2569
vn -0.6140 0.6242 -0.4831
vn -0.4920 0.6560 -0.5724
vn -0.6514 0.7100 -0.2675
vn -0.6198 0.5802 0.5283
vn -0.3013 0.2444 0.9217
vn -0.0260 0.1081 0.9938
vn -0.1212 0.0653 -0.9905
vn 0.2940 0.3971 -0.8694
vn 0.4858 0.6551 -0.5786
vn 0.5110 0.4843 -0.7101
vn 0.4945 0.0441 -0.8681
vn 0.7485 -0.1144 -0.6531
vn 0.8336 -0.0619 -0.5489
vn 0.8322 -0.1750 -0.5261
vn 0.9704 -0.1679 -0.1737
vn 0.9230 0.0460 0.3820
vn 0.6803 0.4699 0.5625
vn 0.6562 0.4379 0.6145
vn 0.7141 0.2467 0.6552
vn 0.6720 -0.0836 0.7358
vn 0.3816 -0.1427 0.9132
vn 0.0300 -0.1018 -0.9943
vn 0.2448 -0.1526 -0.9575
vn 0.3922 -0.1573 -0.9063
vn 0.6573 0.0884 -0.7484
vn 0.8006 0.1909 -0.5680
vn 0.8738 0.2404 -0.4227
vn 0.9563 0.2149 -0.1984
vn 0.9862 0.1454 -0.0786
vn 0.9932 0.0703 0.0928
vn 0.8488 -0.0166 0.5285
vn 0.6390 -0.1345 0.7574
vn 0.5220 -0.1285 0.8432
vn 0.4553 -0.0723 0.8874
vn 0.3066 0.0151 0.9517
vn 0.1127 0.0446 0.9926
vn 0.1808 0.2087 -0.9611
vn 0.3880 0.3069 -0.8691
vn 0.6811 0.4834 -0.5499
vn 0.8394 0.5430 0.0220
vn 0.8764 0.4357 0.2050
vn 0.9507 0.3051 0.0547
vn 0.9347 0.3121 0.1702
vn 0.7149 0.4961 0.4928
vn 0.2826 0.6908 0.6656
vn -0.1192 0.7550 0.6448
vn -0.3063 0.7178 0.6253
vn -0.2373 0.6429 0.7283
vn -0.0021 0.4623 0.8867
vn 0.2975 0.2054 0.9323
vn 0.3395 0.0884 0.9365
vn 0.0365 0.5430 0.8390
vn -0.1130 0.6128 0.7821
vn 0.3005 0.3952 0.8681
vn 0.4791 0.2053 0.8534
vn 0.5527 0.0980 0.8276
vn 0.2356 0.2666 -0.9346
vn 0.3721 0.2246 0.9006
vn 0.4735 0.4463 -0.7593
vn 0.5819 0.4984 -0.6426
vn 0.7335 0.5359 -0.4180
vn 0.8340 0.5052 -0.2218
vn 0.8634 0.4888 -0.1253
vn 0.7394 0.5998 0.3059
vn 0.2301 0.6128 0.7560
vn -0.1135 0.5802 0.8065
vn 0.4985 0.2247 0.8372
vn 0.5821 0.1904 0.7905
vn 0.6186 0.2238 0.7532
vn 0.5740 0.3305 0.7492
vn 0.3831 0.4150 -0.8252
vn 0.2523 0.5327 0.8078
vn 0.5555 0.4737 -0.6835
vn 0.5177 0.4500 -0.7277
vn 0.5648 0.4669 -0.6804
vn 0.7022 0.5551 -0.4458
vn 0.7397 0.6655 -0.0994
vn 0.5185 0.6981 0.4938
vn 0.0238 0.4374 0.8990
vn -0.0155 0.2784 0.9603
vn 0.2977 0.2799 0.9127
vn 0.4308 0.3539 -0.8301
vn 0.5071 0.1620 -0.8465
vn 0.8324 0.2195 -0.5088
vn 0.9364 0.3352 0.1036
vn 0.8003 0.3684 0.4730
vn 0.8846 0.2835 0.3703
vn 0.9528 0.1523 0.2626
vn 0.9167 0.1696 0.3619
vn 0.7181 0.4011 0.5687
vn 0.2456 0.6791 0.6918
vn -0.2196 0.7816 0.5838
vn -0.4500 0.7617 0.4661
vn -0.4634 0.7065 0.5350
vn -0.2174 0.5361 0.8157
vn 0.0773 0.2089 0.9749
vn 0.8322 -0.0466 -0.5525
vn 0.8748 0.1705 -0.4535
vn 0.6272 0.1267 -0.7685
vn 0.0944 -0.1783 -0.9794
vn -0.2677 -0.5586 -0.7851
vn -0.2341 -0.7719 -0.5911
vn -0.2334 -0.7016 -0.6733
vn -0.4204 -0.5556 -0.7173
vn -0.6649 -0.5327 -0.5235
vn -0.7702 -0.5626 -0.3005
vn -0.8955 -0.3532 -0.2707
vn -0.8900 -0.0261 -0.4553
vn -0.8025 0.2169 -0.5558
vn -0.9815 0.1881 -0.0357
vn -0.7341 -0.2792 0.6190
vn -0.4473 -0.6252 0.6396
vn -0.3194 -0.5768 0.7519
vn 0.6213 -0.3723 -0.6895
vn 0.4974 -0.6585 -0.5648
vn 0.6736 -0.6707 -0.3106
vn 0.8675 -0.4652 0.1764
vn 0.7622 -0.4248 0.4884
vn 0.7207 -0.4977 0.4826
vn 0.6650 -0.6049 0.4381
vn 0.5906 -0.6629 0.4602
vn 0.6164 -0.4107 0.6718
vn 0.3428 -0.0483 0.9382
vn -0.0751 0.2346 0.9692
vn -0.4096 0.3630 0.8369
vn -0.5492 0.1636 0.8195
vn -0.6346 -0.1525 0.7576
vn -0.5190 -0.3772 0.7670
vn -0.0720 0.6037 -0.7939
vn 0.0354 0.4853 -0.8736
vn -0.2512 0.5019 -0.8276
vn -0.2889 0.6703 -0.6836
vn -0.3657 0.5396 -0.7583
vn -0.4153 0.7280 -0.5456
vn -0.1823 0.6181 -0.7647
vn -0.4952 0.7751 -0.3925
vn -0.0191 0.7549 -0.6556
vn -0.4802 0.8261 -0.2950
vn -0.2151 0.8373 -0.5026
vn -0.4201 0.8710 -0.2546
vn -0.4441 0.8151 -0.3719
vn -0.3313 0.8866 -0.3227
vn -0.5782 0.7620 -0.2915
vn -0.3136 0.9013 -0.2989
vn -0.6455 0.7472 -0.1581
vn -0.3989 0.9081 -0.1274
vn -0.6615 0.7441 0.0935
vn -0.4809 0.8732 0.0791
vn -0.6461 0.6809 0.3448
vn -0.5551 0.7711 0.3118
vn -0.5688 0.5928 0.5701
vn -0.5644 0.6431 0.5175
vn -0.4868 0.4817 0.7287
vn -0.5692 0.5926 0.5700
vn -0.5361 0.4084 0.7388
vn -0.4796 0.6172 0.6237
vn -0.6263 0.4153 0.6598
vn -0.3649 0.6740 0.6423
vn -0.6163 0.5403 0.5729
vn -0.2845 0.7251 0.6271
vn -0.3365 0.6958 0.6345
vn -0.1297 0.7685 0.6265
vn 0.2720 0.4972 -0.8239
vn 0.3906 0.4484 -0.8040
vn 0.4606 0.4081 -0.7883
vn 0.5480 0.4138 -0.7270
vn 0.5400 0.4689 -0.6989
vn 0.5234 0.3658 -0.7696
vn 0.5856 0.6134 -0.5299
vn 0.5463 0.4376 -0.7142
vn 0.5757 0.7693 -0.2771
vn 0.6591 0.6060 -0.4455
vn 0.5166 0.8555 0.0346
vn 0.6789 0.7336 -0.0296
vn 0.4492 0.8312 0.3276
vn 0.5285 0.7140 0.4591
vn 0.4301 0.7609 0.4859
vn 0.3204 0.5312 0.7843
vn 0.4818 0.6809 0.5516
vn 0.3829 0.3459 0.8566
vn 0.4670 0.6325 0.6179
vn 0.5699 0.2721 0.7753
vn 0.3331 0.6425 0.6901
vn 0.5580 0.3164 0.7672
vn 0.2684 0.6504 0.7106
vn 0.4677 0.4178 0.7789
vn 0.3415 0.6456 0.6830
vn 0.4704 0.5117 0.7190
vn 0.2727 0.6931 0.6673
vn 0.4268 0.6071 0.6703
vn 0.0479 0.7646 0.6427
vn 0.1190 0.7084 0.6958
vn -0.3699 -0.7481 0.5509
vn -0.4152 -0.7884 0.4538
vn -0.2089 -0.8447 0.4928
vn 0.1129 -0.7598 0.6402
vn -0.2196 -0.6646 -0.7142
vn -0.1132 -0.6260 -0.7716
vn -0.1985 -0.6147 -0.7634
vn -0.2192 -0.6371 -0.7389
vn 0.0697 -0.7996 0.5965
vn 0.3002 -0.6859 0.6629
vn -0.2392 -0.6150 -0.7514
vn -0.2305 -0.6378 -0.7349
vn 0.1770 -0.7307 0.6593
vn 0.2077 -0.6840 0.6993
vn -0.1360 -0.5762 -0.8059
vn -0.1761 -0.5783 -0.7966
vn -0.0975 -0.5980 -0.7955
vn -0.1626 -0.5255 -0.8351
vn -0.2684 -0.7328 -0.6252
vn -0.3482 -0.6770 -0.6484
vn -0.5380 -0.8096 -0.2346
vn -0.5050 -0.8385 -0.2046
vn -0.6944 -0.7170 0.0606
vn -0.4771 -0.8634 0.1638
vn -0.8127 -0.5816 0.0348
vn -0.4932 -0.8316 0.2553
vn -0.8982 -0.4248 -0.1133
vn -0.6645 -0.7378 0.1187
vn -0.9288 -0.3532 -0.1125
vn -0.8239 -0.5620 0.0732
vn -0.8363 -0.5168 0.1830
vn -0.8259 -0.5000 0.2605
vn -0.5471 -0.7179 0.4304
vn -0.6629 -0.6121 0.4312
vn 0.5998 -0.5951 0.5349
vn 0.3947 -0.7569 0.5208
vn 0.2664 -0.7054 0.6569
vn 0.4101 -0.7007 0.5838
vn -0.0801 -0.6607 -0.7464
vn -0.0717 -0.6465 -0.7595
vn 0.1893 -0.6866 0.7020
vn 0.1843 -0.7161 0.6733
vn 0.1091 -0.6057 -0.7882
vn 0.2906 -0.4501 -0.8444
vn 0.3385 -0.4770 -0.8111
vn 0.4604 -0.2608 -0.8485
vn 0.3959 -0.4468 -0.8022
vn 0.3513 -0.2940 -0.8889
vn 0.5205 -0.5078 -0.6865
vn 0.3791 -0.5007 -0.7782
vn 0.6252 -0.5569 -0.5467
vn 0.5636 -0.6448 -0.5163
vn 0.6190 -0.6039 -0.5022
vn 0.5284 -0.6618 -0.5318
vn 0.5759 -0.6587 -0.4842
vn 0.4820 -0.6553 -0.5816
vn 0.5536 -0.7423 -0.3775
vn 0.6004 -0.7209 -0.3462
vn 0.5811 -0.8113 -0.0645
vn 0.7033 -0.6845 0.1921
vn 0.5597 -0.7952 0.2335
vn 0.6860 -0.5128 0.5161
vn 0.4935 -0.7794 0.3859
vn 0.6725 -0.4892 0.5554
vn -0.0565 0.9964 -0.0628
vn -0.1689 0.9716 0.1657
vn -0.2884 0.9237 0.2521
vn -0.2677 0.8766 0.3999
vn -0.2567 0.7949 0.5498
vn -0.3188 0.8872 0.3336
vn -0.3317 0.9400 0.0803
vn -0.4734 0.8808 -0.0120
vn -0.4346 0.9005 0.0176
vn -0.1769 0.9802 0.0894
vn 0.1130 0.9794 0.1675
vn 0.3550 0.9319 0.0741
vn 0.1917 0.9757 0.1058
vn -0.0830 0.9652 0.2481
vn -0.2176 0.9224 0.3192
vn -0.2301 0.9616 0.1497
vn 0.0494 0.9949 0.0885
vn 0.1418 -0.0242 0.9896
vn 0.3499 -0.0705 0.9341
vn 0.4793 -0.1680 0.8614
vn 0.5608 -0.2396 0.7925
vn 0.6386 -0.1813 0.7479
vn 0.7088 -0.0475 0.7038
vn 0.8230 -0.1149 0.5563
vn 0.8838 -0.2887 0.3681
vn 0.8762 -0.4324 0.2128
vn 0.8567 -0.4960 0.1416
vn 0.9301 -0.3663 -0.0264
vn 0.9128 -0.0644 -0.4033
vn 0.7000 0.1910 -0.6881
vn 0.5887 0.0666 -0.8056
vn 0.5188 0.0789 -0.8513
vn 0.1892 0.1476 -0.9708
vn 0.0378 -0.0795 -0.9961
vn -0.2410 -0.3290 0.9131
vn -0.5281 -0.5492 0.6477
vn -0.7120 -0.6168 0.3357
vn -0.5419 -0.6871 0.4840
vn 0.0618 -0.6268 0.7768
vn 0.5338 -0.4349 0.7252
vn 0.6871 -0.3699 0.6254
vn 0.6996 -0.3900 0.5987
vn 0.8491 -0.3809 0.3660
vn 0.9454 -0.3256 0.0123
vn 0.9252 -0.3475 -0.1528
vn 0.8401 -0.4969 -0.2174
vn 0.7260 -0.6772 0.1194
vn 0.6373 -0.7134 0.2916
vn 0.6490 -0.7577 -0.0687
vn 0.3940 -0.5842 -0.7096
vn -0.0440 -0.2523 -0.9666
vn 0.6325 -0.4398 -0.6376
vn 0.8081 -0.5035 -0.3057
vn 0.5853 -0.4728 -0.6587
vn 0.7386 -0.6371 -0.2205
vn 0.7211 -0.6922 0.0290
vn -0.0249 -0.1833 0.9827
vn -0.0038 -0.1265 0.9920
vn 0.5790 -0.7401 -0.3421
vn -0.4689 -0.3391 0.8156
vn 0.1053 -0.5439 -0.8326
vn -0.6788 -0.4815 0.5544
vn -0.2169 -0.6459 0.7320
vn 0.3771 -0.6053 0.7010
vn 0.6644 -0.5289 0.5280
vn 0.6997 -0.5397 0.4682
vn 0.7451 -0.5827 0.3244
vn 0.8200 -0.5710 0.0389
vn 0.5707 -0.4490 -0.6875
vn 0.4781 -0.3191 -0.8183
vn 0.5896 -0.3769 -0.7144
vn 0.7760 -0.5215 -0.3546
vn 0.2441 -0.2159 0.9454
vn 0.7097 -0.6459 -0.2814
vn 0.0606 -0.2909 0.9548
vn 0.3208 -0.7028 -0.6350
vn -0.4227 -0.3807 0.8225
vn -0.3180 -0.5306 0.7857
vn 0.2390 -0.6481 0.7231
vn 0.6261 -0.6156 0.4787
vn 0.7249 -0.6029 0.3332
vn 0.7333 -0.6340 0.2454
vn 0.7407 -0.6705 0.0421
vn 0.7076 -0.6280 -0.3240
vn -0.0049 -0.2860 0.9582
vn -0.6116 -0.6352 0.4717
vn -0.6961 -0.7011 0.1547
vn -0.6183 -0.7320 0.2862
vn -0.1803 -0.6499 0.7383
vn 0.3909 -0.3133 0.8655
vn 0.6119 -0.0911 0.7857
vn 0.5880 -0.1220 0.7996
vn 0.6328 -0.2151 0.7438
vn 0.8326 -0.2126 0.5114
vn 0.9481 -0.2253 0.2246
vn 0.8729 -0.4149 0.2567
vn 0.6141 -0.6242 0.4829
vn 0.4891 -0.6552 0.5758
vn 0.6532 -0.7092 0.2654
vn 0.6194 -0.5816 -0.5274
vn 0.2996 -0.2428 -0.9227
vn 0.0247 -0.1068 -0.9940
vn -0.0509 0.9987 -0.0004
vn -0.2038 0.9407 0.2711
vn -0.2597 0.8010 0.5394
vn 0.0581 0.8259 0.5609
vn 0.2508 0.9516 0.1778
vn 0.2101 0.9764 -0.0492
vn 0.2815 0.9423 0.1813
vn 0.4286 0.8492 0.3085
vn 0.2690 0.9305 0.2487
vn 0.0440 0.9966 -0.0696
vn -0.2417 0.9006 -0.3613
vn -0.3562 0.9105 -0.2102
vn -0.2991 0.9542 0.0002
vn -0.0041 0.9920 0.1262
vn 0.2255 0.9646 0.1371
vn -0.0293 0.1194 0.9924
vn -0.2325 0.1695 0.9577
vn -0.3749 0.1722 0.9109
vn -0.6766 -0.1000 0.7296
vn -0.8142 -0.1957 0.5465
vn -0.8862 -0.2387 0.3971
vn -0.9599 -0.2142 0.1807
vn -0.9869 -0.1432 0.0744
vn -0.9933 -0.0658 -0.0950
vn -0.8390 0.0007 -0.5441
vn -0.6442 0.1400 -0.7520
vn -0.5280 0.1322 -0.8389
vn -0.4572 0.0762 -0.8861
vn -0.3031 -0.0181 -0.9528
vn -0.0947 -0.0472 -0.9944
vn -0.1808 -0.2092 0.9610
vn -0.3874 -0.3075 0.8691
vn -0.6802 -0.4837 0.5507
vn -0.8394 -0.5430 -0.0257
vn -0.8757 -0.4354 -0.2087
vn -0.9512 -0.3041 -0.0519
vn -0.9353 -0.3114 -0.1683
vn -0.7147 -0.4960 -0.4931
vn -0.2810 -0.6908 -0.6663
vn 0.1202 -0.7545 -0.6452
vn 0.3070 -0.7175 -0.6253
vn 0.2372 -0.6428 -0.7284
vn 0.0029 -0.4628 -0.8864
vn -0.2972 -0.2065 -0.9322
vn -0.3401 -0.0885 -0.9362
vn -0.0354 -0.5432 -0.8388
vn 0.1135 -0.6138 -0.7812
vn -0.2987 -0.3955 -0.8685
vn -0.4782 -0.2053 -0.8539
vn -0.5533 -0.0975 -0.8273
vn -0.2370 -0.2681 0.9338
vn -0.3737 -0.2235 -0.9002
vn -0.4733 -0.4464 0.7594
vn -0.5807 -0.4987 0.6435
vn -0.7332 -0.5362 0.4182
vn -0.8343 -0.5045 0.2224
vn -0.8630 -0.4890 0.1271
vn -0.7395 -0.5988 -0.3077
vn -0.2225 -0.6102 -0.7604
vn 0.1184 -0.5795 -0.8063
vn -0.4978 -0.2249 -0.8376
vn -0.5803 -0.1920 -0.7914
vn -0.6178 -0.2257 -0.7532
vn -0.5747 -0.3306 -0.7486
vn -0.3849 -0.4149 0.8244
vn -0.2527 -0.5322 -0.8080
vn -0.5570 -0.4748 0.6814
vn -0.5164 -0.4497 0.7287
vn -0.5631 -0.4665 0.6821
vn -0.7015 -0.5539 0.4484
vn -0.7397 -0.6652 0.1013
vn -0.5148 -0.6980 -0.4978
vn -0.0134 -0.4325 -0.9015
vn 0.0224 -0.2759 -0.9609
vn -0.2951 -0.2805 -0.9134
vn -0.4295 -0.3537 0.8309
vn -0.5058 -0.1616 0.8474
vn -0.8319 -0.2196 0.5096
vn -0.9363 -0.3349 -0.1055
vn -0.7994 -0.3678 -0.4751
vn -0.8845 -0.2835 -0.3704
vn -0.9533 -0.1513 -0.2614
vn -0.9174 -0.1684 -0.3605
vn -0.7194 -0.4001 -0.5678
vn -0.2453 -0.6793 -0.6917
vn 0.2198 -0.7816 -0.5838
vn 0.4496 -0.7619 -0.4663
vn 0.4631 -0.7064 -0.5354
vn 0.2175 -0.5360 -0.8157
vn -0.0781 -0.2091 -0.9748
vn -0.1863 -0.9440 -0.2724
vn -0.0495 -0.8706 -0.4896
vn -0.0212 -0.9642 -0.2643
vn 0.2010 -0.9708 0.1307
vn 0.5147 -0.7872 0.3397
vn 0.6188 -0.6051 0.5009
vn 0.4339 -0.7170 0.5456
vn 0.3383 -0.8500 0.4038
vn 0.4430 -0.8577 0.2612
vn 0.4751 -0.8568 0.2004
vn 0.2102 -0.9306 0.2995
vn -0.2612 -0.8642 0.4300
vn -0.5447 -0.7164 0.4358
vn -0.2567 -0.9369 0.2372
vn -0.0489 -0.9196 -0.3897
vn -0.0467 -0.7101 -0.7025
vn -0.1733 -0.7482 -0.6404
vn -0.2407 -0.9461 0.2167
vn -0.3166 -0.7728 0.5500
vn -0.5131 -0.7491 0.4191
vn -0.4336 -0.9011 -0.0067
vn -0.3406 -0.9114 -0.2309
vn -0.4345 -0.8821 -0.1817
vn -0.6122 -0.7876 -0.0696
vn -0.7222 -0.6915 -0.0165
vn -0.5230 -0.8512 0.0442
vn -0.2354 -0.9666 0.1013
vn 0.0383 -0.9610 0.2739
vn 0.2158 -0.8489 0.4825
vn 0.1825 -0.8850 0.4283
vn -0.1014 -0.9935 -0.0517
vn -0.1558 -0.8022 -0.5764
vn 0.0772 -0.5869 0.8060
vn -0.0361 -0.4862 0.8731
vn 0.2500 -0.5028 0.8274
vn 0.2934 -0.6560 0.6954
vn 0.3634 -0.5415 0.7581
vn 0.4204 -0.7158 0.5575
vn 0.1829 -0.6190 0.7638
vn 0.5027 -0.7624 0.4074
vn 0.0182 -0.7587 0.6511
vn 0.4892 -0.8144 0.3123
vn 0.2084 -0.8376 0.5049
vn 0.4338 -0.8631 0.2586
vn 0.4470 -0.8147 0.3696
vn 0.3465 -0.8786 0.3286
vn 0.5773 -0.7625 0.2921
vn 0.3295 -0.8945 0.3021
vn 0.6450 -0.7474 0.1590
vn 0.4162 -0.9005 0.1262
vn 0.6616 -0.7438 -0.0956
vn 0.4961 -0.8648 -0.0772
vn 0.6461 -0.6804 -0.3459
vn 0.5656 -0.7669 -0.3033
vn 0.5690 -0.5921 -0.5707
vn 0.5735 -0.6370 -0.5151
vn 0.4866 -0.4833 -0.7278
vn 0.5760 -0.5819 -0.5741
vn 0.5404 -0.4133 -0.7330
vn 0.4852 -0.5933 -0.6423
vn 0.6287 -0.4128 -0.6590
vn 0.3811 -0.6422 -0.6651
vn 0.6193 -0.5377 -0.5721
vn 0.2950 -0.6972 -0.6534
vn 0.3413 -0.6979 -0.6297
vn 0.1390 -0.7463 -0.6509
vn -0.2665 -0.4821 0.8346
vn -0.3937 -0.4484 0.8025
vn -0.4603 -0.3962 0.7945
vn -0.5496 -0.4137 0.7258
vn -0.5523 -0.4623 0.6937
vn -0.5217 -0.3627 0.7722
vn -0.6000 -0.6019 0.5270
vn -0.5443 -0.4336 0.7182
vn -0.5935 -0.7534 0.2830
vn -0.6581 -0.6031 0.4508
vn -0.5413 -0.8405 -0.0233
vn -0.6784 -0.7340 0.0316
vn -0.4747 -0.8198 -0.3203
vn -0.5259 -0.7141 -0.4620
vn -0.4552 -0.7484 -0.4824
vn -0.3078 -0.5245 -0.7938
vn -0.5004 -0.6657 -0.5536
vn -0.3848 -0.3453 -0.8560
vn -0.4790 -0.6127 -0.6286
vn -0.5684 -0.2724 -0.7763
vn -0.3463 -0.6192 -0.7048
vn -0.5552 -0.3174 -0.7688
vn -0.2756 -0.6303 -0.7257
vn -0.4677 -0.4186 -0.7785
vn -0.3448 -0.6292 -0.6966
vn -0.4703 -0.5119 -0.7189
vn -0.2729 -0.6773 -0.6832
vn -0.4273 -0.6072 -0.6698
vn -0.0429 -0.7471 -0.6633
vn -0.1191 -0.7102 -0.6938
vn 0.3726 0.7475 -0.5499
vn 0.4249 0.7698 -0.4763
vn 0.2232 0.8227 -0.5228
vn -0.1180 0.7586 -0.6408
vn 0.2216 0.6652 0.7130
vn 0.1119 0.6161 0.7797
vn 0.1999 0.6042 0.7713
vn 0.2190 0.6369 0.7392
vn -0.0545 0.7777 -0.6263
vn -0.3033 0.6839 -0.6636
vn 0.2418 0.6039 0.7595
vn 0.2308 0.6376 0.7350
vn -0.1662 0.7118 -0.6824
vn -0.2093 0.6830 -0.6998
vn 0.1431 0.5649 0.8127
vn 0.1769 0.5780 0.7966
vn 0.1106 0.5856 0.8030
vn 0.1601 0.5236 0.8368
vn 0.2839 0.7186 0.6349
vn 0.3473 0.6763 0.6496
vn 0.5550 0.7956 0.2429
vn 0.5077 0.8384 0.1985
vn 0.7106 0.7013 -0.0569
vn 0.4780 0.8623 -0.1669
vn 0.8248 0.5647 -0.0300
vn 0.4941 0.8311 -0.2553
vn 0.9053 0.4105 0.1094
vn 0.6646 0.7377 -0.1190
vn 0.9343 0.3386 0.1113
vn 0.8249 0.5608 -0.0713
vn 0.8392 0.5081 -0.1937
vn 0.8274 0.4989 -0.2581
vn 0.5514 0.7029 -0.4493
vn 0.6631 0.6122 -0.4306
vn -0.6004 0.5928 -0.5368
vn -0.4052 0.7383 -0.5392
vn -0.2729 0.6879 -0.6726
vn -0.4122 0.6997 -0.5836
vn 0.0846 0.6559 0.7501
vn 0.0714 0.6468 0.7593
vn -0.1919 0.6705 -0.7166
vn -0.1828 0.7164 -0.6733
vn -0.1065 0.6001 0.7928
vn -0.2946 0.4501 0.8430
vn -0.3310 0.4686 0.8191
vn -0.4591 0.2627 0.8487
vn -0.3880 0.4361 0.8119
vn -0.3529 0.2894 0.8898
vn -0.5211 0.4968 0.6940
vn -0.3794 0.4997 0.7787
vn -0.6331 0.5457 0.5489
vn -0.5635 0.6460 0.5149
vn -0.6357 0.5876 0.5005
vn -0.5292 0.6612 0.5317
vn -0.6000 0.6400 0.4800
vn -0.4797 0.6543 0.5847
vn -0.5772 0.7239 0.3780
vn -0.5998 0.7203 0.3485
vn -0.6050 0.7944 0.0537
vn -0.7024 0.6831 -0.1999
vn -0.5764 0.7760 -0.2562
vn -0.6860 0.5128 -0.5162
vn -0.5078 0.7605 -0.4046
vn -0.6722 0.4876 -0.5572
vt 0.000000 0.000000
s 1
usemtl Red
f 291/1/291 290/1/290 31/1/31 32/1/32
f 295/1/295 294/1/294 18/1/18 19/1/19
f 297/1/297 291/1/291 32/1/32 33/1/33
f 299/1/299 295/1/295 19/1/19 20/1/20
f 301/1/301 297/1/297 33/1/33 34/1/34
f 303/1/303 299/1/299 20/1/20 21/1/21
f 305/1/305 303/1/303 21/1/21 22/1/22
f 307/1/307 305/1/305 22/1/22 23/1/23
f 309/1/309 307/1/307 23/1/23 24/1/24
f 311/1/311 309/1/309 24/1/24 25/1/25
f 313/1/313 311/1/311 25/1/25 26/1/26
f 315/1/315 313/1/313 26/1/26 27/1/27
f 317/1/317 315/1/315 27/1/27 28/1/28
f 319/1/319 317/1/317 28/1/28 29/1/29
f 321/1/321 319/1/319 29/1/29 30/1/30
f 290/1/290 321/1/321 30/1/30 31/1/31
f 52/1/52 53/1/53 45/1/45 46/1/46
f 54/1/54 52/1/52 46/1/46 47/1/47
f 55/1/55 54/1/54 47/1/47 48/1/48
f 56/1/56 55/1/55 48/1/48 49/1/49
f 57/1/57 58/1/58 35/1/35 36/1/36
f 59/1/59 56/1/56 49/1/49 50/1/50
f 60/1/60 57/1/57 36/1/36 37/1/37
f 61/1/61 59/1/59 50/1/50 51/1/51
f 62/1/62 60/1/60 37/1/37 38/1/38
f 63/1/63 62/1/62 38/1/38 39/1/39
f 64/1/64 63/1/63 39/1/39 40/1/40
f 65/1/65 64/1/64 40/1/40 41/1/41
f 66/1/66 65/1/65 41/1/41 42/1/42
f 67/1/67 66/1/66 42/1/42 43/1/43
f 68/1/68 67/1/67 43/1/43 44/1/44
f 53/1/53 68/1/68 44/1/44 45/1/45
f 84/1/84 83/1/83 68/1/68 53/1/53
f 83/1/83 82/1/82 67/1/67 68/1/68
f 82/1/82 81/1/81 66/1/66 67/1/67
f 81/1/81 80/1/80 65/1/65 66/1/66
f 80/1/80 79/1/79 64/1/64 65/1/65
f 79/1/79 78/1/78 63/1/63 64/1/64
f 78/1/78 77/1/77 62/1/62 63/1/63
f 77/1/77 75/1/75 60/1/60 62/1/62
f 76/1/76 74/1/74 59/1/59 61/1/61
f 75/1/75 73/1/73 57/1/57 60/1/60
f 74/1/74 72/1/72 56/1/56 59/1/59
f 73/1/73 85/1/85 58/1/58 57/1/57
f 72/1/72 71/1/71 55/1/55 56/1/56
f 71/1/71 70/1/70 54/1/54 55/1/55
f 70/1/70 69/1/69 52/1/52 54/1/54
f 69/1/69 84/1/84 53/1/53 52/1/52
f 50/1/50 49/1/49 100/1/100 101/1/101
f 37/1/37 36/1/36 87/1/87 88/1/88
f 51/1/51 50/1/50 101/1/101 102/1/102
f 38/1/38 37/1/37 88/1/88 89/1/89
f 39/1/39 38/1/38 89/1/89 90/1/90
f 40/1/40 39/1/39 90/1/90 91/1/91
f 41/1/41 40/1/40 91/1/91 92/1/92
f 42/1/42 41/1/41 92/1/92 93/1/93
f 43/1/43 42/1/42 93/1/93 94/1/94
f 44/1/44 43/1/43 94/1/94 95/1/95
f 45/1/45 44/1/44 95/1/95 96/1/96
f 46/1/46 45/1/45 96/1/96 97/1/97
f 47/1/47 46/1/46 97/1/97 98/1/98
f 48/1/48 47/1/47 98/1/98 99/1/99
f 49/1/49 48/1/48 99/1/99 100/1/100
f 36/1/36 35/1/35 86/1/86 87/1/87
f 325/1/325 131/1/131 130/1/130 324/1/324
f 327/1/327 118/1/118 18/1/18 294/1/294
f 329/1/329 132/1/132 131/1/131 325/1/325
f 331/1/331 119/1/119 118/1/118 327/1/327
f 301/1/301 34/1/34 132/1/132 329/1/329
f 333/1/333 120/1/120 119/1/119 331/1/331
f 335/1/335 121/1/121 120/1/120 333/1/333
f 337/1/337 122/1/122 121/1/121 335/1/335
f 339/1/339 123/1/123 122/1/122 337/1/337
f 341/1/341 124/1/124 123/1/123 339/1/339
f 343/1/343 125/1/125 124/1/124 341/1/341
f 345/1/345 126/1/126 125/1/125 343/1/343
f 347/1/347 127/1/127 126/1/126 345/1/345
f 349/1/349 128/1/128 127/1/127 347/1/347
f 351/1/351 129/1/129 128/1/128 349/1/349
f 324/1/324 130/1/130 129/1/129 351/1/351
f 148/1/148 143/1/143 142/1/142 149/1/149
f 150/1/150 144/1/144 143/1/143 148/1/148
f 151/1/151 145/1/145 144/1/144 150/1/150
f 152/1/152 146/1/146 145/1/145 151/1/151
f 153/1/153 133/1/133 35/1/35 58/1/58
f 154/1/154 147/1/147 146/1/146 152/1/152
f 155/1/155 134/1/134 133/1/133 153/1/153
f 61/1/61 51/1/51 147/1/147 154/1/154
f 156/1/156 135/1/135 134/1/134 155/1/155
f 157/1/157 136/1/136 135/1/135 156/1/156
f 158/1/158 137/1/137 136/1/136 157/1/157
f 159/1/159 138/1/138 137/1/137 158/1/158
f 160/1/160 139/1/139 138/1/138 159/1/159
f 161/1/161 140/1/140 139/1/139 160/1/160
f 162/1/162 141/1/141 140/1/140 161/1/161
f 149/1/149 142/1/142 141/1/141 162/1/162
f 177/1/177 149/1/149 162/1/162 176/1/176
f 176/1/176 162/1/162 161/1/161 175/1/175
f 175/1/175 161/1/161 160/1/160 174/1/174
f 174/1/174 160/1/160 159/1/159 173/1/173
f 173/1/173 159/1/159 158/1/158 172/1/172
f 172/1/172 158/1/158 157/1/157 171/1/171
f 171/1/171 157/1/157 156/1/156 170/1/170
f 170/1/170 156/1/156 155/1/155 169/1/169
f 76/1/76 61/1/61 154/1/154 168/1/168
f 169/1/169 155/1/155 153/1/153 167/1/167
f 168/1/168 154/1/154 152/1/152 166/1/166
f 167/1/167 153/1/153 58/1/58 85/1/85
f 166/1/166 152/1/152 151/1/151 165/1/165
f 165/1/165 151/1/151 150/1/150 164/1/164
f 164/1/164 150/1/150 148/1/148 163/1/163
f 163/1/163 148/1/148 149/1/149 177/1/177
f 147/1/147 192/1/192 191/1/191 146/1/146
f 134/1/134 179/1/179 178/1/178 133/1/133
f 51/1/51 102/1/102 192/1/192 147/1/147
f 135/1/135 180/1/180 179/1/179 134/1/134
f 136/1/136 181/1/181 180/1/180 135/1/135
f 137/1/137 182/1/182 181/1/181 136/1/136
f 138/1/138 183/1/183 182/1/182 137/1/137
f 139/1/139 184/1/184 183/1/183 138/1/138
f 140/1/140 185/1/185 184/1/184 139/1/139
f 141/1/141 186/1/186 185/1/185 140/1/140
f 142/1/142 187/1/187 186/1/186 141/1/141
f 143/1/143 188/1/188 187/1/187 142/1/142
f 144/1/144 189/1/189 188/1/188 143/1/143
f 145/1/145 190/1/190 189/1/189 144/1/144
f 146/1/146 191/1/191 190/1/190 145/1/145
f 133/1/133 178/1/178 86/1/86 35/1/35
f 189/1/189 190/1/190 222/1/222 221/1/221
f 102/1/102 101/1/101 208/1/208 209/1/209
f 89/1/89 88/1/88 195/1/195 196/1/196
f 190/1/190 191/1/191 223/1/223 222/1/222
f 90/1/90 89/1/89 196/1/196 197/1/197
f 86/1/86 178/1/178 210/1/210 193/1/193
f 191/1/191 192/1/192 224/1/224 223/1/223
f 178/1/178 179/1/179 211/1/211 210/1/210
f 91/1/91 90/1/90 197/1/197 198/1/198
f 192/1/192 102/1/102 209/1/209 224/1/224
f 179/1/179 180/1/180 212/1/212 211/1/211
f 92/1/92 91/1/91 198/1/198 199/1/199
f 180/1/180 181/1/181 213/1/213 212/1/212
f 93/1/93 92/1/92 199/1/199 200/1/200
f 181/1/181 182/1/182 214/1/214 213/1/213
f 94/1/94 93/1/93 200/1/200 201/1/201
f 182/1/182 183/1/183 215/1/215 214/1/214
f 95/1/95 94/1/94 201/1/201 202/1/202
f 183/1/183 184/1/184 216/1/216 215/1/215
f 96/1/96 95/1/95 202/1/202 203/1/203
f 97/1/97 96/1/96 203/1/203 204/1/204
f 184/1/184 185/1/185 217/1/217 216/1/216
f 185/1/185 186/1/186 218/1/218 217/1/217
f 98/1/98 97/1/97 204/1/204 205/1/205
f 186/1/186 187/1/187 219/1/219 218/1/218
f 99/1/99 98/1/98 205/1/205 206/1/206
f 187/1/187 188/1/188 220/1/220 219/1/219
f 100/1/100 99/1/99 206/1/206 207/1/207
f 87/1/87 86/1/86 193/1/193 194/1/194
f 188/1/188 189/1/189 221/1/221 220/1/220
f 101/1/101 100/1/100 207/1/207 208/1/208
f 88/1/88 87/1/87 194/1/194 195/1/195
f 228/1/228 225/1/225 226/1/226 227/1/227
f 230/1/230 228/1/228 227/1/227 229/1/229
f 232/1/232 230/1/230 229/1/229 231/1/231
f 234/1/234 232/1/232 231/1/231 233/1/233
f 236/1/236 234/1/234 233/1/233 235/1/235
f 238/1/238 236/1/236 235/1/235 237/1/237
f 240/1/240 238/1/238 237/1/237 239/1/239
f 242/1/242 240/1/240 239/1/239 241/1/241
f 244/1/244 242/1/242 241/1/241 243/1/243
f 246/1/246 244/1/244 243/1/243 245/1/245
f 248/1/248 246/1/246 245/1/245 247/1/247
f 250/1/250 248/1/248 247/1/247 249/1/249
f 252/1/252 250/1/250 249/1/249 251/1/251
f 254/1/254 252/1/252 251/1/251 253/1/253
f 256/1/256 254/1/254 253/1/253 255/1/255
f 258/1/258 256/1/256 255/1/255 257/1/257
f 260/1/260 226/1/226 225/1/225 259/1/259
f 262/1/262 260/1/260 259/1/259 261/1/261
f 264/1/264 262/1/262 261/1/261 263/1/263
f 266/1/266 264/1/264 263/1/263 265/1/265
f 268/1/268 266/1/266 265/1/265 267/1/267
f 270/1/270 268/1/268 267/1/267 269/1/269
f 272/1/272 270/1/270 269/1/269 271/1/271
f 274/1/274 272/1/272 271/1/271 273/1/273
f 276/1/276 274/1/274 273/1/273 275/1/275
f 278/1/278 276/1/276 275/1/275 277/1/277
f 280/1/280 278/1/278 277/1/277 279/1/279
f 282/1/282 280/1/280 279/1/279 281/1/281
f 284/1/284 282/1/282 281/1/281 283/1/283
f 286/1/286 284/1/284 283/1/283 285/1/285
f 288/1/288 286/1/286 285/1/285 287/1/287
f 257/1/257 288/1/288 287/1/287 258/1/258
f 227/1/227 226/1/226 85/1/85 73/1/73
f 260/1/260 167/1/167 85/1/85 226/1/226
f 19/1/19 18/1/18 225/1/225 228/1/228
f 118/1/118 259/1/259 225/1/225 18/1/18
f 20/1/20 19/1/19 228/1/228 230/1/230
f 229/1/229 227/1/227 73/1/73 75/1/75
f 21/1/21 20/1/20 230/1/230 232/1/232
f 231/1/231 229/1/229 75/1/75 77/1/77
f 22/1/22 21/1/21 232/1/232 234/1/234
f 233/1/233 231/1/231 77/1/77 78/1/78
f 23/1/23 22/1/22 234/1/234 236/1/236
f 235/1/235 233/1/233 78/1/78 79/1/79
f 24/1/24 23/1/23 236/1/236 238/1/238
f 237/1/237 235/1/235 79/1/79 80/1/80
f 25/1/25 24/1/24 238/1/238 240/1/240
f 239/1/239 237/1/237 80/1/80 81/1/81
f 26/1/26 25/1/25 240/1/240 242/1/242
f 241/1/241 239/1/239 81/1/81 82/1/82
f 27/1/27 26/1/26 242/1/242 244/1/244
f 243/1/243 241/1/241 82/1/82 83/1/83
f 28/1/28 27/1/27 244/1/244 246/1/246
f 245/1/245 243/1/243 83/1/83 84/1/84
f 29/1/29 28/1/28 246/1/246 248/1/248
f 247/1/247 245/1/245 84/1/84 69/1/69
f 30/1/30 29/1/29 248/1/248 250/1/250
f 249/1/249 247/1/247 69/1/69 70/1/70
f 31/1/31 30/1/30 250/1/250 252/1/252
f 251/1/251 249/1/249 70/1/70 71/1/71
f 32/1/32 31/1/31 252/1/252 254/1/254
f 253/1/253 251/1/251 71/1/71 72/1/72
f 33/1/33 32/1/32 254/1/254 256/1/256
f 255/1/255 253/1/253 72/1/72 74/1/74
f 34/1/34 33/1/33 256/1/256 258/1/258
f 257/1/257 255/1/255 74/1/74 76/1/76
f 257/1/257 76/1/76 168/1/168 288/1/288
f 34/1/34 258/1/258 287/1/287 132/1/132
f 262/1/262 169/1/169 167/1/167 260/1/260
f 119/1/119 261/1/261 259/1/259 118/1/118
f 264/1/264 170/1/170 169/1/169 262/1/262
f 120/1/120 263/1/263 261/1/261 119/1/119
f 266/1/266 171/1/171 170/1/170 264/1/264
f 121/1/121 265/1/265 263/1/263 120/1/120
f 268/1/268 172/1/172 171/1/171 266/1/266
f 122/1/122 267/1/267 265/1/265 121/1/121
f 270/1/270 173/1/173 172/1/172 268/1/268
f 123/1/123 269/1/269 267/1/267 122/1/122
f 272/1/272 174/1/174 173/1/173 270/1/270
f 124/1/124 271/1/271 269/1/269 123/1/123
f 274/1/274 175/1/175 174/1/174 272/1/272
f 125/1/125 273/1/273 271/1/271 124/1/124
f 276/1/276 176/1/176 175/1/175 274/1/274
f 126/1/126 275/1/275 273/1/273 125/1/125
f 278/1/278 177/1/177 176/1/176 276/1/276
f 127/1/127 277/1/277 275/1/275 126/1/126
f 280/1/280 163/1/163 177/1/177 278/1/278
f 128/1/128 279/1/279 277/1/277 127/1/127
f 282/1/282 164/1/164 163/1/163 280/1/280
f 129/1/129 281/1/281 279/1/279 128/1/128
f 284/1/284 165/1/165 164/1/164 282/1/282
f 130/1/130 283/1/283 281/1/281 129/1/129
f 286/1/286 166/1/166 165/1/165 284/1/284
f 131/1/131 285/1/285 283/1/283 130/1/130
f 288/1/288 168/1/168 166/1/166 286/1/286
f 132/1/132 287/1/287 285/1/285 131/1/131
f 115/1/115 323/1/323 352/1/352 114/1/114
f 323/1/323 324/1/324 351/1/351 352/1/352
f 114/1/114 352/1/352 350/1/350 113/1/113
f 352/1/352 351/1/351 349/1/349 350/1/350
f 113/1/113 350/1/350 348/1/348 112/1/112
f 350/1/350 349/1/349 347/1/347 348/1/348
f 112/1/112 348/1/348 346/1/346 111/1/111
f 348/1/348 347/1/347 345/1/345 346/1/346
f 111/1/111 346/1/346 344/1/344 110/1/110
f 346/1/346 345/1/345 343/1/343 344/1/344
f 110/1/110 344/1/344 342/1/342 109/1/109
f 344/1/344 343/1/343 341/1/341 342/1/342
f 109/1/109 342/1/342 340/1/340 108/1/108
f 342/1/342 341/1/341 339/1/339 340/1/340
f 108/1/108 340/1/340 338/1/338 107/1/107
f 340/1/340 339/1/339 337/1/337 338/1/338
f 107/1/107 338/1/338 336/1/336 106/1/106
f 338/1/338 337/1/337 335/1/335 336/1/336
f 106/1/106 336/1/336 334/1/334 105/1/105
f 336/1/336 335/1/335 333/1/333 334/1/334
f 105/1/105 334/1/334 332/1/332 104/1/104
f 334/1/334 333/1/333 331/1/331 332/1/332
f 17/1/17 302/1/302 330/1/330 117/1/117
f 302/1/302 301/1/301 329/1/329 330/1/330
f 104/1/104 332/1/332 328/1/328 103/1/103
f 332/1/332 331/1/331 327/1/327 328/1/328
f 117/1/117 330/1/330 326/1/326 116/1/116
f 330/1/330 329/1/329 325/1/325 326/1/326
f 103/1/103 328/1/328 293/1/293 1/1/1
f 328/1/328 327/1/327 294/1/294 293/1/293
f 116/1/116 326/1/326 323/1/323 115/1/115
f 326/1/326 325/1/325 324/1/324 323/1/323
f 14/1/14 13/1/13 322/1/322 289/1/289
f 289/1/289 322/1/322 321/1/321 290/1/290
f 13/1/13 12/1/12 320/1/320 322/1/322
f 322/1/322 320/1/320 319/1/319 321/1/321
f 12/1/12 11/1/11 318/1/318 320/1/320
f 320/1/320 318/1/318 317/1/317 319/1/319
f 11/1/11 10/1/10 316/1/316 318/1/318
f 318/1/318 316/1/316 315/1/315 317/1/317
f 10/1/10 9/1/9 314/1/314 316/1/316
f 316/1/316 314/1/314 313/1/313 315/1/315
f 9/1/9 8/1/8 312/1/312 314/1/314
f 314/1/314 312/1/312 311/1/311 313/1/313
f 8/1/8 7/1/7 310/1/310 312/1/312
f 312/1/312 310/1/310 309/1/309 311/1/311
f 7/1/7 6/1/6 308/1/308 310/1/310
f 310/1/310 308/1/308 307/1/307 309/1/309
f 6/1/6 5/1/5 306/1/306 308/1/308
f 308/1/308 306/1/306 305/1/305 307/1/307
f 5/1/5 4/1/4 304/1/304 306/1/306
f 306/1/306 304/1/304 303/1/303 305/1/305
f 4/1/4 3/1/3 300/1/300 304/1/304
f 304/1/304 300/1/300 299/1/299 303/1/303
f 17/1/17 16/1/16 298/1/298 302/1/302
f 302/1/302 298/1/298 297/1/297 301/1/301
f 3/1/3 2/1/2 296/1/296 300/1/300
f 300/1/300 296/1/296 295/1/295 299/1/299
f 16/1/16 15/1/15 292/1/292 298/1/298
f 298/1/298 292/1/292 291/1/291 297/1/297
f 2/1/2 1/1/1 293/1/293 296/1/296
f 296/1/296 293/1/293 294/1/294 295/1/295
f 15/1/15 14/1/14 289/1/289 292/1/292
f 292/1/292 289/1/289 290/1/290 291/1/291
f 643/1/643 384/1/384 383/1/383 642/1/642
f 647/1/647 371/1/371 370/1/370 646/1/646
f 649/1/649 385/1/385 384/1/384 643/1/643
f 651/1/651 372/1/372 371/1/371 647/1/647
f 653/1/653 386/1/386 385/1/385 649/1/649
f 655/1/655 373/1/373 372/1/372 651/1/651
f 657/1/657 374/1/374 373/1/373 655/1/655
f 659/1/659 375/1/375 374/1/374 657/1/657
f 661/1/661 376/1/376 375/1/375 659/1/659
f 663/1/663 377/1/377 376/1/376 661/1/661
f 665/1/665 378/1/378 377/1/377 663/1/663
f 667/1/667 379/1/379 378/1/378 665/1/665
f 669/1/669 380/1/380 379/1/379 667/1/667
f 671/1/671 381/1/381 380/1/380 669/1/669
f 673/1/673 382/1/382 381/1/381 671/1/671
f 642/1/642 383/1/383 382/1/382 673/1/673
f 404/1/404 398/1/398 397/1/397 405/1/405
f 406/1/406 399/1/399 398/1/398 404/1/404
f 407/1/407 400/1/400 399/1/399 406/1/406
f 408/1/408 401/1/401 400/1/400 407/1/407
f 409/1/409 388/1/388 387/1/387 410/1/410
f 411/1/411 402/1/402 401/1/401 408/1/408
f 412/1/412 389/1/389 388/1/388 409/1/409
f 413/1/413 403/1/403 402/1/402 411/1/411
f 414/1/414 390/1/390 389/1/389 412/1/412
f 415/1/415 391/1/391 390/1/390 414/1/414
f 416/1/416 392/1/392 391/1/391 415/1/415
f 417/1/417 393/1/393 392/1/392 416/1/416
f 418/1/418 394/1/394 393/1/393 417/1/417
f 419/1/419 395/1/395 394/1/394 418/1/418
f 420/1/420 396/1/396 395/1/395 419/1/419
f 405/1/405 397/1/397 396/1/396 420/1/420
f 436/1/436 405/1/405 420/1/420 435/1/435
f 435/1/435 420/1/420 419/1/419 434/1/434
f 434/1/434 419/1/419 418/1/418 433/1/433
f 433/1/433 418/1/418 417/1/417 432/1/432
f 432/1/432 417/1/417 416/1/416 431/1/431
f 431/1/431 416/1/416 415/1/415 430/1/430
f 430/1/430 415/1/415 414/1/414 429/1/429
f 429/1/429 414/1/414 412/1/412 427/1/427
f 428/1/428 413/1/413 411/1/411 426/1/426
f 427/1/427 412/1/412 409/1/409 425/1/425
f 426/1/426 411/1/411 408/1/408 424/1/424
f 425/1/425 409/1/409 410/1/410 437/1/437
f 424/1/424 408/1/408 407/1/407 423/1/423
f 423/1/423 407/1/407 406/1/406 422/1/422
f 422/1/422 406/1/406 404/1/404 421/1/421
f 421/1/421 404/1/404 405/1/405 436/1/436
f 402/1/402 453/1/453 452/1/452 401/1/401
f 389/1/389 440/1/440 439/1/439 388/1/388
f 403/1/403 454/1/454 453/1/453 402/1/402
f 390/1/390 441/1/441 440/1/440 389/1/389
f 391/1/391 442/1/442 441/1/441 390/1/390
f 392/1/392 443/1/443 442/1/442 391/1/391
f 393/1/393 444/1/444 443/1/443 392/1/392
f 394/1/394 445/1/445 444/1/444 393/1/393
f 395/1/395 446/1/446 445/1/445 394/1/394
f 396/1/396 447/1/447 446/1/446 395/1/395
f 397/1/397 448/1/448 447/1/447 396/1/396
f 398/1/398 449/1/449 448/1/448 397/1/397
f 399/1/399 450/1/450 449/1/449 398/1/398
f 400/1/400 451/1/451 450/1/450 399/1/399
f 401/1/401 452/1/452 451/1/451 400/1/400
f 388/1/388 439/1/439 438/1/438 387/1/387
f 677/1/677 676/1/676 482/1/482 483/1/483
f 679/1/679 646/1/646 370/1/370 470/1/470
f 681/1/681 677/1/677 483/1/483 484/1/484
f 683/1/683 679/1/679 470/1/470 471/1/471
f 653/1/653 681/1/681 484/1/484 386/1/386
f 685/1/685 683/1/683 471/1/471 472/1/472
f 687/1/687 685/1/685 472/1/472 473/1/473
f 689/1/689 687/1/687 473/1/473 474/1/474
f 691/1/691 689/1/689 474/1/474 475/1/475
f 693/1/693 691/1/691 475/1/475 476/1/476
f 695/1/695 693/1/693 476/1/476 477/1/477
f 697/1/697 695/1/695 477/1/477 478/1/478
f 699/1/699 697/1/697 478/1/478 479/1/479
f 701/1/701 699/1/699 479/1/479 480/1/480
f 703/1/703 701/1/701 480/1/480 481/1/481
f 676/1/676 703/1/703 481/1/481 482/1/482
f 500/1/500 501/1/501 494/1/494 495/1/495
f 502/1/502 500/1/500 495/1/495 496/1/496
f 503/1/503 502/1/502 496/1/496 497/1/497
f 504/1/504 503/1/503 497/1/497 498/1/498
f 505/1/505 410/1/410 387/1/387 485/1/485
f 506/1/506 504/1/504 498/1/498 499/1/499
f 507/1/507 505/1/505 485/1/485 486/1/486
f 413/1/413 506/1/506 499/1/499 403/1/403
f 508/1/508 507/1/507 486/1/486 487/1/487
f 509/1/509 508/1/508 487/1/487 488/1/488
f 510/1/510 509/1/509 488/1/488 489/1/489
f 511/1/511 510/1/510 489/1/489 490/1/490
f 512/1/512 511/1/511 490/1/490 491/1/491
f 513/1/513 512/1/512 491/1/491 492/1/492
f 514/1/514 513/1/513 492/1/492 493/1/493
f 501/1/501 514/1/514 493/1/493 494/1/494
f 529/1/529 528/1/528 514/1/514 501/1/501
f 528/1/528 527/1/527 513/1/513 514/1/514
f 527/1/527 526/1/526 512/1/512 513/1/513
f 526/1/526 525/1/525 511/1/511 512/1/512
f 525/1/525 524/1/524 510/1/510 511/1/511
f 524/1/524 523/1/523 509/1/509 510/1/510
f 523/1/523 522/1/522 508/1/508 509/1/509
f 522/1/522 521/1/521 507/1/507 508/1/508
f 428/1/428 520/1/520 506/1/506 413/1/413
f 521/1/521 519/1/519 505/1/505 507/1/507
f 520/1/520 518/1/518 504/1/504 506/1/506
f 519/1/519 437/1/437 410/1/410 505/1/505
f 518/1/518 517/1/517 503/1/503 504/1/504
f 517/1/517 516/1/516 502/1/502 503/1/503
f 516/1/516 515/1/515 500/1/500 502/1/502
f 515/1/515 529/1/529 501/1/501 500/1/500
f 499/1/499 498/1/498 543/1/543 544/1/544
f 486/1/486 485/1/485 530/1/530 531/1/531
f 403/1/403 499/1/499 544/1/544 454/1/454
f 487/1/487 486/1/486 531/1/531 532/1/532
f 488/1/488 487/1/487 532/1/532 533/1/533
f 489/1/489 488/1/488 533/1/533 534/1/534
f 490/1/490 489/1/489 534/1/534 535/1/535
f 491/1/491 490/1/490 535/1/535 536/1/536
f 492/1/492 491/1/491 536/1/536 537/1/537
f 493/1/493 492/1/492 537/1/537 538/1/538
f 494/1/494 493/1/493 538/1/538 539/1/539
f 495/1/495 494/1/494 539/1/539 540/1/540
f 496/1/496 495/1/495 540/1/540 541/1/541
f 497/1/497 496/1/496 541/1/541 542/1/542
f 498/1/498 497/1/497 542/1/542 543/1/543
f 485/1/485 387/1/387 438/1/438 530/1/530
f 541/1/541 573/1/573 574/1/574 542/1/542
f 454/1/454 561/1/561 560/1/560 453/1/453
f 441/1/441 548/1/548 547/1/547 440/1/440
f 542/1/542 574/1/574 575/1/575 543/1/543
f 442/1/442 549/1/549 548/1/548 441/1/441
f 438/1/438 545/1/545 562/1/562 530/1/530
f 543/1/543 575/1/575 576/1/576 544/1/544
f 530/1/530 562/1/562 563/1/563 531/1/531
f 443/1/443 550/1/550 549/1/549 442/1/442
f 544/1/544 576/1/576 561/1/561 454/1/454
f 531/1/531 563/1/563 564/1/564 532/1/532
f 444/1/444 551/1/551 550/1/550 443/1/443
f 532/1/532 564/1/564 565/1/565 533/1/533
f 445/1/445 552/1/552 551/1/551 444/1/444
f 533/1/533 565/1/565 566/1/566 534/1/534
f 446/1/446 553/1/553 552/1/552 445/1/445
f 534/1/534 566/1/566 567/1/567 535/1/535
f 447/1/447 554/1/554 553/1/553 446/1/446
f 535/1/535 567/1/567 568/1/568 536/1/536
f 448/1/448 555/1/555 554/1/554 447/1/447
f 449/1/449 556/1/556 555/1/555 448/1/448
f 536/1/536 568/1/568 569/1/569 537/1/537
f 537/1/537 569/1/569 570/1/570 538/1/538
f 450/1/450 557/1/557 556/1/556 449/1/449
f 538/1/538 570/1/570 571/1/571 539/1/539
f 451/1/451 558/1/558 557/1/557 450/1/450
f 539/1/539 571/1/571 572/1/572 540/1/540
f 452/1/452 559/1/559 558/1/558 451/1/451
f 439/1/439 546/1/546 545/1/545 438/1/438
f 540/1/540 572/1/572 573/1/573 541/1/541
f 453/1/453 560/1/560 559/1/559 452/1/452
f 440/1/440 547/1/547 546/1/546 439/1/439
f 580/1/580 579/1/579 578/1/578 577/1/577
f 582/1/582 581/1/581 579/1/579 580/1/580
f 584/1/584 583/1/583 581/1/581 582/1/582
f 586/1/586 585/1/585 583/1/583 584/1/584
f 588/1/588 587/1/587 585/1/585 586/1/586
f 590/1/590 589/1/589 587/1/587 588/1/588
f 592/1/592 591/1/591 589/1/589 590/1/590
f 594/1/594 593/1/593 591/1/591 592/1/592
f 596/1/596 595/1/595 593/1/593 594/1/594
f 598/1/598 597/1/597 595/1/595 596/1/596
f 600/1/600 599/1/599 597/1/597 598/1/598
f 602/1/602 601/1/601 599/1/599 600/1/600
f 604/1/604 603/1/603 601/1/601 602/1/602
f 606/1/606 605/1/605 603/1/603 604/1/604
f 608/1/608 607/1/607 605/1/605 606/1/606
f 610/1/610 609/1/609 607/1/607 608/1/608
f 612/1/612 611/1/611 577/1/577 578/1/578
f 614/1/614 613/1/613 611/1/611 612/1/612
f 616/1/616 615/1/615 613/1/613 614/1/614
f 618/1/618 617/1/617 615/1/615 616/1/616
f 620/1/620 619/1/619 617/1/617 618/1/618
f 622/1/622 621/1/621 619/1/619 620/1/620
f 624/1/624 623/1/623 621/1/621 622/1/622
f 626/1/626 625/1/625 623/1/623 624/1/624
f 628/1/628 627/1/627 625/1/625 626/1/626
f 630/1/630 629/1/629 627/1/627 628/1/628
f 632/1/632 631/1/631 629/1/629 630/1/630
f 634/1/634 633/1/633 631/1/631 632/1/632
f 636/1/636 635/1/635 633/1/633 634/1/634
f 638/1/638 637/1/637 635/1/635 636/1/636
f 640/1/640 639/1/639 637/1/637 638/1/638
f 609/1/609 610/1/610 639/1/639 640/1/640
f 579/1/579 425/1/425 437/1/437 578/1/578
f 612/1/612 578/1/578 437/1/437 519/1/519
f 371/1/371 580/1/580 577/1/577 370/1/370
f 470/1/470 370/1/370 577/1/577 611/1/611
f 372/1/372 582/1/582 580/1/580 371/1/371
f 581/1/581 427/1/427 425/1/425 579/1/579
f 373/1/373 584/1/584 582/1/582 372/1/372
f 583/1/583 429/1/429 427/1/427 581/1/581
f 374/1/374 586/1/586 584/1/584 373/1/373
f 585/1/585 430/1/430 429/1/429 583/1/583
f 375/1/375 588/1/588 586/1/586 374/1/374
f 587/1/587 431/1/431 430/1/430 585/1/585
f 376/1/376 590/1/590 588/1/588 375/1/375
f 589/1/589 432/1/432 431/1/431 587/1/587
f 377/1/377 592/1/592 590/1/590 376/1/376
f 591/1/591 433/1/433 432/1/432 589/1/589
f 378/1/378 594/1/594 592/1/592 377/1/377
f 593/1/593 434/1/434 433/1/433 591/1/591
f 379/1/379 596/1/596 594/1/594 378/1/378
f 595/1/595 435/1/435 434/1/434 593/1/593
f 380/1/380 598/1/598 596/1/596 379/1/379
f 597/1/597 436/1/436 435/1/435 595/1/595
f 381/1/381 600/1/600 598/1/598 380/1/380
f 599/1/599 421/1/421 436/1/436 597/1/597
f 382/1/382 602/1/602 600/1/600 381/1/381
f 601/1/601 422/1/422 421/1/421 599/1/599
f 383/1/383 604/1/604 602/1/602 382/1/382
f 603/1/603 423/1/423 422/1/422 601/1/601
f 384/1/384 606/1/606 604/1/604 383/1/383
f 605/1/605 424/1/424 423/1/423 603/1/603
f 385/1/385 608/1/608 606/1/606 384/1/384
f 607/1/607 426/1/426 424/1/424 605/1/605
f 386/1/386 610/1/610 608/1/608 385/1/385
f 609/1/609 428/1/428 426/1/426 607/1/607
f 609/1/609 640/1/640 520/1/520 428/1/428
f 386/1/386 484/1/484 639/1/639 610/1/610
f 614/1/614 612/1/612 519/1/519 521/1/521
f 471/1/471 470/1/470 611/1/611 613/1/613
f 616/1/616 614/1/614 521/1/521 522/1/522
f 472/1/472 471/1/471 613/1/613 615/1/615
f 618/1/618 616/1/616 522/1/522 523/1/523
f 473/1/473 472/1/472 615/1/615 617/1/617
f 620/1/620 618/1/618 523/1/523 524/1/524
f 474/1/474 473/1/473 617/1/617 619/1/619
f 622/1/622 620/1/620 524/1/524 525/1/525
f 475/1/475 474/1/474 619/1/619 621/1/621
f 624/1/624 622/1/622 525/1/525 526/1/526
f 476/1/476 475/1/475 621/1/621 623/1/623
f 626/1/626 624/1/624 526/1/526 527/1/527
f 477/1/477 476/1/476 623/1/623 625/1/625
f 628/1/628 626/1/626 527/1/527 528/1/528
f 478/1/478 477/1/477 625/1/625 627/1/627
f 630/1/630 628/1/628 528/1/528 529/1/529
f 479/1/479 478/1/478 627/1/627 629/1/629
f 632/1/632 630/1/630 529/1/529 515/1/515
f 480/1/480 479/1/479 629/1/629 631/1/631
f 634/1/634 632/1/632 515/1/515 516/1/516
f 481/1/481 480/1/480 631/1/631 633/1/633
f 636/1/636 634/1/634 516/1/516 517/1/517
f 482/1/482 481/1/481 633/1/633 635/1/635
f 638/1/638 636/1/636 517/1/517 518/1/518
f 483/1/483 482/1/482 635/1/635 637/1/637
f 640/1/640 638/1/638 518/1/518 520/1/520
f 484/1/484 483/1/483 637/1/637 639/1/639
f 467/1/467 466/1/466 704/1/704 675/1/675
f 675/1/675 704/1/704 703/1/703 676/1/676
f 466/1/466 465/1/465 702/1/702 704/1/704
f 704/1/704 702/1/702 701/1/701 703/1/703
f 465/1/465 464/1/464 700/1/700 702/1/702
f 702/1/702 700/1/700 699/1/699 701/1/701
f 464/1/464 463/1/463 698/1/698 700/1/700
f 700/1/700 698/1/698 697/1/697 699/1/699
f 463/1/463 462/1/462 696/1/696 698/1/698
f 698/1/698 696/1/696 695/1/695 697/1/697
f 462/1/462 461/1/461 694/1/694 696/1/696
f 696/1/696 694/1/694 693/1/693 695/1/695
f 461/1/461 460/1/460 692/1/692 694/1/694
f 694/1/694 692/1/692 691/1/691 693/1/693
f 460/1/460 459/1/459 690/1/690 692/1/692
f 692/1/692 690/1/690 689/1/689 691/1/691
f 459/1/459 458/1/458 688/1/688 690/1/690
f 690/1/690 688/1/688 687/1/687 689/1/689
f 458/1/458 457/1/457 686/1/686 688/1/688
f 688/1/688 686/1/686 685/1/685 687/1/687
f 457/1/457 456/1/456 684/1/684 686/1/686
f 686/1/686 684/1/684 683/1/683 685/1/685
f 369/1/369 469/1/469 682/1/682 654/1/654
f 654/1/654 682/1/682 681/1/681 653/1/653
f 456/1/456 455/1/455 680/1/680 684/1/684
f 684/1/684 680/1/680 679/1/679 683/1/683
f 469/1/469 468/1/468 678/1/678 682/1/682
f 682/1/682 678/1/678 677/1/677 681/1/681
f 455/1/455 353/1/353 645/1/645 680/1/680
f 680/1/680 645/1/645 646/1/646 679/1/679
f 468/1/468 467/1/467 675/1/675 678/1/678
f 678/1/678 675/1/675 676/1/676 677/1/677
f 366/1/366 641/1/641 674/1/674 365/1/365
f 641/1/641 642/1/642 673/1/673 674/1/674
f 365/1/365 674/1/674 672/1/672 364/1/364
f 674/1/674 673/1/673 671/1/671 672/1/672
f 364/1/364 672/1/672 670/1/670 363/1/363
f 672/1/672 671/1/671 669/1/669 670/1/670
f 363/1/363 670/1/670 668/1/668 362/1/362
f 670/1/670 669/1/669 667/1/667 668/1/668
f 362/1/362 668/1/668 666/1/666 361/1/361
f 668/1/668 667/1/667 665/1/665 666/1/666
f 361/1/361 666/1/666 664/1/664 360/1/360
f 666/1/666 665/1/665 663/1/663 664/1/664
f 360/1/360 664/1/664 662/1/662 359/1/359
f 664/1/664 663/1/663 661/1/661 662/1/662
f 359/1/359 662/1/662 660/1/660 358/1/358
f 662/1/662 661/1/661 659/1/659 660/1/660
f 358/1/358 660/1/660 658/1/658 357/1/357
f 660/1/660 659/1/659 657/1/657 658/1/658
f 357/1/357 658/1/658 656/1/656 356/1/356
f 658/1/658 657/1/657 655/1/655 656/1/656
f 356/1/356 656/1/656 652/1/652 355/1/355
f 656/1/656 655/1/655 651/1/651 652/1/652
f 369/1/369 654/1/654 650/1/650 368/1/368
f 654/1/654 653/1/653 649/1/649 650/1/650
f 355/1/355 652/1/652 648/1/648 354/1/354
f 652/1/652 651/1/651 647/1/647 648/1/648
f 368/1/368 650/1/650 644/1/644 367/1/367
f 650/1/650 649/1/649 643/1/643 644/1/644
f 354/1/354 648/1/648 645/1/645 353/1/353
f 648/1/648 647/1/647 646/1/646 645/1/645
f 367/1/367 644/1/644 641/1/641 366/1/366
f 644/1/644 643/1/643 642/1/642 641/1/641
f 1/1/1 2/1/2 354/1/354 353/1/353
f 2/1/2 3/1/3 355/1/355 354/1/354
f 3/1/3 4/1/4 356/1/356 355/1/355
f 4/1/4 5/1/5 357/1/357 356/1/356
f 5/1/5 6/1/6 358/1/358 357/1/357
f 6/1/6 7/1/7 359/1/359 358/1/358
f 7/1/7 8/1/8 360/1/360 359/1/359
f 8/1/8 9/1/9 361/1/361 360/1/360
f 9/1/9 10/1/10 362/1/362 361/1/361
f 10/1/10 11/1/11 363/1/363 362/1/362
f 11/1/11 12/1/12 364/1/364 363/1/363
f 12/1/12 13/1/13 365/1/365 364/1/364
f 13/1/13 14/1/14 366/1/366 365/1/365
f 14/1/14 15/1/15 367/1/367 366/1/366
f 15/1/15 16/1/16 368/1/368 367/1/367
f 16/1/16 17/1/17 369/1/369 368/1/368
f 103/1/103 1/1/1 353/1/353 455/1/455
f 104/1/104 103/1/103 455/1/455 456/1/456
f 105/1/105 104/1/104 456/1/456 457/1/457
f 106/1/106 105/1/105 457/1/457 458/1/458
f 107/1/107 106/1/106 458/1/458 459/1/459
f 108/1/108 107/1/107 459/1/459 460/1/460
f 109/1/109 108/1/108 460/1/460 461/1/461
f 110/1/110 109/1/109 461/1/461 462/1/462
f 111/1/111 110/1/110 462/1/462 463/1/463
f 112/1/112 111/1/111 463/1/463 464/1/464
f 113/1/113 112/1/112 464/1/464 465/1/465
f 114/1/114 113/1/113 465/1/465 466/1/466
f 115/1/115 114/1/114 466/1/466 467/1/467
f 116/1/116 115/1/115 467/1/467 468/1/468
f 117/1/117 116/1/116 468/1/468 469/1/469
f 17/1/17 117/1/117 469/1/469 369/1/369
f 194/1/194 193/1/193 545/1/545 546/1/546
f 195/1/195 194/1/194 546/1/546 547/1/547
f 196/1/196 195/1/195 547/1/547 548/1/548
f 197/1/197 196/1/196 548/1/548 549/1/549
f 198/1/198 197/1/197 549/1/549 550/1/550
f 199/1/199 198/1/198 550/1/550 551/1/551
f 200/1/200 199/1/199 551/1/551 552/1/552
f 201/1/201 200/1/200 552/1/552 553/1/553
f 202/1/202 201/1/201 553/1/553 554/1/554
f 203/1/203 202/1/202 554/1/554 555/1/555
f 204/1/204 203/1/203 555/1/555 556/1/556
f 205/1/205 204/1/204 556/1/556 557/1/557
f 206/1/206 205/1/205 557/1/557 558/1/558
f 207/1/207 206/1/206 558/1/558 559/1/559
f 208/1/208 207/1/207 559/1/559 560/1/560
f 209/1/209 208/1/208 560/1/560 561/1/561
f 193/1/193 210/1/210 562/1/562 545/1/545
f 210/1/210 211/1/211 563/1/563 562/1/562
f 211/1/211 212/1/212 564/1/564 563/1/563
f 212/1/212 213/1/213 565/1/565 564/1/564
f 213/1/213 214/1/214 566/1/566 565/1/565
f 214/1/214 215/1/215 567/1/567 566/1/566
f 215/1/215 216/1/216 568/1/568 567/1/567
f 216/1/216 217/1/217 569/1/569 568/1/568
f 217/1/217 218/1/218 570/1/570 569/1/569
f 218/1/218 219/1/219 571/1/571 570/1/570
f 219/1/219 220/1/220 572/1/572 571/1/571
f 220/1/220 221/1/221 573/1/573 572/1/572
f 221/1/221 222/1/222 574/1/574 573/1/573
f 222/1/222 223/1/223 575/1/575 574/1/574
f 223/1/223 224/1/224 576/1/576 575/1/575
f 224/1/224 209/1/209 561/1/561 576/1/576
