# Blender 5.2.2 LTS
# www.blender.org
mtllib hornet_needle.mtl
o Plane
v 2.770963 -0.767528 -1.525709
v 2.597553 -1.000526 -1.666788
v 0.082300 0.696425 -0.246837
v -0.274986 0.216368 -0.537508
v 1.342577 0.008230 -0.844748
v 1.072295 -0.354927 -1.064637
v 5.109167 -2.046519 -2.656980
v -0.318262 0.629995 -0.242420
v -0.395075 0.526787 -0.304911
v 1.242373 -0.126406 -0.926269
v 1.172499 -0.220290 -0.983115
v -2.537104 1.704111 0.711380
v -2.614107 1.600648 0.648735
v -2.920480 1.819302 0.828288
v -2.806674 1.896790 0.869563
v -2.663582 1.898071 0.856050
v -2.558157 1.822546 0.794071
v -2.753614 1.559925 0.635056
v -2.885848 1.599430 0.675224
v -2.951748 1.701865 0.751538
v -2.619654 1.715919 0.727713
v -2.665856 1.653842 0.690126
v -2.849680 1.785034 0.797858
v -2.781396 1.831527 0.822623
v -2.695541 1.832296 0.814514
v -2.632286 1.786981 0.777327
v -2.749560 1.629408 0.681918
v -2.828901 1.653111 0.706019
v -2.868440 1.714572 0.751807
v 2.767402 -0.743425 -1.561137
v 2.593991 -0.976424 -1.702216
v 0.077015 0.732192 -0.299411
v -0.280271 0.252135 -0.590082
v 1.337704 0.041203 -0.893216
v 1.067422 -0.321953 -1.113105
v -0.324822 0.674391 -0.307678
v -0.401635 0.571183 -0.370169
v 1.237500 -0.093433 -0.974737
v 1.167627 -0.187317 -1.031583
v -2.543664 1.748506 0.646122
v -2.620667 1.645044 0.583477
v -2.927041 1.863698 0.763030
v -2.813235 1.941186 0.804305
v -2.670142 1.942467 0.790792
v -2.564717 1.866942 0.728813
v -2.760175 1.604321 0.569798
v -2.892408 1.643825 0.609966
v -2.958309 1.746261 0.686280
v -2.626214 1.760315 0.662455
v -2.672416 1.698237 0.624867
v -2.856240 1.829430 0.732600
v -2.787956 1.875923 0.757364
v -2.702101 1.876692 0.749256
v -2.638846 1.831377 0.712069
v -2.756121 1.673804 0.616660
v -2.835461 1.697506 0.640761
v -2.875001 1.758968 0.686549
vn 0.0874 -0.5628 0.8220
vn 0.0881 -0.5631 0.8217
vn 0.0964 -0.5506 0.8292
vn 0.0784 -0.5748 0.8145
vn 0.0940 -0.5518 0.8287
vn 0.0785 -0.5725 0.8161
vn 0.0828 -0.5606 0.8240
vn -0.0782 0.5583 -0.8259
vn -0.0775 0.5580 -0.8262
vn -0.0693 0.5704 -0.8185
vn -0.0873 0.5462 -0.8331
vn -0.0717 0.5692 -0.8191
vn -0.0871 0.5485 -0.8316
vn -0.0828 0.5606 -0.8240
vn 0.5793 0.6998 0.4179
vn -0.4926 -0.7418 -0.4551
vn 0.5800 0.6994 0.4175
vn -0.4934 -0.7414 -0.4548
vn -0.4894 -0.7431 -0.4564
vn -0.1287 0.8139 0.5666
vn -0.9512 -0.2912 -0.1025
vn 0.5830 0.6978 0.4161
vn 0.5371 0.7216 0.4369
vn -0.5370 -0.7216 -0.4369
vn -0.6052 0.6286 0.4885
vn 0.0454 0.8281 0.5588
vn 0.6747 0.6401 0.3676
vn -0.3831 -0.7812 -0.4929
vn -0.8848 -0.4218 -0.1980
vn -0.9725 0.1350 0.1896
vn 0.9861 0.1658 0.0136
vn 0.2824 -0.7797 -0.5588
vn -0.8395 0.4063 0.3608
vn 0.6052 -0.6286 -0.4885
vn -0.0454 -0.8281 -0.5588
vn -0.6747 -0.6401 -0.3676
vn 0.3831 0.7812 0.4929
vn 0.8848 0.4218 0.1980
vn 0.9725 -0.1350 -0.1896
vn -0.9861 -0.1658 -0.0136
vn -0.2824 0.7797 0.5588
vt 0.629261 0.500000
vt 0.370739 0.500000
vt 0.392505 1.000000
vt 0.607495 1.000000
vt 0.671408 0.000000
vt 1.000000 0.500000
vt 1.000000 0.000000
vt 0.000000 0.000000
vt 0.000000 0.500000
vt 0.328592 0.000000
vt 0.000000 1.000000
vt 1.000000 1.000000
s 0
f 11/1/1 10/2/1 8/3/1 9/4/1
f 7/5/2 10/2/2 11/1/2
f 7/5/3 11/1/3 6/6/3 2/7/3
f 1/8/4 5/9/4 10/2/4 7/10/4
f 5/9/5 3/11/5 8/3/5 10/2/5
f 11/1/6 9/4/6 4/12/6 6/6/6
f 8/3/7 12/3/7 13/4/7 9/4/7
f 18/8/7 27/8/7 28/8/7 19/8/7
f 14/8/7 23/8/7 24/8/7 15/8/7
f 13/8/7 22/8/7 27/8/7 18/8/7
f 12/3/7 21/3/7 22/4/7 13/4/7
f 19/8/7 28/8/7 29/8/7 20/8/7
f 15/8/7 24/8/7 25/8/7 16/8/7
f 20/8/7 29/8/7 23/8/7 14/8/7
f 16/8/7 25/8/7 26/8/7 17/8/7
f 17/8/7 26/8/7 21/8/7 12/8/7
f 39/1/8 37/4/8 36/3/8 38/2/8
f 7/5/9 39/1/9 38/2/9
f 7/5/10 31/7/10 35/6/10 39/1/10
f 30/8/11 7/10/11 38/2/11 34/9/11
f 34/9/12 38/2/12 36/3/12 32/11/12
f 39/1/13 35/6/13 33/12/13 37/4/13
f 36/3/14 37/4/14 41/4/14 40/3/14
f 46/8/14 47/8/14 56/8/14 55/8/14
f 42/8/14 43/8/14 52/8/14 51/8/14
f 41/8/14 46/8/14 55/8/14 50/8/14
f 40/3/14 41/4/14 50/4/14 49/3/14
f 47/8/14 48/8/14 57/8/14 56/8/14
f 43/8/14 44/8/14 53/8/14 52/8/14
f 48/8/14 42/8/14 51/8/14 57/8/14
f 44/8/14 45/8/14 54/8/14 53/8/14
f 45/8/14 40/8/14 49/8/14 54/8/14
f 1/8/15 30/8/15 34/9/15 5/9/15
f 4/12/16 33/12/16 35/6/16 6/6/16
f 5/9/17 34/9/17 32/11/17 3/11/17
f 6/6/18 35/6/18 31/7/18 2/7/18
f 2/7/19 31/7/19 7/5/19
f 3/11/20 32/11/20 36/3/20 8/3/20
f 9/4/21 37/4/21 33/12/21 4/12/21
f 7/10/22 30/8/22 1/8/22
f 8/3/23 36/3/23 40/3/23 12/3/23
f 13/4/24 41/4/24 37/4/24 9/4/24
f 15/8/25 43/8/25 42/8/25 14/8/25
f 16/8/26 44/8/26 43/8/26 15/8/26
f 17/8/27 45/8/27 44/8/27 16/8/27
f 19/8/28 47/8/28 46/8/28 18/8/28
f 20/8/29 48/8/29 47/8/29 19/8/29
f 14/8/30 42/8/30 48/8/30 20/8/30
f 12/8/31 40/8/31 45/8/31 17/8/31
f 18/8/32 46/8/32 41/8/32 13/8/32
f 21/3/33 49/3/33 50/4/33 22/4/33
f 23/8/34 51/8/34 52/8/34 24/8/34
f 24/8/35 52/8/35 53/8/35 25/8/35
f 25/8/36 53/8/36 54/8/36 26/8/36
f 27/8/37 55/8/37 56/8/37 28/8/37
f 28/8/38 56/8/38 57/8/38 29/8/38
f 29/8/39 57/8/39 51/8/39 23/8/39
f 26/8/40 54/8/40 49/8/40 21/8/40
f 22/8/41 50/8/41 55/8/41 27/8/41
