# Blender 5.2.2 LTS
# www.blender.org
mtllib Lantern.mtl
o Lantern
v 2.193093 2.239401 4.053980
v 2.193093 2.166178 3.877203
v 2.193093 1.989401 3.803980
v 2.193093 1.739401 4.053980
v 2.240928 2.220371 3.971127
v 2.281482 2.166178 3.900887
v 2.308578 2.085072 3.853954
v 2.318093 1.989401 3.837474
v 2.308578 1.893730 3.853954
v 2.281482 1.812624 3.900887
v 2.240928 1.758431 3.971127
v 2.275946 2.220371 4.006145
v 2.346186 2.166178 3.965591
v 2.393119 2.085072 3.938495
v 2.409599 1.989401 3.928980
v 2.393119 1.893730 3.938495
v 2.346186 1.812624 3.965591
v 2.275946 1.758431 4.006145
v 2.288764 2.220371 4.053980
v 2.369870 2.166178 4.053980
v 2.424063 2.085072 4.053980
v 2.443093 1.989401 4.053980
v 2.424063 1.893730 4.053980
v 2.369870 1.812624 4.053980
v 2.288764 1.758431 4.053980
v 2.275946 2.220371 4.101815
v 2.346186 2.166178 4.142368
v 2.393119 2.085072 4.169465
v 2.409599 1.989401 4.178980
v 2.393119 1.893730 4.169465
v 2.346186 1.812624 4.142368
v 2.275946 1.758431 4.101815
v 2.240928 2.220371 4.136833
v 2.281481 2.166178 4.207073
v 2.308578 2.085072 4.254005
v 2.318093 1.989401 4.270486
v 2.308578 1.893730 4.254005
v 2.281481 1.812624 4.207073
v 2.240928 1.758431 4.136833
v 2.193093 2.220371 4.149651
v 2.193093 2.166178 4.230757
v 2.193093 2.085072 4.284950
v 2.193093 1.989401 4.303980
v 2.193093 1.893730 4.284950
v 2.193093 1.812624 4.230757
v 2.193093 1.758431 4.149651
v 2.145258 2.220371 4.136833
v 2.104705 2.166178 4.207073
v 2.077608 2.085072 4.254005
v 2.068093 1.989401 4.270486
v 2.077608 1.893730 4.254005
v 2.104705 1.812624 4.207073
v 2.145258 1.758431 4.136833
v 2.110240 2.220371 4.101815
v 2.040000 2.166178 4.142368
v 1.993067 2.085072 4.169465
v 1.976587 1.989401 4.178980
v 1.993067 1.893730 4.169465
v 2.040000 1.812624 4.142368
v 2.110240 1.758431 4.101815
v 2.097422 2.220371 4.053980
v 2.016316 2.166178 4.053980
v 1.962123 2.085072 4.053980
v 1.943093 1.989401 4.053980
v 1.962123 1.893730 4.053980
v 2.016316 1.812624 4.053980
v 2.097422 1.758431 4.053980
v 2.110240 2.220371 4.006145
v 2.040000 2.166178 3.965591
v 1.993067 2.085072 3.938495
v 1.976587 1.989401 3.928980
v 1.993067 1.893730 3.938495
v 2.040000 1.812624 3.965591
v 2.110240 1.758431 4.006145
v 2.145258 2.220371 3.971127
v 2.104705 2.166178 3.900887
v 2.077608 2.085072 3.853954
v 2.068093 1.989401 3.837474
v 2.077608 1.893730 3.853954
v 2.104705 1.812624 3.900887
v 2.145258 1.758431 3.971127
v 2.193093 2.220371 3.958309
v 2.193093 2.085072 3.823010
v 2.193093 1.893730 3.823010
v 2.193093 1.812624 3.877203
v 2.193093 1.758431 3.958309
vn -0.0000 1.0000 -0.0000
vn -0.0000 0.6913 -0.7226
vn -0.0000 -0.0000 -1.0000
vn -0.0000 -1.0000 -0.0000
vn 0.2048 0.9122 -0.3548
vn 0.3613 0.6913 -0.6258
vn 0.4642 0.3718 -0.8040
vn 0.5000 -0.0000 -0.8660
vn 0.4642 -0.3718 -0.8040
vn 0.3613 -0.6913 -0.6258
vn 0.2049 -0.9122 -0.3548
vn 0.3548 0.9122 -0.2049
vn 0.6258 0.6913 -0.3613
vn 0.8040 0.3718 -0.4642
vn 0.8660 -0.0000 -0.5000
vn 0.8040 -0.3718 -0.4642
vn 0.6258 -0.6913 -0.3613
vn 0.3548 -0.9122 -0.2049
vn 0.4097 0.9122 -0.0000
vn 0.7226 0.6913 -0.0000
vn 0.9283 0.3718 -0.0000
vn 1.0000 -0.0000 -0.0000
vn 0.9283 -0.3718 -0.0000
vn 0.7226 -0.6913 -0.0000
vn 0.4097 -0.9122 -0.0000
vn 0.3548 0.9122 0.2049
vn 0.6258 0.6913 0.3613
vn 0.8040 0.3718 0.4642
vn 0.8660 -0.0000 0.5000
vn 0.8040 -0.3718 0.4642
vn 0.6258 -0.6913 0.3613
vn 0.3548 -0.9122 0.2049
vn 0.2048 0.9122 0.3548
vn 0.3613 0.6913 0.6258
vn 0.4642 0.3718 0.8040
vn 0.5000 -0.0000 0.8660
vn 0.4642 -0.3718 0.8040
vn 0.3613 -0.6913 0.6258
vn 0.2049 -0.9122 0.3548
vn -0.0000 0.9122 0.4097
vn -0.0000 0.6913 0.7226
vn -0.0000 0.3718 0.9283
vn -0.0000 -0.0000 1.0000
vn -0.0000 -0.3718 0.9283
vn -0.0000 -0.6913 0.7226
vn -0.0000 -0.9122 0.4097
vn -0.2048 0.9122 0.3548
vn -0.3613 0.6913 0.6258
vn -0.4642 0.3718 0.8040
vn -0.5000 -0.0000 0.8660
vn -0.4642 -0.3718 0.8040
vn -0.3613 -0.6913 0.6258
vn -0.2049 -0.9122 0.3548
vn -0.3548 0.9122 0.2049
vn -0.6258 0.6913 0.3613
vn -0.8040 0.3718 0.4642
vn -0.8660 -0.0000 0.5000
vn -0.8040 -0.3718 0.4642
vn -0.6258 -0.6913 0.3613
vn -0.3548 -0.9122 0.2049
vn -0.4097 0.9122 -0.0000
vn -0.7226 0.6913 -0.0000
vn -0.9283 0.3718 -0.0000
vn -1.0000 -0.0000 -0.0000
vn -0.9283 -0.3718 -0.0000
vn -0.7226 -0.6913 -0.0000
vn -0.4097 -0.9122 -0.0000
vn -0.3548 0.9122 -0.2049
vn -0.6258 0.6913 -0.3613
vn -0.8040 0.3718 -0.4642
vn -0.8660 -0.0000 -0.5000
vn -0.8040 -0.3718 -0.4642
vn -0.6258 -0.6913 -0.3613
vn -0.3548 -0.9122 -0.2049
vn -0.2048 0.9122 -0.3548
vn -0.3613 0.6913 -0.6258
vn -0.4642 0.3718 -0.8040
vn -0.5000 -0.0000 -0.8660
vn -0.4642 -0.3718 -0.8040
vn -0.3613 -0.6913 -0.6258
vn -0.2049 -0.9122 -0.3548
vn -0.0000 0.9122 -0.4097
vn -0.0000 0.3718 -0.9283
vn -0.0000 -0.3718 -0.9283
vn -0.0000 -0.6913 -0.7226
vn -0.0000 -0.9122 -0.4097
vt 0.750000 0.375000
vt 0.750000 0.500000
vt 0.666667 0.500000
vt 0.666667 0.375000
vt 0.750000 0.625000
vt 0.750000 0.750000
vt 0.666667 0.750000
vt 0.666667 0.625000
vt 0.750000 0.875000
vt 0.708333 1.000000
vt 0.666667 0.875000
vt 0.708333 0.000000
vt 0.750000 0.125000
vt 0.666667 0.125000
vt 0.750000 0.250000
vt 0.666667 0.250000
vt 0.625000 0.000000
vt 0.583333 0.125000
vt 0.583333 0.375000
vt 0.583333 0.250000
vt 0.583333 0.625000
vt 0.583333 0.500000
vt 0.583333 0.875000
vt 0.583333 0.750000
vt 0.625000 1.000000
vt 0.500000 0.875000
vt 0.500000 0.750000
vt 0.500000 0.250000
vt 0.500000 0.125000
vt 0.500000 0.500000
vt 0.500000 0.375000
vt 0.500000 0.625000
vt 0.541667 1.000000
vt 0.541667 0.000000
vt 0.416667 0.250000
vt 0.416667 0.125000
vt 0.416667 0.500000
vt 0.416667 0.375000
vt 0.416667 0.750000
vt 0.416667 0.625000
vt 0.458333 1.000000
vt 0.416667 0.875000
vt 0.458333 0.000000
vt 0.375000 1.000000
vt 0.333333 0.875000
vt 0.375000 0.000000
vt 0.333333 0.125000
vt 0.333333 0.375000
vt 0.333333 0.250000
vt 0.333333 0.625000
vt 0.333333 0.500000
vt 0.333333 0.750000
vt 0.250000 0.375000
vt 0.250000 0.250000
vt 0.250000 0.625000
vt 0.250000 0.500000
vt 0.250000 0.875000
vt 0.250000 0.750000
vt 0.250000 0.125000
vt 0.291667 1.000000
vt 0.291667 0.000000
vt 0.166667 0.250000
vt 0.166667 0.125000
vt 0.166667 0.500000
vt 0.166667 0.375000
vt 0.166667 0.750000
vt 0.166667 0.625000
vt 0.208333 1.000000
vt 0.166667 0.875000
vt 0.208333 0.000000
vt 0.083333 0.500000
vt 0.083333 0.375000
vt 0.083333 0.750000
vt 0.083333 0.625000
vt 0.125000 1.000000
vt 0.083333 0.875000
vt 0.125000 0.000000
vt 0.083333 0.125000
vt 0.083333 0.250000
vt 0.041667 0.000000
vt 0.000000 0.125000
vt 0.000000 0.375000
vt 0.000000 0.250000
vt 0.000000 0.625000
vt 0.000000 0.500000
vt 0.000000 0.875000
vt 0.000000 0.750000
vt 0.041667 1.000000
vt 1.000000 0.500000
vt 1.000000 0.625000
vt 0.916667 0.625000
vt 0.916667 0.500000
vt 1.000000 0.750000
vt 1.000000 0.875000
vt 0.916667 0.875000
vt 0.916667 0.750000
vt 1.000000 0.125000
vt 1.000000 0.250000
vt 0.916667 0.250000
vt 0.916667 0.125000
vt 1.000000 0.375000
vt 0.916667 0.375000
vt 0.958333 1.000000
vt 0.958333 0.000000
vt 0.833333 0.250000
vt 0.833333 0.125000
vt 0.833333 0.500000
vt 0.833333 0.375000
vt 0.833333 0.750000
vt 0.833333 0.625000
vt 0.875000 1.000000
vt 0.833333 0.875000
vt 0.875000 0.000000
vt 0.791667 1.000000
vt 0.791667 0.000000
s 1
f 84/1/84 3/2/3 8/3/8 9/4/9
f 83/5/83 2/6/2 6/7/6 7/8/7
f 82/9/82 1/10/1 5/11/5
f 4/12/4 86/13/86 11/14/11
f 85/15/85 84/1/84 9/4/9 10/16/10
f 3/2/3 83/5/83 7/8/7 8/3/8
f 2/6/2 82/9/82 5/11/5 6/7/6
f 86/13/86 85/15/85 10/16/10 11/14/11
f 4/17/4 11/14/11 18/18/18
f 10/16/10 9/4/9 16/19/16 17/20/17
f 8/3/8 7/8/7 14/21/14 15/22/15
f 6/7/6 5/11/5 12/23/12 13/24/13
f 11/14/11 10/16/10 17/20/17 18/18/18
f 9/4/9 8/3/8 15/22/15 16/19/16
f 7/8/7 6/7/6 13/24/13 14/21/14
f 5/11/5 1/25/1 12/23/12
f 13/24/13 12/23/12 19/26/19 20/27/20
f 18/18/18 17/20/17 24/28/24 25/29/25
f 16/19/16 15/22/15 22/30/22 23/31/23
f 14/21/14 13/24/13 20/27/20 21/32/21
f 12/23/12 1/33/1 19/26/19
f 4/34/4 18/18/18 25/29/25
f 17/20/17 16/19/16 23/31/23 24/28/24
f 15/22/15 14/21/14 21/32/21 22/30/22
f 25/29/25 24/28/24 31/35/31 32/36/32
f 23/31/23 22/30/22 29/37/29 30/38/30
f 21/32/21 20/27/20 27/39/27 28/40/28
f 19/26/19 1/41/1 26/42/26
f 4/43/4 25/29/25 32/36/32
f 24/28/24 23/31/23 30/38/30 31/35/31
f 22/30/22 21/32/21 28/40/28 29/37/29
f 20/27/20 19/26/19 26/42/26 27/39/27
f 26/42/26 1/44/1 33/45/33
f 4/46/4 32/36/32 39/47/39
f 31/35/31 30/38/30 37/48/37 38/49/38
f 29/37/29 28/40/28 35/50/35 36/51/36
f 27/39/27 26/42/26 33/45/33 34/52/34
f 32/36/32 31/35/31 38/49/38 39/47/39
f 30/38/30 29/37/29 36/51/36 37/48/37
f 28/40/28 27/39/27 34/52/34 35/50/35
f 38/49/38 37/48/37 44/53/44 45/54/45
f 36/51/36 35/50/35 42/55/42 43/56/43
f 34/52/34 33/45/33 40/57/40 41/58/41
f 39/47/39 38/49/38 45/54/45 46/59/46
f 37/48/37 36/51/36 43/56/43 44/53/44
f 35/50/35 34/52/34 41/58/41 42/55/42
f 33/45/33 1/60/1 40/57/40
f 4/61/4 39/47/39 46/59/46
f 46/59/46 45/54/45 52/62/52 53/63/53
f 44/53/44 43/56/43 50/64/50 51/65/51
f 42/55/42 41/58/41 48/66/48 49/67/49
f 40/57/40 1/68/1 47/69/47
f 4/70/4 46/59/46 53/63/53
f 45/54/45 44/53/44 51/65/51 52/62/52
f 43/56/43 42/55/42 49/67/49 50/64/50
f 41/58/41 40/57/40 47/69/47 48/66/48
f 51/65/51 50/64/50 57/71/57 58/72/58
f 49/67/49 48/66/48 55/73/55 56/74/56
f 47/69/47 1/75/1 54/76/54
f 4/77/4 53/63/53 60/78/60
f 52/62/52 51/65/51 58/72/58 59/79/59
f 50/64/50 49/67/49 56/74/56 57/71/57
f 48/66/48 47/69/47 54/76/54 55/73/55
f 53/63/53 52/62/52 59/79/59 60/78/60
f 4/80/4 60/78/60 67/81/67
f 59/79/59 58/72/58 65/82/65 66/83/66
f 57/71/57 56/74/56 63/84/63 64/85/64
f 55/73/55 54/76/54 61/86/61 62/87/62
f 60/78/60 59/79/59 66/83/66 67/81/67
f 58/72/58 57/71/57 64/85/64 65/82/65
f 56/74/56 55/73/55 62/87/62 63/84/63
f 54/76/54 1/88/1 61/86/61
f 64/89/64 63/90/63 70/91/70 71/92/71
f 62/93/62 61/94/61 68/95/68 69/96/69
f 67/97/67 66/98/66 73/99/73 74/100/74
f 65/101/65 64/89/64 71/92/71 72/102/72
f 63/90/63 62/93/62 69/96/69 70/91/70
f 61/94/61 1/103/1 68/95/68
f 4/104/4 67/97/67 74/100/74
f 66/98/66 65/101/65 72/102/72 73/99/73
f 74/100/74 73/99/73 80/105/80 81/106/81
f 72/102/72 71/92/71 78/107/78 79/108/79
f 70/91/70 69/96/69 76/109/76 77/110/77
f 68/95/68 1/111/1 75/112/75
f 4/113/4 74/100/74 81/106/81
f 73/99/73 72/102/72 79/108/79 80/105/80
f 71/92/71 70/91/70 77/110/77 78/107/78
f 69/96/69 68/95/68 75/112/75 76/109/76
f 77/110/77 76/109/76 2/6/2 83/5/83
f 75/112/75 1/114/1 82/9/82
f 4/115/4 81/106/81 86/13/86
f 80/105/80 79/108/79 84/1/84 85/15/85
f 78/107/78 77/110/77 83/5/83 3/2/3
f 76/109/76 75/112/75 82/9/82 2/6/2
f 81/106/81 80/105/80 85/15/85 86/13/86
f 79/108/79 78/107/78 3/2/3 84/1/84
