# Blender 5.2.2 LTS
# www.blender.org
mtllib Lumaflies.mtl
o Lumaflies
v -7.331810 4.056909 5.154899
v -6.994713 4.056909 4.713803
v -6.986280 4.118290 4.702769
v -7.340242 4.118290 5.165933
v -7.247733 4.134381 5.044883
v -7.078790 4.134381 4.823819
v -7.057366 3.986784 4.795785
v -7.269157 3.986784 5.072917
v -7.163261 4.050299 4.934351
v -7.114835 3.970547 4.870985
v -7.163261 3.890795 4.934351
v -7.211688 3.970547 4.997717
v -7.127645 4.029202 4.887747
v -7.163261 3.970547 4.934351
v -7.127645 3.911891 4.887747
v -7.198878 3.911891 4.980955
v -7.198878 4.029202 4.980955
v -7.014166 4.021846 4.739257
v -7.312357 4.021846 5.129445
v -7.030075 4.165056 4.760074
v -7.296448 4.165056 5.108628
v -6.583456 3.468083 1.357438
v -6.941496 3.468083 1.771096
v -6.950452 3.528573 1.781443
v -6.574500 3.528573 1.347091
v -6.672756 3.544429 1.460610
v -6.852196 3.544429 1.667924
v -6.874950 3.398978 1.694214
v -6.650001 3.398978 1.434321
v -6.762476 3.461570 1.564267
v -6.813911 3.382977 1.623692
v -6.762476 3.304384 1.564267
v -6.711041 3.382977 1.504842
v -6.800305 3.440780 1.607972
v -6.762476 3.382977 1.564267
v -6.800305 3.325174 1.607972
v -6.724647 3.325174 1.520562
v -6.724647 3.440780 1.520562
v -6.920835 3.433531 1.747225
v -6.604117 3.433531 1.381309
v -6.903937 3.574658 1.727703
v -6.621015 3.574658 1.400831
v -5.485550 3.476047 5.996364
v -6.029171 3.476047 5.726100
v -6.042769 3.543170 5.719340
v -5.471951 3.543170 6.003125
v -5.621137 3.560766 5.928957
v -5.893584 3.560766 5.793508
v -5.928133 3.399361 5.776332
v -5.586587 3.399361 5.946133
v -5.757360 3.468818 5.861232
v -5.835455 3.381605 5.822407
v -5.757360 3.294391 5.861232
v -5.679265 3.381605 5.900058
v -5.814797 3.445748 5.832677
v -5.757360 3.381605 5.861232
v -5.814797 3.317461 5.832677
v -5.699924 3.317461 5.889787
v -5.699924 3.445748 5.889787
v -5.997800 3.437704 5.741696
v -5.516921 3.437704 5.980768
v -5.972145 3.594311 5.754451
v -5.542576 3.594311 5.968014
v -3.950212 3.972384 3.442467
v -3.340127 3.972384 3.353479
v -3.324866 4.040553 3.351253
v -3.965472 4.040553 3.444693
v -3.798048 4.058422 3.420272
v -3.492291 4.058422 3.375674
v -3.453517 3.894506 3.370018
v -3.836821 3.894506 3.425927
v -3.645169 3.965044 3.397973
v -3.557526 3.876473 3.385189
v -3.645169 3.787903 3.397973
v -3.732812 3.876473 3.410757
v -3.580710 3.941614 3.388571
v -3.645169 3.876473 3.397973
v -3.580710 3.811332 3.388571
v -3.709628 3.811332 3.407375
v -3.709628 3.941614 3.407375
v -3.375333 3.933445 3.358614
v -3.915005 3.933445 3.437332
v -3.404125 4.092489 3.362813
v -3.886214 4.092489 3.433132
v -4.682621 4.454566 2.817831
v -4.303741 4.454566 2.972858
v -4.294263 4.499828 2.976736
v -4.692098 4.499828 2.813953
v -4.588122 4.511693 2.856497
v -4.398239 4.511693 2.934192
v -4.374159 4.402856 2.944045
v -4.612202 4.402856 2.846644
v -4.493181 4.449692 2.895344
v -4.438752 4.390883 2.917615
v -4.493181 4.332074 2.895344
v -4.547609 4.390883 2.873074
v -4.453150 4.434135 2.911724
v -4.493181 4.390883 2.895344
v -4.453150 4.347631 2.911724
v -4.533212 4.347631 2.878965
v -4.533212 4.434135 2.878965
v -4.325605 4.428711 2.963912
v -4.660757 4.428711 2.826777
v -4.343485 4.534312 2.956596
v -4.642876 4.534312 2.834093
v -4.664107 3.339624 2.261536
v -4.539209 3.339624 1.850707
v -4.536085 3.387101 1.840430
v -4.667232 3.387101 2.271813
v -4.632956 3.399546 2.159070
v -4.570361 3.399546 1.953174
v -4.562423 3.285385 1.927064
v -4.640894 3.285385 2.185179
v -4.601658 3.334512 2.056122
v -4.583716 3.272826 1.997103
v -4.601658 3.211141 2.056122
v -4.619601 3.272826 2.115140
v -4.588462 3.318194 2.012715
v -4.601658 3.272826 2.056122
v -4.588462 3.227458 2.012715
v -4.614854 3.227458 2.099528
v -4.614854 3.318194 2.099528
v -4.546417 3.312505 1.874415
v -4.656900 3.312505 2.237828
v -4.552311 3.423272 1.893803
v -4.651005 3.423272 2.218440
v -1.528480 4.426818 9.483493
v -1.754375 4.426818 9.578618
v -1.760026 4.453919 9.580997
v -1.522829 4.453919 9.481113
v -1.584821 4.461023 9.507218
v -1.698033 4.461023 9.554893
v -1.712390 4.395858 9.560938
v -1.570465 4.395858 9.501173
v -1.641427 4.423900 9.531055
v -1.673879 4.388689 9.544721
v -1.641427 4.353478 9.531055
v -1.608976 4.388689 9.517390
v -1.665295 4.414586 9.541106
v -1.641427 4.388689 9.531055
v -1.665295 4.362792 9.541106
v -1.617560 4.362792 9.521005
v -1.617560 4.414586 9.521005
v -1.741339 4.411338 9.573129
v -1.541516 4.411338 9.488982
v -1.730678 4.474566 9.568640
v -1.552176 4.474566 9.493472
v -3.205084 3.763585 5.411543
v -2.867741 3.763585 5.175215
v -2.859303 3.809126 5.169303
v -3.213523 3.809126 5.417455
v -3.120946 3.821064 5.352600
v -2.951879 3.821064 5.234158
v -2.930440 3.711558 5.219139
v -3.142386 3.711558 5.367619
v -3.036413 3.758681 5.293379
v -2.987951 3.699511 5.259429
v -3.036413 3.640340 5.293379
v -3.084874 3.699511 5.327329
v -3.000771 3.743029 5.268409
v -3.036413 3.699511 5.293379
v -3.000771 3.655993 5.268409
v -3.072055 3.655993 5.318348
v -3.072055 3.743029 5.318348
v -2.887208 3.737571 5.188852
v -3.185617 3.737571 5.397905
v -2.903129 3.843822 5.200006
v -3.169697 3.843822 5.386752
v 0.485366 2.602537 10.829600
v 0.757688 2.602537 10.363717
v 0.764500 2.662203 10.352063
v 0.478554 2.662203 10.841254
v 0.553287 2.677844 10.713403
v 0.689767 2.677844 10.479915
v 0.707074 2.534373 10.450306
v 0.535980 2.534373 10.743011
v 0.621527 2.596112 10.596659
v 0.660648 2.518590 10.529731
v 0.621527 2.441067 10.596659
v 0.582406 2.518590 10.663587
v 0.650300 2.575606 10.547436
v 0.621527 2.518590 10.596659
v 0.650300 2.461574 10.547436
v 0.592755 2.461574 10.645882
v 0.592755 2.575606 10.645882
v 0.741973 2.568455 10.390601
v 0.501081 2.568455 10.802716
v 0.729122 2.707661 10.412588
v 0.513933 2.707661 10.780729
v 1.744752 2.425266 10.574321
v 1.385981 2.425266 10.791989
v 1.377007 2.471664 10.797435
v 1.753727 2.471664 10.568875
v 1.655270 2.483827 10.628611
v 1.475464 2.483827 10.737700
v 1.452663 2.372260 10.751534
v 1.678071 2.372260 10.614777
v 1.565367 2.420270 10.683155
v 1.513827 2.359986 10.714425
v 1.565367 2.299702 10.683155
v 1.616907 2.359986 10.651885
v 1.527461 2.404323 10.706153
v 1.565367 2.359986 10.683155
v 1.527461 2.315649 10.706153
v 1.603273 2.315649 10.660157
v 1.603273 2.404323 10.660157
v 1.406685 2.398763 10.779428
v 1.724049 2.398763 10.586882
v 1.423617 2.507013 10.769156
v 1.707117 2.507013 10.597155
v 1.846349 2.579764 11.517463
v 1.655611 2.579764 11.299739
v 1.650840 2.611768 11.294292
v 1.851120 2.611768 11.522909
v 1.798776 2.620157 11.463160
v 1.703184 2.620157 11.354042
v 1.691062 2.543201 11.340205
v 1.810898 2.543201 11.476996
v 1.750980 2.576318 11.408601
v 1.723579 2.534735 11.377323
v 1.750980 2.493153 11.408601
v 1.778381 2.534735 11.439878
v 1.730828 2.565318 11.385597
v 1.750980 2.534735 11.408601
v 1.730828 2.504153 11.385597
v 1.771133 2.504153 11.431604
v 1.771133 2.565318 11.431604
v 1.666618 2.561482 11.312303
v 1.835342 2.561482 11.504899
v 1.675620 2.636151 11.322578
v 1.826341 2.636151 11.494623
v 2.174681 2.729063 10.874883
v 2.037107 2.729063 10.715858
v 2.033666 2.752313 10.711880
v 2.178123 2.752313 10.878860
v 2.140368 2.758407 10.835219
v 2.071420 2.758407 10.755521
v 2.062676 2.702502 10.745414
v 2.149112 2.702502 10.845326
v 2.105894 2.726560 10.795370
v 2.086131 2.696352 10.772525
v 2.105894 2.666145 10.795370
v 2.125658 2.696352 10.818215
v 2.091359 2.718569 10.778568
v 2.105894 2.696352 10.795370
v 2.091359 2.674135 10.778568
v 2.120430 2.674135 10.812172
v 2.120430 2.718569 10.812172
v 2.045046 2.715783 10.725034
v 2.166742 2.715783 10.865706
v 2.051538 2.770026 10.732539
v 2.160249 2.770026 10.858201
v 1.386337 3.341143 9.613547
v 1.004437 3.341143 9.349596
v 0.994884 3.392472 9.342993
v 1.395890 3.392472 9.620150
v 1.291086 3.405927 9.547713
v 1.099688 3.405927 9.415429
v 1.075417 3.282503 9.398654
v 1.315357 3.282503 9.564489
v 1.195387 3.335616 9.481571
v 1.140524 3.268924 9.443653
v 1.195387 3.202233 9.481571
v 1.250250 3.268924 9.519489
v 1.155037 3.317974 9.453683
v 1.195387 3.268924 9.481571
v 1.155037 3.219875 9.453683
v 1.235737 3.219875 9.509459
v 1.235737 3.317974 9.509459
v 1.026475 3.311823 9.364827
v 1.364299 3.311823 9.598315
v 1.044498 3.431578 9.377284
v 1.346275 3.431578 9.585858
v 0.549905 2.638684 6.495759
v 0.177022 2.638684 6.720678
v 0.167695 2.686832 6.726304
v 0.559232 2.686832 6.490133
v 0.456902 2.699453 6.551857
v 0.270024 2.699453 6.664580
v 0.246326 2.583678 6.678874
v 0.480601 2.583678 6.537563
v 0.363463 2.633499 6.608219
v 0.309896 2.570942 6.640530
v 0.363463 2.508384 6.608219
v 0.417031 2.570942 6.575908
v 0.324066 2.616951 6.631983
v 0.363463 2.570942 6.608219
v 0.324066 2.524933 6.631983
v 0.402861 2.524933 6.584455
v 0.402861 2.616951 6.584455
v 0.198540 2.611181 6.707698
v 0.528387 2.611181 6.508739
v 0.216138 2.723514 6.697084
v 0.510789 2.723514 6.519353
v 2.081647 2.232750 8.607127
v 2.316010 2.232750 8.901685
v 2.321872 2.274369 8.909053
v 2.075784 2.274369 8.599759
v 2.140100 2.285279 8.680594
v 2.257556 2.285279 8.828218
v 2.272451 2.185203 8.846938
v 2.125206 2.185203 8.661874
v 2.198828 2.228269 8.754406
v 2.232496 2.174194 8.796721
v 2.198828 2.120119 8.754406
v 2.165160 2.174194 8.712090
v 2.223590 2.213964 8.785527
v 2.198828 2.174194 8.754406
v 2.223590 2.134423 8.785527
v 2.174066 2.134423 8.723285
v 2.174066 2.213964 8.723285
v 2.302485 2.208977 8.884686
v 2.095171 2.208977 8.624125
v 2.291425 2.306078 8.870786
v 2.106231 2.306078 8.638026
v 1.021516 2.959110 9.060243
v 0.716787 2.959110 8.776504
v 0.709165 3.005147 8.769405
v 1.029139 3.005147 9.067341
v 0.945513 3.017215 8.989474
v 0.792791 3.017215 8.847272
v 0.773424 2.906516 8.829239
v 0.964879 2.906516 9.007507
v 0.869152 2.954153 8.918373
v 0.825375 2.894337 8.877612
v 0.869152 2.834522 8.918373
v 0.912928 2.894337 8.959134
v 0.836955 2.938330 8.888394
v 0.869152 2.894337 8.918373
v 0.836955 2.850345 8.888394
v 0.901348 2.850345 8.948352
v 0.901348 2.938330 8.948352
v 0.734372 2.932813 8.792877
v 1.003931 2.932813 9.043869
v 0.748753 3.040221 8.806268
v 0.989550 3.040221 9.030478
v 1.851406 3.756297 9.018564
v 1.996938 3.756297 8.735695
v 2.000579 3.791469 8.728619
v 1.847766 3.791469 9.025640
v 1.887704 3.800689 8.948012
v 1.960641 3.800689 8.806247
v 1.969890 3.716115 8.788269
v 1.878455 3.716115 8.965990
v 1.924172 3.752509 8.877130
v 1.945079 3.706810 8.836493
v 1.924172 3.661112 8.877130
v 1.903266 3.706810 8.917766
v 1.939549 3.740421 8.847242
v 1.924172 3.706810 8.877130
v 1.939549 3.673200 8.847242
v 1.908796 3.673200 8.907017
v 1.908796 3.740421 8.907017
v 1.988540 3.736206 8.752018
v 1.859805 3.736206 9.002241
v 1.981672 3.818266 8.765368
v 1.866673 3.818266 8.988892
v 2.155578 3.266579 7.383568
v 2.442025 3.266579 7.468563
v 2.449190 3.299615 7.470689
v 2.148413 3.299615 7.381442
v 2.227022 3.308275 7.404767
v 2.370581 3.308275 7.447364
v 2.388786 3.228837 7.452765
v 2.208817 3.228837 7.399365
v 2.298802 3.263021 7.426065
v 2.339952 3.220098 7.438275
v 2.298802 3.177175 7.426065
v 2.257652 3.220098 7.413856
v 2.329066 3.251667 7.435046
v 2.298802 3.220098 7.426065
v 2.329066 3.188529 7.435046
v 2.268537 3.188529 7.417085
v 2.268537 3.251667 7.417085
v 2.425495 3.247708 7.463658
v 2.172108 3.247708 7.388473
v 2.411977 3.324784 7.459647
v 2.185627 3.324784 7.392484
v 1.129243 4.293908 5.277790
v 0.900309 4.293908 5.572343
v 0.894582 4.335155 5.579711
v 1.134970 4.335155 5.270422
v 1.072144 4.345968 5.351255
v 0.957408 4.345968 5.498878
v 0.942859 4.246785 5.517598
v 1.086694 4.246785 5.332535
v 1.014776 4.289466 5.425066
v 0.981888 4.235874 5.467381
v 1.014776 4.182281 5.425066
v 1.047664 4.235874 5.382752
v 0.990588 4.275290 5.456188
v 1.014776 4.235874 5.425066
v 0.990588 4.196458 5.456188
v 1.038964 4.196458 5.393945
v 1.038964 4.275290 5.393945
v 0.913520 4.270347 5.555346
v 1.116032 4.270347 5.294787
v 0.924324 4.366581 5.541445
v 1.105228 4.366581 5.308688
v 1.826399 3.668384 4.038097
v 1.867329 3.668384 4.283180
v 1.868353 3.695857 4.289310
v 1.825375 3.695857 4.031966
v 1.836608 3.703059 4.099224
v 1.857121 3.703059 4.222053
v 1.859722 3.636998 4.237629
v 1.834006 3.636998 4.083648
v 1.846864 3.665426 4.160638
v 1.852744 3.629730 4.195846
v 1.846864 3.594035 4.160638
v 1.840984 3.629730 4.125431
v 1.851189 3.655983 4.186533
v 1.846864 3.629730 4.160638
v 1.851189 3.603477 4.186533
v 1.842540 3.603477 4.134744
v 1.842540 3.655983 4.134744
v 1.864968 3.652691 4.269037
v 1.828761 3.652691 4.052240
v 1.863036 3.716789 4.257471
v 1.830693 3.716789 4.063806
v 4.748154 2.256845 9.620257
v 4.546418 2.256845 9.786920
v 4.541371 2.285777 9.791089
v 4.753201 2.285777 9.616088
v 4.697838 2.293361 9.661825
v 4.596734 2.293361 9.745352
v 4.583912 2.223791 9.755944
v 4.710660 2.223791 9.651233
v 4.647286 2.253729 9.703588
v 4.618305 2.216138 9.727530
v 4.647286 2.178546 9.703588
v 4.676267 2.216138 9.679646
v 4.625971 2.243785 9.721197
v 4.647286 2.216138 9.703588
v 4.625971 2.188490 9.721197
v 4.668601 2.188490 9.685980
v 4.668601 2.243785 9.685980
v 4.558060 2.240318 9.777303
v 4.736513 2.240318 9.629875
v 4.567580 2.307820 9.769437
v 4.726992 2.307820 9.637740
v 3.009856 3.955704 10.774853
v 3.299007 3.955704 10.964064
v 3.306240 3.993910 10.968797
v 3.002623 3.993910 10.770120
v 3.081975 4.003926 10.822044
v 3.226889 4.003926 10.916872
v 3.245266 3.912055 10.928897
v 3.063598 3.912055 10.810019
v 3.154432 3.951590 10.869458
v 3.195970 3.901948 10.896640
v 3.154432 3.852306 10.869458
v 3.112893 3.901948 10.842277
v 3.184982 3.938458 10.889449
v 3.154432 3.901948 10.869458
v 3.184982 3.865438 10.889449
v 3.123881 3.865438 10.849467
v 3.123881 3.938458 10.849467
v 3.282321 3.933879 10.953145
v 3.026542 3.933879 10.785771
v 3.268675 4.023019 10.944215
v 3.040188 4.023019 10.794702
v 4.127925 4.159466 10.590556
v 4.298375 4.159466 10.559184
v 4.302639 4.178628 10.558399
v 4.123662 4.178628 10.591341
v 4.170438 4.183651 10.582731
v 4.255862 4.183651 10.567009
v 4.266695 4.137574 10.565015
v 4.159605 4.137574 10.584725
v 4.213150 4.157402 10.574870
v 4.237637 4.132504 10.570363
v 4.213150 4.107607 10.574870
v 4.188663 4.132504 10.579377
v 4.231159 4.150816 10.571555
v 4.213150 4.132504 10.574870
v 4.231159 4.114193 10.571555
v 4.195141 4.114193 10.578185
v 4.195141 4.150816 10.578185
v 4.288539 4.148520 10.560994
v 4.137761 4.148520 10.588746
v 4.280495 4.193228 10.562475
v 4.145805 4.193228 10.587265
v 4.576954 3.690077 11.488823
v 5.144563 3.690077 11.521227
v 5.158761 3.752938 11.522038
v 4.562756 3.752938 11.488012
v 4.718524 3.769416 11.496905
v 5.002993 3.769416 11.513144
v 5.039067 3.618263 11.515203
v 4.682449 3.618263 11.494845
v 4.860758 3.683308 11.505025
v 4.942299 3.601635 11.509680
v 4.860758 3.519961 11.505025
v 4.779217 3.601635 11.500370
v 4.920730 3.661703 11.508449
v 4.860758 3.601635 11.505025
v 4.920730 3.541566 11.508449
v 4.800787 3.541566 11.501601
v 4.800787 3.661703 11.501601
v 5.111808 3.654170 11.519357
v 4.609709 3.654170 11.490693
v 5.085021 3.800830 11.517827
v 4.636496 3.800830 11.492223
v 4.781814 2.882883 8.986780
v 4.442997 2.882883 8.744209
v 4.434522 2.928955 8.738141
v 4.790289 2.928955 8.992848
v 4.697309 2.941033 8.926280
v 4.527503 2.941033 8.804709
v 4.505970 2.830248 8.789293
v 4.718842 2.830248 8.941696
v 4.612406 2.877922 8.865495
v 4.563733 2.818060 8.830647
v 4.612406 2.758198 8.865495
v 4.661079 2.818060 8.900342
v 4.576608 2.862087 8.839866
v 4.612406 2.818060 8.865495
v 4.576608 2.774033 8.839866
v 4.648204 2.774033 8.891124
v 4.648204 2.862087 8.891124
v 4.462550 2.856565 8.758207
v 4.762262 2.856565 8.972782
v 4.478539 2.964057 8.769655
v 4.746272 2.964057 8.961335
v 3.814829 3.916953 8.185024
v 3.876062 3.916953 7.839882
v 3.877594 3.955710 7.831248
v 3.813297 3.955710 8.193658
v 3.830101 3.965869 8.098941
v 3.860790 3.965869 7.925965
v 3.864681 3.872675 7.904030
v 3.826210 3.872675 8.120876
v 3.845445 3.912779 8.012453
v 3.854242 3.862423 7.962871
v 3.845445 3.812067 8.012453
v 3.836649 3.862423 8.062036
v 3.851915 3.899459 7.975987
v 3.845445 3.862423 8.012453
v 3.851915 3.825387 7.975987
v 3.838976 3.825387 8.048920
v 3.838976 3.899459 8.048920
v 3.872528 3.894814 7.859799
v 3.818362 3.894814 8.165107
v 3.869639 3.985238 7.876088
v 3.821252 3.985238 8.148819
v 4.189860 3.582920 9.220062
v 4.489435 3.582920 9.474035
v 4.496928 3.626344 9.480388
v 4.182366 3.626344 9.213710
v 4.264578 3.637727 9.283407
v 4.414716 3.637727 9.410690
v 4.433756 3.533311 9.426831
v 4.245539 3.533311 9.267265
v 4.339647 3.578244 9.347049
v 4.382683 3.521824 9.383533
v 4.339647 3.465404 9.347049
v 4.296611 3.521824 9.310564
v 4.371299 3.563320 9.373882
v 4.339647 3.521824 9.347049
v 4.371299 3.480329 9.373882
v 4.307995 3.480329 9.320215
v 4.307995 3.563320 9.320215
v 4.472147 3.558116 9.459379
v 4.207148 3.558116 9.234718
v 4.458009 3.659428 9.447393
v 4.221285 3.659428 9.246704
v 4.281200 3.558688 6.723920
v 4.109480 3.558688 6.576253
v 4.105185 3.583729 6.572560
v 4.285495 3.583729 6.727614
v 4.238370 3.590293 6.687090
v 4.152310 3.590293 6.613084
v 4.141396 3.530080 6.603699
v 4.249284 3.530080 6.696475
v 4.195340 3.555991 6.650087
v 4.170671 3.523456 6.628873
v 4.195340 3.490921 6.650087
v 4.220009 3.523456 6.671300
v 4.177197 3.547385 6.634485
v 4.195340 3.523456 6.650087
v 4.177197 3.499527 6.634485
v 4.213483 3.499527 6.665689
v 4.213483 3.547385 6.665689
v 4.119390 3.544384 6.584775
v 4.271290 3.544384 6.715399
v 4.127494 3.602807 6.591744
v 4.263186 3.602807 6.708430
v 4.925193 3.346402 8.976043
v 4.783824 3.346402 8.552215
v 4.780288 3.395801 8.541613
v 4.928730 3.395801 8.986645
v 4.889934 3.408750 8.870334
v 4.819084 3.408750 8.657924
v 4.810099 3.289966 8.630987
v 4.898919 3.289966 8.897270
v 4.854509 3.341082 8.764129
v 4.834200 3.276899 8.703243
v 4.854509 3.212715 8.764129
v 4.874817 3.276899 8.825014
v 4.839572 3.324104 8.719349
v 4.854509 3.276899 8.764129
v 4.839572 3.229694 8.719349
v 4.869445 3.229694 8.808908
v 4.869445 3.324104 8.808908
v 4.791982 3.318184 8.576673
v 4.917036 3.318184 8.951585
v 4.798654 3.433437 8.596675
v 4.910364 3.433437 8.931582
v 5.713902 3.405154 8.294568
v 6.126771 3.405154 8.682862
v 6.137099 3.467820 8.692575
v 5.703574 3.467820 8.284855
v 5.816877 3.484247 8.391414
v 6.023796 3.484247 8.586017
v 6.050035 3.333562 8.610694
v 5.790637 3.333562 8.366736
v 5.920336 3.398406 8.488715
v 5.979648 3.316985 8.544497
v 5.920336 3.235564 8.488715
v 5.861025 3.316985 8.432934
v 5.963958 3.376868 8.529740
v 5.920336 3.316985 8.488715
v 5.963958 3.257102 8.529740
v 5.876714 3.257102 8.447690
v 5.876714 3.376868 8.447690
v 6.102946 3.369358 8.660455
v 5.737727 3.369358 8.316976
v 6.083461 3.515564 8.642130
v 5.757212 3.515564 8.335300
v 3.348570 2.777538 6.189613
v 3.429943 2.777538 5.719397
v 3.431978 2.830301 5.707634
v 3.346535 2.830301 6.201375
v 3.368866 2.844132 6.072335
v 3.409647 2.844132 5.836675
v 3.414819 2.717260 5.806791
v 3.363694 2.717260 6.102219
v 3.389256 2.771856 5.954505
v 3.400946 2.703302 5.886955
v 3.389256 2.634748 5.954505
v 3.377567 2.703302 6.022055
v 3.397854 2.753722 5.904824
v 3.389256 2.703302 5.954505
v 3.397854 2.652883 5.904824
v 3.380659 2.652883 6.004186
v 3.380659 2.753722 6.004186
v 3.425247 2.747399 5.746531
v 3.353266 2.747399 6.162478
v 3.421407 2.870499 5.768723
v 3.357106 2.870499 6.140287
v 5.002811 2.213893 6.231082
v 4.570866 2.213893 5.876209
v 4.560061 2.275702 5.867332
v 5.013616 2.275702 6.239959
v 4.895078 2.291905 6.142572
v 4.678599 2.291905 5.964719
v 4.651147 2.143279 5.942166
v 4.922530 2.143279 6.165126
v 4.786839 2.207237 6.053646
v 4.724787 2.126929 6.002666
v 4.786839 2.046621 6.053646
v 4.848890 2.126929 6.104626
v 4.741201 2.185993 6.016151
v 4.786839 2.126929 6.053646
v 4.741201 2.067864 6.016151
v 4.832476 2.067864 6.091140
v 4.832476 2.185993 6.091140
v 4.595792 2.178586 5.896688
v 4.977885 2.178586 6.210604
v 4.616177 2.322793 5.913435
v 4.957500 2.322793 6.193856
v 3.482815 3.197270 5.240761
v 3.392089 3.197270 5.400178
v 3.389820 3.217551 5.404166
v 3.485084 3.217551 5.236774
v 3.460186 3.222867 5.280522
v 3.414717 3.222867 5.360417
v 3.408951 3.174101 5.370549
v 3.465952 3.174101 5.270391
v 3.437452 3.195086 5.320470
v 3.424418 3.168736 5.343371
v 3.437452 3.142386 5.320470
v 3.450485 3.168736 5.297568
v 3.427866 3.188116 5.337313
v 3.437452 3.168736 5.320470
v 3.427866 3.149356 5.337313
v 3.447037 3.149356 5.303627
v 3.447037 3.188116 5.303627
v 3.397325 3.185685 5.390979
v 3.477579 3.185685 5.249961
v 3.401606 3.233002 5.383455
v 3.473297 3.233002 5.257484
v 5.972216 3.482752 6.048873
v 5.481380 3.482752 6.201510
v 5.469101 3.539585 6.205328
v 5.984494 3.539585 6.045055
v 5.849794 3.554484 6.086943
v 5.603801 3.554484 6.163440
v 5.572607 3.417824 6.173141
v 5.880989 3.417824 6.077242
v 5.726798 3.476632 6.125192
v 5.656286 3.402789 6.147119
v 5.726798 3.328947 6.125192
v 5.797309 3.402789 6.103264
v 5.674938 3.457099 6.141319
v 5.726798 3.402789 6.125192
v 5.674938 3.348480 6.141319
v 5.778657 3.348480 6.109065
v 5.778657 3.457099 6.109065
v 5.509704 3.450288 6.192702
v 5.943891 3.450288 6.057682
v 5.532868 3.582885 6.185499
v 5.920727 3.582885 6.064885
v 5.991216 2.752380 8.740436
v 6.090948 2.752380 8.209214
v 6.093443 2.812141 8.195927
v 5.988721 2.812141 8.753723
v 6.016090 2.827807 8.607942
v 6.066073 2.827807 8.341708
v 6.072412 2.684107 8.307947
v 6.009752 2.684107 8.641703
v 6.041082 2.745945 8.474825
v 6.055409 2.668298 8.398511
v 6.041082 2.590652 8.474825
v 6.026755 2.668298 8.551139
v 6.051619 2.725405 8.418698
v 6.041082 2.668298 8.474825
v 6.051619 2.611191 8.418698
v 6.030545 2.611191 8.530951
v 6.030545 2.725405 8.530951
v 6.085193 2.718244 8.239870
v 5.996971 2.718244 8.709780
v 6.080486 2.857672 8.264939
v 6.001678 2.857672 8.684711
v 3.036920 3.553131 -1.958483
v 2.714914 3.553131 -1.984595
v 2.706859 3.588850 -1.985248
v 3.044975 3.588850 -1.957829
v 2.956607 3.598214 -1.964995
v 2.795227 3.598214 -1.978082
v 2.774762 3.512323 -1.979741
v 2.977072 3.512323 -1.963336
v 2.875917 3.549284 -1.971539
v 2.829659 3.502874 -1.975290
v 2.875917 3.456464 -1.971539
v 2.922176 3.502874 -1.967788
v 2.841895 3.537007 -1.974298
v 2.875917 3.502874 -1.971539
v 2.841895 3.468740 -1.974298
v 2.909939 3.468740 -1.968780
v 2.909939 3.537007 -1.968780
v 2.733496 3.532727 -1.983088
v 3.018338 3.532727 -1.959989
v 2.748693 3.616064 -1.981856
v 3.003142 3.616064 -1.961222
v 4.855860 2.696201 -2.214714
v 4.761800 2.696201 -1.738859
v 4.759447 2.749832 -1.726955
v 4.858213 2.749832 -2.226617
v 4.832400 2.763891 -2.096029
v 4.785260 2.763891 -1.857544
v 4.779282 2.634930 -1.827301
v 4.838378 2.634930 -2.126271
v 4.808830 2.690426 -1.976786
v 4.795317 2.620743 -1.908426
v 4.808830 2.551060 -1.976786
v 4.822342 2.620743 -2.045146
v 4.798892 2.671993 -1.926509
v 4.808830 2.620743 -1.976786
v 4.798892 2.569494 -1.926509
v 4.818768 2.569494 -2.027063
v 4.818768 2.671993 -2.027063
v 4.767228 2.665565 -1.766319
v 4.850432 2.665565 -2.187254
v 4.771667 2.790693 -1.788776
v 4.845993 2.790693 -2.164797
v 3.859688 4.022963 -2.214693
v 4.188851 4.022963 -1.922437
v 4.197085 4.071632 -1.915127
v 3.851454 4.071632 -2.222004
v 3.941786 4.084390 -2.141800
v 4.106753 4.084390 -1.995330
v 4.127673 3.967361 -1.976756
v 3.920866 3.967361 -2.160374
v 4.024270 4.017722 -2.068565
v 4.071556 3.954486 -2.026581
v 4.024270 3.891251 -2.068565
v 3.976983 3.954486 -2.110550
v 4.059048 4.000994 -2.037687
v 4.024270 3.954486 -2.068565
v 4.059048 3.907979 -2.037687
v 3.989492 3.907979 -2.099444
v 3.989492 4.000994 -2.099444
v 4.169857 3.995162 -1.939302
v 3.878683 3.995162 -2.197828
v 4.154322 4.108712 -1.953095
v 3.894217 4.108712 -2.184035
v 5.352227 4.328796 0.379567
v 5.453854 4.328796 -0.167411
v 5.456396 4.390308 -0.181094
v 5.349685 4.390308 0.393249
v 5.377574 4.406433 0.243143
v 5.428507 4.406433 -0.030987
v 5.434965 4.258523 -0.065750
v 5.371115 4.258523 0.277906
v 5.403040 4.322173 0.106078
v 5.417640 4.242250 0.027501
v 5.403040 4.162328 0.106078
v 5.388441 4.242250 0.184655
v 5.413778 4.301031 0.048286
v 5.403040 4.242250 0.106078
v 5.413778 4.183470 0.048286
v 5.392303 4.183470 0.163869
v 5.392303 4.301031 0.163869
v 5.447989 4.293659 -0.135847
v 5.358091 4.293659 0.348003
v 5.443193 4.437173 -0.110033
v 5.362888 4.437173 0.322189
v 3.661273 4.510883 -3.145926
v 3.326838 4.510883 -3.024458
v 3.318472 4.550224 -3.021420
v 3.669638 4.550224 -3.148965
v 3.577860 4.560537 -3.115631
v 3.410251 4.560537 -3.054754
v 3.388996 4.465940 -3.047034
v 3.599115 4.465940 -3.123350
v 3.494055 4.506647 -3.085192
v 3.446011 4.455533 -3.067743
v 3.494055 4.404418 -3.085192
v 3.542099 4.455533 -3.102642
v 3.458720 4.493126 -3.072359
v 3.494055 4.455533 -3.085192
v 3.458720 4.417939 -3.072359
v 3.529390 4.417939 -3.098026
v 3.529390 4.493126 -3.098026
v 3.346137 4.488411 -3.031468
v 3.641973 4.488411 -3.138917
v 3.361920 4.580197 -3.037200
v 3.626190 4.580197 -3.133184
vn -0.7945 -0.0000 -0.6072
vn 0.7561 -0.0000 0.6544
vn 0.7561 -0.0000 0.6545
vn -0.4452 -0.0000 0.8954
vn -0.1443 -0.0000 -0.9895
vn 0.3787 -0.0000 -0.9255
vn -0.9568 -0.0000 -0.2909
vn 0.3881 -0.0000 0.9216
vn -0.5738 -0.0000 -0.8190
vn -0.8633 -0.0000 -0.5046
vn 0.5187 -0.0000 0.8550
vn 0.5187 -0.0000 0.8549
vn -0.7522 -0.0000 0.6590
vn -0.7522 -0.0000 0.6589
vn -0.7522 -0.0001 0.6590
vn -0.7563 -0.0000 0.6543
vn -0.7563 -0.0001 0.6543
vn -0.5686 -0.0000 0.8226
vn 0.5165 -0.0000 0.8563
vn 0.7825 -0.0000 -0.6226
vn -0.6815 -0.0000 0.7319
vn -0.8892 -0.0000 -0.4575
vn 0.2845 -0.0000 -0.9587
vn 0.7896 -0.0000 0.6137
vn 0.9863 -0.0000 -0.1647
vn 0.6369 -0.0000 0.7709
vn 0.6369 -0.0000 0.7710
vn 0.5475 -0.0000 -0.8368
vn 0.5476 -0.0000 -0.8368
vn -0.1810 -0.0000 -0.9835
vn -0.1810 -0.0001 -0.9835
vn 0.0570 -0.0000 -0.9984
vn -0.5821 -0.0000 0.8131
vn -0.9846 -0.0000 -0.1747
vn 0.6467 -0.0000 -0.7628
vn -0.6520 -0.0000 0.7582
vn -0.9486 -0.0000 0.3164
vn 0.6851 -0.0000 -0.7285
vn -0.9854 -0.0000 -0.1705
vn -0.6348 -0.0000 0.7727
vn 0.8691 -0.0000 0.4946
vn 0.2969 -0.0000 0.9549
vn 0.2970 -0.0000 0.9549
vn -0.9828 -0.0000 -0.1845
vn -0.0808 -0.0000 0.9967
vn 0.9810 -0.0000 0.1939
vn 0.6639 -0.0000 -0.7478
vn -0.9832 -0.0000 -0.1827
vn 0.3414 -0.0000 0.9399
vt 0.500000 0.697454
vt 0.354778 0.645222
vt 0.500000 0.500000
vt 0.645222 0.645222
vt 0.302546 0.500000
vt 0.354778 0.354778
vt 0.500000 0.302546
vt 0.645222 0.354778
vt 0.697454 0.500000
vt 0.750000 0.848727
vt 1.000000 0.750000
vt 1.000000 1.000000
vt 0.875000 0.924363
vt 0.250000 0.848727
vt 0.000000 0.750000
vt 0.000000 0.625000
vt 0.000000 0.500000
vt 1.000000 0.625000
vt 1.000000 0.500000
vt 0.125000 0.924363
vt 0.000000 1.000000
s 0
usemtl 
f 9/1/1 13/2/1 14/3/1 17/4/1
f 10/5/1 15/6/1 14/3/1 13/2/1
f 11/7/1 16/8/1 14/3/1 15/6/1
f 12/9/1 17/4/1 14/3/1 16/8/1
f 5/10/1 1/11/1 4/12/1 21/13/1
f 6/14/1 2/15/1 18/16/1 13/2/1 9/1/1
f 13/2/1 18/16/1 7/17/1 10/5/1
f 19/18/1 17/4/1 12/9/1 8/19/1
f 2/15/1 6/14/1 20/20/1 3/21/1
f 9/1/1 17/4/1 19/18/1 1/11/1 5/10/1
f 30/1/2 34/2/2 35/3/2 38/4/2
f 31/5/2 36/6/2 35/3/2 34/2/2
f 32/7/2 37/8/2 35/3/2 36/6/2
f 33/9/3 38/4/3 35/3/3 37/8/3
f 26/10/2 22/11/2 25/12/2 42/13/2
f 27/14/2 23/15/2 39/16/2 34/2/2 30/1/2
f 34/2/2 39/16/2 28/17/2 31/5/2
f 40/18/2 38/4/2 33/9/2 29/19/2
f 23/15/2 27/14/2 41/20/2 24/21/2
f 30/1/2 38/4/2 40/18/2 22/11/2 26/10/2
f 51/1/4 55/2/4 56/3/4 59/4/4
f 52/5/4 57/6/4 56/3/4 55/2/4
f 53/7/4 58/8/4 56/3/4 57/6/4
f 54/9/4 59/4/4 56/3/4 58/8/4
f 47/10/4 43/11/4 46/12/4 63/13/4
f 48/14/4 44/15/4 60/16/4 55/2/4 51/1/4
f 55/2/4 60/16/4 49/17/4 52/5/4
f 61/18/4 59/4/4 54/9/4 50/19/4
f 44/15/4 48/14/4 62/20/4 45/21/4
f 51/1/4 59/4/4 61/18/4 43/11/4 47/10/4
f 72/1/5 76/2/5 77/3/5 80/4/5
f 73/5/5 78/6/5 77/3/5 76/2/5
f 74/7/5 79/8/5 77/3/5 78/6/5
f 75/9/5 80/4/5 77/3/5 79/8/5
f 68/10/5 64/11/5 67/12/5 84/13/5
f 69/14/5 65/15/5 81/16/5 76/2/5 72/1/5
f 76/2/5 81/16/5 70/17/5 73/5/5
f 82/18/5 80/4/5 75/9/5 71/19/5
f 65/15/5 69/14/5 83/20/5 66/21/5
f 72/1/5 80/4/5 82/18/5 64/11/5 68/10/5
f 93/1/6 97/2/6 98/3/6 101/4/6
f 94/5/6 99/6/6 98/3/6 97/2/6
f 95/7/6 100/8/6 98/3/6 99/6/6
f 96/9/6 101/4/6 98/3/6 100/8/6
f 89/10/6 85/11/6 88/12/6 105/13/6
f 90/14/6 86/15/6 102/16/6 97/2/6 93/1/6
f 97/2/6 102/16/6 91/17/6 94/5/6
f 103/18/6 101/4/6 96/9/6 92/19/6
f 86/15/6 90/14/6 104/20/6 87/21/6
f 93/1/6 101/4/6 103/18/6 85/11/6 89/10/6
f 114/1/7 118/2/7 119/3/7 122/4/7
f 115/5/7 120/6/7 119/3/7 118/2/7
f 116/7/7 121/8/7 119/3/7 120/6/7
f 117/9/7 122/4/7 119/3/7 121/8/7
f 110/10/7 106/11/7 109/12/7 126/13/7
f 111/14/7 107/15/7 123/16/7 118/2/7 114/1/7
f 118/2/7 123/16/7 112/17/7 115/5/7
f 124/18/7 122/4/7 117/9/7 113/19/7
f 107/15/7 111/14/7 125/20/7 108/21/7
f 114/1/7 122/4/7 124/18/7 106/11/7 110/10/7
f 135/1/8 139/2/8 140/3/8 143/4/8
f 136/5/8 141/6/8 140/3/8 139/2/8
f 137/7/8 142/8/8 140/3/8 141/6/8
f 138/9/8 143/4/8 140/3/8 142/8/8
f 131/10/8 127/11/8 130/12/8 147/13/8
f 132/14/8 128/15/8 144/16/8 139/2/8 135/1/8
f 139/2/8 144/16/8 133/17/8 136/5/8
f 145/18/8 143/4/8 138/9/8 134/19/8
f 128/15/8 132/14/8 146/20/8 129/21/8
f 135/1/8 143/4/8 145/18/8 127/11/8 131/10/8
f 156/1/9 160/2/9 161/3/9 164/4/9
f 157/5/9 162/6/9 161/3/9 160/2/9
f 158/7/9 163/8/9 161/3/9 162/6/9
f 159/9/9 164/4/9 161/3/9 163/8/9
f 152/10/9 148/11/9 151/12/9 168/13/9
f 153/14/9 149/15/9 165/16/9 160/2/9 156/1/9
f 160/2/9 165/16/9 154/17/9 157/5/9
f 166/18/9 164/4/9 159/9/9 155/19/9
f 149/15/9 153/14/9 167/20/9 150/21/9
f 156/1/9 164/4/9 166/18/9 148/11/9 152/10/9
f 177/1/10 181/2/10 182/3/10 185/4/10
f 178/5/10 183/6/10 182/3/10 181/2/10
f 179/7/10 184/8/10 182/3/10 183/6/10
f 180/9/10 185/4/10 182/3/10 184/8/10
f 173/10/10 169/11/10 172/12/10 189/13/10
f 174/14/10 170/15/10 186/16/10 181/2/10 177/1/10
f 181/2/10 186/16/10 175/17/10 178/5/10
f 187/18/10 185/4/10 180/9/10 176/19/10
f 170/15/10 174/14/10 188/20/10 171/21/10
f 177/1/10 185/4/10 187/18/10 169/11/10 173/10/10
f 198/1/11 202/2/11 203/3/11 206/4/11
f 199/5/12 204/6/12 203/3/12 202/2/12
f 200/7/11 205/8/11 203/3/11 204/6/11
f 201/9/11 206/4/11 203/3/11 205/8/11
f 194/10/11 190/11/11 193/12/11 210/13/11
f 195/14/11 191/15/11 207/16/11 202/2/11 198/1/11
f 202/2/11 207/16/11 196/17/11 199/5/11
f 208/18/11 206/4/11 201/9/11 197/19/11
f 191/15/12 195/14/12 209/20/12 192/21/12
f 198/1/11 206/4/11 208/18/11 190/11/11 194/10/11
f 219/1/13 223/2/13 224/3/13 227/4/13
f 220/5/13 225/6/13 224/3/13 223/2/13
f 221/7/13 226/8/13 224/3/13 225/6/13
f 222/9/13 227/4/13 224/3/13 226/8/13
f 215/10/13 211/11/13 214/12/13 231/13/13
f 216/14/14 212/15/14 228/16/14 223/2/14 219/1/14
f 223/2/13 228/16/13 217/17/13 220/5/13
f 229/18/15 227/4/15 222/9/15 218/19/15
f 212/15/13 216/14/13 230/20/13 213/21/13
f 219/1/13 227/4/13 229/18/13 211/11/13 215/10/13
f 240/1/16 244/2/16 245/3/16 248/4/16
f 241/5/16 246/6/16 245/3/16 244/2/16
f 242/7/16 247/8/16 245/3/16 246/6/16
f 243/9/16 248/4/16 245/3/16 247/8/16
f 236/10/16 232/11/16 235/12/16 252/13/16
f 237/14/16 233/15/16 249/16/16 244/2/16 240/1/16
f 244/2/16 249/16/16 238/17/16 241/5/16
f 250/18/17 248/4/17 243/9/17 239/19/17
f 233/15/16 237/14/16 251/20/16 234/21/16
f 240/1/16 248/4/16 250/18/16 232/11/16 236/10/16
f 261/1/18 265/2/18 266/3/18 269/4/18
f 262/5/18 267/6/18 266/3/18 265/2/18
f 263/7/18 268/8/18 266/3/18 267/6/18
f 264/9/18 269/4/18 266/3/18 268/8/18
f 257/10/18 253/11/18 256/12/18 273/13/18
f 258/14/18 254/15/18 270/16/18 265/2/18 261/1/18
f 265/2/18 270/16/18 259/17/18 262/5/18
f 271/18/18 269/4/18 264/9/18 260/19/18
f 254/15/18 258/14/18 272/20/18 255/21/18
f 261/1/18 269/4/18 271/18/18 253/11/18 257/10/18
f 282/1/19 286/2/19 287/3/19 290/4/19
f 283/5/19 288/6/19 287/3/19 286/2/19
f 284/7/19 289/8/19 287/3/19 288/6/19
f 285/9/19 290/4/19 287/3/19 289/8/19
f 278/10/19 274/11/19 277/12/19 294/13/19
f 279/14/19 275/15/19 291/16/19 286/2/19 282/1/19
f 286/2/19 291/16/19 280/17/19 283/5/19
f 292/18/19 290/4/19 285/9/19 281/19/19
f 275/15/19 279/14/19 293/20/19 276/21/19
f 282/1/19 290/4/19 292/18/19 274/11/19 278/10/19
f 303/1/20 307/2/20 308/3/20 311/4/20
f 304/5/20 309/6/20 308/3/20 307/2/20
f 305/7/20 310/8/20 308/3/20 309/6/20
f 306/9/20 311/4/20 308/3/20 310/8/20
f 299/10/20 295/11/20 298/12/20 315/13/20
f 300/14/20 296/15/20 312/16/20 307/2/20 303/1/20
f 307/2/20 312/16/20 301/17/20 304/5/20
f 313/18/20 311/4/20 306/9/20 302/19/20
f 296/15/20 300/14/20 314/20/20 297/21/20
f 303/1/20 311/4/20 313/18/20 295/11/20 299/10/20
f 324/1/21 328/2/21 329/3/21 332/4/21
f 325/5/21 330/6/21 329/3/21 328/2/21
f 326/7/21 331/8/21 329/3/21 330/6/21
f 327/9/21 332/4/21 329/3/21 331/8/21
f 320/10/21 316/11/21 319/12/21 336/13/21
f 321/14/21 317/15/21 333/16/21 328/2/21 324/1/21
f 328/2/21 333/16/21 322/17/21 325/5/21
f 334/18/21 332/4/21 327/9/21 323/19/21
f 317/15/21 321/14/21 335/20/21 318/21/21
f 324/1/21 332/4/21 334/18/21 316/11/21 320/10/21
f 345/1/22 349/2/22 350/3/22 353/4/22
f 346/5/22 351/6/22 350/3/22 349/2/22
f 347/7/22 352/8/22 350/3/22 351/6/22
f 348/9/22 353/4/22 350/3/22 352/8/22
f 341/10/22 337/11/22 340/12/22 357/13/22
f 342/14/22 338/15/22 354/16/22 349/2/22 345/1/22
f 349/2/22 354/16/22 343/17/22 346/5/22
f 355/18/22 353/4/22 348/9/22 344/19/22
f 338/15/22 342/14/22 356/20/22 339/21/22
f 345/1/22 353/4/22 355/18/22 337/11/22 341/10/22
f 366/1/23 370/2/23 371/3/23 374/4/23
f 367/5/23 372/6/23 371/3/23 370/2/23
f 368/7/23 373/8/23 371/3/23 372/6/23
f 369/9/23 374/4/23 371/3/23 373/8/23
f 362/10/23 358/11/23 361/12/23 378/13/23
f 363/14/23 359/15/23 375/16/23 370/2/23 366/1/23
f 370/2/23 375/16/23 364/17/23 367/5/23
f 376/18/23 374/4/23 369/9/23 365/19/23
f 359/15/23 363/14/23 377/20/23 360/21/23
f 366/1/23 374/4/23 376/18/23 358/11/23 362/10/23
f 387/1/24 391/2/24 392/3/24 395/4/24
f 388/5/24 393/6/24 392/3/24 391/2/24
f 389/7/24 394/8/24 392/3/24 393/6/24
f 390/9/24 395/4/24 392/3/24 394/8/24
f 383/10/24 379/11/24 382/12/24 399/13/24
f 384/14/24 380/15/24 396/16/24 391/2/24 387/1/24
f 391/2/24 396/16/24 385/17/24 388/5/24
f 397/18/24 395/4/24 390/9/24 386/19/24
f 380/15/24 384/14/24 398/20/24 381/21/24
f 387/1/24 395/4/24 397/18/24 379/11/24 383/10/24
f 408/1/25 412/2/25 413/3/25 416/4/25
f 409/5/25 414/6/25 413/3/25 412/2/25
f 410/7/25 415/8/25 413/3/25 414/6/25
f 411/9/25 416/4/25 413/3/25 415/8/25
f 404/10/25 400/11/25 403/12/25 420/13/25
f 405/14/25 401/15/25 417/16/25 412/2/25 408/1/25
f 412/2/25 417/16/25 406/17/25 409/5/25
f 418/18/25 416/4/25 411/9/25 407/19/25
f 401/15/25 405/14/25 419/20/25 402/21/25
f 408/1/25 416/4/25 418/18/25 400/11/25 404/10/25
f 429/1/26 433/2/26 434/3/26 437/4/26
f 430/5/27 435/6/27 434/3/27 433/2/27
f 431/7/26 436/8/26 434/3/26 435/6/26
f 432/9/26 437/4/26 434/3/26 436/8/26
f 425/10/26 421/11/26 424/12/26 441/13/26
f 426/14/26 422/15/26 438/16/26 433/2/26 429/1/26
f 433/2/26 438/16/26 427/17/26 430/5/26
f 439/18/26 437/4/26 432/9/26 428/19/26
f 422/15/26 426/14/26 440/20/26 423/21/26
f 429/1/26 437/4/26 439/18/26 421/11/26 425/10/26
f 450/1/28 454/2/28 455/3/28 458/4/28
f 451/5/29 456/6/29 455/3/29 454/2/29
f 452/7/28 457/8/28 455/3/28 456/6/28
f 453/9/29 458/4/29 455/3/29 457/8/29
f 446/10/29 442/11/29 445/12/29 462/13/29
f 447/14/29 443/15/29 459/16/29 454/2/29 450/1/29
f 454/2/29 459/16/29 448/17/29 451/5/29
f 460/18/29 458/4/29 453/9/29 449/19/29
f 443/15/29 447/14/29 461/20/29 444/21/29
f 450/1/29 458/4/29 460/18/29 442/11/29 446/10/29
f 471/1/30 475/2/30 476/3/30 479/4/30
f 472/5/30 477/6/30 476/3/30 475/2/30
f 473/7/30 478/8/30 476/3/30 477/6/30
f 474/9/30 479/4/30 476/3/30 478/8/30
f 467/10/30 463/11/30 466/12/30 483/13/30
f 468/14/30 464/15/30 480/16/30 475/2/30 471/1/30
f 475/2/30 480/16/30 469/17/30 472/5/30
f 481/18/30 479/4/30 474/9/30 470/19/30
f 464/15/31 468/14/31 482/20/31 465/21/31
f 471/1/31 479/4/31 481/18/31 463/11/31 467/10/31
f 492/1/32 496/2/32 497/3/32 500/4/32
f 493/5/32 498/6/32 497/3/32 496/2/32
f 494/7/32 499/8/32 497/3/32 498/6/32
f 495/9/32 500/4/32 497/3/32 499/8/32
f 488/10/32 484/11/32 487/12/32 504/13/32
f 489/14/32 485/15/32 501/16/32 496/2/32 492/1/32
f 496/2/32 501/16/32 490/17/32 493/5/32
f 502/18/32 500/4/32 495/9/32 491/19/32
f 485/15/32 489/14/32 503/20/32 486/21/32
f 492/1/32 500/4/32 502/18/32 484/11/32 488/10/32
f 513/1/33 517/2/33 518/3/33 521/4/33
f 514/5/33 519/6/33 518/3/33 517/2/33
f 515/7/33 520/8/33 518/3/33 519/6/33
f 516/9/33 521/4/33 518/3/33 520/8/33
f 509/10/33 505/11/33 508/12/33 525/13/33
f 510/14/33 506/15/33 522/16/33 517/2/33 513/1/33
f 517/2/33 522/16/33 511/17/33 514/5/33
f 523/18/33 521/4/33 516/9/33 512/19/33
f 506/15/33 510/14/33 524/20/33 507/21/33
f 513/1/33 521/4/33 523/18/33 505/11/33 509/10/33
f 534/1/34 538/2/34 539/3/34 542/4/34
f 535/5/34 540/6/34 539/3/34 538/2/34
f 536/7/34 541/8/34 539/3/34 540/6/34
f 537/9/34 542/4/34 539/3/34 541/8/34
f 530/10/34 526/11/34 529/12/34 546/13/34
f 531/14/34 527/15/34 543/16/34 538/2/34 534/1/34
f 538/2/34 543/16/34 532/17/34 535/5/34
f 544/18/34 542/4/34 537/9/34 533/19/34
f 527/15/34 531/14/34 545/20/34 528/21/34
f 534/1/34 542/4/34 544/18/34 526/11/34 530/10/34
f 555/1/35 559/2/35 560/3/35 563/4/35
f 556/5/35 561/6/35 560/3/35 559/2/35
f 557/7/35 562/8/35 560/3/35 561/6/35
f 558/9/35 563/4/35 560/3/35 562/8/35
f 551/10/35 547/11/35 550/12/35 567/13/35
f 552/14/35 548/15/35 564/16/35 559/2/35 555/1/35
f 559/2/35 564/16/35 553/17/35 556/5/35
f 565/18/35 563/4/35 558/9/35 554/19/35
f 548/15/35 552/14/35 566/20/35 549/21/35
f 555/1/35 563/4/35 565/18/35 547/11/35 551/10/35
f 576/1/36 580/2/36 581/3/36 584/4/36
f 577/5/36 582/6/36 581/3/36 580/2/36
f 578/7/36 583/8/36 581/3/36 582/6/36
f 579/9/36 584/4/36 581/3/36 583/8/36
f 572/10/36 568/11/36 571/12/36 588/13/36
f 573/14/36 569/15/36 585/16/36 580/2/36 576/1/36
f 580/2/36 585/16/36 574/17/36 577/5/36
f 586/18/36 584/4/36 579/9/36 575/19/36
f 569/15/36 573/14/36 587/20/36 570/21/36
f 576/1/36 584/4/36 586/18/36 568/11/36 572/10/36
f 597/1/37 601/2/37 602/3/37 605/4/37
f 598/5/37 603/6/37 602/3/37 601/2/37
f 599/7/37 604/8/37 602/3/37 603/6/37
f 600/9/37 605/4/37 602/3/37 604/8/37
f 593/10/37 589/11/37 592/12/37 609/13/37
f 594/14/37 590/15/37 606/16/37 601/2/37 597/1/37
f 601/2/37 606/16/37 595/17/37 598/5/37
f 607/18/37 605/4/37 600/9/37 596/19/37
f 590/15/37 594/14/37 608/20/37 591/21/37
f 597/1/37 605/4/37 607/18/37 589/11/37 593/10/37
f 618/1/38 622/2/38 623/3/38 626/4/38
f 619/5/38 624/6/38 623/3/38 622/2/38
f 620/7/38 625/8/38 623/3/38 624/6/38
f 621/9/38 626/4/38 623/3/38 625/8/38
f 614/10/38 610/11/38 613/12/38 630/13/38
f 615/14/38 611/15/38 627/16/38 622/2/38 618/1/38
f 622/2/38 627/16/38 616/17/38 619/5/38
f 628/18/38 626/4/38 621/9/38 617/19/38
f 611/15/38 615/14/38 629/20/38 612/21/38
f 618/1/38 626/4/38 628/18/38 610/11/38 614/10/38
f 639/1/39 643/2/39 644/3/39 647/4/39
f 640/5/39 645/6/39 644/3/39 643/2/39
f 641/7/39 646/8/39 644/3/39 645/6/39
f 642/9/39 647/4/39 644/3/39 646/8/39
f 635/10/39 631/11/39 634/12/39 651/13/39
f 636/14/39 632/15/39 648/16/39 643/2/39 639/1/39
f 643/2/39 648/16/39 637/17/39 640/5/39
f 649/18/39 647/4/39 642/9/39 638/19/39
f 632/15/39 636/14/39 650/20/39 633/21/39
f 639/1/39 647/4/39 649/18/39 631/11/39 635/10/39
f 660/1/40 664/2/40 665/3/40 668/4/40
f 661/5/40 666/6/40 665/3/40 664/2/40
f 662/7/40 667/8/40 665/3/40 666/6/40
f 663/9/40 668/4/40 665/3/40 667/8/40
f 656/10/40 652/11/40 655/12/40 672/13/40
f 657/14/40 653/15/40 669/16/40 664/2/40 660/1/40
f 664/2/40 669/16/40 658/17/40 661/5/40
f 670/18/40 668/4/40 663/9/40 659/19/40
f 653/15/40 657/14/40 671/20/40 654/21/40
f 660/1/40 668/4/40 670/18/40 652/11/40 656/10/40
f 681/1/41 685/2/41 686/3/41 689/4/41
f 682/5/41 687/6/41 686/3/41 685/2/41
f 683/7/41 688/8/41 686/3/41 687/6/41
f 684/9/41 689/4/41 686/3/41 688/8/41
f 677/10/41 673/11/41 676/12/41 693/13/41
f 678/14/41 674/15/41 690/16/41 685/2/41 681/1/41
f 685/2/41 690/16/41 679/17/41 682/5/41
f 691/18/41 689/4/41 684/9/41 680/19/41
f 674/15/41 678/14/41 692/20/41 675/21/41
f 681/1/41 689/4/41 691/18/41 673/11/41 677/10/41
f 702/1/42 706/2/42 707/3/42 710/4/42
f 703/5/43 708/6/43 707/3/43 706/2/43
f 704/7/42 709/8/42 707/3/42 708/6/42
f 705/9/43 710/4/43 707/3/43 709/8/43
f 698/10/43 694/11/43 697/12/43 714/13/43
f 699/14/42 695/15/42 711/16/42 706/2/42 702/1/42
f 706/2/42 711/16/42 700/17/42 703/5/42
f 712/18/42 710/4/42 705/9/42 701/19/42
f 695/15/42 699/14/42 713/20/42 696/21/42
f 702/1/42 710/4/42 712/18/42 694/11/42 698/10/42
f 723/1/44 727/2/44 728/3/44 731/4/44
f 724/5/44 729/6/44 728/3/44 727/2/44
f 725/7/44 730/8/44 728/3/44 729/6/44
f 726/9/44 731/4/44 728/3/44 730/8/44
f 719/10/44 715/11/44 718/12/44 735/13/44
f 720/14/44 716/15/44 732/16/44 727/2/44 723/1/44
f 727/2/44 732/16/44 721/17/44 724/5/44
f 733/18/44 731/4/44 726/9/44 722/19/44
f 716/15/44 720/14/44 734/20/44 717/21/44
f 723/1/44 731/4/44 733/18/44 715/11/44 719/10/44
f 744/1/45 748/2/45 749/3/45 752/4/45
f 745/5/45 750/6/45 749/3/45 748/2/45
f 746/7/45 751/8/45 749/3/45 750/6/45
f 747/9/45 752/4/45 749/3/45 751/8/45
f 740/10/45 736/11/45 739/12/45 756/13/45
f 741/14/45 737/15/45 753/16/45 748/2/45 744/1/45
f 748/2/45 753/16/45 742/17/45 745/5/45
f 754/18/45 752/4/45 747/9/45 743/19/45
f 737/15/45 741/14/45 755/20/45 738/21/45
f 744/1/45 752/4/45 754/18/45 736/11/45 740/10/45
f 765/1/46 769/2/46 770/3/46 773/4/46
f 766/5/46 771/6/46 770/3/46 769/2/46
f 767/7/46 772/8/46 770/3/46 771/6/46
f 768/9/46 773/4/46 770/3/46 772/8/46
f 761/10/46 757/11/46 760/12/46 777/13/46
f 762/14/46 758/15/46 774/16/46 769/2/46 765/1/46
f 769/2/46 774/16/46 763/17/46 766/5/46
f 775/18/46 773/4/46 768/9/46 764/19/46
f 758/15/46 762/14/46 776/20/46 759/21/46
f 765/1/46 773/4/46 775/18/46 757/11/46 761/10/46
f 786/1/47 790/2/47 791/3/47 794/4/47
f 787/5/47 792/6/47 791/3/47 790/2/47
f 788/7/47 793/8/47 791/3/47 792/6/47
f 789/9/47 794/4/47 791/3/47 793/8/47
f 782/10/47 778/11/47 781/12/47 798/13/47
f 783/14/47 779/15/47 795/16/47 790/2/47 786/1/47
f 790/2/47 795/16/47 784/17/47 787/5/47
f 796/18/47 794/4/47 789/9/47 785/19/47
f 779/15/47 783/14/47 797/20/47 780/21/47
f 786/1/47 794/4/47 796/18/47 778/11/47 782/10/47
f 807/1/48 811/2/48 812/3/48 815/4/48
f 808/5/48 813/6/48 812/3/48 811/2/48
f 809/7/48 814/8/48 812/3/48 813/6/48
f 810/9/48 815/4/48 812/3/48 814/8/48
f 803/10/48 799/11/48 802/12/48 819/13/48
f 804/14/48 800/15/48 816/16/48 811/2/48 807/1/48
f 811/2/48 816/16/48 805/17/48 808/5/48
f 817/18/48 815/4/48 810/9/48 806/19/48
f 800/15/48 804/14/48 818/20/48 801/21/48
f 807/1/48 815/4/48 817/18/48 799/11/48 803/10/48
f 828/1/49 832/2/49 833/3/49 836/4/49
f 829/5/49 834/6/49 833/3/49 832/2/49
f 830/7/49 835/8/49 833/3/49 834/6/49
f 831/9/49 836/4/49 833/3/49 835/8/49
f 824/10/49 820/11/49 823/12/49 840/13/49
f 825/14/49 821/15/49 837/16/49 832/2/49 828/1/49
f 832/2/49 837/16/49 826/17/49 829/5/49
f 838/18/49 836/4/49 831/9/49 827/19/49
f 821/15/49 825/14/49 839/20/49 822/21/49
f 828/1/49 836/4/49 838/18/49 820/11/49 824/10/49
