# Blender 5.2.2 LTS
# www.blender.org
mtllib Poles.mtl
o Poles
v -10.406959 0.000000 -3.456254
v -10.406959 5.400000 -3.456254
v -10.156959 0.000000 -3.389267
v -10.156959 5.400000 -3.389267
v -9.973946 0.000000 -3.206254
v -9.973946 5.400000 -3.206254
v -9.906959 0.000000 -2.956254
v -9.906959 5.400000 -2.956254
v -9.973946 0.000000 -2.706254
v -9.973946 5.400000 -2.706254
v -10.156959 0.000000 -2.523242
v -10.156959 5.400000 -2.523242
v -10.406959 0.000000 -2.456254
v -10.406959 5.400000 -2.456254
v -10.656959 0.000000 -2.523242
v -10.656959 5.400000 -2.523242
v -10.839972 0.000000 -2.706254
v -10.839972 5.400000 -2.706254
v -10.906959 0.000000 -2.956254
v -10.906959 5.400000 -2.956254
v -10.839972 0.000000 -3.206254
v -10.839972 5.400000 -3.206254
v -10.656959 0.000000 -3.389267
v -10.656959 5.400000 -3.389267
v -10.406959 5.500000 -3.606254
v -10.081959 5.500000 -3.519171
v -9.844042 5.500000 -3.281254
v -9.756959 5.500000 -2.956254
v -9.844042 5.500000 -2.631254
v -10.081959 5.500000 -2.393337
v -10.406959 5.500000 -2.306254
v -10.731958 5.500000 -2.393337
v -10.969875 5.500000 -2.631254
v -11.056958 5.500000 -2.956254
v -10.969875 5.500000 -3.281254
v -10.731958 5.500000 -3.519171
v -10.406959 5.600000 -3.606254
v -10.081959 5.600000 -3.519171
v -9.844042 5.600000 -3.281254
v -9.756959 5.600000 -2.956254
v -9.844042 5.600000 -2.631254
v -10.081959 5.600000 -2.393337
v -10.406959 5.600000 -2.306254
v -10.731958 5.600000 -2.393337
v -10.969875 5.600000 -2.631254
v -11.056958 5.600000 -2.956254
v -10.969875 5.600000 -3.281254
v -10.731958 5.600000 -3.519171
v -10.406959 5.700000 -3.476254
v -10.146958 5.700000 -3.406587
v -9.956625 5.700000 -3.216254
v -9.886958 5.700000 -2.956254
v -9.956625 5.700000 -2.696254
v -10.146958 5.700000 -2.505921
v -10.406959 5.700000 -2.436254
v -10.666959 5.700000 -2.505921
v -10.857291 5.700000 -2.696254
v -10.926958 5.700000 -2.956254
v -10.857291 5.700000 -3.216254
v -10.666959 5.700000 -3.406587
v -10.406959 6.000000 -3.164254
v -10.302958 6.000000 -3.136388
v -10.226825 6.000000 -3.060254
v -10.198958 6.000000 -2.956254
v -10.226825 6.000000 -2.852254
v -10.302958 6.000000 -2.776121
v -10.406959 6.000000 -2.748254
v -10.510959 6.000000 -2.776121
v -10.587091 6.000000 -2.852254
v -10.614959 6.000000 -2.956254
v -10.587091 6.000000 -3.060254
v -10.510959 6.000000 -3.136388
v -10.406959 5.764766 -3.476254
v -10.406959 5.942590 -3.343374
v -10.406959 5.817773 -3.460075
v -10.406959 5.867532 -3.429686
v -10.406959 5.911063 -3.390363
v -10.213399 5.942590 -3.291510
v -10.146958 5.764766 -3.406587
v -10.189904 5.911063 -3.332204
v -10.170242 5.867532 -3.366258
v -10.155048 5.817773 -3.392576
v -10.071703 5.942590 -3.149814
v -9.956625 5.764766 -3.216254
v -10.031009 5.911063 -3.173309
v -9.996955 5.867532 -3.192970
v -9.970637 5.817773 -3.208164
v -10.019838 5.942590 -2.956254
v -9.886958 5.764766 -2.956254
v -9.972850 5.911063 -2.956254
v -9.933527 5.867532 -2.956254
v -9.903138 5.817773 -2.956254
v -10.071703 5.942590 -2.762694
v -9.956625 5.764766 -2.696254
v -10.031009 5.911063 -2.739200
v -9.996955 5.867532 -2.719538
v -9.970637 5.817773 -2.704344
v -10.213399 5.942590 -2.620999
v -10.146958 5.764766 -2.505921
v -10.189904 5.911063 -2.580305
v -10.170242 5.867532 -2.546251
v -10.155048 5.817773 -2.519933
v -10.406959 5.942590 -2.569134
v -10.406959 5.764766 -2.436254
v -10.406959 5.911063 -2.522145
v -10.406959 5.867532 -2.482823
v -10.406959 5.817773 -2.452434
v -10.600518 5.942590 -2.620999
v -10.666959 5.764766 -2.505921
v -10.624013 5.911063 -2.580305
v -10.643674 5.867532 -2.546251
v -10.658869 5.817773 -2.519933
v -10.742214 5.942590 -2.762694
v -10.857291 5.764766 -2.696254
v -10.782907 5.911063 -2.739200
v -10.816962 5.867532 -2.719538
v -10.843280 5.817773 -2.704344
v -10.794078 5.942590 -2.956254
v -10.926958 5.764766 -2.956254
v -10.841067 5.911063 -2.956254
v -10.880390 5.867532 -2.956254
v -10.910779 5.817773 -2.956254
v -10.742214 5.942590 -3.149814
v -10.857291 5.764766 -3.216254
v -10.782907 5.911063 -3.173309
v -10.816962 5.867532 -3.192970
v -10.843280 5.817773 -3.208164
v -10.600518 5.942590 -3.291510
v -10.666959 5.764766 -3.406587
v -10.624013 5.911063 -3.332204
v -10.643674 5.867532 -3.366258
v -10.658869 5.817773 -3.392576
v -10.406959 0.000000 -11.165404
v -10.406959 5.400000 -11.165404
v -10.156959 0.000000 -11.098417
v -10.156959 5.400000 -11.098417
v -9.973946 0.000000 -10.915404
v -9.973946 5.400000 -10.915404
v -9.906959 0.000000 -10.665404
v -9.906959 5.400000 -10.665404
v -9.973946 0.000000 -10.415404
v -9.973946 5.400000 -10.415404
v -10.156959 0.000000 -10.232392
v -10.156959 5.400000 -10.232392
v -10.406959 0.000000 -10.165404
v -10.406959 5.400000 -10.165404
v -10.656959 0.000000 -10.232392
v -10.656959 5.400000 -10.232392
v -10.839972 0.000000 -10.415404
v -10.839972 5.400000 -10.415404
v -10.906959 0.000000 -10.665404
v -10.906959 5.400000 -10.665404
v -10.839972 0.000000 -10.915404
v -10.839972 5.400000 -10.915404
v -10.656959 0.000000 -11.098417
v -10.656959 5.400000 -11.098417
v -10.406959 5.500000 -11.315404
v -10.081959 5.500000 -11.228321
v -9.844042 5.500000 -10.990404
v -9.756959 5.500000 -10.665404
v -9.844042 5.500000 -10.340405
v -10.081959 5.500000 -10.102488
v -10.406959 5.500000 -10.015405
v -10.731958 5.500000 -10.102488
v -10.969875 5.500000 -10.340405
v -11.056958 5.500000 -10.665404
v -10.969875 5.500000 -10.990404
v -10.731958 5.500000 -11.228321
v -10.406959 5.600000 -11.315404
v -10.081959 5.600000 -11.228321
v -9.844042 5.600000 -10.990404
v -9.756959 5.600000 -10.665404
v -9.844042 5.600000 -10.340405
v -10.081959 5.600000 -10.102488
v -10.406959 5.600000 -10.015405
v -10.731958 5.600000 -10.102488
v -10.969875 5.600000 -10.340405
v -11.056958 5.600000 -10.665404
v -10.969875 5.600000 -10.990404
v -10.731958 5.600000 -11.228321
v -10.406959 5.700000 -11.185405
v -10.146958 5.700000 -11.115738
v -9.956625 5.700000 -10.925405
v -9.886958 5.700000 -10.665404
v -9.956625 5.700000 -10.405404
v -10.146958 5.700000 -10.215072
v -10.406959 5.700000 -10.145405
v -10.666959 5.700000 -10.215072
v -10.857291 5.700000 -10.405404
v -10.926958 5.700000 -10.665404
v -10.857291 5.700000 -10.925405
v -10.666959 5.700000 -11.115738
v -10.406959 6.000000 -10.873405
v -10.302958 6.000000 -10.845538
v -10.226825 6.000000 -10.769404
v -10.198958 6.000000 -10.665404
v -10.226825 6.000000 -10.561404
v -10.302958 6.000000 -10.485271
v -10.406959 6.000000 -10.457404
v -10.510959 6.000000 -10.485271
v -10.587091 6.000000 -10.561404
v -10.614959 6.000000 -10.665404
v -10.587091 6.000000 -10.769404
v -10.510959 6.000000 -10.845538
v -10.406959 5.764766 -11.185405
v -10.406959 5.942590 -11.052525
v -10.406959 5.817773 -11.169225
v -10.406959 5.867532 -11.138836
v -10.406959 5.911063 -11.099513
v -10.213399 5.942590 -11.000660
v -10.146958 5.764766 -11.115738
v -10.189904 5.911063 -11.041353
v -10.170242 5.867532 -11.075408
v -10.155048 5.817773 -11.101726
v -10.071703 5.942590 -10.858965
v -9.956625 5.764766 -10.925405
v -10.031009 5.911063 -10.882459
v -9.996955 5.867532 -10.902121
v -9.970637 5.817773 -10.917315
v -10.019838 5.942590 -10.665404
v -9.886958 5.764766 -10.665404
v -9.972850 5.911063 -10.665404
v -9.933527 5.867532 -10.665404
v -9.903138 5.817773 -10.665404
v -10.071703 5.942590 -10.471845
v -9.956625 5.764766 -10.405404
v -10.031009 5.911063 -10.448350
v -9.996955 5.867532 -10.428689
v -9.970637 5.817773 -10.413494
v -10.213399 5.942590 -10.330149
v -10.146958 5.764766 -10.215072
v -10.189904 5.911063 -10.289455
v -10.170242 5.867532 -10.255401
v -10.155048 5.817773 -10.229083
v -10.406959 5.942590 -10.278285
v -10.406959 5.764766 -10.145405
v -10.406959 5.911063 -10.231296
v -10.406959 5.867532 -10.191973
v -10.406959 5.817773 -10.161584
v -10.600518 5.942590 -10.330149
v -10.666959 5.764766 -10.215072
v -10.624013 5.911063 -10.289455
v -10.643674 5.867532 -10.255401
v -10.658869 5.817773 -10.229083
v -10.742214 5.942590 -10.471845
v -10.857291 5.764766 -10.405404
v -10.782907 5.911063 -10.448350
v -10.816962 5.867532 -10.428689
v -10.843280 5.817773 -10.413494
v -10.794078 5.942590 -10.665404
v -10.926958 5.764766 -10.665404
v -10.841067 5.911063 -10.665404
v -10.880390 5.867532 -10.665404
v -10.910779 5.817773 -10.665404
v -10.742214 5.942590 -10.858965
v -10.857291 5.764766 -10.925405
v -10.782907 5.911063 -10.882459
v -10.816962 5.867532 -10.902121
v -10.843280 5.817773 -10.917315
v -10.600518 5.942590 -11.000660
v -10.666959 5.764766 -11.115738
v -10.624013 5.911063 -11.041353
v -10.643674 5.867532 -11.075408
v -10.658869 5.817773 -11.101726
v 10.593041 0.000000 -3.456254
v 10.593041 5.400000 -3.456254
v 10.843041 0.000000 -3.389267
v 10.843041 5.400000 -3.389267
v 11.026053 0.000000 -3.206254
v 11.026053 5.400000 -3.206254
v 11.093041 0.000000 -2.956254
v 11.093041 5.400000 -2.956254
v 11.026053 0.000000 -2.706254
v 11.026053 5.400000 -2.706254
v 10.843041 0.000000 -2.523242
v 10.843041 5.400000 -2.523242
v 10.593041 0.000000 -2.456254
v 10.593041 5.400000 -2.456254
v 10.343041 0.000000 -2.523242
v 10.343041 5.400000 -2.523242
v 10.160029 0.000000 -2.706254
v 10.160029 5.400000 -2.706254
v 10.093041 0.000000 -2.956254
v 10.093041 5.400000 -2.956254
v 10.160029 0.000000 -3.206254
v 10.160029 5.400000 -3.206254
v 10.343041 0.000000 -3.389267
v 10.343041 5.400000 -3.389267
v 10.593041 5.500000 -3.606254
v 10.918042 5.500000 -3.519171
v 11.155957 5.500000 -3.281254
v 11.243041 5.500000 -2.956254
v 11.155957 5.500000 -2.631254
v 10.918042 5.500000 -2.393337
v 10.593041 5.500000 -2.306254
v 10.268041 5.500000 -2.393337
v 10.030126 5.500000 -2.631254
v 9.943042 5.500000 -2.956254
v 10.030126 5.500000 -3.281254
v 10.268041 5.500000 -3.519171
v 10.593041 5.600000 -3.606254
v 10.918042 5.600000 -3.519171
v 11.155957 5.600000 -3.281254
v 11.243041 5.600000 -2.956254
v 11.155957 5.600000 -2.631254
v 10.918042 5.600000 -2.393337
v 10.593041 5.600000 -2.306254
v 10.268041 5.600000 -2.393337
v 10.030126 5.600000 -2.631254
v 9.943042 5.600000 -2.956254
v 10.030126 5.600000 -3.281254
v 10.268041 5.600000 -3.519171
v 10.593041 5.700000 -3.476254
v 10.853042 5.700000 -3.406587
v 11.043374 5.700000 -3.216254
v 11.113042 5.700000 -2.956254
v 11.043374 5.700000 -2.696254
v 10.853042 5.700000 -2.505921
v 10.593041 5.700000 -2.436254
v 10.333041 5.700000 -2.505921
v 10.142709 5.700000 -2.696254
v 10.073041 5.700000 -2.956254
v 10.142709 5.700000 -3.216254
v 10.333041 5.700000 -3.406587
v 10.593041 6.000000 -3.164254
v 10.697042 6.000000 -3.136388
v 10.773175 6.000000 -3.060254
v 10.801042 6.000000 -2.956254
v 10.773175 6.000000 -2.852254
v 10.697042 6.000000 -2.776121
v 10.593041 6.000000 -2.748254
v 10.489041 6.000000 -2.776121
v 10.412908 6.000000 -2.852254
v 10.385041 6.000000 -2.956254
v 10.412908 6.000000 -3.060254
v 10.489041 6.000000 -3.136388
v 10.593041 5.764766 -3.476254
v 10.593041 5.942590 -3.343374
v 10.593041 5.817773 -3.460075
v 10.593041 5.867532 -3.429686
v 10.593041 5.911063 -3.390363
v 10.786601 5.942590 -3.291510
v 10.853042 5.764766 -3.406587
v 10.810096 5.911063 -3.332204
v 10.829757 5.867532 -3.366258
v 10.844953 5.817773 -3.392576
v 10.928298 5.942590 -3.149814
v 11.043374 5.764766 -3.216254
v 10.968991 5.911063 -3.173309
v 11.003045 5.867532 -3.192970
v 11.029363 5.817773 -3.208164
v 10.980161 5.942590 -2.956254
v 11.113042 5.764766 -2.956254
v 11.027150 5.911063 -2.956254
v 11.066474 5.867532 -2.956254
v 11.096862 5.817773 -2.956254
v 10.928298 5.942590 -2.762694
v 11.043374 5.764766 -2.696254
v 10.968991 5.911063 -2.739200
v 11.003045 5.867532 -2.719538
v 11.029363 5.817773 -2.704344
v 10.786601 5.942590 -2.620999
v 10.853042 5.764766 -2.505921
v 10.810096 5.911063 -2.580305
v 10.829757 5.867532 -2.546251
v 10.844953 5.817773 -2.519933
v 10.593041 5.942590 -2.569134
v 10.593041 5.764766 -2.436254
v 10.593041 5.911063 -2.522145
v 10.593041 5.867532 -2.482823
v 10.593041 5.817773 -2.452434
v 10.399482 5.942590 -2.620999
v 10.333041 5.764766 -2.505921
v 10.375987 5.911063 -2.580305
v 10.356326 5.867532 -2.546251
v 10.341132 5.817773 -2.519933
v 10.257787 5.942590 -2.762694
v 10.142709 5.764766 -2.696254
v 10.217092 5.911063 -2.739200
v 10.183038 5.867532 -2.719538
v 10.156720 5.817773 -2.704344
v 10.205922 5.942590 -2.956254
v 10.073041 5.764766 -2.956254
v 10.158933 5.911063 -2.956254
v 10.119611 5.867532 -2.956254
v 10.089221 5.817773 -2.956254
v 10.257787 5.942590 -3.149814
v 10.142709 5.764766 -3.216254
v 10.217092 5.911063 -3.173309
v 10.183038 5.867532 -3.192970
v 10.156720 5.817773 -3.208164
v 10.399482 5.942590 -3.291510
v 10.333041 5.764766 -3.406587
v 10.375987 5.911063 -3.332204
v 10.356326 5.867532 -3.366258
v 10.341132 5.817773 -3.392576
v 10.593041 0.000000 -11.165404
v 10.593041 5.400000 -11.165404
v 10.843041 0.000000 -11.098417
v 10.843041 5.400000 -11.098417
v 11.026053 0.000000 -10.915404
v 11.026053 5.400000 -10.915404
v 11.093041 0.000000 -10.665404
v 11.093041 5.400000 -10.665404
v 11.026053 0.000000 -10.415404
v 11.026053 5.400000 -10.415404
v 10.843041 0.000000 -10.232392
v 10.843041 5.400000 -10.232392
v 10.593041 0.000000 -10.165404
v 10.593041 5.400000 -10.165404
v 10.343041 0.000000 -10.232392
v 10.343041 5.400000 -10.232392
v 10.160029 0.000000 -10.415404
v 10.160029 5.400000 -10.415404
v 10.093041 0.000000 -10.665404
v 10.093041 5.400000 -10.665404
v 10.160029 0.000000 -10.915404
v 10.160029 5.400000 -10.915404
v 10.343041 0.000000 -11.098417
v 10.343041 5.400000 -11.098417
v 10.593041 5.500000 -11.315404
v 10.918042 5.500000 -11.228321
v 11.155957 5.500000 -10.990404
v 11.243041 5.500000 -10.665404
v 11.155957 5.500000 -10.340405
v 10.918042 5.500000 -10.102488
v 10.593041 5.500000 -10.015405
v 10.268041 5.500000 -10.102488
v 10.030126 5.500000 -10.340405
v 9.943042 5.500000 -10.665404
v 10.030126 5.500000 -10.990404
v 10.268041 5.500000 -11.228321
v 10.593041 5.600000 -11.315404
v 10.918042 5.600000 -11.228321
v 11.155957 5.600000 -10.990404
v 11.243041 5.600000 -10.665404
v 11.155957 5.600000 -10.340405
v 10.918042 5.600000 -10.102488
v 10.593041 5.600000 -10.015405
v 10.268041 5.600000 -10.102488
v 10.030126 5.600000 -10.340405
v 9.943042 5.600000 -10.665404
v 10.030126 5.600000 -10.990404
v 10.268041 5.600000 -11.228321
v 10.593041 5.700000 -11.185405
v 10.853042 5.700000 -11.115738
v 11.043374 5.700000 -10.925405
v 11.113042 5.700000 -10.665404
v 11.043374 5.700000 -10.405404
v 10.853042 5.700000 -10.215072
v 10.593041 5.700000 -10.145405
v 10.333041 5.700000 -10.215072
v 10.142709 5.700000 -10.405404
v 10.073041 5.700000 -10.665404
v 10.142709 5.700000 -10.925405
v 10.333041 5.700000 -11.115738
v 10.593041 6.000000 -10.873405
v 10.697042 6.000000 -10.845538
v 10.773175 6.000000 -10.769404
v 10.801042 6.000000 -10.665404
v 10.773175 6.000000 -10.561404
v 10.697042 6.000000 -10.485271
v 10.593041 6.000000 -10.457404
v 10.489041 6.000000 -10.485271
v 10.412908 6.000000 -10.561404
v 10.385041 6.000000 -10.665404
v 10.412908 6.000000 -10.769404
v 10.489041 6.000000 -10.845538
v 10.593041 5.764766 -11.185405
v 10.593041 5.942590 -11.052525
v 10.593041 5.817773 -11.169225
v 10.593041 5.867532 -11.138836
v 10.593041 5.911063 -11.099513
v 10.786601 5.942590 -11.000660
v 10.853042 5.764766 -11.115738
v 10.810096 5.911063 -11.041353
v 10.829757 5.867532 -11.075408
v 10.844953 5.817773 -11.101726
v 10.928298 5.942590 -10.858965
v 11.043374 5.764766 -10.925405
v 10.968991 5.911063 -10.882459
v 11.003045 5.867532 -10.902121
v 11.029363 5.817773 -10.917315
v 10.980161 5.942590 -10.665404
v 11.113042 5.764766 -10.665404
v 11.027150 5.911063 -10.665404
v 11.066474 5.867532 -10.665404
v 11.096862 5.817773 -10.665404
v 10.928298 5.942590 -10.471845
v 11.043374 5.764766 -10.405404
v 10.968991 5.911063 -10.448350
v 11.003045 5.867532 -10.428689
v 11.029363 5.817773 -10.413494
v 10.786601 5.942590 -10.330149
v 10.853042 5.764766 -10.215072
v 10.810096 5.911063 -10.289455
v 10.829757 5.867532 -10.255401
v 10.844953 5.817773 -10.229083
v 10.593041 5.942590 -10.278285
v 10.593041 5.764766 -10.145405
v 10.593041 5.911063 -10.231296
v 10.593041 5.867532 -10.191973
v 10.593041 5.817773 -10.161584
v 10.399482 5.942590 -10.330149
v 10.333041 5.764766 -10.215072
v 10.375987 5.911063 -10.289455
v 10.356326 5.867532 -10.255401
v 10.341132 5.817773 -10.229083
v 10.257787 5.942590 -10.471845
v 10.142709 5.764766 -10.405404
v 10.217092 5.911063 -10.448350
v 10.183038 5.867532 -10.428689
v 10.156720 5.817773 -10.413494
v 10.205922 5.942590 -10.665404
v 10.073041 5.764766 -10.665404
v 10.158933 5.911063 -10.665404
v 10.119611 5.867532 -10.665404
v 10.089221 5.817773 -10.665404
v 10.257787 5.942590 -10.858965
v 10.142709 5.764766 -10.925405
v 10.217092 5.911063 -10.882459
v 10.183038 5.867532 -10.902121
v 10.156720 5.817773 -10.917315
v 10.399482 5.942590 -11.000660
v 10.333041 5.764766 -11.115738
v 10.375987 5.911063 -11.041353
v 10.356326 5.867532 -11.075408
v 10.341132 5.817773 -11.101726
vn -0.0000 -0.0000 -1.0000
vn 0.5000 -0.0000 -0.8660
vn 0.7071 -0.0000 -0.7071
vn 0.9659 -0.0000 -0.2588
vn 1.0000 -0.0000 -0.0000
vn 0.9659 -0.0000 0.2588
vn 0.7071 -0.0000 0.7071
vn 0.5000 -0.0000 0.8660
vn -0.0000 -0.0000 1.0000
vn -0.5000 -0.0000 0.8660
vn -0.7071 -0.0000 0.7071
vn -0.9659 -0.0000 0.2588
vn -1.0000 -0.0000 -0.0000
vn -0.9659 -0.0000 -0.2588
vn 0.4804 -0.8320 0.2774
vn 0.5547 -0.8320 -0.0000
vn -0.7071 -0.0000 -0.7071
vn -0.5000 -0.0000 -0.8660
vn -0.0000 -1.0000 -0.0000
vn -0.0000 -0.8321 -0.5547
vn -0.2774 -0.8321 -0.4804
vn 0.2774 -0.8321 -0.4804
vn 0.2773 -0.8321 -0.4804
vn 0.4804 -0.8320 -0.2774
vn -0.4804 -0.8320 -0.2774
vn -0.5547 -0.8321 -0.0000
vn -0.4804 -0.8321 0.2774
vn -0.2774 -0.8321 0.4804
vn -0.0000 -0.8321 0.5547
vn 0.2774 -0.8321 0.4804
vn 0.6097 0.7926 -0.0000
vn 0.5280 0.7926 -0.3049
vn -0.5280 0.7926 -0.3049
vn -0.6097 0.7926 -0.0000
vn -0.3049 0.7926 0.5280
vn -0.0000 0.7926 0.6097
vn 0.5280 0.7926 0.3049
vn -0.3049 0.7926 -0.5280
vn 0.3049 0.7926 -0.5280
vn -0.0000 0.7926 -0.6097
vn -0.5280 0.7926 0.3049
vn 0.3049 0.7926 0.5280
vn 0.0897 0.9838 -0.1553
vn -0.0000 0.9838 -0.1794
vn -0.0897 0.9838 -0.1553
vn -0.1553 0.9838 -0.0897
vn -0.1794 0.9838 -0.0000
vn -0.1553 0.9838 0.0897
vn -0.0897 0.9838 0.1553
vn -0.0000 0.9838 0.1794
vn 0.0897 0.9838 0.1553
vn 0.1553 0.9838 0.0897
vn 0.1794 0.9838 -0.0000
vn 0.1553 0.9838 -0.0897
vn 0.4948 0.1442 -0.8570
vn -0.0000 0.1442 -0.9896
vn -0.0000 0.4023 -0.9155
vn 0.4578 0.4023 -0.7929
vn -0.0000 0.5911 -0.8066
vn 0.4033 0.5911 -0.6985
vn -0.0000 0.7461 -0.6658
vn 0.3329 0.7461 -0.5766
vn -0.0000 0.8910 -0.4540
vn 0.2270 0.8910 -0.3931
vn 0.8570 0.1442 -0.4948
vn 0.7929 0.4023 -0.4578
vn 0.6985 0.5911 -0.4033
vn 0.5766 0.7461 -0.3329
vn 0.3931 0.8910 -0.2270
vn 0.9896 0.1442 -0.0000
vn 0.9155 0.4023 -0.0000
vn 0.8066 0.5911 -0.0000
vn 0.6658 0.7461 -0.0000
vn 0.4540 0.8910 -0.0000
vn 0.8570 0.1442 0.4948
vn 0.7929 0.4023 0.4578
vn 0.6985 0.5911 0.4033
vn 0.5766 0.7461 0.3329
vn 0.3931 0.8910 0.2270
vn 0.4948 0.1442 0.8570
vn 0.4578 0.4023 0.7929
vn 0.4033 0.5911 0.6985
vn 0.3329 0.7461 0.5766
vn 0.2270 0.8910 0.3931
vn -0.0000 0.1442 0.9896
vn -0.0000 0.4023 0.9155
vn -0.0000 0.5911 0.8066
vn -0.0000 0.7461 0.6658
vn -0.0000 0.8910 0.4540
vn -0.4948 0.1442 0.8570
vn -0.4578 0.4023 0.7929
vn -0.4033 0.5911 0.6985
vn -0.3329 0.7461 0.5766
vn -0.2270 0.8910 0.3931
vn -0.8570 0.1442 0.4948
vn -0.7929 0.4023 0.4578
vn -0.6985 0.5911 0.4033
vn -0.5766 0.7461 0.3329
vn -0.3931 0.8910 0.2270
vn -0.9896 0.1442 -0.0000
vn -0.9155 0.4023 -0.0000
vn -0.8066 0.5911 -0.0000
vn -0.6658 0.7461 -0.0000
vn -0.4540 0.8910 -0.0000
vn -0.8570 0.1442 -0.4948
vn -0.7929 0.4023 -0.4578
vn -0.6985 0.5911 -0.4033
vn -0.5766 0.7461 -0.3329
vn -0.3931 0.8910 -0.2270
vn -0.4948 0.1442 -0.8570
vn -0.4578 0.4023 -0.7929
vn -0.4033 0.5911 -0.6985
vn -0.3329 0.7461 -0.5766
vn -0.2270 0.8910 -0.3931
vn 0.2588 -0.0000 -0.9659
vn -0.2588 -0.0000 -0.9659
vn 0.8660 -0.0000 0.5000
vn 0.2588 -0.0000 0.9659
vn -0.2588 -0.0000 0.9659
vn -0.8660 -0.0000 0.5000
vn -0.8660 -0.0000 -0.5000
vn 0.4804 -0.8321 0.2774
vn 0.5547 -0.8321 -0.0000
vn -0.2773 -0.8321 -0.4804
vn 0.4804 -0.8321 -0.2774
vn -0.4804 -0.8321 -0.2773
vn -0.5547 -0.8320 -0.0000
vn -0.2773 -0.8321 0.4804
vn 0.2773 -0.8321 0.4804
vn 0.8660 -0.0000 -0.5000
vn 0.4804 -0.8320 0.2773
vn 0.4804 -0.8321 -0.2773
vn -0.4804 -0.8321 0.2773
vn -0.4539 0.8910 -0.0000
vn 0.4804 -0.8321 0.2773
vn -0.0000 -0.8320 -0.5547
vn -0.0000 0.1441 0.9896
vt 1.000000 0.500000
vt 1.000000 1.000000
vt 0.916667 1.000000
vt 0.916667 0.500000
vt 0.833333 1.000000
vt 0.833333 0.500000
vt 0.750000 1.000000
vt 0.750000 0.500000
vt 0.666667 1.000000
vt 0.666667 0.500000
vt 0.583333 1.000000
vt 0.583333 0.500000
vt 0.500000 1.000000
vt 0.500000 0.500000
vt 0.416667 1.000000
vt 0.416667 0.500000
vt 0.333333 1.000000
vt 0.333333 0.500000
vt 0.250000 1.000000
vt 0.250000 0.500000
vt 0.166667 1.000000
vt 0.166667 0.500000
vt 0.083333 1.000000
vt 0.083333 0.500000
vt 0.000000 1.000000
vt 0.000000 0.500000
vt 0.750000 0.490000
vt 0.870000 0.457846
vt 0.957846 0.370000
vt 0.990000 0.250000
vt 0.957846 0.130000
vt 0.870000 0.042154
vt 0.750000 0.010000
vt 0.630000 0.042154
vt 0.542154 0.130000
vt 0.510000 0.250000
vt 0.542154 0.370000
vt 0.630000 0.457846
vt 0.998704 1.000000
vt 0.916667 1.000000
vt 0.996269 1.000000
vt 0.916667 1.000000
vt 0.999490 1.000000
vt 0.750000 1.000000
vt 0.750000 1.000000
vt 0.666667 1.000000
vt 0.583333 1.000000
vt 0.416667 1.000000
vt 0.416667 1.000000
vt 0.333333 1.000000
vt 0.250000 1.000000
vt 0.166667 1.000000
vt 0.083333 1.000000
vt 0.083333 1.000000
vt 0.001297 1.000000
vt 0.003732 1.000000
vt 0.000510 1.000000
s 1
f 1/1/1 2/2/1 4/3/2 3/4/2
f 3/4/2 4/3/2 6/5/3 5/6/3
f 5/6/4 6/5/4 8/7/5 7/8/5
f 7/8/5 8/7/5 10/9/6 9/10/6
f 9/10/7 10/9/7 12/11/8 11/12/8
f 11/12/8 12/11/8 14/13/9 13/14/9
f 13/14/9 14/13/9 16/15/10 15/16/10
f 15/16/10 16/15/10 18/17/11 17/18/11
f 17/18/12 18/17/12 20/19/13 19/20/13
f 19/20/13 20/19/13 22/21/14 21/22/14
f 10/9/15 8/7/16 28/7/16 29/9/15
f 21/22/17 22/21/17 24/23/18 23/24/18
f 23/24/18 24/23/18 2/25/1 1/26/1
f 1/27/19 3/28/19 5/29/19 7/30/19 9/31/19 11/32/19 13/33/19 15/34/19 17/35/19 19/36/19 21/37/19 23/38/19
f 2/25/20 24/23/21 36/23/21 25/25/20
f 4/3/22 2/2/20 25/2/20 26/3/23
f 8/7/16 6/5/24 27/5/24 28/7/16
f 24/23/21 22/21/25 35/21/25 36/23/21
f 6/5/24 4/3/22 26/3/23 27/5/24
f 22/21/25 20/19/26 34/19/26 35/21/25
f 20/19/26 18/17/27 33/17/27 34/19/26
f 18/17/27 16/15/28 32/15/28 33/17/27
f 16/15/28 14/13/29 31/13/29 32/15/28
f 14/13/29 12/11/30 30/11/30 31/13/29
f 12/11/30 10/9/15 29/9/15 30/11/30
f 35/21/14 34/19/13 46/19/13 47/21/14
f 32/15/10 31/13/9 43/13/9 44/15/10
f 29/9/6 28/7/5 40/7/5 41/9/6
f 36/23/18 35/21/17 47/21/17 48/23/18
f 26/3/2 25/2/1 37/2/1 38/3/2
f 33/17/11 32/15/10 44/15/10 45/17/11
f 30/11/8 29/9/7 41/9/7 42/11/8
f 25/25/1 36/23/18 48/23/18 37/25/1
f 27/5/3 26/3/2 38/3/2 39/5/3
f 34/19/13 33/17/12 45/17/12 46/19/13
f 31/13/9 30/11/8 42/11/8 43/13/9
f 28/7/5 27/5/4 39/5/4 40/7/5
f 40/7/31 39/5/32 51/5/32 52/7/31
f 47/21/33 46/19/34 58/19/34 59/21/33
f 44/15/35 43/13/36 55/13/36 56/15/35
f 41/9/37 40/7/31 52/7/31 53/9/37
f 48/23/38 47/21/33 59/21/33 60/23/38
f 38/3/39 37/2/40 49/2/40 50/3/39
f 45/17/41 44/15/35 56/15/35 57/17/41
f 42/11/42 41/9/37 53/9/37 54/11/42
f 37/25/40 48/23/38 60/23/38 49/25/40
f 39/5/32 38/3/39 50/3/39 51/5/32
f 46/19/34 45/17/41 57/17/41 58/19/34
f 43/13/36 42/11/42 54/11/42 55/13/36
f 62/3/43 61/25/44 72/23/45 71/21/46 70/19/47 69/17/48 68/15/49 67/13/50 66/11/51 65/9/52 64/7/53 63/5/54
f 79/3/55 73/2/56 75/39/57 82/40/58
f 82/40/58 75/39/57 76/41/59 81/42/60
f 81/42/60 76/41/59 77/43/61 80/42/62
f 80/42/62 77/43/61 74/2/63 78/3/64
f 84/5/65 79/3/55 82/40/58 87/5/66
f 87/5/66 82/40/58 81/42/60 86/5/67
f 86/5/67 81/42/60 80/42/62 85/5/68
f 85/5/68 80/42/62 78/3/64 83/5/69
f 89/44/70 84/5/65 87/5/66 92/44/71
f 92/44/71 87/5/66 86/5/67 91/7/72
f 91/7/72 86/5/67 85/5/68 90/44/73
f 90/44/73 85/5/68 83/5/69 88/45/74
f 94/9/75 89/44/70 92/44/71 97/9/76
f 97/9/76 92/44/71 91/7/72 96/9/77
f 96/9/77 91/7/72 90/44/73 95/46/78
f 95/46/78 90/44/73 88/45/74 93/9/79
f 99/11/80 94/9/75 97/9/76 102/11/81
f 102/11/81 97/9/76 96/9/77 101/11/82
f 101/11/82 96/9/77 95/46/78 100/47/83
f 100/47/83 95/46/78 93/9/79 98/11/84
f 104/13/85 99/11/80 102/11/81 107/13/86
f 107/13/86 102/11/81 101/11/82 106/13/87
f 106/13/87 101/11/82 100/47/83 105/13/88
f 105/13/88 100/47/83 98/11/84 103/13/89
f 109/48/90 104/13/85 107/13/86 112/49/91
f 112/49/91 107/13/86 106/13/87 111/15/92
f 111/15/92 106/13/87 105/13/88 110/15/93
f 110/15/93 105/13/88 103/13/89 108/15/94
f 114/17/95 109/48/90 112/49/91 117/17/96
f 117/17/96 112/49/91 111/15/92 116/17/97
f 116/17/97 111/15/92 110/15/93 115/50/98
f 115/50/98 110/15/93 108/15/94 113/17/99
f 119/19/100 114/17/95 117/17/96 122/19/101
f 122/19/101 117/17/96 116/17/97 121/19/102
f 121/19/102 116/17/97 115/50/98 120/51/103
f 120/51/103 115/50/98 113/17/99 118/19/104
f 124/21/105 119/19/100 122/19/101 127/21/106
f 127/21/106 122/19/101 121/19/102 126/21/107
f 126/21/107 121/19/102 120/51/103 125/52/108
f 125/52/108 120/51/103 118/19/104 123/21/109
f 129/23/110 124/21/105 127/21/106 132/53/111
f 132/53/111 127/21/106 126/21/107 131/54/112
f 131/54/112 126/21/107 125/52/108 130/54/113
f 130/54/113 125/52/108 123/21/109 128/23/114
f 73/25/56 129/23/110 132/53/111 75/55/57
f 75/55/57 132/53/111 131/54/112 76/56/59
f 76/56/59 131/54/112 130/54/113 77/57/61
f 77/57/61 130/54/113 128/23/114 74/25/63
f 78/3/64 74/2/63 61/2/44 62/3/43
f 50/3/2 49/2/115 73/2/56 79/3/55
f 74/25/63 128/23/114 72/23/45 61/25/44
f 49/25/116 60/23/116 129/23/110 73/25/56
f 51/5/3 50/3/2 79/3/55 84/5/65
f 83/5/69 78/3/64 62/3/43 63/5/54
f 52/7/4 51/5/4 84/5/65 89/44/70
f 88/45/74 83/5/69 63/5/54 64/7/53
f 53/9/117 52/7/6 89/44/70 94/9/75
f 93/9/79 88/45/74 64/7/53 65/9/52
f 54/11/7 53/9/117 94/9/75 99/11/80
f 98/11/84 93/9/79 65/9/52 66/11/51
f 55/13/9 54/11/118 99/11/80 104/13/85
f 103/13/89 98/11/84 66/11/51 67/13/50
f 56/15/119 55/13/9 104/13/85 109/48/90
f 108/15/94 103/13/89 67/13/50 68/15/49
f 57/17/120 56/15/11 109/48/90 114/17/95
f 113/17/99 108/15/94 68/15/49 69/17/48
f 58/19/12 57/17/120 114/17/95 119/19/100
f 118/19/104 113/17/99 69/17/48 70/19/47
f 59/21/121 58/19/14 119/19/100 124/21/105
f 123/21/109 118/19/104 70/19/47 71/21/46
f 60/23/17 59/21/121 124/21/105 129/23/110
f 128/23/114 123/21/109 71/21/46 72/23/45
f 133/1/1 134/2/1 136/3/115 135/4/115
f 135/4/3 136/3/3 138/5/3 137/6/3
f 137/6/4 138/5/4 140/7/5 139/8/5
f 139/8/5 140/7/5 142/9/6 141/10/6
f 141/10/7 142/9/7 144/11/8 143/12/8
f 143/12/8 144/11/8 146/13/118 145/14/118
f 145/14/119 146/13/119 148/15/10 147/16/10
f 147/16/10 148/15/10 150/17/11 149/18/11
f 149/18/12 150/17/12 152/19/13 151/20/13
f 151/20/13 152/19/13 154/21/14 153/22/14
f 142/9/122 140/7/123 160/7/123 161/9/122
f 153/22/17 154/21/17 156/23/17 155/24/17
f 155/24/116 156/23/116 134/25/1 133/26/1
f 133/27/19 135/28/19 137/29/19 139/30/19 141/31/19 143/32/19 145/33/19 147/34/19 149/35/19 151/36/19 153/37/19 155/38/19
f 134/25/20 156/23/124 168/23/124 157/25/20
f 136/3/23 134/2/20 157/2/20 158/3/23
f 140/7/123 138/5/125 159/5/125 160/7/123
f 156/23/124 154/21/126 167/21/126 168/23/124
f 138/5/125 136/3/23 158/3/23 159/5/125
f 154/21/126 152/19/127 166/19/127 167/21/126
f 152/19/127 150/17/27 165/17/27 166/19/127
f 150/17/27 148/15/128 164/15/128 165/17/27
f 148/15/128 146/13/29 163/13/29 164/15/128
f 146/13/29 144/11/30 162/11/129 163/13/29
f 144/11/30 142/9/122 161/9/122 162/11/129
f 167/21/14 166/19/13 178/19/13 179/21/14
f 164/15/119 163/13/9 175/13/9 176/15/119
f 161/9/6 160/7/5 172/7/5 173/9/6
f 168/23/17 167/21/17 179/21/17 180/23/17
f 158/3/115 157/2/1 169/2/1 170/3/115
f 165/17/11 164/15/11 176/15/11 177/17/11
f 162/11/7 161/9/7 173/9/7 174/11/7
f 157/25/1 168/23/116 180/23/116 169/25/1
f 159/5/3 158/3/3 170/3/3 171/5/3
f 166/19/13 165/17/12 177/17/12 178/19/13
f 163/13/9 162/11/118 174/11/118 175/13/9
f 160/7/5 159/5/4 171/5/4 172/7/5
f 172/7/31 171/5/32 183/5/32 184/7/31
f 179/21/33 178/19/34 190/19/34 191/21/33
f 176/15/35 175/13/36 187/13/36 188/15/35
f 173/9/37 172/7/31 184/7/31 185/9/37
f 180/23/38 179/21/33 191/21/33 192/23/38
f 170/3/39 169/2/40 181/2/40 182/3/39
f 177/17/41 176/15/35 188/15/35 189/17/41
f 174/11/42 173/9/37 185/9/37 186/11/42
f 169/25/40 180/23/38 192/23/38 181/25/40
f 171/5/32 170/3/39 182/3/39 183/5/32
f 178/19/34 177/17/41 189/17/41 190/19/34
f 175/13/36 174/11/42 186/11/42 187/13/36
f 194/3/43 193/25/44 204/23/45 203/21/46 202/19/47 201/17/48 200/15/49 199/13/50 198/11/51 197/9/52 196/7/53 195/5/54
f 211/3/55 205/2/56 207/39/57 214/40/58
f 214/40/58 207/39/57 208/41/59 213/42/60
f 213/42/60 208/41/59 209/43/61 212/42/62
f 212/42/62 209/43/61 206/2/63 210/3/64
f 216/5/65 211/3/55 214/40/58 219/5/66
f 219/5/66 214/40/58 213/42/60 218/5/67
f 218/5/67 213/42/60 212/42/62 217/5/68
f 217/5/68 212/42/62 210/3/64 215/5/69
f 221/44/70 216/5/65 219/5/66 224/44/71
f 224/44/71 219/5/66 218/5/67 223/7/72
f 223/7/72 218/5/67 217/5/68 222/44/73
f 222/44/73 217/5/68 215/5/69 220/45/74
f 226/9/75 221/44/70 224/44/71 229/9/76
f 229/9/76 224/44/71 223/7/72 228/9/77
f 228/9/77 223/7/72 222/44/73 227/46/78
f 227/46/78 222/44/73 220/45/74 225/9/79
f 231/11/80 226/9/75 229/9/76 234/11/81
f 234/11/81 229/9/76 228/9/77 233/11/82
f 233/11/82 228/9/77 227/46/78 232/47/83
f 232/47/83 227/46/78 225/9/79 230/11/84
f 236/13/85 231/11/80 234/11/81 239/13/86
f 239/13/86 234/11/81 233/11/82 238/13/87
f 238/13/87 233/11/82 232/47/83 237/13/88
f 237/13/88 232/47/83 230/11/84 235/13/89
f 241/48/90 236/13/85 239/13/86 244/49/91
f 244/49/91 239/13/86 238/13/87 243/15/92
f 243/15/92 238/13/87 237/13/88 242/15/93
f 242/15/93 237/13/88 235/13/89 240/15/94
f 246/17/95 241/48/90 244/49/91 249/17/96
f 249/17/96 244/49/91 243/15/92 248/17/97
f 248/17/97 243/15/92 242/15/93 247/50/98
f 247/50/98 242/15/93 240/15/94 245/17/99
f 251/19/100 246/17/95 249/17/96 254/19/101
f 254/19/101 249/17/96 248/17/97 253/19/102
f 253/19/102 248/17/97 247/50/98 252/51/103
f 252/51/103 247/50/98 245/17/99 250/19/104
f 256/21/105 251/19/100 254/19/101 259/21/106
f 259/21/106 254/19/101 253/19/102 258/21/107
f 258/21/107 253/19/102 252/51/103 257/52/108
f 257/52/108 252/51/103 250/19/104 255/21/109
f 261/23/110 256/21/105 259/21/106 264/53/111
f 264/53/111 259/21/106 258/21/107 263/54/112
f 263/54/112 258/21/107 257/52/108 262/54/113
f 262/54/113 257/52/108 255/21/109 260/23/114
f 205/25/56 261/23/110 264/53/111 207/55/57
f 207/55/57 264/53/111 263/54/112 208/56/59
f 208/56/59 263/54/112 262/54/113 209/57/61
f 209/57/61 262/54/113 260/23/114 206/25/63
f 210/3/64 206/2/63 193/2/44 194/3/43
f 182/3/2 181/2/115 205/2/56 211/3/55
f 206/25/63 260/23/114 204/23/45 193/25/44
f 181/25/116 192/23/116 261/23/110 205/25/56
f 183/5/130 182/3/2 211/3/55 216/5/65
f 215/5/69 210/3/64 194/3/43 195/5/54
f 184/7/4 183/5/130 216/5/65 221/44/70
f 220/45/74 215/5/69 195/5/54 196/7/53
f 185/9/6 184/7/6 221/44/70 226/9/75
f 225/9/79 220/45/74 196/7/53 197/9/52
f 186/11/8 185/9/7 226/9/75 231/11/80
f 230/11/84 225/9/79 197/9/52 198/11/51
f 187/13/118 186/11/8 231/11/80 236/13/85
f 235/13/89 230/11/84 198/11/51 199/13/50
f 188/15/10 187/13/119 236/13/85 241/48/90
f 240/15/94 235/13/89 199/13/50 200/15/49
f 189/17/120 188/15/10 241/48/90 246/17/95
f 245/17/99 240/15/94 200/15/49 201/17/48
f 190/19/12 189/17/120 246/17/95 251/19/100
f 250/19/104 245/17/99 201/17/48 202/19/47
f 191/21/121 190/19/14 251/19/100 256/21/105
f 255/21/109 250/19/104 202/19/47 203/21/46
f 192/23/17 191/21/121 256/21/105 261/23/110
f 260/23/114 255/21/109 203/21/46 204/23/45
f 265/1/1 266/2/1 268/3/115 267/4/115
f 267/4/3 268/3/3 270/5/130 269/6/130
f 269/6/130 270/5/130 272/7/4 271/8/4
f 271/8/6 272/7/6 274/9/117 273/10/117
f 273/10/117 274/9/117 276/11/7 275/12/7
f 275/12/118 276/11/118 278/13/9 277/14/9
f 277/14/9 278/13/9 280/15/119 279/16/119
f 279/16/11 280/15/11 282/17/120 281/18/120
f 281/18/120 282/17/120 284/19/12 283/20/12
f 283/20/14 284/19/14 286/21/121 285/22/121
f 274/9/131 272/7/123 292/7/123 293/9/131
f 285/22/121 286/21/121 288/23/17 287/24/17
f 287/24/116 288/23/116 266/25/1 265/26/1
f 265/27/19 267/28/19 269/29/19 271/30/19 273/31/19 275/32/19 277/33/19 279/34/19 281/35/19 283/36/19 285/37/19 287/38/19
f 266/25/20 288/23/21 300/23/21 289/25/20
f 268/3/23 266/2/20 289/2/20 290/3/22
f 272/7/123 270/5/132 291/5/132 292/7/123
f 288/23/21 286/21/126 299/21/126 300/23/21
f 270/5/132 268/3/23 290/3/22 291/5/132
f 286/21/126 284/19/26 298/19/26 299/21/126
f 284/19/26 282/17/133 297/17/133 298/19/26
f 282/17/133 280/15/28 296/15/28 297/17/133
f 280/15/28 278/13/29 295/13/29 296/15/28
f 278/13/29 276/11/30 294/11/30 295/13/29
f 276/11/30 274/9/131 293/9/131 294/11/30
f 299/21/121 298/19/14 310/19/14 311/21/121
f 296/15/119 295/13/9 307/13/9 308/15/119
f 293/9/117 292/7/6 304/7/6 305/9/117
f 300/23/17 299/21/121 311/21/121 312/23/17
f 290/3/115 289/2/1 301/2/1 302/3/115
f 297/17/120 296/15/11 308/15/11 309/17/120
f 294/11/7 293/9/117 305/9/117 306/11/7
f 289/25/1 300/23/116 312/23/116 301/25/1
f 291/5/130 290/3/3 302/3/3 303/5/130
f 298/19/12 297/17/120 309/17/120 310/19/12
f 295/13/9 294/11/118 306/11/118 307/13/9
f 292/7/4 291/5/130 303/5/130 304/7/4
f 304/7/31 303/5/32 315/5/32 316/7/31
f 311/21/33 310/19/34 322/19/34 323/21/33
f 308/15/35 307/13/36 319/13/36 320/15/35
f 305/9/37 304/7/31 316/7/31 317/9/37
f 312/23/38 311/21/33 323/21/33 324/23/38
f 302/3/39 301/2/40 313/2/40 314/3/39
f 309/17/41 308/15/35 320/15/35 321/17/41
f 306/11/42 305/9/37 317/9/37 318/11/42
f 301/25/40 312/23/38 324/23/38 313/25/40
f 303/5/32 302/3/39 314/3/39 315/5/32
f 310/19/34 309/17/41 321/17/41 322/19/34
f 307/13/36 306/11/42 318/11/42 319/13/36
f 326/3/43 325/25/44 336/23/45 335/21/46 334/19/47 333/17/48 332/15/49 331/13/50 330/11/51 329/9/52 328/7/53 327/5/54
f 343/3/55 337/2/56 339/39/57 346/40/58
f 346/40/58 339/39/57 340/41/59 345/42/60
f 345/42/60 340/41/59 341/43/61 344/42/62
f 344/42/62 341/43/61 338/2/63 342/3/64
f 348/5/65 343/3/55 346/40/58 351/5/66
f 351/5/66 346/40/58 345/42/60 350/5/67
f 350/5/67 345/42/60 344/42/62 349/5/68
f 349/5/68 344/42/62 342/3/64 347/5/69
f 353/44/70 348/5/65 351/5/66 356/44/71
f 356/44/71 351/5/66 350/5/67 355/7/72
f 355/7/72 350/5/67 349/5/68 354/44/73
f 354/44/73 349/5/68 347/5/69 352/45/74
f 358/9/75 353/44/70 356/44/71 361/9/76
f 361/9/76 356/44/71 355/7/72 360/9/77
f 360/9/77 355/7/72 354/44/73 359/46/78
f 359/46/78 354/44/73 352/45/74 357/9/79
f 363/11/80 358/9/75 361/9/76 366/11/81
f 366/11/81 361/9/76 360/9/77 365/11/82
f 365/11/82 360/9/77 359/46/78 364/47/83
f 364/47/83 359/46/78 357/9/79 362/11/84
f 368/13/85 363/11/80 366/11/81 371/13/86
f 371/13/86 366/11/81 365/11/82 370/13/87
f 370/13/87 365/11/82 364/47/83 369/13/88
f 369/13/88 364/47/83 362/11/84 367/13/89
f 373/48/90 368/13/85 371/13/86 376/49/91
f 376/49/91 371/13/86 370/13/87 375/15/92
f 375/15/92 370/13/87 369/13/88 374/15/93
f 374/15/93 369/13/88 367/13/89 372/15/94
f 378/17/95 373/48/90 376/49/91 381/17/96
f 381/17/96 376/49/91 375/15/92 380/17/97
f 380/17/97 375/15/92 374/15/93 379/50/98
f 379/50/98 374/15/93 372/15/94 377/17/99
f 383/19/100 378/17/95 381/17/96 386/19/101
f 386/19/101 381/17/96 380/17/97 385/19/102
f 385/19/102 380/17/97 379/50/98 384/51/103
f 384/51/103 379/50/98 377/17/99 382/19/134
f 388/21/105 383/19/100 386/19/101 391/21/106
f 391/21/106 386/19/101 385/19/102 390/21/107
f 390/21/107 385/19/102 384/51/103 389/52/108
f 389/52/108 384/51/103 382/19/134 387/21/109
f 393/23/110 388/21/105 391/21/106 396/53/111
f 396/53/111 391/21/106 390/21/107 395/54/112
f 395/54/112 390/21/107 389/52/108 394/54/113
f 394/54/113 389/52/108 387/21/109 392/23/114
f 337/25/56 393/23/110 396/53/111 339/55/57
f 339/55/57 396/53/111 395/54/112 340/56/59
f 340/56/59 395/54/112 394/54/113 341/57/61
f 341/57/61 394/54/113 392/23/114 338/25/63
f 342/3/64 338/2/63 325/2/44 326/3/43
f 314/3/115 313/2/115 337/2/56 343/3/55
f 338/25/63 392/23/114 336/23/45 325/25/44
f 313/25/116 324/23/116 393/23/110 337/25/56
f 315/5/130 314/3/3 343/3/55 348/5/65
f 347/5/69 342/3/64 326/3/43 327/5/54
f 316/7/4 315/5/130 348/5/65 353/44/70
f 352/45/74 347/5/69 327/5/54 328/7/53
f 317/9/117 316/7/6 353/44/70 358/9/75
f 357/9/79 352/45/74 328/7/53 329/9/52
f 318/11/7 317/9/117 358/9/75 363/11/80
f 362/11/84 357/9/79 329/9/52 330/11/51
f 319/13/9 318/11/118 363/11/80 368/13/85
f 367/13/89 362/11/84 330/11/51 331/13/50
f 320/15/119 319/13/9 368/13/85 373/48/90
f 372/15/94 367/13/89 331/13/50 332/15/49
f 321/17/120 320/15/11 373/48/90 378/17/95
f 377/17/99 372/15/94 332/15/49 333/17/48
f 322/19/12 321/17/120 378/17/95 383/19/100
f 382/19/134 377/17/99 333/17/48 334/19/47
f 323/21/121 322/19/14 383/19/100 388/21/105
f 387/21/109 382/19/134 334/19/47 335/21/46
f 324/23/17 323/21/121 388/21/105 393/23/110
f 392/23/114 387/21/109 335/21/46 336/23/45
f 397/1/1 398/2/1 400/3/115 399/4/115
f 399/4/3 400/3/3 402/5/130 401/6/130
f 401/6/130 402/5/130 404/7/4 403/8/4
f 403/8/6 404/7/6 406/9/117 405/10/117
f 405/10/117 406/9/117 408/11/8 407/12/8
f 407/12/8 408/11/8 410/13/118 409/14/118
f 409/14/119 410/13/119 412/15/10 411/16/10
f 411/16/10 412/15/10 414/17/120 413/18/120
f 413/18/120 414/17/120 416/19/12 415/20/12
f 415/20/14 416/19/14 418/21/121 417/22/121
f 406/9/135 404/7/123 424/7/123 425/9/135
f 417/22/121 418/21/121 420/23/17 419/24/17
f 419/24/116 420/23/116 398/25/1 397/26/1
f 397/27/19 399/28/19 401/29/19 403/30/19 405/31/19 407/32/19 409/33/19 411/34/19 413/35/19 415/36/19 417/37/19 419/38/19
f 398/25/136 420/23/124 432/23/124 421/25/136
f 400/3/23 398/2/136 421/2/136 422/3/23
f 404/7/123 402/5/132 423/5/132 424/7/123
f 420/23/124 418/21/126 431/21/126 432/23/124
f 402/5/132 400/3/23 422/3/23 423/5/132
f 418/21/126 416/19/26 430/19/26 431/21/126
f 416/19/26 414/17/27 429/17/27 430/19/26
f 414/17/27 412/15/28 428/15/28 429/17/27
f 412/15/28 410/13/29 427/13/29 428/15/28
f 410/13/29 408/11/30 426/11/30 427/13/29
f 408/11/30 406/9/135 425/9/135 426/11/30
f 431/21/121 430/19/14 442/19/14 443/21/121
f 428/15/119 427/13/9 439/13/9 440/15/119
f 425/9/117 424/7/6 436/7/6 437/9/117
f 432/23/17 431/21/121 443/21/121 444/23/17
f 422/3/115 421/2/1 433/2/1 434/3/115
f 429/17/120 428/15/11 440/15/11 441/17/120
f 426/11/7 425/9/117 437/9/117 438/11/7
f 421/25/1 432/23/116 444/23/116 433/25/1
f 423/5/130 422/3/3 434/3/3 435/5/130
f 430/19/12 429/17/120 441/17/120 442/19/12
f 427/13/9 426/11/118 438/11/118 439/13/9
f 424/7/4 423/5/130 435/5/130 436/7/4
f 436/7/31 435/5/32 447/5/32 448/7/31
f 443/21/33 442/19/34 454/19/34 455/21/33
f 440/15/35 439/13/36 451/13/36 452/15/35
f 437/9/37 436/7/31 448/7/31 449/9/37
f 444/23/38 443/21/33 455/21/33 456/23/38
f 434/3/39 433/2/40 445/2/40 446/3/39
f 441/17/41 440/15/35 452/15/35 453/17/41
f 438/11/42 437/9/37 449/9/37 450/11/42
f 433/25/40 444/23/38 456/23/38 445/25/40
f 435/5/32 434/3/39 446/3/39 447/5/32
f 442/19/34 441/17/41 453/17/41 454/19/34
f 439/13/36 438/11/42 450/11/42 451/13/36
f 458/3/43 457/25/44 468/23/45 467/21/46 466/19/47 465/17/48 464/15/49 463/13/50 462/11/51 461/9/52 460/7/53 459/5/54
f 475/3/55 469/2/56 471/39/57 478/40/58
f 478/40/58 471/39/57 472/41/59 477/42/60
f 477/42/60 472/41/59 473/43/61 476/42/62
f 476/42/62 473/43/61 470/2/63 474/3/64
f 480/5/65 475/3/55 478/40/58 483/5/66
f 483/5/66 478/40/58 477/42/60 482/5/67
f 482/5/67 477/42/60 476/42/62 481/5/68
f 481/5/68 476/42/62 474/3/64 479/5/69
f 485/44/70 480/5/65 483/5/66 488/44/71
f 488/44/71 483/5/66 482/5/67 487/7/72
f 487/7/72 482/5/67 481/5/68 486/44/73
f 486/44/73 481/5/68 479/5/69 484/45/74
f 490/9/75 485/44/70 488/44/71 493/9/76
f 493/9/76 488/44/71 487/7/72 492/9/77
f 492/9/77 487/7/72 486/44/73 491/46/78
f 491/46/78 486/44/73 484/45/74 489/9/79
f 495/11/80 490/9/75 493/9/76 498/11/81
f 498/11/81 493/9/76 492/9/77 497/11/82
f 497/11/82 492/9/77 491/46/78 496/47/83
f 496/47/83 491/46/78 489/9/79 494/11/84
f 500/13/137 495/11/80 498/11/81 503/13/86
f 503/13/86 498/11/81 497/11/82 502/13/87
f 502/13/87 497/11/82 496/47/83 501/13/88
f 501/13/88 496/47/83 494/11/84 499/13/89
f 505/48/90 500/13/137 503/13/86 508/49/91
f 508/49/91 503/13/86 502/13/87 507/15/92
f 507/15/92 502/13/87 501/13/88 506/15/93
f 506/15/93 501/13/88 499/13/89 504/15/94
f 510/17/95 505/48/90 508/49/91 513/17/96
f 513/17/96 508/49/91 507/15/92 512/17/97
f 512/17/97 507/15/92 506/15/93 511/50/98
f 511/50/98 506/15/93 504/15/94 509/17/99
f 515/19/100 510/17/95 513/17/96 518/19/101
f 518/19/101 513/17/96 512/17/97 517/19/102
f 517/19/102 512/17/97 511/50/98 516/51/103
f 516/51/103 511/50/98 509/17/99 514/19/104
f 520/21/105 515/19/100 518/19/101 523/21/106
f 523/21/106 518/19/101 517/19/102 522/21/107
f 522/21/107 517/19/102 516/51/103 521/52/108
f 521/52/108 516/51/103 514/19/104 519/21/109
f 525/23/110 520/21/105 523/21/106 528/53/111
f 528/53/111 523/21/106 522/21/107 527/54/112
f 527/54/112 522/21/107 521/52/108 526/54/113
f 526/54/113 521/52/108 519/21/109 524/23/114
f 469/25/56 525/23/110 528/53/111 471/55/57
f 471/55/57 528/53/111 527/54/112 472/56/59
f 472/56/59 527/54/112 526/54/113 473/57/61
f 473/57/61 526/54/113 524/23/114 470/25/63
f 474/3/64 470/2/63 457/2/44 458/3/43
f 446/3/115 445/2/115 469/2/56 475/3/55
f 470/25/63 524/23/114 468/23/45 457/25/44
f 445/25/116 456/23/116 525/23/110 469/25/56
f 447/5/130 446/3/3 475/3/55 480/5/65
f 479/5/69 474/3/64 458/3/43 459/5/54
f 448/7/4 447/5/130 480/5/65 485/44/70
f 484/45/74 479/5/69 459/5/54 460/7/53
f 449/9/117 448/7/6 485/44/70 490/9/75
f 489/9/79 484/45/74 460/7/53 461/9/52
f 450/11/8 449/9/117 490/9/75 495/11/80
f 494/11/84 489/9/79 461/9/52 462/11/51
f 451/13/118 450/11/8 495/11/80 500/13/137
f 499/13/89 494/11/84 462/11/51 463/13/50
f 452/15/10 451/13/119 500/13/137 505/48/90
f 504/15/94 499/13/89 463/13/50 464/15/49
f 453/17/120 452/15/10 505/48/90 510/17/95
f 509/17/99 504/15/94 464/15/49 465/17/48
f 454/19/12 453/17/120 510/17/95 515/19/100
f 514/19/104 509/17/99 465/17/48 466/19/47
f 455/21/121 454/19/14 515/19/100 520/21/105
f 519/21/109 514/19/104 466/19/47 467/21/46
f 456/23/17 455/21/121 520/21/105 525/23/110
f 524/23/114 519/21/109 467/21/46 468/23/45
