# Blender 5.2.2 LTS
# www.blender.org
mtllib Pots.mtl
o Pot
v -6.699007 0.000000 -6.716256
v -7.099007 0.000000 -6.609076
v -7.391828 0.000000 -6.316256
v -7.499007 0.000000 -5.916256
v -7.391828 0.000000 -5.516256
v -7.099007 0.000000 -5.223435
v -6.699007 0.000000 -5.116256
v -6.299007 0.000000 -5.223435
v -6.006186 0.000000 -5.516256
v -5.899007 0.000000 -5.916256
v -6.006186 0.000000 -6.316256
v -6.299007 0.000000 -6.609076
v -6.699007 0.400000 -6.636256
v -7.059007 0.400000 -6.539794
v -7.322545 0.400000 -6.276256
v -7.419007 0.400000 -5.916256
v -7.322545 0.400000 -5.556256
v -7.059007 0.400000 -5.292717
v -6.699007 0.400000 -5.196256
v -6.339007 0.400000 -5.292717
v -6.075469 0.400000 -5.556256
v -5.979007 0.400000 -5.916256
v -6.075469 0.400000 -6.276256
v -6.339007 0.400000 -6.539794
v -6.699007 3.920000 -7.004256
v -7.243008 3.920000 -6.858491
v -7.641243 3.920000 -6.460256
v -7.787007 3.920000 -5.916256
v -7.641243 3.920000 -5.372256
v -7.243008 3.920000 -4.974020
v -6.699007 3.920000 -4.828256
v -6.155007 3.920000 -4.974020
v -5.756772 3.920000 -5.372256
v -5.611008 3.920000 -5.916256
v -5.756772 3.920000 -6.460256
v -6.155007 3.920000 -6.858491
v -7.732322 3.617623 -6.512840
v -7.624693 0.988902 -6.450701
v -7.902051 3.026047 -6.610833
v -7.988280 2.287484 -6.660618
v -7.842057 1.560762 -6.576196
v -5.505839 3.617623 -5.916256
v -5.630117 0.988902 -5.916256
v -5.309853 3.026047 -5.916256
v -5.210283 2.287484 -5.916256
v -5.379127 1.560762 -5.916256
v -6.699007 3.617623 -4.723088
v -6.699007 0.988902 -4.847366
v -6.699007 3.026047 -4.527101
v -6.699007 2.287484 -4.427531
v -6.699007 1.560762 -4.596375
v -6.699007 3.617623 -7.109424
v -6.699007 0.988901 -6.985146
v -6.699007 3.026047 -7.305411
v -6.699007 2.287484 -7.404981
v -6.699007 1.560762 -7.236136
v -7.767897 0.988901 -5.916256
v -7.892176 3.617623 -5.916256
v -8.018888 1.560762 -5.916256
v -8.187732 2.287484 -5.916256
v -8.088162 3.026047 -5.916256
v -5.773321 0.988901 -6.450701
v -5.665693 3.617623 -6.512840
v -5.555957 1.560762 -6.576196
v -5.409734 2.287484 -6.660618
v -5.495964 3.026047 -6.610833
v -6.164562 0.988902 -4.990570
v -6.102424 3.617623 -4.882942
v -6.039067 1.560762 -4.773206
v -5.954645 2.287484 -4.626983
v -6.004430 3.026047 -4.713212
v -7.624693 0.988902 -5.381811
v -7.732322 3.617623 -5.319672
v -7.842057 1.560762 -5.256316
v -7.988280 2.287484 -5.171894
v -7.902051 3.026047 -5.221679
v -6.164562 0.988901 -6.841942
v -6.102424 3.617623 -6.949570
v -6.039067 1.560762 -7.059306
v -5.954645 2.287484 -7.205529
v -6.004430 3.026047 -7.119299
v -7.233452 0.988901 -6.841942
v -7.295591 3.617623 -6.949570
v -7.358948 1.560762 -7.059306
v -7.443370 2.287484 -7.205529
v -7.393585 3.026047 -7.119299
v -5.773321 0.988901 -5.381811
v -5.665693 3.617623 -5.319672
v -5.555957 1.560762 -5.256316
v -5.409734 2.287484 -5.171894
v -5.495964 3.026047 -5.221679
v -7.233452 0.988902 -4.990570
v -7.295591 3.617623 -4.882942
v -7.358948 1.560762 -4.773206
v -7.443369 2.287484 -4.626983
v -7.393585 3.026046 -4.713212
v -6.299007 0.360000 -5.223435
v -6.006186 0.360000 -5.516256
v -7.391828 0.360000 -5.516256
v -7.099007 0.360000 -5.223435
v -6.299007 0.360000 -6.609076
v -6.699007 0.360000 -6.716256
v -7.099007 0.360000 -6.609076
v -7.391828 0.360000 -6.316256
v -5.899007 0.360000 -5.916256
v -6.699007 0.360000 -5.116256
v -7.499007 0.360000 -5.916256
v -6.006186 0.360000 -6.316256
v -6.699008 4.116241 -6.892601
v -7.187181 4.116241 -6.761796
v -7.544547 4.116241 -6.404428
v -7.675353 4.116241 -5.916256
v -7.544547 4.116241 -5.428083
v -7.187181 4.116241 -5.070716
v -6.699008 4.116241 -4.939910
v -6.210835 4.116241 -5.070716
v -5.853468 4.116241 -5.428083
v -5.722662 4.116241 -5.916256
v -5.853468 4.116241 -6.404428
v -6.210835 4.116241 -6.761796
v -6.699007 4.119373 -7.113056
v -6.699007 4.183118 -7.078470
v -6.699007 4.157183 -7.107492
v -7.280114 4.183118 -6.922763
v -7.297407 4.119373 -6.952715
v -7.294625 4.157183 -6.947897
v -7.735467 4.119373 -6.514656
v -7.705515 4.183118 -6.497363
v -7.730648 4.157183 -6.511874
v -7.861222 4.183118 -5.916256
v -7.895807 4.119373 -5.916256
v -7.890244 4.157183 -5.916256
v -7.705515 4.183118 -5.335149
v -7.735467 4.119373 -5.317856
v -7.730648 4.157183 -5.320638
v -7.280114 4.183118 -4.909749
v -7.297407 4.119373 -4.879797
v -7.294625 4.157183 -4.884615
v -6.699007 4.119373 -4.719456
v -6.699007 4.183118 -4.754042
v -6.699007 4.157183 -4.725019
v -6.117900 4.183118 -4.909749
v -6.100607 4.119373 -4.879797
v -6.103389 4.157183 -4.884615
v -5.662548 4.119373 -5.317856
v -5.692500 4.183118 -5.335149
v -5.667366 4.157183 -5.320638
v -5.536793 4.183118 -5.916256
v -5.502208 4.119373 -5.916256
v -5.507771 4.157183 -5.916256
v -5.662548 4.119373 -6.514656
v -5.692500 4.183118 -6.497363
v -5.667366 4.157183 -6.511874
v -6.117900 4.183118 -6.922763
v -6.100607 4.119373 -6.952715
v -6.103389 4.157183 -6.947897
v -6.117340 3.975392 -6.923733
v -6.100607 4.040626 -6.952715
v -6.103299 4.002577 -6.948053
v -5.662548 4.040626 -6.514656
v -5.691531 3.975392 -6.497923
v -5.667211 4.002577 -6.511964
v -5.535674 3.975392 -5.916256
v -5.502208 4.040626 -5.916256
v -5.507591 4.002577 -5.916256
v -5.662548 4.040626 -5.317856
v -5.691531 3.975392 -5.334589
v -5.667211 4.002577 -5.320548
v -6.117340 3.975392 -4.908779
v -6.100607 4.040626 -4.879797
v -6.103299 4.002577 -4.884459
v -6.699007 4.040626 -4.719456
v -6.699007 3.975392 -4.752922
v -6.699007 4.002577 -4.724840
v -7.280674 3.975392 -4.908780
v -7.297407 4.040626 -4.879797
v -7.294716 4.002577 -4.884459
v -7.706484 3.975392 -5.334589
v -7.735467 4.040626 -5.317856
v -7.730804 4.002577 -5.320548
v -7.862341 3.975392 -5.916256
v -7.895807 4.040626 -5.916256
v -7.890424 4.002577 -5.916256
v -7.735467 4.040626 -6.514656
v -7.706484 3.975392 -6.497923
v -7.730804 4.002577 -6.511964
v -7.280674 3.975392 -6.923732
v -7.297407 4.040626 -6.952715
v -7.294716 4.002577 -6.948053
v -6.699007 4.040626 -7.113056
v -6.699007 3.975392 -7.079590
v -6.699007 4.002577 -7.107672
v -6.699007 4.216881 -7.027962
v -6.699007 4.208067 -6.967374
v -6.699007 4.231143 -6.994757
v -7.224566 4.208067 -6.826551
v -7.254860 4.216881 -6.879021
v -7.238258 4.231143 -6.850265
v -7.661773 4.216881 -6.472109
v -7.609303 4.208067 -6.441815
v -7.633017 4.231143 -6.455506
v -7.750125 4.208067 -5.916256
v -7.810713 4.216881 -5.916256
v -7.777508 4.231143 -5.916256
v -7.609303 4.208067 -5.390697
v -7.661773 4.216881 -5.360403
v -7.633017 4.231143 -5.377006
v -7.224566 4.208067 -5.005961
v -7.254860 4.216881 -4.953491
v -7.238258 4.231143 -4.982247
v -6.699007 4.216881 -4.804550
v -6.699007 4.208067 -4.865138
v -6.699007 4.231143 -4.837755
v -6.173449 4.208067 -5.005961
v -6.143154 4.216881 -4.953491
v -6.159757 4.231143 -4.982247
v -5.736242 4.216881 -5.360403
v -5.788713 4.208067 -5.390697
v -5.764998 4.231143 -5.377006
v -5.647890 4.208067 -5.916256
v -5.587301 4.216881 -5.916256
v -5.620506 4.231143 -5.916256
v -5.736242 4.216881 -6.472109
v -5.788713 4.208067 -6.441815
v -5.764998 4.231143 -6.455506
v -6.173449 4.208067 -6.826551
v -6.143154 4.216881 -6.879021
v -6.159757 4.231143 -6.850265
v 6.699007 0.000000 -6.716256
v 7.099007 0.000000 -6.609076
v 7.391828 0.000000 -6.316256
v 7.499007 0.000000 -5.916256
v 7.391828 0.000000 -5.516256
v 7.099007 0.000000 -5.223435
v 6.699007 0.000000 -5.116256
v 6.299007 0.000000 -5.223435
v 6.006186 0.000000 -5.516256
v 5.899007 0.000000 -5.916256
v 6.006186 0.000000 -6.316256
v 6.299007 0.000000 -6.609076
v 6.699007 0.400000 -6.636256
v 7.059007 0.400000 -6.539794
v 7.322545 0.400000 -6.276256
v 7.419007 0.400000 -5.916256
v 7.322545 0.400000 -5.556256
v 7.059007 0.400000 -5.292717
v 6.699007 0.400000 -5.196256
v 6.339007 0.400000 -5.292717
v 6.075469 0.400000 -5.556256
v 5.979007 0.400000 -5.916256
v 6.075469 0.400000 -6.276256
v 6.339007 0.400000 -6.539794
v 6.699007 3.920000 -7.004256
v 7.243008 3.920000 -6.858491
v 7.641243 3.920000 -6.460256
v 7.787007 3.920000 -5.916256
v 7.641243 3.920000 -5.372256
v 7.243008 3.920000 -4.974020
v 6.699007 3.920000 -4.828256
v 6.155007 3.920000 -4.974020
v 5.756772 3.920000 -5.372256
v 5.611008 3.920000 -5.916256
v 5.756772 3.920000 -6.460256
v 6.155007 3.920000 -6.858491
v 7.732322 3.617623 -6.512840
v 7.624693 0.988902 -6.450701
v 7.902051 3.026047 -6.610833
v 7.988280 2.287484 -6.660618
v 7.842057 1.560762 -6.576196
v 5.505839 3.617623 -5.916256
v 5.630117 0.988902 -5.916256
v 5.309853 3.026047 -5.916256
v 5.210283 2.287484 -5.916256
v 5.379127 1.560762 -5.916256
v 6.699007 3.617623 -4.723088
v 6.699007 0.988902 -4.847366
v 6.699007 3.026047 -4.527101
v 6.699007 2.287484 -4.427531
v 6.699007 1.560762 -4.596375
v 6.699007 3.617623 -7.109424
v 6.699007 0.988901 -6.985146
v 6.699007 3.026047 -7.305411
v 6.699007 2.287484 -7.404981
v 6.699007 1.560762 -7.236136
v 7.767897 0.988901 -5.916256
v 7.892176 3.617623 -5.916256
v 8.018888 1.560762 -5.916256
v 8.187732 2.287484 -5.916256
v 8.088162 3.026047 -5.916256
v 5.773321 0.988901 -6.450701
v 5.665693 3.617623 -6.512840
v 5.555957 1.560762 -6.576196
v 5.409734 2.287484 -6.660618
v 5.495964 3.026047 -6.610833
v 6.164562 0.988902 -4.990570
v 6.102424 3.617623 -4.882942
v 6.039067 1.560762 -4.773206
v 5.954645 2.287484 -4.626983
v 6.004430 3.026047 -4.713212
v 7.624693 0.988902 -5.381811
v 7.732322 3.617623 -5.319672
v 7.842057 1.560762 -5.256316
v 7.988280 2.287484 -5.171894
v 7.902051 3.026047 -5.221679
v 6.164562 0.988901 -6.841942
v 6.102424 3.617623 -6.949570
v 6.039067 1.560762 -7.059306
v 5.954645 2.287484 -7.205529
v 6.004430 3.026047 -7.119299
v 7.233452 0.988901 -6.841942
v 7.295591 3.617623 -6.949570
v 7.358948 1.560762 -7.059306
v 7.443370 2.287484 -7.205529
v 7.393585 3.026047 -7.119299
v 5.773321 0.988901 -5.381811
v 5.665693 3.617623 -5.319672
v 5.555957 1.560762 -5.256316
v 5.409734 2.287484 -5.171894
v 5.495964 3.026047 -5.221679
v 7.233452 0.988902 -4.990570
v 7.295591 3.617623 -4.882942
v 7.358948 1.560762 -4.773206
v 7.443369 2.287484 -4.626983
v 7.393585 3.026046 -4.713212
v 6.299007 0.360000 -5.223435
v 6.006186 0.360000 -5.516256
v 7.391828 0.360000 -5.516256
v 7.099007 0.360000 -5.223435
v 6.299007 0.360000 -6.609076
v 6.699007 0.360000 -6.716256
v 7.099007 0.360000 -6.609076
v 7.391828 0.360000 -6.316256
v 5.899007 0.360000 -5.916256
v 6.699007 0.360000 -5.116256
v 7.499007 0.360000 -5.916256
v 6.006186 0.360000 -6.316256
v 6.699008 4.116241 -6.892601
v 7.187181 4.116241 -6.761796
v 7.544547 4.116241 -6.404428
v 7.675353 4.116241 -5.916256
v 7.544547 4.116241 -5.428083
v 7.187181 4.116241 -5.070716
v 6.699008 4.116241 -4.939910
v 6.210835 4.116241 -5.070716
v 5.853468 4.116241 -5.428083
v 5.722662 4.116241 -5.916256
v 5.853468 4.116241 -6.404428
v 6.210835 4.116241 -6.761796
v 6.699007 4.119373 -7.113056
v 6.699007 4.183118 -7.078470
v 6.699007 4.157183 -7.107492
v 7.280114 4.183118 -6.922763
v 7.297407 4.119373 -6.952715
v 7.294625 4.157183 -6.947897
v 7.735467 4.119373 -6.514656
v 7.705515 4.183118 -6.497363
v 7.730648 4.157183 -6.511874
v 7.861222 4.183118 -5.916256
v 7.895807 4.119373 -5.916256
v 7.890244 4.157183 -5.916256
v 7.705515 4.183118 -5.335149
v 7.735467 4.119373 -5.317856
v 7.730648 4.157183 -5.320638
v 7.280114 4.183118 -4.909749
v 7.297407 4.119373 -4.879797
v 7.294625 4.157183 -4.884615
v 6.699007 4.119373 -4.719456
v 6.699007 4.183118 -4.754042
v 6.699007 4.157183 -4.725019
v 6.117900 4.183118 -4.909749
v 6.100607 4.119373 -4.879797
v 6.103389 4.157183 -4.884615
v 5.662548 4.119373 -5.317856
v 5.692500 4.183118 -5.335149
v 5.667366 4.157183 -5.320638
v 5.536793 4.183118 -5.916256
v 5.502208 4.119373 -5.916256
v 5.507771 4.157183 -5.916256
v 5.662548 4.119373 -6.514656
v 5.692500 4.183118 -6.497363
v 5.667366 4.157183 -6.511874
v 6.117900 4.183118 -6.922763
v 6.100607 4.119373 -6.952715
v 6.103389 4.157183 -6.947897
v 6.117340 3.975392 -6.923733
v 6.100607 4.040626 -6.952715
v 6.103299 4.002577 -6.948053
v 5.662548 4.040626 -6.514656
v 5.691531 3.975392 -6.497923
v 5.667211 4.002577 -6.511964
v 5.535674 3.975392 -5.916256
v 5.502208 4.040626 -5.916256
v 5.507591 4.002577 -5.916256
v 5.662548 4.040626 -5.317856
v 5.691531 3.975392 -5.334589
v 5.667211 4.002577 -5.320548
v 6.117340 3.975392 -4.908779
v 6.100607 4.040626 -4.879797
v 6.103299 4.002577 -4.884459
v 6.699007 4.040626 -4.719456
v 6.699007 3.975392 -4.752922
v 6.699007 4.002577 -4.724840
v 7.280674 3.975392 -4.908780
v 7.297407 4.040626 -4.879797
v 7.294716 4.002577 -4.884459
v 7.706484 3.975392 -5.334589
v 7.735467 4.040626 -5.317856
v 7.730804 4.002577 -5.320548
v 7.862341 3.975392 -5.916256
v 7.895807 4.040626 -5.916256
v 7.890424 4.002577 -5.916256
v 7.735467 4.040626 -6.514656
v 7.706484 3.975392 -6.497923
v 7.730804 4.002577 -6.511964
v 7.280674 3.975392 -6.923732
v 7.297407 4.040626 -6.952715
v 7.294716 4.002577 -6.948053
v 6.699007 4.040626 -7.113056
v 6.699007 3.975392 -7.079590
v 6.699007 4.002577 -7.107672
v 6.699007 4.216881 -7.027962
v 6.699007 4.208067 -6.967374
v 6.699007 4.231143 -6.994757
v 7.224566 4.208067 -6.826551
v 7.254860 4.216881 -6.879021
v 7.238258 4.231143 -6.850265
v 7.661773 4.216881 -6.472109
v 7.609303 4.208067 -6.441815
v 7.633017 4.231143 -6.455506
v 7.750125 4.208067 -5.916256
v 7.810713 4.216881 -5.916256
v 7.777508 4.231143 -5.916256
v 7.609303 4.208067 -5.390697
v 7.661773 4.216881 -5.360403
v 7.633017 4.231143 -5.377006
v 7.224566 4.208067 -5.005961
v 7.254860 4.216881 -4.953491
v 7.238258 4.231143 -4.982247
v 6.699007 4.216881 -4.804550
v 6.699007 4.208067 -4.865138
v 6.699007 4.231143 -4.837755
v 6.173449 4.208067 -5.005961
v 6.143154 4.216881 -4.953491
v 6.159757 4.231143 -4.982247
v 5.736242 4.216881 -5.360403
v 5.788713 4.208067 -5.390697
v 5.764998 4.231143 -5.377006
v 5.647890 4.208067 -5.916256
v 5.587301 4.216881 -5.916256
v 5.620506 4.231143 -5.916256
v 5.736242 4.216881 -6.472109
v 5.788713 4.208067 -6.441815
v 5.764998 4.231143 -6.455506
v 6.173449 4.208067 -6.826551
v 6.143154 4.216881 -6.879021
v 6.159757 4.231143 -6.850265
vn -0.3873 -0.8944 -0.2236
vn -0.2236 -0.8944 -0.3873
vn 0.2236 -0.8944 -0.3873
vn 0.3873 -0.8944 -0.2236
vn -0.0000 -0.8944 0.4472
vn -0.2236 -0.8944 0.3873
vn 0.3873 -0.8944 0.2236
vn 0.2236 -0.8944 0.3873
vn -0.4472 -0.8944 -0.0000
vn -0.0000 -0.8944 -0.4472
vn 0.4472 -0.8944 -0.0000
vn -0.3873 -0.8944 0.2236
vn 0.4735 -0.3211 -0.8202
vn -0.0000 -0.3211 -0.9470
vn -0.0000 -0.2217 -0.9751
vn 0.4876 -0.2217 -0.8445
vn -0.0000 0.0458 -0.9990
vn 0.4995 0.0458 -0.8651
vn -0.0000 0.3110 -0.9504
vn 0.4752 0.3110 -0.8231
vn -0.0000 0.4526 -0.8917
vn 0.4459 0.4526 -0.7722
vn -0.8202 -0.3211 -0.4735
vn -0.9470 -0.3211 -0.0000
vn -0.9751 -0.2217 -0.0000
vn -0.8445 -0.2217 -0.4876
vn -0.9990 0.0458 -0.0000
vn -0.8651 0.0458 -0.4995
vn -0.9504 0.3110 -0.0000
vn -0.8231 0.3110 -0.4752
vn -0.8917 0.4526 -0.0000
vn -0.7722 0.4526 -0.4459
vn 0.4735 -0.3211 0.8202
vn 0.8202 -0.3211 0.4735
vn 0.8445 -0.2217 0.4876
vn 0.4876 -0.2217 0.8445
vn 0.8651 0.0458 0.4995
vn 0.4995 0.0458 0.8651
vn 0.8231 0.3110 0.4752
vn 0.4752 0.3110 0.8231
vn 0.7722 0.4526 0.4459
vn 0.4459 0.4526 0.7722
vn -0.4735 -0.3211 0.8202
vn -0.0000 -0.3211 0.9470
vn -0.0000 -0.2217 0.9751
vn -0.4876 -0.2217 0.8445
vn -0.0000 0.0458 0.9990
vn -0.4995 0.0458 0.8651
vn -0.0000 0.3110 0.9504
vn -0.4752 0.3110 0.8231
vn -0.0000 0.4526 0.8917
vn -0.4459 0.4526 0.7722
vn 0.8202 -0.3211 -0.4735
vn 0.8445 -0.2217 -0.4876
vn 0.8651 0.0458 -0.4995
vn 0.8231 0.3110 -0.4752
vn 0.7722 0.4526 -0.4459
vn -0.4735 -0.3211 -0.8202
vn -0.4876 -0.2217 -0.8445
vn -0.4995 0.0458 -0.8651
vn -0.4752 0.3110 -0.8231
vn -0.4459 0.4526 -0.7722
vn -0.8202 -0.3211 0.4735
vn -0.8445 -0.2217 0.4876
vn -0.8651 0.0458 0.4995
vn -0.8231 0.3110 0.4752
vn -0.7722 0.4526 0.4459
vn 0.9470 -0.3211 -0.0000
vn 0.9751 -0.2217 -0.0000
vn 0.9990 0.0458 -0.0000
vn 0.9504 0.3110 -0.0000
vn 0.8917 0.4526 -0.0000
vn 0.8180 -0.3285 0.4723
vn 0.9445 -0.3285 -0.0000
vn 0.7451 0.5097 0.4302
vn 0.4302 0.5097 0.7451
vn 0.4723 -0.3285 0.8180
vn 0.8603 0.5097 -0.0000
vn -0.9445 -0.3285 -0.0000
vn -0.8180 -0.3285 0.4723
vn -0.8603 0.5097 -0.0000
vn -0.7451 0.5097 -0.4302
vn -0.8180 -0.3285 -0.4723
vn -0.7451 0.5097 0.4302
vn -0.0000 -0.3285 -0.9445
vn -0.4723 -0.3285 -0.8180
vn -0.0000 0.5097 -0.8603
vn 0.4302 0.5097 -0.7451
vn 0.4723 -0.3285 -0.8180
vn -0.4302 0.5097 -0.7451
vn -0.0000 -0.3285 0.9445
vn -0.0000 0.5097 0.8603
vn -0.4302 0.5097 0.7451
vn -0.4723 -0.3285 0.8180
vn 0.8180 -0.3285 -0.4723
vn 0.7451 0.5097 -0.4302
vn 0.5000 -0.0000 0.8660
vn 0.2588 -0.0000 0.9659
vn -0.5000 -0.0000 0.8660
vn -0.7071 -0.0000 0.7071
vn 0.9659 -0.0000 -0.2588
vn 1.0000 -0.0000 -0.0000
vn -0.5000 -0.0000 -0.8660
vn -0.2588 -0.0000 -0.9659
vn -0.9659 -0.0000 0.2588
vn -1.0000 -0.0000 -0.0000
vn 0.9659 -0.0000 0.2588
vn 0.2588 -0.0000 -0.9659
vn 0.5000 -0.0000 -0.8660
vn -0.9659 -0.0000 -0.2588
vn 0.7071 -0.0000 0.7071
vn -0.2588 -0.0000 0.9659
vn 0.7071 -0.0000 -0.7071
vn -0.7071 -0.0000 -0.7071
vn -0.0000 -1.0000 -0.0000
vn -0.0000 0.7583 0.6519
vn -0.3259 0.7583 0.5645
vn -0.3478 0.7185 0.6023
vn -0.0000 0.7185 0.6955
vn -0.0000 0.1401 0.9901
vn -0.4951 0.1401 0.8575
vn -0.4988 0.0694 0.8639
vn -0.0000 0.0694 0.9976
vn -0.5645 0.7583 0.3259
vn -0.6519 0.7583 -0.0000
vn -0.6955 0.7185 -0.0000
vn -0.6023 0.7185 0.3478
vn -0.8575 0.1401 0.4951
vn -0.9901 0.1401 -0.0000
vn -0.9976 0.0694 -0.0000
vn -0.8639 0.0694 0.4988
vn -0.5645 0.7583 -0.3259
vn -0.3259 0.7583 -0.5645
vn -0.3478 0.7185 -0.6023
vn -0.6023 0.7185 -0.3478
vn -0.8575 0.1401 -0.4951
vn -0.4951 0.1401 -0.8575
vn -0.4988 0.0694 -0.8639
vn -0.8639 0.0694 -0.4988
vn -0.0000 0.7583 -0.6519
vn 0.3259 0.7583 -0.5645
vn 0.3478 0.7185 -0.6023
vn -0.0000 0.7185 -0.6955
vn -0.0000 0.1401 -0.9901
vn 0.4951 0.1401 -0.8575
vn 0.4988 0.0694 -0.8639
vn -0.0000 0.0694 -0.9976
vn 0.5645 0.7583 -0.3259
vn 0.6023 0.7185 -0.3478
vn 0.8575 0.1401 -0.4951
vn 0.8639 0.0694 -0.4988
vn 0.6519 0.7583 -0.0000
vn 0.6955 0.7185 -0.0000
vn 0.9901 0.1401 -0.0000
vn 0.9976 0.0694 -0.0000
vn 0.5645 0.7583 0.3259
vn 0.3259 0.7583 0.5645
vn 0.3478 0.7185 0.6023
vn 0.6023 0.7185 0.3478
vn 0.8575 0.1401 0.4951
vn 0.4951 0.1401 0.8575
vn 0.4988 0.0694 0.8639
vn 0.8639 0.0694 0.4988
vn 0.9974 -0.0721 -0.0000
vn 0.8638 -0.0721 0.4987
vn 0.8568 -0.1456 0.4947
vn 0.9893 -0.1456 -0.0000
vn 0.6663 -0.7456 -0.0000
vn 0.5771 -0.7456 0.3332
vn 0.5367 -0.7848 0.3098
vn 0.6197 -0.7848 -0.0000
vn -0.4987 -0.0721 -0.8638
vn -0.0000 -0.0721 -0.9974
vn -0.0000 -0.1456 -0.9893
vn -0.4947 -0.1456 -0.8568
vn -0.3332 -0.7456 -0.5771
vn -0.0000 -0.7456 -0.6663
vn -0.0000 -0.7848 -0.6197
vn -0.3098 -0.7849 -0.5367
vn -0.9974 -0.0721 -0.0000
vn -0.8638 -0.0721 -0.4987
vn -0.8568 -0.1456 -0.4947
vn -0.9893 -0.1456 -0.0000
vn -0.6663 -0.7457 -0.0000
vn -0.5771 -0.7457 -0.3332
vn -0.5367 -0.7849 -0.3098
vn -0.6197 -0.7849 -0.0000
vn -0.4987 -0.0721 0.8638
vn -0.8638 -0.0721 0.4987
vn -0.8568 -0.1456 0.4947
vn -0.4947 -0.1456 0.8568
vn -0.3332 -0.7457 0.5771
vn -0.5771 -0.7457 0.3332
vn -0.5367 -0.7849 0.3098
vn -0.3098 -0.7849 0.5367
vn 0.4987 -0.0721 0.8638
vn -0.0000 -0.0721 0.9974
vn -0.0000 -0.1456 0.9893
vn 0.4947 -0.1456 0.8568
vn 0.3332 -0.7456 0.5771
vn -0.0000 -0.7456 0.6663
vn -0.0000 -0.7849 0.6197
vn 0.3098 -0.7849 0.5367
vn 0.8638 -0.0721 -0.4987
vn 0.8568 -0.1456 -0.4947
vn 0.5771 -0.7456 -0.3332
vn 0.5367 -0.7848 -0.3098
vn 0.4987 -0.0721 -0.8638
vn 0.4947 -0.1456 -0.8568
vn 0.3332 -0.7456 -0.5771
vn 0.3098 -0.7848 -0.5367
vn 0.4888 -0.8724 -0.0000
vn 0.4233 -0.8724 0.2444
vn 0.3418 -0.9188 0.1973
vn 0.3947 -0.9188 -0.0000
vn -0.6444 -0.7647 -0.0000
vn -0.5581 -0.7647 -0.3222
vn -0.6108 -0.7089 -0.3526
vn -0.7053 -0.7089 -0.0000
vn -0.2444 -0.8724 -0.4233
vn -0.0000 -0.8724 -0.4888
vn -0.0000 -0.9188 -0.3947
vn -0.1973 -0.9188 -0.3418
vn 0.3222 -0.7647 0.5581
vn -0.0000 -0.7647 0.6444
vn -0.0000 -0.7089 0.7053
vn 0.3526 -0.7089 0.6108
vn -0.4888 -0.8724 -0.0000
vn -0.4233 -0.8724 -0.2444
vn -0.3418 -0.9188 -0.1973
vn -0.3947 -0.9188 -0.0000
vn 0.6444 -0.7647 -0.0000
vn 0.5581 -0.7647 0.3222
vn 0.6108 -0.7089 0.3526
vn 0.7053 -0.7089 -0.0000
vn -0.2444 -0.8724 0.4233
vn -0.4233 -0.8724 0.2444
vn -0.3418 -0.9188 0.1973
vn -0.1973 -0.9188 0.3418
vn 0.3222 -0.7647 -0.5581
vn 0.5581 -0.7647 -0.3222
vn 0.6108 -0.7089 -0.3526
vn 0.3526 -0.7089 -0.6108
vn 0.2444 -0.8724 0.4233
vn -0.0000 -0.8724 0.4888
vn -0.0000 -0.9188 0.3947
vn 0.1973 -0.9188 0.3418
vn -0.3222 -0.7647 -0.5581
vn -0.0000 -0.7647 -0.6444
vn -0.0000 -0.7089 -0.7053
vn -0.3526 -0.7089 -0.6108
vn 0.4233 -0.8724 -0.2444
vn 0.3418 -0.9188 -0.1973
vn -0.5581 -0.7647 0.3222
vn -0.6108 -0.7089 0.3526
vn 0.2444 -0.8724 -0.4233
vn 0.1973 -0.9188 -0.3418
vn -0.3222 -0.7647 0.5581
vn -0.3526 -0.7089 0.6108
vn -0.0000 0.8057 0.5924
vn -0.2962 0.8057 0.5130
vn -0.5130 0.8057 0.2962
vn -0.5924 0.8057 -0.0000
vn -0.5130 0.8057 -0.2962
vn -0.2962 0.8057 -0.5130
vn -0.0000 0.8057 -0.5924
vn 0.2962 0.8057 -0.5130
vn 0.5130 0.8057 -0.2962
vn 0.5924 0.8057 -0.0000
vn 0.5130 0.8057 0.2962
vn 0.2962 0.8057 0.5130
vn -0.0000 -0.6314 -0.7754
vn -0.3877 -0.6314 -0.6715
vn 0.3877 -0.6314 -0.6715
vn -0.6715 -0.6314 -0.3877
vn -0.7754 -0.6314 -0.0000
vn -0.6715 -0.6314 0.3877
vn -0.3877 -0.6314 0.6715
vn -0.0000 -0.6314 0.7754
vn 0.3877 -0.6314 0.6715
vn 0.6715 -0.6314 0.3877
vn 0.7754 -0.6314 -0.0000
vn 0.6715 -0.6314 -0.3877
vn 0.3478 0.7185 0.6024
vn -0.6663 -0.7456 -0.0000
vn -0.6197 -0.7848 -0.0000
vn -0.5367 -0.7848 0.3098
vn -0.5771 -0.7456 0.3332
vn 0.3098 -0.7849 -0.5367
vn 0.6663 -0.7457 -0.0000
vn 0.6197 -0.7849 -0.0000
vn 0.5367 -0.7849 -0.3098
vn 0.5771 -0.7457 -0.3332
vn 0.3332 -0.7457 0.5771
vn 0.5367 -0.7849 0.3098
vn 0.5771 -0.7457 0.3332
vn -0.3332 -0.7456 0.5771
vn -0.5771 -0.7456 -0.3332
vn -0.5367 -0.7848 -0.3098
vn -0.3098 -0.7848 -0.5367
vt 0.000000 0.000000
s 1
f 98/1/1 97/1/2 20/1/2 21/1/1
f 100/1/3 99/1/4 17/1/4 18/1/3
f 102/1/5 101/1/6 24/1/6 13/1/5
f 104/1/7 103/1/8 14/1/8 15/1/7
f 105/1/9 98/1/1 21/1/1 22/1/9
f 106/1/10 100/1/3 18/1/3 19/1/10
f 107/1/11 104/1/7 15/1/7 16/1/11
f 108/1/12 105/1/9 22/1/9 23/1/12
f 97/1/2 106/1/10 19/1/10 20/1/2
f 99/1/4 107/1/11 16/1/11 17/1/4
f 101/1/6 108/1/12 23/1/12 24/1/6
f 103/1/8 102/1/5 13/1/5 14/1/8
f 93/1/13 47/1/14 49/1/15 96/1/16
f 96/1/16 49/1/15 50/1/17 95/1/18
f 95/1/18 50/1/17 51/1/19 94/1/20
f 94/1/20 51/1/19 48/1/21 92/1/22
f 88/1/23 42/1/24 44/1/25 91/1/26
f 91/1/26 44/1/25 45/1/27 90/1/28
f 90/1/28 45/1/27 46/1/29 89/1/30
f 89/1/30 46/1/29 43/1/31 87/1/32
f 83/1/33 37/1/34 39/1/35 86/1/36
f 86/1/36 39/1/35 40/1/37 85/1/38
f 85/1/38 40/1/37 41/1/39 84/1/40
f 84/1/40 41/1/39 38/1/41 82/1/42
f 78/1/43 52/1/44 54/1/45 81/1/46
f 81/1/46 54/1/45 55/1/47 80/1/48
f 80/1/48 55/1/47 56/1/49 79/1/50
f 79/1/50 56/1/49 53/1/51 77/1/52
f 73/1/53 93/1/13 96/1/16 76/1/54
f 76/1/54 96/1/16 95/1/18 75/1/55
f 75/1/55 95/1/18 94/1/20 74/1/56
f 74/1/56 94/1/20 92/1/22 72/1/57
f 68/1/58 88/1/23 91/1/26 71/1/59
f 71/1/59 91/1/26 90/1/28 70/1/60
f 70/1/60 90/1/28 89/1/30 69/1/61
f 69/1/61 89/1/30 87/1/32 67/1/62
f 52/1/44 83/1/33 86/1/36 54/1/45
f 54/1/45 86/1/36 85/1/38 55/1/47
f 55/1/47 85/1/38 84/1/40 56/1/49
f 56/1/49 84/1/40 82/1/42 53/1/51
f 63/1/63 78/1/43 81/1/46 66/1/64
f 66/1/64 81/1/46 80/1/48 65/1/65
f 65/1/65 80/1/48 79/1/50 64/1/66
f 64/1/66 79/1/50 77/1/52 62/1/67
f 58/1/68 73/1/53 76/1/54 61/1/69
f 61/1/69 76/1/54 75/1/55 60/1/70
f 60/1/70 75/1/55 74/1/56 59/1/71
f 59/1/71 74/1/56 72/1/57 57/1/72
f 47/1/14 68/1/58 71/1/59 49/1/15
f 49/1/15 71/1/59 70/1/60 50/1/17
f 50/1/17 70/1/60 69/1/61 51/1/19
f 51/1/19 69/1/61 67/1/62 48/1/21
f 42/1/24 63/1/63 66/1/64 44/1/25
f 44/1/25 66/1/64 65/1/65 45/1/27
f 45/1/27 65/1/65 64/1/66 46/1/29
f 46/1/29 64/1/66 62/1/67 43/1/31
f 37/1/34 58/1/68 61/1/69 39/1/35
f 39/1/35 61/1/69 60/1/70 40/1/37
f 40/1/37 60/1/70 59/1/71 41/1/39
f 41/1/39 59/1/71 57/1/72 38/1/41
f 37/1/34 27/1/73 28/1/74 58/1/68
f 15/1/75 14/1/76 82/1/42 38/1/41
f 26/1/77 27/1/73 37/1/34 83/1/33
f 16/1/78 15/1/75 38/1/41 57/1/72
f 42/1/24 34/1/79 35/1/80 63/1/63
f 22/1/81 21/1/82 87/1/32 43/1/31
f 33/1/83 34/1/79 42/1/24 88/1/23
f 23/1/84 22/1/81 43/1/31 62/1/67
f 47/1/14 31/1/85 32/1/86 68/1/58
f 19/1/87 18/1/88 92/1/22 48/1/21
f 30/1/89 31/1/85 47/1/14 93/1/13
f 20/1/90 19/1/87 48/1/21 67/1/62
f 52/1/44 25/1/91 26/1/77 83/1/33
f 13/1/92 24/1/93 77/1/52 53/1/51
f 36/1/94 25/1/91 52/1/44 78/1/43
f 14/1/76 13/1/92 53/1/51 82/1/42
f 28/1/74 29/1/95 73/1/53 58/1/68
f 17/1/96 16/1/78 57/1/72 72/1/57
f 35/1/80 36/1/94 78/1/43 63/1/63
f 24/1/93 23/1/84 62/1/67 77/1/52
f 32/1/86 33/1/83 88/1/23 68/1/58
f 21/1/82 20/1/90 67/1/62 87/1/32
f 29/1/95 30/1/89 93/1/13 73/1/53
f 18/1/88 17/1/96 72/1/57 92/1/22
f 2/1/97 1/1/98 102/1/98 103/1/97
f 12/1/99 11/1/100 108/1/100 101/1/99
f 5/1/101 4/1/102 107/1/102 99/1/101
f 8/1/103 7/1/104 106/1/104 97/1/103
f 11/1/105 10/1/106 105/1/106 108/1/105
f 4/1/102 3/1/107 104/1/107 107/1/102
f 7/1/108 6/1/109 100/1/109 106/1/108
f 10/1/106 9/1/110 98/1/110 105/1/106
f 3/1/111 2/1/97 103/1/97 104/1/111
f 1/1/112 12/1/99 101/1/99 102/1/112
f 6/1/109 5/1/113 99/1/113 100/1/109
f 9/1/114 8/1/103 97/1/103 98/1/114
f 112/1/115 111/1/115 110/1/115 109/1/115 120/1/115 119/1/115 118/1/115 117/1/115 116/1/115 115/1/115 114/1/115 113/1/115
f 191/1/116 157/1/117 159/1/118 192/1/119
f 192/1/120 159/1/121 158/1/122 190/1/123
f 161/1/124 163/1/125 165/1/126 162/1/127
f 162/1/128 165/1/129 164/1/130 160/1/131
f 167/1/132 169/1/133 171/1/134 168/1/135
f 168/1/136 171/1/137 170/1/138 166/1/139
f 173/1/140 175/1/141 177/1/142 174/1/143
f 174/1/144 177/1/145 176/1/146 172/1/147
f 175/1/141 178/1/148 180/1/149 177/1/142
f 177/1/145 180/1/150 179/1/151 176/1/146
f 178/1/148 181/1/152 183/1/153 180/1/149
f 180/1/150 183/1/154 182/1/155 179/1/151
f 185/1/156 187/1/157 189/1/158 186/1/159
f 186/1/160 189/1/161 188/1/162 184/1/163
f 187/1/157 191/1/116 192/1/119 189/1/158
f 189/1/161 192/1/120 190/1/123 188/1/162
f 157/1/117 161/1/124 162/1/127 159/1/118
f 159/1/121 162/1/128 160/1/131 158/1/122
f 163/1/125 167/1/132 168/1/135 165/1/126
f 165/1/129 168/1/136 166/1/139 164/1/130
f 169/1/133 173/1/140 174/1/143 171/1/134
f 171/1/137 174/1/144 172/1/147 170/1/138
f 181/1/152 185/1/156 186/1/159 183/1/153
f 183/1/154 186/1/160 184/1/163 182/1/155
f 131/1/164 127/1/165 129/1/166 132/1/167
f 132/1/168 129/1/169 128/1/170 130/1/171
f 143/1/172 139/1/173 141/1/174 144/1/175
f 144/1/176 141/1/177 140/1/178 142/1/179
f 149/1/180 145/1/181 147/1/182 150/1/183
f 150/1/184 147/1/185 146/1/186 148/1/187
f 155/1/188 151/1/189 153/1/190 156/1/191
f 156/1/192 153/1/193 152/1/194 154/1/195
f 125/1/196 121/1/197 123/1/198 126/1/199
f 126/1/200 123/1/201 122/1/202 124/1/203
f 127/1/165 125/1/196 126/1/199 129/1/166
f 129/1/169 126/1/200 124/1/203 128/1/170
f 134/1/204 131/1/164 132/1/167 135/1/205
f 135/1/206 132/1/168 130/1/171 133/1/207
f 137/1/208 134/1/204 135/1/205 138/1/209
f 138/1/210 135/1/206 133/1/207 136/1/211
f 139/1/173 137/1/208 138/1/209 141/1/174
f 141/1/177 138/1/210 136/1/211 140/1/178
f 145/1/181 143/1/172 144/1/175 147/1/182
f 147/1/185 144/1/176 142/1/179 146/1/186
f 151/1/189 149/1/180 150/1/183 153/1/190
f 153/1/193 150/1/184 148/1/187 152/1/194
f 121/1/197 155/1/188 156/1/191 123/1/198
f 123/1/201 156/1/192 154/1/195 122/1/202
f 203/1/212 199/1/213 201/1/214 204/1/215
f 204/1/216 201/1/217 200/1/218 202/1/219
f 215/1/220 211/1/221 213/1/222 216/1/223
f 216/1/224 213/1/225 212/1/226 214/1/227
f 221/1/228 217/1/229 219/1/230 222/1/231
f 222/1/232 219/1/233 218/1/234 220/1/235
f 227/1/236 223/1/237 225/1/238 228/1/239
f 228/1/240 225/1/241 224/1/242 226/1/243
f 197/1/244 193/1/245 195/1/246 198/1/247
f 198/1/248 195/1/249 194/1/250 196/1/251
f 199/1/213 197/1/244 198/1/247 201/1/214
f 201/1/217 198/1/248 196/1/251 200/1/218
f 206/1/252 203/1/212 204/1/215 207/1/253
f 207/1/254 204/1/216 202/1/219 205/1/255
f 209/1/256 206/1/252 207/1/253 210/1/257
f 210/1/258 207/1/254 205/1/255 208/1/259
f 211/1/221 209/1/256 210/1/257 213/1/222
f 213/1/225 210/1/258 208/1/259 212/1/226
f 217/1/229 215/1/220 216/1/223 219/1/230
f 219/1/233 216/1/224 214/1/227 218/1/234
f 223/1/237 221/1/228 222/1/231 225/1/238
f 225/1/241 222/1/232 220/1/235 224/1/242
f 193/1/245 227/1/236 228/1/239 195/1/246
f 195/1/249 228/1/240 226/1/243 194/1/250
f 190/1/123 158/1/122 155/1/188 121/1/197
f 188/1/162 190/1/123 121/1/197 125/1/196
f 122/1/202 154/1/195 227/1/236 193/1/245
f 124/1/203 122/1/202 193/1/245 197/1/244
f 184/1/163 188/1/162 125/1/196 127/1/165
f 128/1/170 124/1/203 197/1/244 199/1/213
f 182/1/155 184/1/163 127/1/165 131/1/164
f 130/1/171 128/1/170 199/1/213 203/1/212
f 179/1/151 182/1/155 131/1/164 134/1/204
f 133/1/207 130/1/171 203/1/212 206/1/252
f 176/1/146 179/1/151 134/1/204 137/1/208
f 136/1/211 133/1/207 206/1/252 209/1/256
f 172/1/147 176/1/146 137/1/208 139/1/173
f 140/1/178 136/1/211 209/1/256 211/1/221
f 170/1/138 172/1/147 139/1/173 143/1/172
f 142/1/179 140/1/178 211/1/221 215/1/220
f 166/1/139 170/1/138 143/1/172 145/1/181
f 146/1/186 142/1/179 215/1/220 217/1/229
f 164/1/130 166/1/139 145/1/181 149/1/180
f 148/1/187 146/1/186 217/1/229 221/1/228
f 160/1/131 164/1/130 149/1/180 151/1/189
f 152/1/194 148/1/187 221/1/228 223/1/237
f 158/1/122 160/1/131 151/1/189 155/1/188
f 154/1/195 152/1/194 223/1/237 227/1/236
f 25/1/260 36/1/261 157/1/117 191/1/116
f 36/1/261 35/1/262 161/1/124 157/1/117
f 35/1/262 34/1/263 163/1/125 161/1/124
f 34/1/263 33/1/264 167/1/132 163/1/125
f 33/1/264 32/1/265 169/1/133 167/1/132
f 32/1/265 31/1/266 173/1/140 169/1/133
f 31/1/266 30/1/267 175/1/141 173/1/140
f 30/1/267 29/1/268 178/1/148 175/1/141
f 29/1/268 28/1/269 181/1/152 178/1/148
f 28/1/269 27/1/270 185/1/156 181/1/152
f 27/1/270 26/1/271 187/1/157 185/1/156
f 26/1/271 25/1/260 191/1/116 187/1/157
f 196/1/251 194/1/250 109/1/272 110/1/273
f 194/1/250 226/1/243 120/1/274 109/1/272
f 200/1/218 196/1/251 110/1/273 111/1/275
f 202/1/219 200/1/218 111/1/275 112/1/276
f 205/1/255 202/1/219 112/1/276 113/1/277
f 208/1/259 205/1/255 113/1/277 114/1/278
f 212/1/226 208/1/259 114/1/278 115/1/279
f 214/1/227 212/1/226 115/1/279 116/1/280
f 218/1/234 214/1/227 116/1/280 117/1/281
f 220/1/235 218/1/234 117/1/281 118/1/282
f 224/1/242 220/1/235 118/1/282 119/1/283
f 226/1/243 224/1/242 119/1/283 120/1/274
f 326/1/4 249/1/4 248/1/3 325/1/3
f 328/1/2 246/1/2 245/1/1 327/1/1
f 330/1/5 241/1/5 252/1/8 329/1/8
f 332/1/12 243/1/12 242/1/6 331/1/6
f 333/1/11 250/1/11 249/1/4 326/1/4
f 334/1/10 247/1/10 246/1/2 328/1/2
f 335/1/9 244/1/9 243/1/12 332/1/12
f 336/1/7 251/1/7 250/1/11 333/1/11
f 325/1/3 248/1/3 247/1/10 334/1/10
f 327/1/1 245/1/1 244/1/9 335/1/9
f 329/1/8 252/1/8 251/1/7 336/1/7
f 331/1/6 242/1/6 241/1/5 330/1/5
f 321/1/58 324/1/59 277/1/15 275/1/14
f 324/1/59 323/1/60 278/1/17 277/1/15
f 323/1/60 322/1/61 279/1/19 278/1/17
f 322/1/61 320/1/62 276/1/21 279/1/19
f 316/1/53 319/1/54 272/1/69 270/1/68
f 319/1/54 318/1/55 273/1/70 272/1/69
f 318/1/55 317/1/56 274/1/71 273/1/70
f 317/1/56 315/1/57 271/1/72 274/1/71
f 311/1/43 314/1/46 267/1/64 265/1/63
f 314/1/46 313/1/48 268/1/65 267/1/64
f 313/1/48 312/1/50 269/1/66 268/1/65
f 312/1/50 310/1/52 266/1/67 269/1/66
f 306/1/33 309/1/36 282/1/45 280/1/44
f 309/1/36 308/1/38 283/1/47 282/1/45
f 308/1/38 307/1/40 284/1/49 283/1/47
f 307/1/40 305/1/42 281/1/51 284/1/49
f 301/1/23 304/1/26 324/1/59 321/1/58
f 304/1/26 303/1/28 323/1/60 324/1/59
f 303/1/28 302/1/30 322/1/61 323/1/60
f 302/1/30 300/1/32 320/1/62 322/1/61
f 296/1/13 299/1/16 319/1/54 316/1/53
f 299/1/16 298/1/18 318/1/55 319/1/54
f 298/1/18 297/1/20 317/1/56 318/1/55
f 297/1/20 295/1/22 315/1/57 317/1/56
f 280/1/44 282/1/45 314/1/46 311/1/43
f 282/1/45 283/1/47 313/1/48 314/1/46
f 283/1/47 284/1/49 312/1/50 313/1/48
f 284/1/49 281/1/51 310/1/52 312/1/50
f 291/1/34 294/1/35 309/1/36 306/1/33
f 294/1/35 293/1/37 308/1/38 309/1/36
f 293/1/37 292/1/39 307/1/40 308/1/38
f 292/1/39 290/1/41 305/1/42 307/1/40
f 286/1/24 289/1/25 304/1/26 301/1/23
f 289/1/25 288/1/27 303/1/28 304/1/26
f 288/1/27 287/1/29 302/1/30 303/1/28
f 287/1/29 285/1/31 300/1/32 302/1/30
f 275/1/14 277/1/15 299/1/16 296/1/13
f 277/1/15 278/1/17 298/1/18 299/1/16
f 278/1/17 279/1/19 297/1/20 298/1/18
f 279/1/19 276/1/21 295/1/22 297/1/20
f 270/1/68 272/1/69 294/1/35 291/1/34
f 272/1/69 273/1/70 293/1/37 294/1/35
f 273/1/70 274/1/71 292/1/39 293/1/37
f 274/1/71 271/1/72 290/1/41 292/1/39
f 265/1/63 267/1/64 289/1/25 286/1/24
f 267/1/64 268/1/65 288/1/27 289/1/25
f 268/1/65 269/1/66 287/1/29 288/1/27
f 269/1/66 266/1/67 285/1/31 287/1/29
f 265/1/63 286/1/24 256/1/79 255/1/80
f 243/1/84 266/1/67 310/1/52 242/1/93
f 254/1/94 311/1/43 265/1/63 255/1/80
f 244/1/81 285/1/31 266/1/67 243/1/84
f 270/1/68 291/1/34 263/1/73 262/1/74
f 250/1/78 271/1/72 315/1/57 249/1/96
f 261/1/95 316/1/53 270/1/68 262/1/74
f 251/1/75 290/1/41 271/1/72 250/1/78
f 275/1/14 296/1/13 260/1/89 259/1/85
f 247/1/87 276/1/21 320/1/62 246/1/90
f 258/1/86 321/1/58 275/1/14 259/1/85
f 248/1/88 295/1/22 276/1/21 247/1/87
f 280/1/44 311/1/43 254/1/94 253/1/91
f 241/1/92 281/1/51 305/1/42 252/1/76
f 264/1/77 306/1/33 280/1/44 253/1/91
f 242/1/93 310/1/52 281/1/51 241/1/92
f 256/1/79 286/1/24 301/1/23 257/1/83
f 245/1/82 300/1/32 285/1/31 244/1/81
f 263/1/73 291/1/34 306/1/33 264/1/77
f 252/1/76 305/1/42 290/1/41 251/1/75
f 260/1/89 296/1/13 316/1/53 261/1/95
f 249/1/96 315/1/57 295/1/22 248/1/88
f 257/1/83 301/1/23 321/1/58 258/1/86
f 246/1/90 320/1/62 300/1/32 245/1/82
f 230/1/99 331/1/99 330/1/112 229/1/112
f 240/1/97 329/1/97 336/1/111 239/1/111
f 233/1/110 327/1/110 335/1/106 232/1/106
f 236/1/109 325/1/109 334/1/108 235/1/108
f 239/1/107 336/1/107 333/1/102 238/1/102
f 232/1/106 335/1/106 332/1/105 231/1/105
f 235/1/104 334/1/104 328/1/103 234/1/103
f 238/1/102 333/1/102 326/1/101 237/1/101
f 231/1/100 332/1/100 331/1/99 230/1/99
f 229/1/98 330/1/98 329/1/97 240/1/97
f 234/1/103 328/1/103 327/1/114 233/1/114
f 237/1/113 326/1/113 325/1/109 236/1/109
f 340/1/115 341/1/115 342/1/115 343/1/115 344/1/115 345/1/115 346/1/115 347/1/115 348/1/115 337/1/115 338/1/115 339/1/115
f 419/1/116 420/1/119 387/1/284 385/1/157
f 420/1/120 418/1/123 386/1/162 387/1/161
f 389/1/156 390/1/159 393/1/153 391/1/152
f 390/1/160 388/1/163 392/1/155 393/1/154
f 395/1/148 396/1/149 399/1/142 397/1/141
f 396/1/150 394/1/151 398/1/146 399/1/145
f 401/1/140 402/1/143 405/1/134 403/1/133
f 402/1/144 400/1/147 404/1/138 405/1/137
f 403/1/133 405/1/134 408/1/135 406/1/132
f 405/1/137 404/1/138 407/1/139 408/1/136
f 406/1/132 408/1/135 411/1/126 409/1/125
f 408/1/136 407/1/139 410/1/130 411/1/129
f 413/1/124 414/1/127 417/1/118 415/1/117
f 414/1/128 412/1/131 416/1/122 417/1/121
f 415/1/117 417/1/118 420/1/119 419/1/116
f 417/1/121 416/1/122 418/1/123 420/1/120
f 385/1/157 387/1/284 390/1/159 389/1/156
f 387/1/161 386/1/162 388/1/163 390/1/160
f 391/1/152 393/1/153 396/1/149 395/1/148
f 393/1/154 392/1/155 394/1/151 396/1/150
f 397/1/141 399/1/142 402/1/143 401/1/140
f 399/1/145 398/1/146 400/1/147 402/1/144
f 409/1/125 411/1/126 414/1/127 413/1/124
f 411/1/129 410/1/130 412/1/131 414/1/128
f 359/1/180 360/1/183 357/1/190 355/1/189
f 360/1/285 358/1/286 356/1/287 357/1/288
f 371/1/208 372/1/209 369/1/174 367/1/173
f 372/1/210 370/1/289 368/1/178 369/1/177
f 377/1/164 378/1/167 375/1/205 373/1/204
f 378/1/290 376/1/291 374/1/292 375/1/293
f 383/1/196 384/1/199 381/1/166 379/1/165
f 384/1/294 382/1/203 380/1/295 381/1/296
f 353/1/188 354/1/191 351/1/198 349/1/197
f 354/1/297 352/1/195 350/1/202 351/1/201
f 355/1/189 357/1/190 354/1/191 353/1/188
f 357/1/288 356/1/287 352/1/195 354/1/297
f 362/1/181 363/1/182 360/1/183 359/1/180
f 363/1/298 361/1/299 358/1/286 360/1/285
f 365/1/172 366/1/175 363/1/182 362/1/181
f 366/1/176 364/1/300 361/1/299 363/1/298
f 367/1/173 369/1/174 366/1/175 365/1/172
f 369/1/177 368/1/178 364/1/300 366/1/176
f 373/1/204 375/1/205 372/1/209 371/1/208
f 375/1/293 374/1/292 370/1/289 372/1/210
f 379/1/165 381/1/166 378/1/167 377/1/164
f 381/1/296 380/1/295 376/1/291 378/1/290
f 349/1/197 351/1/198 384/1/199 383/1/196
f 351/1/201 350/1/202 382/1/203 384/1/294
f 431/1/228 432/1/231 429/1/238 427/1/237
f 432/1/232 430/1/235 428/1/242 429/1/241
f 443/1/256 444/1/257 441/1/222 439/1/221
f 444/1/258 442/1/259 440/1/226 441/1/225
f 449/1/212 450/1/215 447/1/253 445/1/252
f 450/1/216 448/1/219 446/1/255 447/1/254
f 455/1/244 456/1/247 453/1/214 451/1/213
f 456/1/248 454/1/251 452/1/218 453/1/217
f 425/1/236 426/1/239 423/1/246 421/1/245
f 426/1/240 424/1/243 422/1/250 423/1/249
f 427/1/237 429/1/238 426/1/239 425/1/236
f 429/1/241 428/1/242 424/1/243 426/1/240
f 434/1/229 435/1/230 432/1/231 431/1/228
f 435/1/233 433/1/234 430/1/235 432/1/232
f 437/1/220 438/1/223 435/1/230 434/1/229
f 438/1/224 436/1/227 433/1/234 435/1/233
f 439/1/221 441/1/222 438/1/223 437/1/220
f 441/1/225 440/1/226 436/1/227 438/1/224
f 445/1/252 447/1/253 444/1/257 443/1/256
f 447/1/254 446/1/255 442/1/259 444/1/258
f 451/1/213 453/1/214 450/1/215 449/1/212
f 453/1/217 452/1/218 448/1/219 450/1/216
f 421/1/245 423/1/246 456/1/247 455/1/244
f 423/1/249 422/1/250 454/1/251 456/1/248
f 418/1/123 349/1/197 383/1/196 386/1/162
f 416/1/122 353/1/188 349/1/197 418/1/123
f 350/1/202 421/1/245 455/1/244 382/1/203
f 352/1/195 425/1/236 421/1/245 350/1/202
f 412/1/131 355/1/189 353/1/188 416/1/122
f 356/1/287 427/1/237 425/1/236 352/1/195
f 410/1/130 359/1/180 355/1/189 412/1/131
f 358/1/286 431/1/228 427/1/237 356/1/287
f 407/1/139 362/1/181 359/1/180 410/1/130
f 361/1/299 434/1/229 431/1/228 358/1/286
f 404/1/138 365/1/172 362/1/181 407/1/139
f 364/1/300 437/1/220 434/1/229 361/1/299
f 400/1/147 367/1/173 365/1/172 404/1/138
f 368/1/178 439/1/221 437/1/220 364/1/300
f 398/1/146 371/1/208 367/1/173 400/1/147
f 370/1/289 443/1/256 439/1/221 368/1/178
f 394/1/151 373/1/204 371/1/208 398/1/146
f 374/1/292 445/1/252 443/1/256 370/1/289
f 392/1/155 377/1/164 373/1/204 394/1/151
f 376/1/291 449/1/212 445/1/252 374/1/292
f 388/1/163 379/1/165 377/1/164 392/1/155
f 380/1/295 451/1/213 449/1/212 376/1/291
f 386/1/162 383/1/196 379/1/165 388/1/163
f 382/1/203 455/1/244 451/1/213 380/1/295
f 253/1/260 419/1/116 385/1/157 264/1/271
f 264/1/271 385/1/157 389/1/156 263/1/270
f 263/1/270 389/1/156 391/1/152 262/1/269
f 262/1/269 391/1/152 395/1/148 261/1/268
f 261/1/268 395/1/148 397/1/141 260/1/267
f 260/1/267 397/1/141 401/1/140 259/1/266
f 259/1/266 401/1/140 403/1/133 258/1/265
f 258/1/265 403/1/133 406/1/132 257/1/264
f 257/1/264 406/1/132 409/1/125 256/1/263
f 256/1/263 409/1/125 413/1/124 255/1/262
f 255/1/262 413/1/124 415/1/117 254/1/261
f 254/1/261 415/1/117 419/1/116 253/1/260
f 424/1/243 338/1/274 337/1/272 422/1/250
f 422/1/250 337/1/272 348/1/273 454/1/251
f 428/1/242 339/1/283 338/1/274 424/1/243
f 430/1/235 340/1/282 339/1/283 428/1/242
f 433/1/234 341/1/281 340/1/282 430/1/235
f 436/1/227 342/1/280 341/1/281 433/1/234
f 440/1/226 343/1/279 342/1/280 436/1/227
f 442/1/259 344/1/278 343/1/279 440/1/226
f 446/1/255 345/1/277 344/1/278 442/1/259
f 448/1/219 346/1/276 345/1/277 446/1/255
f 452/1/218 347/1/275 346/1/276 448/1/219
f 454/1/251 348/1/273 347/1/275 452/1/218
