# Blender 5.0.1
# www.blender.org
o Cone
v 0.000000 0.000000 -1.300000
v 1.700000 0.000000 0.400000
v 0.000000 0.000000 2.100000
v -1.700000 0.000000 0.400000
v 0.000000 1.700000 0.400000
v 0.000000 1.035821 -0.143054
v 0.000000 1.089179 -0.089696
v -0.489696 1.089179 0.400000
v -0.543054 1.035821 0.400000
v 1.006071 0.451679 0.400000
v 1.059430 0.398321 0.400000
v 0.000000 0.451679 1.406071
v 0.000000 0.398321 1.459430
v 0.000000 0.398321 -0.659430
v 0.000000 0.451679 -0.606071
v -1.006071 0.451679 0.400000
v -1.059430 0.398321 0.400000
v 0.317571 1.301679 0.400000
v 0.370929 1.248321 0.400000
v 0.000000 1.301679 0.717571
v 0.000000 1.248321 0.770929
v -0.317571 1.301679 0.400000
v -0.370929 1.248321 0.400000
v 0.000000 1.248321 0.029071
v 0.000000 1.301679 0.082429
v -0.715179 0.823321 0.400000
v -0.661821 0.876679 0.400000
v 0.000000 0.823321 1.115179
v 0.000000 0.876679 1.061821
v 0.000000 0.876679 -0.261821
v 0.000000 0.823321 -0.315179
v 0.715179 0.823321 0.400000
v 0.661821 0.876679 0.400000
v 0.000000 0.882937 1.217063
v 0.000000 0.817063 1.282937
v 0.000000 0.817063 -0.482937
v 0.000000 0.882937 -0.417063
v 0.817063 0.882937 0.400000
v 0.882937 0.817063 0.400000
v -0.817063 0.882937 0.400000
v -0.882937 0.817063 0.400000
v 0.000000 1.307937 0.007937
v 0.000000 1.242063 -0.057937
v 0.000000 1.242063 0.857937
v 0.000000 1.307937 0.792063
v -0.457937 1.242063 0.400000
v -0.392063 1.307937 0.400000
v 0.457937 1.242063 0.400000
v 0.392063 1.307937 0.400000
v 1.307937 0.392063 0.400000
v 1.242063 0.457937 0.400000
v 0.000000 0.392063 1.707937
v 0.000000 0.457937 1.642063
v -1.307937 0.392063 0.400000
v -1.242063 0.457937 0.400000
v 0.000000 0.457937 -0.842063
v 0.000000 0.392063 -0.907937
v 0.000000 1.029563 1.070437
v 0.000000 1.095437 1.004563
v 0.670437 1.029563 0.400000
v 0.604563 1.095438 0.400000
v -0.670437 1.029563 0.400000
v -0.604563 1.095438 0.400000
v 0.000000 1.095437 -0.204563
v 0.000000 1.029563 -0.270437
v 0.000000 0.670437 -0.629563
v 0.000000 0.604563 -0.695437
v 1.095437 0.604563 0.400000
v 1.029563 0.670437 0.400000
v 0.000000 0.604563 1.495437
v 0.000000 0.670437 1.429563
v -1.095437 0.604563 0.400000
v -1.029563 0.670437 0.400000
v 1.454563 0.245437 0.400000
v 1.520437 0.179563 0.400000
v 0.000000 0.245437 1.854563
v 0.000000 0.179563 1.920437
v -1.454563 0.245437 0.400000
v -1.520437 0.179563 0.400000
v 0.000000 0.179563 -1.120437
v 0.000000 0.245437 -1.054563
v 0.000000 1.520437 0.579563
v 0.000000 1.454563 0.645437
v 0.000000 1.454563 0.154563
v 0.000000 1.520437 0.220437
v 0.245437 1.454563 0.400000
v 0.179563 1.520437 0.400000
v -0.245437 1.454563 0.400000
v -0.179563 1.520437 0.400000
v 0.000000 1.035821 0.943054
v 0.000000 1.089179 0.889696
v 0.543054 1.035821 0.400000
v 0.489696 1.089179 0.400000
v -0.887304 0.610821 0.400000
v -0.833946 0.664179 0.400000
v 0.000000 0.664179 -0.433946
v 0.000000 0.610821 -0.487304
v 0.000000 0.610821 1.287304
v 0.000000 0.664179 1.233946
v 0.887304 0.610821 0.400000
v 0.833946 0.664179 0.400000
v 0.000000 0.185821 -0.831555
v 0.000000 0.239179 -0.778196
v 1.178196 0.239179 0.400000
v 1.231555 0.185821 0.400000
v 0.000000 0.239179 1.578196
v 0.000000 0.185821 1.631554
v -1.178196 0.239179 0.400000
v -1.231555 0.185821 0.400000
v 0.000000 1.514179 0.545446
v 0.000000 1.460821 0.598804
v 0.198804 1.460821 0.400000
v 0.145446 1.514179 0.400000
v 0.000000 1.460821 0.201196
v 0.000000 1.514179 0.254554
v -0.198804 1.460821 0.400000
v -0.145446 1.514179 0.400000
vn -0.5773 0.5774 0.5774
vn 0.5773 0.5774 -0.5774
vn -0.0000 -1.0000 -0.0000
vn -0.5774 0.5774 0.5774
vn 0.5774 0.5774 -0.5774
vn 0.5774 0.5773 0.5774
vn -0.5774 0.5774 -0.5774
vn 0.5773 0.5774 0.5774
vn -0.5773 0.5774 -0.5774
vn 0.5774 0.5774 0.5774
vn -0.5773 0.5774 -0.5773
vn 0.5773 0.5773 0.5774
vn -0.5773 0.5773 -0.5774
vn 0.0265 -0.9993 -0.0265
vn 0.0252 0.9994 0.0252
vn 0.0300 0.9991 -0.0300
vn 0.0402 -0.9984 0.0402
vn 0.5774 0.5774 0.5773
vn 0.5773 0.5774 -0.5773
vn -0.5774 0.5774 0.5773
vn -0.5774 0.5773 0.5774
vn 0.5773 0.5774 0.5773
vn 0.0265 -0.9993 0.0265
vn 0.0320 -0.9990 -0.0320
vn 0.0373 0.9986 0.0373
vn 0.0300 0.9991 0.0300
vn -0.1776 -0.9680 0.1776
vn -0.0252 0.9994 0.0252
vn 0.0320 -0.9990 0.0320
vn -0.1318 0.9825 0.1318
vn 0.0402 -0.9984 -0.0402
vn -0.0265 -0.9993 0.0265
vn -0.1776 -0.9680 -0.1776
vn -0.0300 0.9991 0.0300
vn 0.0373 0.9986 -0.0373
vn -0.0252 0.9994 -0.0252
vn -0.0320 -0.9990 0.0320
vn -0.1318 0.9825 -0.1318
vn 0.1776 -0.9680 -0.1776
vn -0.0265 -0.9993 -0.0265
vn -0.0300 0.9991 -0.0300
vn 0.1319 0.9825 -0.1318
vn 0.0834 -0.9930 -0.0834
vn -0.0320 -0.9990 -0.0320
vn 0.1776 -0.9680 0.1776
vn 0.0716 0.9949 -0.0716
vn 0.0834 -0.9930 0.0834
vn 0.0490 0.9976 -0.0490
vn 0.1318 0.9825 0.1318
vn 0.0543 -0.9970 -0.0543
vn -0.5774 0.5773 -0.5774
vn -0.0373 0.9986 0.0373
vn 0.0226 -0.9995 -0.0226
vn 0.0252 0.9994 -0.0252
vn -0.0402 -0.9984 0.0402
vn -0.0373 0.9986 -0.0373
vn 0.0217 0.9995 -0.0217
vn -0.0543 -0.9970 -0.0543
vn -0.0402 -0.9984 -0.0402
vn 0.0226 -0.9995 0.0226
vn -0.0490 0.9976 -0.0490
vn -0.0716 0.9949 -0.0716
vn 0.0217 0.9995 0.0217
vn -0.0226 -0.9995 0.0226
vn -0.0543 -0.9970 0.0543
vn -0.0834 -0.9930 -0.0834
vn -0.0490 0.9976 0.0490
vn -0.0716 0.9949 0.0716
vn -0.0217 0.9995 0.0217
vn -0.0226 -0.9995 -0.0226
vn 0.0543 -0.9970 0.0543
vn -0.0834 -0.9930 0.0834
vn -0.0217 0.9995 -0.0217
vn 0.0490 0.9976 0.0490
vn 0.0716 0.9949 0.0716
vn 0.5774 0.5774 -0.5773
vn -0.5773 0.5774 0.5773
vn 0.5773 0.5773 -0.5774
vn -0.5773 0.5773 0.5774
vn -0.5774 0.5774 -0.5773
vn -0.1319 0.9825 -0.1318
vn 0.1318 0.9825 -0.1318
vn 0.1319 0.9825 0.1318
vn 0.5774 0.5773 -0.5774
vt 0.250000 0.215350
vt 0.224650 0.250000
vt 0.215350 0.250000
vt 0.250000 0.284650
vt 0.275350 0.250000
vt 0.284650 0.250000
vt 0.990000 0.250000
vt 0.510000 0.250000
vt 0.750000 0.490000
vt 0.044650 0.250000
vt 0.250000 0.035350
vt 0.250000 0.044650
vt 0.455350 0.250000
vt 0.250000 0.464650
vt 0.250000 0.455350
vt 0.250000 0.104650
vt 0.404650 0.250000
vt 0.395350 0.250000
vt 0.250000 0.395350
vt 0.095350 0.250000
vt 0.104650 0.250000
vt 0.250000 0.164650
vt 0.344650 0.250000
vt 0.335350 0.250000
vt 0.164650 0.250000
vt 0.250000 0.344650
vt 0.155350 0.250000
vt 0.250000 0.074650
vt 0.434650 0.250000
vt 0.425350 0.250000
vt 0.250000 0.425350
vt 0.065350 0.250000
vt 0.074650 0.250000
vt 0.250000 0.185350
vt 0.305350 0.250000
vt 0.250000 0.194650
vt 0.250000 0.314650
vt 0.194650 0.250000
vt 0.250000 0.305350
vt 0.250000 0.125350
vt 0.134650 0.250000
vt 0.125350 0.250000
vt 0.250000 0.374650
vt 0.365350 0.250000
vt 0.374650 0.250000
vt 0.250000 0.065350
vt 0.250000 0.404650
vt 0.250000 0.134650
vt 0.250000 0.275350
vt 0.250000 0.224650
vt 0.035350 0.250000
vt 0.464650 0.250000
vt 0.250000 0.095350
vt 0.250000 0.335350
vt 0.250000 0.155350
vt 0.250000 0.434650
vt 0.314650 0.250000
vt 0.185350 0.250000
vt 0.250000 0.365350
vt 0.250000 0.010000
vt 0.490000 0.250000
vt 0.250000 0.490000
vt 0.010000 0.250000
vt 0.250000 0.250000
vt 0.750000 0.010000
s 0
f 111/1/1 117/2/1 116/3/1
f 114/4/2 113/5/2 112/6/2
f 2/7/3 4/8/3 1/9/3
f 108/10/4 107/11/4 106/12/4
f 104/13/5 102/14/5 103/15/5
f 99/16/6 100/17/6 101/18/6
f 96/19/7 94/20/7 95/21/7
f 91/22/8 92/23/8 93/24/8
f 8/25/9 6/26/9 9/27/9
f 12/28/10 11/29/10 10/30/10
f 15/31/11 17/32/11 16/33/11
f 21/34/12 18/35/12 20/36/12
f 24/37/13 22/38/13 25/39/13
f 28/40/1 27/41/1 26/42/1
f 31/43/2 33/44/2 32/45/2
f 51/30/14 15/31/14 56/31/14
f 50/29/15 13/46/15 52/46/15
f 67/47/16 100/17/16 68/17/16
f 34/48/17 33/44/17 38/44/17
f 116/3/9 115/49/9 114/4/9
f 112/6/18 110/50/18 111/1/18
f 108/10/7 102/14/7 109/51/7
f 106/12/6 105/52/6 104/13/6
f 101/18/5 97/47/5 96/19/5
f 95/21/4 98/53/4 99/16/4
f 93/24/2 6/26/2 7/54/2
f 8/25/1 90/55/1 91/22/1
f 10/30/19 14/56/19 15/31/19
f 16/33/20 13/46/20 12/28/20
f 24/37/5 18/35/5 19/57/5
f 21/34/21 22/38/21 23/58/21
f 26/42/9 30/59/9 31/43/9
f 32/45/22 29/48/22 28/40/22
f 53/28/23 10/30/23 51/30/23
f 69/18/24 96/19/24 66/19/24
f 35/40/25 32/45/25 28/40/25
f 68/17/26 98/53/26 70/53/26
f 82/50/27 117/2/27 110/50/27
f 54/32/28 13/46/28 17/32/28
f 71/16/29 101/18/29 69/18/29
f 83/1/30 116/3/30 88/3/30
f 38/44/31 30/59/31 37/59/31
f 55/33/32 12/28/32 53/28/32
f 89/2/33 115/49/33 117/2/33
f 72/20/34 98/53/34 94/20/34
f 36/43/35 32/45/35 39/45/35
f 57/56/36 17/32/36 14/56/36
f 73/21/37 99/16/37 71/16/37
f 88/3/38 114/4/38 84/4/38
f 85/49/39 113/5/39 115/49/39
f 56/31/40 16/33/40 55/33/40
f 72/20/41 97/47/41 67/47/41
f 86/6/42 114/4/42 112/6/42
f 49/35/43 25/39/43 42/39/43
f 66/19/44 95/21/44 73/21/44
f 82/50/45 113/5/45 87/5/45
f 43/37/46 19/57/46 48/57/46
f 45/36/47 18/35/47 49/35/47
f 60/23/48 6/26/48 92/23/48
f 86/6/49 111/1/49 83/1/49
f 61/24/50 7/54/50 64/54/50
f 38/44/6 58/55/6 34/48/6
f 35/40/4 73/21/4 71/16/4
f 39/45/8 71/16/8 69/18/8
f 34/48/4 62/27/4 40/41/4
f 41/42/9 66/19/9 73/21/9
f 36/43/2 69/18/2 66/19/2
f 40/41/51 65/26/51 37/59/51
f 37/59/5 60/23/5 38/44/5
f 63/25/9 43/37/9 64/54/9
f 42/39/51 88/3/51 84/4/51
f 64/54/2 48/57/2 61/24/2
f 42/39/5 86/6/5 49/35/5
f 49/35/10 83/1/10 45/36/10
f 61/24/8 44/34/8 59/22/8
f 47/38/4 83/1/4 88/3/4
f 59/22/1 46/58/1 63/25/1
f 67/47/5 51/30/5 56/31/5
f 81/15/5 50/29/5 74/13/5
f 68/17/10 53/28/10 51/30/10
f 50/29/6 76/12/6 74/13/6
f 70/53/4 55/33/4 53/28/4
f 52/46/21 78/10/21 76/12/21
f 72/20/7 56/31/7 55/33/7
f 54/32/7 81/15/7 78/10/7
f 75/52/10 3/60/10 2/61/10
f 80/14/5 2/61/5 1/62/5
f 77/11/4 4/63/4 3/60/4
f 79/51/7 1/62/7 4/63/7
f 89/2/1 82/50/1 5/64/1
f 82/50/8 87/5/8 5/64/8
f 85/49/7 89/2/7 5/64/7
f 87/5/2 85/49/2 5/64/2
f 35/40/52 26/42/52 41/42/52
f 74/13/53 103/15/53 81/15/53
f 57/56/54 11/29/54 50/29/54
f 40/41/55 29/48/55 34/48/55
f 41/42/56 31/43/56 36/43/56
f 80/14/57 105/52/57 75/52/57
f 64/54/58 8/25/58 63/25/58
f 37/59/59 27/41/59 40/41/59
f 76/12/60 104/13/60 74/13/60
f 62/27/61 6/26/61 65/26/61
f 46/58/62 24/37/62 43/37/62
f 75/52/63 107/11/63 77/11/63
f 78/10/64 106/12/64 76/12/64
f 63/25/65 91/22/65 59/22/65
f 47/38/66 25/39/66 22/38/66
f 58/55/67 9/27/67 62/27/67
f 44/34/68 23/58/68 46/58/68
f 77/11/69 109/51/69 79/51/69
f 81/15/70 108/10/70 78/10/70
f 59/22/71 93/24/71 61/24/71
f 47/38/72 20/36/72 45/36/72
f 79/51/73 102/14/73 80/14/73
f 58/55/74 92/23/74 90/55/74
f 44/34/75 19/57/75 21/34/75
f 111/1/21 110/50/21 117/2/21
f 114/4/2 115/49/2 113/5/2
f 2/7/3 3/65/3 4/8/3
f 108/10/1 109/51/1 107/11/1
f 104/13/5 105/52/5 102/14/5
f 99/16/22 98/53/22 100/17/22
f 96/19/7 97/47/7 94/20/7
f 91/22/22 90/55/22 92/23/22
f 8/25/9 7/54/9 6/26/9
f 12/28/22 13/46/22 11/29/22
f 15/31/11 14/56/11 17/32/11
f 21/34/6 19/57/6 18/35/6
f 24/37/7 23/58/7 22/38/7
f 28/40/20 29/48/20 27/41/20
f 31/43/76 30/59/76 33/44/76
f 51/30/14 10/30/14 15/31/14
f 50/29/15 11/29/15 13/46/15
f 67/47/16 97/47/16 100/17/16
f 34/48/17 29/48/17 33/44/17
f 116/3/9 117/2/9 115/49/9
f 112/6/12 113/5/12 110/50/12
f 108/10/7 103/15/7 102/14/7
f 106/12/18 107/11/18 105/52/18
f 101/18/5 100/17/5 97/47/5
f 95/21/77 94/20/77 98/53/77
f 93/24/2 92/23/2 6/26/2
f 8/25/77 9/27/77 90/55/77
f 10/30/19 11/29/19 14/56/19
f 16/33/77 17/32/77 13/46/77
f 24/37/78 25/39/78 18/35/78
f 21/34/79 20/36/79 22/38/79
f 26/42/80 27/41/80 30/59/80
f 32/45/6 33/44/6 29/48/6
f 53/28/23 12/28/23 10/30/23
f 69/18/24 101/18/24 96/19/24
f 35/40/25 39/45/25 32/45/25
f 68/17/26 100/17/26 98/53/26
f 82/50/27 89/2/27 117/2/27
f 54/32/28 52/46/28 13/46/28
f 71/16/29 99/16/29 101/18/29
f 83/1/30 111/1/30 116/3/30
f 38/44/31 33/44/31 30/59/31
f 55/33/32 16/33/32 12/28/32
f 89/2/33 85/49/33 115/49/33
f 72/20/34 70/53/34 98/53/34
f 36/43/35 31/43/35 32/45/35
f 57/56/36 54/32/36 17/32/36
f 73/21/37 95/21/37 99/16/37
f 88/3/81 116/3/81 114/4/81
f 85/49/39 87/5/39 113/5/39
f 56/31/40 15/31/40 16/33/40
f 72/20/41 94/20/41 97/47/41
f 86/6/82 84/4/82 114/4/82
f 49/35/43 18/35/43 25/39/43
f 66/19/44 96/19/44 95/21/44
f 82/50/45 110/50/45 113/5/45
f 43/37/46 24/37/46 19/57/46
f 45/36/47 20/36/47 18/35/47
f 60/23/48 65/26/48 6/26/48
f 86/6/83 112/6/83 111/1/83
f 61/24/50 93/24/50 7/54/50
f 38/44/10 60/23/10 58/55/10
f 35/40/4 41/42/4 73/21/4
f 39/45/6 35/40/6 71/16/6
f 34/48/21 58/55/21 62/27/21
f 41/42/7 36/43/7 66/19/7
f 36/43/5 39/45/5 69/18/5
f 40/41/7 62/27/7 65/26/7
f 37/59/84 65/26/84 60/23/84
f 63/25/9 46/58/9 43/37/9
f 42/39/7 47/38/7 88/3/7
f 64/54/5 43/37/5 48/57/5
f 42/39/84 84/4/84 86/6/84
f 49/35/10 86/6/10 83/1/10
f 61/24/8 48/57/8 44/34/8
f 47/38/4 45/36/4 83/1/4
f 59/22/4 44/34/4 46/58/4
f 67/47/5 68/17/5 51/30/5
f 81/15/5 57/56/5 50/29/5
f 68/17/10 70/53/10 53/28/10
f 50/29/10 52/46/10 76/12/10
f 70/53/4 72/20/4 55/33/4
f 52/46/4 54/32/4 78/10/4
f 72/20/7 67/47/7 56/31/7
f 54/32/7 57/56/7 81/15/7
f 75/52/10 77/11/10 3/60/10
f 80/14/5 75/52/5 2/61/5
f 77/11/4 79/51/4 4/63/4
f 79/51/7 80/14/7 1/62/7
f 35/40/52 28/40/52 26/42/52
f 74/13/53 104/13/53 103/15/53
f 57/56/54 14/56/54 11/29/54
f 40/41/55 27/41/55 29/48/55
f 41/42/56 26/42/56 31/43/56
f 80/14/57 102/14/57 105/52/57
f 64/54/58 7/54/58 8/25/58
f 37/59/59 30/59/59 27/41/59
f 76/12/60 106/12/60 104/13/60
f 62/27/61 9/27/61 6/26/61
f 46/58/62 23/58/62 24/37/62
f 75/52/63 105/52/63 107/11/63
f 78/10/64 108/10/64 106/12/64
f 63/25/65 8/25/65 91/22/65
f 47/38/66 42/39/66 25/39/66
f 58/55/67 90/55/67 9/27/67
f 44/34/68 21/34/68 23/58/68
f 77/11/69 107/11/69 109/51/69
f 81/15/70 103/15/70 108/10/70
f 59/22/71 91/22/71 93/24/71
f 47/38/72 22/38/72 20/36/72
f 79/51/73 109/51/73 102/14/73
f 58/55/74 60/23/74 92/23/74
f 44/34/75 48/57/75 19/57/75
