# Blender 5.2.2 LTS
# www.blender.org
mtllib Rocks.mtl
o Rocks
v -16.660830 -0.003846 17.629002
v -16.411638 15.500163 16.025574
v -21.046844 -0.000324 7.771295
v -19.789125 15.944972 8.537739
v -9.583549 -1.165806 15.241160
v -12.470848 14.496048 14.072966
v -14.957726 0.083354 4.998412
v -14.378845 13.270225 8.836577
v -19.949272 -0.000924 10.232245
v -18.852085 -0.001986 12.695353
v -17.755844 -0.003200 15.161315
v -16.657749 4.605424 17.625183
v -16.655300 9.214900 17.622864
v -16.505922 12.380298 16.226902
v -17.137661 15.796247 14.400520
v -18.067728 15.902163 12.280052
v -19.148514 16.311392 10.184112
v -20.802187 13.722598 7.932314
v -21.045246 9.221469 7.767810
v -21.045702 4.610517 7.768513
v -16.482117 0.008907 5.667408
v -18.010696 0.001846 6.387239
v -19.531382 0.000013 7.086613
v -19.079159 17.046413 7.724472
v -17.600126 16.518240 7.360262
v -16.260733 16.155540 6.913848
v -15.093752 13.172541 6.378526
v -15.055786 9.096122 5.959084
v -14.985062 4.513706 5.896735
v -10.729700 -0.929368 11.880708
v -11.020125 -0.563476 8.156816
v -13.360046 -0.766070 6.848681
v -13.932363 14.461085 9.365364
v -13.513893 15.826219 10.043901
v -12.355188 15.864921 11.780325
v -12.057866 12.319612 13.837299
v -12.036247 8.476586 13.271908
v -11.605470 3.795468 12.883105
v -15.139046 -0.010269 16.945316
v -13.594624 -0.035487 16.253134
v -11.918034 -0.206817 15.595828
v -12.945700 15.123234 14.647993
v -13.793222 17.122993 15.527359
v -15.382469 16.085766 15.708851
v -17.752810 4.606363 15.156696
v -17.750668 9.216181 15.154496
v -17.746471 13.810202 15.151629
v -18.849562 4.608147 12.690557
v -18.848087 9.218561 12.688814
v -18.848213 13.828704 12.691025
v -19.947445 4.609674 10.228168
v -19.946579 9.220485 10.226974
v -19.930130 13.793460 10.230090
v -19.528507 4.610740 7.078720
v -19.527431 9.221864 7.076832
v -19.514687 13.801924 7.099985
v -18.003399 4.612130 6.364550
v -18.001013 9.223985 6.359604
v -17.999001 13.805617 6.392076
v -16.470879 4.616790 5.649711
v -16.462469 9.229385 5.602731
v -16.458326 13.597270 5.785649
v -13.894106 6.118280 7.682634
v -13.993775 8.583436 7.436040
v -13.808031 12.736444 7.950886
v -13.424668 6.492741 8.756855
v -12.518286 7.585939 9.751022
v -13.449133 12.605277 9.427934
v -11.677214 4.140018 12.289324
v -12.005271 10.259231 12.063252
v -12.219297 12.970336 12.400283
v -11.945253 4.451311 14.328528
v -13.185171 10.643681 14.605409
v -12.550829 13.208606 14.342158
v -13.480972 4.927636 16.460480
v -13.420219 8.894559 16.040895
v -13.331041 13.732337 15.444948
v -15.129259 4.595136 16.933496
v -15.130707 7.788262 16.330021
v -15.188532 10.780136 15.907282
v -18.430511 -0.001104 9.540506
v -16.899330 0.000797 8.816421
v -15.333948 0.018116 8.009162
v -17.330442 -0.004024 12.000949
v -15.788759 -0.007882 11.265168
v -14.159637 -0.005051 10.347237
v -16.232960 -0.008146 14.471106
v -14.685703 -0.026278 13.755602
v -13.023095 -0.126065 12.980369
v -15.384159 15.735902 9.006803
v -16.809795 17.952118 8.819456
v -18.209257 17.806574 9.618264
v -14.499903 16.157232 9.871060
v -15.780355 18.433699 11.278202
v -17.042116 17.324970 11.783807
v -13.129210 17.949669 12.768044
v -14.649822 18.393141 13.732889
v -16.069332 16.987574 13.926898
v -26.061546 0.206345 -12.247599
v -24.002602 17.052546 -13.038361
v -14.849169 0.192310 -23.467318
v -15.368188 17.496456 -22.009068
v -19.088652 -0.972934 -3.808134
v -19.623751 17.961302 -9.421758
v -7.875030 0.312959 -16.598932
v -12.264144 17.907663 -16.212957
v -17.657148 0.235169 -20.672483
v -20.465918 0.255906 -17.867496
v -23.268913 0.244524 -15.056597
v -26.119692 5.003442 -12.260175
v -26.205954 9.915455 -12.290089
v -24.376366 13.635210 -12.922937
v -22.146381 17.747688 -15.131249
v -19.672754 18.105131 -17.822369
v -17.310705 18.240398 -20.418425
v -15.030238 14.769548 -23.447056
v -14.906473 9.870713 -23.654568
v -14.873583 4.972971 -23.528061
v -9.590688 0.243856 -18.335733
v -11.375065 0.233154 -20.049068
v -13.124215 0.216082 -21.759129
v -13.899655 18.773092 -21.589025
v -12.710535 18.759207 -20.014931
v -11.466330 18.707376 -18.538727
v -10.254001 15.413527 -16.825005
v -9.472736 10.188843 -16.545464
v -9.200314 5.024842 -16.249683
v -15.150384 -0.673536 -6.912164
v -10.155317 -0.319627 -9.529819
v -9.581266 -0.528092 -13.429724
v -14.309019 19.464375 -14.528588
v -15.071821 20.765553 -14.016317
v -16.545471 20.600025 -11.341299
v -19.426695 15.074966 -8.460896
v -18.381140 9.800286 -8.238107
v -17.105383 4.386959 -7.806596
v -24.344126 0.227057 -10.523387
v -22.601017 0.219412 -8.771788
v -20.825808 0.044423 -6.820418
v -20.840527 17.700623 -9.204865
v -22.141808 19.131762 -9.790905
v -23.139668 17.918930 -11.846807
v -23.342777 5.103750 -15.088431
v -23.459152 10.160237 -15.166827
v -23.469820 15.256619 -15.339091
v -20.531069 5.136452 -17.924992
v -20.626673 10.256368 -18.071722
v -20.634962 15.480357 -18.362455
v -17.700508 5.081589 -20.742332
v -17.760578 10.127211 -20.909857
v -17.772108 15.235415 -21.173948
v -13.152463 5.034989 -21.833698
v -13.204125 10.028989 -22.004059
v -13.263524 15.098946 -22.251888
v -11.391841 5.078986 -20.134394
v -11.463114 10.153683 -20.339323
v -11.567554 15.374602 -20.683739
v -9.619347 5.095204 -18.414434
v -9.648660 10.193941 -18.639849
v -10.000236 15.293806 -18.936710
v -11.207099 6.934539 -13.877321
v -10.928239 9.910241 -14.177669
v -12.382170 15.480679 -14.549851
v -12.794122 5.094608 -10.744200
v -12.946897 9.936722 -10.189727
v -13.777765 17.015512 -12.559495
v -16.062874 4.751204 -8.582520
v -17.138498 11.393277 -9.266241
v -16.722107 16.020947 -10.406983
v -19.310173 5.045919 -7.531895
v -20.978914 12.313704 -9.139099
v -20.280788 16.066154 -8.964152
v -22.972980 5.461645 -8.509178
v -22.657595 9.904442 -8.647820
v -22.137529 15.665879 -9.013054
v -24.424839 5.065475 -10.526646
v -23.764353 8.600452 -10.864374
v -23.411745 12.048431 -11.214471
v -15.926558 0.266892 -18.963404
v -14.143292 0.290052 -17.251745
v -12.222648 0.312192 -15.533826
v -18.735926 0.290604 -16.153660
v -16.936686 0.311882 -14.431991
v -14.834121 0.320705 -12.684717
v -21.545883 0.274305 -13.335889
v -19.773251 0.279595 -11.593554
v -17.848204 0.181408 -9.723435
v -14.269672 20.152943 -16.343504
v -14.955835 20.323500 -18.058826
v -16.049669 20.196012 -19.717949
v -17.108147 21.398855 -13.706221
v -17.070557 21.904169 -15.961716
v -18.457834 20.118097 -17.059578
v -17.987852 21.551441 -11.105195
v -19.900009 21.307886 -12.302277
v -20.985798 19.442602 -14.152396
v -7.405376 0.206346 -28.575218
v -4.675877 17.065382 -27.256592
v 16.565035 0.192310 -25.085064
v 14.497629 17.884043 -24.781713
v -9.748756 0.300765 -18.577076
v -6.389567 19.029036 -21.645035
v 13.334754 0.312863 -15.520910
v 8.273058 20.393066 -19.042139
v 10.581616 0.235168 -25.967123
v 4.584243 0.255906 -26.844429
v -1.416097 0.244524 -27.713696
v -7.436996 5.003442 -28.631096
v -7.469163 9.915455 -28.720005
v -5.126925 13.635210 -27.510904
v -0.484066 17.879774 -26.805481
v 5.161193 18.313332 -26.159163
v 10.766558 18.569122 -25.569427
v 16.440170 14.856758 -25.234941
v 16.762913 9.870713 -25.233494
v 16.624409 4.972971 -25.138140
v 14.192672 0.243856 -17.898991
v 14.961040 0.233153 -20.322525
v 15.754257 0.216083 -22.714523
v 15.130219 19.389381 -23.325556
v 13.752479 19.713474 -21.478888
v 12.969673 19.975609 -19.448101
v 6.583294 17.504408 -17.262711
v 5.561863 12.897846 -16.583496
v 7.694319 5.641454 -16.239103
v -5.022905 0.029489 -16.977129
v 2.190989 -0.319627 -13.674816
v 7.774193 -0.528092 -15.271643
v 3.596548 21.912483 -15.624380
v 2.581365 22.968863 -15.546237
v -2.676474 22.967648 -19.562855
v -4.002268 15.511362 -21.142721
v -5.862350 9.875031 -19.971046
v -5.814745 4.386959 -18.631319
v -8.243374 0.227057 -26.202492
v -9.095999 0.219412 -23.793423
v -10.183746 0.044422 -21.250551
v -7.126645 18.275429 -22.562790
v -7.658798 19.543808 -23.953602
v -5.624613 18.081463 -25.892288
v -1.435492 5.103750 -27.793150
v -1.429058 10.160237 -27.933405
v -1.212239 15.256619 -28.034397
v 4.605667 5.136452 -26.930214
v 4.718791 10.256368 -27.089394
v 5.092807 15.480424 -27.251635
v 10.637244 5.081589 -26.041080
v 10.806997 10.127211 -26.181313
v 11.211483 15.332187 -26.341158
v 15.828572 5.034989 -22.778221
v 15.398804 10.035903 -22.876253
v 16.078997 15.454206 -23.101194
v 15.483012 5.340318 -20.421373
v 13.172565 10.602311 -20.448011
v 14.374864 16.000889 -20.780064
v 12.990247 5.765952 -17.922028
v 10.361780 13.097960 -18.001633
v 10.987904 16.806614 -18.422861
v 5.123085 8.797976 -16.867027
v 3.422249 11.619595 -16.644300
v 3.097777 18.605789 -17.415277
v 1.053053 6.100241 -16.572948
v -0.212653 10.745639 -16.380438
v -0.351637 20.840828 -17.201200
v -3.941311 4.760834 -18.164291
v -2.615186 11.569973 -19.531252
v -3.579810 18.681223 -19.764791
v -7.998192 5.045919 -20.348888
v -6.135342 12.351836 -22.688871
v -5.296189 16.555651 -22.059616
v -9.747643 5.461645 -23.967722
v -9.303428 9.904901 -23.775204
v -7.750247 15.767368 -23.574709
v -8.305865 5.065475 -26.272478
v -7.317182 8.600452 -25.894329
v -6.566950 12.048431 -25.783106
v 9.774332 0.266892 -23.591343
v 9.007240 0.290052 -21.169643
v 8.345575 0.312192 -18.628443
v 3.770235 0.290604 -24.466614
v 3.003242 0.311882 -22.026064
v 2.453597 0.320704 -19.315371
v -2.244866 0.274305 -25.338099
v -3.060934 0.279595 -22.909012
v -3.918321 0.181409 -20.282829
v 7.328084 21.966164 -20.048843
v 9.634787 21.487202 -22.362457
v 11.009329 20.805052 -24.150671
v 0.848495 23.134834 -19.313740
v 4.526769 22.957695 -22.028469
v 5.017325 20.774696 -24.738619
v -3.487067 23.244221 -21.119608
v -2.973784 22.366547 -23.404570
v -1.093676 19.991138 -25.305511
v 20.291784 0.206345 -15.107214
v 19.873320 17.052546 -12.108393
v 23.879309 0.192310 6.289281
v 22.916559 17.496456 4.610869
v 13.258045 0.488913 -11.176207
v 12.304155 18.044142 -10.972721
v 13.208045 -2.451116 5.564274
v 14.896181 18.207016 4.035891
v 22.993580 0.235169 0.941815
v 22.099653 0.255906 -4.414020
v 21.197653 0.244524 -9.767403
v 20.333223 5.003442 -15.166323
v 20.404249 9.915455 -15.245766
v 19.973150 13.635210 -12.632166
v 20.667032 17.747688 -8.393652
v 21.641672 18.105131 -3.515069
v 22.594687 18.240398 1.162746
v 23.957926 14.769548 6.061666
v 24.068521 9.870713 6.359153
v 23.943773 4.972971 6.305102
v 15.545717 -2.377337 7.194242
v 19.021114 -0.131132 7.807014
v 21.517117 0.216082 7.064540
v 21.783087 18.773092 6.028705
v 19.448088 18.731018 6.162428
v 16.357214 18.574774 6.174276
v 14.464835 16.057310 6.770283
v 15.153703 11.614178 8.257259
v 14.846412 6.011151 6.915360
v 11.060490 -0.336920 -5.636378
v 10.677336 -1.419579 1.909943
v 11.935074 -2.694405 3.124506
v 14.661649 19.356298 -0.186941
v 14.685196 20.236273 -1.370831
v 14.083501 20.554268 -4.908140
v 12.615250 14.921367 -11.126257
v 12.825616 9.800286 -9.020193
v 12.021786 4.798216 -7.808664
v 17.919981 0.227057 -14.352549
v 15.511342 0.219412 -13.587765
v 13.827522 0.406045 -12.476488
v 13.844641 17.742458 -11.888428
v 16.133121 19.131762 -12.301407
v 18.405634 17.918930 -11.967499
v 21.263750 5.103750 -9.830870
v 21.391851 10.160237 -9.910173
v 21.543669 15.256619 -9.796482
v 22.182913 5.136452 -4.448447
v 22.358007 10.256368 -4.453270
v 22.609093 15.480357 -4.249978
v 23.075794 5.081589 0.942046
v 23.249731 10.127211 0.994214
v 23.479921 15.235415 1.174178
v 21.595339 5.034989 7.085987
v 21.767233 10.028989 7.150112
v 22.008955 15.098946 7.261912
v 19.218149 5.071556 7.907401
v 18.860928 9.745593 8.066301
v 19.198006 15.458929 8.039367
v 16.706808 4.743706 8.025469
v 15.967892 10.090200 9.233503
v 16.365410 16.028172 8.728396
v 13.753057 6.774532 3.580897
v 13.542103 9.792998 4.024352
v 14.669611 15.565619 2.676764
v 13.289907 5.896693 -0.054292
v 11.606204 9.936722 -1.204561
v 12.980754 17.343285 -0.957811
v 12.100556 4.949419 -5.971803
v 13.040505 11.393277 -6.806645
v 12.448825 15.560187 -6.170458
v 12.717950 5.045919 -10.629341
v 14.632631 12.043726 -12.242567
v 13.239278 16.110161 -11.476698
v 15.485326 5.461645 -14.217270
v 14.786602 9.344204 -15.430845
v 15.470820 15.665879 -12.866350
v 17.965454 5.065475 -14.445002
v 17.902544 8.600452 -13.421419
v 18.013039 12.048431 -12.750549
v 20.627647 0.266892 1.723043
v 18.186905 0.153547 2.541855
v 14.655070 -2.435152 2.970301
v 19.730001 0.290604 -3.636979
v 17.317060 0.311882 -2.784307
v 14.580235 0.013324 -1.666949
v 18.825853 0.274305 -9.003576
v 16.409458 0.279595 -8.197311
v 13.815519 0.201397 -7.304196
v 16.507019 19.793940 1.364229
v 19.291208 20.308329 2.179113
v 21.333050 20.196012 2.131271
v 16.372728 21.227173 -3.671108
v 18.631462 21.881865 -1.840656
v 20.351561 20.118097 -2.646393
v 15.043324 21.548563 -6.459773
v 17.077908 21.307886 -7.826948
v 19.222334 19.442602 -7.747145
vn -0.9137 0.0005 0.4065
vn -0.9131 0.0004 0.4076
vn -0.9133 0.0004 0.4074
vn -0.9143 0.0014 0.4050
vn -0.9141 0.0010 0.4056
vn -0.9141 0.0007 0.4056
vn -0.8058 0.1205 0.5798
vn -0.7151 0.2221 0.6628
vn -0.8357 0.3952 0.3814
vn -0.8424 0.3291 0.4268
vn -0.9003 0.3041 0.3116
vn -0.9238 0.0194 0.3824
vn -0.9131 0.0002 0.4078
vn -0.9132 0.0006 0.4075
vn -0.9134 0.0008 0.4071
vn -0.9137 0.0010 0.4063
vn -0.4247 -0.0005 -0.9053
vn -0.4242 0.0062 -0.9055
vn -0.4321 -0.0046 -0.9018
vn -0.4035 0.0223 -0.9147
vn -0.4128 -0.0009 -0.9108
vn -0.4141 -0.0002 -0.9102
vn -0.4776 0.0316 -0.8780
vn -0.7086 0.3283 -0.6246
vn -0.2786 0.2843 -0.9174
vn -0.2495 0.3821 -0.8898
vn 0.7790 0.3925 -0.4889
vn 0.3356 0.0684 -0.9395
vn 0.2044 0.0030 -0.9789
vn -0.1373 0.0958 -0.9859
vn -0.4244 -0.0031 -0.9055
vn -0.4210 -0.0025 -0.9071
vn 0.8570 -0.0876 -0.5079
vn 0.9065 0.0823 -0.4140
vn 0.9327 -0.0366 -0.3587
vn 0.9149 0.1362 -0.3800
vn 0.7838 0.1318 -0.6069
vn 0.8338 0.0057 -0.5521
vn 0.7992 0.0536 -0.5986
vn 0.1469 0.8862 -0.4394
vn 0.8739 0.2128 -0.4370
vn 0.8904 0.0289 -0.4542
vn 0.9927 0.1111 0.0480
vn 0.9992 0.0379 -0.0144
vn 0.9959 0.0691 0.0590
vn 0.9394 0.2284 -0.2558
vn 0.9474 0.2755 -0.1629
vn 0.6077 0.2070 -0.7667
vn 0.8746 0.1081 0.4727
vn 0.9355 -0.0509 0.3496
vn 0.1625 0.1382 0.9770
vn 0.0623 0.1285 0.9898
vn 0.6638 0.3834 0.6422
vn 0.9204 0.1186 0.3726
vn 0.6558 -0.0980 0.7486
vn 0.7937 0.0769 0.6034
vn 0.8239 0.0922 0.5592
vn 0.1556 0.0249 0.9875
vn 0.2810 0.0488 0.9585
vn 0.6412 0.2086 0.7385
vn 0.5648 0.0638 0.8227
vn 0.4111 0.0010 0.9116
vn 0.3447 -0.0236 0.9384
vn 0.6624 0.0761 0.7452
vn -0.0014 -1.0000 -0.0017
vn 0.0022 -1.0000 -0.0077
vn -0.0077 -1.0000 -0.0011
vn -0.0354 -0.9993 -0.0117
vn -0.0001 -1.0000 -0.0003
vn 0.0008 -1.0000 -0.0008
vn 0.0071 -1.0000 -0.0016
vn -0.2231 -0.9736 -0.0490
vn -0.1375 -0.9739 0.1804
vn -0.2529 -0.9673 -0.0173
vn -0.3339 -0.9395 0.0759
vn -0.0747 -0.9971 0.0145
vn -0.0125 -0.9999 0.0032
vn -0.0033 -1.0000 0.0009
vn -0.0023 -1.0000 -0.0001
vn -0.0009 -1.0000 -0.0004
vn 0.6582 0.5391 -0.5255
vn -0.3521 0.9209 0.1672
vn 0.3979 0.8006 -0.4481
vn -0.5972 0.7296 0.3332
vn 0.7880 0.3560 -0.5024
vn 0.5807 0.6692 -0.4636
vn -0.0935 0.8537 -0.5123
vn -0.7955 0.5864 0.1528
vn -0.6454 0.6045 0.4668
vn -0.6574 0.6609 0.3621
vn -0.4670 0.7556 0.4593
vn -0.4592 0.6574 0.5974
vn 0.7905 0.5078 0.3424
vn 0.9251 0.2752 0.2617
vn 0.5740 0.6045 -0.5523
vn 0.4327 0.3875 -0.8140
vn -0.7125 -0.0303 -0.7011
vn -0.7216 -0.0324 -0.6916
vn -0.7047 -0.0327 -0.7088
vn -0.7029 -0.0395 -0.7102
vn -0.7111 -0.0130 -0.7029
vn -0.7176 -0.0222 -0.6961
vn -0.8365 0.1238 -0.5337
vn -0.8772 0.2583 -0.4048
vn -0.6921 0.3973 -0.6026
vn -0.6772 0.3234 -0.6609
vn -0.5570 0.3073 -0.7716
vn -0.6685 -0.0132 -0.7436
vn -0.6982 -0.0277 -0.7154
vn -0.7038 -0.0146 -0.7103
vn -0.7061 -0.0171 -0.7080
vn -0.7090 -0.0166 -0.7050
vn 0.6931 -0.0184 -0.7206
vn 0.6867 -0.0309 -0.7263
vn 0.6900 -0.0238 -0.7234
vn 0.7137 -0.0120 -0.7004
vn 0.7027 -0.0062 -0.7115
vn 0.6993 -0.0155 -0.7147
vn 0.6335 0.0085 -0.7737
vn 0.2809 0.3376 -0.8984
vn 0.6905 0.2984 -0.6589
vn 0.7086 0.3666 -0.6030
vn 0.8492 0.4534 0.2707
vn 0.9938 0.1099 0.0154
vn 0.9902 0.0221 -0.1379
vn 0.8691 0.1365 -0.4755
vn 0.6945 -0.0089 -0.7194
vn 0.6968 -0.0086 -0.7172
vn 0.8947 -0.0289 0.4457
vn 0.8675 0.2499 0.4301
vn 0.3882 0.0519 0.9201
vn 0.3954 0.2766 0.8758
vn 0.8309 0.2056 0.5171
vn 0.8136 0.0418 0.5799
vn 0.7719 0.1963 0.6047
vn 0.7108 0.3738 0.5959
vn 0.8668 0.4129 0.2797
vn 0.6716 0.2863 0.6834
vn 0.4432 0.2217 0.8686
vn 0.5324 0.1486 0.8334
vn 0.5116 0.1776 0.8407
vn 0.5474 0.3461 0.7619
vn 0.4433 0.3633 0.8195
vn 0.8761 0.3349 0.3469
vn -0.1380 0.1304 0.9818
vn 0.1207 0.0044 0.9927
vn -0.8711 0.1348 0.4723
vn -0.9226 0.1160 0.3680
vn -0.3514 0.4832 0.8019
vn -0.0283 0.1523 0.9879
vn -0.3854 -0.0099 0.9227
vn -0.0458 0.2494 0.9673
vn -0.1373 0.1794 0.9742
vn -0.9160 0.0855 0.3919
vn -0.8300 0.1019 0.5484
vn -0.5180 0.2690 0.8120
vn -0.5908 0.0751 0.8033
vn -0.7116 -0.0091 0.7025
vn -0.7592 -0.0508 0.6488
vn -0.4646 0.0905 0.8809
vn 0.0024 -0.9999 0.0105
vn 0.0017 -1.0000 0.0070
vn 0.0080 -1.0000 -0.0006
vn 0.0023 -0.9996 -0.0273
vn -0.0003 -0.9999 0.0165
vn -0.0037 -0.9999 0.0156
vn -0.0063 -0.9998 0.0163
vn -0.0379 -0.9871 -0.1553
vn -0.1658 -0.9851 -0.0466
vn -0.0597 -0.9832 -0.1726
vn -0.1260 -0.9684 -0.2154
vn -0.0187 -0.9984 -0.0533
vn 0.0092 -0.9999 -0.0099
vn 0.0150 -0.9999 -0.0003
vn 0.0118 -0.9999 0.0069
vn 0.0057 -0.9999 0.0136
vn 0.5348 0.8431 0.0562
vn -0.1790 0.8764 -0.4472
vn 0.0043 0.9973 0.0733
vn -0.6102 0.7050 -0.3613
vn 0.6836 0.6318 0.3653
vn 0.3938 0.9023 -0.1753
vn 0.3576 0.8897 -0.2838
vn -0.3463 0.5547 -0.7566
vn -0.6145 0.5804 -0.5343
vn -0.6374 0.6220 -0.4547
vn -0.6555 0.7175 -0.2356
vn -0.7249 0.6736 -0.1441
vn -0.1578 0.6667 0.7285
vn 0.2394 0.3206 0.9164
vn 0.4318 0.8807 0.1948
vn 0.5638 0.8256 -0.0230
vn 0.1389 -0.0308 -0.9898
vn 0.1303 -0.0327 -0.9909
vn 0.1461 -0.0332 -0.9887
vn 0.1463 -0.0414 -0.9884
vn 0.1405 -0.0131 -0.9900
vn 0.1343 -0.0224 -0.9907
vn 0.0030 0.1238 -0.9923
vn -0.0845 0.2526 -0.9639
vn 0.0893 0.3789 -0.9211
vn 0.1185 0.2982 -0.9471
vn 0.2326 0.2713 -0.9340
vn 0.1795 -0.0170 -0.9836
vn 0.1522 -0.0281 -0.9879
vn 0.1473 -0.0148 -0.9890
vn 0.1452 -0.0174 -0.9893
vn 0.1424 -0.0168 -0.9897
vn 0.8729 0.2382 0.4258
vn 0.7553 -0.0981 0.6480
vn 0.7334 0.2928 0.6135
vn 0.5940 -0.0529 0.8027
vn 0.9468 -0.0093 0.3217
vn 0.9093 0.0349 0.4147
vn 0.9318 -0.0241 0.3621
vn 0.8814 0.3755 -0.2866
vn 0.8047 0.2313 0.5467
vn 0.7280 0.0278 0.6850
vn 0.1980 0.3104 0.9297
vn 0.2727 0.0729 0.9593
vn 0.2879 0.1216 0.9499
vn 0.5085 0.3737 0.7757
vn 0.8346 0.0597 0.5476
vn 0.9701 -0.0544 0.2363
vn 0.0826 -0.0226 0.9963
vn 0.0851 0.0947 0.9919
vn -0.5420 0.0885 0.8357
vn -0.7120 -0.0026 0.7022
vn -0.0019 0.1549 0.9879
vn -0.1642 -0.0506 0.9851
vn -0.0416 0.1265 0.9911
vn 0.3352 -0.1202 0.9344
vn -0.2417 -0.4061 0.8813
vn -0.6298 0.1564 0.7608
vn -0.5610 -0.0749 0.8244
vn -0.5726 0.1295 0.8095
vn -0.2602 0.2333 0.9370
vn -0.2899 0.2932 0.9110
vn -0.3749 0.3172 0.8711
vn 0.1092 0.2970 0.9486
vn -0.7215 0.2590 0.6422
vn -0.4333 0.0287 0.9008
vn -0.7430 0.1796 -0.6448
vn -0.6734 0.1905 -0.7143
vn -0.7452 0.4564 0.4862
vn -0.7418 0.2804 0.6091
vn -0.7806 0.2458 0.5746
vn -0.6463 -0.3951 0.6528
vn -0.7022 -0.1093 0.7035
vn -0.7594 0.0477 -0.6488
vn -0.7962 0.1263 -0.5918
vn -0.9177 0.3971 -0.0065
vn -0.9873 0.1155 -0.1086
vn -0.9406 -0.0136 -0.3391
vn -0.8991 -0.0741 -0.4315
vn -0.9832 0.1388 0.1189
vn -0.0049 -1.0000 0.0076
vn -0.0032 -1.0000 0.0052
vn 0.0031 -1.0000 0.0065
vn 0.0157 -0.9998 -0.0126
vn -0.0091 -0.9999 0.0086
vn -0.0098 -0.9999 0.0052
vn -0.0111 -0.9999 0.0034
vn 0.0720 -0.9907 -0.1153
vn -0.0317 -0.9858 -0.1652
vn 0.0118 -0.9962 -0.0864
vn -0.0159 -0.9998 0.0157
vn 0.0227 -0.9988 -0.0443
vn 0.0086 -1.0000 0.0025
vn 0.0053 -0.9999 0.0125
vn 0.0003 -0.9999 0.0137
vn -0.0055 -0.9999 0.0121
vn 0.2328 0.9606 0.1517
vn 0.1229 0.8594 -0.4964
vn 0.0128 0.9805 -0.1961
vn 0.0268 0.7178 -0.6958
vn 0.3980 0.6520 0.6453
vn 0.3469 0.9338 0.0874
vn 0.3586 0.9334 0.0131
vn 0.3049 0.5344 -0.7883
vn 0.0740 0.5147 -0.8541
vn 0.0306 0.5416 -0.8401
vn -0.1098 0.6410 -0.7596
vn -0.2019 0.5821 -0.7876
vn -0.6913 0.7182 0.0799
vn -0.7794 0.4876 0.3935
vn -0.0548 0.9926 0.1087
vn 0.2929 0.9512 0.0970
vn 0.9848 -0.0308 -0.1709
vn 0.9830 -0.0328 -0.1805
vn 0.9861 -0.0331 -0.1629
vn 0.9861 -0.0400 -0.1612
vn 0.9855 -0.0131 -0.1694
vn 0.9841 -0.0225 -0.1762
vn 0.9374 0.1296 -0.3231
vn 0.8681 0.2776 -0.4115
vn 0.8931 0.4044 -0.1973
vn 0.9305 0.3273 -0.1644
vn 0.9504 0.3076 -0.0466
vn 0.9919 -0.0133 -0.1264
vn 0.9873 -0.0280 -0.1562
vn 0.9867 -0.0148 -0.1618
vn 0.9863 -0.0174 -0.1641
vn 0.9858 -0.0168 -0.1672
vn 0.3130 -0.0159 0.9496
vn 0.2837 -0.0228 0.9586
vn 0.2297 -0.1068 0.9674
vn 0.3117 0.0237 0.9499
vn 0.3135 -0.0083 0.9495
vn 0.3193 -0.0209 0.9474
vn 0.4253 0.0113 0.9050
vn 0.7057 0.3882 0.5927
vn 0.1837 0.4012 0.8974
vn 0.1352 0.5967 0.7910
vn -0.6436 0.5971 0.4788
vn -0.6977 0.1161 0.7069
vn -0.7171 -0.1848 0.6720
vn -0.5501 -0.0181 0.8349
vn -0.0524 -0.0695 0.9962
vn 0.3067 -0.0200 0.9516
vn -0.9359 -0.2240 0.2719
vn -0.8901 0.2031 0.4080
vn -0.9969 -0.0754 -0.0245
vn -0.9936 0.0737 -0.0851
vn -0.9122 0.1369 0.3862
vn -0.9372 -0.0607 0.3435
vn -0.9862 0.0822 0.1438
vn -0.9967 0.0804 0.0099
vn -0.7496 0.4349 0.4989
vn -0.9216 0.3842 0.0551
vn -0.9844 0.1425 0.1034
vn -0.9962 -0.0810 0.0319
vn -0.9884 0.1517 0.0063
vn -0.9606 0.0656 -0.2699
vn -0.9557 0.2880 0.0601
vn -0.9007 0.2684 0.3416
vn -0.9183 -0.0002 -0.3958
vn -0.8495 0.1076 -0.5166
vn 0.3046 0.0069 -0.9524
vn 0.4960 0.2364 -0.8355
vn -0.9522 -0.0774 -0.2955
vn -0.9339 0.1335 -0.3318
vn -0.6943 -0.2211 -0.6848
vn -0.4999 -0.0161 -0.8659
vn -0.3899 0.1244 -0.9124
vn 0.2078 0.1167 -0.9712
vn -0.0360 0.1404 -0.9894
vn -0.5193 0.3367 -0.7855
vn -0.4807 0.0979 -0.8714
vn -0.2975 -0.0123 -0.9546
vn -0.2038 -0.0695 -0.9765
vn -0.7260 0.0013 -0.6877
vn 0.0124 -0.9997 -0.0191
vn 0.3477 -0.8985 -0.2680
vn -0.0037 -1.0000 0.0051
vn 0.0617 -0.9978 -0.0234
vn -0.0139 -0.9999 -0.0065
vn 0.0789 -0.9959 -0.0443
vn 0.5658 -0.8154 -0.1223
vn 0.0581 -0.9980 0.0262
vn -0.0775 -0.8491 -0.5226
vn 0.2094 -0.9727 -0.0998
vn 0.0623 -0.9946 -0.0828
vn -0.0305 -0.9995 -0.0111
vn 0.0036 -0.9999 0.0094
vn -0.0077 -0.9999 0.0093
vn -0.0121 -0.9999 0.0046
vn -0.0146 -0.9999 -0.0017
vn -0.3708 0.8712 0.3218
vn 0.4572 0.8870 0.0655
vn -0.0963 0.9953 0.0030
vn 0.6409 0.7300 -0.2374
vn -0.4638 0.8559 0.2288
vn -0.1485 0.9424 0.2998
vn 0.0297 0.9349 0.3536
vn 0.8275 0.5562 0.0771
vn 0.7894 0.5885 -0.1748
vn 0.7393 0.6359 -0.2217
vn 0.5729 0.7518 -0.3265
vn 0.5452 0.7259 -0.4193
vn -0.3889 0.8234 -0.4132
vn -0.5207 0.7980 -0.3036
vn -0.3769 0.9030 0.2063
vn -0.2903 0.8952 0.3381
vt 0.437500 0.062500
vt 0.500000 0.062500
vt 0.500000 0.125000
vt 0.437500 0.125000
vt 0.562500 0.062500
vt 0.562500 0.125000
vt 0.500000 0.187500
vt 0.437500 0.187500
vt 0.562500 0.187500
vt 0.375000 0.000000
vt 0.437500 0.000000
vt 0.375000 0.062500
vt 0.500000 0.000000
vt 0.562500 0.000000
vt 0.625000 0.000000
vt 0.625000 0.062500
vt 0.625000 0.125000
vt 0.625000 0.187500
vt 0.625000 0.250000
vt 0.562500 0.250000
vt 0.500000 0.250000
vt 0.437500 0.250000
vt 0.375000 0.187500
vt 0.375000 0.250000
vt 0.375000 0.125000
vt 0.437500 0.312500
vt 0.500000 0.312500
vt 0.500000 0.375000
vt 0.437500 0.375000
vt 0.562500 0.312500
vt 0.562500 0.375000
vt 0.500000 0.437500
vt 0.437500 0.437500
vt 0.562500 0.437500
vt 0.375000 0.312500
vt 0.625000 0.312500
vt 0.625000 0.375000
vt 0.625000 0.437500
vt 0.625000 0.500000
vt 0.562500 0.500000
vt 0.500000 0.500000
vt 0.437500 0.500000
vt 0.375000 0.437500
vt 0.375000 0.500000
vt 0.375000 0.375000
vt 0.437500 0.562500
vt 0.500000 0.562500
vt 0.500000 0.625000
vt 0.437500 0.625000
vt 0.562500 0.562500
vt 0.562500 0.625000
vt 0.500000 0.687500
vt 0.437500 0.687500
vt 0.562500 0.687500
vt 0.375000 0.562500
vt 0.625000 0.562500
vt 0.625000 0.625000
vt 0.625000 0.687500
vt 0.625000 0.750000
vt 0.562500 0.750000
vt 0.500000 0.750000
vt 0.437500 0.750000
vt 0.375000 0.687500
vt 0.375000 0.750000
vt 0.375000 0.625000
vt 0.437500 0.812500
vt 0.500000 0.812500
vt 0.500000 0.875000
vt 0.437500 0.875000
vt 0.562500 0.812500
vt 0.562500 0.875000
vt 0.500000 0.937500
vt 0.437500 0.937500
vt 0.562500 0.937500
vt 0.375000 0.812500
vt 0.625000 0.812500
vt 0.625000 0.875000
vt 0.625000 0.937500
vt 0.625000 1.000000
vt 0.562500 1.000000
vt 0.500000 1.000000
vt 0.437500 1.000000
vt 0.375000 0.937500
vt 0.375000 1.000000
vt 0.375000 0.875000
vt 0.187500 0.562500
vt 0.250000 0.562500
vt 0.250000 0.625000
vt 0.187500 0.625000
vt 0.312500 0.562500
vt 0.312500 0.625000
vt 0.250000 0.687500
vt 0.187500 0.687500
vt 0.312500 0.687500
vt 0.125000 0.500000
vt 0.187500 0.500000
vt 0.125000 0.562500
vt 0.250000 0.500000
vt 0.312500 0.500000
vt 0.312500 0.750000
vt 0.250000 0.750000
vt 0.187500 0.750000
vt 0.125000 0.687500
vt 0.125000 0.750000
vt 0.125000 0.625000
vt 0.687500 0.562500
vt 0.750000 0.562500
vt 0.750000 0.625000
vt 0.687500 0.625000
vt 0.812500 0.562500
vt 0.812500 0.625000
vt 0.750000 0.687500
vt 0.687500 0.687500
vt 0.812500 0.687500
vt 0.687500 0.500000
vt 0.750000 0.500000
vt 0.812500 0.500000
vt 0.875000 0.500000
vt 0.875000 0.562500
vt 0.875000 0.625000
vt 0.875000 0.687500
vt 0.875000 0.750000
vt 0.812500 0.750000
vt 0.750000 0.750000
vt 0.687500 0.750000
s 0
f 45/1/1 46/2/1 49/3/1 48/4/1
f 46/2/2 47/5/2 50/6/2 49/3/2
f 48/4/3 49/3/3 52/7/3 51/8/3
f 49/3/4 50/6/4 53/9/4 52/7/4
f 1/10/5 12/11/5 45/1/5 11/12/5
f 12/11/6 13/13/6 46/2/6 45/1/6
f 13/13/7 14/14/7 47/5/7 46/2/7
f 14/14/8 2/15/8 15/16/8 47/5/8
f 47/5/9 15/16/9 16/17/9 50/6/9
f 50/6/10 16/17/10 17/18/10 53/9/10
f 53/9/11 17/18/11 4/19/11 18/20/11
f 52/7/12 53/9/12 18/20/12 19/21/12
f 51/8/13 52/7/13 19/21/13 20/22/13
f 9/23/14 51/8/14 20/22/14 3/24/14
f 10/25/15 48/4/15 51/8/15 9/23/15
f 11/12/16 45/1/16 48/4/16 10/25/16
f 54/26/17 55/27/17 58/28/17 57/29/17
f 55/27/18 56/30/18 59/31/18 58/28/18
f 57/29/19 58/28/19 61/32/19 60/33/19
f 58/28/20 59/31/20 62/34/20 61/32/20
f 3/24/21 20/22/21 54/26/21 23/35/21
f 20/22/22 19/21/22 55/27/22 54/26/22
f 19/21/23 18/20/23 56/30/23 55/27/23
f 18/20/24 4/19/24 24/36/24 56/30/24
f 56/30/25 24/36/25 25/37/25 59/31/25
f 59/31/26 25/37/26 26/38/26 62/34/26
f 62/34/27 26/38/27 8/39/27 27/40/27
f 61/32/28 62/34/28 27/40/28 28/41/28
f 60/33/29 61/32/29 28/41/29 29/42/29
f 21/43/30 60/33/30 29/42/30 7/44/30
f 22/45/31 57/29/31 60/33/31 21/43/31
f 23/35/32 54/26/32 57/29/32 22/45/32
f 63/46/33 64/47/33 67/48/33 66/49/33
f 64/47/34 65/50/34 68/51/34 67/48/34
f 66/49/35 67/48/35 70/52/35 69/53/35
f 67/48/36 68/51/36 71/54/36 70/52/36
f 7/44/37 29/42/37 63/46/37 32/55/37
f 29/42/38 28/41/38 64/47/38 63/46/38
f 28/41/39 27/40/39 65/50/39 64/47/39
f 27/40/40 8/39/40 33/56/40 65/50/40
f 65/50/41 33/56/41 34/57/41 68/51/41
f 68/51/42 34/57/42 35/58/42 71/54/42
f 71/54/43 35/58/43 6/59/43 36/60/43
f 70/52/44 71/54/44 36/60/44 37/61/44
f 69/53/45 70/52/45 37/61/45 38/62/45
f 30/63/46 69/53/46 38/62/46 5/64/46
f 31/65/47 66/49/47 69/53/47 30/63/47
f 32/55/48 63/46/48 66/49/48 31/65/48
f 72/66/49 73/67/49 76/68/49 75/69/49
f 73/67/50 74/70/50 77/71/50 76/68/50
f 75/69/51 76/68/51 79/72/51 78/73/51
f 76/68/52 77/71/52 80/74/52 79/72/52
f 5/64/53 38/62/53 72/66/53 41/75/53
f 38/62/54 37/61/54 73/67/54 72/66/54
f 37/61/55 36/60/55 74/70/55 73/67/55
f 36/60/56 6/59/56 42/76/56 74/70/56
f 74/70/57 42/76/57 43/77/57 77/71/57
f 77/71/58 43/77/58 44/78/58 80/74/58
f 80/74/59 44/78/59 2/79/59 14/80/59
f 79/72/60 80/74/60 14/80/60 13/81/60
f 78/73/61 79/72/61 13/81/61 12/82/61
f 39/83/62 78/73/62 12/82/62 1/84/62
f 40/85/63 75/69/63 78/73/63 39/83/63
f 41/75/64 72/66/64 75/69/64 40/85/64
f 81/86/65 82/87/65 85/88/65 84/89/65
f 82/87/66 83/90/66 86/91/66 85/88/66
f 84/89/67 85/88/67 88/92/67 87/93/67
f 85/88/68 86/91/68 89/94/68 88/92/68
f 3/95/69 23/96/69 81/86/69 9/97/69
f 23/96/70 22/98/70 82/87/70 81/86/70
f 22/98/71 21/99/71 83/90/71 82/87/71
f 21/99/72 7/44/72 32/55/72 83/90/72
f 83/90/73 32/55/73 31/65/73 86/91/73
f 86/91/74 31/65/74 30/63/74 89/94/74
f 89/94/75 30/63/75 5/64/75 41/100/75
f 88/92/76 89/94/76 41/100/76 40/101/76
f 87/93/77 88/92/77 40/101/77 39/102/77
f 11/103/78 87/93/78 39/102/78 1/104/78
f 10/105/79 84/89/79 87/93/79 11/103/79
f 9/97/80 81/86/80 84/89/80 10/105/80
f 90/106/81 91/107/81 94/108/81 93/109/81
f 91/107/82 92/110/82 95/111/82 94/108/82
f 93/109/83 94/108/83 97/112/83 96/113/83
f 94/108/84 95/111/84 98/114/84 97/112/84
f 8/39/85 26/115/85 90/106/85 33/56/85
f 26/115/86 25/116/86 91/107/86 90/106/86
f 25/116/87 24/117/87 92/110/87 91/107/87
f 24/117/88 4/118/88 17/119/88 92/110/88
f 92/110/89 17/119/89 16/120/89 95/111/89
f 95/111/90 16/120/90 15/121/90 98/114/90
f 98/114/91 15/121/91 2/122/91 44/123/91
f 97/112/92 98/114/92 44/123/92 43/124/92
f 96/113/93 97/112/93 43/124/93 42/125/93
f 35/58/94 96/113/94 42/125/94 6/59/94
f 34/57/95 93/109/95 96/113/95 35/58/95
f 33/56/96 90/106/96 93/109/96 34/57/96
f 143/1/97 144/2/97 147/3/97 146/4/97
f 144/2/98 145/5/98 148/6/98 147/3/98
f 146/4/99 147/3/99 150/7/99 149/8/99
f 147/3/100 148/6/100 151/9/100 150/7/100
f 99/10/101 110/11/101 143/1/101 109/12/101
f 110/11/102 111/13/102 144/2/102 143/1/102
f 111/13/103 112/14/103 145/5/103 144/2/103
f 112/14/104 100/15/104 113/16/104 145/5/104
f 145/5/105 113/16/105 114/17/105 148/6/105
f 148/6/106 114/17/106 115/18/106 151/9/106
f 151/9/107 115/18/107 102/19/107 116/20/107
f 150/7/108 151/9/108 116/20/108 117/21/108
f 149/8/109 150/7/109 117/21/109 118/22/109
f 107/23/110 149/8/110 118/22/110 101/24/110
f 108/25/111 146/4/111 149/8/111 107/23/111
f 109/12/112 143/1/112 146/4/112 108/25/112
f 152/26/113 153/27/113 156/28/113 155/29/113
f 153/27/114 154/30/114 157/31/114 156/28/114
f 155/29/115 156/28/115 159/32/115 158/33/115
f 156/28/116 157/31/116 160/34/116 159/32/116
f 101/24/117 118/22/117 152/26/117 121/35/117
f 118/22/118 117/21/118 153/27/118 152/26/118
f 117/21/119 116/20/119 154/30/119 153/27/119
f 116/20/120 102/19/120 122/36/120 154/30/120
f 154/30/121 122/36/121 123/37/121 157/31/121
f 157/31/122 123/37/122 124/38/122 160/34/122
f 160/34/123 124/38/123 106/39/123 125/40/123
f 159/32/124 160/34/124 125/40/124 126/41/124
f 158/33/125 159/32/125 126/41/125 127/42/125
f 119/43/126 158/33/126 127/42/126 105/44/126
f 120/45/127 155/29/127 158/33/127 119/43/127
f 121/35/128 152/26/128 155/29/128 120/45/128
f 161/46/129 162/47/129 165/48/129 164/49/129
f 162/47/130 163/50/130 166/51/130 165/48/130
f 164/49/131 165/48/131 168/52/131 167/53/131
f 165/48/132 166/51/132 169/54/132 168/52/132
f 105/44/133 127/42/133 161/46/133 130/55/133
f 127/42/134 126/41/134 162/47/134 161/46/134
f 126/41/135 125/40/135 163/50/135 162/47/135
f 125/40/136 106/39/136 131/56/136 163/50/136
f 163/50/137 131/56/137 132/57/137 166/51/137
f 166/51/138 132/57/138 133/58/138 169/54/138
f 169/54/139 133/58/139 104/59/139 134/60/139
f 168/52/140 169/54/140 134/60/140 135/61/140
f 167/53/141 168/52/141 135/61/141 136/62/141
f 128/63/142 167/53/142 136/62/142 103/64/142
f 129/65/143 164/49/143 167/53/143 128/63/143
f 130/55/144 161/46/144 164/49/144 129/65/144
f 170/66/145 171/67/145 174/68/145 173/69/145
f 171/67/146 172/70/146 175/71/146 174/68/146
f 173/69/147 174/68/147 177/72/147 176/73/147
f 174/68/148 175/71/148 178/74/148 177/72/148
f 103/64/149 136/62/149 170/66/149 139/75/149
f 136/62/150 135/61/150 171/67/150 170/66/150
f 135/61/151 134/60/151 172/70/151 171/67/151
f 134/60/152 104/59/152 140/76/152 172/70/152
f 172/70/153 140/76/153 141/77/153 175/71/153
f 175/71/154 141/77/154 142/78/154 178/74/154
f 178/74/155 142/78/155 100/79/155 112/80/155
f 177/72/156 178/74/156 112/80/156 111/81/156
f 176/73/157 177/72/157 111/81/157 110/82/157
f 137/83/158 176/73/158 110/82/158 99/84/158
f 138/85/159 173/69/159 176/73/159 137/83/159
f 139/75/160 170/66/160 173/69/160 138/85/160
f 179/86/161 180/87/161 183/88/161 182/89/161
f 180/87/162 181/90/162 184/91/162 183/88/162
f 182/89/163 183/88/163 186/92/163 185/93/163
f 183/88/164 184/91/164 187/94/164 186/92/164
f 101/95/165 121/96/165 179/86/165 107/97/165
f 121/96/166 120/98/166 180/87/166 179/86/166
f 120/98/167 119/99/167 181/90/167 180/87/167
f 119/99/168 105/44/168 130/55/168 181/90/168
f 181/90/169 130/55/169 129/65/169 184/91/169
f 184/91/170 129/65/170 128/63/170 187/94/170
f 187/94/171 128/63/171 103/64/171 139/100/171
f 186/92/172 187/94/172 139/100/172 138/101/172
f 185/93/173 186/92/173 138/101/173 137/102/173
f 109/103/174 185/93/174 137/102/174 99/104/174
f 108/105/175 182/89/175 185/93/175 109/103/175
f 107/97/176 179/86/176 182/89/176 108/105/176
f 188/106/177 189/107/177 192/108/177 191/109/177
f 189/107/178 190/110/178 193/111/178 192/108/178
f 191/109/179 192/108/179 195/112/179 194/113/179
f 192/108/180 193/111/180 196/114/180 195/112/180
f 106/39/181 124/115/181 188/106/181 131/56/181
f 124/115/182 123/116/182 189/107/182 188/106/182
f 123/116/183 122/117/183 190/110/183 189/107/183
f 122/117/184 102/118/184 115/119/184 190/110/184
f 190/110/185 115/119/185 114/120/185 193/111/185
f 193/111/186 114/120/186 113/121/186 196/114/186
f 196/114/187 113/121/187 100/122/187 142/123/187
f 195/112/188 196/114/188 142/123/188 141/124/188
f 194/113/189 195/112/189 141/124/189 140/125/189
f 133/58/190 194/113/190 140/125/190 104/59/190
f 132/57/191 191/109/191 194/113/191 133/58/191
f 131/56/192 188/106/192 191/109/192 132/57/192
f 241/1/193 242/2/193 245/3/193 244/4/193
f 242/2/194 243/5/194 246/6/194 245/3/194
f 244/4/195 245/3/195 248/7/195 247/8/195
f 245/3/196 246/6/196 249/9/196 248/7/196
f 197/10/197 208/11/197 241/1/197 207/12/197
f 208/11/198 209/13/198 242/2/198 241/1/198
f 209/13/199 210/14/199 243/5/199 242/2/199
f 210/14/200 198/15/200 211/16/200 243/5/200
f 243/5/201 211/16/201 212/17/201 246/6/201
f 246/6/202 212/17/202 213/18/202 249/9/202
f 249/9/203 213/18/203 200/19/203 214/20/203
f 248/7/204 249/9/204 214/20/204 215/21/204
f 247/8/205 248/7/205 215/21/205 216/22/205
f 205/23/206 247/8/206 216/22/206 199/24/206
f 206/25/207 244/4/207 247/8/207 205/23/207
f 207/12/208 241/1/208 244/4/208 206/25/208
f 250/26/209 251/27/209 254/28/209 253/29/209
f 251/27/210 252/30/210 255/31/210 254/28/210
f 253/29/211 254/28/211 257/32/211 256/33/211
f 254/28/212 255/31/212 258/34/212 257/32/212
f 199/24/213 216/22/213 250/26/213 219/35/213
f 216/22/214 215/21/214 251/27/214 250/26/214
f 215/21/215 214/20/215 252/30/215 251/27/215
f 214/20/216 200/19/216 220/36/216 252/30/216
f 252/30/217 220/36/217 221/37/217 255/31/217
f 255/31/218 221/37/218 222/38/218 258/34/218
f 258/34/219 222/38/219 204/39/219 223/40/219
f 257/32/220 258/34/220 223/40/220 224/41/220
f 256/33/221 257/32/221 224/41/221 225/42/221
f 217/43/222 256/33/222 225/42/222 203/44/222
f 218/45/223 253/29/223 256/33/223 217/43/223
f 219/35/224 250/26/224 253/29/224 218/45/224
f 259/46/225 260/47/225 263/48/225 262/49/225
f 260/47/226 261/50/226 264/51/226 263/48/226
f 262/49/227 263/48/227 266/52/227 265/53/227
f 263/48/228 264/51/228 267/54/228 266/52/228
f 203/44/229 225/42/229 259/46/229 228/55/229
f 225/42/230 224/41/230 260/47/230 259/46/230
f 224/41/231 223/40/231 261/50/231 260/47/231
f 223/40/232 204/39/232 229/56/232 261/50/232
f 261/50/233 229/56/233 230/57/233 264/51/233
f 264/51/234 230/57/234 231/58/234 267/54/234
f 267/54/235 231/58/235 202/59/235 232/60/235
f 266/52/236 267/54/236 232/60/236 233/61/236
f 265/53/237 266/52/237 233/61/237 234/62/237
f 226/63/238 265/53/238 234/62/238 201/64/238
f 227/65/239 262/49/239 265/53/239 226/63/239
f 228/55/240 259/46/240 262/49/240 227/65/240
f 268/66/241 269/67/241 272/68/241 271/69/241
f 269/67/242 270/70/242 273/71/242 272/68/242
f 271/69/243 272/68/243 275/72/243 274/73/243
f 272/68/244 273/71/244 276/74/244 275/72/244
f 201/64/245 234/62/245 268/66/245 237/75/245
f 234/62/246 233/61/246 269/67/246 268/66/246
f 233/61/247 232/60/247 270/70/247 269/67/247
f 232/60/248 202/59/248 238/76/248 270/70/248
f 270/70/249 238/76/249 239/77/249 273/71/249
f 273/71/250 239/77/250 240/78/250 276/74/250
f 276/74/251 240/78/251 198/79/251 210/80/251
f 275/72/252 276/74/252 210/80/252 209/81/252
f 274/73/253 275/72/253 209/81/253 208/82/253
f 235/83/254 274/73/254 208/82/254 197/84/254
f 236/85/255 271/69/255 274/73/255 235/83/255
f 237/75/256 268/66/256 271/69/256 236/85/256
f 277/86/257 278/87/257 281/88/257 280/89/257
f 278/87/258 279/90/258 282/91/258 281/88/258
f 280/89/259 281/88/259 284/92/259 283/93/259
f 281/88/260 282/91/260 285/94/260 284/92/260
f 199/95/261 219/96/261 277/86/261 205/97/261
f 219/96/262 218/98/262 278/87/262 277/86/262
f 218/98/263 217/99/263 279/90/263 278/87/263
f 217/99/264 203/44/264 228/55/264 279/90/264
f 279/90/265 228/55/265 227/65/265 282/91/265
f 282/91/266 227/65/266 226/63/266 285/94/266
f 285/94/267 226/63/267 201/64/267 237/100/267
f 284/92/268 285/94/268 237/100/268 236/101/268
f 283/93/269 284/92/269 236/101/269 235/102/269
f 207/103/270 283/93/270 235/102/270 197/104/270
f 206/105/271 280/89/271 283/93/271 207/103/271
f 205/97/272 277/86/272 280/89/272 206/105/272
f 286/106/273 287/107/273 290/108/273 289/109/273
f 287/107/274 288/110/274 291/111/274 290/108/274
f 289/109/275 290/108/275 293/112/275 292/113/275
f 290/108/276 291/111/276 294/114/276 293/112/276
f 204/39/277 222/115/277 286/106/277 229/56/277
f 222/115/278 221/116/278 287/107/278 286/106/278
f 221/116/279 220/117/279 288/110/279 287/107/279
f 220/117/280 200/118/280 213/119/280 288/110/280
f 288/110/281 213/119/281 212/120/281 291/111/281
f 291/111/282 212/120/282 211/121/282 294/114/282
f 294/114/283 211/121/283 198/122/283 240/123/283
f 293/112/284 294/114/284 240/123/284 239/124/284
f 292/113/285 293/112/285 239/124/285 238/125/285
f 231/58/286 292/113/286 238/125/286 202/59/286
f 230/57/287 289/109/287 292/113/287 231/58/287
f 229/56/288 286/106/288 289/109/288 230/57/288
f 339/1/289 340/2/289 343/3/289 342/4/289
f 340/2/290 341/5/290 344/6/290 343/3/290
f 342/4/291 343/3/291 346/7/291 345/8/291
f 343/3/292 344/6/292 347/9/292 346/7/292
f 295/10/293 306/11/293 339/1/293 305/12/293
f 306/11/294 307/13/294 340/2/294 339/1/294
f 307/13/295 308/14/295 341/5/295 340/2/295
f 308/14/296 296/15/296 309/16/296 341/5/296
f 341/5/297 309/16/297 310/17/297 344/6/297
f 344/6/298 310/17/298 311/18/298 347/9/298
f 347/9/299 311/18/299 298/19/299 312/20/299
f 346/7/300 347/9/300 312/20/300 313/21/300
f 345/8/301 346/7/301 313/21/301 314/22/301
f 303/23/302 345/8/302 314/22/302 297/24/302
f 304/25/303 342/4/303 345/8/303 303/23/303
f 305/12/304 339/1/304 342/4/304 304/25/304
f 348/26/305 349/27/305 352/28/305 351/29/305
f 349/27/306 350/30/306 353/31/306 352/28/306
f 351/29/307 352/28/307 355/32/307 354/33/307
f 352/28/308 353/31/308 356/34/308 355/32/308
f 297/24/309 314/22/309 348/26/309 317/35/309
f 314/22/310 313/21/310 349/27/310 348/26/310
f 313/21/311 312/20/311 350/30/311 349/27/311
f 312/20/312 298/19/312 318/36/312 350/30/312
f 350/30/313 318/36/313 319/37/313 353/31/313
f 353/31/314 319/37/314 320/38/314 356/34/314
f 356/34/315 320/38/315 302/39/315 321/40/315
f 355/32/316 356/34/316 321/40/316 322/41/316
f 354/33/317 355/32/317 322/41/317 323/42/317
f 315/43/318 354/33/318 323/42/318 301/44/318
f 316/45/319 351/29/319 354/33/319 315/43/319
f 317/35/320 348/26/320 351/29/320 316/45/320
f 357/46/321 358/47/321 361/48/321 360/49/321
f 358/47/322 359/50/322 362/51/322 361/48/322
f 360/49/323 361/48/323 364/52/323 363/53/323
f 361/48/324 362/51/324 365/54/324 364/52/324
f 301/44/325 323/42/325 357/46/325 326/55/325
f 323/42/326 322/41/326 358/47/326 357/46/326
f 322/41/327 321/40/327 359/50/327 358/47/327
f 321/40/328 302/39/328 327/56/328 359/50/328
f 359/50/329 327/56/329 328/57/329 362/51/329
f 362/51/330 328/57/330 329/58/330 365/54/330
f 365/54/331 329/58/331 300/59/331 330/60/331
f 364/52/332 365/54/332 330/60/332 331/61/332
f 363/53/333 364/52/333 331/61/333 332/62/333
f 324/63/334 363/53/334 332/62/334 299/64/334
f 325/65/335 360/49/335 363/53/335 324/63/335
f 326/55/336 357/46/336 360/49/336 325/65/336
f 366/66/337 367/67/337 370/68/337 369/69/337
f 367/67/338 368/70/338 371/71/338 370/68/338
f 369/69/339 370/68/339 373/72/339 372/73/339
f 370/68/340 371/71/340 374/74/340 373/72/340
f 299/64/341 332/62/341 366/66/341 335/75/341
f 332/62/342 331/61/342 367/67/342 366/66/342
f 331/61/343 330/60/343 368/70/343 367/67/343
f 330/60/344 300/59/344 336/76/344 368/70/344
f 368/70/345 336/76/345 337/77/345 371/71/345
f 371/71/346 337/77/346 338/78/346 374/74/346
f 374/74/347 338/78/347 296/79/347 308/80/347
f 373/72/348 374/74/348 308/80/348 307/81/348
f 372/73/349 373/72/349 307/81/349 306/82/349
f 333/83/350 372/73/350 306/82/350 295/84/350
f 334/85/351 369/69/351 372/73/351 333/83/351
f 335/75/352 366/66/352 369/69/352 334/85/352
f 375/86/353 376/87/353 379/88/353 378/89/353
f 376/87/354 377/90/354 380/91/354 379/88/354
f 378/89/355 379/88/355 382/92/355 381/93/355
f 379/88/356 380/91/356 383/94/356 382/92/356
f 297/95/357 317/96/357 375/86/357 303/97/357
f 317/96/358 316/98/358 376/87/358 375/86/358
f 316/98/359 315/99/359 377/90/359 376/87/359
f 315/99/360 301/44/360 326/55/360 377/90/360
f 377/90/361 326/55/361 325/65/361 380/91/361
f 380/91/362 325/65/362 324/63/362 383/94/362
f 383/94/363 324/63/363 299/64/363 335/100/363
f 382/92/364 383/94/364 335/100/364 334/101/364
f 381/93/365 382/92/365 334/101/365 333/102/365
f 305/103/366 381/93/366 333/102/366 295/104/366
f 304/105/367 378/89/367 381/93/367 305/103/367
f 303/97/368 375/86/368 378/89/368 304/105/368
f 384/106/369 385/107/369 388/108/369 387/109/369
f 385/107/370 386/110/370 389/111/370 388/108/370
f 387/109/371 388/108/371 391/112/371 390/113/371
f 388/108/372 389/111/372 392/114/372 391/112/372
f 302/39/373 320/115/373 384/106/373 327/56/373
f 320/115/374 319/116/374 385/107/374 384/106/374
f 319/116/375 318/117/375 386/110/375 385/107/375
f 318/117/376 298/118/376 311/119/376 386/110/376
f 386/110/377 311/119/377 310/120/377 389/111/377
f 389/111/378 310/120/378 309/121/378 392/114/378
f 392/114/379 309/121/379 296/122/379 338/123/379
f 391/112/380 392/114/380 338/123/380 337/124/380
f 390/113/381 391/112/381 337/124/381 336/125/381
f 329/58/382 390/113/382 336/125/382 300/59/382
f 328/57/383 387/109/383 390/113/383 329/58/383
f 327/56/384 384/106/384 387/109/384 328/57/384
