# Blender 5.2.2 LTS
# www.blender.org
mtllib Vines.mtl
o Vines
v -10.886511 5.970177 3.050626
v -11.004675 12.130177 2.742507
v -10.834785 12.130177 2.724705
v -10.678754 12.130177 2.794233
v -10.578392 12.130177 2.932461
v -10.560590 12.130177 3.102352
v -10.630118 12.130177 3.258382
v -10.768347 12.130177 3.358744
v -10.938237 12.130177 3.376546
v -11.094268 12.130177 3.307018
v -11.194630 12.130177 3.168790
v -11.212432 12.130177 2.998899
v -11.142903 12.130177 2.842869
v -8.832386 6.530177 2.262864
v -8.939808 12.130177 1.982756
v -8.785361 12.130177 1.966572
v -8.643516 12.130177 2.029779
v -8.552278 12.130177 2.155441
v -8.536094 12.130177 2.309887
v -8.599301 12.130177 2.451733
v -8.724963 12.130177 2.542972
v -8.879410 12.130177 2.559155
v -9.021255 12.130177 2.495948
v -9.112494 12.130177 2.370286
v -9.128677 12.130177 2.215840
v -9.065470 12.130177 2.073994
v -8.272169 8.210176 2.048019
v -8.347364 12.130177 1.851944
v -8.239252 12.130177 1.840615
v -8.139960 12.130177 1.884860
v -8.076094 12.130177 1.972824
v -8.064765 12.130177 2.080936
v -8.109011 12.130177 2.180228
v -8.196974 12.130177 2.244095
v -8.305086 12.130177 2.255423
v -8.404378 12.130177 2.211178
v -8.468245 12.130177 2.123215
v -8.479573 12.130177 2.015102
v -8.435328 12.130177 1.915810
v -10.092872 3.730178 2.746263
v -10.254005 12.130177 2.326101
v -10.022336 12.130177 2.301826
v -9.809567 12.130177 2.396637
v -9.672709 12.130177 2.585130
v -9.648435 12.130177 2.816799
v -9.743245 12.130177 3.029567
v -9.931739 12.130177 3.166425
v -10.163407 12.130177 3.190701
v -10.376176 12.130177 3.095889
v -10.513034 12.130177 2.907396
v -10.537310 12.130177 2.675727
v -10.442498 12.130177 2.462959
v -9.439285 9.190177 2.495611
v -9.495682 12.130177 2.348554
v -9.414598 12.130177 2.340058
v -9.340129 12.130177 2.373242
v -9.292229 12.130177 2.439214
v -9.283732 12.130177 2.520298
v -9.316916 12.130177 2.594768
v -9.382889 12.130177 2.642668
v -9.463972 12.130177 2.651164
v -9.538442 12.130177 2.617980
v -9.586342 12.130177 2.552008
v -9.594838 12.130177 2.470923
v -9.561654 12.130177 2.396454
v -5.079771 5.305858 0.823727
v -5.221568 12.115649 0.453984
v -5.363407 12.115649 0.565202
v -5.429245 12.115649 0.745690
v -5.401442 12.115649 0.947089
v -5.287448 12.115649 1.115433
v -5.117807 12.115649 1.205614
v -4.937974 12.115649 1.193470
v -4.796135 12.115649 1.082253
v -4.730297 12.115649 0.901764
v -4.758100 12.115649 0.700365
v -4.872094 12.115649 0.532022
v -5.041735 12.115649 0.441840
v -7.224246 5.924929 1.646138
v -7.353152 12.115649 1.310009
v -7.482097 12.115649 1.411115
v -7.541949 12.115649 1.575196
v -7.516674 12.115649 1.758285
v -7.413043 12.115649 1.911325
v -7.258824 12.115649 1.993309
v -7.095339 12.115649 1.982268
v -6.966395 12.115649 1.881162
v -6.906542 12.115649 1.717081
v -6.931818 12.115649 1.533991
v -7.035449 12.115649 1.380951
v -7.189668 12.115649 1.298968
v -7.809103 7.782146 1.870432
v -7.899338 12.115649 1.635142
v -7.989598 12.115649 1.705916
v -8.031496 12.115649 1.820773
v -8.013803 12.115649 1.948935
v -7.941261 12.115649 2.056063
v -7.833307 12.115649 2.113452
v -7.718868 12.115649 2.105723
v -7.628608 12.115649 2.034949
v -7.586711 12.115649 1.920092
v -7.604403 12.115649 1.791930
v -7.676945 12.115649 1.684802
v -7.784899 12.115649 1.627413
v -5.908318 2.829571 1.141477
v -6.101678 12.115649 0.637282
v -6.295094 12.115649 0.788942
v -6.384873 12.115649 1.035063
v -6.346961 12.115649 1.309697
v -6.191513 12.115649 1.539257
v -5.960185 12.115649 1.662232
v -5.714958 12.115649 1.645671
v -5.521542 12.115649 1.494012
v -5.431762 12.115649 1.247891
v -5.469676 12.115649 0.973256
v -5.625122 12.115649 0.743696
v -5.856451 12.115649 0.620721
v -6.590652 8.865521 1.403154
v -6.658328 12.115649 1.226686
v -6.726024 12.115649 1.279766
v -6.757447 12.115649 1.365909
v -6.744177 12.115649 1.462031
v -6.689771 12.115649 1.542377
v -6.608806 12.115649 1.585418
v -6.522976 12.115649 1.579622
v -6.455281 12.115649 1.526541
v -6.423858 12.115649 1.440399
v -6.437127 12.115649 1.344276
v -6.491534 12.115649 1.263931
v -6.572499 12.115649 1.220889
v -3.487446 7.818176 0.213067
v -3.570161 12.130176 -0.002616
v -3.451238 12.130176 -0.015078
v -3.342016 12.130176 0.033592
v -3.271762 12.130176 0.130352
v -3.259301 12.130176 0.249275
v -3.307971 12.130176 0.358496
v -3.404731 12.130176 0.428750
v -3.523654 12.130176 0.441211
v -3.632875 12.130176 0.392541
v -3.703129 12.130176 0.295782
v -3.715590 12.130176 0.176858
v -3.666921 12.130176 0.067637
v -2.033411 6.531648 -0.344559
v -2.149212 12.130175 -0.646516
v -2.007350 12.130175 -0.654516
v -1.872472 12.130175 -0.579463
v -1.780716 12.130175 -0.441468
v -1.756671 12.130175 -0.277507
v -1.806777 12.130175 -0.131512
v -1.917610 12.130175 -0.042603
v -2.059471 12.130175 -0.034603
v -2.194350 12.130175 -0.109656
v -2.286105 12.130175 -0.247650
v -2.310151 12.130175 -0.411612
v -2.260044 12.130175 -0.557607
v -2.813328 4.886015 -0.045459
v -2.929129 12.130175 -0.347416
v -2.717342 12.130175 -0.382232
v -2.531275 12.130175 -0.326811
v -2.420784 12.130175 -0.196001
v -2.415474 12.130175 -0.024854
v -2.516769 12.130175 0.140772
v -2.697527 12.130175 0.256497
v -2.909311 12.130175 0.291313
v -3.095379 12.130175 0.235892
v -3.205871 12.130175 0.105082
v -3.211180 12.130175 -0.066065
v -3.109885 12.130175 -0.231691
v -1.444221 9.921391 -0.570515
v -1.560022 12.130175 -0.872471
v -1.418160 12.130175 -0.880471
v -1.283282 12.130175 -0.805419
v -1.191526 12.130175 -0.667424
v -1.167481 12.130175 -0.503462
v -1.217587 12.130175 -0.357467
v -1.328421 12.130175 -0.268559
v -1.470281 12.130175 -0.260559
v -1.605159 12.130175 -0.335612
v -1.696915 12.130175 -0.473607
v -1.720960 12.130175 -0.637568
v -1.670854 12.130175 -0.783563
v 2.087313 6.224303 -0.872292
v 2.249703 12.130176 -1.159572
v 2.371587 12.130176 -1.039888
v 2.417299 12.130176 -0.875298
v 2.374592 12.130176 -0.709902
v 2.254908 12.130176 -0.588018
v 2.090319 12.130176 -0.542306
v 1.924922 12.130176 -0.585013
v 1.803040 12.130176 -0.704697
v 1.757326 12.130176 -0.869287
v 1.800034 12.130176 -1.034683
v 1.919718 12.130176 -1.156566
v 2.084308 12.130176 -1.202279
v 4.002507 6.761200 0.210311
v 4.150135 12.130176 -0.050852
v 4.260939 12.130176 0.057951
v 4.302495 12.130176 0.207579
v 4.263670 12.130176 0.357939
v 4.154867 12.130176 0.468741
v 4.005239 12.130176 0.510299
v 3.854879 12.130176 0.471474
v 3.744077 12.130176 0.362671
v 3.702519 12.130176 0.213043
v 3.741344 12.130176 0.062683
v 3.850147 12.130176 -0.048120
v 3.999775 12.130176 -0.089677
v 4.524834 8.371893 0.505566
v 4.628173 12.130176 0.322752
v 4.705735 12.130176 0.398915
v 4.734825 12.130176 0.503654
v 4.707647 12.130176 0.608906
v 4.631486 12.130176 0.686468
v 4.526746 12.130176 0.715557
v 4.421494 12.130176 0.688381
v 4.343932 12.130176 0.612219
v 4.314841 12.130176 0.507479
v 4.342019 12.130176 0.402227
v 4.418182 12.130176 0.324665
v 4.522922 12.130176 0.295575
v 2.827273 4.076714 -0.454014
v 3.048717 12.130176 -0.845758
v 3.214920 12.130176 -0.682554
v 3.277256 12.130176 -0.458112
v 3.219019 12.130176 -0.232572
v 3.055814 12.130176 -0.066368
v 2.831372 12.130176 -0.004033
v 2.605833 12.130176 -0.062269
v 2.439629 12.130176 -0.225474
v 2.377293 12.130176 -0.449916
v 2.435530 12.130176 -0.675455
v 2.598735 12.130176 -0.841660
v 2.823176 12.130176 -0.903995
v 3.436655 9.311464 -0.109549
v 3.514160 12.130176 -0.246659
v 3.572332 12.130176 -0.189538
v 3.594150 12.130176 -0.110983
v 3.573766 12.130176 -0.032044
v 3.516645 12.130176 0.026127
v 3.438090 12.130176 0.047945
v 3.359151 12.130176 0.027562
v 3.300979 12.130176 -0.029560
v 3.279161 12.130176 -0.108114
v 3.299545 12.130176 -0.187053
v 3.356667 12.130176 -0.245225
v 3.435222 12.130176 -0.267042
v 5.173594 5.305858 0.872292
v 5.368462 12.115649 0.527558
v 5.492313 12.115649 0.658510
v 5.530762 12.115649 0.846745
v 5.473509 12.115649 1.041826
v 5.335894 12.115649 1.191480
v 5.154791 12.115649 1.255608
v 4.978726 12.115649 1.217027
v 4.854876 12.115649 1.086075
v 4.816425 12.115649 0.897840
v 4.873679 12.115649 0.702759
v 5.011294 12.115649 0.553105
v 5.192398 12.115649 0.488976
v 7.173027 5.924929 2.002514
v 7.350182 12.115649 1.689118
v 7.462772 12.115649 1.808165
v 7.497725 12.115649 1.979289
v 7.445679 12.115649 2.156634
v 7.320572 12.115649 2.292683
v 7.155933 12.115649 2.350982
v 6.995874 12.115649 2.315910
v 6.883284 12.115649 2.196861
v 6.848330 12.115649 2.025738
v 6.900377 12.115649 1.848392
v 7.025482 12.115649 1.712343
v 7.190123 12.115649 1.654044
v 7.718327 7.782146 2.310755
v 7.842337 12.115649 2.091378
v 7.921148 12.115649 2.174712
v 7.945620 12.115649 2.294498
v 7.909184 12.115649 2.418640
v 7.821609 12.115649 2.513875
v 7.706362 12.115649 2.554684
v 7.594320 12.115649 2.530133
v 7.515509 12.115649 2.446800
v 7.491039 12.115649 2.327014
v 7.527473 12.115649 2.202871
v 7.615046 12.115649 2.107636
v 7.730295 12.115649 2.066828
v 5.946102 2.829571 1.308968
v 6.211832 12.115649 0.838875
v 6.380718 12.115649 1.017447
v 6.433149 12.115649 1.274131
v 6.355076 12.115649 1.540150
v 6.167419 12.115649 1.744224
v 5.920462 12.115649 1.831672
v 5.680372 12.115649 1.779062
v 5.511486 12.115649 1.600490
v 5.459055 12.115649 1.343806
v 5.537127 12.115649 1.077787
v 5.724785 12.115649 0.873713
v 5.971743 12.115649 0.786265
v 6.582287 8.865521 1.668585
v 6.675293 12.115649 1.504052
v 6.734404 12.115649 1.566552
v 6.752754 12.115649 1.656391
v 6.725428 12.115649 1.749499
v 6.659748 12.115649 1.820925
v 6.573311 12.115649 1.851531
v 6.489283 12.115649 1.833118
v 6.430172 12.115649 1.770618
v 6.411819 12.115649 1.680778
v 6.439146 12.115649 1.587672
v 6.504826 12.115649 1.516246
v 6.591261 12.115649 1.485639
v -9.457314 12.115649 4.378895
v -9.171303 5.924929 4.597523
v -10.943195 12.115649 6.350831
v -10.904619 12.115649 6.539040
v -10.775344 12.115649 6.695955
v -10.590008 12.115649 6.779530
v -10.398270 12.115649 6.767370
v -10.251509 12.115649 6.662735
v -10.189047 12.115649 6.493662
v -10.227623 12.115649 6.305453
v -10.356899 12.115649 6.148538
v -10.542236 12.115649 6.064964
v -10.733973 12.115649 6.077122
v -10.880733 12.115649 6.181758
v -10.566122 5.305858 6.422247
v -11.934011 12.130176 7.987142
v -11.923222 12.130176 8.067953
v -11.873470 12.130176 8.132542
v -11.798092 12.130176 8.163603
v -11.717281 12.130176 8.152812
v -11.652691 12.130176 8.103062
v -11.621632 12.130176 8.027681
v -11.632421 12.130176 7.946869
v -11.682173 12.130176 7.882283
v -11.757551 12.130176 7.851221
v -11.838364 12.130176 7.862012
v -11.902952 12.130176 7.911762
v -11.777822 9.311464 8.007413
v -12.649187 12.130176 8.505632
v -12.618357 12.130176 8.736520
v -12.476213 12.130176 8.921061
v -12.260843 12.130176 9.009804
v -12.029955 12.130176 8.978971
v -11.845415 12.130176 8.836828
v -11.756672 12.130176 8.621459
v -11.787502 12.130176 8.390572
v -11.929646 12.130176 8.206032
v -12.145016 12.130176 8.117287
v -12.375904 12.130176 8.148119
v -12.560444 12.130176 8.290261
v -12.202930 4.076714 8.563547
v -11.226955 12.130176 6.987291
v -11.212568 12.130176 7.095039
v -11.146234 12.130176 7.181159
v -11.045728 12.130176 7.222573
v -10.937980 12.130176 7.208185
v -10.851862 12.130176 7.141851
v -10.810448 12.130176 7.041345
v -10.824835 12.130176 6.933597
v -10.891170 12.130176 6.847479
v -10.991675 12.130176 6.806065
v -11.099422 12.130176 6.820452
v -11.185541 12.130176 6.886786
v -11.018702 8.371893 7.014318
v -11.680586 12.130176 7.452395
v -11.660030 12.130176 7.606321
v -11.565269 12.130176 7.729347
v -11.421689 12.130176 7.788510
v -11.267763 12.130176 7.767955
v -11.144737 12.130176 7.673193
v -11.085574 12.130176 7.529613
v -11.106129 12.130176 7.375688
v -11.200891 12.130176 7.252662
v -11.344471 12.130176 7.193499
v -11.498396 12.130176 7.214052
v -11.621422 12.130176 7.308815
v -11.383080 6.761200 7.491004
v -13.046387 12.130176 9.196378
v -13.023779 12.130176 9.365697
v -12.919540 12.130176 9.501026
v -12.761602 12.130176 9.566106
v -12.592285 12.130176 9.543495
v -12.456955 12.130176 9.439257
v -12.391876 12.130176 9.281319
v -12.414484 12.130176 9.112002
v -12.518724 12.130176 8.976673
v -12.676662 12.130176 8.911594
v -12.845980 12.130176 8.934204
v -12.981310 12.130176 9.038443
v -12.719131 6.224303 9.238850
v -9.323895 12.115649 4.283773
v -9.149589 12.115649 4.272721
v -8.981102 12.115649 4.348696
v -8.863579 12.115649 4.491347
v -8.828510 12.115649 4.662446
v -8.885292 12.115649 4.816150
v -9.018711 12.115649 4.911272
v -9.193018 12.115649 4.922325
v -9.361506 12.115649 4.846349
v -9.479029 12.115649 4.703699
v -9.514097 12.115649 4.532598
v -8.790899 7.782146 4.099872
v -8.991106 12.115649 3.946830
v -8.897713 12.115649 3.880247
v -8.775698 12.115649 3.872505
v -8.657757 12.115649 3.925691
v -8.575491 12.115649 4.025547
v -8.550943 12.115649 4.145317
v -8.590691 12.115649 4.252910
v -8.684084 12.115649 4.319493
v -8.806099 12.115649 4.327232
v -8.924040 12.115649 4.274048
v -9.006308 12.115649 4.174195
v -9.030853 12.115649 4.054423
v -10.027215 2.829571 5.717240
v -10.456232 12.115649 5.389299
v -10.256102 12.115649 5.246616
v -9.994642 12.115649 5.230036
v -9.741911 12.115649 5.344002
v -9.565626 12.115649 5.557976
v -9.513023 12.115649 5.814624
v -9.598198 12.115649 6.045180
v -9.798327 12.115649 6.187864
v -10.059786 12.115649 6.204444
v -10.312519 12.115649 6.090479
v -10.488803 12.115649 5.876504
v -10.541406 12.115649 5.619856
v -9.583408 8.865521 5.136645
v -9.733563 12.115649 5.021865
v -9.663519 12.115649 4.971925
v -9.572008 12.115649 4.966122
v -9.483551 12.115649 5.006012
v -9.421852 12.115649 5.080902
v -9.403440 12.115649 5.170731
v -9.433252 12.115649 5.251423
v -9.503298 12.115649 5.301362
v -9.594809 12.115649 5.307167
v -9.683264 12.115649 5.267278
v -9.744964 12.115649 5.192388
v -9.763374 12.115649 5.102560
vn -0.0000 -1.0000 -0.0000
vn -0.2772 0.6331 -0.7227
vn 0.1213 0.6331 -0.7645
vn 0.4873 0.6331 -0.6014
vn 0.7227 0.6331 -0.2772
vn 0.7645 0.6331 0.1213
vn 0.6014 0.6331 0.4873
vn 0.2772 0.6331 0.7227
vn -0.1213 0.6331 0.7645
vn -0.4873 0.6331 0.6014
vn -0.7227 0.6331 0.2772
vn -0.7645 0.6331 -0.1213
vn -0.6014 0.6331 -0.4873
vn 0.0001 1.0000 0.0001
vn 0.2796 -0.6246 0.7292
vn 0.6285 -0.6292 0.4572
vn 0.7664 -0.6371 0.0825
vn 0.7170 -0.6405 -0.2750
vn 0.5147 -0.6371 -0.5737
vn 0.1617 -0.6292 -0.7602
vn -0.2796 -0.6246 -0.7292
vn -0.6285 -0.6292 -0.4572
vn -0.7664 -0.6371 -0.0825
vn -0.7170 -0.6405 0.2750
vn -0.5147 -0.6371 0.5737
vn -0.1617 -0.6292 0.7602
vn 0.0002 1.0000 -0.0001
vn 0.5147 -0.6371 -0.5738
vn -0.5147 -0.6371 0.5738
vn 0.0001 1.0000 -0.0000
vn -0.0002 1.0000 0.0001
vn -0.2802 0.6227 -0.7305
vn 0.1730 0.6288 -0.7580
vn 0.5215 0.6389 -0.5656
vn 0.7151 0.6430 -0.2742
vn 0.7660 0.6389 0.0719
vn 0.6355 0.6288 0.4480
vn 0.2802 0.6227 0.7305
vn -0.1730 0.6288 0.7580
vn -0.5215 0.6389 0.5656
vn -0.7151 0.6430 0.2742
vn -0.7660 0.6389 -0.0719
vn -0.6355 0.6288 -0.4480
vn -0.0000 -1.0000 -0.0003
vn -0.2728 0.6478 -0.7113
vn 0.0496 0.6423 -0.7648
vn 0.4275 0.6278 -0.6504
vn 0.7339 0.6182 -0.2815
vn 0.7528 0.6278 0.1978
vn 0.5483 0.6423 0.5356
vn 0.2728 0.6478 0.7113
vn -0.0496 0.6423 0.7648
vn -0.4275 0.6278 0.6504
vn -0.7339 0.6182 0.2815
vn -0.7528 0.6278 -0.1978
vn -0.5483 0.6423 -0.5356
vn -0.2893 0.5892 -0.7544
vn 0.1769 0.5969 -0.7826
vn 0.5363 0.6097 -0.5836
vn 0.7362 0.6150 -0.2823
vn 0.7891 0.6097 0.0753
vn 0.6548 0.5969 0.4636
vn 0.2893 0.5892 0.7544
vn -0.1769 0.5969 0.7826
vn -0.5363 0.6097 0.5836
vn -0.7362 0.6150 0.2823
vn -0.7891 0.6097 -0.0753
vn -0.6548 0.5969 -0.4636
vn 0.3812 0.6323 -0.6744
vn 0.6674 0.6323 -0.3935
vn 0.7747 0.6323 -0.0071
vn 0.6744 0.6323 0.3812
vn 0.3935 0.6323 0.6674
vn 0.0071 0.6323 0.7747
vn -0.3812 0.6323 0.6744
vn -0.6674 0.6323 0.3935
vn -0.7747 0.6323 0.0071
vn -0.6744 0.6323 -0.3812
vn -0.3935 0.6323 -0.6674
vn -0.0071 0.6323 -0.7747
vn -0.0002 -1.0000 0.0001
vn -0.0001 -1.0000 -0.0001
vn -0.7747 0.6323 0.0070
vn -0.0002 -1.0000 -0.0001
vn 0.3843 0.6246 -0.6798
vn 0.6892 0.6292 -0.3593
vn 0.7701 0.6371 0.0317
vn 0.6685 0.6405 0.3779
vn 0.4243 0.6371 0.6435
vn 0.0476 0.6292 0.7758
vn -0.3843 0.6246 0.6798
vn -0.6892 0.6292 0.3593
vn -0.7701 0.6371 -0.0317
vn -0.6685 0.6405 -0.3779
vn -0.4243 0.6371 -0.6435
vn -0.0476 0.6292 -0.7758
vn -0.0002 -1.0000 0.0002
vn 0.0003 -1.0000 -0.0000
vn -0.0000 -1.0000 -0.0001
vn -0.6204 0.6246 -0.4743
vn 0.0003 -1.0000 0.0001
vn -0.7749 0.6292 -0.0597
vn -0.6958 0.6371 0.3316
vn -0.4664 0.6405 0.6101
vn -0.1374 0.6371 0.7584
vn 0.2610 0.6292 0.7321
vn 0.6204 0.6246 0.4743
vn 0.7749 0.6292 0.0597
vn 0.6958 0.6371 -0.3316
vn 0.4664 0.6405 -0.6101
vn 0.1374 0.6371 -0.7584
vn -0.2610 0.6292 -0.7321
vn -0.7683 0.6323 -0.0997
vn -0.7152 0.6323 0.2978
vn -0.4705 0.6323 0.6155
vn -0.0997 0.6323 0.7683
vn 0.2978 0.6323 0.7152
vn 0.6155 0.6323 0.4705
vn 0.7683 0.6323 0.0997
vn 0.7152 0.6323 -0.2978
vn 0.4705 0.6323 -0.6155
vn 0.0997 0.6323 -0.7683
vn -0.2978 0.6323 -0.7152
vn -0.6155 0.6323 -0.4705
vn -0.0002 -1.0000 0.0003
vn -0.0001 -1.0000 0.0004
vn 0.0002 -1.0000 -0.0001
vn 0.0003 -1.0000 -0.0001
vn -0.0001 -1.0000 0.0002
vt 1.000000 0.500000
vt 1.000000 1.000000
vt 0.916667 1.000000
vt 0.916667 0.500000
vt 0.833333 1.000000
vt 0.833333 0.500000
vt 0.750000 1.000000
vt 0.750000 0.500000
vt 0.666667 1.000000
vt 0.666667 0.500000
vt 0.583333 1.000000
vt 0.583333 0.500000
vt 0.500000 1.000000
vt 0.500000 0.500000
vt 0.416667 1.000000
vt 0.416667 0.500000
vt 0.333333 1.000000
vt 0.333333 0.500000
vt 0.250000 1.000000
vt 0.250000 0.500000
vt 0.166667 1.000000
vt 0.370000 0.457846
vt 0.250000 0.490000
vt 0.130000 0.457846
vt 0.042154 0.370000
vt 0.010000 0.250000
vt 0.042154 0.130000
vt 0.130000 0.042154
vt 0.250000 0.010000
vt 0.370000 0.042154
vt 0.457846 0.130000
vt 0.490000 0.250000
vt 0.457846 0.370000
vt 0.166667 0.500000
vt 0.083333 1.000000
vt 0.083333 0.500000
vt 0.000000 1.000000
s 1
f 1/1/1 2/2/2 3/3/3
f 1/4/1 3/3/3 4/5/4
f 1/6/1 4/5/4 5/7/5
f 1/8/1 5/7/5 6/9/6
f 1/10/1 6/9/6 7/11/7
f 1/12/1 7/11/7 8/13/8
f 1/14/1 8/13/8 9/15/9
f 1/16/1 9/15/9 10/17/10
f 1/18/1 10/17/10 11/19/11
f 1/20/1 11/19/11 12/21/12
f 3/22/3 2/23/2 13/24/13 12/25/12 11/26/11 10/27/10 9/28/9 8/29/8 7/30/7 6/31/6 5/32/5 4/33/4
f 1/34/1 12/21/12 13/35/13
f 1/36/1 13/35/13 2/37/2
f 14/1/1 15/2/2 16/3/3
f 14/4/1 16/3/3 17/5/4
f 14/6/1 17/5/4 18/7/5
f 14/8/1 18/7/5 19/9/6
f 14/10/1 19/9/6 20/11/7
f 14/12/1 20/11/7 21/13/8
f 14/14/1 21/13/8 22/15/9
f 14/16/1 22/15/9 23/17/10
f 14/18/1 23/17/10 24/19/11
f 14/20/1 24/19/11 25/21/12
f 16/22/3 15/23/2 26/24/13 25/25/12 24/26/11 23/27/10 22/28/9 21/29/8 20/30/7 19/31/6 18/32/5 17/33/4
f 14/34/1 25/21/12 26/35/13
f 14/36/1 26/35/13 15/37/2
f 27/1/1 28/2/2 29/3/3
f 27/4/1 29/3/3 30/5/4
f 27/6/1 30/5/4 31/7/5
f 27/8/1 31/7/5 32/9/6
f 27/10/1 32/9/6 33/11/7
f 27/12/1 33/11/7 34/13/8
f 27/14/1 34/13/8 35/15/9
f 27/16/1 35/15/9 36/17/10
f 27/18/1 36/17/10 37/19/11
f 27/20/1 37/19/11 38/21/12
f 29/22/3 28/23/2 39/24/13 38/25/12 37/26/11 36/27/10 35/28/9 34/29/8 33/30/7 32/31/6 31/32/5 30/33/4
f 27/34/1 38/21/12 39/35/13
f 27/36/1 39/35/13 28/37/2
f 40/1/1 41/2/2 42/3/3
f 40/4/1 42/3/3 43/5/4
f 40/6/1 43/5/4 44/7/5
f 40/8/1 44/7/5 45/9/6
f 40/10/1 45/9/6 46/11/7
f 40/12/1 46/11/7 47/13/8
f 40/14/1 47/13/8 48/15/9
f 40/16/1 48/15/9 49/17/10
f 40/18/1 49/17/10 50/19/11
f 40/20/1 50/19/11 51/21/12
f 42/22/3 41/23/2 52/24/13 51/25/12 50/26/11 49/27/10 48/28/9 47/29/8 46/30/7 45/31/6 44/32/5 43/33/4
f 40/34/1 51/21/12 52/35/13
f 40/36/1 52/35/13 41/37/2
f 53/1/1 54/2/2 55/3/3
f 53/4/1 55/3/3 56/5/4
f 53/6/1 56/5/4 57/7/5
f 53/8/1 57/7/5 58/9/6
f 53/10/1 58/9/6 59/11/7
f 53/12/1 59/11/7 60/13/8
f 53/14/1 60/13/8 61/15/9
f 53/16/1 61/15/9 62/17/10
f 53/18/1 62/17/10 63/19/11
f 53/20/1 63/19/11 64/21/12
f 55/22/3 54/23/2 65/24/13 64/25/12 63/26/11 62/27/10 61/28/9 60/29/8 59/30/7 58/31/6 57/32/5 56/33/4
f 53/34/1 64/21/12 65/35/13
f 53/36/1 65/35/13 54/37/2
f 66/1/14 67/2/15 68/3/16
f 66/4/14 68/3/16 69/5/17
f 66/6/14 69/5/17 70/7/18
f 66/8/14 70/7/18 71/9/19
f 66/10/14 71/9/19 72/11/20
f 66/12/14 72/11/20 73/13/21
f 66/14/14 73/13/21 74/15/22
f 66/16/14 74/15/22 75/17/23
f 66/18/14 75/17/23 76/19/24
f 66/20/14 76/19/24 77/21/25
f 68/22/16 67/23/15 78/24/26 77/25/25 76/26/24 75/27/23 74/28/22 73/29/21 72/30/20 71/31/19 70/32/18 69/33/17
f 66/34/14 77/21/25 78/35/26
f 66/36/14 78/35/26 67/37/15
f 79/1/27 80/2/15 81/3/16
f 79/4/27 81/3/16 82/5/17
f 79/6/27 82/5/17 83/7/18
f 79/8/27 83/7/18 84/9/28
f 79/10/27 84/9/28 85/11/20
f 79/12/27 85/11/20 86/13/21
f 79/14/27 86/13/21 87/15/22
f 79/16/27 87/15/22 88/17/23
f 79/18/27 88/17/23 89/19/24
f 79/20/27 89/19/24 90/21/29
f 81/22/16 80/23/15 91/24/26 90/25/29 89/26/24 88/27/23 87/28/22 86/29/21 85/30/20 84/31/28 83/32/18 82/33/17
f 79/34/27 90/21/29 91/35/26
f 79/36/27 91/35/26 80/37/15
f 92/1/30 93/2/15 94/3/16
f 92/4/30 94/3/16 95/5/17
f 92/6/30 95/5/17 96/7/18
f 92/8/30 96/7/18 97/9/28
f 92/10/30 97/9/28 98/11/20
f 92/12/30 98/11/20 99/13/21
f 92/14/30 99/13/21 100/15/22
f 92/16/30 100/15/22 101/17/23
f 92/18/30 101/17/23 102/19/24
f 92/20/30 102/19/24 103/21/29
f 94/22/16 93/23/15 104/24/26 103/25/29 102/26/24 101/27/23 100/28/22 99/29/21 98/30/20 97/31/28 96/32/18 95/33/17
f 92/34/30 103/21/29 104/35/26
f 92/36/30 104/35/26 93/37/15
f 105/1/27 106/2/15 107/3/16
f 105/4/27 107/3/16 108/5/17
f 105/6/27 108/5/17 109/7/18
f 105/8/27 109/7/18 110/9/28
f 105/10/27 110/9/28 111/11/20
f 105/12/27 111/11/20 112/13/21
f 105/14/27 112/13/21 113/15/22
f 105/16/27 113/15/22 114/17/23
f 105/18/27 114/17/23 115/19/24
f 105/20/27 115/19/24 116/21/29
f 107/22/16 106/23/15 117/24/26 116/25/29 115/26/24 114/27/23 113/28/22 112/29/21 111/30/20 110/31/28 109/32/18 108/33/17
f 105/34/27 116/21/29 117/35/26
f 105/36/27 117/35/26 106/37/15
f 118/1/31 119/2/15 120/3/16
f 118/4/31 120/3/16 121/5/17
f 118/6/31 121/5/17 122/7/18
f 118/8/31 122/7/18 123/9/28
f 118/10/31 123/9/28 124/11/20
f 118/12/31 124/11/20 125/13/21
f 118/14/31 125/13/21 126/15/22
f 118/16/31 126/15/22 127/17/23
f 118/18/31 127/17/23 128/19/24
f 118/20/31 128/19/24 129/21/29
f 120/22/16 119/23/15 130/24/26 129/25/29 128/26/24 127/27/23 126/28/22 125/29/21 124/30/20 123/31/28 122/32/18 121/33/17
f 118/34/31 129/21/29 130/35/26
f 118/36/31 130/35/26 119/37/15
f 131/1/1 132/2/2 133/3/3
f 131/4/1 133/3/3 134/5/4
f 131/6/1 134/5/4 135/7/5
f 131/8/1 135/7/5 136/9/6
f 131/10/1 136/9/6 137/11/7
f 131/12/1 137/11/7 138/13/8
f 131/14/1 138/13/8 139/15/9
f 131/16/1 139/15/9 140/17/10
f 131/18/1 140/17/10 141/19/11
f 131/20/1 141/19/11 142/21/12
f 133/22/3 132/23/2 143/24/13 142/25/12 141/26/11 140/27/10 139/28/9 138/29/8 137/30/7 136/31/6 135/32/5 134/33/4
f 131/34/1 142/21/12 143/35/13
f 131/36/1 143/35/13 132/37/2
f 144/1/1 145/2/32 146/3/33
f 144/4/1 146/3/33 147/5/34
f 144/6/1 147/5/34 148/7/35
f 144/8/1 148/7/35 149/9/36
f 144/10/1 149/9/36 150/11/37
f 144/12/1 150/11/37 151/13/38
f 144/14/1 151/13/38 152/15/39
f 144/16/1 152/15/39 153/17/40
f 144/18/1 153/17/40 154/19/41
f 144/20/1 154/19/41 155/21/42
f 146/22/33 145/23/32 156/24/43 155/25/42 154/26/41 153/27/40 152/28/39 151/29/38 150/30/37 149/31/36 148/32/35 147/33/34
f 144/34/1 155/21/42 156/35/43
f 144/36/1 156/35/43 145/37/32
f 157/1/44 158/2/45 159/3/46
f 157/4/44 159/3/46 160/5/47
f 157/6/44 160/5/47 161/7/48
f 157/8/44 161/7/48 162/9/49
f 157/10/44 162/9/49 163/11/50
f 157/12/44 163/11/50 164/13/51
f 157/14/44 164/13/51 165/15/52
f 157/16/44 165/15/52 166/17/53
f 157/18/44 166/17/53 167/19/54
f 157/20/44 167/19/54 168/21/55
f 159/22/46 158/23/45 169/24/56 168/25/55 167/26/54 166/27/53 165/28/52 164/29/51 163/30/50 162/31/49 161/32/48 160/33/47
f 157/34/44 168/21/55 169/35/56
f 157/36/44 169/35/56 158/37/45
f 170/1/1 171/2/57 172/3/58
f 170/4/1 172/3/58 173/5/59
f 170/6/1 173/5/59 174/7/60
f 170/8/1 174/7/60 175/9/61
f 170/10/1 175/9/61 176/11/62
f 170/12/1 176/11/62 177/13/63
f 170/14/1 177/13/63 178/15/64
f 170/16/1 178/15/64 179/17/65
f 170/18/1 179/17/65 180/19/66
f 170/20/1 180/19/66 181/21/67
f 172/22/58 171/23/57 182/24/68 181/25/67 180/26/66 179/27/65 178/28/64 177/29/63 176/30/62 175/31/61 174/32/60 173/33/59
f 170/34/1 181/21/67 182/35/68
f 170/36/1 182/35/68 171/37/57
f 183/1/1 184/2/69 185/3/70
f 183/4/1 185/3/70 186/5/71
f 183/6/1 186/5/71 187/7/72
f 183/8/1 187/7/72 188/9/73
f 183/10/1 188/9/73 189/11/74
f 183/12/1 189/11/74 190/13/75
f 183/14/1 190/13/75 191/15/76
f 183/16/1 191/15/76 192/17/77
f 183/18/1 192/17/77 193/19/78
f 183/20/1 193/19/78 194/21/79
f 185/22/70 184/23/69 195/24/80 194/25/79 193/26/78 192/27/77 191/28/76 190/29/75 189/30/74 188/31/73 187/32/72 186/33/71
f 183/34/1 194/21/79 195/35/80
f 183/36/1 195/35/80 184/37/69
f 196/1/1 197/2/69 198/3/70
f 196/4/1 198/3/70 199/5/71
f 196/6/1 199/5/71 200/7/72
f 196/8/1 200/7/72 201/9/73
f 196/10/1 201/9/73 202/11/74
f 196/12/1 202/11/74 203/13/75
f 196/14/1 203/13/75 204/15/76
f 196/16/1 204/15/76 205/17/77
f 196/18/1 205/17/77 206/19/78
f 196/20/1 206/19/78 207/21/79
f 198/22/70 197/23/69 208/24/80 207/25/79 206/26/78 205/27/77 204/28/76 203/29/75 202/30/74 201/31/73 200/32/72 199/33/71
f 196/34/1 207/21/79 208/35/80
f 196/36/1 208/35/80 197/37/69
f 209/1/1 210/2/69 211/3/70
f 209/4/1 211/3/70 212/5/71
f 209/6/1 212/5/71 213/7/72
f 209/8/1 213/7/72 214/9/73
f 209/10/1 214/9/73 215/11/74
f 209/12/1 215/11/74 216/13/75
f 209/14/1 216/13/75 217/15/76
f 209/16/1 217/15/76 218/17/77
f 209/18/1 218/17/77 219/19/78
f 209/20/1 219/19/78 220/21/79
f 211/22/70 210/23/69 221/24/80 220/25/79 219/26/78 218/27/77 217/28/76 216/29/75 215/30/74 214/31/73 213/32/72 212/33/71
f 209/34/1 220/21/79 221/35/80
f 209/36/1 221/35/80 210/37/69
f 222/1/81 223/2/69 224/3/70
f 222/4/81 224/3/70 225/5/71
f 222/6/81 225/5/71 226/7/72
f 222/8/81 226/7/72 227/9/73
f 222/10/81 227/9/73 228/11/74
f 222/12/81 228/11/74 229/13/75
f 222/14/81 229/13/75 230/15/76
f 222/16/81 230/15/76 231/17/77
f 222/18/81 231/17/77 232/19/78
f 222/20/81 232/19/78 233/21/79
f 224/22/70 223/23/69 234/24/80 233/25/79 232/26/78 231/27/77 230/28/76 229/29/75 228/30/74 227/31/73 226/32/72 225/33/71
f 222/34/81 233/21/79 234/35/80
f 222/36/81 234/35/80 223/37/69
f 235/1/82 236/2/69 237/3/70
f 235/4/82 237/3/70 238/5/71
f 235/6/82 238/5/71 239/7/72
f 235/8/82 239/7/72 240/9/73
f 235/10/82 240/9/73 241/11/74
f 235/12/82 241/11/74 242/13/75
f 235/14/82 242/13/75 243/15/76
f 235/16/82 243/15/76 244/17/83
f 235/18/82 244/17/83 245/19/78
f 235/20/82 245/19/78 246/21/79
f 237/22/70 236/23/69 247/24/80 246/25/79 245/26/78 244/27/83 243/28/76 242/29/75 241/30/74 240/31/73 239/32/72 238/33/71
f 235/34/82 246/21/79 247/35/80
f 235/36/82 247/35/80 236/37/69
f 248/1/84 249/2/85 250/3/86
f 248/4/84 250/3/86 251/5/87
f 248/6/84 251/5/87 252/7/88
f 248/8/84 252/7/88 253/9/89
f 248/10/84 253/9/89 254/11/90
f 248/12/84 254/11/90 255/13/91
f 248/14/84 255/13/91 256/15/92
f 248/16/84 256/15/92 257/17/93
f 248/18/84 257/17/93 258/19/94
f 248/20/84 258/19/94 259/21/95
f 250/22/86 249/23/85 260/24/96 259/25/95 258/26/94 257/27/93 256/28/92 255/29/91 254/30/90 253/31/89 252/32/88 251/33/87
f 248/34/84 259/21/95 260/35/96
f 248/36/84 260/35/96 249/37/85
f 261/1/97 262/2/85 263/3/86
f 261/4/97 263/3/86 264/5/87
f 261/6/97 264/5/87 265/7/88
f 261/8/97 265/7/88 266/9/89
f 261/10/97 266/9/89 267/11/90
f 261/12/97 267/11/90 268/13/91
f 261/14/97 268/13/91 269/15/92
f 261/16/97 269/15/92 270/17/93
f 261/18/97 270/17/93 271/19/94
f 261/20/97 271/19/94 272/21/95
f 263/22/86 262/23/85 273/24/96 272/25/95 271/26/94 270/27/93 269/28/92 268/29/91 267/30/90 266/31/89 265/32/88 264/33/87
f 261/34/97 272/21/95 273/35/96
f 261/36/97 273/35/96 262/37/85
f 274/1/98 275/2/85 276/3/86
f 274/4/98 276/3/86 277/5/87
f 274/6/98 277/5/87 278/7/88
f 274/8/98 278/7/88 279/9/89
f 274/10/98 279/9/89 280/11/90
f 274/12/98 280/11/90 281/13/91
f 274/14/98 281/13/91 282/15/92
f 274/16/98 282/15/92 283/17/93
f 274/18/98 283/17/93 284/19/94
f 274/20/98 284/19/94 285/21/95
f 276/22/86 275/23/85 286/24/96 285/25/95 284/26/94 283/27/93 282/28/92 281/29/91 280/30/90 279/31/89 278/32/88 277/33/87
f 274/34/98 285/21/95 286/35/96
f 274/36/98 286/35/96 275/37/85
f 287/1/99 288/2/85 289/3/86
f 287/4/99 289/3/86 290/5/87
f 287/6/99 290/5/87 291/7/88
f 287/8/99 291/7/88 292/9/89
f 287/10/99 292/9/89 293/11/90
f 287/12/99 293/11/90 294/13/91
f 287/14/99 294/13/91 295/15/92
f 287/16/99 295/15/92 296/17/93
f 287/18/99 296/17/93 297/19/94
f 287/20/99 297/19/94 298/21/95
f 289/22/86 288/23/85 299/24/96 298/25/95 297/26/94 296/27/93 295/28/92 294/29/91 293/30/90 292/31/89 291/32/88 290/33/87
f 287/34/99 298/21/95 299/35/96
f 287/36/99 299/35/96 288/37/85
f 300/1/84 301/2/85 302/3/86
f 300/4/84 302/3/86 303/5/87
f 300/6/84 303/5/87 304/7/88
f 300/8/84 304/7/88 305/9/89
f 300/10/84 305/9/89 306/11/90
f 300/12/84 306/11/90 307/13/91
f 300/14/84 307/13/91 308/15/92
f 300/16/84 308/15/92 309/17/93
f 300/18/84 309/17/93 310/19/94
f 300/20/84 310/19/94 311/21/95
f 302/22/86 301/23/85 312/24/96 311/25/95 310/26/94 309/27/93 308/28/92 307/29/91 306/30/90 305/31/89 304/32/88 303/33/87
f 300/34/84 311/21/95 312/35/96
f 300/36/84 312/35/96 301/37/85
f 340/16/125 332/15/117 331/17/116
f 340/14/125 333/13/118 332/15/117
f 340/12/125 334/11/119 333/13/118
f 340/10/125 335/9/120 334/11/119
f 340/8/125 336/7/121 335/9/120
f 340/6/125 337/5/122 336/7/121
f 340/4/125 338/3/123 337/5/122
f 340/1/125 339/2/124 338/3/123
f 353/36/126 341/35/113 352/37/124
f 353/34/126 342/21/114 341/35/113
f 351/22/123 352/23/124 341/24/113 342/25/114 343/26/115 344/27/116 345/28/117 346/29/118 347/30/119 348/31/120 349/32/121 350/33/122
f 353/20/126 343/19/115 342/21/114
f 353/18/126 344/17/116 343/19/115
f 353/16/126 345/15/117 344/17/116
f 353/14/126 346/13/118 345/15/117
f 353/12/126 347/11/119 346/13/118
f 353/10/126 348/9/120 347/11/119
f 353/8/126 349/7/121 348/9/120
f 353/6/126 350/5/122 349/7/121
f 353/4/126 351/3/123 350/5/122
f 353/1/126 352/2/124 351/3/123
f 366/36/1 354/35/113 365/37/124
f 366/34/1 355/21/114 354/35/113
f 364/22/123 365/23/124 354/24/113 355/25/114 356/26/115 357/27/116 358/28/117 359/29/118 360/30/119 361/31/120 362/32/121 363/33/122
f 366/20/1 356/19/115 355/21/114
f 366/18/1 357/17/116 356/19/115
f 366/16/1 358/15/117 357/17/116
f 366/14/1 359/13/118 358/15/117
f 366/12/1 360/11/119 359/13/118
f 366/10/1 361/9/120 360/11/119
f 366/8/1 362/7/121 361/9/120
f 366/6/1 363/5/122 362/7/121
f 366/4/1 364/3/123 363/5/122
f 366/1/1 365/2/124 364/3/123
f 379/36/1 367/35/113 378/37/124
f 379/34/1 368/21/114 367/35/113
f 377/22/123 378/23/124 367/24/113 368/25/114 369/26/115 370/27/116 371/28/117 372/29/118 373/30/119 374/31/120 375/32/121 376/33/122
f 379/20/1 369/19/115 368/21/114
f 379/18/1 370/17/116 369/19/115
f 379/16/1 371/15/117 370/17/116
f 379/14/1 372/13/118 371/15/117
f 379/12/1 373/11/119 372/13/118
f 379/10/1 374/9/120 373/11/119
f 379/8/1 375/7/121 374/9/120
f 379/6/1 376/5/122 375/7/121
f 379/4/1 377/3/123 376/5/122
f 379/1/1 378/2/124 377/3/123
f 392/36/127 380/35/113 391/37/124
f 392/34/127 381/21/114 380/35/113
f 390/22/123 391/23/124 380/24/113 381/25/114 382/26/115 383/27/116 384/28/117 385/29/118 386/30/119 387/31/120 388/32/121 389/33/122
f 392/20/127 382/19/115 381/21/114
f 392/18/127 383/17/116 382/19/115
f 392/16/127 384/15/117 383/17/116
f 392/14/127 385/13/118 384/15/117
f 392/12/127 386/11/119 385/13/118
f 392/10/127 387/9/120 386/11/119
f 392/8/127 388/7/121 387/9/120
f 392/6/127 389/5/122 388/7/121
f 392/4/127 390/3/123 389/5/122
f 392/1/127 391/2/124 390/3/123
f 340/18/125 331/17/116 330/19/115
f 340/20/125 330/19/115 329/21/114
f 338/22/123 339/23/124 328/24/113 329/25/114 330/26/115 331/27/116 332/28/117 333/29/118 334/30/119 335/31/120 336/32/121 337/33/122
f 340/34/125 329/21/114 328/35/113
f 340/36/125 328/35/113 339/37/124
f 327/1/81 326/2/100 325/3/112
f 327/4/81 325/3/112 324/5/111
f 327/6/81 324/5/111 323/7/110
f 327/8/81 323/7/110 322/9/109
f 327/10/81 322/9/109 321/11/108
f 327/12/81 321/11/108 320/13/107
f 327/14/81 320/13/107 319/15/106
f 327/16/81 319/15/106 318/17/105
f 327/18/81 318/17/105 317/19/104
f 327/20/81 317/19/104 316/21/103
f 325/22/112 326/23/100 315/24/102 316/25/103 317/26/104 318/27/105 319/28/106 320/29/107 321/30/108 322/31/109 323/32/110 324/33/111
f 327/34/81 316/21/103 315/35/102
f 327/36/81 315/35/102 326/37/100
f 314/1/101 313/2/100 393/3/112
f 314/4/101 393/3/112 394/5/111
f 314/6/101 394/5/111 395/7/110
f 314/8/101 395/7/110 396/9/109
f 314/10/101 396/9/109 397/11/108
f 314/12/101 397/11/108 398/13/107
f 314/14/101 398/13/107 399/15/106
f 314/16/101 399/15/106 400/17/105
f 314/18/101 400/17/105 401/19/104
f 314/20/101 401/19/104 402/21/103
f 393/22/112 313/23/100 403/24/102 402/25/103 401/26/104 400/27/105 399/28/106 398/29/107 397/30/108 396/31/109 395/32/110 394/33/111
f 314/34/101 402/21/103 403/35/102
f 314/36/101 403/35/102 313/37/100
f 404/1/128 405/2/100 406/3/112
f 404/4/128 406/3/112 407/5/111
f 404/6/128 407/5/111 408/7/110
f 404/8/128 408/7/110 409/9/109
f 404/10/128 409/9/109 410/11/108
f 404/12/128 410/11/108 411/13/107
f 404/14/128 411/13/107 412/15/106
f 404/16/128 412/15/106 413/17/105
f 404/18/128 413/17/105 414/19/104
f 404/20/128 414/19/104 415/21/103
f 406/22/112 405/23/100 416/24/102 415/25/103 414/26/104 413/27/105 412/28/106 411/29/107 410/30/108 409/31/109 408/32/110 407/33/111
f 404/34/128 415/21/103 416/35/102
f 404/36/128 416/35/102 405/37/100
f 417/1/82 418/2/100 419/3/112
f 417/4/82 419/3/112 420/5/111
f 417/6/82 420/5/111 421/7/110
f 417/8/82 421/7/110 422/9/109
f 417/10/82 422/9/109 423/11/108
f 417/12/82 423/11/108 424/13/107
f 417/14/82 424/13/107 425/15/106
f 417/16/82 425/15/106 426/17/105
f 417/18/82 426/17/105 427/19/104
f 417/20/82 427/19/104 428/21/103
f 419/22/112 418/23/100 429/24/102 428/25/103 427/26/104 426/27/105 425/28/106 424/29/107 423/30/108 422/31/109 421/32/110 420/33/111
f 417/34/82 428/21/103 429/35/102
f 417/36/82 429/35/102 418/37/100
f 430/1/129 431/2/100 432/3/112
f 430/4/129 432/3/112 433/5/111
f 430/6/129 433/5/111 434/7/110
f 430/8/129 434/7/110 435/9/109
f 430/10/129 435/9/109 436/11/108
f 430/12/129 436/11/108 437/13/107
f 430/14/129 437/13/107 438/15/106
f 430/16/129 438/15/106 439/17/105
f 430/18/129 439/17/105 440/19/104
f 430/20/129 440/19/104 441/21/103
f 432/22/112 431/23/100 442/24/102 441/25/103 440/26/104 439/27/105 438/28/106 437/29/107 436/30/108 435/31/109 434/32/110 433/33/111
f 430/34/129 441/21/103 442/35/102
f 430/36/129 442/35/102 431/37/100
